<svg version="1.1" viewBox="0.0 0.0 818.1601049868766 292.5748031496063" fill="none" stroke="none" stroke-linecap="square" stroke-miterlimit="10" xmlns:xlink="http://www.w3.org/1999/xlink" xmlns="http://www.w3.org/2000/svg"><clipPath id="p.0"><path d="m0 0l818.1601 0l0 292.5748l-818.1601 0l0 -292.5748z" clip-rule="nonzero"/></clipPath><g clip-path="url(#p.0)"><path fill="#000000" fill-opacity="0.0" d="m0 0l818.1601 0l0 292.5748l-818.1601 0z" fill-rule="evenodd"/><path fill="#ea9999" d="m8.574803 7.6220474l481.7323 0l0 278.26773l-481.7323 0z" fill-rule="evenodd"/><path stroke="#000000" stroke-width="1.0" stroke-linejoin="round" stroke-linecap="butt" d="m8.574803 7.6220474l481.7323 0l0 278.26773l-481.7323 0z" fill-rule="evenodd"/><path fill="#000000" d="m191.44824 153.6759l-5.171875 -13.359375l1.921875 0l3.46875 9.703125q0.421875 1.171875 0.703125 2.1875q0.3125 -1.09375 0.71875 -2.1875l3.609375 -9.703125l1.796875 0l-5.234375 13.359375l-1.8125 0zm8.427948 -11.46875l0 -1.890625l1.640625 0l0 1.890625l-1.640625 0zm0 11.46875l0 -9.671875l1.640625 0l0 9.671875l-1.640625 0zm4.129196 0l0 -9.671875l1.46875 0l0 1.46875q0.5625 -1.03125 1.03125 -1.359375q0.484375 -0.328125 1.0625 -0.328125q0.828125 0 1.6875 0.53125l-0.5625 1.515625q-0.609375 -0.359375 -1.203125 -0.359375q-0.546875 0 -0.96875 0.328125q-0.421875 0.328125 -0.609375 0.890625q-0.28125 0.875 -0.28125 1.921875l0 5.0625l-1.625 0zm9.806427 -1.46875l0.234375 1.453125q-0.6875 0.140625 -1.234375 0.140625q-0.890625 0 -1.390625 -0.28125q-0.484375 -0.28125 -0.6875 -0.734375q-0.203125 -0.46875 -0.203125 -1.9375l0 -5.578125l-1.203125 0l0 -1.265625l1.203125 0l0 -2.390625l1.625 -0.984375l0 3.375l1.65625 0l0 1.265625l-1.65625 0l0 5.671875q0 0.6875 0.078125 0.890625q0.09375 0.203125 0.28125 0.328125q0.203125 0.109375 0.578125 0.109375q0.265625 0 0.71875 -0.0625zm7.933304 1.46875l0 -1.421875q-1.125 1.640625 -3.0625 1.640625q-0.859375 0 -1.609375 -0.328125q-0.734375 -0.328125 -1.09375 -0.828125q-0.359375 -0.5 -0.5 -1.21875q-0.109375 -0.46875 -0.109375 -1.53125l0 -5.984375l1.640625 0l0 5.359375q0 1.28125 0.109375 1.734375q0.15625 0.640625 0.65625 1.015625q0.5 0.375 1.234375 0.375q0.734375 0 1.375 -0.375q0.65625 -0.390625 0.921875 -1.03125q0.265625 -0.65625 0.265625 -1.890625l0 -5.1875l1.640625 0l0 9.671875l-1.46875 0zm10.360092 -1.1875q-0.921875 0.765625 -1.765625 1.09375q-0.828125 0.3125 -1.796875 0.3125q-1.59375 0 -2.453125 -0.78125q-0.859375 -0.78125 -0.859375 -1.984375q0 -0.71875 0.328125 -1.296875q0.328125 -0.59375 0.84375 -0.9375q0.53125 -0.359375 1.1875 -0.546875q0.46875 -0.125 1.453125 -0.25q1.984375 -0.234375 2.921875 -0.5625q0.015625 -0.34375 0.015625 -0.421875q0 -1.0 -0.46875 -1.421875q-0.625 -0.546875 -1.875 -0.546875q-1.15625 0 -1.703125 0.40625q-0.546875 0.40625 -0.8125 1.421875l-1.609375 -0.21875q0.21875 -1.015625 0.71875 -1.640625q0.5 -0.640625 1.453125 -0.984375q0.953125 -0.34375 2.1875 -0.34375q1.25 0 2.015625 0.296875q0.78125 0.28125 1.140625 0.734375q0.375 0.4375 0.515625 1.109375q0.078125 0.421875 0.078125 1.515625l0 2.1875q0 2.28125 0.109375 2.890625q0.109375 0.59375 0.40625 1.15625l-1.703125 0q-0.265625 -0.515625 -0.328125 -1.1875zm-0.140625 -3.671875q-0.890625 0.375 -2.671875 0.625q-1.015625 0.140625 -1.4375 0.328125q-0.421875 0.1875 -0.65625 0.53125q-0.21875 0.34375 -0.21875 0.78125q0 0.65625 0.5 1.09375q0.5 0.4375 1.453125 0.4375q0.9375 0 1.671875 -0.40625q0.75 -0.421875 1.09375 -1.140625q0.265625 -0.5625 0.265625 -1.640625l0 -0.609375zm4.156967 4.859375l0 -13.359375l1.640625 0l0 13.359375l-1.640625 0zm9.5625 0l0 -13.359375l1.8125 0l7.015625 10.484375l0 -10.484375l1.6875 0l0 13.359375l-1.8125 0l-7.015625 -10.5l0 10.5l-1.6875 0zm19.910461 -3.109375l1.6875 0.203125q-0.40625 1.484375 -1.484375 2.3125q-1.078125 0.8125 -2.765625 0.8125q-2.125 0 -3.375 -1.296875q-1.234375 -1.3125 -1.234375 -3.671875q0 -2.453125 1.25 -3.796875q1.265625 -1.34375 3.265625 -1.34375q1.9375 0 3.15625 1.328125q1.234375 1.3125 1.234375 3.703125q0 0.15625 0 0.4375l-7.21875 0q0.09375 1.59375 0.90625 2.453125q0.8125 0.84375 2.015625 0.84375q0.90625 0 1.546875 -0.46875q0.640625 -0.484375 1.015625 -1.515625zm-5.390625 -2.65625l5.40625 0q-0.109375 -1.21875 -0.625 -1.828125q-0.78125 -0.953125 -2.03125 -0.953125q-1.125 0 -1.90625 0.765625q-0.765625 0.75 -0.84375 2.015625zm12.719452 4.296875l0.234375 1.453125q-0.6875 0.140625 -1.234375 0.140625q-0.890625 0 -1.390625 -0.28125q-0.484375 -0.28125 -0.6875 -0.734375q-0.203125 -0.46875 -0.203125 -1.9375l0 -5.578125l-1.203125 0l0 -1.265625l1.203125 0l0 -2.390625l1.625 -0.984375l0 3.375l1.65625 0l0 1.265625l-1.65625 0l0 5.671875q0 0.6875 0.078125 0.890625q0.09375 0.203125 0.28125 0.328125q0.203125 0.109375 0.578125 0.109375q0.265625 0 0.71875 -0.0625zm3.386444 1.46875l-2.96875 -9.671875l1.703125 0l1.53125 5.578125l0.578125 2.078125q0.046875 -0.15625 0.5 -2.0l1.546875 -5.65625l1.6875 0l1.4375 5.609375l0.484375 1.84375l0.5625 -1.859375l1.65625 -5.59375l1.59375 0l-3.03125 9.671875l-1.703125 0l-1.53125 -5.796875l-0.375 -1.640625l-1.953125 7.4375l-1.71875 0zm11.082306 -4.84375q0 -2.6875 1.484375 -3.96875q1.25 -1.078125 3.046875 -1.078125q2.0 0 3.265625 1.3125q1.265625 1.296875 1.265625 3.609375q0 1.859375 -0.5625 2.9375q-0.5625 1.0625 -1.640625 1.65625q-1.0625 0.59375 -2.328125 0.59375q-2.03125 0 -3.28125 -1.296875q-1.25 -1.3125 -1.25 -3.765625zm1.6875 0q0 1.859375 0.796875 2.796875q0.8125 0.921875 2.046875 0.921875q1.21875 0 2.03125 -0.921875q0.8125 -0.9375 0.8125 -2.84375q0 -1.796875 -0.8125 -2.71875q-0.8125 -0.921875 -2.03125 -0.921875q-1.234375 0 -2.046875 0.921875q-0.796875 0.90625 -0.796875 2.765625zm9.281952 4.84375l0 -9.671875l1.46875 0l0 1.46875q0.5625 -1.03125 1.03125 -1.359375q0.484375 -0.328125 1.0625 -0.328125q0.828125 0 1.6875 0.53125l-0.5625 1.515625q-0.609375 -0.359375 -1.203125 -0.359375q-0.546875 0 -0.96875 0.328125q-0.421875 0.328125 -0.609375 0.890625q-0.28125 0.875 -0.28125 1.921875l0 5.0625l-1.625 0zm6.2283325 0l0 -13.359375l1.640625 0l0 7.625l3.890625 -3.9375l2.109375 0l-3.6875 3.59375l4.0625 6.078125l-2.015625 0l-3.203125 -4.953125l-1.15625 1.125l0 3.828125l-1.640625 0z" fill-rule="nonzero"/><path fill="#fff2cc" d="m15.362205 186.2812l0 0c0 -10.155869 8.232955 -18.38881 18.388817 -18.38881l431.15936 0c4.877014 0 9.554291 1.9373779 13.002838 5.385956c3.448578 3.448578 5.3859863 8.125839 5.3859863 13.002853l0 73.553085c0 10.155853 -8.232971 18.388794 -18.388824 18.388794l-431.15936 0c-10.155863 0 -18.388817 -8.232941 -18.388817 -18.388794z" fill-rule="evenodd"/><path stroke="#000000" stroke-width="1.0" stroke-linejoin="round" stroke-linecap="butt" d="m15.362205 186.2812l0 0c0 -10.155869 8.232955 -18.38881 18.388817 -18.38881l431.15936 0c4.877014 0 9.554291 1.9373779 13.002838 5.385956c3.448578 3.448578 5.3859863 8.125839 5.3859863 13.002853l0 73.553085c0 10.155853 -8.232971 18.388794 -18.388824 18.388794l-431.15936 0c-10.155863 0 -18.388817 -8.232941 -18.388817 -18.388794z" fill-rule="evenodd"/><path fill="#000000" d="m144.99493 193.69829q0 -3.328125 1.78125 -5.203125q1.78125 -1.890625 4.609375 -1.890625q1.84375 0 3.328125 0.890625q1.484375 0.875 2.265625 2.46875q0.78125 1.578125 0.78125 3.578125q0 2.03125 -0.828125 3.640625q-0.8125 1.59375 -2.3125 2.421875q-1.5 0.828125 -3.25 0.828125q-1.875 0 -3.359375 -0.90625q-1.484375 -0.921875 -2.25 -2.5q-0.765625 -1.578125 -0.765625 -3.328125zm1.8125 0.015625q0 2.421875 1.296875 3.8125q1.296875 1.390625 3.265625 1.390625q2.0 0 3.28125 -1.40625q1.28125 -1.40625 1.28125 -3.984375q0 -1.625 -0.546875 -2.84375q-0.546875 -1.21875 -1.609375 -1.875q-1.0625 -0.671875 -2.375 -0.671875q-1.890625 0 -3.25 1.296875q-1.34375 1.28125 -1.34375 4.28125zm13.027054 6.484375l0 -9.671875l1.46875 0l0 1.375q1.0625 -1.59375 3.078125 -1.59375q0.875 0 1.609375 0.3125q0.734375 0.3125 1.09375 0.828125q0.375 0.5 0.515625 1.203125q0.09375 0.453125 0.09375 1.59375l0 5.953125l-1.640625 0l0 -5.890625q0 -1.0 -0.203125 -1.484375q-0.1875 -0.5 -0.671875 -0.796875q-0.484375 -0.296875 -1.140625 -0.296875q-1.046875 0 -1.8125 0.671875q-0.75 0.65625 -0.75 2.515625l0 5.28125l-1.640625 0zm9.735092 -4.015625l0 -1.640625l5.03125 0l0 1.640625l-5.03125 0zm7.056427 4.015625l0 -13.359375l5.046875 0q1.328125 0 2.03125 0.125q0.96875 0.171875 1.640625 0.640625q0.671875 0.453125 1.078125 1.28125q0.40625 0.828125 0.40625 1.828125q0 1.703125 -1.09375 2.890625q-1.078125 1.171875 -3.921875 1.171875l-3.421875 0l0 5.421875l-1.765625 0zm1.765625 -7.0l3.453125 0q1.71875 0 2.4375 -0.640625q0.71875 -0.640625 0.71875 -1.796875q0 -0.84375 -0.421875 -1.4375q-0.421875 -0.59375 -1.125 -0.78125q-0.4375 -0.125 -1.640625 -0.125l-3.421875 0l0 4.78125zm10.459198 7.0l0 -9.671875l1.46875 0l0 1.46875q0.5625 -1.03125 1.03125 -1.359375q0.484375 -0.328125 1.0625 -0.328125q0.828125 0 1.6875 0.53125l-0.5625 1.515625q-0.609375 -0.359375 -1.203125 -0.359375q-0.546875 0 -0.96875 0.328125q-0.421875 0.328125 -0.609375 0.890625q-0.28125 0.875 -0.28125 1.921875l0 5.0625l-1.625 0zm12.853302 -3.109375l1.6875 0.203125q-0.40625 1.484375 -1.484375 2.3125q-1.078125 0.8125 -2.765625 0.8125q-2.125 0 -3.375 -1.296875q-1.234375 -1.3125 -1.234375 -3.671875q0 -2.453125 1.25 -3.796875q1.265625 -1.34375 3.265625 -1.34375q1.9375 0 3.15625 1.328125q1.234375 1.3125 1.234375 3.703125q0 0.15625 0 0.4375l-7.21875 0q0.09375 1.59375 0.90625 2.453125q0.8125 0.84375 2.015625 0.84375q0.90625 0 1.546875 -0.46875q0.640625 -0.484375 1.015625 -1.515625zm-5.390625 -2.65625l5.40625 0q-0.109375 -1.21875 -0.625 -1.828125q-0.78125 -0.953125 -2.03125 -0.953125q-1.125 0 -1.90625 0.765625q-0.765625 0.75 -0.84375 2.015625zm9.141342 5.765625l0 -9.671875l1.46875 0l0 1.359375q0.453125 -0.71875 1.203125 -1.140625q0.765625 -0.4375 1.71875 -0.4375q1.078125 0 1.765625 0.453125q0.6875 0.4375 0.96875 1.234375q1.15625 -1.6875 2.984375 -1.6875q1.453125 0 2.21875 0.796875q0.78125 0.796875 0.78125 2.453125l0 6.640625l-1.640625 0l0 -6.09375q0 -0.984375 -0.15625 -1.40625q-0.15625 -0.4375 -0.578125 -0.703125q-0.421875 -0.265625 -0.984375 -0.265625q-1.015625 0 -1.6875 0.6875q-0.671875 0.671875 -0.671875 2.15625l0 5.625l-1.640625 0l0 -6.28125q0 -1.09375 -0.40625 -1.640625q-0.40625 -0.546875 -1.3125 -0.546875q-0.6875 0 -1.28125 0.359375q-0.59375 0.359375 -0.859375 1.0625q-0.25 0.703125 -0.25 2.03125l0 5.015625l-1.640625 0zm15.540802 -11.46875l0 -1.890625l1.640625 0l0 1.890625l-1.640625 0zm0 11.46875l0 -9.671875l1.640625 0l0 9.671875l-1.640625 0zm3.4885712 -2.890625l1.625 -0.25q0.125 0.96875 0.75 1.5q0.625 0.515625 1.75 0.515625q1.125 0 1.671875 -0.453125q0.546875 -0.46875 0.546875 -1.09375q0 -0.546875 -0.484375 -0.875q-0.328125 -0.21875 -1.671875 -0.546875q-1.8125 -0.46875 -2.515625 -0.796875q-0.6875 -0.328125 -1.046875 -0.90625q-0.359375 -0.59375 -0.359375 -1.3125q0 -0.640625 0.296875 -1.1875q0.296875 -0.5625 0.8125 -0.921875q0.375 -0.28125 1.03125 -0.46875q0.671875 -0.203125 1.421875 -0.203125q1.140625 0 2.0 0.328125q0.859375 0.328125 1.265625 0.890625q0.421875 0.5625 0.578125 1.5l-1.609375 0.21875q-0.109375 -0.75 -0.640625 -1.171875q-0.515625 -0.421875 -1.46875 -0.421875q-1.140625 0 -1.625 0.375q-0.46875 0.375 -0.46875 0.875q0 0.3125 0.1875 0.578125q0.203125 0.265625 0.640625 0.4375q0.234375 0.09375 1.4375 0.421875q1.75 0.453125 2.4375 0.75q0.6875 0.296875 1.078125 0.859375q0.390625 0.5625 0.390625 1.40625q0 0.828125 -0.484375 1.546875q-0.46875 0.71875 -1.375 1.125q-0.90625 0.390625 -2.046875 0.390625q-1.875 0 -2.875 -0.78125q-0.984375 -0.78125 -1.25 -2.328125zm16.609375 -0.21875l1.6875 0.203125q-0.40625 1.484375 -1.484375 2.3125q-1.078125 0.8125 -2.765625 0.8125q-2.125 0 -3.375 -1.296875q-1.234375 -1.3125 -1.234375 -3.671875q0 -2.453125 1.25 -3.796875q1.265625 -1.34375 3.265625 -1.34375q1.9375 0 3.15625 1.328125q1.234375 1.3125 1.234375 3.703125q0 0.15625 0 0.4375l-7.21875 0q0.09375 1.59375 0.90625 2.453125q0.8125 0.84375 2.015625 0.84375q0.90625 0 1.546875 -0.46875q0.640625 -0.484375 1.015625 -1.515625zm-5.390625 -2.65625l5.40625 0q-0.109375 -1.21875 -0.625 -1.828125q-0.78125 -0.953125 -2.03125 -0.953125q-1.125 0 -1.90625 0.765625q-0.765625 0.75 -0.84375 2.015625zm8.485092 2.875l1.625 -0.25q0.125 0.96875 0.75 1.5q0.625 0.515625 1.75 0.515625q1.125 0 1.671875 -0.453125q0.546875 -0.46875 0.546875 -1.09375q0 -0.546875 -0.484375 -0.875q-0.328125 -0.21875 -1.671875 -0.546875q-1.8125 -0.46875 -2.515625 -0.796875q-0.6875 -0.328125 -1.046875 -0.90625q-0.359375 -0.59375 -0.359375 -1.3125q0 -0.640625 0.296875 -1.1875q0.296875 -0.5625 0.8125 -0.921875q0.375 -0.28125 1.03125 -0.46875q0.671875 -0.203125 1.421875 -0.203125q1.140625 0 2.0 0.328125q0.859375 0.328125 1.265625 0.890625q0.421875 0.5625 0.578125 1.5l-1.609375 0.21875q-0.109375 -0.75 -0.640625 -1.171875q-0.515625 -0.421875 -1.46875 -0.421875q-1.140625 0 -1.625 0.375q-0.46875 0.375 -0.46875 0.875q0 0.3125 0.1875 0.578125q0.203125 0.265625 0.640625 0.4375q0.234375 0.09375 1.4375 0.421875q1.75 0.453125 2.4375 0.75q0.6875 0.296875 1.078125 0.859375q0.390625 0.5625 0.390625 1.40625q0 0.828125 -0.484375 1.546875q-0.46875 0.71875 -1.375 1.125q-0.90625 0.390625 -2.046875 0.390625q-1.875 0 -2.875 -0.78125q-0.984375 -0.78125 -1.25 -2.328125zm21.433304 2.890625l0 -1.21875q-0.90625 1.4375 -2.703125 1.4375q-1.15625 0 -2.125 -0.640625q-0.96875 -0.640625 -1.5 -1.78125q-0.53125 -1.140625 -0.53125 -2.625q0 -1.453125 0.484375 -2.625q0.484375 -1.1875 1.4375 -1.8125q0.96875 -0.625 2.171875 -0.625q0.875 0 1.546875 0.375q0.6875 0.359375 1.109375 0.953125l0 -4.796875l1.640625 0l0 13.359375l-1.53125 0zm-5.171875 -4.828125q0 1.859375 0.78125 2.78125q0.78125 0.921875 1.84375 0.921875q1.078125 0 1.828125 -0.875q0.75 -0.890625 0.75 -2.6875q0 -1.984375 -0.765625 -2.90625q-0.765625 -0.9375 -1.890625 -0.9375q-1.078125 0 -1.8125 0.890625q-0.734375 0.890625 -0.734375 2.8125zm15.906952 1.71875l1.6875 0.203125q-0.40625 1.484375 -1.484375 2.3125q-1.078125 0.8125 -2.765625 0.8125q-2.125 0 -3.375 -1.296875q-1.234375 -1.3125 -1.234375 -3.671875q0 -2.453125 1.25 -3.796875q1.265625 -1.34375 3.265625 -1.34375q1.9375 0 3.15625 1.328125q1.234375 1.3125 1.234375 3.703125q0 0.15625 0 0.4375l-7.21875 0q0.09375 1.59375 0.90625 2.453125q0.8125 0.84375 2.015625 0.84375q0.90625 0 1.546875 -0.46875q0.640625 -0.484375 1.015625 -1.515625zm-5.390625 -2.65625l5.40625 0q-0.109375 -1.21875 -0.625 -1.828125q-0.78125 -0.953125 -2.03125 -0.953125q-1.125 0 -1.90625 0.765625q-0.765625 0.75 -0.84375 2.015625zm9.141357 9.46875l0 -13.375l1.484375 0l0 1.25q0.53125 -0.734375 1.1875 -1.09375q0.671875 -0.375 1.625 -0.375q1.234375 0 2.171875 0.640625q0.953125 0.625 1.4375 1.796875q0.484375 1.15625 0.484375 2.546875q0 1.484375 -0.53125 2.671875q-0.53125 1.1875 -1.546875 1.828125q-1.015625 0.625 -2.140625 0.625q-0.8125 0 -1.46875 -0.34375q-0.65625 -0.34375 -1.0625 -0.875l0 4.703125l-1.640625 0zm1.484375 -8.484375q0 1.859375 0.75 2.765625q0.765625 0.890625 1.828125 0.890625q1.09375 0 1.875 -0.921875q0.78125 -0.9375 0.78125 -2.875q0 -1.84375 -0.765625 -2.765625q-0.75 -0.921875 -1.8125 -0.921875q-1.046875 0 -1.859375 0.984375q-0.796875 0.96875 -0.796875 2.84375zm8.844482 4.78125l0 -13.359375l1.640625 0l0 13.359375l-1.640625 0zm3.582306 -4.84375q0 -2.6875 1.484375 -3.96875q1.25 -1.078125 3.046875 -1.078125q2.0 0 3.265625 1.3125q1.265625 1.296875 1.265625 3.609375q0 1.859375 -0.5625 2.9375q-0.5625 1.0625 -1.640625 1.65625q-1.0625 0.59375 -2.328125 0.59375q-2.03125 0 -3.28125 -1.296875q-1.25 -1.3125 -1.25 -3.765625zm1.6875 0q0 1.859375 0.796875 2.796875q0.8125 0.921875 2.046875 0.921875q1.21875 0 2.03125 -0.921875q0.8125 -0.9375 0.8125 -2.84375q0 -1.796875 -0.8125 -2.71875q-0.8125 -0.921875 -2.03125 -0.921875q-1.234375 0 -2.046875 0.921875q-0.796875 0.90625 -0.796875 2.765625zm9.219452 8.5625l-0.1875 -1.53125q0.546875 0.140625 0.9375 0.140625q0.546875 0 0.875 -0.1875q0.328125 -0.171875 0.546875 -0.5q0.15625 -0.25 0.5 -1.21875q0.046875 -0.140625 0.140625 -0.40625l-3.671875 -9.6875l1.765625 0l2.015625 5.59375q0.390625 1.078125 0.703125 2.25q0.28125 -1.125 0.671875 -2.203125l2.078125 -5.640625l1.640625 0l-3.6875 9.828125q-0.59375 1.609375 -0.921875 2.203125q-0.4375 0.8125 -1.0 1.1875q-0.5625 0.375 -1.34375 0.375q-0.484375 0 -1.0625 -0.203125zm9.40625 -3.71875l0 -9.671875l1.46875 0l0 1.359375q0.453125 -0.71875 1.203125 -1.140625q0.765625 -0.4375 1.71875 -0.4375q1.078125 0 1.765625 0.453125q0.6875 0.4375 0.96875 1.234375q1.15625 -1.6875 2.984375 -1.6875q1.453125 0 2.21875 0.796875q0.78125 0.796875 0.78125 2.453125l0 6.640625l-1.640625 0l0 -6.09375q0 -0.984375 -0.15625 -1.40625q-0.15625 -0.4375 -0.578125 -0.703125q-0.421875 -0.265625 -0.984375 -0.265625q-1.015625 0 -1.6875 0.6875q-0.671875 0.671875 -0.671875 2.15625l0 5.625l-1.640625 0l0 -6.28125q0 -1.09375 -0.40625 -1.640625q-0.40625 -0.546875 -1.3125 -0.546875q-0.6875 0 -1.28125 0.359375q-0.59375 0.359375 -0.859375 1.0625q-0.25 0.703125 -0.25 2.03125l0 5.015625l-1.640625 0zm22.165833 -3.109375l1.6875 0.203125q-0.40625 1.484375 -1.484375 2.3125q-1.078125 0.8125 -2.765625 0.8125q-2.125 0 -3.375 -1.296875q-1.234375 -1.3125 -1.234375 -3.671875q0 -2.453125 1.25 -3.796875q1.265625 -1.34375 3.265625 -1.34375q1.9375 0 3.15625 1.328125q1.234375 1.3125 1.234375 3.703125q0 0.15625 0 0.4375l-7.21875 0q0.09375 1.59375 0.90625 2.453125q0.8125 0.84375 2.015625 0.84375q0.90625 0 1.546875 -0.46875q0.640625 -0.484375 1.015625 -1.515625zm-5.390625 -2.65625l5.40625 0q-0.109375 -1.21875 -0.625 -1.828125q-0.78125 -0.953125 -2.03125 -0.953125q-1.125 0 -1.90625 0.765625q-0.765625 0.75 -0.84375 2.015625zm9.141327 5.765625l0 -9.671875l1.46875 0l0 1.375q1.0625 -1.59375 3.078125 -1.59375q0.875 0 1.609375 0.3125q0.734375 0.3125 1.09375 0.828125q0.375 0.5 0.515625 1.203125q0.09375 0.453125 0.09375 1.59375l0 5.953125l-1.640625 0l0 -5.890625q0 -1.0 -0.203125 -1.484375q-0.1875 -0.5 -0.671875 -0.796875q-0.484375 -0.296875 -1.140625 -0.296875q-1.046875 0 -1.8125 0.671875q-0.75 0.65625 -0.75 2.515625l0 5.28125l-1.640625 0zm13.953827 -1.46875l0.234375 1.453125q-0.6875 0.140625 -1.234375 0.140625q-0.890625 0 -1.390625 -0.28125q-0.484375 -0.28125 -0.6875 -0.734375q-0.203125 -0.46875 -0.203125 -1.9375l0 -5.578125l-1.203125 0l0 -1.265625l1.203125 0l0 -2.390625l1.625 -0.984375l0 3.375l1.65625 0l0 1.265625l-1.65625 0l0 5.671875q0 0.6875 0.078125 0.890625q0.09375 0.203125 0.28125 0.328125q0.203125 0.109375 0.578125 0.109375q0.265625 0 0.71875 -0.0625z" fill-rule="nonzero"/><path fill="#93c47d" d="m25.732283 224.28102l0 0c0 -4.957611 4.018942 -8.9765625 8.976557 -8.9765625l35.90515 0l0 0c2.3807373 0 4.6639557 0.94573975 6.347389 2.629181c1.6834259 1.6834259 2.6291733 3.9666443 2.6291733 6.3473816l0 35.905136c0 4.9576416 -4.018944 8.9765625 -8.9765625 8.9765625l-35.90515 0c-4.957615 0 -8.976557 -4.018921 -8.976557 -8.9765625z" fill-rule="evenodd"/><path stroke="#000000" stroke-width="1.0" stroke-linejoin="round" stroke-linecap="butt" d="m25.732283 224.28102l0 0c0 -4.957611 4.018942 -8.9765625 8.976557 -8.9765625l35.90515 0l0 0c2.3807373 0 4.6639557 0.94573975 6.347389 2.629181c1.6834259 1.6834259 2.6291733 3.9666443 2.6291733 6.3473816l0 35.905136c0 4.9576416 -4.018944 8.9765625 -8.9765625 8.9765625l-35.90515 0c-4.957615 0 -8.976557 -4.018921 -8.976557 -8.9765625z" fill-rule="evenodd"/><path fill="#000000" d="m42.611427 249.1536l-5.171875 -13.359375l1.921875 0l3.46875 9.703125q0.421875 1.171875 0.703125 2.1875q0.3125 -1.09375 0.71875 -2.1875l3.609375 -9.703125l1.796875 0l-5.234375 13.359375l-1.8125 0zm8.584198 0l0 -13.359375l2.65625 0l3.15625 9.453125q0.4375 1.328125 0.640625 1.984375q0.234375 -0.734375 0.703125 -2.140625l3.203125 -9.296875l2.375 0l0 13.359375l-1.703125 0l0 -11.171875l-3.875 11.171875l-1.59375 0l-3.859375 -11.375l0 11.375l-1.703125 0z" fill-rule="nonzero"/><path fill="#93c47d" d="m91.28871 224.28102l0 0c0 -4.957611 4.018944 -8.9765625 8.9765625 -8.9765625l35.90515 0l0 0c2.3807373 0 4.6639557 0.94573975 6.3473816 2.629181c1.6834259 1.6834259 2.629181 3.9666443 2.629181 6.3473816l0 35.905136c0 4.9576416 -4.0189514 8.9765625 -8.9765625 8.9765625l-35.90515 0c-4.9576187 0 -8.9765625 -4.018921 -8.9765625 -8.9765625z" fill-rule="evenodd"/><path stroke="#000000" stroke-width="1.0" stroke-linejoin="round" stroke-linecap="butt" d="m91.28871 224.28102l0 0c0 -4.957611 4.018944 -8.9765625 8.9765625 -8.9765625l35.90515 0l0 0c2.3807373 0 4.6639557 0.94573975 6.3473816 2.629181c1.6834259 1.6834259 2.629181 3.9666443 2.629181 6.3473816l0 35.905136c0 4.9576416 -4.0189514 8.9765625 -8.9765625 8.9765625l-35.90515 0c-4.9576187 0 -8.9765625 -4.018921 -8.9765625 -8.9765625z" fill-rule="evenodd"/><path fill="#000000" d="m108.167854 249.1536l-5.171875 -13.359375l1.921875 0l3.46875 9.703125q0.421875 1.171875 0.703125 2.1875q0.3125 -1.09375 0.71875 -2.1875l3.609375 -9.703125l1.796875 0l-5.234375 13.359375l-1.8125 0zm8.584198 0l0 -13.359375l2.65625 0l3.15625 9.453125q0.4375 1.328125 0.640625 1.984375q0.234375 -0.734375 0.703125 -2.140625l3.203125 -9.296875l2.3750076 0l0 13.359375l-1.7031326 0l0 -11.171875l-3.875 11.171875l-1.59375 0l-3.859375 -11.375l0 11.375l-1.703125 0z" fill-rule="nonzero"/><path fill="#93c47d" d="m156.84514 224.28102l0 0c0 -4.957611 4.0189514 -8.9765625 8.9765625 -8.9765625l35.90515 0l0 0c2.3807373 0 4.6639557 0.94573975 6.3473816 2.629181c1.6834412 1.6834259 2.629181 3.9666443 2.629181 6.3473816l0 35.905136c0 4.9576416 -4.0189514 8.9765625 -8.9765625 8.9765625l-35.90515 0c-4.957611 0 -8.9765625 -4.018921 -8.9765625 -8.9765625z" fill-rule="evenodd"/><path stroke="#000000" stroke-width="1.0" stroke-linejoin="round" stroke-linecap="butt" d="m156.84514 224.28102l0 0c0 -4.957611 4.0189514 -8.9765625 8.9765625 -8.9765625l35.90515 0l0 0c2.3807373 0 4.6639557 0.94573975 6.3473816 2.629181c1.6834412 1.6834259 2.629181 3.9666443 2.629181 6.3473816l0 35.905136c0 4.9576416 -4.0189514 8.9765625 -8.9765625 8.9765625l-35.90515 0c-4.957611 0 -8.9765625 -4.018921 -8.9765625 -8.9765625z" fill-rule="evenodd"/><path fill="#000000" d="m173.72429 249.1536l-5.171875 -13.359375l1.921875 0l3.46875 9.703125q0.421875 1.171875 0.703125 2.1875q0.3125 -1.09375 0.71875 -2.1875l3.609375 -9.703125l1.796875 0l-5.234375 13.359375l-1.8125 0zm8.584198 0l0 -13.359375l2.65625 0l3.15625 9.453125q0.4375 1.328125 0.640625 1.984375q0.234375 -0.734375 0.703125 -2.140625l3.203125 -9.296875l2.375 0l0 13.359375l-1.703125 0l0 -11.171875l-3.875 11.171875l-1.59375 0l-3.859375 -11.375l0 11.375l-1.703125 0z" fill-rule="nonzero"/><path fill="#93c47d" d="m222.40158 224.28102l0 0c0 -4.957611 4.018936 -8.9765625 8.976547 -8.9765625l35.905167 0l0 0c2.3807068 0 4.6639404 0.94573975 6.3473816 2.629181c1.6834106 1.6834259 2.629181 3.9666443 2.629181 6.3473816l0 35.905136c0 4.9576416 -4.0189514 8.9765625 -8.9765625 8.9765625l-35.905167 0c-4.957611 0 -8.976547 -4.018921 -8.976547 -8.9765625z" fill-rule="evenodd"/><path stroke="#000000" stroke-width="1.0" stroke-linejoin="round" stroke-linecap="butt" d="m222.40158 224.28102l0 0c0 -4.957611 4.018936 -8.9765625 8.976547 -8.9765625l35.905167 0l0 0c2.3807068 0 4.6639404 0.94573975 6.3473816 2.629181c1.6834106 1.6834259 2.629181 3.9666443 2.629181 6.3473816l0 35.905136c0 4.9576416 -4.0189514 8.9765625 -8.9765625 8.9765625l-35.905167 0c-4.957611 0 -8.976547 -4.018921 -8.976547 -8.9765625z" fill-rule="evenodd"/><path fill="#000000" d="m239.28072 249.1536l-5.171875 -13.359375l1.921875 0l3.46875 9.703125q0.421875 1.171875 0.703125 2.1875q0.3125 -1.09375 0.71875 -2.1875l3.609375 -9.703125l1.796875 0l-5.234375 13.359375l-1.8125 0zm8.584198 0l0 -13.359375l2.65625 0l3.15625 9.453125q0.4375 1.328125 0.640625 1.984375q0.234375 -0.734375 0.703125 -2.140625l3.2031403 -9.296875l2.375 0l0 13.359375l-1.703125 0l0 -11.171875l-3.8750153 11.171875l-1.59375 0l-3.859375 -11.375l0 11.375l-1.703125 0z" fill-rule="nonzero"/><path fill="#93c47d" d="m287.958 224.28102l0 0c0 -4.957611 4.0189514 -8.9765625 8.9765625 -8.9765625l35.90515 0l0 0c2.3807373 0 4.6639404 0.94573975 6.3473816 2.629181c1.6834412 1.6834259 2.629181 3.9666443 2.629181 6.3473816l0 35.905136c0 4.9576416 -4.0189514 8.9765625 -8.9765625 8.9765625l-35.90515 0c-4.957611 0 -8.9765625 -4.018921 -8.9765625 -8.9765625z" fill-rule="evenodd"/><path stroke="#000000" stroke-width="1.0" stroke-linejoin="round" stroke-linecap="butt" d="m287.958 224.28102l0 0c0 -4.957611 4.0189514 -8.9765625 8.9765625 -8.9765625l35.90515 0l0 0c2.3807373 0 4.6639404 0.94573975 6.3473816 2.629181c1.6834412 1.6834259 2.629181 3.9666443 2.629181 6.3473816l0 35.905136c0 4.9576416 -4.0189514 8.9765625 -8.9765625 8.9765625l-35.90515 0c-4.957611 0 -8.9765625 -4.018921 -8.9765625 -8.9765625z" fill-rule="evenodd"/><path fill="#000000" d="m304.83716 249.1536l-5.171875 -13.359375l1.921875 0l3.46875 9.703125q0.421875 1.171875 0.703125 2.1875q0.3125 -1.09375 0.71875 -2.1875l3.609375 -9.703125l1.796875 0l-5.234375 13.359375l-1.8125 0zm8.584198 0l0 -13.359375l2.65625 0l3.15625 9.453125q0.4375 1.328125 0.640625 1.984375q0.234375 -0.734375 0.703125 -2.140625l3.203125 -9.296875l2.375 0l0 13.359375l-1.703125 0l0 -11.171875l-3.875 11.171875l-1.59375 0l-3.859375 -11.375l0 11.375l-1.703125 0z" fill-rule="nonzero"/><path fill="#93c47d" d="m353.51443 224.28102l0 0c0 -4.957611 4.0189514 -8.9765625 8.9765625 -8.9765625l35.90515 0l0 0c2.3807373 0 4.6639404 0.94573975 6.3473816 2.629181c1.6834412 1.6834259 2.629181 3.9666443 2.629181 6.3473816l0 35.905136c0 4.9576416 -4.0189514 8.9765625 -8.9765625 8.9765625l-35.90515 0c-4.957611 0 -8.9765625 -4.018921 -8.9765625 -8.9765625z" fill-rule="evenodd"/><path stroke="#000000" stroke-width="1.0" stroke-linejoin="round" stroke-linecap="butt" d="m353.51443 224.28102l0 0c0 -4.957611 4.0189514 -8.9765625 8.9765625 -8.9765625l35.90515 0l0 0c2.3807373 0 4.6639404 0.94573975 6.3473816 2.629181c1.6834412 1.6834259 2.629181 3.9666443 2.629181 6.3473816l0 35.905136c0 4.9576416 -4.0189514 8.9765625 -8.9765625 8.9765625l-35.90515 0c-4.957611 0 -8.9765625 -4.018921 -8.9765625 -8.9765625z" fill-rule="evenodd"/><path fill="#000000" d="m370.3936 249.1536l-5.171875 -13.359375l1.921875 0l3.46875 9.703125q0.421875 1.171875 0.703125 2.1875q0.3125 -1.09375 0.71875 -2.1875l3.609375 -9.703125l1.796875 0l-5.234375 13.359375l-1.8125 0zm8.584198 0l0 -13.359375l2.65625 0l3.15625 9.453125q0.4375 1.328125 0.640625 1.984375q0.234375 -0.734375 0.703125 -2.140625l3.203125 -9.296875l2.375 0l0 13.359375l-1.703125 0l0 -11.171875l-3.875 11.171875l-1.59375 0l-3.859375 -11.375l0 11.375l-1.703125 0z" fill-rule="nonzero"/><path fill="#93c47d" d="m419.07086 224.28102l0 0c0 -4.957611 4.0189514 -8.9765625 8.9765625 -8.9765625l35.90515 0l0 0c2.3807373 0 4.6639404 0.94573975 6.3473816 2.629181c1.6834412 1.6834259 2.629181 3.9666443 2.629181 6.3473816l0 35.905136c0 4.9576416 -4.0189514 8.9765625 -8.9765625 8.9765625l-35.90515 0c-4.957611 0 -8.9765625 -4.018921 -8.9765625 -8.9765625z" fill-rule="evenodd"/><path stroke="#000000" stroke-width="1.0" stroke-linejoin="round" stroke-linecap="butt" d="m419.07086 224.28102l0 0c0 -4.957611 4.0189514 -8.9765625 8.9765625 -8.9765625l35.90515 0l0 0c2.3807373 0 4.6639404 0.94573975 6.3473816 2.629181c1.6834412 1.6834259 2.629181 3.9666443 2.629181 6.3473816l0 35.905136c0 4.9576416 -4.0189514 8.9765625 -8.9765625 8.9765625l-35.90515 0c-4.957611 0 -8.9765625 -4.018921 -8.9765625 -8.9765625z" fill-rule="evenodd"/><path fill="#000000" d="m435.95 249.1536l-5.171875 -13.359375l1.921875 0l3.46875 9.703125q0.421875 1.171875 0.703125 2.1875q0.3125 -1.09375 0.71875 -2.1875l3.609375 -9.703125l1.796875 0l-5.234375 13.359375l-1.8125 0zm8.584198 0l0 -13.359375l2.65625 0l3.15625 9.453125q0.4375 1.328125 0.640625 1.984375q0.234375 -0.734375 0.703125 -2.140625l3.203125 -9.296875l2.375 0l0 13.359375l-1.703125 0l0 -11.171875l-3.875 11.171875l-1.59375 0l-3.859375 -11.375l0 11.375l-1.703125 0z" fill-rule="nonzero"/><path fill="#d9ead3" d="m604.22784 117.67756l0 0c-1.821106 -14.014824 4.157898 -27.888657 15.399902 -35.734314c11.242065 -7.8456573 25.775452 -8.287178 37.433228 -1.137207l0 0c4.1295166 -8.148804 11.687744 -13.774994 20.388489 -15.17675c8.700745 -1.4017563 17.522034 1.585556 23.795593 8.058334l0 0c3.5178223 -7.3882294 10.42511 -12.352173 18.270874 -13.130371c7.845703 -0.7781944 15.51947 2.7394905 20.298279 9.304802l0 0c6.3554688 -7.831501 16.467163 -11.128891 25.959717 -8.465366c9.492554 2.6635246 16.66101 10.809574 18.403564 20.913296l0 0c7.786499 2.2241821 14.272522 7.8783417 17.782227 15.501633c3.5097656 7.6232834 3.6988525 16.467873 0.5185547 24.248604l0 0c7.6674805 10.450371 9.46106 24.375359 4.711487 36.578407c-4.7495728 12.203049 -15.328796 20.8508 -27.789612 22.71605c-0.08782959 11.453003 -6.0858154 21.962143 -15.682129 27.47673c-9.596252 5.5145874 -21.292358 5.1735077 -30.580017 -0.8917694c-3.9560547 13.716949 -15.091064 23.809753 -28.594238 25.917938c-13.503235 2.1081848 -26.953918 -4.146164 -34.540894 -16.060959c-9.300049 5.8728333 -20.45935 7.564621 -30.96051 4.6937103c-10.501221 -2.8709106 -19.459778 -10.062683 -24.854858 -19.953003l0 0c-9.503479 1.1646118 -18.692017 -3.991623 -23.005432 -12.9096985c-4.3133545 -8.91806 -2.833374 -19.699509 3.7055054 -26.99356l0 0c-8.477356 -5.2250977 -12.8029785 -15.59343 -10.721313 -25.698318c2.081726 -10.104889 10.09906 -17.656532 19.871277 -18.717033z" fill-rule="evenodd"/><path fill="#000000" fill-opacity="0.0" d="m594.89 162.63307l0 0c4.0004883 2.465744 8.621948 3.584259 13.2439575 3.2053833m6.053833 36.69876c1.9876709 -0.24357605 3.935913 -0.7593689 5.7945557 -1.5341034m50.018066 16.792755c-1.3979492 -2.195404 -2.5684204 -4.541397 -3.491394 -6.997986m66.62891 -2.8594055l0 0c0.72125244 -2.5008087 1.1885376 -5.0746765 1.394104 -7.678665m44.866272 -18.905334c0.09350586 -12.193481 -6.5198364 -23.357971 -16.999512 -28.697968m40.077454 -30.5952c-1.6971436 4.1521072 -4.288025 7.835388 -7.569519 10.761047m-10.729675 -50.512367l0 0c0.28918457 1.676712 0.42297363 3.3786316 0.39959717 5.082161m-44.762146 -17.529587l0 0c-1.5853271 1.9535675 -2.8914795 4.1366577 -3.8777466 6.4812927m-34.691772 -2.656578l0 0c-0.84484863 1.7744141 -1.475708 3.6520462 -1.8781128 5.589653m-42.30664 1.5289078l0 0c2.4667969 1.5129242 4.7489014 3.3339005 6.7962036 5.4229126m-59.6286 31.448807l0 0c0.25097656 1.9316101 0.647583 3.8394012 1.1860352 5.7055283" fill-rule="evenodd"/><path stroke="#000000" stroke-width="1.0" stroke-linejoin="round" stroke-linecap="butt" d="m604.22784 117.67756l0 0c-1.821106 -14.014824 4.157898 -27.888657 15.399902 -35.734314c11.242065 -7.8456573 25.775452 -8.287178 37.433228 -1.137207l0 0c4.1295166 -8.148804 11.687744 -13.774994 20.388489 -15.17675c8.700745 -1.4017563 17.522034 1.585556 23.795593 8.058334l0 0c3.5178223 -7.3882294 10.42511 -12.352173 18.270874 -13.130371c7.845703 -0.7781944 15.51947 2.7394905 20.298279 9.304802l0 0c6.3554688 -7.831501 16.467163 -11.128891 25.959717 -8.465366c9.492554 2.6635246 16.66101 10.809574 18.403564 20.913296l0 0c7.786499 2.2241821 14.272522 7.8783417 17.782227 15.501633c3.5097656 7.6232834 3.6988525 16.467873 0.5185547 24.248604l0 0c7.6674805 10.450371 9.46106 24.375359 4.711487 36.578407c-4.7495728 12.203049 -15.328796 20.8508 -27.789612 22.71605c-0.08782959 11.453003 -6.0858154 21.962143 -15.682129 27.47673c-9.596252 5.5145874 -21.292358 5.1735077 -30.580017 -0.8917694c-3.9560547 13.716949 -15.091064 23.809753 -28.594238 25.917938c-13.503235 2.1081848 -26.953918 -4.146164 -34.540894 -16.060959c-9.300049 5.8728333 -20.45935 7.564621 -30.96051 4.6937103c-10.501221 -2.8709106 -19.459778 -10.062683 -24.854858 -19.953003l0 0c-9.503479 1.1646118 -18.692017 -3.991623 -23.005432 -12.9096985c-4.3133545 -8.91806 -2.833374 -19.699509 3.7055054 -26.99356l0 0c-8.477356 -5.2250977 -12.8029785 -15.59343 -10.721313 -25.698318c2.081726 -10.104889 10.09906 -17.656532 19.871277 -18.717033z" fill-rule="evenodd"/><path stroke="#000000" stroke-width="1.0" stroke-linejoin="round" stroke-linecap="butt" d="m594.89 162.63307l0 0c4.0004883 2.465744 8.621948 3.584259 13.2439575 3.2053833m6.053833 36.69876c1.9876709 -0.24357605 3.935913 -0.7593689 5.7945557 -1.5341034m50.018066 16.792755c-1.3979492 -2.195404 -2.5684204 -4.541397 -3.491394 -6.997986m66.62891 -2.8594055l0 0c0.72125244 -2.5008087 1.1885376 -5.0746765 1.394104 -7.678665m44.866272 -18.905334c0.09350586 -12.193481 -6.5198364 -23.357971 -16.999512 -28.697968m40.077454 -30.5952c-1.6971436 4.1521072 -4.288025 7.835388 -7.569519 10.761047m-10.729675 -50.512367l0 0c0.28918457 1.676712 0.42297363 3.3786316 0.39959717 5.082161m-44.762146 -17.529587l0 0c-1.5853271 1.9535675 -2.8914795 4.1366577 -3.8777466 6.4812927m-34.691772 -2.656578l0 0c-0.84484863 1.7744141 -1.475708 3.6520462 -1.8781128 5.589653m-42.30664 1.5289078l0 0c2.4667969 1.5129242 4.7489014 3.3339005 6.7962036 5.4229126m-59.6286 31.448807l0 0c0.25097656 1.9316101 0.647583 3.8394012 1.1860352 5.7055283" fill-rule="evenodd"/><path fill="#000000" d="m658.84045 149.64926l0 -13.359375l1.765625 0l0 13.359375l-1.765625 0zm4.6832886 0l0 -9.671875l1.46875 0l0 1.375q1.0625 -1.59375 3.078125 -1.59375q0.875 0 1.609375 0.3125q0.734375 0.3125 1.09375 0.828125q0.375 0.5 0.515625 1.203125q0.09375 0.453125 0.09375 1.59375l0 5.953125l-1.640625 0l0 -5.890625q0 -1.0 -0.203125 -1.484375q-0.1875 -0.5 -0.671875 -0.796875q-0.484375 -0.296875 -1.140625 -0.296875q-1.046875 0 -1.8125 0.671875q-0.75 0.65625 -0.75 2.515625l0 5.28125l-1.640625 0zm13.953857 -1.46875l0.234375 1.453125q-0.6875 0.140625 -1.234375 0.140625q-0.890625 0 -1.390625 -0.28125q-0.484375 -0.28125 -0.6875 -0.734375q-0.203125 -0.46875 -0.203125 -1.9375l0 -5.578125l-1.203125 0l0 -1.265625l1.203125 0l0 -2.390625l1.625 -0.984375l0 3.375l1.65625 0l0 1.265625l-1.65625 0l0 5.671875q0 0.6875 0.078125 0.890625q0.09375 0.203125 0.28125 0.328125q0.203125 0.109375 0.578125 0.109375q0.265625 0 0.71875 -0.0625zm8.230164 -1.640625l1.6875 0.203125q-0.40625 1.484375 -1.484375 2.3125q-1.078125 0.8125 -2.765625 0.8125q-2.125 0 -3.375 -1.296875q-1.234375 -1.3125 -1.234375 -3.671875q0 -2.453125 1.25 -3.796875q1.265625 -1.34375 3.265625 -1.34375q1.9375 0 3.15625 1.328125q1.234375 1.3125 1.234375 3.703125q0 0.15625 0 0.4375l-7.21875 0q0.09375 1.59375 0.90625 2.453125q0.8125 0.84375 2.015625 0.84375q0.90625 0 1.546875 -0.46875q0.640625 -0.484375 1.015625 -1.515625zm-5.390625 -2.65625l5.40625 0q-0.109375 -1.21875 -0.625 -1.828125q-0.78125 -0.953125 -2.03125 -0.953125q-1.125 0 -1.90625 0.765625q-0.765625 0.75 -0.84375 2.015625zm9.125732 5.765625l0 -9.671875l1.46875 0l0 1.46875q0.5625 -1.03125 1.03125 -1.359375q0.484375 -0.328125 1.0625 -0.328125q0.828125 0 1.6875 0.53125l-0.5625 1.515625q-0.609375 -0.359375 -1.203125 -0.359375q-0.546875 0 -0.96875 0.328125q-0.421875 0.328125 -0.609375 0.890625q-0.28125 0.875 -0.28125 1.921875l0 5.0625l-1.625 0zm6.2283325 0l0 -9.671875l1.46875 0l0 1.375q1.0625 -1.59375 3.078125 -1.59375q0.875 0 1.609375 0.3125q0.734375 0.3125 1.09375 0.828125q0.375 0.5 0.515625 1.203125q0.09375 0.453125 0.09375 1.59375l0 5.953125l-1.640625 0l0 -5.890625q0 -1.0 -0.203125 -1.484375q-0.1875 -0.5 -0.671875 -0.796875q-0.484375 -0.296875 -1.140625 -0.296875q-1.046875 0 -1.8125 0.671875q-0.75 0.65625 -0.75 2.515625l0 5.28125l-1.640625 0zm17.000671 -3.109375l1.6875 0.203125q-0.40625 1.484375 -1.484375 2.3125q-1.078125 0.8125 -2.765625 0.8125q-2.125 0 -3.375 -1.296875q-1.234375 -1.3125 -1.234375 -3.671875q0 -2.453125 1.25 -3.796875q1.265625 -1.34375 3.265625 -1.34375q1.9375 0 3.15625 1.328125q1.234375 1.3125 1.234375 3.703125q0 0.15625 0 0.4375l-7.21875 0q0.09375 1.59375 0.90625 2.453125q0.8125 0.84375 2.015625 0.84375q0.90625 0 1.546875 -0.46875q0.640625 -0.484375 1.015625 -1.515625zm-5.390625 -2.65625l5.40625 0q-0.109375 -1.21875 -0.625 -1.828125q-0.78125 -0.953125 -2.03125 -0.953125q-1.125 0 -1.90625 0.765625q-0.765625 0.75 -0.84375 2.015625zm12.719482 4.296875l0.234375 1.453125q-0.6875 0.140625 -1.234375 0.140625q-0.890625 0 -1.390625 -0.28125q-0.484375 -0.28125 -0.6875 -0.734375q-0.203125 -0.46875 -0.203125 -1.9375l0 -5.578125l-1.203125 0l0 -1.265625l1.203125 0l0 -2.390625l1.625 -0.984375l0 3.375l1.65625 0l0 1.265625l-1.65625 0l0 5.671875q0 0.6875 0.078125 0.890625q0.09375 0.203125 0.28125 0.328125q0.203125 0.109375 0.578125 0.109375q0.265625 0 0.71875 -0.0625z" fill-rule="nonzero"/><path fill="#fff2cc" d="m15.362205 34.711655l0 0c0 -10.155865 8.232955 -18.38882 18.388817 -18.38882l431.15936 0c4.877014 0 9.554291 1.9373894 13.002838 5.3859615c3.448578 3.4485722 5.3859863 8.125841 5.3859863 13.002859l0 73.55307c0 10.155861 -8.232971 18.388817 -18.388824 18.388817l-431.15936 0c-10.155863 0 -18.388817 -8.232956 -18.388817 -18.388817z" fill-rule="evenodd"/><path stroke="#000000" stroke-width="1.0" stroke-linejoin="round" stroke-linecap="butt" d="m15.362205 34.711655l0 0c0 -10.155865 8.232955 -18.38882 18.388817 -18.38882l431.15936 0c4.877014 0 9.554291 1.9373894 13.002838 5.3859615c3.448578 3.4485722 5.3859863 8.125841 5.3859863 13.002859l0 73.55307c0 10.155861 -8.232971 18.388817 -18.388824 18.388817l-431.15936 0c-10.155863 0 -18.388817 -8.232956 -18.388817 -18.388817z" fill-rule="evenodd"/><path fill="#000000" d="m198.3977 48.628735l0 -13.359375l5.046875 0q1.328125 0 2.03125 0.125q0.96875 0.171875 1.640625 0.640625q0.671875 0.453125 1.078125 1.28125q0.40625 0.828125 0.40625 1.828125q0 1.703125 -1.09375 2.890625q-1.078125 1.171875 -3.921875 1.171875l-3.421875 0l0 5.421875l-1.765625 0zm1.765625 -7.0l3.453125 0q1.71875 0 2.4375 -0.640625q0.71875 -0.640625 0.71875 -1.796875q0 -0.84375 -0.421875 -1.4375q-0.421875 -0.59375 -1.125 -0.78125q-0.4375 -0.125 -1.640625 -0.125l-3.421875 0l0 4.78125zm16.802948 7.0l0 -1.421875q-1.125 1.640625 -3.0625 1.640625q-0.859375 0 -1.609375 -0.328125q-0.734375 -0.328125 -1.09375 -0.828125q-0.359375 -0.5 -0.5 -1.21875q-0.109375 -0.46875 -0.109375 -1.53125l0 -5.984375l1.640625 0l0 5.359375q0 1.28125 0.109375 1.734375q0.15625 0.640625 0.65625 1.015625q0.5 0.375 1.234375 0.375q0.734375 0 1.375 -0.375q0.65625 -0.390625 0.921875 -1.03125q0.265625 -0.65625 0.265625 -1.890625l0 -5.1875l1.640625 0l0 9.671875l-1.46875 0zm5.547592 0l-1.515625 0l0 -13.359375l1.640625 0l0 4.765625q1.046875 -1.296875 2.65625 -1.296875q0.890625 0 1.6875 0.359375q0.796875 0.359375 1.3125 1.015625q0.515625 0.640625 0.796875 1.5625q0.296875 0.921875 0.296875 1.96875q0 2.484375 -1.234375 3.84375q-1.21875 1.359375 -2.953125 1.359375q-1.703125 0 -2.6875 -1.4375l0 1.21875zm-0.015625 -4.90625q0 1.734375 0.484375 2.515625q0.765625 1.265625 2.09375 1.265625q1.078125 0 1.859375 -0.9375q0.78125 -0.9375 0.78125 -2.78125q0 -1.890625 -0.75 -2.796875q-0.75 -0.90625 -1.828125 -0.90625q-1.0625 0 -1.859375 0.9375q-0.78125 0.9375 -0.78125 2.703125zm8.844467 4.90625l0 -13.359375l1.640625 0l0 13.359375l-1.640625 0zm4.191696 -11.46875l0 -1.890625l1.640625 0l0 1.890625l-1.640625 0zm0 11.46875l0 -9.671875l1.640625 0l0 9.671875l-1.640625 0zm10.457321 -3.546875l1.609375 0.21875q-0.265625 1.65625 -1.359375 2.609375q-1.078125 0.9375 -2.671875 0.9375q-1.984375 0 -3.1875 -1.296875q-1.203125 -1.296875 -1.203125 -3.71875q0 -1.578125 0.515625 -2.75q0.515625 -1.171875 1.578125 -1.75q1.0625 -0.59375 2.3125 -0.59375q1.578125 0 2.578125 0.796875q1.0 0.796875 1.28125 2.265625l-1.59375 0.234375q-0.234375 -0.96875 -0.8125 -1.453125q-0.578125 -0.5 -1.390625 -0.5q-1.234375 0 -2.015625 0.890625q-0.78125 0.890625 -0.78125 2.8125q0 1.953125 0.75 2.84375q0.75 0.875 1.953125 0.875q0.96875 0 1.609375 -0.59375q0.65625 -0.59375 0.828125 -1.828125zm17.933289 -1.140625l1.765625 0.453125q-0.5625 2.171875 -2.0 3.328125q-1.4375 1.140625 -3.53125 1.140625q-2.15625 0 -3.515625 -0.875q-1.3437347 -0.890625 -2.0624847 -2.546875q-0.703125 -1.671875 -0.703125 -3.59375q0 -2.078125 0.796875 -3.625q0.796875 -1.5625 2.2656097 -2.359375q1.484375 -0.8125 3.25 -0.8125q2.0 0 3.359375 1.015625q1.375 1.015625 1.90625 2.875l-1.734375 0.40625q-0.46875 -1.453125 -1.359375 -2.109375q-0.875 -0.671875 -2.203125 -0.671875q-1.546875 0 -2.578125 0.734375q-1.03125 0.734375 -1.453125 1.984375q-0.42185974 1.234375 -0.42185974 2.5625q0 1.703125 0.49998474 2.96875q0.5 1.265625 1.546875 1.90625q1.046875 0.625 2.265625 0.625q1.484375 0 2.515625 -0.859375q1.03125 -0.859375 1.390625 -2.546875zm3.6917114 4.6875l0 -13.359375l1.640625 0l0 13.359375l-1.640625 0zm3.582306 -4.84375q0 -2.6875 1.484375 -3.96875q1.25 -1.078125 3.046875 -1.078125q2.0 0 3.265625 1.3125q1.265625 1.296875 1.265625 3.609375q0 1.859375 -0.5625 2.9375q-0.5625 1.0625 -1.640625 1.65625q-1.0625 0.59375 -2.328125 0.59375q-2.03125 0 -3.28125 -1.296875q-1.25 -1.3125 -1.25 -3.765625zm1.6875 0q0 1.859375 0.796875 2.796875q0.8125 0.921875 2.046875 0.921875q1.21875 0 2.03125 -0.921875q0.8125 -0.9375 0.8125 -2.84375q0 -1.796875 -0.8125 -2.71875q-0.8125 -0.921875 -2.03125 -0.921875q-1.234375 0 -2.046875 0.921875q-0.796875 0.90625 -0.796875 2.765625zm15.625732 4.84375l0 -1.421875q-1.125 1.640625 -3.0625 1.640625q-0.859375 0 -1.609375 -0.328125q-0.734375 -0.328125 -1.09375 -0.828125q-0.359375 -0.5 -0.5 -1.21875q-0.109375 -0.46875 -0.109375 -1.53125l0 -5.984375l1.640625 0l0 5.359375q0 1.28125 0.109375 1.734375q0.15625 0.640625 0.65625 1.015625q0.5 0.375 1.234375 0.375q0.734375 0 1.375 -0.375q0.65625 -0.390625 0.921875 -1.03125q0.265625 -0.65625 0.265625 -1.890625l0 -5.1875l1.640625 0l0 9.671875l-1.46875 0zm10.313232 0l0 -1.21875q-0.90625 1.4375 -2.703125 1.4375q-1.15625 0 -2.125 -0.640625q-0.96875 -0.640625 -1.5 -1.78125q-0.53125 -1.140625 -0.53125 -2.625q0 -1.453125 0.484375 -2.625q0.484375 -1.1875 1.4375 -1.8125q0.96875 -0.625 2.171875 -0.625q0.875 0 1.546875 0.375q0.6875 0.359375 1.109375 0.953125l0 -4.796875l1.640625 0l0 13.359375l-1.53125 0zm-5.171875 -4.828125q0 1.859375 0.78125 2.78125q0.78125 0.921875 1.84375 0.921875q1.078125 0 1.828125 -0.875q0.75 -0.890625 0.75 -2.6875q0 -1.984375 -0.765625 -2.90625q-0.765625 -0.9375 -1.890625 -0.9375q-1.078125 0 -1.8125 0.890625q-0.734375 0.890625 -0.734375 2.8125z" fill-rule="nonzero"/><path fill="#93c47d" d="m25.732283 72.711464l0 0c0 -4.957611 4.018942 -8.976555 8.976557 -8.976555l35.90515 0l0 0c2.3807373 0 4.6639557 0.94573975 6.347389 2.6291733c1.6834259 1.6834259 2.6291733 3.966652 2.6291733 6.3473816l0 35.90515c0 4.9576187 -4.018944 8.9765625 -8.9765625 8.9765625l-35.90515 0c-4.957615 0 -8.976557 -4.018944 -8.976557 -8.9765625z" fill-rule="evenodd"/><path stroke="#000000" stroke-width="1.0" stroke-linejoin="round" stroke-linecap="butt" d="m25.732283 72.711464l0 0c0 -4.957611 4.018942 -8.976555 8.976557 -8.976555l35.90515 0l0 0c2.3807373 0 4.6639557 0.94573975 6.347389 2.6291733c1.6834259 1.6834259 2.6291733 3.966652 2.6291733 6.3473816l0 35.90515c0 4.9576187 -4.018944 8.9765625 -8.9765625 8.9765625l-35.90515 0c-4.957615 0 -8.976557 -4.018944 -8.976557 -8.9765625z" fill-rule="evenodd"/><path fill="#000000" d="m42.611427 97.58404l-5.171875 -13.359375l1.921875 0l3.46875 9.703125q0.421875 1.171875 0.703125 2.1875q0.3125 -1.09375 0.71875 -2.1875l3.609375 -9.703125l1.796875 0l-5.234375 13.359375l-1.8125 0zm8.584198 0l0 -13.359375l2.65625 0l3.15625 9.453125q0.4375 1.328125 0.640625 1.984375q0.234375 -0.734375 0.703125 -2.140625l3.203125 -9.296875l2.375 0l0 13.359375l-1.703125 0l0 -11.171875l-3.875 11.171875l-1.59375 0l-3.859375 -11.375l0 11.375l-1.703125 0z" fill-rule="nonzero"/><path fill="#93c47d" d="m91.28871 72.711464l0 0c0 -4.957611 4.018944 -8.976555 8.9765625 -8.976555l35.90515 0l0 0c2.3807373 0 4.6639557 0.94573975 6.3473816 2.6291733c1.6834259 1.6834259 2.629181 3.966652 2.629181 6.3473816l0 35.90515c0 4.9576187 -4.0189514 8.9765625 -8.9765625 8.9765625l-35.90515 0c-4.9576187 0 -8.9765625 -4.018944 -8.9765625 -8.9765625z" fill-rule="evenodd"/><path stroke="#000000" stroke-width="1.0" stroke-linejoin="round" stroke-linecap="butt" d="m91.28871 72.711464l0 0c0 -4.957611 4.018944 -8.976555 8.9765625 -8.976555l35.90515 0l0 0c2.3807373 0 4.6639557 0.94573975 6.3473816 2.6291733c1.6834259 1.6834259 2.629181 3.966652 2.629181 6.3473816l0 35.90515c0 4.9576187 -4.0189514 8.9765625 -8.9765625 8.9765625l-35.90515 0c-4.9576187 0 -8.9765625 -4.018944 -8.9765625 -8.9765625z" fill-rule="evenodd"/><path fill="#000000" d="m108.167854 97.58404l-5.171875 -13.359375l1.921875 0l3.46875 9.703125q0.421875 1.171875 0.703125 2.1875q0.3125 -1.09375 0.71875 -2.1875l3.609375 -9.703125l1.796875 0l-5.234375 13.359375l-1.8125 0zm8.584198 0l0 -13.359375l2.65625 0l3.15625 9.453125q0.4375 1.328125 0.640625 1.984375q0.234375 -0.734375 0.703125 -2.140625l3.203125 -9.296875l2.3750076 0l0 13.359375l-1.7031326 0l0 -11.171875l-3.875 11.171875l-1.59375 0l-3.859375 -11.375l0 11.375l-1.703125 0z" fill-rule="nonzero"/><path fill="#93c47d" d="m156.84514 72.711464l0 0c0 -4.957611 4.0189514 -8.976555 8.9765625 -8.976555l35.90515 0l0 0c2.3807373 0 4.6639557 0.94573975 6.3473816 2.6291733c1.6834412 1.6834259 2.629181 3.966652 2.629181 6.3473816l0 35.90515c0 4.9576187 -4.0189514 8.9765625 -8.9765625 8.9765625l-35.90515 0c-4.957611 0 -8.9765625 -4.018944 -8.9765625 -8.9765625z" fill-rule="evenodd"/><path stroke="#000000" stroke-width="1.0" stroke-linejoin="round" stroke-linecap="butt" d="m156.84514 72.711464l0 0c0 -4.957611 4.0189514 -8.976555 8.9765625 -8.976555l35.90515 0l0 0c2.3807373 0 4.6639557 0.94573975 6.3473816 2.6291733c1.6834412 1.6834259 2.629181 3.966652 2.629181 6.3473816l0 35.90515c0 4.9576187 -4.0189514 8.9765625 -8.9765625 8.9765625l-35.90515 0c-4.957611 0 -8.9765625 -4.018944 -8.9765625 -8.9765625z" fill-rule="evenodd"/><path fill="#000000" d="m173.72429 97.58404l-5.171875 -13.359375l1.921875 0l3.46875 9.703125q0.421875 1.171875 0.703125 2.1875q0.3125 -1.09375 0.71875 -2.1875l3.609375 -9.703125l1.796875 0l-5.234375 13.359375l-1.8125 0zm8.584198 0l0 -13.359375l2.65625 0l3.15625 9.453125q0.4375 1.328125 0.640625 1.984375q0.234375 -0.734375 0.703125 -2.140625l3.203125 -9.296875l2.375 0l0 13.359375l-1.703125 0l0 -11.171875l-3.875 11.171875l-1.59375 0l-3.859375 -11.375l0 11.375l-1.703125 0z" fill-rule="nonzero"/><path fill="#93c47d" d="m222.40158 72.711464l0 0c0 -4.957611 4.018936 -8.976555 8.976547 -8.976555l35.905167 0l0 0c2.3807068 0 4.6639404 0.94573975 6.3473816 2.6291733c1.6834106 1.6834259 2.629181 3.966652 2.629181 6.3473816l0 35.90515c0 4.9576187 -4.0189514 8.9765625 -8.9765625 8.9765625l-35.905167 0c-4.957611 0 -8.976547 -4.018944 -8.976547 -8.9765625z" fill-rule="evenodd"/><path stroke="#000000" stroke-width="1.0" stroke-linejoin="round" stroke-linecap="butt" d="m222.40158 72.711464l0 0c0 -4.957611 4.018936 -8.976555 8.976547 -8.976555l35.905167 0l0 0c2.3807068 0 4.6639404 0.94573975 6.3473816 2.6291733c1.6834106 1.6834259 2.629181 3.966652 2.629181 6.3473816l0 35.90515c0 4.9576187 -4.0189514 8.9765625 -8.9765625 8.9765625l-35.905167 0c-4.957611 0 -8.976547 -4.018944 -8.976547 -8.9765625z" fill-rule="evenodd"/><path fill="#000000" d="m239.28072 97.58404l-5.171875 -13.359375l1.921875 0l3.46875 9.703125q0.421875 1.171875 0.703125 2.1875q0.3125 -1.09375 0.71875 -2.1875l3.609375 -9.703125l1.796875 0l-5.234375 13.359375l-1.8125 0zm8.584198 0l0 -13.359375l2.65625 0l3.15625 9.453125q0.4375 1.328125 0.640625 1.984375q0.234375 -0.734375 0.703125 -2.140625l3.2031403 -9.296875l2.375 0l0 13.359375l-1.703125 0l0 -11.171875l-3.8750153 11.171875l-1.59375 0l-3.859375 -11.375l0 11.375l-1.703125 0z" fill-rule="nonzero"/><path fill="#93c47d" d="m287.958 72.711464l0 0c0 -4.957611 4.0189514 -8.976555 8.9765625 -8.976555l35.90515 0l0 0c2.3807373 0 4.6639404 0.94573975 6.3473816 2.6291733c1.6834412 1.6834259 2.629181 3.966652 2.629181 6.3473816l0 35.90515c0 4.9576187 -4.0189514 8.9765625 -8.9765625 8.9765625l-35.90515 0c-4.957611 0 -8.9765625 -4.018944 -8.9765625 -8.9765625z" fill-rule="evenodd"/><path stroke="#000000" stroke-width="1.0" stroke-linejoin="round" stroke-linecap="butt" d="m287.958 72.711464l0 0c0 -4.957611 4.0189514 -8.976555 8.9765625 -8.976555l35.90515 0l0 0c2.3807373 0 4.6639404 0.94573975 6.3473816 2.6291733c1.6834412 1.6834259 2.629181 3.966652 2.629181 6.3473816l0 35.90515c0 4.9576187 -4.0189514 8.9765625 -8.9765625 8.9765625l-35.90515 0c-4.957611 0 -8.9765625 -4.018944 -8.9765625 -8.9765625z" fill-rule="evenodd"/><path fill="#000000" d="m304.83716 97.58404l-5.171875 -13.359375l1.921875 0l3.46875 9.703125q0.421875 1.171875 0.703125 2.1875q0.3125 -1.09375 0.71875 -2.1875l3.609375 -9.703125l1.796875 0l-5.234375 13.359375l-1.8125 0zm8.584198 0l0 -13.359375l2.65625 0l3.15625 9.453125q0.4375 1.328125 0.640625 1.984375q0.234375 -0.734375 0.703125 -2.140625l3.203125 -9.296875l2.375 0l0 13.359375l-1.703125 0l0 -11.171875l-3.875 11.171875l-1.59375 0l-3.859375 -11.375l0 11.375l-1.703125 0z" fill-rule="nonzero"/><path fill="#93c47d" d="m353.51443 72.711464l0 0c0 -4.957611 4.0189514 -8.976555 8.9765625 -8.976555l35.90515 0l0 0c2.3807373 0 4.6639404 0.94573975 6.3473816 2.6291733c1.6834412 1.6834259 2.629181 3.966652 2.629181 6.3473816l0 35.90515c0 4.9576187 -4.0189514 8.9765625 -8.9765625 8.9765625l-35.90515 0c-4.957611 0 -8.9765625 -4.018944 -8.9765625 -8.9765625z" fill-rule="evenodd"/><path stroke="#000000" stroke-width="1.0" stroke-linejoin="round" stroke-linecap="butt" d="m353.51443 72.711464l0 0c0 -4.957611 4.0189514 -8.976555 8.9765625 -8.976555l35.90515 0l0 0c2.3807373 0 4.6639404 0.94573975 6.3473816 2.6291733c1.6834412 1.6834259 2.629181 3.966652 2.629181 6.3473816l0 35.90515c0 4.9576187 -4.0189514 8.9765625 -8.9765625 8.9765625l-35.90515 0c-4.957611 0 -8.9765625 -4.018944 -8.9765625 -8.9765625z" fill-rule="evenodd"/><path fill="#000000" d="m370.3936 97.58404l-5.171875 -13.359375l1.921875 0l3.46875 9.703125q0.421875 1.171875 0.703125 2.1875q0.3125 -1.09375 0.71875 -2.1875l3.609375 -9.703125l1.796875 0l-5.234375 13.359375l-1.8125 0zm8.584198 0l0 -13.359375l2.65625 0l3.15625 9.453125q0.4375 1.328125 0.640625 1.984375q0.234375 -0.734375 0.703125 -2.140625l3.203125 -9.296875l2.375 0l0 13.359375l-1.703125 0l0 -11.171875l-3.875 11.171875l-1.59375 0l-3.859375 -11.375l0 11.375l-1.703125 0z" fill-rule="nonzero"/><path fill="#93c47d" d="m419.07086 72.711464l0 0c0 -4.957611 4.0189514 -8.976555 8.9765625 -8.976555l35.90515 0l0 0c2.3807373 0 4.6639404 0.94573975 6.3473816 2.6291733c1.6834412 1.6834259 2.629181 3.966652 2.629181 6.3473816l0 35.90515c0 4.9576187 -4.0189514 8.9765625 -8.9765625 8.9765625l-35.90515 0c-4.957611 0 -8.9765625 -4.018944 -8.9765625 -8.9765625z" fill-rule="evenodd"/><path stroke="#000000" stroke-width="1.0" stroke-linejoin="round" stroke-linecap="butt" d="m419.07086 72.711464l0 0c0 -4.957611 4.0189514 -8.976555 8.9765625 -8.976555l35.90515 0l0 0c2.3807373 0 4.6639404 0.94573975 6.3473816 2.6291733c1.6834412 1.6834259 2.629181 3.966652 2.629181 6.3473816l0 35.90515c0 4.9576187 -4.0189514 8.9765625 -8.9765625 8.9765625l-35.90515 0c-4.957611 0 -8.9765625 -4.018944 -8.9765625 -8.9765625z" fill-rule="evenodd"/><path fill="#000000" d="m435.95 97.58404l-5.171875 -13.359375l1.921875 0l3.46875 9.703125q0.421875 1.171875 0.703125 2.1875q0.3125 -1.09375 0.71875 -2.1875l3.609375 -9.703125l1.796875 0l-5.234375 13.359375l-1.8125 0zm8.584198 0l0 -13.359375l2.65625 0l3.15625 9.453125q0.4375 1.328125 0.640625 1.984375q0.234375 -0.734375 0.703125 -2.140625l3.203125 -9.296875l2.375 0l0 13.359375l-1.703125 0l0 -11.171875l-3.875 11.171875l-1.59375 0l-3.859375 -11.375l0 11.375l-1.703125 0z" fill-rule="nonzero"/><path fill="#000000" fill-opacity="0.0" d="m483.29922 71.48819l101.22836 75.27559" fill-rule="evenodd"/><path stroke="#000000" stroke-width="1.0" stroke-linejoin="round" stroke-linecap="butt" d="m486.0493 73.533195l93.66354 69.65026" fill-rule="evenodd"/><path fill="#000000" stroke="#000000" stroke-width="1.0" stroke-linecap="butt" d="m486.0493 73.533195l1.5734863 -0.23136139l-3.1504517 -0.94129944l1.8083191 2.7461472z" fill-rule="evenodd"/><path fill="#000000" stroke="#000000" stroke-width="1.0" stroke-linecap="butt" d="m578.72723 144.5089l4.6271973 1.3825378l-2.6559448 -4.0334015z" fill-rule="evenodd"/><path fill="#000000" fill-opacity="0.0" d="m584.53784 146.75507l-101.22833 76.31496" fill-rule="evenodd"/><path stroke="#000000" stroke-width="1.0" stroke-linejoin="round" stroke-linecap="butt" d="m581.80133 148.81812l-93.700775 70.64" fill-rule="evenodd"/><path fill="#000000" stroke="#000000" stroke-width="1.0" stroke-linecap="butt" d="m581.80133 148.81812l-0.2210083 1.5749817l1.7901611 -2.7579803l-3.144165 0.9620056z" fill-rule="evenodd"/><path fill="#000000" stroke="#000000" stroke-width="1.0" stroke-linecap="butt" d="m487.10623 218.13919l-2.6293945 4.0507965l4.618042 -1.4129639z" fill-rule="evenodd"/></g></svg>