<svg version="1.1" viewBox="0.0 0.0 342.46194225721786 153.23097112860893" fill="none" stroke="none" stroke-linecap="square" stroke-miterlimit="10" xmlns:xlink="http://www.w3.org/1999/xlink" xmlns="http://www.w3.org/2000/svg"><clipPath id="p.0"><path d="m0 0l342.46194 0l0 153.23097l-342.46194 0l0 -153.23097z" clip-rule="nonzero"/></clipPath><g clip-path="url(#p.0)"><path fill="#000000" fill-opacity="0.0" d="m0 0l342.46194 0l0 153.23097l-342.46194 0z" fill-rule="evenodd"/><path fill="#000000" fill-opacity="0.0" d="m15.929133 7.3858266l75.68504 0l0 31.842522l-75.68504 0z" fill-rule="evenodd"/><path fill="#000000" d="m27.647676 30.227085l0 -13.359375l5.015623 0q1.53125 0 2.453125 0.40625q0.921875 0.40625 1.4375 1.25q0.53125 0.84375 0.53125 1.765625q0 0.859375 -0.46875 1.625q-0.453125 0.75 -1.390625 1.203125q1.203125 0.359375 1.859375 1.21875q0.65625 0.859375 0.65625 2.015625q0 0.9375 -0.40625 1.75q-0.390625 0.796875 -0.984375 1.234375q-0.578125 0.4375 -1.453125 0.671875q-0.875 0.21875 -2.15625 0.21875l-5.093748 0zm1.78125 -7.75l2.874998 0q1.1875 0 1.6875 -0.140625q0.671875 -0.203125 1.015625 -0.671875q0.34375 -0.46875 0.34375 -1.171875q0 -0.65625 -0.328125 -1.15625q-0.3125 -0.515625 -0.90625 -0.703125q-0.59375 -0.1875 -2.03125 -0.1875l-2.656248 0l0 4.03125zm0 6.171875l3.312498 0q0.859375 0 1.203125 -0.0625q0.609375 -0.109375 1.015625 -0.359375q0.421875 -0.265625 0.6875 -0.75q0.265625 -0.484375 0.265625 -1.125q0 -0.75 -0.390625 -1.296875q-0.375 -0.546875 -1.0625 -0.765625q-0.671875 -0.234375 -1.953125 -0.234375l-3.078123 0l0 4.59375zm17.162321 -1.53125l1.6875038 0.203125q-0.4062538 1.484375 -1.4843788 2.3125q-1.078125 0.8125 -2.765625 0.8125q-2.125 0 -3.375 -1.296875q-1.234375 -1.3125 -1.234375 -3.671875q0 -2.453125 1.25 -3.796875q1.265625 -1.34375 3.265625 -1.34375q1.9375 0 3.15625 1.328125q1.2343788 1.3125 1.2343788 3.703125q0 0.15625 0 0.4375l-7.218754 0q0.09375 1.59375 0.90625 2.453125q0.8125 0.84375 2.015625 0.84375q0.90625 0 1.546875 -0.46875q0.640625 -0.484375 1.015625 -1.515625zm-5.390625 -2.65625l5.40625 0q-0.109375 -1.21875 -0.625 -1.828125q-0.78125 -0.953125 -2.03125 -0.953125q-1.125 0 -1.90625 0.765625q-0.765625 0.75 -0.84375 2.015625zm9.531971 5.765625l0 -8.40625l-1.453125 0l0 -1.265625l1.453125 0l0 -1.03125q0 -0.96875 0.171875 -1.453125q0.234375 -0.640625 0.828125 -1.03125q0.59375 -0.390625 1.671875 -0.390625q0.6875 0 1.53125 0.15625l-0.25 1.4375q-0.5 -0.09375 -0.953125 -0.09375q-0.75 0 -1.0625 0.328125q-0.3125 0.3125 -0.3125 1.1875l0 0.890625l1.890625 0l0 1.265625l-1.890625 0l0 8.40625l-1.625 0zm4.183304 -4.84375q0 -2.6875 1.484375 -3.96875q1.25 -1.078125 3.046875 -1.078125q2.0 0 3.265625 1.3125q1.265625 1.296875 1.265625 3.609375q0 1.859375 -0.5625 2.9375q-0.5625 1.0625 -1.640625 1.65625q-1.0625 0.59375 -2.328125 0.59375q-2.03125 0 -3.28125 -1.296875q-1.25 -1.3125 -1.25 -3.765625zm1.6875 0q0 1.859375 0.796875 2.796875q0.8125 0.921875 2.046875 0.921875q1.21875 0 2.03125 -0.921875q0.8125 -0.9375 0.8125 -2.84375q0 -1.796875 -0.8125 -2.71875q-0.8125 -0.921875 -2.03125 -0.921875q-1.234375 0 -2.046875 0.921875q-0.796875 0.90625 -0.796875 2.765625zm9.281963 4.84375l0 -9.671875l1.46875 0l0 1.46875q0.5625 -1.03125 1.03125 -1.359375q0.484375 -0.328125 1.0625 -0.328125q0.828125 0 1.6875 0.53125l-0.5625 1.515625q-0.609375 -0.359375 -1.203125 -0.359375q-0.546875 0 -0.96875 0.328125q-0.421875 0.328125 -0.609375 0.890625q-0.28125 0.875 -0.28125 1.921875l0 5.0625l-1.625 0zm12.853302 -3.109375l1.6875 0.203125q-0.40625 1.484375 -1.484375 2.3125q-1.078125 0.8125 -2.765625 0.8125q-2.125 0 -3.375 -1.296875q-1.234375 -1.3125 -1.234375 -3.671875q0 -2.453125 1.25 -3.796875q1.265625 -1.34375 3.265625 -1.34375q1.9375 0 3.15625 1.328125q1.234375 1.3125 1.234375 3.703125q0 0.15625 0 0.4375l-7.21875 0q0.09375 1.59375 0.90625 2.453125q0.8125 0.84375 2.015625 0.84375q0.90625 0 1.546875 -0.46875q0.640625 -0.484375 1.015625 -1.515625zm-5.390625 -2.65625l5.40625 0q-0.109375 -1.21875 -0.625 -1.828125q-0.78125 -0.953125 -2.03125 -0.953125q-1.125 0 -1.90625 0.765625q-0.765625 0.75 -0.84375 2.015625z" fill-rule="nonzero"/><path fill="#000000" fill-opacity="0.0" d="m115.38845 13.850393l0 132.47244" fill-rule="evenodd"/><path stroke="#000000" stroke-width="1.0" stroke-linejoin="round" stroke-linecap="butt" d="m115.38845 13.850393l0 132.47244" fill-rule="evenodd"/><path fill="#ffe599" d="m3.0 50.301952l0 0c0 -3.566002 2.8908176 -6.4568214 6.4568224 -6.4568214l88.62966 0c1.7124557 0 3.3547745 0.68027115 4.5656586 1.891159c1.2108917 1.2108879 1.891159 2.8532066 1.891159 4.5656624l0 25.826511c0 3.5660095 -2.8908157 6.4568253 -6.4568176 6.4568253l-88.62966 0l0 0c-3.5660048 0 -6.4568224 -2.8908157 -6.4568224 -6.4568253z" fill-rule="evenodd"/><path stroke="#000000" stroke-width="1.0" stroke-linejoin="round" stroke-linecap="butt" d="m3.0 50.301952l0 0c0 -3.566002 2.8908176 -6.4568214 6.4568224 -6.4568214l88.62966 0c1.7124557 0 3.3547745 0.68027115 4.5656586 1.891159c1.2108917 1.2108879 1.891159 2.8532066 1.891159 4.5656624l0 25.826511c0 3.5660095 -2.8908157 6.4568253 -6.4568176 6.4568253l-88.62966 0l0 0c-3.5660048 0 -6.4568224 -2.8908157 -6.4568224 -6.4568253z" fill-rule="evenodd"/><path fill="#93c47d" d="m9.233596 53.983376l0 0c0 -2.552925 4.958358 -4.6224823 11.074803 -4.6224823c6.1164455 0 11.074802 2.0695572 11.074802 4.6224823l0 18.489944c0 2.552925 -4.958357 4.6224823 -11.074802 4.6224823c-6.1164455 0 -11.074803 -2.0695572 -11.074803 -4.6224823z" fill-rule="evenodd"/><path fill="#000000" fill-opacity="0.0" d="m31.383202 53.983376l0 0c0 2.552929 -4.958357 4.622486 -11.074802 4.622486c-6.1164455 0 -11.074803 -2.0695572 -11.074803 -4.622486" fill-rule="evenodd"/><path fill="#000000" fill-opacity="0.0" d="m9.233596 53.983376l0 0c0 -2.552925 4.958358 -4.6224823 11.074803 -4.6224823c6.1164455 0 11.074802 2.0695572 11.074802 4.6224823l0 18.489944c0 2.552925 -4.958357 4.6224823 -11.074802 4.6224823c-6.1164455 0 -11.074803 -2.0695572 -11.074803 -4.6224823z" fill-rule="evenodd"/><path stroke="#000000" stroke-width="1.0" stroke-linejoin="round" stroke-linecap="butt" d="m31.383202 53.983376l0 0c0 2.552929 -4.958357 4.622486 -11.074802 4.622486c-6.1164455 0 -11.074803 -2.0695572 -11.074803 -4.622486" fill-rule="evenodd"/><path stroke="#000000" stroke-width="1.0" stroke-linejoin="round" stroke-linecap="butt" d="m9.233596 53.983376l0 0c0 -2.552925 4.958358 -4.6224823 11.074803 -4.6224823c6.1164455 0 11.074802 2.0695572 11.074802 4.6224823l0 18.489944c0 2.552925 -4.958357 4.6224823 -11.074802 4.6224823c-6.1164455 0 -11.074803 -2.0695572 -11.074803 -4.6224823z" fill-rule="evenodd"/><path fill="#93c47d" d="m42.69685 53.983376l0 0c0 -2.552925 4.958359 -4.6224823 11.074802 -4.6224823c6.1164474 0 11.074806 2.0695572 11.074806 4.6224823l0 18.489944c0 2.552925 -4.958359 4.6224823 -11.074806 4.6224823c-6.1164436 0 -11.074802 -2.0695572 -11.074802 -4.6224823z" fill-rule="evenodd"/><path fill="#000000" fill-opacity="0.0" d="m64.84646 53.983376l0 0c0 2.552929 -4.958359 4.622486 -11.074806 4.622486c-6.1164436 0 -11.074802 -2.0695572 -11.074802 -4.622486" fill-rule="evenodd"/><path fill="#000000" fill-opacity="0.0" d="m42.69685 53.983376l0 0c0 -2.552925 4.958359 -4.6224823 11.074802 -4.6224823c6.1164474 0 11.074806 2.0695572 11.074806 4.6224823l0 18.489944c0 2.552925 -4.958359 4.6224823 -11.074806 4.6224823c-6.1164436 0 -11.074802 -2.0695572 -11.074802 -4.6224823z" fill-rule="evenodd"/><path stroke="#000000" stroke-width="1.0" stroke-linejoin="round" stroke-linecap="butt" d="m64.84646 53.983376l0 0c0 2.552929 -4.958359 4.622486 -11.074806 4.622486c-6.1164436 0 -11.074802 -2.0695572 -11.074802 -4.622486" fill-rule="evenodd"/><path stroke="#000000" stroke-width="1.0" stroke-linejoin="round" stroke-linecap="butt" d="m42.69685 53.983376l0 0c0 -2.552925 4.958359 -4.6224823 11.074802 -4.6224823c6.1164474 0 11.074806 2.0695572 11.074806 4.6224823l0 18.489944c0 2.552925 -4.958359 4.6224823 -11.074806 4.6224823c-6.1164436 0 -11.074802 -2.0695572 -11.074802 -4.6224823z" fill-rule="evenodd"/><path fill="#93c47d" d="m76.16273 53.983376l0 0c0 -2.552925 4.958359 -4.6224823 11.074806 -4.6224823c6.1164474 0 11.074799 2.0695572 11.074799 4.6224823l0 18.489944c0 2.552925 -4.958351 4.6224823 -11.074799 4.6224823c-6.1164474 0 -11.074806 -2.0695572 -11.074806 -4.6224823z" fill-rule="evenodd"/><path fill="#000000" fill-opacity="0.0" d="m98.31233 53.983376l0 0c0 2.552929 -4.958351 4.622486 -11.074799 4.622486c-6.1164474 0 -11.074806 -2.0695572 -11.074806 -4.622486" fill-rule="evenodd"/><path fill="#000000" fill-opacity="0.0" d="m76.16273 53.983376l0 0c0 -2.552925 4.958359 -4.6224823 11.074806 -4.6224823c6.1164474 0 11.074799 2.0695572 11.074799 4.6224823l0 18.489944c0 2.552925 -4.958351 4.6224823 -11.074799 4.6224823c-6.1164474 0 -11.074806 -2.0695572 -11.074806 -4.6224823z" fill-rule="evenodd"/><path stroke="#000000" stroke-width="1.0" stroke-linejoin="round" stroke-linecap="butt" d="m98.31233 53.983376l0 0c0 2.552929 -4.958351 4.622486 -11.074799 4.622486c-6.1164474 0 -11.074806 -2.0695572 -11.074806 -4.622486" fill-rule="evenodd"/><path stroke="#000000" stroke-width="1.0" stroke-linejoin="round" stroke-linecap="butt" d="m76.16273 53.983376l0 0c0 -2.552925 4.958359 -4.6224823 11.074806 -4.6224823c6.1164474 0 11.074799 2.0695572 11.074799 4.6224823l0 18.489944c0 2.552925 -4.958351 4.6224823 -11.074799 4.6224823c-6.1164474 0 -11.074806 -2.0695572 -11.074806 -4.6224823z" fill-rule="evenodd"/><path fill="#000000" fill-opacity="0.0" d="m195.4672 7.3858266l75.68503 0l0 31.842522l-75.68503 0z" fill-rule="evenodd"/><path fill="#000000" d="m213.57918 30.227085l5.125 -13.359375l1.90625 0l5.46875 13.359375l-2.015625 0l-1.546875 -4.046875l-5.59375 0l-1.46875 4.046875l-1.875 0zm3.859375 -5.484375l4.53125 0l-1.40625 -3.703125q-0.625 -1.6875 -0.9375 -2.765625q-0.265625 1.28125 -0.71875 2.546875l-1.46875 3.921875zm10.240448 5.484375l0 -8.40625l-1.453125 0l0 -1.265625l1.453125 0l0 -1.03125q0 -0.96875 0.171875 -1.453125q0.234375 -0.640625 0.828125 -1.03125q0.59375 -0.390625 1.671875 -0.390625q0.6875 0 1.53125 0.15625l-0.25 1.4375q-0.5 -0.09375 -0.953125 -0.09375q-0.75 0 -1.0625 0.328125q-0.3125 0.3125 -0.3125 1.1875l0 0.890625l1.890625 0l0 1.265625l-1.890625 0l0 8.40625l-1.625 0zm8.370804 -1.46875l0.234375 1.453125q-0.6875 0.140625 -1.234375 0.140625q-0.890625 0 -1.390625 -0.28125q-0.484375 -0.28125 -0.6875 -0.734375q-0.203125 -0.46875 -0.203125 -1.9375l0 -5.578125l-1.203125 0l0 -1.265625l1.203125 0l0 -2.390625l1.625 -0.984375l0 3.375l1.65625 0l0 1.265625l-1.65625 0l0 5.671875q0 0.6875 0.078125 0.890625q0.09375 0.203125 0.28125 0.328125q0.203125 0.109375 0.578125 0.109375q0.265625 0 0.71875 -0.0625zm8.230179 -1.640625l1.6875 0.203125q-0.40625 1.484375 -1.484375 2.3125q-1.078125 0.8125 -2.765625 0.8125q-2.125 0 -3.375 -1.296875q-1.234375 -1.3125 -1.234375 -3.671875q0 -2.453125 1.25 -3.796875q1.265625 -1.34375 3.265625 -1.34375q1.9375 0 3.15625 1.328125q1.234375 1.3125 1.234375 3.703125q0 0.15625 0 0.4375l-7.21875 0q0.09375 1.59375 0.90625 2.453125q0.8125 0.84375 2.015625 0.84375q0.90625 0 1.546875 -0.46875q0.640625 -0.484375 1.015625 -1.515625zm-5.390625 -2.65625l5.40625 0q-0.109375 -1.21875 -0.625 -1.828125q-0.78125 -0.953125 -2.03125 -0.953125q-1.125 0 -1.90625 0.765625q-0.765625 0.75 -0.84375 2.015625zm9.125717 5.765625l0 -9.671875l1.46875 0l0 1.46875q0.5625 -1.03125 1.03125 -1.359375q0.484375 -0.328125 1.0625 -0.328125q0.828125 0 1.6875 0.53125l-0.5625 1.515625q-0.609375 -0.359375 -1.203125 -0.359375q-0.546875 0 -0.96875 0.328125q-0.421875 0.328125 -0.609375 0.890625q-0.28125 0.875 -0.28125 1.921875l0 5.0625l-1.625 0z" fill-rule="nonzero"/><path fill="#ffe599" d="m126.2336 50.301952l0 0c0 -3.566002 2.8908234 -6.4568214 6.4568176 -6.4568214l88.62967 0c1.7124481 0 3.3547668 0.68027115 4.5656586 1.891159c1.2108917 1.2108879 1.891159 2.8532066 1.891159 4.5656624l0 25.826511c0 3.5660095 -2.8908234 6.4568253 -6.4568176 6.4568253l-88.62967 0l0 0c-3.5659943 0 -6.4568176 -2.8908157 -6.4568176 -6.4568253z" fill-rule="evenodd"/><path stroke="#000000" stroke-width="1.0" stroke-linejoin="round" stroke-linecap="butt" d="m126.2336 50.301952l0 0c0 -3.566002 2.8908234 -6.4568214 6.4568176 -6.4568214l88.62967 0c1.7124481 0 3.3547668 0.68027115 4.5656586 1.891159c1.2108917 1.2108879 1.891159 2.8532066 1.891159 4.5656624l0 25.826511c0 3.5660095 -2.8908234 6.4568253 -6.4568176 6.4568253l-88.62967 0l0 0c-3.5659943 0 -6.4568176 -2.8908157 -6.4568176 -6.4568253z" fill-rule="evenodd"/><path fill="#93c47d" d="m132.4672 53.983376l0 0c0 -2.552925 4.958359 -4.6224823 11.074799 -4.6224823c6.116455 0 11.074799 2.0695572 11.074799 4.6224823l0 18.489944c0 2.552925 -4.9583435 4.6224823 -11.074799 4.6224823c-6.11644 0 -11.074799 -2.0695572 -11.074799 -4.6224823z" fill-rule="evenodd"/><path fill="#000000" fill-opacity="0.0" d="m154.61679 53.983376l0 0c0 2.552929 -4.9583435 4.622486 -11.074799 4.622486c-6.11644 0 -11.074799 -2.0695572 -11.074799 -4.622486" fill-rule="evenodd"/><path fill="#000000" fill-opacity="0.0" d="m132.4672 53.983376l0 0c0 -2.552925 4.958359 -4.6224823 11.074799 -4.6224823c6.116455 0 11.074799 2.0695572 11.074799 4.6224823l0 18.489944c0 2.552925 -4.9583435 4.6224823 -11.074799 4.6224823c-6.11644 0 -11.074799 -2.0695572 -11.074799 -4.6224823z" fill-rule="evenodd"/><path stroke="#000000" stroke-width="1.0" stroke-linejoin="round" stroke-linecap="butt" d="m154.61679 53.983376l0 0c0 2.552929 -4.9583435 4.622486 -11.074799 4.622486c-6.11644 0 -11.074799 -2.0695572 -11.074799 -4.622486" fill-rule="evenodd"/><path stroke="#000000" stroke-width="1.0" stroke-linejoin="round" stroke-linecap="butt" d="m132.4672 53.983376l0 0c0 -2.552925 4.958359 -4.6224823 11.074799 -4.6224823c6.116455 0 11.074799 2.0695572 11.074799 4.6224823l0 18.489944c0 2.552925 -4.9583435 4.6224823 -11.074799 4.6224823c-6.11644 0 -11.074799 -2.0695572 -11.074799 -4.6224823z" fill-rule="evenodd"/><path fill="#93c47d" d="m165.93045 53.983376l0 0c0 -2.552925 4.958359 -4.6224823 11.074799 -4.6224823c6.11644 0 11.074799 2.0695572 11.074799 4.6224823l0 18.489944c0 2.552925 -4.958359 4.6224823 -11.074799 4.6224823c-6.11644 0 -11.074799 -2.0695572 -11.074799 -4.6224823z" fill-rule="evenodd"/><path fill="#000000" fill-opacity="0.0" d="m188.08005 53.983376l0 0c0 2.552929 -4.958359 4.622486 -11.074799 4.622486c-6.11644 0 -11.074799 -2.0695572 -11.074799 -4.622486" fill-rule="evenodd"/><path fill="#000000" fill-opacity="0.0" d="m165.93045 53.983376l0 0c0 -2.552925 4.958359 -4.6224823 11.074799 -4.6224823c6.11644 0 11.074799 2.0695572 11.074799 4.6224823l0 18.489944c0 2.552925 -4.958359 4.6224823 -11.074799 4.6224823c-6.11644 0 -11.074799 -2.0695572 -11.074799 -4.6224823z" fill-rule="evenodd"/><path stroke="#000000" stroke-width="1.0" stroke-linejoin="round" stroke-linecap="butt" d="m188.08005 53.983376l0 0c0 2.552929 -4.958359 4.622486 -11.074799 4.622486c-6.11644 0 -11.074799 -2.0695572 -11.074799 -4.622486" fill-rule="evenodd"/><path stroke="#000000" stroke-width="1.0" stroke-linejoin="round" stroke-linecap="butt" d="m165.93045 53.983376l0 0c0 -2.552925 4.958359 -4.6224823 11.074799 -4.6224823c6.11644 0 11.074799 2.0695572 11.074799 4.6224823l0 18.489944c0 2.552925 -4.958359 4.6224823 -11.074799 4.6224823c-6.11644 0 -11.074799 -2.0695572 -11.074799 -4.6224823z" fill-rule="evenodd"/><path fill="#93c47d" d="m199.39633 53.983376l0 0c0 -2.552925 4.958359 -4.6224823 11.074799 -4.6224823c6.11644 0 11.074799 2.0695572 11.074799 4.6224823l0 18.489944c0 2.552925 -4.958359 4.6224823 -11.074799 4.6224823c-6.11644 0 -11.074799 -2.0695572 -11.074799 -4.6224823z" fill-rule="evenodd"/><path fill="#000000" fill-opacity="0.0" d="m221.54593 53.983376l0 0c0 2.552929 -4.958359 4.622486 -11.074799 4.622486c-6.11644 0 -11.074799 -2.0695572 -11.074799 -4.622486" fill-rule="evenodd"/><path fill="#000000" fill-opacity="0.0" d="m199.39633 53.983376l0 0c0 -2.552925 4.958359 -4.6224823 11.074799 -4.6224823c6.11644 0 11.074799 2.0695572 11.074799 4.6224823l0 18.489944c0 2.552925 -4.958359 4.6224823 -11.074799 4.6224823c-6.11644 0 -11.074799 -2.0695572 -11.074799 -4.6224823z" fill-rule="evenodd"/><path stroke="#000000" stroke-width="1.0" stroke-linejoin="round" stroke-linecap="butt" d="m221.54593 53.983376l0 0c0 2.552929 -4.958359 4.622486 -11.074799 4.622486c-6.11644 0 -11.074799 -2.0695572 -11.074799 -4.622486" fill-rule="evenodd"/><path stroke="#000000" stroke-width="1.0" stroke-linejoin="round" stroke-linecap="butt" d="m199.39633 53.983376l0 0c0 -2.552925 4.958359 -4.6224823 11.074799 -4.6224823c6.11644 0 11.074799 2.0695572 11.074799 4.6224823l0 18.489944c0 2.552925 -4.958359 4.6224823 -11.074799 4.6224823c-6.11644 0 -11.074799 -2.0695572 -11.074799 -4.6224823z" fill-rule="evenodd"/><path fill="#ffe599" d="m238.62204 50.301952l0 0c0 -3.566002 2.8908234 -6.4568214 6.456833 -6.4568214l88.629654 0c1.7124634 0 3.3547668 0.68027115 4.565674 1.891159c1.2108765 1.2108879 1.8911438 2.8532066 1.8911438 4.5656624l0 25.826511c0 3.5660095 -2.890808 6.4568253 -6.4568176 6.4568253l-88.629654 0l0 0c-3.5660095 0 -6.456833 -2.8908157 -6.456833 -6.4568253z" fill-rule="evenodd"/><path stroke="#000000" stroke-width="1.0" stroke-linejoin="round" stroke-linecap="butt" d="m238.62204 50.301952l0 0c0 -3.566002 2.8908234 -6.4568214 6.456833 -6.4568214l88.629654 0c1.7124634 0 3.3547668 0.68027115 4.565674 1.891159c1.2108765 1.2108879 1.8911438 2.8532066 1.8911438 4.5656624l0 25.826511c0 3.5660095 -2.890808 6.4568253 -6.4568176 6.4568253l-88.629654 0l0 0c-3.5660095 0 -6.456833 -2.8908157 -6.456833 -6.4568253z" fill-rule="evenodd"/><path fill="#93c47d" d="m244.85564 53.983376l0 0c0 -2.552925 4.958359 -4.6224823 11.074814 -4.6224823c6.116455 0 11.074799 2.0695572 11.074799 4.6224823l0 18.489944c0 2.552925 -4.9583435 4.6224823 -11.074799 4.6224823c-6.116455 0 -11.074814 -2.0695572 -11.074814 -4.6224823z" fill-rule="evenodd"/><path fill="#000000" fill-opacity="0.0" d="m267.00525 53.983376l0 0c0 2.552929 -4.9583435 4.622486 -11.074799 4.622486c-6.116455 0 -11.074814 -2.0695572 -11.074814 -4.622486" fill-rule="evenodd"/><path fill="#000000" fill-opacity="0.0" d="m244.85564 53.983376l0 0c0 -2.552925 4.958359 -4.6224823 11.074814 -4.6224823c6.116455 0 11.074799 2.0695572 11.074799 4.6224823l0 18.489944c0 2.552925 -4.9583435 4.6224823 -11.074799 4.6224823c-6.116455 0 -11.074814 -2.0695572 -11.074814 -4.6224823z" fill-rule="evenodd"/><path stroke="#000000" stroke-width="1.0" stroke-linejoin="round" stroke-linecap="butt" d="m267.00525 53.983376l0 0c0 2.552929 -4.9583435 4.622486 -11.074799 4.622486c-6.116455 0 -11.074814 -2.0695572 -11.074814 -4.622486" fill-rule="evenodd"/><path stroke="#000000" stroke-width="1.0" stroke-linejoin="round" stroke-linecap="butt" d="m244.85564 53.983376l0 0c0 -2.552925 4.958359 -4.6224823 11.074814 -4.6224823c6.116455 0 11.074799 2.0695572 11.074799 4.6224823l0 18.489944c0 2.552925 -4.9583435 4.6224823 -11.074799 4.6224823c-6.116455 0 -11.074814 -2.0695572 -11.074814 -4.6224823z" fill-rule="evenodd"/><path fill="#93c47d" d="m278.3189 53.983376l0 0c0 -2.552925 4.9583435 -4.6224823 11.074799 -4.6224823c6.1164246 0 11.074799 2.0695572 11.074799 4.6224823l0 18.489944c0 2.552925 -4.958374 4.6224823 -11.074799 4.6224823c-6.116455 0 -11.074799 -2.0695572 -11.074799 -4.6224823z" fill-rule="evenodd"/><path fill="#000000" fill-opacity="0.0" d="m300.4685 53.983376l0 0c0 2.552929 -4.958374 4.622486 -11.074799 4.622486c-6.116455 0 -11.074799 -2.0695572 -11.074799 -4.622486" fill-rule="evenodd"/><path fill="#000000" fill-opacity="0.0" d="m278.3189 53.983376l0 0c0 -2.552925 4.9583435 -4.6224823 11.074799 -4.6224823c6.1164246 0 11.074799 2.0695572 11.074799 4.6224823l0 18.489944c0 2.552925 -4.958374 4.6224823 -11.074799 4.6224823c-6.116455 0 -11.074799 -2.0695572 -11.074799 -4.6224823z" fill-rule="evenodd"/><path stroke="#000000" stroke-width="1.0" stroke-linejoin="round" stroke-linecap="butt" d="m300.4685 53.983376l0 0c0 2.552929 -4.958374 4.622486 -11.074799 4.622486c-6.116455 0 -11.074799 -2.0695572 -11.074799 -4.622486" fill-rule="evenodd"/><path stroke="#000000" stroke-width="1.0" stroke-linejoin="round" stroke-linecap="butt" d="m278.3189 53.983376l0 0c0 -2.552925 4.9583435 -4.6224823 11.074799 -4.6224823c6.1164246 0 11.074799 2.0695572 11.074799 4.6224823l0 18.489944c0 2.552925 -4.958374 4.6224823 -11.074799 4.6224823c-6.116455 0 -11.074799 -2.0695572 -11.074799 -4.6224823z" fill-rule="evenodd"/><path fill="#93c47d" d="m311.7848 53.983376l0 0c0 -2.552925 4.9583435 -4.6224823 11.074799 -4.6224823c6.1164246 0 11.074799 2.0695572 11.074799 4.6224823l0 18.489944c0 2.552925 -4.958374 4.6224823 -11.074799 4.6224823c-6.116455 0 -11.074799 -2.0695572 -11.074799 -4.6224823z" fill-rule="evenodd"/><path fill="#000000" fill-opacity="0.0" d="m333.9344 53.983376l0 0c0 2.552929 -4.958374 4.622486 -11.074799 4.622486c-6.116455 0 -11.074799 -2.0695572 -11.074799 -4.622486" fill-rule="evenodd"/><path fill="#000000" fill-opacity="0.0" d="m311.7848 53.983376l0 0c0 -2.552925 4.9583435 -4.6224823 11.074799 -4.6224823c6.1164246 0 11.074799 2.0695572 11.074799 4.6224823l0 18.489944c0 2.552925 -4.958374 4.6224823 -11.074799 4.6224823c-6.116455 0 -11.074799 -2.0695572 -11.074799 -4.6224823z" fill-rule="evenodd"/><path stroke="#000000" stroke-width="1.0" stroke-linejoin="round" stroke-linecap="butt" d="m333.9344 53.983376l0 0c0 2.552929 -4.958374 4.622486 -11.074799 4.622486c-6.116455 0 -11.074799 -2.0695572 -11.074799 -4.622486" fill-rule="evenodd"/><path stroke="#000000" stroke-width="1.0" stroke-linejoin="round" stroke-linecap="butt" d="m311.7848 53.983376l0 0c0 -2.552925 4.9583435 -4.6224823 11.074799 -4.6224823c6.1164246 0 11.074799 2.0695572 11.074799 4.6224823l0 18.489944c0 2.552925 -4.958374 4.6224823 -11.074799 4.6224823c-6.116455 0 -11.074799 -2.0695572 -11.074799 -4.6224823z" fill-rule="evenodd"/><path fill="#ffe599" d="m126.2336 97.84001l0 0c0 -3.566002 2.8908234 -6.4568253 6.4568176 -6.4568253l88.62967 0c1.7124481 0 3.3547668 0.68027496 4.5656586 1.891159c1.2108917 1.2108917 1.891159 2.8532104 1.891159 4.565666l0 25.826515c0 3.566002 -2.8908234 6.4568253 -6.4568176 6.4568253l-88.62967 0l0 0c-3.5659943 0 -6.4568176 -2.8908234 -6.4568176 -6.4568253z" fill-rule="evenodd"/><path stroke="#000000" stroke-width="1.0" stroke-linejoin="round" stroke-linecap="butt" d="m126.2336 97.84001l0 0c0 -3.566002 2.8908234 -6.4568253 6.4568176 -6.4568253l88.62967 0c1.7124481 0 3.3547668 0.68027496 4.5656586 1.891159c1.2108917 1.2108917 1.891159 2.8532104 1.891159 4.565666l0 25.826515c0 3.566002 -2.8908234 6.4568253 -6.4568176 6.4568253l-88.62967 0l0 0c-3.5659943 0 -6.4568176 -2.8908234 -6.4568176 -6.4568253z" fill-rule="evenodd"/><path fill="#93c47d" d="m132.4672 101.52144l0 0c0 -2.5529327 4.958359 -4.62249 11.074799 -4.62249c6.116455 0 11.074799 2.0695572 11.074799 4.62249l0 18.489937c0 2.552925 -4.9583435 4.6224823 -11.074799 4.6224823c-6.11644 0 -11.074799 -2.0695572 -11.074799 -4.6224823z" fill-rule="evenodd"/><path fill="#000000" fill-opacity="0.0" d="m154.61679 101.52144l0 0c0 2.552925 -4.9583435 4.6224823 -11.074799 4.6224823c-6.11644 0 -11.074799 -2.0695572 -11.074799 -4.6224823" fill-rule="evenodd"/><path fill="#000000" fill-opacity="0.0" d="m132.4672 101.52144l0 0c0 -2.5529327 4.958359 -4.62249 11.074799 -4.62249c6.116455 0 11.074799 2.0695572 11.074799 4.62249l0 18.489937c0 2.552925 -4.9583435 4.6224823 -11.074799 4.6224823c-6.11644 0 -11.074799 -2.0695572 -11.074799 -4.6224823z" fill-rule="evenodd"/><path stroke="#000000" stroke-width="1.0" stroke-linejoin="round" stroke-linecap="butt" d="m154.61679 101.52144l0 0c0 2.552925 -4.9583435 4.6224823 -11.074799 4.6224823c-6.11644 0 -11.074799 -2.0695572 -11.074799 -4.6224823" fill-rule="evenodd"/><path stroke="#000000" stroke-width="1.0" stroke-linejoin="round" stroke-linecap="butt" d="m132.4672 101.52144l0 0c0 -2.5529327 4.958359 -4.62249 11.074799 -4.62249c6.116455 0 11.074799 2.0695572 11.074799 4.62249l0 18.489937c0 2.552925 -4.9583435 4.6224823 -11.074799 4.6224823c-6.11644 0 -11.074799 -2.0695572 -11.074799 -4.6224823z" fill-rule="evenodd"/><path fill="#93c47d" d="m165.93045 101.52144l0 0c0 -2.5529327 4.958359 -4.62249 11.074799 -4.62249c6.11644 0 11.074799 2.0695572 11.074799 4.62249l0 18.489937c0 2.552925 -4.958359 4.6224823 -11.074799 4.6224823c-6.11644 0 -11.074799 -2.0695572 -11.074799 -4.6224823z" fill-rule="evenodd"/><path fill="#000000" fill-opacity="0.0" d="m188.08005 101.52144l0 0c0 2.552925 -4.958359 4.6224823 -11.074799 4.6224823c-6.11644 0 -11.074799 -2.0695572 -11.074799 -4.6224823" fill-rule="evenodd"/><path fill="#000000" fill-opacity="0.0" d="m165.93045 101.52144l0 0c0 -2.5529327 4.958359 -4.62249 11.074799 -4.62249c6.11644 0 11.074799 2.0695572 11.074799 4.62249l0 18.489937c0 2.552925 -4.958359 4.6224823 -11.074799 4.6224823c-6.11644 0 -11.074799 -2.0695572 -11.074799 -4.6224823z" fill-rule="evenodd"/><path stroke="#000000" stroke-width="1.0" stroke-linejoin="round" stroke-linecap="butt" d="m188.08005 101.52144l0 0c0 2.552925 -4.958359 4.6224823 -11.074799 4.6224823c-6.11644 0 -11.074799 -2.0695572 -11.074799 -4.6224823" fill-rule="evenodd"/><path stroke="#000000" stroke-width="1.0" stroke-linejoin="round" stroke-linecap="butt" d="m165.93045 101.52144l0 0c0 -2.5529327 4.958359 -4.62249 11.074799 -4.62249c6.11644 0 11.074799 2.0695572 11.074799 4.62249l0 18.489937c0 2.552925 -4.958359 4.6224823 -11.074799 4.6224823c-6.11644 0 -11.074799 -2.0695572 -11.074799 -4.6224823z" fill-rule="evenodd"/><path fill="#93c47d" d="m199.39633 101.52144l0 0c0 -2.5529327 4.958359 -4.62249 11.074799 -4.62249c6.11644 0 11.074799 2.0695572 11.074799 4.62249l0 18.489937c0 2.552925 -4.958359 4.6224823 -11.074799 4.6224823c-6.11644 0 -11.074799 -2.0695572 -11.074799 -4.6224823z" fill-rule="evenodd"/><path fill="#000000" fill-opacity="0.0" d="m221.54593 101.52144l0 0c0 2.552925 -4.958359 4.6224823 -11.074799 4.6224823c-6.11644 0 -11.074799 -2.0695572 -11.074799 -4.6224823" fill-rule="evenodd"/><path fill="#000000" fill-opacity="0.0" d="m199.39633 101.52144l0 0c0 -2.5529327 4.958359 -4.62249 11.074799 -4.62249c6.11644 0 11.074799 2.0695572 11.074799 4.62249l0 18.489937c0 2.552925 -4.958359 4.6224823 -11.074799 4.6224823c-6.11644 0 -11.074799 -2.0695572 -11.074799 -4.6224823z" fill-rule="evenodd"/><path stroke="#000000" stroke-width="1.0" stroke-linejoin="round" stroke-linecap="butt" d="m221.54593 101.52144l0 0c0 2.552925 -4.958359 4.6224823 -11.074799 4.6224823c-6.11644 0 -11.074799 -2.0695572 -11.074799 -4.6224823" fill-rule="evenodd"/><path stroke="#000000" stroke-width="1.0" stroke-linejoin="round" stroke-linecap="butt" d="m199.39633 101.52144l0 0c0 -2.5529327 4.958359 -4.62249 11.074799 -4.62249c6.11644 0 11.074799 2.0695572 11.074799 4.62249l0 18.489937c0 2.552925 -4.958359 4.6224823 -11.074799 4.6224823c-6.11644 0 -11.074799 -2.0695572 -11.074799 -4.6224823z" fill-rule="evenodd"/><path fill="#ffe599" d="m238.62204 97.84001l0 0c0 -3.566002 2.8908234 -6.4568253 6.456833 -6.4568253l88.629654 0c1.7124634 0 3.3547668 0.68027496 4.565674 1.891159c1.2108765 1.2108917 1.8911438 2.8532104 1.8911438 4.565666l0 25.826515c0 3.566002 -2.890808 6.4568253 -6.4568176 6.4568253l-88.629654 0l0 0c-3.5660095 0 -6.456833 -2.8908234 -6.456833 -6.4568253z" fill-rule="evenodd"/><path stroke="#000000" stroke-width="1.0" stroke-linejoin="round" stroke-linecap="butt" d="m238.62204 97.84001l0 0c0 -3.566002 2.8908234 -6.4568253 6.456833 -6.4568253l88.629654 0c1.7124634 0 3.3547668 0.68027496 4.565674 1.891159c1.2108765 1.2108917 1.8911438 2.8532104 1.8911438 4.565666l0 25.826515c0 3.566002 -2.890808 6.4568253 -6.4568176 6.4568253l-88.629654 0l0 0c-3.5660095 0 -6.456833 -2.8908234 -6.456833 -6.4568253z" fill-rule="evenodd"/><path fill="#93c47d" d="m244.85564 101.52144l0 0c0 -2.5529327 4.958359 -4.62249 11.074814 -4.62249c6.116455 0 11.074799 2.0695572 11.074799 4.62249l0 18.489937c0 2.552925 -4.9583435 4.6224823 -11.074799 4.6224823c-6.116455 0 -11.074814 -2.0695572 -11.074814 -4.6224823z" fill-rule="evenodd"/><path fill="#000000" fill-opacity="0.0" d="m267.00525 101.52144l0 0c0 2.552925 -4.9583435 4.6224823 -11.074799 4.6224823c-6.116455 0 -11.074814 -2.0695572 -11.074814 -4.6224823" fill-rule="evenodd"/><path fill="#000000" fill-opacity="0.0" d="m244.85564 101.52144l0 0c0 -2.5529327 4.958359 -4.62249 11.074814 -4.62249c6.116455 0 11.074799 2.0695572 11.074799 4.62249l0 18.489937c0 2.552925 -4.9583435 4.6224823 -11.074799 4.6224823c-6.116455 0 -11.074814 -2.0695572 -11.074814 -4.6224823z" fill-rule="evenodd"/><path stroke="#000000" stroke-width="1.0" stroke-linejoin="round" stroke-linecap="butt" d="m267.00525 101.52144l0 0c0 2.552925 -4.9583435 4.6224823 -11.074799 4.6224823c-6.116455 0 -11.074814 -2.0695572 -11.074814 -4.6224823" fill-rule="evenodd"/><path stroke="#000000" stroke-width="1.0" stroke-linejoin="round" stroke-linecap="butt" d="m244.85564 101.52144l0 0c0 -2.5529327 4.958359 -4.62249 11.074814 -4.62249c6.116455 0 11.074799 2.0695572 11.074799 4.62249l0 18.489937c0 2.552925 -4.9583435 4.6224823 -11.074799 4.6224823c-6.116455 0 -11.074814 -2.0695572 -11.074814 -4.6224823z" fill-rule="evenodd"/><path fill="#93c47d" d="m278.3189 101.52144l0 0c0 -2.5529327 4.9583435 -4.62249 11.074799 -4.62249c6.1164246 0 11.074799 2.0695572 11.074799 4.62249l0 18.489937c0 2.552925 -4.958374 4.6224823 -11.074799 4.6224823c-6.116455 0 -11.074799 -2.0695572 -11.074799 -4.6224823z" fill-rule="evenodd"/><path fill="#000000" fill-opacity="0.0" d="m300.4685 101.52144l0 0c0 2.552925 -4.958374 4.6224823 -11.074799 4.6224823c-6.116455 0 -11.074799 -2.0695572 -11.074799 -4.6224823" fill-rule="evenodd"/><path fill="#000000" fill-opacity="0.0" d="m278.3189 101.52144l0 0c0 -2.5529327 4.9583435 -4.62249 11.074799 -4.62249c6.1164246 0 11.074799 2.0695572 11.074799 4.62249l0 18.489937c0 2.552925 -4.958374 4.6224823 -11.074799 4.6224823c-6.116455 0 -11.074799 -2.0695572 -11.074799 -4.6224823z" fill-rule="evenodd"/><path stroke="#000000" stroke-width="1.0" stroke-linejoin="round" stroke-linecap="butt" d="m300.4685 101.52144l0 0c0 2.552925 -4.958374 4.6224823 -11.074799 4.6224823c-6.116455 0 -11.074799 -2.0695572 -11.074799 -4.6224823" fill-rule="evenodd"/><path stroke="#000000" stroke-width="1.0" stroke-linejoin="round" stroke-linecap="butt" d="m278.3189 101.52144l0 0c0 -2.5529327 4.9583435 -4.62249 11.074799 -4.62249c6.1164246 0 11.074799 2.0695572 11.074799 4.62249l0 18.489937c0 2.552925 -4.958374 4.6224823 -11.074799 4.6224823c-6.116455 0 -11.074799 -2.0695572 -11.074799 -4.6224823z" fill-rule="evenodd"/><path fill="#93c47d" d="m311.7848 101.52144l0 0c0 -2.5529327 4.9583435 -4.62249 11.074799 -4.62249c6.1164246 0 11.074799 2.0695572 11.074799 4.62249l0 18.489937c0 2.552925 -4.958374 4.6224823 -11.074799 4.6224823c-6.116455 0 -11.074799 -2.0695572 -11.074799 -4.6224823z" fill-rule="evenodd"/><path fill="#000000" fill-opacity="0.0" d="m333.9344 101.52144l0 0c0 2.552925 -4.958374 4.6224823 -11.074799 4.6224823c-6.116455 0 -11.074799 -2.0695572 -11.074799 -4.6224823" fill-rule="evenodd"/><path fill="#000000" fill-opacity="0.0" d="m311.7848 101.52144l0 0c0 -2.5529327 4.9583435 -4.62249 11.074799 -4.62249c6.1164246 0 11.074799 2.0695572 11.074799 4.62249l0 18.489937c0 2.552925 -4.958374 4.6224823 -11.074799 4.6224823c-6.116455 0 -11.074799 -2.0695572 -11.074799 -4.6224823z" fill-rule="evenodd"/><path stroke="#000000" stroke-width="1.0" stroke-linejoin="round" stroke-linecap="butt" d="m333.9344 101.52144l0 0c0 2.552925 -4.958374 4.6224823 -11.074799 4.6224823c-6.116455 0 -11.074799 -2.0695572 -11.074799 -4.6224823" fill-rule="evenodd"/><path stroke="#000000" stroke-width="1.0" stroke-linejoin="round" stroke-linecap="butt" d="m311.7848 101.52144l0 0c0 -2.5529327 4.9583435 -4.62249 11.074799 -4.62249c6.1164246 0 11.074799 2.0695572 11.074799 4.62249l0 18.489937c0 2.552925 -4.958374 4.6224823 -11.074799 4.6224823c-6.116455 0 -11.074799 -2.0695572 -11.074799 -4.6224823z" fill-rule="evenodd"/></g></svg>