<?xml version="1.0" encoding="UTF-8"?>
<!DOCTYPE svg PUBLIC "-//W3C//DTD SVG 1.1//EN" "http://www.w3.org/Graphics/SVG/1.1/DTD/svg11.dtd">
<svg width="294mm" height="153mm" viewBox="0 0 29400 15300" version="1.1" xmlns="http://www.w3.org/2000/svg" xmlns:xlink="http://www.w3.org/1999/xlink" stroke-width="28.222" stroke-linejoin="round" xml:space="preserve">
 <path fill="rgb(255,255,255)" stroke="none" d="M 14692,15260 L -13,15260 -13,-13 29397,-13 29397,15260 14692,15260 Z "/>
 <path fill="none" stroke="rgb(179,179,179)" stroke-linejoin="round" d="M 15610,13327 L 2411,13327 2411,1772 28809,1772 28809,13327 15610,13327 Z "/>
 <path fill="none" stroke="rgb(179,179,179)" stroke-linejoin="round" d="M 28809,13326 L 2411,13326 "/>
 <path fill="none" stroke="rgb(179,179,179)" stroke-linejoin="round" d="M 28809,11675 L 2411,11675 "/>
 <path fill="none" stroke="rgb(179,179,179)" stroke-linejoin="round" d="M 28809,10024 L 2411,10024 "/>
 <path fill="none" stroke="rgb(179,179,179)" stroke-linejoin="round" d="M 28809,8373 L 2411,8373 "/>
 <path fill="none" stroke="rgb(179,179,179)" stroke-linejoin="round" d="M 28809,6723 L 2411,6723 "/>
 <path fill="none" stroke="rgb(179,179,179)" stroke-linejoin="round" d="M 28809,5072 L 2411,5072 "/>
 <path fill="none" stroke="rgb(179,179,179)" stroke-linejoin="round" d="M 28809,3421 L 2411,3421 "/>
 <path fill="none" stroke="rgb(179,179,179)" stroke-linejoin="round" d="M 28809,1771 L 2411,1771 "/>
 <path fill="none" stroke="rgb(179,179,179)" stroke-linejoin="round" d="M 2411,13476 L 2411,13326 "/>
 <path fill="none" stroke="rgb(179,179,179)" stroke-linejoin="round" d="M 2411,13476 L 2411,13326 "/>
 <path fill="none" stroke="rgb(179,179,179)" stroke-linejoin="round" d="M 9010,13476 L 9010,13326 "/>
 <path fill="none" stroke="rgb(179,179,179)" stroke-linejoin="round" d="M 9010,13476 L 9010,13326 "/>
 <path fill="none" stroke="rgb(179,179,179)" stroke-linejoin="round" d="M 15609,13476 L 15609,13326 "/>
 <path fill="none" stroke="rgb(179,179,179)" stroke-linejoin="round" d="M 15609,13476 L 15609,13326 "/>
 <path fill="none" stroke="rgb(179,179,179)" stroke-linejoin="round" d="M 22209,13476 L 22209,13326 "/>
 <path fill="none" stroke="rgb(179,179,179)" stroke-linejoin="round" d="M 22209,13476 L 22209,13326 "/>
 <path fill="none" stroke="rgb(179,179,179)" stroke-linejoin="round" d="M 28809,13476 L 28809,13326 "/>
 <path fill="none" stroke="rgb(179,179,179)" stroke-linejoin="round" d="M 28809,13476 L 28809,13326 "/>
 <path fill="none" stroke="rgb(179,179,179)" stroke-linejoin="round" d="M 2411,13326 L 28809,13326 "/>
 <path fill="none" stroke="rgb(179,179,179)" stroke-linejoin="round" d="M 2261,13326 L 2411,13326 "/>
 <path fill="none" stroke="rgb(179,179,179)" stroke-linejoin="round" d="M 2261,13326 L 2411,13326 "/>
 <path fill="none" stroke="rgb(179,179,179)" stroke-linejoin="round" d="M 2261,11675 L 2411,11675 "/>
 <path fill="none" stroke="rgb(179,179,179)" stroke-linejoin="round" d="M 2261,11675 L 2411,11675 "/>
 <path fill="none" stroke="rgb(179,179,179)" stroke-linejoin="round" d="M 2261,10024 L 2411,10024 "/>
 <path fill="none" stroke="rgb(179,179,179)" stroke-linejoin="round" d="M 2261,10024 L 2411,10024 "/>
 <path fill="none" stroke="rgb(179,179,179)" stroke-linejoin="round" d="M 2261,8373 L 2411,8373 "/>
 <path fill="none" stroke="rgb(179,179,179)" stroke-linejoin="round" d="M 2261,8373 L 2411,8373 "/>
 <path fill="none" stroke="rgb(179,179,179)" stroke-linejoin="round" d="M 2261,6723 L 2411,6723 "/>
 <path fill="none" stroke="rgb(179,179,179)" stroke-linejoin="round" d="M 2261,6723 L 2411,6723 "/>
 <path fill="none" stroke="rgb(179,179,179)" stroke-linejoin="round" d="M 2261,5072 L 2411,5072 "/>
 <path fill="none" stroke="rgb(179,179,179)" stroke-linejoin="round" d="M 2261,5072 L 2411,5072 "/>
 <path fill="none" stroke="rgb(179,179,179)" stroke-linejoin="round" d="M 2261,3421 L 2411,3421 "/>
 <path fill="none" stroke="rgb(179,179,179)" stroke-linejoin="round" d="M 2261,3421 L 2411,3421 "/>
 <path fill="none" stroke="rgb(179,179,179)" stroke-linejoin="round" d="M 2261,1771 L 2411,1771 "/>
 <path fill="none" stroke="rgb(179,179,179)" stroke-linejoin="round" d="M 2261,1771 L 2411,1771 "/>
 <path fill="none" stroke="rgb(179,179,179)" stroke-linejoin="round" d="M 2411,13326 L 2411,1771 "/>
 <path fill="rgb(0,69,134)" stroke="none" d="M 2960,13326 L 4060,13326 4060,12454 2960,12454 2960,13326 Z "/>
 <path fill="rgb(0,69,134)" stroke="none" d="M 9560,13326 L 10660,13326 10660,12722 9560,12722 9560,13326 Z "/>
 <path fill="rgb(0,69,134)" stroke="none" d="M 16159,13326 L 17259,13326 17259,12702 16159,12702 16159,13326 Z "/>
 <path fill="rgb(0,69,134)" stroke="none" d="M 22759,13326 L 23859,13326 23859,12677 22759,12677 22759,13326 Z "/>
 <path fill="rgb(255,66,14)" stroke="none" d="M 4060,13326 L 5160,13326 5160,12445 4060,12445 4060,13326 Z "/>
 <path fill="rgb(255,66,14)" stroke="none" d="M 10660,13326 L 11760,13326 11760,12673 10660,12673 10660,13326 Z "/>
 <path fill="rgb(255,66,14)" stroke="none" d="M 17259,13326 L 18359,13326 18359,12660 17259,12660 17259,13326 Z "/>
 <path fill="rgb(255,66,14)" stroke="none" d="M 23859,13326 L 24959,13326 24959,12644 23859,12644 23859,13326 Z "/>
 <path fill="rgb(255,211,32)" stroke="none" d="M 5160,13326 L 6260,13326 6260,2759 5160,2759 5160,13326 Z "/>
 <path fill="rgb(255,211,32)" stroke="none" d="M 11760,13326 L 12860,13326 12860,5658 11760,5658 11760,13326 Z "/>
 <path fill="rgb(255,211,32)" stroke="none" d="M 18359,13326 L 19459,13326 19459,4789 18359,4789 18359,13326 Z "/>
 <path fill="rgb(255,211,32)" stroke="none" d="M 24959,13326 L 26059,13326 26059,4518 24959,4518 24959,13326 Z "/>
 <path fill="rgb(87,157,28)" stroke="none" d="M 6260,13326 L 7360,13326 7360,3325 6260,3325 6260,13326 Z "/>
 <path fill="rgb(87,157,28)" stroke="none" d="M 12860,13326 L 13960,13326 13960,6305 12860,6305 12860,13326 Z "/>
 <path fill="rgb(87,157,28)" stroke="none" d="M 19459,13326 L 20559,13326 20559,5687 19459,5687 19459,13326 Z "/>
 <path fill="rgb(87,157,28)" stroke="none" d="M 26059,13326 L 27159,13326 27159,5632 26059,5632 26059,13326 Z "/>
 <path fill="rgb(126,0,33)" stroke="none" d="M 7360,13326 L 8460,13326 8460,3154 7360,3154 7360,13326 Z "/>
 <path fill="rgb(126,0,33)" stroke="none" d="M 13960,13326 L 15059,13326 15059,6107 13960,6107 13960,13326 Z "/>
 <path fill="rgb(126,0,33)" stroke="none" d="M 20559,13326 L 21659,13326 21659,5647 20559,5647 20559,13326 Z "/>
 <path fill="rgb(126,0,33)" stroke="none" d="M 27159,13326 L 28259,13326 28259,5495 27159,5495 27159,13326 Z "/>
 <text class="SVGTextShape"><tspan class="TextParagraph"><tspan class="TextPosition" x="5309" y="13894"><tspan font-family="Liberation Sans, sans-serif" font-size="353px" font-weight="400" fill="rgb(0,0,0)" stroke="none" style="white-space: pre">Copy</tspan></tspan></tspan></text>
 <text class="SVGTextShape"><tspan class="TextParagraph"><tspan class="TextPosition" x="11881" y="13894"><tspan font-family="Liberation Sans, sans-serif" font-size="353px" font-weight="400" fill="rgb(0,0,0)" stroke="none" style="white-space: pre">Scale</tspan></tspan></tspan></text>
 <text class="SVGTextShape"><tspan class="TextParagraph"><tspan class="TextPosition" x="18604" y="13894"><tspan font-family="Liberation Sans, sans-serif" font-size="353px" font-weight="400" fill="rgb(0,0,0)" stroke="none" style="white-space: pre">Add</tspan></tspan></tspan></text>
 <text class="SVGTextShape"><tspan class="TextParagraph"><tspan class="TextPosition" x="25118" y="13894"><tspan font-family="Liberation Sans, sans-serif" font-size="353px" font-weight="400" fill="rgb(0,0,0)" stroke="none" style="white-space: pre">Triad</tspan></tspan></tspan></text>
 <text class="SVGTextShape"><tspan class="TextParagraph"><tspan class="TextPosition" x="1970" y="13447"><tspan font-family="Liberation Sans, sans-serif" font-size="353px" font-weight="400" fill="rgb(0,0,0)" stroke="none" style="white-space: pre">0</tspan></tspan></tspan></text>
 <text class="SVGTextShape"><tspan class="TextParagraph"><tspan class="TextPosition" x="1587" y="11796"><tspan font-family="Liberation Sans, sans-serif" font-size="353px" font-weight="400" fill="rgb(0,0,0)" stroke="none" style="white-space: pre">100</tspan></tspan></tspan></text>
 <text class="SVGTextShape"><tspan class="TextParagraph"><tspan class="TextPosition" x="1587" y="10145"><tspan font-family="Liberation Sans, sans-serif" font-size="353px" font-weight="400" fill="rgb(0,0,0)" stroke="none" style="white-space: pre">200</tspan></tspan></tspan></text>
 <text class="SVGTextShape"><tspan class="TextParagraph"><tspan class="TextPosition" x="1587" y="8494"><tspan font-family="Liberation Sans, sans-serif" font-size="353px" font-weight="400" fill="rgb(0,0,0)" stroke="none" style="white-space: pre">300</tspan></tspan></tspan></text>
 <text class="SVGTextShape"><tspan class="TextParagraph"><tspan class="TextPosition" x="1587" y="6844"><tspan font-family="Liberation Sans, sans-serif" font-size="353px" font-weight="400" fill="rgb(0,0,0)" stroke="none" style="white-space: pre">400</tspan></tspan></tspan></text>
 <text class="SVGTextShape"><tspan class="TextParagraph"><tspan class="TextPosition" x="1587" y="5193"><tspan font-family="Liberation Sans, sans-serif" font-size="353px" font-weight="400" fill="rgb(0,0,0)" stroke="none" style="white-space: pre">500</tspan></tspan></tspan></text>
 <text class="SVGTextShape"><tspan class="TextParagraph"><tspan class="TextPosition" x="1587" y="3542"><tspan font-family="Liberation Sans, sans-serif" font-size="353px" font-weight="400" fill="rgb(0,0,0)" stroke="none" style="white-space: pre">600</tspan></tspan></tspan></text>
 <text class="SVGTextShape"><tspan class="TextParagraph"><tspan class="TextPosition" x="1587" y="1892"><tspan font-family="Liberation Sans, sans-serif" font-size="353px" font-weight="400" fill="rgb(0,0,0)" stroke="none" style="white-space: pre">700</tspan></tspan></tspan></text>
 <path fill="rgb(0,69,134)" stroke="none" d="M 6735,576 L 6630,576 6630,365 6841,365 6841,576 6735,576 Z "/>
 <path fill="rgb(255,66,14)" stroke="none" d="M 11180,576 L 11075,576 11075,365 11286,365 11286,576 11180,576 Z "/>
 <path fill="rgb(255,211,32)" stroke="none" d="M 17279,576 L 17173,576 17173,365 17384,365 17384,576 17279,576 Z "/>
 <path fill="rgb(87,157,28)" stroke="none" d="M 6735,1074 L 6630,1074 6630,863 6841,863 6841,1074 6735,1074 Z "/>
 <path fill="rgb(126,0,33)" stroke="none" d="M 11180,1074 L 11075,1074 11075,863 11286,863 11286,1074 11180,1074 Z "/>
 <text class="SVGTextShape"><tspan class="TextParagraph"><tspan class="TextPosition" x="6941" y="590"><tspan font-family="Liberation Sans, sans-serif" font-size="353px" font-weight="400" fill="rgb(0,0,0)" stroke="none" style="white-space: pre">BM, single</tspan></tspan></tspan></text>
 <text class="SVGTextShape"><tspan class="TextParagraph"><tspan class="TextPosition" x="11386" y="590"><tspan font-family="Liberation Sans, sans-serif" font-size="353px" font-weight="400" fill="rgb(0,0,0)" stroke="none" style="white-space: pre">1 VM, single</tspan></tspan></tspan></text>
 <text class="SVGTextShape"><tspan class="TextParagraph"><tspan class="TextPosition" x="17484" y="590"><tspan font-family="Liberation Sans, sans-serif" font-size="353px" font-weight="400" fill="rgb(0,0,0)" stroke="none" style="white-space: pre">BM, openmp (2xLLCs=48 threads)</tspan></tspan></tspan></text>
 <text class="SVGTextShape"><tspan class="TextParagraph"><tspan class="TextPosition" x="6941" y="1088"><tspan font-family="Liberation Sans, sans-serif" font-size="353px" font-weight="400" fill="rgb(0,0,0)" stroke="none" style="white-space: pre">BM, openmp (36 threads)</tspan></tspan></tspan></text>
 <text class="SVGTextShape"><tspan class="TextParagraph"><tspan class="TextPosition" x="11386" y="1088"><tspan font-family="Liberation Sans, sans-serif" font-size="353px" font-weight="400" fill="rgb(0,0,0)" stroke="none" style="white-space: pre">1 VM, openmp (2xLLCs=36 threads)</tspan></tspan></tspan></text>
 <text class="SVGTextShape"><tspan class="TextParagraph"><tspan class="TextPosition" x="13796" y="14666"><tspan font-family="Liberation Sans, sans-serif" font-size="318px" font-weight="400" fill="rgb(0,0,0)" stroke="none" style="white-space: pre">STREAM Operation</tspan></tspan></tspan></text>
 <text class="SVGTextShape" transform="rotate(-90 825 9476)"><tspan class="TextParagraph"><tspan class="TextPosition" x="825" y="9476"><tspan font-family="Liberation Sans, sans-serif" font-size="318px" font-weight="400" fill="rgb(0,0,0)" stroke="none" style="white-space: pre">Bandwidth (GBytes/sec)</tspan></tspan></tspan></text>
</svg>