<?xml version="1.0" encoding="UTF-8"?>
<!DOCTYPE svg PUBLIC "-//W3C//DTD SVG 1.1//EN" "http://www.w3.org/Graphics/SVG/1.1/DTD/svg11.dtd">
<svg width="266mm" height="150mm" viewBox="0 0 26600 15000" version="1.1" xmlns="http://www.w3.org/2000/svg" xmlns:xlink="http://www.w3.org/1999/xlink" stroke-width="28.222" stroke-linejoin="round" xml:space="preserve">
 <path fill="rgb(255,255,255)" stroke="none" d="M 13286,14947 L -13,14947 -13,-13 26584,-13 26584,14947 13286,14947 Z "/>
 <path fill="none" stroke="rgb(179,179,179)" stroke-linejoin="round" d="M 14299,14001 L 2545,14001 2545,1269 26053,1269 26053,14001 14299,14001 Z "/>
 <path fill="none" stroke="rgb(179,179,179)" stroke-linejoin="round" d="M 26053,14000 L 2545,14000 "/>
 <path fill="none" stroke="rgb(179,179,179)" stroke-linejoin="round" d="M 26053,12408 L 2545,12408 "/>
 <path fill="none" stroke="rgb(179,179,179)" stroke-linejoin="round" d="M 26053,10816 L 2545,10816 "/>
 <path fill="none" stroke="rgb(179,179,179)" stroke-linejoin="round" d="M 26053,9225 L 2545,9225 "/>
 <path fill="none" stroke="rgb(179,179,179)" stroke-linejoin="round" d="M 26053,7633 L 2545,7633 "/>
 <path fill="none" stroke="rgb(179,179,179)" stroke-linejoin="round" d="M 26053,6042 L 2545,6042 "/>
 <path fill="none" stroke="rgb(179,179,179)" stroke-linejoin="round" d="M 26053,4451 L 2545,4451 "/>
 <path fill="none" stroke="rgb(179,179,179)" stroke-linejoin="round" d="M 26053,2859 L 2545,2859 "/>
 <path fill="none" stroke="rgb(179,179,179)" stroke-linejoin="round" d="M 26053,1268 L 2545,1268 "/>
 <path fill="none" stroke="rgb(179,179,179)" stroke-linejoin="round" d="M 2545,14150 L 2545,14000 "/>
 <path fill="none" stroke="rgb(179,179,179)" stroke-linejoin="round" d="M 2545,14150 L 2545,14000 "/>
 <path fill="none" stroke="rgb(179,179,179)" stroke-linejoin="round" d="M 5903,14150 L 5903,14000 "/>
 <path fill="none" stroke="rgb(179,179,179)" stroke-linejoin="round" d="M 5903,14150 L 5903,14000 "/>
 <path fill="none" stroke="rgb(179,179,179)" stroke-linejoin="round" d="M 9261,14150 L 9261,14000 "/>
 <path fill="none" stroke="rgb(179,179,179)" stroke-linejoin="round" d="M 9261,14150 L 9261,14000 "/>
 <path fill="none" stroke="rgb(179,179,179)" stroke-linejoin="round" d="M 12620,14150 L 12620,14000 "/>
 <path fill="none" stroke="rgb(179,179,179)" stroke-linejoin="round" d="M 12620,14150 L 12620,14000 "/>
 <path fill="none" stroke="rgb(179,179,179)" stroke-linejoin="round" d="M 15977,14150 L 15977,14000 "/>
 <path fill="none" stroke="rgb(179,179,179)" stroke-linejoin="round" d="M 15977,14150 L 15977,14000 "/>
 <path fill="none" stroke="rgb(179,179,179)" stroke-linejoin="round" d="M 19336,14150 L 19336,14000 "/>
 <path fill="none" stroke="rgb(179,179,179)" stroke-linejoin="round" d="M 19336,14150 L 19336,14000 "/>
 <path fill="none" stroke="rgb(179,179,179)" stroke-linejoin="round" d="M 22694,14150 L 22694,14000 "/>
 <path fill="none" stroke="rgb(179,179,179)" stroke-linejoin="round" d="M 22694,14150 L 22694,14000 "/>
 <path fill="none" stroke="rgb(179,179,179)" stroke-linejoin="round" d="M 26053,14150 L 26053,14000 "/>
 <path fill="none" stroke="rgb(179,179,179)" stroke-linejoin="round" d="M 26053,14150 L 26053,14000 "/>
 <path fill="none" stroke="rgb(179,179,179)" stroke-linejoin="round" d="M 2545,14000 L 26053,14000 "/>
 <path fill="none" stroke="rgb(179,179,179)" stroke-linejoin="round" d="M 2395,14000 L 2545,14000 "/>
 <path fill="none" stroke="rgb(179,179,179)" stroke-linejoin="round" d="M 2395,14000 L 2545,14000 "/>
 <path fill="none" stroke="rgb(179,179,179)" stroke-linejoin="round" d="M 2395,12408 L 2545,12408 "/>
 <path fill="none" stroke="rgb(179,179,179)" stroke-linejoin="round" d="M 2395,12408 L 2545,12408 "/>
 <path fill="none" stroke="rgb(179,179,179)" stroke-linejoin="round" d="M 2395,10816 L 2545,10816 "/>
 <path fill="none" stroke="rgb(179,179,179)" stroke-linejoin="round" d="M 2395,10816 L 2545,10816 "/>
 <path fill="none" stroke="rgb(179,179,179)" stroke-linejoin="round" d="M 2395,9225 L 2545,9225 "/>
 <path fill="none" stroke="rgb(179,179,179)" stroke-linejoin="round" d="M 2395,9225 L 2545,9225 "/>
 <path fill="none" stroke="rgb(179,179,179)" stroke-linejoin="round" d="M 2395,7633 L 2545,7633 "/>
 <path fill="none" stroke="rgb(179,179,179)" stroke-linejoin="round" d="M 2395,7633 L 2545,7633 "/>
 <path fill="none" stroke="rgb(179,179,179)" stroke-linejoin="round" d="M 2395,6042 L 2545,6042 "/>
 <path fill="none" stroke="rgb(179,179,179)" stroke-linejoin="round" d="M 2395,6042 L 2545,6042 "/>
 <path fill="none" stroke="rgb(179,179,179)" stroke-linejoin="round" d="M 2395,4451 L 2545,4451 "/>
 <path fill="none" stroke="rgb(179,179,179)" stroke-linejoin="round" d="M 2395,4451 L 2545,4451 "/>
 <path fill="none" stroke="rgb(179,179,179)" stroke-linejoin="round" d="M 2395,2859 L 2545,2859 "/>
 <path fill="none" stroke="rgb(179,179,179)" stroke-linejoin="round" d="M 2395,2859 L 2545,2859 "/>
 <path fill="none" stroke="rgb(179,179,179)" stroke-linejoin="round" d="M 2395,1268 L 2545,1268 "/>
 <path fill="none" stroke="rgb(179,179,179)" stroke-linejoin="round" d="M 2395,1268 L 2545,1268 "/>
 <path fill="none" stroke="rgb(179,179,179)" stroke-linejoin="round" d="M 2545,14000 L 2545,1268 "/>
 <path fill="rgb(0,69,134)" stroke="none" d="M 2784,14000 L 3264,14000 3264,13710 2784,13710 2784,14000 Z "/>
 <path fill="rgb(0,69,134)" stroke="none" d="M 6143,14000 L 6623,14000 6623,13778 6143,13778 6143,14000 Z "/>
 <path fill="rgb(0,69,134)" stroke="none" d="M 9501,14000 L 9981,14000 9981,13990 9501,13990 9501,14000 Z "/>
 <path fill="rgb(0,69,134)" stroke="none" d="M 12860,14000 L 13338,14000 13338,13994 12860,13994 12860,14000 Z "/>
 <path fill="rgb(0,69,134)" stroke="none" d="M 16217,14000 L 16697,14000 16697,13801 16217,13801 16217,14000 Z "/>
 <path fill="rgb(0,69,134)" stroke="none" d="M 19576,14000 L 20055,14000 20055,13962 19576,13962 19576,14000 Z "/>
 <path fill="rgb(0,69,134)" stroke="none" d="M 22934,14000 L 23414,14000 23414,13557 22934,13557 22934,14000 Z "/>
 <path fill="rgb(255,66,14)" stroke="none" d="M 3264,14000 L 3744,14000 3744,13708 3264,13708 3264,14000 Z "/>
 <path fill="rgb(255,66,14)" stroke="none" d="M 6623,14000 L 7102,14000 7102,13782 6623,13782 6623,14000 Z "/>
 <path fill="rgb(255,66,14)" stroke="none" d="M 9981,14000 L 10461,14000 10461,13991 9981,13991 9981,14000 Z "/>
 <path fill="rgb(255,66,14)" stroke="none" d="M 13338,14000 L 13818,14000 13818,13994 13338,13994 13338,14000 Z "/>
 <path fill="rgb(255,66,14)" stroke="none" d="M 16697,14000 L 17177,14000 17177,13801 16697,13801 16697,14000 Z "/>
 <path fill="rgb(255,66,14)" stroke="none" d="M 20055,14000 L 20535,14000 20535,13962 20055,13962 20055,14000 Z "/>
 <path fill="rgb(255,66,14)" stroke="none" d="M 23414,14000 L 23894,14000 23894,13555 23414,13555 23414,14000 Z "/>
 <path fill="rgb(255,211,32)" stroke="none" d="M 3744,14000 L 4224,14000 4224,13407 3744,13407 3744,14000 Z "/>
 <path fill="rgb(255,211,32)" stroke="none" d="M 7102,14000 L 7582,14000 7582,13713 7102,13713 7102,14000 Z "/>
 <path fill="rgb(255,211,32)" stroke="none" d="M 10461,14000 L 10941,14000 10941,13981 10461,13981 10461,14000 Z "/>
 <path fill="rgb(255,211,32)" stroke="none" d="M 13818,14000 L 14298,14000 14298,13990 13818,13990 13818,14000 Z "/>
 <path fill="rgb(255,211,32)" stroke="none" d="M 17177,14000 L 17656,14000 17656,13599 17177,13599 17177,14000 Z "/>
 <path fill="rgb(255,211,32)" stroke="none" d="M 20535,14000 L 21015,14000 21015,13927 20535,13927 20535,14000 Z "/>
 <path fill="rgb(255,211,32)" stroke="none" d="M 23894,14000 L 24373,14000 24373,12866 23894,12866 23894,14000 Z "/>
 <path fill="rgb(87,157,28)" stroke="none" d="M 4224,14000 L 4703,14000 4703,12725 4224,12725 4224,14000 Z "/>
 <path fill="rgb(87,157,28)" stroke="none" d="M 7582,14000 L 8062,14000 8062,13514 7582,13514 7582,14000 Z "/>
 <path fill="rgb(87,157,28)" stroke="none" d="M 10941,14000 L 11420,14000 11420,13965 10941,13965 10941,14000 Z "/>
 <path fill="rgb(87,157,28)" stroke="none" d="M 14298,14000 L 14778,14000 14778,13980 14298,13980 14298,14000 Z "/>
 <path fill="rgb(87,157,28)" stroke="none" d="M 17656,14000 L 18136,14000 18136,13262 17656,13262 17656,14000 Z "/>
 <path fill="rgb(87,157,28)" stroke="none" d="M 21015,14000 L 21495,14000 21495,13856 21015,13856 21015,14000 Z "/>
 <path fill="rgb(87,157,28)" stroke="none" d="M 24373,14000 L 24853,14000 24853,11210 24373,11210 24373,14000 Z "/>
 <path fill="rgb(126,0,33)" stroke="none" d="M 4703,14000 L 5183,14000 5183,11363 4703,11363 4703,14000 Z "/>
 <path fill="rgb(126,0,33)" stroke="none" d="M 8062,14000 L 8542,14000 8542,13154 8062,13154 8062,14000 Z "/>
 <path fill="rgb(126,0,33)" stroke="none" d="M 11420,14000 L 11900,14000 11900,13930 11420,13930 11420,14000 Z "/>
 <path fill="rgb(126,0,33)" stroke="none" d="M 14778,14000 L 15258,14000 15258,13954 14778,13954 14778,14000 Z "/>
 <path fill="rgb(126,0,33)" stroke="none" d="M 18136,14000 L 18616,14000 18616,12314 18136,12314 18136,14000 Z "/>
 <path fill="rgb(126,0,33)" stroke="none" d="M 21495,14000 L 21974,14000 21974,13655 21495,13655 21495,14000 Z "/>
 <path fill="rgb(126,0,33)" stroke="none" d="M 24853,14000 L 25333,14000 25333,8198 24853,8198 24853,14000 Z "/>
 <path fill="rgb(131,202,255)" stroke="none" d="M 5183,14000 L 5663,14000 5663,8966 5183,8966 5183,14000 Z "/>
 <path fill="rgb(131,202,255)" stroke="none" d="M 8542,14000 L 9021,14000 9021,12335 8542,12335 8542,14000 Z "/>
 <path fill="rgb(131,202,255)" stroke="none" d="M 11900,14000 L 12380,14000 12380,13864 11900,13864 11900,14000 Z "/>
 <path fill="rgb(131,202,255)" stroke="none" d="M 15258,14000 L 15737,14000 15737,13928 15258,13928 15258,14000 Z "/>
 <path fill="rgb(131,202,255)" stroke="none" d="M 18616,14000 L 19096,14000 19096,9544 18616,9544 18616,14000 Z "/>
 <path fill="rgb(131,202,255)" stroke="none" d="M 21974,14000 L 22454,14000 22454,13289 21974,13289 21974,14000 Z "/>
 <path fill="rgb(131,202,255)" stroke="none" d="M 25333,14000 L 25813,14000 25813,2392 25333,2392 25333,14000 Z "/>
 <text class="SVGTextShape"><tspan class="TextParagraph"><tspan class="TextPosition" x="3909" y="14568"><tspan font-family="Liberation Sans, sans-serif" font-size="353px" font-weight="400" fill="rgb(0,0,0)" stroke="none" style="white-space: pre">bt.D</tspan></tspan></tspan></text>
 <text class="SVGTextShape"><tspan class="TextParagraph"><tspan class="TextPosition" x="7229" y="14568"><tspan font-family="Liberation Sans, sans-serif" font-size="353px" font-weight="400" fill="rgb(0,0,0)" stroke="none" style="white-space: pre">cg.D</tspan></tspan></tspan></text>
 <text class="SVGTextShape"><tspan class="TextParagraph"><tspan class="TextPosition" x="10578" y="14568"><tspan font-family="Liberation Sans, sans-serif" font-size="353px" font-weight="400" fill="rgb(0,0,0)" stroke="none" style="white-space: pre">ep.D</tspan></tspan></tspan></text>
 <text class="SVGTextShape"><tspan class="TextParagraph"><tspan class="TextPosition" x="14003" y="14568"><tspan font-family="Liberation Sans, sans-serif" font-size="353px" font-weight="400" fill="rgb(0,0,0)" stroke="none" style="white-space: pre">is.D</tspan></tspan></tspan></text>
 <text class="SVGTextShape"><tspan class="TextParagraph"><tspan class="TextPosition" x="17351" y="14568"><tspan font-family="Liberation Sans, sans-serif" font-size="353px" font-weight="400" fill="rgb(0,0,0)" stroke="none" style="white-space: pre">lu.D</tspan></tspan></tspan></text>
 <text class="SVGTextShape"><tspan class="TextParagraph"><tspan class="TextPosition" x="20605" y="14568"><tspan font-family="Liberation Sans, sans-serif" font-size="353px" font-weight="400" fill="rgb(0,0,0)" stroke="none" style="white-space: pre">mg.D</tspan></tspan></tspan></text>
 <text class="SVGTextShape"><tspan class="TextParagraph"><tspan class="TextPosition" x="24020" y="14568"><tspan font-family="Liberation Sans, sans-serif" font-size="353px" font-weight="400" fill="rgb(0,0,0)" stroke="none" style="white-space: pre">sp.D</tspan></tspan></tspan></text>
 <text class="SVGTextShape"><tspan class="TextParagraph"><tspan class="TextPosition" x="2104" y="14121"><tspan font-family="Liberation Sans, sans-serif" font-size="353px" font-weight="400" fill="rgb(0,0,0)" stroke="none" style="white-space: pre">0</tspan></tspan></tspan></text>
 <text class="SVGTextShape"><tspan class="TextParagraph"><tspan class="TextPosition" x="1721" y="12529"><tspan font-family="Liberation Sans, sans-serif" font-size="353px" font-weight="400" fill="rgb(0,0,0)" stroke="none" style="white-space: pre">500</tspan></tspan></tspan></text>
 <text class="SVGTextShape"><tspan class="TextParagraph"><tspan class="TextPosition" x="1530" y="10937"><tspan font-family="Liberation Sans, sans-serif" font-size="353px" font-weight="400" fill="rgb(0,0,0)" stroke="none" style="white-space: pre">1000</tspan></tspan></tspan></text>
 <text class="SVGTextShape"><tspan class="TextParagraph"><tspan class="TextPosition" x="1530" y="9346"><tspan font-family="Liberation Sans, sans-serif" font-size="353px" font-weight="400" fill="rgb(0,0,0)" stroke="none" style="white-space: pre">1500</tspan></tspan></tspan></text>
 <text class="SVGTextShape"><tspan class="TextParagraph"><tspan class="TextPosition" x="1530" y="7754"><tspan font-family="Liberation Sans, sans-serif" font-size="353px" font-weight="400" fill="rgb(0,0,0)" stroke="none" style="white-space: pre">2000</tspan></tspan></tspan></text>
 <text class="SVGTextShape"><tspan class="TextParagraph"><tspan class="TextPosition" x="1530" y="6163"><tspan font-family="Liberation Sans, sans-serif" font-size="353px" font-weight="400" fill="rgb(0,0,0)" stroke="none" style="white-space: pre">2500</tspan></tspan></tspan></text>
 <text class="SVGTextShape"><tspan class="TextParagraph"><tspan class="TextPosition" x="1530" y="4572"><tspan font-family="Liberation Sans, sans-serif" font-size="353px" font-weight="400" fill="rgb(0,0,0)" stroke="none" style="white-space: pre">3000</tspan></tspan></tspan></text>
 <text class="SVGTextShape"><tspan class="TextParagraph"><tspan class="TextPosition" x="1530" y="2980"><tspan font-family="Liberation Sans, sans-serif" font-size="353px" font-weight="400" fill="rgb(0,0,0)" stroke="none" style="white-space: pre">3500</tspan></tspan></tspan></text>
 <text class="SVGTextShape"><tspan class="TextParagraph"><tspan class="TextPosition" x="1530" y="1389"><tspan font-family="Liberation Sans, sans-serif" font-size="353px" font-weight="400" fill="rgb(0,0,0)" stroke="none" style="white-space: pre">4000</tspan></tspan></tspan></text>
 <path fill="rgb(0,69,134)" stroke="none" d="M 8727,576 L 8622,576 8622,365 8833,365 8833,576 8727,576 Z "/>
 <path fill="rgb(255,66,14)" stroke="none" d="M 11355,576 L 11250,576 11250,365 11461,365 11461,576 11355,576 Z "/>
 <path fill="rgb(255,211,32)" stroke="none" d="M 12703,576 L 12598,576 12598,365 12809,365 12809,576 12703,576 Z "/>
 <path fill="rgb(87,157,28)" stroke="none" d="M 14051,576 L 13945,576 13945,365 14156,365 14156,576 14051,576 Z "/>
 <path fill="rgb(126,0,33)" stroke="none" d="M 15399,576 L 15293,576 15293,365 15504,365 15504,576 15399,576 Z "/>
 <path fill="rgb(131,202,255)" stroke="none" d="M 16747,576 L 16641,576 16641,365 16852,365 16852,576 16747,576 Z "/>
 <text class="SVGTextShape"><tspan class="TextParagraph"><tspan class="TextPosition" x="8933" y="590"><tspan font-family="Liberation Sans, sans-serif" font-size="353px" font-weight="400" fill="rgb(0,0,0)" stroke="none" style="white-space: pre">BAREMETAL</tspan></tspan></tspan></text>
 <text class="SVGTextShape"><tspan class="TextParagraph"><tspan class="TextPosition" x="11561" y="590"><tspan font-family="Liberation Sans, sans-serif" font-size="353px" font-weight="400" fill="rgb(0,0,0)" stroke="none" style="white-space: pre">1 VM</tspan></tspan></tspan></text>
 <text class="SVGTextShape"><tspan class="TextParagraph"><tspan class="TextPosition" x="12909" y="590"><tspan font-family="Liberation Sans, sans-serif" font-size="353px" font-weight="400" fill="rgb(0,0,0)" stroke="none" style="white-space: pre">2 VM</tspan></tspan></tspan></text>
 <text class="SVGTextShape"><tspan class="TextParagraph"><tspan class="TextPosition" x="14256" y="590"><tspan font-family="Liberation Sans, sans-serif" font-size="353px" font-weight="400" fill="rgb(0,0,0)" stroke="none" style="white-space: pre">4 VM</tspan></tspan></tspan></text>
 <text class="SVGTextShape"><tspan class="TextParagraph"><tspan class="TextPosition" x="15604" y="590"><tspan font-family="Liberation Sans, sans-serif" font-size="353px" font-weight="400" fill="rgb(0,0,0)" stroke="none" style="white-space: pre">8 VM</tspan></tspan></tspan></text>
 <text class="SVGTextShape"><tspan class="TextParagraph"><tspan class="TextPosition" x="16952" y="590"><tspan font-family="Liberation Sans, sans-serif" font-size="353px" font-weight="400" fill="rgb(0,0,0)" stroke="none" style="white-space: pre">16 VM</tspan></tspan></tspan></text>
 <text class="SVGTextShape" transform="rotate(-90 825 8608)"><tspan class="TextParagraph"><tspan class="TextPosition" x="825" y="8608"><tspan font-family="Liberation Sans, sans-serif" font-size="318px" font-weight="400" fill="rgb(0,0,0)" stroke="none" style="white-space: pre">Time (sec)</tspan></tspan></tspan></text>
 <text class="SVGTextShape"><tspan class="TextParagraph"><tspan class="TextPosition" x="13166" y="7610"><tspan font-family="Liberation Serif, serif" font-size="423px" font-weight="400" fill="rgb(255,255,255)" stroke="none" style="white-space: pre">=</tspan></tspan></tspan></text>
</svg>