<?xml version="1.0" encoding="UTF-8"?>
<!DOCTYPE svg PUBLIC "-//W3C//DTD SVG 1.1//EN" "http://www.w3.org/Graphics/SVG/1.1/DTD/svg11.dtd">
<svg width="228mm" height="128mm" viewBox="0 0 22800 12800" version="1.1" xmlns="http://www.w3.org/2000/svg" xmlns:xlink="http://www.w3.org/1999/xlink" stroke-width="28.222" stroke-linejoin="round" xml:space="preserve">
 <path fill="rgb(255,255,255)" stroke="none" d="M 11391,12815 L -13,12815 -13,-13 22795,-13 22795,12815 11391,12815 Z "/>
 <path fill="none" stroke="rgb(179,179,179)" stroke-linejoin="round" d="M 12309,10931 L 2279,10931 2279,1724 22339,1724 22339,10931 12309,10931 Z "/>
 <path fill="none" stroke="rgb(179,179,179)" stroke-linejoin="round" d="M 22339,10930 L 2279,10930 "/>
 <path fill="none" stroke="rgb(179,179,179)" stroke-linejoin="round" d="M 22339,9614 L 2279,9614 "/>
 <path fill="none" stroke="rgb(179,179,179)" stroke-linejoin="round" d="M 22339,8299 L 2279,8299 "/>
 <path fill="none" stroke="rgb(179,179,179)" stroke-linejoin="round" d="M 22339,6983 L 2279,6983 "/>
 <path fill="none" stroke="rgb(179,179,179)" stroke-linejoin="round" d="M 22339,5669 L 2279,5669 "/>
 <path fill="none" stroke="rgb(179,179,179)" stroke-linejoin="round" d="M 22339,4353 L 2279,4353 "/>
 <path fill="none" stroke="rgb(179,179,179)" stroke-linejoin="round" d="M 22339,3038 L 2279,3038 "/>
 <path fill="none" stroke="rgb(179,179,179)" stroke-linejoin="round" d="M 22339,1723 L 2279,1723 "/>
 <path fill="none" stroke="rgb(179,179,179)" stroke-linejoin="round" d="M 2279,11080 L 2279,10930 "/>
 <path fill="none" stroke="rgb(179,179,179)" stroke-linejoin="round" d="M 2279,11080 L 2279,10930 "/>
 <path fill="none" stroke="rgb(179,179,179)" stroke-linejoin="round" d="M 7294,11080 L 7294,10930 "/>
 <path fill="none" stroke="rgb(179,179,179)" stroke-linejoin="round" d="M 7294,11080 L 7294,10930 "/>
 <path fill="none" stroke="rgb(179,179,179)" stroke-linejoin="round" d="M 12308,11080 L 12308,10930 "/>
 <path fill="none" stroke="rgb(179,179,179)" stroke-linejoin="round" d="M 12308,11080 L 12308,10930 "/>
 <path fill="none" stroke="rgb(179,179,179)" stroke-linejoin="round" d="M 17323,11080 L 17323,10930 "/>
 <path fill="none" stroke="rgb(179,179,179)" stroke-linejoin="round" d="M 17323,11080 L 17323,10930 "/>
 <path fill="none" stroke="rgb(179,179,179)" stroke-linejoin="round" d="M 22339,11080 L 22339,10930 "/>
 <path fill="none" stroke="rgb(179,179,179)" stroke-linejoin="round" d="M 22339,11080 L 22339,10930 "/>
 <path fill="none" stroke="rgb(179,179,179)" stroke-linejoin="round" d="M 2279,10930 L 22339,10930 "/>
 <path fill="none" stroke="rgb(179,179,179)" stroke-linejoin="round" d="M 2129,10930 L 2279,10930 "/>
 <path fill="none" stroke="rgb(179,179,179)" stroke-linejoin="round" d="M 2129,10930 L 2279,10930 "/>
 <path fill="none" stroke="rgb(179,179,179)" stroke-linejoin="round" d="M 2129,9614 L 2279,9614 "/>
 <path fill="none" stroke="rgb(179,179,179)" stroke-linejoin="round" d="M 2129,9614 L 2279,9614 "/>
 <path fill="none" stroke="rgb(179,179,179)" stroke-linejoin="round" d="M 2129,8299 L 2279,8299 "/>
 <path fill="none" stroke="rgb(179,179,179)" stroke-linejoin="round" d="M 2129,8299 L 2279,8299 "/>
 <path fill="none" stroke="rgb(179,179,179)" stroke-linejoin="round" d="M 2129,6983 L 2279,6983 "/>
 <path fill="none" stroke="rgb(179,179,179)" stroke-linejoin="round" d="M 2129,6983 L 2279,6983 "/>
 <path fill="none" stroke="rgb(179,179,179)" stroke-linejoin="round" d="M 2129,5669 L 2279,5669 "/>
 <path fill="none" stroke="rgb(179,179,179)" stroke-linejoin="round" d="M 2129,5669 L 2279,5669 "/>
 <path fill="none" stroke="rgb(179,179,179)" stroke-linejoin="round" d="M 2129,4353 L 2279,4353 "/>
 <path fill="none" stroke="rgb(179,179,179)" stroke-linejoin="round" d="M 2129,4353 L 2279,4353 "/>
 <path fill="none" stroke="rgb(179,179,179)" stroke-linejoin="round" d="M 2129,3038 L 2279,3038 "/>
 <path fill="none" stroke="rgb(179,179,179)" stroke-linejoin="round" d="M 2129,3038 L 2279,3038 "/>
 <path fill="none" stroke="rgb(179,179,179)" stroke-linejoin="round" d="M 2129,1723 L 2279,1723 "/>
 <path fill="none" stroke="rgb(179,179,179)" stroke-linejoin="round" d="M 2129,1723 L 2279,1723 "/>
 <path fill="none" stroke="rgb(179,179,179)" stroke-linejoin="round" d="M 2279,10930 L 2279,1723 "/>
 <path fill="rgb(0,69,134)" stroke="none" d="M 2637,10930 L 3353,10930 3353,2825 2637,2825 2637,10930 Z "/>
 <path fill="rgb(0,69,134)" stroke="none" d="M 7652,10930 L 8368,10930 8368,5178 7652,5178 7652,10930 Z "/>
 <path fill="rgb(0,69,134)" stroke="none" d="M 12666,10930 L 13383,10930 13383,4812 12666,4812 12666,10930 Z "/>
 <path fill="rgb(0,69,134)" stroke="none" d="M 17681,10930 L 18398,10930 18398,4690 17681,4690 17681,10930 Z "/>
 <path fill="rgb(255,66,14)" stroke="none" d="M 3353,10930 L 4070,10930 4070,2815 3353,2815 3353,10930 Z "/>
 <path fill="rgb(255,66,14)" stroke="none" d="M 8368,10930 L 9085,10930 9085,5188 8368,5188 8368,10930 Z "/>
 <path fill="rgb(255,66,14)" stroke="none" d="M 13383,10930 L 14099,10930 14099,4830 13383,4830 13383,10930 Z "/>
 <path fill="rgb(255,66,14)" stroke="none" d="M 18398,10930 L 19114,10930 19114,4716 18398,4716 18398,10930 Z "/>
 <path fill="rgb(255,211,32)" stroke="none" d="M 4070,10930 L 4786,10930 4786,8274 4070,8274 4070,10930 Z "/>
 <path fill="rgb(255,211,32)" stroke="none" d="M 9085,10930 L 9801,10930 9801,9008 9085,9008 9085,10930 Z "/>
 <path fill="rgb(255,211,32)" stroke="none" d="M 14099,10930 L 14816,10930 14816,8960 14099,8960 14099,10930 Z "/>
 <path fill="rgb(255,211,32)" stroke="none" d="M 19114,10930 L 19831,10930 19831,8851 19114,8851 19114,10930 Z "/>
 <path fill="rgb(87,157,28)" stroke="none" d="M 4786,10930 L 5503,10930 5503,8281 4786,8281 4786,10930 Z "/>
 <path fill="rgb(87,157,28)" stroke="none" d="M 9801,10930 L 10518,10930 10518,9008 9801,9008 9801,10930 Z "/>
 <path fill="rgb(87,157,28)" stroke="none" d="M 14816,10930 L 15532,10930 15532,8961 14816,8961 14816,10930 Z "/>
 <path fill="rgb(87,157,28)" stroke="none" d="M 19831,10930 L 20547,10930 20547,8852 19831,8852 19831,10930 Z "/>
 <path fill="rgb(126,0,33)" stroke="none" d="M 5503,10930 L 6219,10930 6219,2846 5503,2846 5503,10930 Z "/>
 <path fill="rgb(126,0,33)" stroke="none" d="M 10518,10930 L 11234,10930 11234,5162 10518,5162 10518,10930 Z "/>
 <path fill="rgb(126,0,33)" stroke="none" d="M 15532,10930 L 16249,10930 16249,4802 15532,4802 15532,10930 Z "/>
 <path fill="rgb(126,0,33)" stroke="none" d="M 20547,10930 L 21264,10930 21264,4676 20547,4676 20547,10930 Z "/>
 <path fill="rgb(131,202,255)" stroke="none" d="M 6219,10930 L 6936,10930 6936,2775 6219,2775 6219,10930 Z "/>
 <path fill="rgb(131,202,255)" stroke="none" d="M 11234,10930 L 11950,10930 11950,5174 11234,5174 11234,10930 Z "/>
 <path fill="rgb(131,202,255)" stroke="none" d="M 16249,10930 L 16965,10930 16965,4778 16249,4778 16249,10930 Z "/>
 <path fill="rgb(131,202,255)" stroke="none" d="M 21264,10930 L 21980,10930 21980,4627 21264,4627 21264,10930 Z "/>
 <text class="SVGTextShape"><tspan class="TextParagraph"><tspan class="TextPosition" x="4385" y="11498"><tspan font-family="Liberation Sans, sans-serif" font-size="353px" font-weight="400" fill="rgb(0,0,0)" stroke="none" style="white-space: pre">Copy</tspan></tspan></tspan></text>
 <text class="SVGTextShape"><tspan class="TextParagraph"><tspan class="TextPosition" x="9372" y="11498"><tspan font-family="Liberation Sans, sans-serif" font-size="353px" font-weight="400" fill="rgb(0,0,0)" stroke="none" style="white-space: pre">Scale</tspan></tspan></tspan></text>
 <text class="SVGTextShape"><tspan class="TextParagraph"><tspan class="TextPosition" x="14511" y="11498"><tspan font-family="Liberation Sans, sans-serif" font-size="353px" font-weight="400" fill="rgb(0,0,0)" stroke="none" style="white-space: pre">Add</tspan></tspan></tspan></text>
 <text class="SVGTextShape"><tspan class="TextParagraph"><tspan class="TextPosition" x="19440" y="11498"><tspan font-family="Liberation Sans, sans-serif" font-size="353px" font-weight="400" fill="rgb(0,0,0)" stroke="none" style="white-space: pre">Triad</tspan></tspan></tspan></text>
 <text class="SVGTextShape"><tspan class="TextParagraph"><tspan class="TextPosition" x="1838" y="11051"><tspan font-family="Liberation Sans, sans-serif" font-size="353px" font-weight="400" fill="rgb(0,0,0)" stroke="none" style="white-space: pre">0</tspan></tspan></tspan></text>
 <text class="SVGTextShape"><tspan class="TextParagraph"><tspan class="TextPosition" x="1455" y="9735"><tspan font-family="Liberation Sans, sans-serif" font-size="353px" font-weight="400" fill="rgb(0,0,0)" stroke="none" style="white-space: pre">100</tspan></tspan></tspan></text>
 <text class="SVGTextShape"><tspan class="TextParagraph"><tspan class="TextPosition" x="1455" y="8420"><tspan font-family="Liberation Sans, sans-serif" font-size="353px" font-weight="400" fill="rgb(0,0,0)" stroke="none" style="white-space: pre">200</tspan></tspan></tspan></text>
 <text class="SVGTextShape"><tspan class="TextParagraph"><tspan class="TextPosition" x="1455" y="7104"><tspan font-family="Liberation Sans, sans-serif" font-size="353px" font-weight="400" fill="rgb(0,0,0)" stroke="none" style="white-space: pre">300</tspan></tspan></tspan></text>
 <text class="SVGTextShape"><tspan class="TextParagraph"><tspan class="TextPosition" x="1455" y="5790"><tspan font-family="Liberation Sans, sans-serif" font-size="353px" font-weight="400" fill="rgb(0,0,0)" stroke="none" style="white-space: pre">400</tspan></tspan></tspan></text>
 <text class="SVGTextShape"><tspan class="TextParagraph"><tspan class="TextPosition" x="1455" y="4474"><tspan font-family="Liberation Sans, sans-serif" font-size="353px" font-weight="400" fill="rgb(0,0,0)" stroke="none" style="white-space: pre">500</tspan></tspan></tspan></text>
 <text class="SVGTextShape"><tspan class="TextParagraph"><tspan class="TextPosition" x="1455" y="3159"><tspan font-family="Liberation Sans, sans-serif" font-size="353px" font-weight="400" fill="rgb(0,0,0)" stroke="none" style="white-space: pre">600</tspan></tspan></tspan></text>
 <text class="SVGTextShape"><tspan class="TextParagraph"><tspan class="TextPosition" x="1455" y="1844"><tspan font-family="Liberation Sans, sans-serif" font-size="353px" font-weight="400" fill="rgb(0,0,0)" stroke="none" style="white-space: pre">700</tspan></tspan></tspan></text>
 <path fill="rgb(0,69,134)" stroke="none" d="M 1525,576 L 1420,576 1420,365 1631,365 1631,576 1525,576 Z "/>
 <path fill="rgb(255,66,14)" stroke="none" d="M 8820,576 L 8715,576 8715,365 8926,365 8926,576 8820,576 Z "/>
 <path fill="rgb(255,211,32)" stroke="none" d="M 15464,576 L 15358,576 15358,365 15569,365 15569,576 15464,576 Z "/>
 <path fill="rgb(87,157,28)" stroke="none" d="M 1525,1074 L 1420,1074 1420,863 1631,863 1631,1074 1525,1074 Z "/>
 <path fill="rgb(126,0,33)" stroke="none" d="M 8820,1074 L 8715,1074 8715,863 8926,863 8926,1074 8820,1074 Z "/>
 <path fill="rgb(131,202,255)" stroke="none" d="M 15464,1074 L 15358,1074 15358,863 15569,863 15569,1074 15464,1074 Z "/>
 <text class="SVGTextShape"><tspan class="TextParagraph"><tspan class="TextPosition" x="1731" y="590"><tspan font-family="Liberation Sans, sans-serif" font-size="353px" font-weight="400" fill="rgb(0,0,0)" stroke="none" style="white-space: pre"> cpumodel  (2xLLCs=36 threads)</tspan></tspan></tspan></text>
 <text class="SVGTextShape"><tspan class="TextParagraph"><tspan class="TextPosition" x="9026" y="590"><tspan font-family="Liberation Sans, sans-serif" font-size="353px" font-weight="400" fill="rgb(0,0,0)" stroke="none" style="white-space: pre">cpumodel+haltpoll (2xLLCs=36 threads)</tspan></tspan></tspan></text>
 <text class="SVGTextShape"><tspan class="TextParagraph"><tspan class="TextPosition" x="15669" y="590"><tspan font-family="Liberation Sans, sans-serif" font-size="353px" font-weight="400" fill="rgb(0,0,0)" stroke="none" style="white-space: pre">cpupassthough (2xLLCs=4 threads)</tspan></tspan></tspan></text>
 <text class="SVGTextShape"><tspan class="TextParagraph"><tspan class="TextPosition" x="1731" y="1088"><tspan font-family="Liberation Sans, sans-serif" font-size="353px" font-weight="400" fill="rgb(0,0,0)" stroke="none" style="white-space: pre">cpupassthough+haltpoll (2xLLCs=4 threads)</tspan></tspan></tspan></text>
 <text class="SVGTextShape"><tspan class="TextParagraph"><tspan class="TextPosition" x="9026" y="1088"><tspan font-family="Liberation Sans, sans-serif" font-size="353px" font-weight="400" fill="rgb(0,0,0)" stroke="none" style="white-space: pre">cpupassthrough (36 threads)</tspan></tspan></tspan></text>
 <text class="SVGTextShape"><tspan class="TextParagraph"><tspan class="TextPosition" x="15669" y="1088"><tspan font-family="Liberation Sans, sans-serif" font-size="353px" font-weight="400" fill="rgb(0,0,0)" stroke="none" style="white-space: pre">cpupassthrough+haltpoll (36 threads)</tspan></tspan></tspan></text>
 <text class="SVGTextShape"><tspan class="TextParagraph"><tspan class="TextPosition" x="10495" y="12221"><tspan font-family="Liberation Sans, sans-serif" font-size="318px" font-weight="400" fill="rgb(0,0,0)" stroke="none" style="white-space: pre">STREAM Operation</tspan></tspan></tspan></text>
 <text class="SVGTextShape" transform="rotate(-90 825 7362)"><tspan class="TextParagraph"><tspan class="TextPosition" x="825" y="7362"><tspan font-family="Liberation Sans, sans-serif" font-size="318px" font-weight="400" fill="rgb(0,0,0)" stroke="none" style="white-space: pre">GBytes/sec</tspan></tspan></tspan></text>
</svg>