<?xml version="1.0" encoding="UTF-8"?>
<!DOCTYPE svg PUBLIC "-//W3C//DTD SVG 1.1//EN" "http://www.w3.org/Graphics/SVG/1.1/DTD/svg11.dtd">
<svg width="255mm" height="143mm" viewBox="0 0 25500 14300" version="1.1" xmlns="http://www.w3.org/2000/svg" xmlns:xlink="http://www.w3.org/1999/xlink" stroke-width="28.222" stroke-linejoin="round" xml:space="preserve">
 <path fill="rgb(255,255,255)" stroke="none" d="M 12722,14312 L -13,14312 -13,-13 25456,-13 25456,14312 12722,14312 Z "/>
 <path fill="none" stroke="rgb(179,179,179)" stroke-linejoin="round" d="M 13735,12398 L 2523,12398 2523,1255 24947,1255 24947,12398 13735,12398 Z "/>
 <path fill="none" stroke="rgb(179,179,179)" stroke-linejoin="round" d="M 24947,12397 L 2523,12397 "/>
 <path fill="none" stroke="rgb(179,179,179)" stroke-linejoin="round" d="M 24947,11282 L 2523,11282 "/>
 <path fill="none" stroke="rgb(179,179,179)" stroke-linejoin="round" d="M 24947,10168 L 2523,10168 "/>
 <path fill="none" stroke="rgb(179,179,179)" stroke-linejoin="round" d="M 24947,9053 L 2523,9053 "/>
 <path fill="none" stroke="rgb(179,179,179)" stroke-linejoin="round" d="M 24947,7939 L 2523,7939 "/>
 <path fill="none" stroke="rgb(179,179,179)" stroke-linejoin="round" d="M 24947,6826 L 2523,6826 "/>
 <path fill="none" stroke="rgb(179,179,179)" stroke-linejoin="round" d="M 24947,5711 L 2523,5711 "/>
 <path fill="none" stroke="rgb(179,179,179)" stroke-linejoin="round" d="M 24947,4597 L 2523,4597 "/>
 <path fill="none" stroke="rgb(179,179,179)" stroke-linejoin="round" d="M 24947,3482 L 2523,3482 "/>
 <path fill="none" stroke="rgb(179,179,179)" stroke-linejoin="round" d="M 24947,2368 L 2523,2368 "/>
 <path fill="none" stroke="rgb(179,179,179)" stroke-linejoin="round" d="M 24947,1254 L 2523,1254 "/>
 <path fill="none" stroke="rgb(179,179,179)" stroke-linejoin="round" d="M 2523,12547 L 2523,12397 "/>
 <path fill="none" stroke="rgb(179,179,179)" stroke-linejoin="round" d="M 2523,12547 L 2523,12397 "/>
 <path fill="none" stroke="rgb(179,179,179)" stroke-linejoin="round" d="M 8129,12547 L 8129,12397 "/>
 <path fill="none" stroke="rgb(179,179,179)" stroke-linejoin="round" d="M 8129,12547 L 8129,12397 "/>
 <path fill="none" stroke="rgb(179,179,179)" stroke-linejoin="round" d="M 13734,12547 L 13734,12397 "/>
 <path fill="none" stroke="rgb(179,179,179)" stroke-linejoin="round" d="M 13734,12547 L 13734,12397 "/>
 <path fill="none" stroke="rgb(179,179,179)" stroke-linejoin="round" d="M 19340,12547 L 19340,12397 "/>
 <path fill="none" stroke="rgb(179,179,179)" stroke-linejoin="round" d="M 19340,12547 L 19340,12397 "/>
 <path fill="none" stroke="rgb(179,179,179)" stroke-linejoin="round" d="M 24947,12547 L 24947,12397 "/>
 <path fill="none" stroke="rgb(179,179,179)" stroke-linejoin="round" d="M 24947,12547 L 24947,12397 "/>
 <path fill="none" stroke="rgb(179,179,179)" stroke-linejoin="round" d="M 2523,12397 L 24947,12397 "/>
 <path fill="none" stroke="rgb(179,179,179)" stroke-linejoin="round" d="M 2373,12397 L 2523,12397 "/>
 <path fill="none" stroke="rgb(179,179,179)" stroke-linejoin="round" d="M 2373,12397 L 2523,12397 "/>
 <path fill="none" stroke="rgb(179,179,179)" stroke-linejoin="round" d="M 2373,11282 L 2523,11282 "/>
 <path fill="none" stroke="rgb(179,179,179)" stroke-linejoin="round" d="M 2373,11282 L 2523,11282 "/>
 <path fill="none" stroke="rgb(179,179,179)" stroke-linejoin="round" d="M 2373,10168 L 2523,10168 "/>
 <path fill="none" stroke="rgb(179,179,179)" stroke-linejoin="round" d="M 2373,10168 L 2523,10168 "/>
 <path fill="none" stroke="rgb(179,179,179)" stroke-linejoin="round" d="M 2373,9053 L 2523,9053 "/>
 <path fill="none" stroke="rgb(179,179,179)" stroke-linejoin="round" d="M 2373,9053 L 2523,9053 "/>
 <path fill="none" stroke="rgb(179,179,179)" stroke-linejoin="round" d="M 2373,7939 L 2523,7939 "/>
 <path fill="none" stroke="rgb(179,179,179)" stroke-linejoin="round" d="M 2373,7939 L 2523,7939 "/>
 <path fill="none" stroke="rgb(179,179,179)" stroke-linejoin="round" d="M 2373,6826 L 2523,6826 "/>
 <path fill="none" stroke="rgb(179,179,179)" stroke-linejoin="round" d="M 2373,6826 L 2523,6826 "/>
 <path fill="none" stroke="rgb(179,179,179)" stroke-linejoin="round" d="M 2373,5711 L 2523,5711 "/>
 <path fill="none" stroke="rgb(179,179,179)" stroke-linejoin="round" d="M 2373,5711 L 2523,5711 "/>
 <path fill="none" stroke="rgb(179,179,179)" stroke-linejoin="round" d="M 2373,4597 L 2523,4597 "/>
 <path fill="none" stroke="rgb(179,179,179)" stroke-linejoin="round" d="M 2373,4597 L 2523,4597 "/>
 <path fill="none" stroke="rgb(179,179,179)" stroke-linejoin="round" d="M 2373,3482 L 2523,3482 "/>
 <path fill="none" stroke="rgb(179,179,179)" stroke-linejoin="round" d="M 2373,3482 L 2523,3482 "/>
 <path fill="none" stroke="rgb(179,179,179)" stroke-linejoin="round" d="M 2373,2368 L 2523,2368 "/>
 <path fill="none" stroke="rgb(179,179,179)" stroke-linejoin="round" d="M 2373,2368 L 2523,2368 "/>
 <path fill="none" stroke="rgb(179,179,179)" stroke-linejoin="round" d="M 2373,1254 L 2523,1254 "/>
 <path fill="none" stroke="rgb(179,179,179)" stroke-linejoin="round" d="M 2373,1254 L 2523,1254 "/>
 <path fill="none" stroke="rgb(179,179,179)" stroke-linejoin="round" d="M 2523,12397 L 2523,1254 "/>
 <path fill="rgb(0,69,134)" stroke="none" d="M 2923,12397 L 3724,12397 3724,4805 2923,4805 2923,12397 Z "/>
 <path fill="rgb(0,69,134)" stroke="none" d="M 8529,12397 L 9330,12397 9330,7026 8529,7026 8529,12397 Z "/>
 <path fill="rgb(0,69,134)" stroke="none" d="M 14134,12397 L 14935,12397 14935,6427 14134,6427 14134,12397 Z "/>
 <path fill="rgb(0,69,134)" stroke="none" d="M 19741,12397 L 20542,12397 20542,6364 19741,6364 19741,12397 Z "/>
 <path fill="rgb(255,66,14)" stroke="none" d="M 3724,12397 L 4525,12397 4525,4815 3724,4815 3724,12397 Z "/>
 <path fill="rgb(255,66,14)" stroke="none" d="M 9330,12397 L 10131,12397 10131,7110 9330,7110 9330,12397 Z "/>
 <path fill="rgb(255,66,14)" stroke="none" d="M 14935,12397 L 15736,12397 15736,6481 14935,6481 14935,12397 Z "/>
 <path fill="rgb(255,66,14)" stroke="none" d="M 20542,12397 L 21342,12397 21342,6443 20542,6443 20542,12397 Z "/>
 <path fill="rgb(255,211,32)" stroke="none" d="M 4525,12397 L 5326,12397 5326,4023 4525,4023 4525,12397 Z "/>
 <path fill="rgb(255,211,32)" stroke="none" d="M 10131,12397 L 10932,12397 10932,7138 10131,7138 10131,12397 Z "/>
 <path fill="rgb(255,211,32)" stroke="none" d="M 15736,12397 L 16537,12397 16537,6411 15736,6411 15736,12397 Z "/>
 <path fill="rgb(255,211,32)" stroke="none" d="M 21342,12397 L 22143,12397 22143,6250 21342,6250 21342,12397 Z "/>
 <path fill="rgb(87,157,28)" stroke="none" d="M 5326,12397 L 6127,12397 6127,3906 5326,3906 5326,12397 Z "/>
 <path fill="rgb(87,157,28)" stroke="none" d="M 10932,12397 L 11733,12397 11733,7175 10932,7175 10932,12397 Z "/>
 <path fill="rgb(87,157,28)" stroke="none" d="M 16537,12397 L 17338,12397 17338,6407 16537,6407 16537,12397 Z "/>
 <path fill="rgb(87,157,28)" stroke="none" d="M 22143,12397 L 22944,12397 22944,6129 22143,6129 22143,12397 Z "/>
 <path fill="rgb(126,0,33)" stroke="none" d="M 6127,12397 L 6927,12397 6927,3050 6127,3050 6127,12397 Z "/>
 <path fill="rgb(126,0,33)" stroke="none" d="M 11733,12397 L 12534,12397 12534,7216 11733,7216 11733,12397 Z "/>
 <path fill="rgb(126,0,33)" stroke="none" d="M 17338,12397 L 18139,12397 18139,6394 17338,6394 17338,12397 Z "/>
 <path fill="rgb(126,0,33)" stroke="none" d="M 22944,12397 L 23745,12397 23745,5609 22944,5609 22944,12397 Z "/>
 <path fill="rgb(131,202,255)" stroke="none" d="M 6927,12397 L 7728,12397 7728,2668 6927,2668 6927,12397 Z "/>
 <path fill="rgb(131,202,255)" stroke="none" d="M 12534,12397 L 13334,12397 13334,7258 12534,7258 12534,12397 Z "/>
 <path fill="rgb(131,202,255)" stroke="none" d="M 18139,12397 L 18940,12397 18940,6327 18139,6327 18139,12397 Z "/>
 <path fill="rgb(131,202,255)" stroke="none" d="M 23745,12397 L 24546,12397 24546,5553 23745,5553 23745,12397 Z "/>
 <text class="SVGTextShape"><tspan class="TextParagraph"><tspan class="TextPosition" x="4925" y="12965"><tspan font-family="Liberation Sans, sans-serif" font-size="353px" font-weight="400" fill="rgb(0,0,0)" stroke="none" style="white-space: pre">Copy</tspan></tspan></tspan></text>
 <text class="SVGTextShape"><tspan class="TextParagraph"><tspan class="TextPosition" x="10503" y="12965"><tspan font-family="Liberation Sans, sans-serif" font-size="353px" font-weight="400" fill="rgb(0,0,0)" stroke="none" style="white-space: pre">Scale</tspan></tspan></tspan></text>
 <text class="SVGTextShape"><tspan class="TextParagraph"><tspan class="TextPosition" x="16232" y="12965"><tspan font-family="Liberation Sans, sans-serif" font-size="353px" font-weight="400" fill="rgb(0,0,0)" stroke="none" style="white-space: pre">Add</tspan></tspan></tspan></text>
 <text class="SVGTextShape"><tspan class="TextParagraph"><tspan class="TextPosition" x="21752" y="12965"><tspan font-family="Liberation Sans, sans-serif" font-size="353px" font-weight="400" fill="rgb(0,0,0)" stroke="none" style="white-space: pre">Triad</tspan></tspan></tspan></text>
 <text class="SVGTextShape"><tspan class="TextParagraph"><tspan class="TextPosition" x="2082" y="12518"><tspan font-family="Liberation Sans, sans-serif" font-size="353px" font-weight="400" fill="rgb(0,0,0)" stroke="none" style="white-space: pre">0</tspan></tspan></tspan></text>
 <text class="SVGTextShape"><tspan class="TextParagraph"><tspan class="TextPosition" x="1699" y="11403"><tspan font-family="Liberation Sans, sans-serif" font-size="353px" font-weight="400" fill="rgb(0,0,0)" stroke="none" style="white-space: pre">100</tspan></tspan></tspan></text>
 <text class="SVGTextShape"><tspan class="TextParagraph"><tspan class="TextPosition" x="1699" y="10289"><tspan font-family="Liberation Sans, sans-serif" font-size="353px" font-weight="400" fill="rgb(0,0,0)" stroke="none" style="white-space: pre">200</tspan></tspan></tspan></text>
 <text class="SVGTextShape"><tspan class="TextParagraph"><tspan class="TextPosition" x="1699" y="9174"><tspan font-family="Liberation Sans, sans-serif" font-size="353px" font-weight="400" fill="rgb(0,0,0)" stroke="none" style="white-space: pre">300</tspan></tspan></tspan></text>
 <text class="SVGTextShape"><tspan class="TextParagraph"><tspan class="TextPosition" x="1699" y="8060"><tspan font-family="Liberation Sans, sans-serif" font-size="353px" font-weight="400" fill="rgb(0,0,0)" stroke="none" style="white-space: pre">400</tspan></tspan></tspan></text>
 <text class="SVGTextShape"><tspan class="TextParagraph"><tspan class="TextPosition" x="1699" y="6947"><tspan font-family="Liberation Sans, sans-serif" font-size="353px" font-weight="400" fill="rgb(0,0,0)" stroke="none" style="white-space: pre">500</tspan></tspan></tspan></text>
 <text class="SVGTextShape"><tspan class="TextParagraph"><tspan class="TextPosition" x="1699" y="5832"><tspan font-family="Liberation Sans, sans-serif" font-size="353px" font-weight="400" fill="rgb(0,0,0)" stroke="none" style="white-space: pre">600</tspan></tspan></tspan></text>
 <text class="SVGTextShape"><tspan class="TextParagraph"><tspan class="TextPosition" x="1699" y="4718"><tspan font-family="Liberation Sans, sans-serif" font-size="353px" font-weight="400" fill="rgb(0,0,0)" stroke="none" style="white-space: pre">700</tspan></tspan></tspan></text>
 <text class="SVGTextShape"><tspan class="TextParagraph"><tspan class="TextPosition" x="1699" y="3603"><tspan font-family="Liberation Sans, sans-serif" font-size="353px" font-weight="400" fill="rgb(0,0,0)" stroke="none" style="white-space: pre">800</tspan></tspan></tspan></text>
 <text class="SVGTextShape"><tspan class="TextParagraph"><tspan class="TextPosition" x="1699" y="2489"><tspan font-family="Liberation Sans, sans-serif" font-size="353px" font-weight="400" fill="rgb(0,0,0)" stroke="none" style="white-space: pre">900</tspan></tspan></tspan></text>
 <text class="SVGTextShape"><tspan class="TextParagraph"><tspan class="TextPosition" x="1508" y="1375"><tspan font-family="Liberation Sans, sans-serif" font-size="353px" font-weight="400" fill="rgb(0,0,0)" stroke="none" style="white-space: pre">1000</tspan></tspan></tspan></text>
 <path fill="rgb(0,69,134)" stroke="none" d="M 8708,576 L 8603,576 8603,365 8814,365 8814,576 8708,576 Z "/>
 <path fill="rgb(255,66,14)" stroke="none" d="M 10056,576 L 9951,576 9951,365 10162,365 10162,576 10056,576 Z "/>
 <path fill="rgb(255,211,32)" stroke="none" d="M 11404,576 L 11299,576 11299,365 11510,365 11510,576 11404,576 Z "/>
 <path fill="rgb(87,157,28)" stroke="none" d="M 12752,576 L 12647,576 12647,365 12857,365 12857,576 12752,576 Z "/>
 <path fill="rgb(126,0,33)" stroke="none" d="M 14100,576 L 13994,576 13994,365 14205,365 14205,576 14100,576 Z "/>
 <path fill="rgb(131,202,255)" stroke="none" d="M 15639,576 L 15533,576 15533,365 15744,365 15744,576 15639,576 Z "/>
 <text class="SVGTextShape"><tspan class="TextParagraph"><tspan class="TextPosition" x="8914" y="590"><tspan font-family="Liberation Sans, sans-serif" font-size="353px" font-weight="400" fill="rgb(0,0,0)" stroke="none" style="white-space: pre">1 VM</tspan></tspan></tspan></text>
 <text class="SVGTextShape"><tspan class="TextParagraph"><tspan class="TextPosition" x="10262" y="590"><tspan font-family="Liberation Sans, sans-serif" font-size="353px" font-weight="400" fill="rgb(0,0,0)" stroke="none" style="white-space: pre">2 VM</tspan></tspan></tspan></text>
 <text class="SVGTextShape"><tspan class="TextParagraph"><tspan class="TextPosition" x="11610" y="590"><tspan font-family="Liberation Sans, sans-serif" font-size="353px" font-weight="400" fill="rgb(0,0,0)" stroke="none" style="white-space: pre">4 VM</tspan></tspan></tspan></text>
 <text class="SVGTextShape"><tspan class="TextParagraph"><tspan class="TextPosition" x="12957" y="590"><tspan font-family="Liberation Sans, sans-serif" font-size="353px" font-weight="400" fill="rgb(0,0,0)" stroke="none" style="white-space: pre">8 VM</tspan></tspan></tspan></text>
 <text class="SVGTextShape"><tspan class="TextParagraph"><tspan class="TextPosition" x="14305" y="590"><tspan font-family="Liberation Sans, sans-serif" font-size="353px" font-weight="400" fill="rgb(0,0,0)" stroke="none" style="white-space: pre">16 VM</tspan></tspan></tspan></text>
 <text class="SVGTextShape"><tspan class="TextParagraph"><tspan class="TextPosition" x="15844" y="590"><tspan font-family="Liberation Sans, sans-serif" font-size="353px" font-weight="400" fill="rgb(0,0,0)" stroke="none" style="white-space: pre">32 VM</tspan></tspan></tspan></text>
 <text class="SVGTextShape"><tspan class="TextParagraph"><tspan class="TextPosition" x="11825" y="13718"><tspan font-family="Liberation Sans, sans-serif" font-size="318px" font-weight="400" fill="rgb(0,0,0)" stroke="none" style="white-space: pre">STREAM Operation</tspan></tspan></tspan></text>
 <text class="SVGTextShape" transform="rotate(-90 825 9344)"><tspan class="TextParagraph"><tspan class="TextPosition" x="825" y="9344"><tspan font-family="Liberation Sans, sans-serif" font-size="318px" font-weight="400" fill="rgb(0,0,0)" stroke="none" style="white-space: pre">GBytes/sec (Average of all VMs)</tspan></tspan></tspan></text>
</svg>