<?xml version="1.0" encoding="UTF-8"?>
<!DOCTYPE svg PUBLIC "-//W3C//DTD SVG 1.1//EN" "http://www.w3.org/Graphics/SVG/1.1/DTD/svg11.dtd">
<svg width="228mm" height="128mm" viewBox="0 0 22800 12800" version="1.1" xmlns="http://www.w3.org/2000/svg" xmlns:xlink="http://www.w3.org/1999/xlink" stroke-width="28.222" stroke-linejoin="round" xml:space="preserve">
 <path fill="rgb(255,255,255)" stroke="none" d="M 11397,12822 L -13,12822 -13,-13 22806,-13 22806,12822 11397,12822 Z "/>
 <path fill="none" stroke="rgb(179,179,179)" stroke-linejoin="round" d="M 12219,10938 L 2088,10938 2088,1225 22350,1225 22350,10938 12219,10938 Z "/>
 <path fill="none" stroke="rgb(179,179,179)" stroke-linejoin="round" d="M 22350,10937 L 2088,10937 "/>
 <path fill="none" stroke="rgb(179,179,179)" stroke-linejoin="round" d="M 22350,9318 L 2088,9318 "/>
 <path fill="none" stroke="rgb(179,179,179)" stroke-linejoin="round" d="M 22350,7699 L 2088,7699 "/>
 <path fill="none" stroke="rgb(179,179,179)" stroke-linejoin="round" d="M 22350,6081 L 2088,6081 "/>
 <path fill="none" stroke="rgb(179,179,179)" stroke-linejoin="round" d="M 22350,4462 L 2088,4462 "/>
 <path fill="none" stroke="rgb(179,179,179)" stroke-linejoin="round" d="M 22350,2843 L 2088,2843 "/>
 <path fill="none" stroke="rgb(179,179,179)" stroke-linejoin="round" d="M 22350,1224 L 2088,1224 "/>
 <path fill="none" stroke="rgb(179,179,179)" stroke-linejoin="round" d="M 2088,11087 L 2088,10937 "/>
 <path fill="none" stroke="rgb(179,179,179)" stroke-linejoin="round" d="M 2088,11087 L 2088,10937 "/>
 <path fill="none" stroke="rgb(179,179,179)" stroke-linejoin="round" d="M 7153,11087 L 7153,10937 "/>
 <path fill="none" stroke="rgb(179,179,179)" stroke-linejoin="round" d="M 7153,11087 L 7153,10937 "/>
 <path fill="none" stroke="rgb(179,179,179)" stroke-linejoin="round" d="M 12218,11087 L 12218,10937 "/>
 <path fill="none" stroke="rgb(179,179,179)" stroke-linejoin="round" d="M 12218,11087 L 12218,10937 "/>
 <path fill="none" stroke="rgb(179,179,179)" stroke-linejoin="round" d="M 17284,11087 L 17284,10937 "/>
 <path fill="none" stroke="rgb(179,179,179)" stroke-linejoin="round" d="M 17284,11087 L 17284,10937 "/>
 <path fill="none" stroke="rgb(179,179,179)" stroke-linejoin="round" d="M 22350,11087 L 22350,10937 "/>
 <path fill="none" stroke="rgb(179,179,179)" stroke-linejoin="round" d="M 22350,11087 L 22350,10937 "/>
 <path fill="none" stroke="rgb(179,179,179)" stroke-linejoin="round" d="M 2088,10937 L 22350,10937 "/>
 <path fill="none" stroke="rgb(179,179,179)" stroke-linejoin="round" d="M 1938,10937 L 2088,10937 "/>
 <path fill="none" stroke="rgb(179,179,179)" stroke-linejoin="round" d="M 1938,10937 L 2088,10937 "/>
 <path fill="none" stroke="rgb(179,179,179)" stroke-linejoin="round" d="M 1938,9318 L 2088,9318 "/>
 <path fill="none" stroke="rgb(179,179,179)" stroke-linejoin="round" d="M 1938,9318 L 2088,9318 "/>
 <path fill="none" stroke="rgb(179,179,179)" stroke-linejoin="round" d="M 1938,7699 L 2088,7699 "/>
 <path fill="none" stroke="rgb(179,179,179)" stroke-linejoin="round" d="M 1938,7699 L 2088,7699 "/>
 <path fill="none" stroke="rgb(179,179,179)" stroke-linejoin="round" d="M 1938,6081 L 2088,6081 "/>
 <path fill="none" stroke="rgb(179,179,179)" stroke-linejoin="round" d="M 1938,6081 L 2088,6081 "/>
 <path fill="none" stroke="rgb(179,179,179)" stroke-linejoin="round" d="M 1938,4462 L 2088,4462 "/>
 <path fill="none" stroke="rgb(179,179,179)" stroke-linejoin="round" d="M 1938,4462 L 2088,4462 "/>
 <path fill="none" stroke="rgb(179,179,179)" stroke-linejoin="round" d="M 1938,2843 L 2088,2843 "/>
 <path fill="none" stroke="rgb(179,179,179)" stroke-linejoin="round" d="M 1938,2843 L 2088,2843 "/>
 <path fill="none" stroke="rgb(179,179,179)" stroke-linejoin="round" d="M 1938,1224 L 2088,1224 "/>
 <path fill="none" stroke="rgb(179,179,179)" stroke-linejoin="round" d="M 1938,1224 L 2088,1224 "/>
 <path fill="none" stroke="rgb(179,179,179)" stroke-linejoin="round" d="M 2088,10937 L 2088,1224 "/>
 <path fill="rgb(0,69,134)" stroke="none" d="M 2721,10937 L 3987,10937 3987,2340 2721,2340 2721,10937 Z "/>
 <path fill="rgb(0,69,134)" stroke="none" d="M 7786,10937 L 9053,10937 9053,4547 7786,4547 7786,10937 Z "/>
 <path fill="rgb(0,69,134)" stroke="none" d="M 12851,10937 L 14118,10937 14118,4419 12851,4419 12851,10937 Z "/>
 <path fill="rgb(0,69,134)" stroke="none" d="M 17917,10937 L 19183,10937 19183,4289 17917,4289 17917,10937 Z "/>
 <path fill="rgb(255,66,14)" stroke="none" d="M 3987,10937 L 5254,10937 5254,2486 3987,2486 3987,10937 Z "/>
 <path fill="rgb(255,66,14)" stroke="none" d="M 9053,10937 L 10319,10937 10319,5095 9053,5095 9053,10937 Z "/>
 <path fill="rgb(255,66,14)" stroke="none" d="M 14118,10937 L 15384,10937 15384,4847 14118,4847 14118,10937 Z "/>
 <path fill="rgb(255,66,14)" stroke="none" d="M 19183,10937 L 20450,10937 20450,4656 19183,4656 19183,10937 Z "/>
 <path fill="rgb(255,211,32)" stroke="none" d="M 5254,10937 L 6520,10937 6520,2490 5254,2490 5254,10937 Z "/>
 <path fill="rgb(255,211,32)" stroke="none" d="M 10319,10937 L 11585,10937 11585,5099 10319,5099 10319,10937 Z "/>
 <path fill="rgb(255,211,32)" stroke="none" d="M 15384,10937 L 16651,10937 16651,4835 15384,4835 15384,10937 Z "/>
 <path fill="rgb(255,211,32)" stroke="none" d="M 20450,10937 L 21716,10937 21716,4649 20450,4649 20450,10937 Z "/>
 <text class="SVGTextShape"><tspan class="TextParagraph"><tspan class="TextPosition" x="4219" y="11505"><tspan font-family="Liberation Sans, sans-serif" font-size="353px" font-weight="400" fill="rgb(0,0,0)" stroke="none" style="white-space: pre">Copy</tspan></tspan></tspan></text>
 <text class="SVGTextShape"><tspan class="TextParagraph"><tspan class="TextPosition" x="9257" y="11505"><tspan font-family="Liberation Sans, sans-serif" font-size="353px" font-weight="400" fill="rgb(0,0,0)" stroke="none" style="white-space: pre">Scale</tspan></tspan></tspan></text>
 <text class="SVGTextShape"><tspan class="TextParagraph"><tspan class="TextPosition" x="14446" y="11505"><tspan font-family="Liberation Sans, sans-serif" font-size="353px" font-weight="400" fill="rgb(0,0,0)" stroke="none" style="white-space: pre">Add</tspan></tspan></tspan></text>
 <text class="SVGTextShape"><tspan class="TextParagraph"><tspan class="TextPosition" x="19426" y="11505"><tspan font-family="Liberation Sans, sans-serif" font-size="353px" font-weight="400" fill="rgb(0,0,0)" stroke="none" style="white-space: pre">Triad</tspan></tspan></tspan></text>
 <text class="SVGTextShape"><tspan class="TextParagraph"><tspan class="TextPosition" x="1647" y="11058"><tspan font-family="Liberation Sans, sans-serif" font-size="353px" font-weight="400" fill="rgb(0,0,0)" stroke="none" style="white-space: pre">0</tspan></tspan></tspan></text>
 <text class="SVGTextShape"><tspan class="TextParagraph"><tspan class="TextPosition" x="1455" y="9439"><tspan font-family="Liberation Sans, sans-serif" font-size="353px" font-weight="400" fill="rgb(0,0,0)" stroke="none" style="white-space: pre">10</tspan></tspan></tspan></text>
 <text class="SVGTextShape"><tspan class="TextParagraph"><tspan class="TextPosition" x="1455" y="7820"><tspan font-family="Liberation Sans, sans-serif" font-size="353px" font-weight="400" fill="rgb(0,0,0)" stroke="none" style="white-space: pre">20</tspan></tspan></tspan></text>
 <text class="SVGTextShape"><tspan class="TextParagraph"><tspan class="TextPosition" x="1455" y="6202"><tspan font-family="Liberation Sans, sans-serif" font-size="353px" font-weight="400" fill="rgb(0,0,0)" stroke="none" style="white-space: pre">30</tspan></tspan></tspan></text>
 <text class="SVGTextShape"><tspan class="TextParagraph"><tspan class="TextPosition" x="1455" y="4583"><tspan font-family="Liberation Sans, sans-serif" font-size="353px" font-weight="400" fill="rgb(0,0,0)" stroke="none" style="white-space: pre">40</tspan></tspan></tspan></text>
 <text class="SVGTextShape"><tspan class="TextParagraph"><tspan class="TextPosition" x="1455" y="2964"><tspan font-family="Liberation Sans, sans-serif" font-size="353px" font-weight="400" fill="rgb(0,0,0)" stroke="none" style="white-space: pre">50</tspan></tspan></tspan></text>
 <text class="SVGTextShape"><tspan class="TextParagraph"><tspan class="TextPosition" x="1455" y="1345"><tspan font-family="Liberation Sans, sans-serif" font-size="353px" font-weight="400" fill="rgb(0,0,0)" stroke="none" style="white-space: pre">60</tspan></tspan></tspan></text>
 <path fill="rgb(0,69,134)" stroke="none" d="M 8783,576 L 8678,576 8678,365 8889,365 8889,576 8783,576 Z "/>
 <path fill="rgb(255,66,14)" stroke="none" d="M 11412,576 L 11307,576 11307,365 11517,365 11517,576 11412,576 Z "/>
 <path fill="rgb(255,211,32)" stroke="none" d="M 12645,576 L 12539,576 12539,365 12750,365 12750,576 12645,576 Z "/>
 <text class="SVGTextShape"><tspan class="TextParagraph"><tspan class="TextPosition" x="8989" y="590"><tspan font-family="Liberation Sans, sans-serif" font-size="353px" font-weight="400" fill="rgb(0,0,0)" stroke="none" style="white-space: pre">not encrypted</tspan></tspan></tspan></text>
 <text class="SVGTextShape"><tspan class="TextParagraph"><tspan class="TextPosition" x="11617" y="590"><tspan font-family="Liberation Sans, sans-serif" font-size="353px" font-weight="400" fill="rgb(0,0,0)" stroke="none" style="white-space: pre">SEV</tspan></tspan></tspan></text>
 <text class="SVGTextShape"><tspan class="TextParagraph"><tspan class="TextPosition" x="12850" y="590"><tspan font-family="Liberation Sans, sans-serif" font-size="353px" font-weight="400" fill="rgb(0,0,0)" stroke="none" style="white-space: pre">SEV-ES</tspan></tspan></tspan></text>
 <text class="SVGTextShape"><tspan class="TextParagraph"><tspan class="TextPosition" x="10421" y="12228"><tspan font-family="Liberation Sans, sans-serif" font-size="318px" font-weight="400" fill="rgb(0,0,0)" stroke="none" style="white-space: pre">STREAM Operations</tspan></tspan></tspan></text>
 <text class="SVGTextShape" transform="rotate(-90 825 7117)"><tspan class="TextParagraph"><tspan class="TextPosition" x="825" y="7117"><tspan font-family="Liberation Sans, sans-serif" font-size="318px" font-weight="400" fill="rgb(0,0,0)" stroke="none" style="white-space: pre">GBytes/sec</tspan></tspan></tspan></text>
</svg>