<?xml version="1.0" encoding="UTF-8"?>
<!DOCTYPE svg PUBLIC "-//W3C//DTD SVG 1.1//EN" "http://www.w3.org/Graphics/SVG/1.1/DTD/svg11.dtd">
<svg width="273mm" height="154mm" viewBox="0 0 27300 15400" version="1.1" xmlns="http://www.w3.org/2000/svg" xmlns:xlink="http://www.w3.org/1999/xlink" stroke-width="28.222" stroke-linejoin="round" xml:space="preserve">
 <path fill="rgb(255,255,255)" stroke="none" d="M 13646,15353 L -13,15353 -13,-13 27305,-13 27305,15353 13646,15353 Z "/>
 <path fill="none" stroke="rgb(179,179,179)" stroke-linejoin="round" d="M 14468,13418 L 2178,13418 2178,1276 26759,1276 26759,13418 14468,13418 Z "/>
 <path fill="none" stroke="rgb(179,179,179)" stroke-linejoin="round" d="M 26759,13417 L 2178,13417 "/>
 <path fill="none" stroke="rgb(179,179,179)" stroke-linejoin="round" d="M 26759,11393 L 2178,11393 "/>
 <path fill="none" stroke="rgb(179,179,179)" stroke-linejoin="round" d="M 26759,9369 L 2178,9369 "/>
 <path fill="none" stroke="rgb(179,179,179)" stroke-linejoin="round" d="M 26759,7346 L 2178,7346 "/>
 <path fill="none" stroke="rgb(179,179,179)" stroke-linejoin="round" d="M 26759,5322 L 2178,5322 "/>
 <path fill="none" stroke="rgb(179,179,179)" stroke-linejoin="round" d="M 26759,3298 L 2178,3298 "/>
 <path fill="none" stroke="rgb(179,179,179)" stroke-linejoin="round" d="M 26759,1275 L 2178,1275 "/>
 <path fill="none" stroke="rgb(179,179,179)" stroke-linejoin="round" d="M 2178,13567 L 2178,13417 "/>
 <path fill="none" stroke="rgb(179,179,179)" stroke-linejoin="round" d="M 2178,13567 L 2178,13417 "/>
 <path fill="none" stroke="rgb(179,179,179)" stroke-linejoin="round" d="M 8323,13567 L 8323,13417 "/>
 <path fill="none" stroke="rgb(179,179,179)" stroke-linejoin="round" d="M 8323,13567 L 8323,13417 "/>
 <path fill="none" stroke="rgb(179,179,179)" stroke-linejoin="round" d="M 14468,13567 L 14468,13417 "/>
 <path fill="none" stroke="rgb(179,179,179)" stroke-linejoin="round" d="M 14468,13567 L 14468,13417 "/>
 <path fill="none" stroke="rgb(179,179,179)" stroke-linejoin="round" d="M 20613,13567 L 20613,13417 "/>
 <path fill="none" stroke="rgb(179,179,179)" stroke-linejoin="round" d="M 20613,13567 L 20613,13417 "/>
 <path fill="none" stroke="rgb(179,179,179)" stroke-linejoin="round" d="M 26759,13567 L 26759,13417 "/>
 <path fill="none" stroke="rgb(179,179,179)" stroke-linejoin="round" d="M 26759,13567 L 26759,13417 "/>
 <path fill="none" stroke="rgb(179,179,179)" stroke-linejoin="round" d="M 2178,13417 L 26759,13417 "/>
 <path fill="none" stroke="rgb(179,179,179)" stroke-linejoin="round" d="M 2028,13417 L 2178,13417 "/>
 <path fill="none" stroke="rgb(179,179,179)" stroke-linejoin="round" d="M 2028,13417 L 2178,13417 "/>
 <path fill="none" stroke="rgb(179,179,179)" stroke-linejoin="round" d="M 2028,11393 L 2178,11393 "/>
 <path fill="none" stroke="rgb(179,179,179)" stroke-linejoin="round" d="M 2028,11393 L 2178,11393 "/>
 <path fill="none" stroke="rgb(179,179,179)" stroke-linejoin="round" d="M 2028,9369 L 2178,9369 "/>
 <path fill="none" stroke="rgb(179,179,179)" stroke-linejoin="round" d="M 2028,9369 L 2178,9369 "/>
 <path fill="none" stroke="rgb(179,179,179)" stroke-linejoin="round" d="M 2028,7346 L 2178,7346 "/>
 <path fill="none" stroke="rgb(179,179,179)" stroke-linejoin="round" d="M 2028,7346 L 2178,7346 "/>
 <path fill="none" stroke="rgb(179,179,179)" stroke-linejoin="round" d="M 2028,5322 L 2178,5322 "/>
 <path fill="none" stroke="rgb(179,179,179)" stroke-linejoin="round" d="M 2028,5322 L 2178,5322 "/>
 <path fill="none" stroke="rgb(179,179,179)" stroke-linejoin="round" d="M 2028,3298 L 2178,3298 "/>
 <path fill="none" stroke="rgb(179,179,179)" stroke-linejoin="round" d="M 2028,3298 L 2178,3298 "/>
 <path fill="none" stroke="rgb(179,179,179)" stroke-linejoin="round" d="M 2028,1275 L 2178,1275 "/>
 <path fill="none" stroke="rgb(179,179,179)" stroke-linejoin="round" d="M 2028,1275 L 2178,1275 "/>
 <path fill="none" stroke="rgb(179,179,179)" stroke-linejoin="round" d="M 2178,13417 L 2178,1275 "/>
 <path fill="rgb(0,69,134)" stroke="none" d="M 2616,13417 L 3494,13417 3494,3626 2616,3626 2616,13417 Z "/>
 <path fill="rgb(0,69,134)" stroke="none" d="M 8762,13417 L 9640,13417 9640,5245 8762,5245 8762,13417 Z "/>
 <path fill="rgb(0,69,134)" stroke="none" d="M 14906,13417 L 15784,13417 15784,5023 14906,5023 14906,13417 Z "/>
 <path fill="rgb(0,69,134)" stroke="none" d="M 21052,13417 L 21930,13417 21930,5045 21052,5045 21052,13417 Z "/>
 <path fill="rgb(255,66,14)" stroke="none" d="M 3494,13417 L 4372,13417 4372,3626 3494,3626 3494,13417 Z "/>
 <path fill="rgb(255,66,14)" stroke="none" d="M 9640,13417 L 10518,13417 10518,5242 9640,5242 9640,13417 Z "/>
 <path fill="rgb(255,66,14)" stroke="none" d="M 15784,13417 L 16662,13417 16662,5006 15784,5006 15784,13417 Z "/>
 <path fill="rgb(255,66,14)" stroke="none" d="M 21930,13417 L 22808,13417 22808,5033 21930,5033 21930,13417 Z "/>
 <path fill="rgb(255,211,32)" stroke="none" d="M 4372,13417 L 5250,13417 5250,4200 4372,4200 4372,13417 Z "/>
 <path fill="rgb(255,211,32)" stroke="none" d="M 10518,13417 L 11396,13417 11396,5589 10518,5589 10518,13417 Z "/>
 <path fill="rgb(255,211,32)" stroke="none" d="M 16662,13417 L 17540,13417 17540,5345 16662,5345 16662,13417 Z "/>
 <path fill="rgb(255,211,32)" stroke="none" d="M 22808,13417 L 23686,13417 23686,5332 22808,5332 22808,13417 Z "/>
 <path fill="rgb(87,157,28)" stroke="none" d="M 5250,13417 L 6128,13417 6128,5267 5250,5267 5250,13417 Z "/>
 <path fill="rgb(87,157,28)" stroke="none" d="M 11396,13417 L 12274,13417 12274,6382 11396,6382 11396,13417 Z "/>
 <path fill="rgb(87,157,28)" stroke="none" d="M 17540,13417 L 18418,13417 18418,5918 17540,5918 17540,13417 Z "/>
 <path fill="rgb(87,157,28)" stroke="none" d="M 23686,13417 L 24564,13417 24564,5862 23686,5862 23686,13417 Z "/>
 <path fill="rgb(126,0,33)" stroke="none" d="M 6128,13417 L 7006,13417 7006,7072 6128,7072 6128,13417 Z "/>
 <path fill="rgb(126,0,33)" stroke="none" d="M 12274,13417 L 13152,13417 13152,7982 12274,7982 12274,13417 Z "/>
 <path fill="rgb(126,0,33)" stroke="none" d="M 18418,13417 L 19296,13417 19296,7495 18418,7495 18418,13417 Z "/>
 <path fill="rgb(126,0,33)" stroke="none" d="M 24564,13417 L 25442,13417 25442,7302 24564,7302 24564,13417 Z "/>
 <path fill="rgb(131,202,255)" stroke="none" d="M 7006,13417 L 7884,13417 7884,8934 7006,8934 7006,13417 Z "/>
 <path fill="rgb(131,202,255)" stroke="none" d="M 13152,13417 L 14029,13417 14029,10411 13152,10411 13152,13417 Z "/>
 <path fill="rgb(131,202,255)" stroke="none" d="M 19296,13417 L 20174,13417 20174,9987 19296,9987 19296,13417 Z "/>
 <path fill="rgb(131,202,255)" stroke="none" d="M 25442,13417 L 26320,13417 26320,9712 25442,9712 25442,13417 Z "/>
 <text class="SVGTextShape"><tspan class="TextParagraph"><tspan class="TextPosition" x="4849" y="13985"><tspan font-family="Liberation Sans, sans-serif" font-size="353px" font-weight="400" fill="rgb(0,0,0)" stroke="none" style="white-space: pre">Copy</tspan></tspan></tspan></text>
 <text class="SVGTextShape"><tspan class="TextParagraph"><tspan class="TextPosition" x="10967" y="13985"><tspan font-family="Liberation Sans, sans-serif" font-size="353px" font-weight="400" fill="rgb(0,0,0)" stroke="none" style="white-space: pre">Scale</tspan></tspan></tspan></text>
 <text class="SVGTextShape"><tspan class="TextParagraph"><tspan class="TextPosition" x="17235" y="13985"><tspan font-family="Liberation Sans, sans-serif" font-size="353px" font-weight="400" fill="rgb(0,0,0)" stroke="none" style="white-space: pre">Add</tspan></tspan></tspan></text>
 <text class="SVGTextShape"><tspan class="TextParagraph"><tspan class="TextPosition" x="23295" y="13985"><tspan font-family="Liberation Sans, sans-serif" font-size="353px" font-weight="400" fill="rgb(0,0,0)" stroke="none" style="white-space: pre">Triad</tspan></tspan></tspan></text>
 <text class="SVGTextShape"><tspan class="TextParagraph"><tspan class="TextPosition" x="1737" y="13538"><tspan font-family="Liberation Sans, sans-serif" font-size="353px" font-weight="400" fill="rgb(0,0,0)" stroke="none" style="white-space: pre">0</tspan></tspan></tspan></text>
 <text class="SVGTextShape"><tspan class="TextParagraph"><tspan class="TextPosition" x="1545" y="11514"><tspan font-family="Liberation Sans, sans-serif" font-size="353px" font-weight="400" fill="rgb(0,0,0)" stroke="none" style="white-space: pre">10</tspan></tspan></tspan></text>
 <text class="SVGTextShape"><tspan class="TextParagraph"><tspan class="TextPosition" x="1545" y="9490"><tspan font-family="Liberation Sans, sans-serif" font-size="353px" font-weight="400" fill="rgb(0,0,0)" stroke="none" style="white-space: pre">20</tspan></tspan></tspan></text>
 <text class="SVGTextShape"><tspan class="TextParagraph"><tspan class="TextPosition" x="1545" y="7467"><tspan font-family="Liberation Sans, sans-serif" font-size="353px" font-weight="400" fill="rgb(0,0,0)" stroke="none" style="white-space: pre">30</tspan></tspan></tspan></text>
 <text class="SVGTextShape"><tspan class="TextParagraph"><tspan class="TextPosition" x="1545" y="5443"><tspan font-family="Liberation Sans, sans-serif" font-size="353px" font-weight="400" fill="rgb(0,0,0)" stroke="none" style="white-space: pre">40</tspan></tspan></tspan></text>
 <text class="SVGTextShape"><tspan class="TextParagraph"><tspan class="TextPosition" x="1545" y="3419"><tspan font-family="Liberation Sans, sans-serif" font-size="353px" font-weight="400" fill="rgb(0,0,0)" stroke="none" style="white-space: pre">50</tspan></tspan></tspan></text>
 <text class="SVGTextShape"><tspan class="TextParagraph"><tspan class="TextPosition" x="1545" y="1396"><tspan font-family="Liberation Sans, sans-serif" font-size="353px" font-weight="400" fill="rgb(0,0,0)" stroke="none" style="white-space: pre">60</tspan></tspan></tspan></text>
 <path fill="rgb(0,69,134)" stroke="none" d="M 9632,576 L 9527,576 9527,365 9738,365 9738,576 9632,576 Z "/>
 <path fill="rgb(255,66,14)" stroke="none" d="M 10980,576 L 10875,576 10875,365 11086,365 11086,576 10980,576 Z "/>
 <path fill="rgb(255,211,32)" stroke="none" d="M 12328,576 L 12223,576 12223,365 12434,365 12434,576 12328,576 Z "/>
 <path fill="rgb(87,157,28)" stroke="none" d="M 13676,576 L 13571,576 13571,365 13781,365 13781,576 13676,576 Z "/>
 <path fill="rgb(126,0,33)" stroke="none" d="M 15024,576 L 14918,576 14918,365 15129,365 15129,576 15024,576 Z "/>
 <path fill="rgb(131,202,255)" stroke="none" d="M 16563,576 L 16457,576 16457,365 16668,365 16668,576 16563,576 Z "/>
 <text class="SVGTextShape"><tspan class="TextParagraph"><tspan class="TextPosition" x="9838" y="590"><tspan font-family="Liberation Sans, sans-serif" font-size="353px" font-weight="400" fill="rgb(0,0,0)" stroke="none" style="white-space: pre">1 VM</tspan></tspan></tspan></text>
 <text class="SVGTextShape"><tspan class="TextParagraph"><tspan class="TextPosition" x="11186" y="590"><tspan font-family="Liberation Sans, sans-serif" font-size="353px" font-weight="400" fill="rgb(0,0,0)" stroke="none" style="white-space: pre">2 VM</tspan></tspan></tspan></text>
 <text class="SVGTextShape"><tspan class="TextParagraph"><tspan class="TextPosition" x="12534" y="590"><tspan font-family="Liberation Sans, sans-serif" font-size="353px" font-weight="400" fill="rgb(0,0,0)" stroke="none" style="white-space: pre">4 VM</tspan></tspan></tspan></text>
 <text class="SVGTextShape"><tspan class="TextParagraph"><tspan class="TextPosition" x="13882" y="590"><tspan font-family="Liberation Sans, sans-serif" font-size="353px" font-weight="400" fill="rgb(0,0,0)" stroke="none" style="white-space: pre">8 VM</tspan></tspan></tspan></text>
 <text class="SVGTextShape"><tspan class="TextParagraph"><tspan class="TextPosition" x="15229" y="590"><tspan font-family="Liberation Sans, sans-serif" font-size="353px" font-weight="400" fill="rgb(0,0,0)" stroke="none" style="white-space: pre">16 VM</tspan></tspan></tspan></text>
 <text class="SVGTextShape"><tspan class="TextParagraph"><tspan class="TextPosition" x="16768" y="590"><tspan font-family="Liberation Sans, sans-serif" font-size="353px" font-weight="400" fill="rgb(0,0,0)" stroke="none" style="white-space: pre">32 VM</tspan></tspan></tspan></text>
 <text class="SVGTextShape"><tspan class="TextParagraph"><tspan class="TextPosition" x="12750" y="14759"><tspan font-family="Liberation Sans, sans-serif" font-size="318px" font-weight="400" fill="rgb(0,0,0)" stroke="none" style="white-space: pre">STREAM Operation</tspan></tspan></tspan></text>
 <text class="SVGTextShape" transform="rotate(-90 825 9864)"><tspan class="TextParagraph"><tspan class="TextPosition" x="825" y="9864"><tspan font-family="Liberation Sans, sans-serif" font-size="318px" font-weight="400" fill="rgb(0,0,0)" stroke="none" style="white-space: pre">GBytes/sec (Average of all VMs)</tspan></tspan></tspan></text>
</svg>