<?xml version="1.0" encoding="UTF-8"?>
<!DOCTYPE svg PUBLIC "-//W3C//DTD SVG 1.1//EN" "http://www.w3.org/Graphics/SVG/1.1/DTD/svg11.dtd">
<svg width="288mm" height="150mm" viewBox="0 0 28800 15000" version="1.1" xmlns="http://www.w3.org/2000/svg" xmlns:xlink="http://www.w3.org/1999/xlink" stroke-width="28.222" stroke-linejoin="round" xml:space="preserve">
 <path fill="rgb(255,255,255)" stroke="none" d="M 14411,14968 L -13,14968 -13,-13 28834,-13 28834,14968 14411,14968 Z "/>
 <path fill="none" stroke="rgb(179,179,179)" stroke-linejoin="round" d="M 15328,13041 L 2399,13041 2399,1268 28258,1268 28258,13041 15328,13041 Z "/>
 <path fill="none" stroke="rgb(179,179,179)" stroke-linejoin="round" d="M 28258,13040 L 2399,13040 "/>
 <path fill="none" stroke="rgb(179,179,179)" stroke-linejoin="round" d="M 28258,11568 L 2399,11568 "/>
 <path fill="none" stroke="rgb(179,179,179)" stroke-linejoin="round" d="M 28258,10096 L 2399,10096 "/>
 <path fill="none" stroke="rgb(179,179,179)" stroke-linejoin="round" d="M 28258,8624 L 2399,8624 "/>
 <path fill="none" stroke="rgb(179,179,179)" stroke-linejoin="round" d="M 28258,7154 L 2399,7154 "/>
 <path fill="none" stroke="rgb(179,179,179)" stroke-linejoin="round" d="M 28258,5682 L 2399,5682 "/>
 <path fill="none" stroke="rgb(179,179,179)" stroke-linejoin="round" d="M 28258,4210 L 2399,4210 "/>
 <path fill="none" stroke="rgb(179,179,179)" stroke-linejoin="round" d="M 28258,2738 L 2399,2738 "/>
 <path fill="none" stroke="rgb(179,179,179)" stroke-linejoin="round" d="M 28258,1267 L 2399,1267 "/>
 <path fill="none" stroke="rgb(179,179,179)" stroke-linejoin="round" d="M 2399,13190 L 2399,13040 "/>
 <path fill="none" stroke="rgb(179,179,179)" stroke-linejoin="round" d="M 2399,13190 L 2399,13040 "/>
 <path fill="none" stroke="rgb(179,179,179)" stroke-linejoin="round" d="M 8864,13190 L 8864,13040 "/>
 <path fill="none" stroke="rgb(179,179,179)" stroke-linejoin="round" d="M 8864,13190 L 8864,13040 "/>
 <path fill="none" stroke="rgb(179,179,179)" stroke-linejoin="round" d="M 15328,13190 L 15328,13040 "/>
 <path fill="none" stroke="rgb(179,179,179)" stroke-linejoin="round" d="M 15328,13190 L 15328,13040 "/>
 <path fill="none" stroke="rgb(179,179,179)" stroke-linejoin="round" d="M 21793,13190 L 21793,13040 "/>
 <path fill="none" stroke="rgb(179,179,179)" stroke-linejoin="round" d="M 21793,13190 L 21793,13040 "/>
 <path fill="none" stroke="rgb(179,179,179)" stroke-linejoin="round" d="M 28258,13190 L 28258,13040 "/>
 <path fill="none" stroke="rgb(179,179,179)" stroke-linejoin="round" d="M 28258,13190 L 28258,13040 "/>
 <path fill="none" stroke="rgb(179,179,179)" stroke-linejoin="round" d="M 2399,13040 L 28258,13040 "/>
 <path fill="none" stroke="rgb(179,179,179)" stroke-linejoin="round" d="M 2249,13040 L 2399,13040 "/>
 <path fill="none" stroke="rgb(179,179,179)" stroke-linejoin="round" d="M 2249,13040 L 2399,13040 "/>
 <path fill="none" stroke="rgb(179,179,179)" stroke-linejoin="round" d="M 2249,11568 L 2399,11568 "/>
 <path fill="none" stroke="rgb(179,179,179)" stroke-linejoin="round" d="M 2249,11568 L 2399,11568 "/>
 <path fill="none" stroke="rgb(179,179,179)" stroke-linejoin="round" d="M 2249,10096 L 2399,10096 "/>
 <path fill="none" stroke="rgb(179,179,179)" stroke-linejoin="round" d="M 2249,10096 L 2399,10096 "/>
 <path fill="none" stroke="rgb(179,179,179)" stroke-linejoin="round" d="M 2249,8624 L 2399,8624 "/>
 <path fill="none" stroke="rgb(179,179,179)" stroke-linejoin="round" d="M 2249,8624 L 2399,8624 "/>
 <path fill="none" stroke="rgb(179,179,179)" stroke-linejoin="round" d="M 2249,7154 L 2399,7154 "/>
 <path fill="none" stroke="rgb(179,179,179)" stroke-linejoin="round" d="M 2249,7154 L 2399,7154 "/>
 <path fill="none" stroke="rgb(179,179,179)" stroke-linejoin="round" d="M 2249,5682 L 2399,5682 "/>
 <path fill="none" stroke="rgb(179,179,179)" stroke-linejoin="round" d="M 2249,5682 L 2399,5682 "/>
 <path fill="none" stroke="rgb(179,179,179)" stroke-linejoin="round" d="M 2249,4210 L 2399,4210 "/>
 <path fill="none" stroke="rgb(179,179,179)" stroke-linejoin="round" d="M 2249,4210 L 2399,4210 "/>
 <path fill="none" stroke="rgb(179,179,179)" stroke-linejoin="round" d="M 2249,2738 L 2399,2738 "/>
 <path fill="none" stroke="rgb(179,179,179)" stroke-linejoin="round" d="M 2249,2738 L 2399,2738 "/>
 <path fill="none" stroke="rgb(179,179,179)" stroke-linejoin="round" d="M 2249,1267 L 2399,1267 "/>
 <path fill="none" stroke="rgb(179,179,179)" stroke-linejoin="round" d="M 2249,1267 L 2399,1267 "/>
 <path fill="none" stroke="rgb(179,179,179)" stroke-linejoin="round" d="M 2399,13040 L 2399,1267 "/>
 <path fill="rgb(0,69,134)" stroke="none" d="M 3045,13040 L 4338,13040 4338,12329 3045,12329 3045,13040 Z "/>
 <path fill="rgb(0,69,134)" stroke="none" d="M 9510,13040 L 10803,13040 10803,12447 9510,12447 9510,13040 Z "/>
 <path fill="rgb(0,69,134)" stroke="none" d="M 15974,13040 L 17267,13040 17267,12430 15974,12430 15974,13040 Z "/>
 <path fill="rgb(0,69,134)" stroke="none" d="M 22439,13040 L 23732,13040 23732,12432 22439,12432 22439,13040 Z "/>
 <path fill="rgb(255,66,14)" stroke="none" d="M 4338,13040 L 5631,13040 5631,12327 4338,12327 4338,13040 Z "/>
 <path fill="rgb(255,66,14)" stroke="none" d="M 10803,13040 L 12096,13040 12096,12445 10803,12445 10803,13040 Z "/>
 <path fill="rgb(255,66,14)" stroke="none" d="M 17267,13040 L 18560,13040 18560,12429 17267,12429 17267,13040 Z "/>
 <path fill="rgb(255,66,14)" stroke="none" d="M 23732,13040 L 25025,13040 25025,12431 23732,12431 23732,13040 Z "/>
 <path fill="rgb(255,211,32)" stroke="none" d="M 5631,13040 L 6924,13040 6924,3005 5631,3005 5631,13040 Z "/>
 <path fill="rgb(255,211,32)" stroke="none" d="M 12096,13040 L 13389,13040 13389,5896 12096,5896 12096,13040 Z "/>
 <path fill="rgb(255,211,32)" stroke="none" d="M 18560,13040 L 19853,13040 19853,5108 18560,5108 18560,13040 Z "/>
 <path fill="rgb(255,211,32)" stroke="none" d="M 25025,13040 L 26318,13040 26318,5005 25025,5005 25025,13040 Z "/>
 <path fill="rgb(87,157,28)" stroke="none" d="M 6924,13040 L 8217,13040 8217,3014 6924,3014 6924,13040 Z "/>
 <path fill="rgb(87,157,28)" stroke="none" d="M 13389,13040 L 14681,13040 14681,5946 13389,5946 13389,13040 Z "/>
 <path fill="rgb(87,157,28)" stroke="none" d="M 19853,13040 L 21146,13040 21146,5155 19853,5155 19853,13040 Z "/>
 <path fill="rgb(87,157,28)" stroke="none" d="M 26318,13040 L 27611,13040 27611,5072 26318,5072 26318,13040 Z "/>
 <text class="SVGTextShape"><tspan class="TextParagraph"><tspan class="TextPosition" x="5230" y="13608"><tspan font-family="Liberation Sans, sans-serif" font-size="353px" font-weight="400" fill="rgb(0,0,0)" stroke="none" style="white-space: pre">Copy</tspan></tspan></tspan></text>
 <text class="SVGTextShape"><tspan class="TextParagraph"><tspan class="TextPosition" x="11667" y="13608"><tspan font-family="Liberation Sans, sans-serif" font-size="353px" font-weight="400" fill="rgb(0,0,0)" stroke="none" style="white-space: pre">Scale</tspan></tspan></tspan></text>
 <text class="SVGTextShape"><tspan class="TextParagraph"><tspan class="TextPosition" x="18255" y="13608"><tspan font-family="Liberation Sans, sans-serif" font-size="353px" font-weight="400" fill="rgb(0,0,0)" stroke="none" style="white-space: pre">Add</tspan></tspan></tspan></text>
 <text class="SVGTextShape"><tspan class="TextParagraph"><tspan class="TextPosition" x="24634" y="13608"><tspan font-family="Liberation Sans, sans-serif" font-size="353px" font-weight="400" fill="rgb(0,0,0)" stroke="none" style="white-space: pre">Triad</tspan></tspan></tspan></text>
 <text class="SVGTextShape"><tspan class="TextParagraph"><tspan class="TextPosition" x="1958" y="13161"><tspan font-family="Liberation Sans, sans-serif" font-size="353px" font-weight="400" fill="rgb(0,0,0)" stroke="none" style="white-space: pre">0</tspan></tspan></tspan></text>
 <text class="SVGTextShape"><tspan class="TextParagraph"><tspan class="TextPosition" x="1575" y="11689"><tspan font-family="Liberation Sans, sans-serif" font-size="353px" font-weight="400" fill="rgb(0,0,0)" stroke="none" style="white-space: pre">100</tspan></tspan></tspan></text>
 <text class="SVGTextShape"><tspan class="TextParagraph"><tspan class="TextPosition" x="1575" y="10217"><tspan font-family="Liberation Sans, sans-serif" font-size="353px" font-weight="400" fill="rgb(0,0,0)" stroke="none" style="white-space: pre">200</tspan></tspan></tspan></text>
 <text class="SVGTextShape"><tspan class="TextParagraph"><tspan class="TextPosition" x="1575" y="8745"><tspan font-family="Liberation Sans, sans-serif" font-size="353px" font-weight="400" fill="rgb(0,0,0)" stroke="none" style="white-space: pre">300</tspan></tspan></tspan></text>
 <text class="SVGTextShape"><tspan class="TextParagraph"><tspan class="TextPosition" x="1575" y="7275"><tspan font-family="Liberation Sans, sans-serif" font-size="353px" font-weight="400" fill="rgb(0,0,0)" stroke="none" style="white-space: pre">400</tspan></tspan></tspan></text>
 <text class="SVGTextShape"><tspan class="TextParagraph"><tspan class="TextPosition" x="1575" y="5803"><tspan font-family="Liberation Sans, sans-serif" font-size="353px" font-weight="400" fill="rgb(0,0,0)" stroke="none" style="white-space: pre">500</tspan></tspan></tspan></text>
 <text class="SVGTextShape"><tspan class="TextParagraph"><tspan class="TextPosition" x="1575" y="4331"><tspan font-family="Liberation Sans, sans-serif" font-size="353px" font-weight="400" fill="rgb(0,0,0)" stroke="none" style="white-space: pre">600</tspan></tspan></tspan></text>
 <text class="SVGTextShape"><tspan class="TextParagraph"><tspan class="TextPosition" x="1575" y="2859"><tspan font-family="Liberation Sans, sans-serif" font-size="353px" font-weight="400" fill="rgb(0,0,0)" stroke="none" style="white-space: pre">700</tspan></tspan></tspan></text>
 <text class="SVGTextShape"><tspan class="TextParagraph"><tspan class="TextPosition" x="1575" y="1388"><tspan font-family="Liberation Sans, sans-serif" font-size="353px" font-weight="400" fill="rgb(0,0,0)" stroke="none" style="white-space: pre">800</tspan></tspan></tspan></text>
 <path fill="rgb(0,69,134)" stroke="none" d="M 6382,576 L 6277,576 6277,365 6488,365 6488,576 6382,576 Z "/>
 <path fill="rgb(255,66,14)" stroke="none" d="M 8533,576 L 8428,576 8428,365 8639,365 8639,576 8533,576 Z "/>
 <path fill="rgb(255,211,32)" stroke="none" d="M 10971,576 L 10866,576 10866,365 11077,365 11077,576 10971,576 Z "/>
 <path fill="rgb(87,157,28)" stroke="none" d="M 16783,576 L 16677,576 16677,365 16888,365 16888,576 16783,576 Z "/>
 <text class="SVGTextShape"><tspan class="TextParagraph"><tspan class="TextPosition" x="6588" y="590"><tspan font-family="Liberation Sans, sans-serif" font-size="353px" font-weight="400" fill="rgb(0,0,0)" stroke="none" style="white-space: pre">BM, single</tspan></tspan></tspan></text>
 <text class="SVGTextShape"><tspan class="TextParagraph"><tspan class="TextPosition" x="8739" y="590"><tspan font-family="Liberation Sans, sans-serif" font-size="353px" font-weight="400" fill="rgb(0,0,0)" stroke="none" style="white-space: pre">1 VM, single</tspan></tspan></tspan></text>
 <text class="SVGTextShape"><tspan class="TextParagraph"><tspan class="TextPosition" x="11177" y="590"><tspan font-family="Liberation Sans, sans-serif" font-size="353px" font-weight="400" fill="rgb(0,0,0)" stroke="none" style="white-space: pre">BM, openmp (2xLLCs threads=64)</tspan></tspan></tspan></text>
 <text class="SVGTextShape"><tspan class="TextParagraph"><tspan class="TextPosition" x="16988" y="590"><tspan font-family="Liberation Sans, sans-serif" font-size="353px" font-weight="400" fill="rgb(0,0,0)" stroke="none" style="white-space: pre">1 VM, openmp (2xLLCs threads=64)</tspan></tspan></tspan></text>
 <text class="SVGTextShape"><tspan class="TextParagraph"><tspan class="TextPosition" x="13514" y="14374"><tspan font-family="Liberation Sans, sans-serif" font-size="318px" font-weight="400" fill="rgb(0,0,0)" stroke="none" style="white-space: pre">STREAM Operation</tspan></tspan></tspan></text>
 <text class="SVGTextShape" transform="rotate(-90 825 9081)"><tspan class="TextParagraph"><tspan class="TextPosition" x="825" y="9081"><tspan font-family="Liberation Sans, sans-serif" font-size="318px" font-weight="400" fill="rgb(0,0,0)" stroke="none" style="white-space: pre">Bandwidth (GBytes/sec)</tspan></tspan></tspan></text>
</svg>