<?xml version="1.0" encoding="UTF-8"?>
<!DOCTYPE svg PUBLIC "-//W3C//DTD SVG 1.1//EN" "http://www.w3.org/Graphics/SVG/1.1/DTD/svg11.dtd">
<svg width="265mm" height="149mm" viewBox="0 0 26500 14900" version="1.1" xmlns="http://www.w3.org/2000/svg" xmlns:xlink="http://www.w3.org/1999/xlink" stroke-width="28.222" stroke-linejoin="round" xml:space="preserve">
 <path fill="rgb(255,255,255)" stroke="none" d="M 13255,14912 L -13,14912 -13,-13 26523,-13 26523,14912 13255,14912 Z "/>
 <path fill="none" stroke="rgb(179,179,179)" stroke-linejoin="round" d="M 14173,12986 L 2353,12986 2353,1267 25993,1267 25993,12986 14173,12986 Z "/>
 <path fill="none" stroke="rgb(179,179,179)" stroke-linejoin="round" d="M 25993,12985 L 2353,12985 "/>
 <path fill="none" stroke="rgb(179,179,179)" stroke-linejoin="round" d="M 25993,11520 L 2353,11520 "/>
 <path fill="none" stroke="rgb(179,179,179)" stroke-linejoin="round" d="M 25993,10055 L 2353,10055 "/>
 <path fill="none" stroke="rgb(179,179,179)" stroke-linejoin="round" d="M 25993,8590 L 2353,8590 "/>
 <path fill="none" stroke="rgb(179,179,179)" stroke-linejoin="round" d="M 25993,7126 L 2353,7126 "/>
 <path fill="none" stroke="rgb(179,179,179)" stroke-linejoin="round" d="M 25993,5661 L 2353,5661 "/>
 <path fill="none" stroke="rgb(179,179,179)" stroke-linejoin="round" d="M 25993,4196 L 2353,4196 "/>
 <path fill="none" stroke="rgb(179,179,179)" stroke-linejoin="round" d="M 25993,2731 L 2353,2731 "/>
 <path fill="none" stroke="rgb(179,179,179)" stroke-linejoin="round" d="M 25993,1266 L 2353,1266 "/>
 <path fill="none" stroke="rgb(179,179,179)" stroke-linejoin="round" d="M 2353,13135 L 2353,12985 "/>
 <path fill="none" stroke="rgb(179,179,179)" stroke-linejoin="round" d="M 2353,13135 L 2353,12985 "/>
 <path fill="none" stroke="rgb(179,179,179)" stroke-linejoin="round" d="M 8263,13135 L 8263,12985 "/>
 <path fill="none" stroke="rgb(179,179,179)" stroke-linejoin="round" d="M 8263,13135 L 8263,12985 "/>
 <path fill="none" stroke="rgb(179,179,179)" stroke-linejoin="round" d="M 14172,13135 L 14172,12985 "/>
 <path fill="none" stroke="rgb(179,179,179)" stroke-linejoin="round" d="M 14172,13135 L 14172,12985 "/>
 <path fill="none" stroke="rgb(179,179,179)" stroke-linejoin="round" d="M 20082,13135 L 20082,12985 "/>
 <path fill="none" stroke="rgb(179,179,179)" stroke-linejoin="round" d="M 20082,13135 L 20082,12985 "/>
 <path fill="none" stroke="rgb(179,179,179)" stroke-linejoin="round" d="M 25993,13135 L 25993,12985 "/>
 <path fill="none" stroke="rgb(179,179,179)" stroke-linejoin="round" d="M 25993,13135 L 25993,12985 "/>
 <path fill="none" stroke="rgb(179,179,179)" stroke-linejoin="round" d="M 2353,12985 L 25993,12985 "/>
 <path fill="none" stroke="rgb(179,179,179)" stroke-linejoin="round" d="M 2203,12985 L 2353,12985 "/>
 <path fill="none" stroke="rgb(179,179,179)" stroke-linejoin="round" d="M 2203,12985 L 2353,12985 "/>
 <path fill="none" stroke="rgb(179,179,179)" stroke-linejoin="round" d="M 2203,11520 L 2353,11520 "/>
 <path fill="none" stroke="rgb(179,179,179)" stroke-linejoin="round" d="M 2203,11520 L 2353,11520 "/>
 <path fill="none" stroke="rgb(179,179,179)" stroke-linejoin="round" d="M 2203,10055 L 2353,10055 "/>
 <path fill="none" stroke="rgb(179,179,179)" stroke-linejoin="round" d="M 2203,10055 L 2353,10055 "/>
 <path fill="none" stroke="rgb(179,179,179)" stroke-linejoin="round" d="M 2203,8590 L 2353,8590 "/>
 <path fill="none" stroke="rgb(179,179,179)" stroke-linejoin="round" d="M 2203,8590 L 2353,8590 "/>
 <path fill="none" stroke="rgb(179,179,179)" stroke-linejoin="round" d="M 2203,7126 L 2353,7126 "/>
 <path fill="none" stroke="rgb(179,179,179)" stroke-linejoin="round" d="M 2203,7126 L 2353,7126 "/>
 <path fill="none" stroke="rgb(179,179,179)" stroke-linejoin="round" d="M 2203,5661 L 2353,5661 "/>
 <path fill="none" stroke="rgb(179,179,179)" stroke-linejoin="round" d="M 2203,5661 L 2353,5661 "/>
 <path fill="none" stroke="rgb(179,179,179)" stroke-linejoin="round" d="M 2203,4196 L 2353,4196 "/>
 <path fill="none" stroke="rgb(179,179,179)" stroke-linejoin="round" d="M 2203,4196 L 2353,4196 "/>
 <path fill="none" stroke="rgb(179,179,179)" stroke-linejoin="round" d="M 2203,2731 L 2353,2731 "/>
 <path fill="none" stroke="rgb(179,179,179)" stroke-linejoin="round" d="M 2203,2731 L 2353,2731 "/>
 <path fill="none" stroke="rgb(179,179,179)" stroke-linejoin="round" d="M 2203,1266 L 2353,1266 "/>
 <path fill="none" stroke="rgb(179,179,179)" stroke-linejoin="round" d="M 2203,1266 L 2353,1266 "/>
 <path fill="none" stroke="rgb(179,179,179)" stroke-linejoin="round" d="M 2353,12985 L 2353,1266 "/>
 <path fill="rgb(0,69,134)" stroke="none" d="M 2775,12985 L 3619,12985 3619,12276 2775,12276 2775,12985 Z "/>
 <path fill="rgb(0,69,134)" stroke="none" d="M 8685,12985 L 9529,12985 9529,12393 8685,12393 8685,12985 Z "/>
 <path fill="rgb(0,69,134)" stroke="none" d="M 14594,12985 L 15438,12985 15438,12377 14594,12377 14594,12985 Z "/>
 <path fill="rgb(0,69,134)" stroke="none" d="M 20504,12985 L 21349,12985 21349,12378 20504,12378 20504,12985 Z "/>
 <path fill="rgb(255,66,14)" stroke="none" d="M 3619,12985 L 4463,12985 4463,11567 3619,11567 3619,12985 Z "/>
 <path fill="rgb(255,66,14)" stroke="none" d="M 9529,12985 L 10374,12985 10374,11801 9529,11801 9529,12985 Z "/>
 <path fill="rgb(255,66,14)" stroke="none" d="M 15438,12985 L 16283,12985 16283,11767 15438,11767 15438,12985 Z "/>
 <path fill="rgb(255,66,14)" stroke="none" d="M 21349,12985 L 22193,12985 22193,11771 21349,11771 21349,12985 Z "/>
 <path fill="rgb(255,211,32)" stroke="none" d="M 4463,12985 L 5308,12985 5308,10316 4463,10316 4463,12985 Z "/>
 <path fill="rgb(255,211,32)" stroke="none" d="M 10374,12985 L 11218,12985 11218,10718 10374,10718 10374,12985 Z "/>
 <path fill="rgb(255,211,32)" stroke="none" d="M 16283,12985 L 17127,12985 17127,10647 16283,10647 16283,12985 Z "/>
 <path fill="rgb(255,211,32)" stroke="none" d="M 22193,12985 L 23037,12985 23037,10643 22193,10643 22193,12985 Z "/>
 <path fill="rgb(87,157,28)" stroke="none" d="M 5308,12985 L 6152,12985 6152,8265 5308,8265 5308,12985 Z "/>
 <path fill="rgb(87,157,28)" stroke="none" d="M 11218,12985 L 12062,12985 12062,9932 11218,9932 11218,12985 Z "/>
 <path fill="rgb(87,157,28)" stroke="none" d="M 17127,12985 L 17971,12985 17971,9729 17127,9729 17127,12985 Z "/>
 <path fill="rgb(87,157,28)" stroke="none" d="M 23037,12985 L 23882,12985 23882,9705 23037,9705 23037,12985 Z "/>
 <path fill="rgb(126,0,33)" stroke="none" d="M 6152,12985 L 6996,12985 6996,5636 6152,5636 6152,12985 Z "/>
 <path fill="rgb(126,0,33)" stroke="none" d="M 12062,12985 L 12907,12985 12907,6692 12062,6692 12062,12985 Z "/>
 <path fill="rgb(126,0,33)" stroke="none" d="M 17971,12985 L 18816,12985 18816,6126 17971,6126 17971,12985 Z "/>
 <path fill="rgb(126,0,33)" stroke="none" d="M 23882,12985 L 24726,12985 24726,5902 23882,5902 23882,12985 Z "/>
 <path fill="rgb(131,202,255)" stroke="none" d="M 6996,12985 L 7841,12985 7841,2602 6996,2602 6996,12985 Z "/>
 <path fill="rgb(131,202,255)" stroke="none" d="M 12907,12985 L 13750,12985 13750,6023 12907,6023 12907,12985 Z "/>
 <path fill="rgb(131,202,255)" stroke="none" d="M 18816,12985 L 19660,12985 19660,5043 18816,5043 18816,12985 Z "/>
 <path fill="rgb(131,202,255)" stroke="none" d="M 24726,12985 L 25570,12985 25570,4405 24726,4405 24726,12985 Z "/>
 <text class="SVGTextShape"><tspan class="TextParagraph"><tspan class="TextPosition" x="4907" y="13553"><tspan font-family="Liberation Sans, sans-serif" font-size="353px" font-weight="400" fill="rgb(0,0,0)" stroke="none" style="white-space: pre">Copy</tspan></tspan></tspan></text>
 <text class="SVGTextShape"><tspan class="TextParagraph"><tspan class="TextPosition" x="10789" y="13553"><tspan font-family="Liberation Sans, sans-serif" font-size="353px" font-weight="400" fill="rgb(0,0,0)" stroke="none" style="white-space: pre">Scale</tspan></tspan></tspan></text>
 <text class="SVGTextShape"><tspan class="TextParagraph"><tspan class="TextPosition" x="16822" y="13553"><tspan font-family="Liberation Sans, sans-serif" font-size="353px" font-weight="400" fill="rgb(0,0,0)" stroke="none" style="white-space: pre">Add</tspan></tspan></tspan></text>
 <text class="SVGTextShape"><tspan class="TextParagraph"><tspan class="TextPosition" x="22646" y="13553"><tspan font-family="Liberation Sans, sans-serif" font-size="353px" font-weight="400" fill="rgb(0,0,0)" stroke="none" style="white-space: pre">Triad</tspan></tspan></tspan></text>
 <text class="SVGTextShape"><tspan class="TextParagraph"><tspan class="TextPosition" x="1912" y="13106"><tspan font-family="Liberation Sans, sans-serif" font-size="353px" font-weight="400" fill="rgb(0,0,0)" stroke="none" style="white-space: pre">0</tspan></tspan></tspan></text>
 <text class="SVGTextShape"><tspan class="TextParagraph"><tspan class="TextPosition" x="1529" y="11641"><tspan font-family="Liberation Sans, sans-serif" font-size="353px" font-weight="400" fill="rgb(0,0,0)" stroke="none" style="white-space: pre">100</tspan></tspan></tspan></text>
 <text class="SVGTextShape"><tspan class="TextParagraph"><tspan class="TextPosition" x="1529" y="10176"><tspan font-family="Liberation Sans, sans-serif" font-size="353px" font-weight="400" fill="rgb(0,0,0)" stroke="none" style="white-space: pre">200</tspan></tspan></tspan></text>
 <text class="SVGTextShape"><tspan class="TextParagraph"><tspan class="TextPosition" x="1529" y="8711"><tspan font-family="Liberation Sans, sans-serif" font-size="353px" font-weight="400" fill="rgb(0,0,0)" stroke="none" style="white-space: pre">300</tspan></tspan></tspan></text>
 <text class="SVGTextShape"><tspan class="TextParagraph"><tspan class="TextPosition" x="1529" y="7247"><tspan font-family="Liberation Sans, sans-serif" font-size="353px" font-weight="400" fill="rgb(0,0,0)" stroke="none" style="white-space: pre">400</tspan></tspan></tspan></text>
 <text class="SVGTextShape"><tspan class="TextParagraph"><tspan class="TextPosition" x="1529" y="5782"><tspan font-family="Liberation Sans, sans-serif" font-size="353px" font-weight="400" fill="rgb(0,0,0)" stroke="none" style="white-space: pre">500</tspan></tspan></tspan></text>
 <text class="SVGTextShape"><tspan class="TextParagraph"><tspan class="TextPosition" x="1529" y="4317"><tspan font-family="Liberation Sans, sans-serif" font-size="353px" font-weight="400" fill="rgb(0,0,0)" stroke="none" style="white-space: pre">600</tspan></tspan></tspan></text>
 <text class="SVGTextShape"><tspan class="TextParagraph"><tspan class="TextPosition" x="1529" y="2852"><tspan font-family="Liberation Sans, sans-serif" font-size="353px" font-weight="400" fill="rgb(0,0,0)" stroke="none" style="white-space: pre">700</tspan></tspan></tspan></text>
 <text class="SVGTextShape"><tspan class="TextParagraph"><tspan class="TextPosition" x="1529" y="1387"><tspan font-family="Liberation Sans, sans-serif" font-size="353px" font-weight="400" fill="rgb(0,0,0)" stroke="none" style="white-space: pre">800</tspan></tspan></tspan></text>
 <path fill="rgb(0,69,134)" stroke="none" d="M 9241,576 L 9136,576 9136,365 9347,365 9347,576 9241,576 Z "/>
 <path fill="rgb(255,66,14)" stroke="none" d="M 10589,576 L 10484,576 10484,365 10695,365 10695,576 10589,576 Z "/>
 <path fill="rgb(255,211,32)" stroke="none" d="M 11937,576 L 11832,576 11832,365 12043,365 12043,576 11937,576 Z "/>
 <path fill="rgb(87,157,28)" stroke="none" d="M 13285,576 L 13180,576 13180,365 13390,365 13390,576 13285,576 Z "/>
 <path fill="rgb(126,0,33)" stroke="none" d="M 14633,576 L 14527,576 14527,365 14738,365 14738,576 14633,576 Z "/>
 <path fill="rgb(131,202,255)" stroke="none" d="M 16172,576 L 16066,576 16066,365 16277,365 16277,576 16172,576 Z "/>
 <text class="SVGTextShape"><tspan class="TextParagraph"><tspan class="TextPosition" x="9447" y="590"><tspan font-family="Liberation Sans, sans-serif" font-size="353px" font-weight="400" fill="rgb(0,0,0)" stroke="none" style="white-space: pre">1 VM</tspan></tspan></tspan></text>
 <text class="SVGTextShape"><tspan class="TextParagraph"><tspan class="TextPosition" x="10795" y="590"><tspan font-family="Liberation Sans, sans-serif" font-size="353px" font-weight="400" fill="rgb(0,0,0)" stroke="none" style="white-space: pre">2 VM</tspan></tspan></tspan></text>
 <text class="SVGTextShape"><tspan class="TextParagraph"><tspan class="TextPosition" x="12143" y="590"><tspan font-family="Liberation Sans, sans-serif" font-size="353px" font-weight="400" fill="rgb(0,0,0)" stroke="none" style="white-space: pre">4 VM</tspan></tspan></tspan></text>
 <text class="SVGTextShape"><tspan class="TextParagraph"><tspan class="TextPosition" x="13490" y="590"><tspan font-family="Liberation Sans, sans-serif" font-size="353px" font-weight="400" fill="rgb(0,0,0)" stroke="none" style="white-space: pre">8 VM</tspan></tspan></tspan></text>
 <text class="SVGTextShape"><tspan class="TextParagraph"><tspan class="TextPosition" x="14838" y="590"><tspan font-family="Liberation Sans, sans-serif" font-size="353px" font-weight="400" fill="rgb(0,0,0)" stroke="none" style="white-space: pre">16 VM</tspan></tspan></tspan></text>
 <text class="SVGTextShape"><tspan class="TextParagraph"><tspan class="TextPosition" x="16377" y="590"><tspan font-family="Liberation Sans, sans-serif" font-size="353px" font-weight="400" fill="rgb(0,0,0)" stroke="none" style="white-space: pre">32 VM</tspan></tspan></tspan></text>
 <text class="SVGTextShape"><tspan class="TextParagraph"><tspan class="TextPosition" x="12359" y="14318"><tspan font-family="Liberation Sans, sans-serif" font-size="318px" font-weight="400" fill="rgb(0,0,0)" stroke="none" style="white-space: pre">STREAM Operation</tspan></tspan></tspan></text>
 <text class="SVGTextShape" transform="rotate(-90 825 9644)"><tspan class="TextParagraph"><tspan class="TextPosition" x="825" y="9644"><tspan font-family="Liberation Sans, sans-serif" font-size="318px" font-weight="400" fill="rgb(0,0,0)" stroke="none" style="white-space: pre">GBytes/sec (Average of all VMs)</tspan></tspan></tspan></text>
</svg>