<?xml version="1.0" encoding="UTF-8"?>
<!DOCTYPE svg PUBLIC "-//W3C//DTD SVG 1.1//EN" "http://www.w3.org/Graphics/SVG/1.1/DTD/svg11.dtd">
<svg width="294mm" height="165mm" viewBox="0 0 29400 16500" version="1.1" xmlns="http://www.w3.org/2000/svg" xmlns:xlink="http://www.w3.org/1999/xlink" stroke-width="28.222" stroke-linejoin="round" xml:space="preserve">
 <path fill="rgb(255,255,255)" stroke="none" d="M 14691,16528 L -13,16528 -13,-13 29394,-13 29394,16528 14691,16528 Z "/>
 <path fill="none" stroke="rgb(179,179,179)" stroke-linejoin="round" d="M 15704,15551 L 2602,15551 2602,1299 28806,1299 28806,15551 15704,15551 Z "/>
 <path fill="none" stroke="rgb(179,179,179)" stroke-linejoin="round" d="M 28806,15550 L 2602,15550 "/>
 <path fill="none" stroke="rgb(179,179,179)" stroke-linejoin="round" d="M 28806,14124 L 2602,14124 "/>
 <path fill="none" stroke="rgb(179,179,179)" stroke-linejoin="round" d="M 28806,12699 L 2602,12699 "/>
 <path fill="none" stroke="rgb(179,179,179)" stroke-linejoin="round" d="M 28806,11274 L 2602,11274 "/>
 <path fill="none" stroke="rgb(179,179,179)" stroke-linejoin="round" d="M 28806,9848 L 2602,9848 "/>
 <path fill="none" stroke="rgb(179,179,179)" stroke-linejoin="round" d="M 28806,8423 L 2602,8423 "/>
 <path fill="none" stroke="rgb(179,179,179)" stroke-linejoin="round" d="M 28806,6999 L 2602,6999 "/>
 <path fill="none" stroke="rgb(179,179,179)" stroke-linejoin="round" d="M 28806,5573 L 2602,5573 "/>
 <path fill="none" stroke="rgb(179,179,179)" stroke-linejoin="round" d="M 28806,4148 L 2602,4148 "/>
 <path fill="none" stroke="rgb(179,179,179)" stroke-linejoin="round" d="M 28806,2723 L 2602,2723 "/>
 <path fill="none" stroke="rgb(179,179,179)" stroke-linejoin="round" d="M 28806,1298 L 2602,1298 "/>
 <path fill="none" stroke="rgb(179,179,179)" stroke-linejoin="round" d="M 2602,15700 L 2602,15550 "/>
 <path fill="none" stroke="rgb(179,179,179)" stroke-linejoin="round" d="M 2602,15700 L 2602,15550 "/>
 <path fill="none" stroke="rgb(179,179,179)" stroke-linejoin="round" d="M 6345,15700 L 6345,15550 "/>
 <path fill="none" stroke="rgb(179,179,179)" stroke-linejoin="round" d="M 6345,15700 L 6345,15550 "/>
 <path fill="none" stroke="rgb(179,179,179)" stroke-linejoin="round" d="M 10089,15700 L 10089,15550 "/>
 <path fill="none" stroke="rgb(179,179,179)" stroke-linejoin="round" d="M 10089,15700 L 10089,15550 "/>
 <path fill="none" stroke="rgb(179,179,179)" stroke-linejoin="round" d="M 13832,15700 L 13832,15550 "/>
 <path fill="none" stroke="rgb(179,179,179)" stroke-linejoin="round" d="M 13832,15700 L 13832,15550 "/>
 <path fill="none" stroke="rgb(179,179,179)" stroke-linejoin="round" d="M 17575,15700 L 17575,15550 "/>
 <path fill="none" stroke="rgb(179,179,179)" stroke-linejoin="round" d="M 17575,15700 L 17575,15550 "/>
 <path fill="none" stroke="rgb(179,179,179)" stroke-linejoin="round" d="M 21318,15700 L 21318,15550 "/>
 <path fill="none" stroke="rgb(179,179,179)" stroke-linejoin="round" d="M 21318,15700 L 21318,15550 "/>
 <path fill="none" stroke="rgb(179,179,179)" stroke-linejoin="round" d="M 25062,15700 L 25062,15550 "/>
 <path fill="none" stroke="rgb(179,179,179)" stroke-linejoin="round" d="M 25062,15700 L 25062,15550 "/>
 <path fill="none" stroke="rgb(179,179,179)" stroke-linejoin="round" d="M 28806,15700 L 28806,15550 "/>
 <path fill="none" stroke="rgb(179,179,179)" stroke-linejoin="round" d="M 28806,15700 L 28806,15550 "/>
 <path fill="none" stroke="rgb(179,179,179)" stroke-linejoin="round" d="M 2602,15550 L 28806,15550 "/>
 <path fill="none" stroke="rgb(179,179,179)" stroke-linejoin="round" d="M 2452,15550 L 2602,15550 "/>
 <path fill="none" stroke="rgb(179,179,179)" stroke-linejoin="round" d="M 2452,15550 L 2602,15550 "/>
 <path fill="none" stroke="rgb(179,179,179)" stroke-linejoin="round" d="M 2452,14124 L 2602,14124 "/>
 <path fill="none" stroke="rgb(179,179,179)" stroke-linejoin="round" d="M 2452,14124 L 2602,14124 "/>
 <path fill="none" stroke="rgb(179,179,179)" stroke-linejoin="round" d="M 2452,12699 L 2602,12699 "/>
 <path fill="none" stroke="rgb(179,179,179)" stroke-linejoin="round" d="M 2452,12699 L 2602,12699 "/>
 <path fill="none" stroke="rgb(179,179,179)" stroke-linejoin="round" d="M 2452,11274 L 2602,11274 "/>
 <path fill="none" stroke="rgb(179,179,179)" stroke-linejoin="round" d="M 2452,11274 L 2602,11274 "/>
 <path fill="none" stroke="rgb(179,179,179)" stroke-linejoin="round" d="M 2452,9848 L 2602,9848 "/>
 <path fill="none" stroke="rgb(179,179,179)" stroke-linejoin="round" d="M 2452,9848 L 2602,9848 "/>
 <path fill="none" stroke="rgb(179,179,179)" stroke-linejoin="round" d="M 2452,8423 L 2602,8423 "/>
 <path fill="none" stroke="rgb(179,179,179)" stroke-linejoin="round" d="M 2452,8423 L 2602,8423 "/>
 <path fill="none" stroke="rgb(179,179,179)" stroke-linejoin="round" d="M 2452,6999 L 2602,6999 "/>
 <path fill="none" stroke="rgb(179,179,179)" stroke-linejoin="round" d="M 2452,6999 L 2602,6999 "/>
 <path fill="none" stroke="rgb(179,179,179)" stroke-linejoin="round" d="M 2452,5573 L 2602,5573 "/>
 <path fill="none" stroke="rgb(179,179,179)" stroke-linejoin="round" d="M 2452,5573 L 2602,5573 "/>
 <path fill="none" stroke="rgb(179,179,179)" stroke-linejoin="round" d="M 2452,4148 L 2602,4148 "/>
 <path fill="none" stroke="rgb(179,179,179)" stroke-linejoin="round" d="M 2452,4148 L 2602,4148 "/>
 <path fill="none" stroke="rgb(179,179,179)" stroke-linejoin="round" d="M 2452,2723 L 2602,2723 "/>
 <path fill="none" stroke="rgb(179,179,179)" stroke-linejoin="round" d="M 2452,2723 L 2602,2723 "/>
 <path fill="none" stroke="rgb(179,179,179)" stroke-linejoin="round" d="M 2452,1298 L 2602,1298 "/>
 <path fill="none" stroke="rgb(179,179,179)" stroke-linejoin="round" d="M 2452,1298 L 2602,1298 "/>
 <path fill="none" stroke="rgb(179,179,179)" stroke-linejoin="round" d="M 2602,15550 L 2602,1298 "/>
 <path fill="rgb(0,69,134)" stroke="none" d="M 3069,15550 L 4005,15550 4005,9841 3069,9841 3069,15550 Z "/>
 <path fill="rgb(0,69,134)" stroke="none" d="M 6813,15550 L 7749,15550 7749,13376 6813,13376 6813,15550 Z "/>
 <path fill="rgb(0,69,134)" stroke="none" d="M 10557,15550 L 11492,15550 11492,15395 10557,15395 10557,15550 Z "/>
 <path fill="rgb(0,69,134)" stroke="none" d="M 14300,15550 L 15235,15550 15235,15460 14300,15460 14300,15550 Z "/>
 <path fill="rgb(0,69,134)" stroke="none" d="M 18043,15550 L 18979,15550 18979,12247 18043,12247 18043,15550 Z "/>
 <path fill="rgb(0,69,134)" stroke="none" d="M 21786,15550 L 22722,15550 22722,14907 21786,14907 21786,15550 Z "/>
 <path fill="rgb(0,69,134)" stroke="none" d="M 25530,15550 L 26466,15550 26466,3059 25530,3059 25530,15550 Z "/>
 <path fill="rgb(255,66,14)" stroke="none" d="M 4005,15550 L 4941,15550 4941,9844 4005,9844 4005,15550 Z "/>
 <path fill="rgb(255,66,14)" stroke="none" d="M 7749,15550 L 8685,15550 8685,13382 7749,13382 7749,15550 Z "/>
 <path fill="rgb(255,66,14)" stroke="none" d="M 11492,15550 L 12428,15550 12428,15392 11492,15392 11492,15550 Z "/>
 <path fill="rgb(255,66,14)" stroke="none" d="M 15235,15550 L 16171,15550 16171,15463 15235,15463 15235,15550 Z "/>
 <path fill="rgb(255,66,14)" stroke="none" d="M 18979,15550 L 19915,15550 19915,12249 18979,12249 18979,15550 Z "/>
 <path fill="rgb(255,66,14)" stroke="none" d="M 22722,15550 L 23658,15550 23658,14909 22722,14909 22722,15550 Z "/>
 <path fill="rgb(255,66,14)" stroke="none" d="M 26466,15550 L 27402,15550 27402,3051 26466,3051 26466,15550 Z "/>
 <path fill="rgb(255,211,32)" stroke="none" d="M 4941,15550 L 5877,15550 5877,9838 4941,9838 4941,15550 Z "/>
 <path fill="rgb(255,211,32)" stroke="none" d="M 8685,15550 L 9621,15550 9621,13377 8685,13377 8685,15550 Z "/>
 <path fill="rgb(255,211,32)" stroke="none" d="M 12428,15550 L 13364,15550 13364,15393 12428,15393 12428,15550 Z "/>
 <path fill="rgb(255,211,32)" stroke="none" d="M 16171,15550 L 17107,15550 17107,15463 16171,15463 16171,15550 Z "/>
 <path fill="rgb(255,211,32)" stroke="none" d="M 19915,15550 L 20850,15550 20850,12245 19915,12245 19915,15550 Z "/>
 <path fill="rgb(255,211,32)" stroke="none" d="M 23658,15550 L 24594,15550 24594,14908 23658,14908 23658,15550 Z "/>
 <path fill="rgb(255,211,32)" stroke="none" d="M 27402,15550 L 28338,15550 28338,3043 27402,3043 27402,15550 Z "/>
 <text class="SVGTextShape"><tspan class="TextParagraph"><tspan class="TextPosition" x="4158" y="16118"><tspan font-family="Liberation Sans, sans-serif" font-size="353px" font-weight="400" fill="rgb(0,0,0)" stroke="none" style="white-space: pre">bt.D</tspan></tspan></tspan></text>
 <text class="SVGTextShape"><tspan class="TextParagraph"><tspan class="TextPosition" x="7864" y="16118"><tspan font-family="Liberation Sans, sans-serif" font-size="353px" font-weight="400" fill="rgb(0,0,0)" stroke="none" style="white-space: pre">cg.D</tspan></tspan></tspan></text>
 <text class="SVGTextShape"><tspan class="TextParagraph"><tspan class="TextPosition" x="11597" y="16118"><tspan font-family="Liberation Sans, sans-serif" font-size="353px" font-weight="400" fill="rgb(0,0,0)" stroke="none" style="white-space: pre">ep.D</tspan></tspan></tspan></text>
 <text class="SVGTextShape"><tspan class="TextParagraph"><tspan class="TextPosition" x="15408" y="16118"><tspan font-family="Liberation Sans, sans-serif" font-size="353px" font-weight="400" fill="rgb(0,0,0)" stroke="none" style="white-space: pre">is.D</tspan></tspan></tspan></text>
 <text class="SVGTextShape"><tspan class="TextParagraph"><tspan class="TextPosition" x="19142" y="16118"><tspan font-family="Liberation Sans, sans-serif" font-size="353px" font-weight="400" fill="rgb(0,0,0)" stroke="none" style="white-space: pre">lu.D</tspan></tspan></tspan></text>
 <text class="SVGTextShape"><tspan class="TextParagraph"><tspan class="TextPosition" x="22780" y="16118"><tspan font-family="Liberation Sans, sans-serif" font-size="353px" font-weight="400" fill="rgb(0,0,0)" stroke="none" style="white-space: pre">mg.D</tspan></tspan></tspan></text>
 <text class="SVGTextShape"><tspan class="TextParagraph"><tspan class="TextPosition" x="26581" y="16118"><tspan font-family="Liberation Sans, sans-serif" font-size="353px" font-weight="400" fill="rgb(0,0,0)" stroke="none" style="white-space: pre">sp.D</tspan></tspan></tspan></text>
 <text class="SVGTextShape"><tspan class="TextParagraph"><tspan class="TextPosition" x="2161" y="15671"><tspan font-family="Liberation Sans, sans-serif" font-size="353px" font-weight="400" fill="rgb(0,0,0)" stroke="none" style="white-space: pre">0</tspan></tspan></tspan></text>
 <text class="SVGTextShape"><tspan class="TextParagraph"><tspan class="TextPosition" x="1778" y="14245"><tspan font-family="Liberation Sans, sans-serif" font-size="353px" font-weight="400" fill="rgb(0,0,0)" stroke="none" style="white-space: pre">100</tspan></tspan></tspan></text>
 <text class="SVGTextShape"><tspan class="TextParagraph"><tspan class="TextPosition" x="1778" y="12820"><tspan font-family="Liberation Sans, sans-serif" font-size="353px" font-weight="400" fill="rgb(0,0,0)" stroke="none" style="white-space: pre">200</tspan></tspan></tspan></text>
 <text class="SVGTextShape"><tspan class="TextParagraph"><tspan class="TextPosition" x="1778" y="11395"><tspan font-family="Liberation Sans, sans-serif" font-size="353px" font-weight="400" fill="rgb(0,0,0)" stroke="none" style="white-space: pre">300</tspan></tspan></tspan></text>
 <text class="SVGTextShape"><tspan class="TextParagraph"><tspan class="TextPosition" x="1778" y="9969"><tspan font-family="Liberation Sans, sans-serif" font-size="353px" font-weight="400" fill="rgb(0,0,0)" stroke="none" style="white-space: pre">400</tspan></tspan></tspan></text>
 <text class="SVGTextShape"><tspan class="TextParagraph"><tspan class="TextPosition" x="1778" y="8544"><tspan font-family="Liberation Sans, sans-serif" font-size="353px" font-weight="400" fill="rgb(0,0,0)" stroke="none" style="white-space: pre">500</tspan></tspan></tspan></text>
 <text class="SVGTextShape"><tspan class="TextParagraph"><tspan class="TextPosition" x="1778" y="7120"><tspan font-family="Liberation Sans, sans-serif" font-size="353px" font-weight="400" fill="rgb(0,0,0)" stroke="none" style="white-space: pre">600</tspan></tspan></tspan></text>
 <text class="SVGTextShape"><tspan class="TextParagraph"><tspan class="TextPosition" x="1778" y="5694"><tspan font-family="Liberation Sans, sans-serif" font-size="353px" font-weight="400" fill="rgb(0,0,0)" stroke="none" style="white-space: pre">700</tspan></tspan></tspan></text>
 <text class="SVGTextShape"><tspan class="TextParagraph"><tspan class="TextPosition" x="1778" y="4269"><tspan font-family="Liberation Sans, sans-serif" font-size="353px" font-weight="400" fill="rgb(0,0,0)" stroke="none" style="white-space: pre">800</tspan></tspan></tspan></text>
 <text class="SVGTextShape"><tspan class="TextParagraph"><tspan class="TextPosition" x="1778" y="2844"><tspan font-family="Liberation Sans, sans-serif" font-size="353px" font-weight="400" fill="rgb(0,0,0)" stroke="none" style="white-space: pre">900</tspan></tspan></tspan></text>
 <text class="SVGTextShape"><tspan class="TextParagraph"><tspan class="TextPosition" x="1587" y="1419"><tspan font-family="Liberation Sans, sans-serif" font-size="353px" font-weight="400" fill="rgb(0,0,0)" stroke="none" style="white-space: pre">1000</tspan></tspan></tspan></text>
 <path fill="rgb(0,69,134)" stroke="none" d="M 12173,576 L 12068,576 12068,365 12279,365 12279,576 12173,576 Z "/>
 <path fill="rgb(255,66,14)" stroke="none" d="M 14611,576 L 14506,576 14506,365 14716,365 14716,576 14611,576 Z "/>
 <path fill="rgb(255,211,32)" stroke="none" d="M 15844,576 L 15738,576 15738,365 15949,365 15949,576 15844,576 Z "/>
 <text class="SVGTextShape"><tspan class="TextParagraph"><tspan class="TextPosition" x="12379" y="590"><tspan font-family="Liberation Sans, sans-serif" font-size="353px" font-weight="400" fill="rgb(0,0,0)" stroke="none" style="white-space: pre">unencrypted</tspan></tspan></tspan></text>
 <text class="SVGTextShape"><tspan class="TextParagraph"><tspan class="TextPosition" x="14816" y="590"><tspan font-family="Liberation Sans, sans-serif" font-size="353px" font-weight="400" fill="rgb(0,0,0)" stroke="none" style="white-space: pre">SEV</tspan></tspan></tspan></text>
 <text class="SVGTextShape"><tspan class="TextParagraph"><tspan class="TextPosition" x="16049" y="590"><tspan font-family="Liberation Sans, sans-serif" font-size="353px" font-weight="400" fill="rgb(0,0,0)" stroke="none" style="white-space: pre">SEV-ES</tspan></tspan></tspan></text>
 <text class="SVGTextShape" transform="rotate(-90 825 9398)"><tspan class="TextParagraph"><tspan class="TextPosition" x="825" y="9398"><tspan font-family="Liberation Sans, sans-serif" font-size="318px" font-weight="400" fill="rgb(0,0,0)" stroke="none" style="white-space: pre">Time (sec)</tspan></tspan></tspan></text>
 <text class="SVGTextShape"><tspan class="TextParagraph"><tspan class="TextPosition" x="14571" y="8401"><tspan font-family="Liberation Serif, serif" font-size="423px" font-weight="400" fill="rgb(255,255,255)" stroke="none" style="white-space: pre">=</tspan></tspan></tspan></text>
</svg>