<?xml version="1.0" encoding="UTF-8"?>
<!DOCTYPE svg PUBLIC "-//W3C//DTD SVG 1.1//EN" "http://www.w3.org/Graphics/SVG/1.1/DTD/svg11.dtd">
<svg width="266mm" height="150mm" viewBox="0 0 26600 15000" version="1.1" xmlns="http://www.w3.org/2000/svg" xmlns:xlink="http://www.w3.org/1999/xlink" stroke-width="28.222" stroke-linejoin="round" xml:space="preserve">
 <path fill="rgb(255,255,255)" stroke="none" d="M 13284,14945 L -13,14945 -13,-13 26581,-13 26581,14945 13284,14945 Z "/>
 <path fill="rgb(255,255,255)" stroke="none" d="M 14106,13018 L 2163,13018 2163,1268 26050,1268 26050,13018 14106,13018 Z "/>
 <path fill="none" stroke="rgb(179,179,179)" stroke-linejoin="round" d="M 14106,13018 L 2163,13018 2163,1268 26050,1268 26050,13018 14106,13018 Z "/>
 <path fill="none" stroke="rgb(179,179,179)" stroke-linejoin="round" d="M 26049,13017 L 2163,13017 "/>
 <path fill="none" stroke="rgb(179,179,179)" stroke-linejoin="round" d="M 26049,11058 L 2163,11058 "/>
 <path fill="none" stroke="rgb(179,179,179)" stroke-linejoin="round" d="M 26049,9100 L 2163,9100 "/>
 <path fill="none" stroke="rgb(179,179,179)" stroke-linejoin="round" d="M 26049,7142 L 2163,7142 "/>
 <path fill="none" stroke="rgb(179,179,179)" stroke-linejoin="round" d="M 26049,5184 L 2163,5184 "/>
 <path fill="none" stroke="rgb(179,179,179)" stroke-linejoin="round" d="M 26049,3225 L 2163,3225 "/>
 <path fill="none" stroke="rgb(179,179,179)" stroke-linejoin="round" d="M 26049,1267 L 2163,1267 "/>
 <path fill="none" stroke="rgb(179,179,179)" stroke-linejoin="round" d="M 2163,13167 L 2163,13017 "/>
 <path fill="none" stroke="rgb(179,179,179)" stroke-linejoin="round" d="M 2163,13167 L 2163,13017 "/>
 <path fill="none" stroke="rgb(179,179,179)" stroke-linejoin="round" d="M 8134,13167 L 8134,13017 "/>
 <path fill="none" stroke="rgb(179,179,179)" stroke-linejoin="round" d="M 8134,13167 L 8134,13017 "/>
 <path fill="none" stroke="rgb(179,179,179)" stroke-linejoin="round" d="M 14105,13167 L 14105,13017 "/>
 <path fill="none" stroke="rgb(179,179,179)" stroke-linejoin="round" d="M 14105,13167 L 14105,13017 "/>
 <path fill="none" stroke="rgb(179,179,179)" stroke-linejoin="round" d="M 20077,13167 L 20077,13017 "/>
 <path fill="none" stroke="rgb(179,179,179)" stroke-linejoin="round" d="M 20077,13167 L 20077,13017 "/>
 <path fill="none" stroke="rgb(179,179,179)" stroke-linejoin="round" d="M 26049,13167 L 26049,13017 "/>
 <path fill="none" stroke="rgb(179,179,179)" stroke-linejoin="round" d="M 26049,13167 L 26049,13017 "/>
 <path fill="none" stroke="rgb(179,179,179)" stroke-linejoin="round" d="M 2163,13017 L 26049,13017 "/>
 <path fill="none" stroke="rgb(179,179,179)" stroke-linejoin="round" d="M 2013,13017 L 2163,13017 "/>
 <path fill="none" stroke="rgb(179,179,179)" stroke-linejoin="round" d="M 2013,13017 L 2163,13017 "/>
 <path fill="none" stroke="rgb(179,179,179)" stroke-linejoin="round" d="M 2013,11058 L 2163,11058 "/>
 <path fill="none" stroke="rgb(179,179,179)" stroke-linejoin="round" d="M 2013,11058 L 2163,11058 "/>
 <path fill="none" stroke="rgb(179,179,179)" stroke-linejoin="round" d="M 2013,9100 L 2163,9100 "/>
 <path fill="none" stroke="rgb(179,179,179)" stroke-linejoin="round" d="M 2013,9100 L 2163,9100 "/>
 <path fill="none" stroke="rgb(179,179,179)" stroke-linejoin="round" d="M 2013,7142 L 2163,7142 "/>
 <path fill="none" stroke="rgb(179,179,179)" stroke-linejoin="round" d="M 2013,7142 L 2163,7142 "/>
 <path fill="none" stroke="rgb(179,179,179)" stroke-linejoin="round" d="M 2013,5184 L 2163,5184 "/>
 <path fill="none" stroke="rgb(179,179,179)" stroke-linejoin="round" d="M 2013,5184 L 2163,5184 "/>
 <path fill="none" stroke="rgb(179,179,179)" stroke-linejoin="round" d="M 2013,3225 L 2163,3225 "/>
 <path fill="none" stroke="rgb(179,179,179)" stroke-linejoin="round" d="M 2013,3225 L 2163,3225 "/>
 <path fill="none" stroke="rgb(179,179,179)" stroke-linejoin="round" d="M 2013,1267 L 2163,1267 "/>
 <path fill="none" stroke="rgb(179,179,179)" stroke-linejoin="round" d="M 2013,1267 L 2163,1267 "/>
 <path fill="none" stroke="rgb(179,179,179)" stroke-linejoin="round" d="M 2163,13017 L 2163,1267 "/>
 <path fill="rgb(0,69,134)" stroke="none" d="M 2760,13017 L 3954,13017 3954,3568 2760,3568 2760,13017 Z "/>
 <path fill="rgb(0,69,134)" stroke="none" d="M 8732,13017 L 9926,13017 9926,5127 8732,5127 8732,13017 Z "/>
 <path fill="rgb(0,69,134)" stroke="none" d="M 14703,13017 L 15897,13017 15897,4900 14703,4900 14703,13017 Z "/>
 <path fill="rgb(0,69,134)" stroke="none" d="M 20675,13017 L 21869,13017 21869,4931 20675,4931 20675,13017 Z "/>
 <path fill="rgb(255,66,14)" stroke="none" d="M 3954,13017 L 5149,13017 5149,3542 3954,3542 3954,13017 Z "/>
 <path fill="rgb(255,66,14)" stroke="none" d="M 9926,13017 L 11121,13017 11121,5109 9926,5109 9926,13017 Z "/>
 <path fill="rgb(255,66,14)" stroke="none" d="M 15897,13017 L 17091,13017 17091,4894 15897,4894 15897,13017 Z "/>
 <path fill="rgb(255,66,14)" stroke="none" d="M 21869,13017 L 23063,13017 23063,4915 21869,4915 21869,13017 Z "/>
 <path fill="rgb(255,211,32)" stroke="none" d="M 5148,13017 L 6343,13017 6343,3554 5148,3554 5148,13017 Z "/>
 <path fill="rgb(255,211,32)" stroke="none" d="M 11121,13017 L 12315,13017 12315,5123 11121,5123 11121,13017 Z "/>
 <path fill="rgb(255,211,32)" stroke="none" d="M 17091,13017 L 18286,13017 18286,4900 17091,4900 17091,13017 Z "/>
 <path fill="rgb(255,211,32)" stroke="none" d="M 23063,13017 L 24258,13017 24258,4921 23063,4921 23063,13017 Z "/>
 <path fill="rgb(87,157,28)" stroke="none" d="M 6343,13017 L 7537,13017 7537,3593 6343,3593 6343,13017 Z "/>
 <path fill="rgb(87,157,28)" stroke="none" d="M 12315,13017 L 13508,13017 13508,5152 12315,5152 12315,13017 Z "/>
 <path fill="rgb(87,157,28)" stroke="none" d="M 18286,13017 L 19480,13017 19480,4929 18286,4929 18286,13017 Z "/>
 <path fill="rgb(87,157,28)" stroke="none" d="M 24258,13017 L 25452,13017 25452,4962 24258,4962 24258,13017 Z "/>
 <text class="SVGTextShape"><tspan class="TextParagraph"><tspan class="TextPosition" x="4748" y="13585"><tspan font-family="Liberation Sans, sans-serif" font-size="353px" font-weight="400" fill="rgb(0,0,0)" stroke="none" style="white-space: pre">Copy</tspan></tspan></tspan></text>
 <text class="SVGTextShape"><tspan class="TextParagraph"><tspan class="TextPosition" x="10691" y="13585"><tspan font-family="Liberation Sans, sans-serif" font-size="353px" font-weight="400" fill="rgb(0,0,0)" stroke="none" style="white-space: pre">Scale</tspan></tspan></tspan></text>
 <text class="SVGTextShape"><tspan class="TextParagraph"><tspan class="TextPosition" x="16787" y="13585"><tspan font-family="Liberation Sans, sans-serif" font-size="353px" font-weight="400" fill="rgb(0,0,0)" stroke="none" style="white-space: pre">Add</tspan></tspan></tspan></text>
 <text class="SVGTextShape"><tspan class="TextParagraph"><tspan class="TextPosition" x="22672" y="13585"><tspan font-family="Liberation Sans, sans-serif" font-size="353px" font-weight="400" fill="rgb(0,0,0)" stroke="none" style="white-space: pre">Triad</tspan></tspan></tspan></text>
 <text class="SVGTextShape"><tspan class="TextParagraph"><tspan class="TextPosition" x="1722" y="13138"><tspan font-family="Liberation Sans, sans-serif" font-size="353px" font-weight="400" fill="rgb(0,0,0)" stroke="none" style="white-space: pre">0</tspan></tspan></tspan></text>
 <text class="SVGTextShape"><tspan class="TextParagraph"><tspan class="TextPosition" x="1530" y="11179"><tspan font-family="Liberation Sans, sans-serif" font-size="353px" font-weight="400" fill="rgb(0,0,0)" stroke="none" style="white-space: pre">10</tspan></tspan></tspan></text>
 <text class="SVGTextShape"><tspan class="TextParagraph"><tspan class="TextPosition" x="1530" y="9221"><tspan font-family="Liberation Sans, sans-serif" font-size="353px" font-weight="400" fill="rgb(0,0,0)" stroke="none" style="white-space: pre">20</tspan></tspan></tspan></text>
 <text class="SVGTextShape"><tspan class="TextParagraph"><tspan class="TextPosition" x="1530" y="7263"><tspan font-family="Liberation Sans, sans-serif" font-size="353px" font-weight="400" fill="rgb(0,0,0)" stroke="none" style="white-space: pre">30</tspan></tspan></tspan></text>
 <text class="SVGTextShape"><tspan class="TextParagraph"><tspan class="TextPosition" x="1530" y="5305"><tspan font-family="Liberation Sans, sans-serif" font-size="353px" font-weight="400" fill="rgb(0,0,0)" stroke="none" style="white-space: pre">40</tspan></tspan></tspan></text>
 <text class="SVGTextShape"><tspan class="TextParagraph"><tspan class="TextPosition" x="1530" y="3346"><tspan font-family="Liberation Sans, sans-serif" font-size="353px" font-weight="400" fill="rgb(0,0,0)" stroke="none" style="white-space: pre">50</tspan></tspan></tspan></text>
 <text class="SVGTextShape"><tspan class="TextParagraph"><tspan class="TextPosition" x="1530" y="1388"><tspan font-family="Liberation Sans, sans-serif" font-size="353px" font-weight="400" fill="rgb(0,0,0)" stroke="none" style="white-space: pre">60</tspan></tspan></tspan></text>
 <path fill="rgb(0,69,134)" stroke="none" d="M 7137,576 L 7032,576 7032,365 7243,365 7243,576 7137,576 Z "/>
 <path fill="rgb(255,66,14)" stroke="none" d="M 9269,576 L 9164,576 9164,365 9375,365 9375,576 9269,576 Z "/>
 <path fill="rgb(255,211,32)" stroke="none" d="M 12596,576 L 12491,576 12491,365 12702,365 12702,576 12596,576 Z "/>
 <path fill="rgb(87,157,28)" stroke="none" d="M 15589,576 L 15483,576 15483,365 15694,365 15694,576 15589,576 Z "/>
 <text class="SVGTextShape"><tspan class="TextParagraph"><tspan class="TextPosition" x="7343" y="590"><tspan font-family="Liberation Sans, sans-serif" font-size="353px" font-weight="400" fill="rgb(0,0,0)" stroke="none" style="white-space: pre"> cpumodel</tspan></tspan></tspan></text>
 <text class="SVGTextShape"><tspan class="TextParagraph"><tspan class="TextPosition" x="9475" y="590"><tspan font-family="Liberation Sans, sans-serif" font-size="353px" font-weight="400" fill="rgb(0,0,0)" stroke="none" style="white-space: pre">cpumodel+haltpoll</tspan></tspan></tspan></text>
 <text class="SVGTextShape"><tspan class="TextParagraph"><tspan class="TextPosition" x="12802" y="590"><tspan font-family="Liberation Sans, sans-serif" font-size="353px" font-weight="400" fill="rgb(0,0,0)" stroke="none" style="white-space: pre">cpupassthrough</tspan></tspan></tspan></text>
 <text class="SVGTextShape"><tspan class="TextParagraph"><tspan class="TextPosition" x="15794" y="590"><tspan font-family="Liberation Sans, sans-serif" font-size="353px" font-weight="400" fill="rgb(0,0,0)" stroke="none" style="white-space: pre">cpupassthrough+haltpoll</tspan></tspan></tspan></text>
 <text class="SVGTextShape"><tspan class="TextParagraph"><tspan class="TextPosition" x="12388" y="14351"><tspan font-family="Liberation Sans, sans-serif" font-size="318px" font-weight="400" fill="rgb(0,0,0)" stroke="none" style="white-space: pre">STREAM Operation</tspan></tspan></tspan></text>
 <text class="SVGTextShape" transform="rotate(-90 825 8178)"><tspan class="TextParagraph"><tspan class="TextPosition" x="825" y="8178"><tspan font-family="Liberation Sans, sans-serif" font-size="318px" font-weight="400" fill="rgb(0,0,0)" stroke="none" style="white-space: pre">GBytes/sec</tspan></tspan></tspan></text>
</svg>