<?xml version="1.0" encoding="UTF-8"?>
<!DOCTYPE svg PUBLIC "-//W3C//DTD SVG 1.1//EN" "http://www.w3.org/Graphics/SVG/1.1/DTD/svg11.dtd">
<svg width="204mm" height="115mm" viewBox="0 0 20400 11500" version="1.1" xmlns="http://www.w3.org/2000/svg" xmlns:xlink="http://www.w3.org/1999/xlink" stroke-width="28.222" stroke-linejoin="round" xml:space="preserve">
 <path fill="rgb(255,255,255)" stroke="none" d="M 10188,11462 L -13,11462 -13,-13 20388,-13 20388,11462 10188,11462 Z "/>
 <path fill="none" stroke="rgb(179,179,179)" stroke-linejoin="round" d="M 11201,10586 L 2422,10586 2422,1198 19980,1198 19980,10586 11201,10586 Z "/>
 <path fill="none" stroke="rgb(179,179,179)" stroke-linejoin="round" d="M 19980,10585 L 2422,10585 "/>
 <path fill="none" stroke="rgb(179,179,179)" stroke-linejoin="round" d="M 19980,9646 L 2422,9646 "/>
 <path fill="none" stroke="rgb(179,179,179)" stroke-linejoin="round" d="M 19980,8707 L 2422,8707 "/>
 <path fill="none" stroke="rgb(179,179,179)" stroke-linejoin="round" d="M 19980,7768 L 2422,7768 "/>
 <path fill="none" stroke="rgb(179,179,179)" stroke-linejoin="round" d="M 19980,6829 L 2422,6829 "/>
 <path fill="none" stroke="rgb(179,179,179)" stroke-linejoin="round" d="M 19980,5890 L 2422,5890 "/>
 <path fill="none" stroke="rgb(179,179,179)" stroke-linejoin="round" d="M 19980,4952 L 2422,4952 "/>
 <path fill="none" stroke="rgb(179,179,179)" stroke-linejoin="round" d="M 19980,4013 L 2422,4013 "/>
 <path fill="none" stroke="rgb(179,179,179)" stroke-linejoin="round" d="M 19980,3074 L 2422,3074 "/>
 <path fill="none" stroke="rgb(179,179,179)" stroke-linejoin="round" d="M 19980,2135 L 2422,2135 "/>
 <path fill="none" stroke="rgb(179,179,179)" stroke-linejoin="round" d="M 19980,1197 L 2422,1197 "/>
 <path fill="none" stroke="rgb(179,179,179)" stroke-linejoin="round" d="M 2422,10735 L 2422,10585 "/>
 <path fill="none" stroke="rgb(179,179,179)" stroke-linejoin="round" d="M 2422,10735 L 2422,10585 "/>
 <path fill="none" stroke="rgb(179,179,179)" stroke-linejoin="round" d="M 4930,10735 L 4930,10585 "/>
 <path fill="none" stroke="rgb(179,179,179)" stroke-linejoin="round" d="M 4930,10735 L 4930,10585 "/>
 <path fill="none" stroke="rgb(179,179,179)" stroke-linejoin="round" d="M 7438,10735 L 7438,10585 "/>
 <path fill="none" stroke="rgb(179,179,179)" stroke-linejoin="round" d="M 7438,10735 L 7438,10585 "/>
 <path fill="none" stroke="rgb(179,179,179)" stroke-linejoin="round" d="M 9947,10735 L 9947,10585 "/>
 <path fill="none" stroke="rgb(179,179,179)" stroke-linejoin="round" d="M 9947,10735 L 9947,10585 "/>
 <path fill="none" stroke="rgb(179,179,179)" stroke-linejoin="round" d="M 12454,10735 L 12454,10585 "/>
 <path fill="none" stroke="rgb(179,179,179)" stroke-linejoin="round" d="M 12454,10735 L 12454,10585 "/>
 <path fill="none" stroke="rgb(179,179,179)" stroke-linejoin="round" d="M 14963,10735 L 14963,10585 "/>
 <path fill="none" stroke="rgb(179,179,179)" stroke-linejoin="round" d="M 14963,10735 L 14963,10585 "/>
 <path fill="none" stroke="rgb(179,179,179)" stroke-linejoin="round" d="M 17471,10735 L 17471,10585 "/>
 <path fill="none" stroke="rgb(179,179,179)" stroke-linejoin="round" d="M 17471,10735 L 17471,10585 "/>
 <path fill="none" stroke="rgb(179,179,179)" stroke-linejoin="round" d="M 19980,10735 L 19980,10585 "/>
 <path fill="none" stroke="rgb(179,179,179)" stroke-linejoin="round" d="M 19980,10735 L 19980,10585 "/>
 <path fill="none" stroke="rgb(179,179,179)" stroke-linejoin="round" d="M 2422,10585 L 19980,10585 "/>
 <path fill="none" stroke="rgb(179,179,179)" stroke-linejoin="round" d="M 2272,10585 L 2422,10585 "/>
 <path fill="none" stroke="rgb(179,179,179)" stroke-linejoin="round" d="M 2272,10585 L 2422,10585 "/>
 <path fill="none" stroke="rgb(179,179,179)" stroke-linejoin="round" d="M 2272,9646 L 2422,9646 "/>
 <path fill="none" stroke="rgb(179,179,179)" stroke-linejoin="round" d="M 2272,9646 L 2422,9646 "/>
 <path fill="none" stroke="rgb(179,179,179)" stroke-linejoin="round" d="M 2272,8707 L 2422,8707 "/>
 <path fill="none" stroke="rgb(179,179,179)" stroke-linejoin="round" d="M 2272,8707 L 2422,8707 "/>
 <path fill="none" stroke="rgb(179,179,179)" stroke-linejoin="round" d="M 2272,7768 L 2422,7768 "/>
 <path fill="none" stroke="rgb(179,179,179)" stroke-linejoin="round" d="M 2272,7768 L 2422,7768 "/>
 <path fill="none" stroke="rgb(179,179,179)" stroke-linejoin="round" d="M 2272,6829 L 2422,6829 "/>
 <path fill="none" stroke="rgb(179,179,179)" stroke-linejoin="round" d="M 2272,6829 L 2422,6829 "/>
 <path fill="none" stroke="rgb(179,179,179)" stroke-linejoin="round" d="M 2272,5890 L 2422,5890 "/>
 <path fill="none" stroke="rgb(179,179,179)" stroke-linejoin="round" d="M 2272,5890 L 2422,5890 "/>
 <path fill="none" stroke="rgb(179,179,179)" stroke-linejoin="round" d="M 2272,4952 L 2422,4952 "/>
 <path fill="none" stroke="rgb(179,179,179)" stroke-linejoin="round" d="M 2272,4952 L 2422,4952 "/>
 <path fill="none" stroke="rgb(179,179,179)" stroke-linejoin="round" d="M 2272,4013 L 2422,4013 "/>
 <path fill="none" stroke="rgb(179,179,179)" stroke-linejoin="round" d="M 2272,4013 L 2422,4013 "/>
 <path fill="none" stroke="rgb(179,179,179)" stroke-linejoin="round" d="M 2272,3074 L 2422,3074 "/>
 <path fill="none" stroke="rgb(179,179,179)" stroke-linejoin="round" d="M 2272,3074 L 2422,3074 "/>
 <path fill="none" stroke="rgb(179,179,179)" stroke-linejoin="round" d="M 2272,2135 L 2422,2135 "/>
 <path fill="none" stroke="rgb(179,179,179)" stroke-linejoin="round" d="M 2272,2135 L 2422,2135 "/>
 <path fill="none" stroke="rgb(179,179,179)" stroke-linejoin="round" d="M 2272,1197 L 2422,1197 "/>
 <path fill="none" stroke="rgb(179,179,179)" stroke-linejoin="round" d="M 2272,1197 L 2422,1197 "/>
 <path fill="none" stroke="rgb(179,179,179)" stroke-linejoin="round" d="M 2422,10585 L 2422,1197 "/>
 <path fill="rgb(0,69,134)" stroke="none" d="M 2735,10585 L 3362,10585 3362,6824 2735,6824 2735,10585 Z "/>
 <path fill="rgb(0,69,134)" stroke="none" d="M 5243,10585 L 5871,10585 5871,9153 5243,9153 5243,10585 Z "/>
 <path fill="rgb(0,69,134)" stroke="none" d="M 7752,10585 L 8379,10585 8379,10483 7752,10483 7752,10585 Z "/>
 <path fill="rgb(0,69,134)" stroke="none" d="M 10259,10585 L 10886,10585 10886,10526 10259,10526 10259,10585 Z "/>
 <path fill="rgb(0,69,134)" stroke="none" d="M 12768,10585 L 13395,10585 13395,8409 12768,8409 12768,10585 Z "/>
 <path fill="rgb(0,69,134)" stroke="none" d="M 15276,10585 L 15903,10585 15903,10161 15276,10161 15276,10585 Z "/>
 <path fill="rgb(0,69,134)" stroke="none" d="M 17785,10585 L 18412,10585 18412,2357 17785,2357 17785,10585 Z "/>
 <path fill="rgb(255,66,14)" stroke="none" d="M 3362,10585 L 3989,10585 3989,6826 3362,6826 3362,10585 Z "/>
 <path fill="rgb(255,66,14)" stroke="none" d="M 5871,10585 L 6498,10585 6498,9157 5871,9157 5871,10585 Z "/>
 <path fill="rgb(255,66,14)" stroke="none" d="M 8379,10585 L 9006,10585 9006,10480 8379,10480 8379,10585 Z "/>
 <path fill="rgb(255,66,14)" stroke="none" d="M 10886,10585 L 11514,10585 11514,10528 10886,10528 10886,10585 Z "/>
 <path fill="rgb(255,66,14)" stroke="none" d="M 13395,10585 L 14022,10585 14022,8411 13395,8411 13395,10585 Z "/>
 <path fill="rgb(255,66,14)" stroke="none" d="M 15903,10585 L 16530,10585 16530,10163 15903,10163 15903,10585 Z "/>
 <path fill="rgb(255,66,14)" stroke="none" d="M 18412,10585 L 19039,10585 19039,2351 18412,2351 18412,10585 Z "/>
 <path fill="rgb(255,211,32)" stroke="none" d="M 3989,10585 L 4616,10585 4616,6822 3989,6822 3989,10585 Z "/>
 <path fill="rgb(255,211,32)" stroke="none" d="M 6498,10585 L 7125,10585 7125,9153 6498,9153 6498,10585 Z "/>
 <path fill="rgb(255,211,32)" stroke="none" d="M 9006,10585 L 9633,10585 9633,10482 9006,10482 9006,10585 Z "/>
 <path fill="rgb(255,211,32)" stroke="none" d="M 11514,10585 L 12141,10585 12141,10527 11514,10527 11514,10585 Z "/>
 <path fill="rgb(255,211,32)" stroke="none" d="M 14022,10585 L 14649,10585 14649,8408 14022,8408 14022,10585 Z "/>
 <path fill="rgb(255,211,32)" stroke="none" d="M 16530,10585 L 17158,10585 17158,10162 16530,10162 16530,10585 Z "/>
 <path fill="rgb(255,211,32)" stroke="none" d="M 19039,10585 L 19666,10585 19666,2347 19039,2347 19039,10585 Z "/>
 <path fill="none" stroke="rgb(0,0,0)" stroke-linejoin="round" d="M 3049,6828 L 3049,6824 3049,6819 "/>
 <path fill="none" stroke="rgb(0,0,0)" stroke-linejoin="round" d="M 3149,6828 L 2949,6828 "/>
 <path fill="none" stroke="rgb(0,0,0)" stroke-linejoin="round" d="M 2949,6819 L 3149,6819 "/>
 <path fill="none" stroke="rgb(0,0,0)" stroke-linejoin="round" d="M 5557,9167 L 5557,9153 5557,9139 "/>
 <path fill="none" stroke="rgb(0,0,0)" stroke-linejoin="round" d="M 5657,9167 L 5457,9167 "/>
 <path fill="none" stroke="rgb(0,0,0)" stroke-linejoin="round" d="M 5457,9139 L 5657,9139 "/>
 <path fill="none" stroke="rgb(0,0,0)" stroke-linejoin="round" d="M 8065,10486 L 8065,10483 8065,10480 "/>
 <path fill="none" stroke="rgb(0,0,0)" stroke-linejoin="round" d="M 8165,10486 L 7965,10486 "/>
 <path fill="none" stroke="rgb(0,0,0)" stroke-linejoin="round" d="M 7965,10480 L 8165,10480 "/>
 <path fill="none" stroke="rgb(0,0,0)" stroke-linejoin="round" d="M 10573,10527 L 10573,10526 10573,10525 "/>
 <path fill="none" stroke="rgb(0,0,0)" stroke-linejoin="round" d="M 10673,10527 L 10473,10527 "/>
 <path fill="none" stroke="rgb(0,0,0)" stroke-linejoin="round" d="M 10473,10525 L 10673,10525 "/>
 <path fill="none" stroke="rgb(0,0,0)" stroke-linejoin="round" d="M 13081,8410 L 13081,8409 13081,8409 "/>
 <path fill="none" stroke="rgb(0,0,0)" stroke-linejoin="round" d="M 13181,8410 L 12981,8410 "/>
 <path fill="none" stroke="rgb(0,0,0)" stroke-linejoin="round" d="M 12981,8409 L 13181,8409 "/>
 <path fill="none" stroke="rgb(0,0,0)" stroke-linejoin="round" d="M 15590,10162 L 15590,10161 15590,10160 "/>
 <path fill="none" stroke="rgb(0,0,0)" stroke-linejoin="round" d="M 15690,10162 L 15490,10162 "/>
 <path fill="none" stroke="rgb(0,0,0)" stroke-linejoin="round" d="M 15490,10160 L 15690,10160 "/>
 <path fill="none" stroke="rgb(0,0,0)" stroke-linejoin="round" d="M 18098,2364 L 18098,2357 18098,2350 "/>
 <path fill="none" stroke="rgb(0,0,0)" stroke-linejoin="round" d="M 18198,2364 L 17998,2364 "/>
 <path fill="none" stroke="rgb(0,0,0)" stroke-linejoin="round" d="M 17998,2350 L 18198,2350 "/>
 <path fill="none" stroke="rgb(0,0,0)" stroke-linejoin="round" d="M 3676,6830 L 3676,6826 3676,6822 "/>
 <path fill="none" stroke="rgb(0,0,0)" stroke-linejoin="round" d="M 3776,6830 L 3576,6830 "/>
 <path fill="none" stroke="rgb(0,0,0)" stroke-linejoin="round" d="M 3576,6822 L 3776,6822 "/>
 <path fill="none" stroke="rgb(0,0,0)" stroke-linejoin="round" d="M 6184,9176 L 6184,9157 6184,9137 "/>
 <path fill="none" stroke="rgb(0,0,0)" stroke-linejoin="round" d="M 6284,9176 L 6084,9176 "/>
 <path fill="none" stroke="rgb(0,0,0)" stroke-linejoin="round" d="M 6084,9137 L 6284,9137 "/>
 <path fill="none" stroke="rgb(0,0,0)" stroke-linejoin="round" d="M 8693,10485 L 8693,10480 8693,10476 "/>
 <path fill="none" stroke="rgb(0,0,0)" stroke-linejoin="round" d="M 8793,10485 L 8593,10485 "/>
 <path fill="none" stroke="rgb(0,0,0)" stroke-linejoin="round" d="M 8593,10476 L 8793,10476 "/>
 <path fill="none" stroke="rgb(0,0,0)" stroke-linejoin="round" d="M 11200,10529 L 11200,10528 11200,10526 "/>
 <path fill="none" stroke="rgb(0,0,0)" stroke-linejoin="round" d="M 11300,10529 L 11100,10529 "/>
 <path fill="none" stroke="rgb(0,0,0)" stroke-linejoin="round" d="M 11100,10526 L 11300,10526 "/>
 <path fill="none" stroke="rgb(0,0,0)" stroke-linejoin="round" d="M 13708,8412 L 13708,8411 13708,8409 "/>
 <path fill="none" stroke="rgb(0,0,0)" stroke-linejoin="round" d="M 13808,8412 L 13608,8412 "/>
 <path fill="none" stroke="rgb(0,0,0)" stroke-linejoin="round" d="M 13608,8409 L 13808,8409 "/>
 <path fill="none" stroke="rgb(0,0,0)" stroke-linejoin="round" d="M 16217,10163 L 16217,10163 16217,10162 "/>
 <path fill="none" stroke="rgb(0,0,0)" stroke-linejoin="round" d="M 16317,10163 L 16117,10163 "/>
 <path fill="none" stroke="rgb(0,0,0)" stroke-linejoin="round" d="M 16117,10162 L 16317,10162 "/>
 <path fill="none" stroke="rgb(0,0,0)" stroke-linejoin="round" d="M 18725,2359 L 18725,2351 18725,2344 "/>
 <path fill="none" stroke="rgb(0,0,0)" stroke-linejoin="round" d="M 18825,2359 L 18625,2359 "/>
 <path fill="none" stroke="rgb(0,0,0)" stroke-linejoin="round" d="M 18625,2344 L 18825,2344 "/>
 <path fill="none" stroke="rgb(0,0,0)" stroke-linejoin="round" d="M 4303,6829 L 4303,6822 4303,6815 "/>
 <path fill="none" stroke="rgb(0,0,0)" stroke-linejoin="round" d="M 4403,6829 L 4203,6829 "/>
 <path fill="none" stroke="rgb(0,0,0)" stroke-linejoin="round" d="M 4203,6815 L 4403,6815 "/>
 <path fill="none" stroke="rgb(0,0,0)" stroke-linejoin="round" d="M 6811,9167 L 6811,9153 6811,9139 "/>
 <path fill="none" stroke="rgb(0,0,0)" stroke-linejoin="round" d="M 6911,9167 L 6711,9167 "/>
 <path fill="none" stroke="rgb(0,0,0)" stroke-linejoin="round" d="M 6711,9139 L 6911,9139 "/>
 <path fill="none" stroke="rgb(0,0,0)" stroke-linejoin="round" d="M 9320,10486 L 9320,10482 9320,10477 "/>
 <path fill="none" stroke="rgb(0,0,0)" stroke-linejoin="round" d="M 9420,10486 L 9220,10486 "/>
 <path fill="none" stroke="rgb(0,0,0)" stroke-linejoin="round" d="M 9220,10477 L 9420,10477 "/>
 <path fill="none" stroke="rgb(0,0,0)" stroke-linejoin="round" d="M 11827,10529 L 11827,10527 11827,10526 "/>
 <path fill="none" stroke="rgb(0,0,0)" stroke-linejoin="round" d="M 11927,10529 L 11727,10529 "/>
 <path fill="none" stroke="rgb(0,0,0)" stroke-linejoin="round" d="M 11727,10526 L 11927,10526 "/>
 <path fill="none" stroke="rgb(0,0,0)" stroke-linejoin="round" d="M 14336,8411 L 14336,8408 14336,8405 "/>
 <path fill="none" stroke="rgb(0,0,0)" stroke-linejoin="round" d="M 14436,8411 L 14236,8411 "/>
 <path fill="none" stroke="rgb(0,0,0)" stroke-linejoin="round" d="M 14236,8405 L 14436,8405 "/>
 <path fill="none" stroke="rgb(0,0,0)" stroke-linejoin="round" d="M 16844,10162 L 16844,10162 16844,10161 "/>
 <path fill="none" stroke="rgb(0,0,0)" stroke-linejoin="round" d="M 16944,10162 L 16744,10162 "/>
 <path fill="none" stroke="rgb(0,0,0)" stroke-linejoin="round" d="M 16744,10161 L 16944,10161 "/>
 <path fill="none" stroke="rgb(0,0,0)" stroke-linejoin="round" d="M 19352,2349 L 19352,2347 19352,2344 "/>
 <path fill="none" stroke="rgb(0,0,0)" stroke-linejoin="round" d="M 19452,2349 L 19252,2349 "/>
 <path fill="none" stroke="rgb(0,0,0)" stroke-linejoin="round" d="M 19252,2344 L 19452,2344 "/>
 <text class="SVGTextShape"><tspan class="TextParagraph"><tspan class="TextPosition" x="3361" y="11153"><tspan font-family="Liberation Sans, sans-serif" font-size="353px" font-weight="400" fill="rgb(0,0,0)" stroke="none" style="white-space: pre">bt.D</tspan></tspan></tspan></text>
 <text class="SVGTextShape"><tspan class="TextParagraph"><tspan class="TextPosition" x="5831" y="11153"><tspan font-family="Liberation Sans, sans-serif" font-size="353px" font-weight="400" fill="rgb(0,0,0)" stroke="none" style="white-space: pre">cg.D</tspan></tspan></tspan></text>
 <text class="SVGTextShape"><tspan class="TextParagraph"><tspan class="TextPosition" x="8330" y="11153"><tspan font-family="Liberation Sans, sans-serif" font-size="353px" font-weight="400" fill="rgb(0,0,0)" stroke="none" style="white-space: pre">ep.D</tspan></tspan></tspan></text>
 <text class="SVGTextShape"><tspan class="TextParagraph"><tspan class="TextPosition" x="10905" y="11153"><tspan font-family="Liberation Sans, sans-serif" font-size="353px" font-weight="400" fill="rgb(0,0,0)" stroke="none" style="white-space: pre">is.D</tspan></tspan></tspan></text>
 <text class="SVGTextShape"><tspan class="TextParagraph"><tspan class="TextPosition" x="13403" y="11153"><tspan font-family="Liberation Sans, sans-serif" font-size="353px" font-weight="400" fill="rgb(0,0,0)" stroke="none" style="white-space: pre">lu.D</tspan></tspan></tspan></text>
 <text class="SVGTextShape"><tspan class="TextParagraph"><tspan class="TextPosition" x="15807" y="11153"><tspan font-family="Liberation Sans, sans-serif" font-size="353px" font-weight="400" fill="rgb(0,0,0)" stroke="none" style="white-space: pre">mg.D</tspan></tspan></tspan></text>
 <text class="SVGTextShape"><tspan class="TextParagraph"><tspan class="TextPosition" x="18372" y="11153"><tspan font-family="Liberation Sans, sans-serif" font-size="353px" font-weight="400" fill="rgb(0,0,0)" stroke="none" style="white-space: pre">sp.D</tspan></tspan></tspan></text>
 <text class="SVGTextShape"><tspan class="TextParagraph"><tspan class="TextPosition" x="1981" y="10706"><tspan font-family="Liberation Sans, sans-serif" font-size="353px" font-weight="400" fill="rgb(0,0,0)" stroke="none" style="white-space: pre">0</tspan></tspan></tspan></text>
 <text class="SVGTextShape"><tspan class="TextParagraph"><tspan class="TextPosition" x="1598" y="9767"><tspan font-family="Liberation Sans, sans-serif" font-size="353px" font-weight="400" fill="rgb(0,0,0)" stroke="none" style="white-space: pre">100</tspan></tspan></tspan></text>
 <text class="SVGTextShape"><tspan class="TextParagraph"><tspan class="TextPosition" x="1598" y="8828"><tspan font-family="Liberation Sans, sans-serif" font-size="353px" font-weight="400" fill="rgb(0,0,0)" stroke="none" style="white-space: pre">200</tspan></tspan></tspan></text>
 <text class="SVGTextShape"><tspan class="TextParagraph"><tspan class="TextPosition" x="1598" y="7889"><tspan font-family="Liberation Sans, sans-serif" font-size="353px" font-weight="400" fill="rgb(0,0,0)" stroke="none" style="white-space: pre">300</tspan></tspan></tspan></text>
 <text class="SVGTextShape"><tspan class="TextParagraph"><tspan class="TextPosition" x="1598" y="6950"><tspan font-family="Liberation Sans, sans-serif" font-size="353px" font-weight="400" fill="rgb(0,0,0)" stroke="none" style="white-space: pre">400</tspan></tspan></tspan></text>
 <text class="SVGTextShape"><tspan class="TextParagraph"><tspan class="TextPosition" x="1598" y="6011"><tspan font-family="Liberation Sans, sans-serif" font-size="353px" font-weight="400" fill="rgb(0,0,0)" stroke="none" style="white-space: pre">500</tspan></tspan></tspan></text>
 <text class="SVGTextShape"><tspan class="TextParagraph"><tspan class="TextPosition" x="1598" y="5073"><tspan font-family="Liberation Sans, sans-serif" font-size="353px" font-weight="400" fill="rgb(0,0,0)" stroke="none" style="white-space: pre">600</tspan></tspan></tspan></text>
 <text class="SVGTextShape"><tspan class="TextParagraph"><tspan class="TextPosition" x="1598" y="4134"><tspan font-family="Liberation Sans, sans-serif" font-size="353px" font-weight="400" fill="rgb(0,0,0)" stroke="none" style="white-space: pre">700</tspan></tspan></tspan></text>
 <text class="SVGTextShape"><tspan class="TextParagraph"><tspan class="TextPosition" x="1598" y="3195"><tspan font-family="Liberation Sans, sans-serif" font-size="353px" font-weight="400" fill="rgb(0,0,0)" stroke="none" style="white-space: pre">800</tspan></tspan></tspan></text>
 <text class="SVGTextShape"><tspan class="TextParagraph"><tspan class="TextPosition" x="1598" y="2256"><tspan font-family="Liberation Sans, sans-serif" font-size="353px" font-weight="400" fill="rgb(0,0,0)" stroke="none" style="white-space: pre">900</tspan></tspan></tspan></text>
 <text class="SVGTextShape"><tspan class="TextParagraph"><tspan class="TextPosition" x="1407" y="1318"><tspan font-family="Liberation Sans, sans-serif" font-size="353px" font-weight="400" fill="rgb(0,0,0)" stroke="none" style="white-space: pre">1000</tspan></tspan></tspan></text>
 <path fill="rgb(0,69,134)" stroke="none" d="M 7670,576 L 7565,576 7565,365 7776,365 7776,576 7670,576 Z "/>
 <path fill="rgb(255,66,14)" stroke="none" d="M 10108,576 L 10003,576 10003,365 10213,365 10213,576 10108,576 Z "/>
 <path fill="rgb(255,211,32)" stroke="none" d="M 11341,576 L 11235,576 11235,365 11446,365 11446,576 11341,576 Z "/>
 <text class="SVGTextShape"><tspan class="TextParagraph"><tspan class="TextPosition" x="7876" y="590"><tspan font-family="Liberation Sans, sans-serif" font-size="353px" font-weight="400" fill="rgb(0,0,0)" stroke="none" style="white-space: pre">unencrypted</tspan></tspan></tspan></text>
 <text class="SVGTextShape"><tspan class="TextParagraph"><tspan class="TextPosition" x="10313" y="590"><tspan font-family="Liberation Sans, sans-serif" font-size="353px" font-weight="400" fill="rgb(0,0,0)" stroke="none" style="white-space: pre">SEV</tspan></tspan></tspan></text>
 <text class="SVGTextShape"><tspan class="TextParagraph"><tspan class="TextPosition" x="11546" y="590"><tspan font-family="Liberation Sans, sans-serif" font-size="353px" font-weight="400" fill="rgb(0,0,0)" stroke="none" style="white-space: pre">SEV-ES</tspan></tspan></tspan></text>
 <text class="SVGTextShape" transform="rotate(-90 825 6865)"><tspan class="TextParagraph"><tspan class="TextPosition" x="825" y="6865"><tspan font-family="Liberation Sans, sans-serif" font-size="318px" font-weight="400" fill="rgb(0,0,0)" stroke="none" style="white-space: pre">Time (sec)</tspan></tspan></tspan></text>
 <text class="SVGTextShape"><tspan class="TextParagraph"><tspan class="TextPosition" x="10068" y="5868"><tspan font-family="Liberation Serif, serif" font-size="423px" font-weight="400" fill="rgb(255,255,255)" stroke="none" style="white-space: pre">=</tspan></tspan></tspan></text>
</svg>