<?xml version="1.0" encoding="UTF-8"?>
<!DOCTYPE svg PUBLIC "-//W3C//DTD SVG 1.1//EN" "http://www.w3.org/Graphics/SVG/1.1/DTD/svg11.dtd">
<svg width="206mm" height="116mm" viewBox="0 0 20600 11600" version="1.1" xmlns="http://www.w3.org/2000/svg" xmlns:xlink="http://www.w3.org/1999/xlink" stroke-width="28.222" stroke-linejoin="round" xml:space="preserve">
 <path fill="rgb(255,255,255)" stroke="none" d="M 10305,11594 L -13,11594 -13,-13 20623,-13 20623,11594 10305,11594 Z "/>
 <path fill="none" stroke="rgb(179,179,179)" stroke-linejoin="round" d="M 11127,9734 L 2044,9734 2044,1201 20211,1201 20211,9734 11127,9734 Z "/>
 <path fill="none" stroke="rgb(179,179,179)" stroke-linejoin="round" d="M 20211,9733 L 2044,9733 "/>
 <path fill="none" stroke="rgb(179,179,179)" stroke-linejoin="round" d="M 20211,8310 L 2044,8310 "/>
 <path fill="none" stroke="rgb(179,179,179)" stroke-linejoin="round" d="M 20211,6888 L 2044,6888 "/>
 <path fill="none" stroke="rgb(179,179,179)" stroke-linejoin="round" d="M 20211,5467 L 2044,5467 "/>
 <path fill="none" stroke="rgb(179,179,179)" stroke-linejoin="round" d="M 20211,4044 L 2044,4044 "/>
 <path fill="none" stroke="rgb(179,179,179)" stroke-linejoin="round" d="M 20211,2622 L 2044,2622 "/>
 <path fill="none" stroke="rgb(179,179,179)" stroke-linejoin="round" d="M 20211,1200 L 2044,1200 "/>
 <path fill="none" stroke="rgb(179,179,179)" stroke-linejoin="round" d="M 2044,9883 L 2044,9733 "/>
 <path fill="none" stroke="rgb(179,179,179)" stroke-linejoin="round" d="M 2044,9883 L 2044,9733 "/>
 <path fill="none" stroke="rgb(179,179,179)" stroke-linejoin="round" d="M 6586,9883 L 6586,9733 "/>
 <path fill="none" stroke="rgb(179,179,179)" stroke-linejoin="round" d="M 6586,9883 L 6586,9733 "/>
 <path fill="none" stroke="rgb(179,179,179)" stroke-linejoin="round" d="M 11127,9883 L 11127,9733 "/>
 <path fill="none" stroke="rgb(179,179,179)" stroke-linejoin="round" d="M 11127,9883 L 11127,9733 "/>
 <path fill="none" stroke="rgb(179,179,179)" stroke-linejoin="round" d="M 15669,9883 L 15669,9733 "/>
 <path fill="none" stroke="rgb(179,179,179)" stroke-linejoin="round" d="M 15669,9883 L 15669,9733 "/>
 <path fill="none" stroke="rgb(179,179,179)" stroke-linejoin="round" d="M 20211,9883 L 20211,9733 "/>
 <path fill="none" stroke="rgb(179,179,179)" stroke-linejoin="round" d="M 20211,9883 L 20211,9733 "/>
 <path fill="none" stroke="rgb(179,179,179)" stroke-linejoin="round" d="M 2044,9733 L 20211,9733 "/>
 <path fill="none" stroke="rgb(179,179,179)" stroke-linejoin="round" d="M 1894,9733 L 2044,9733 "/>
 <path fill="none" stroke="rgb(179,179,179)" stroke-linejoin="round" d="M 1894,9733 L 2044,9733 "/>
 <path fill="none" stroke="rgb(179,179,179)" stroke-linejoin="round" d="M 1894,8310 L 2044,8310 "/>
 <path fill="none" stroke="rgb(179,179,179)" stroke-linejoin="round" d="M 1894,8310 L 2044,8310 "/>
 <path fill="none" stroke="rgb(179,179,179)" stroke-linejoin="round" d="M 1894,6888 L 2044,6888 "/>
 <path fill="none" stroke="rgb(179,179,179)" stroke-linejoin="round" d="M 1894,6888 L 2044,6888 "/>
 <path fill="none" stroke="rgb(179,179,179)" stroke-linejoin="round" d="M 1894,5467 L 2044,5467 "/>
 <path fill="none" stroke="rgb(179,179,179)" stroke-linejoin="round" d="M 1894,5467 L 2044,5467 "/>
 <path fill="none" stroke="rgb(179,179,179)" stroke-linejoin="round" d="M 1894,4044 L 2044,4044 "/>
 <path fill="none" stroke="rgb(179,179,179)" stroke-linejoin="round" d="M 1894,4044 L 2044,4044 "/>
 <path fill="none" stroke="rgb(179,179,179)" stroke-linejoin="round" d="M 1894,2622 L 2044,2622 "/>
 <path fill="none" stroke="rgb(179,179,179)" stroke-linejoin="round" d="M 1894,2622 L 2044,2622 "/>
 <path fill="none" stroke="rgb(179,179,179)" stroke-linejoin="round" d="M 1894,1200 L 2044,1200 "/>
 <path fill="none" stroke="rgb(179,179,179)" stroke-linejoin="round" d="M 1894,1200 L 2044,1200 "/>
 <path fill="none" stroke="rgb(179,179,179)" stroke-linejoin="round" d="M 2044,9733 L 2044,1200 "/>
 <path fill="rgb(0,69,134)" stroke="none" d="M 2368,9733 L 3017,9733 3017,2337 2368,2337 2368,9733 Z "/>
 <path fill="rgb(0,69,134)" stroke="none" d="M 6910,9733 L 7559,9733 7559,4191 6910,4191 6910,9733 Z "/>
 <path fill="rgb(0,69,134)" stroke="none" d="M 11451,9733 L 12100,9733 12100,4206 11451,4206 11451,9733 Z "/>
 <path fill="rgb(0,69,134)" stroke="none" d="M 15993,9733 L 16642,9733 16642,4030 15993,4030 15993,9733 Z "/>
 <path fill="rgb(255,66,14)" stroke="none" d="M 3017,9733 L 3666,9733 3666,2180 3017,2180 3017,9733 Z "/>
 <path fill="rgb(255,66,14)" stroke="none" d="M 7559,9733 L 8208,9733 8208,4120 7559,4120 7559,9733 Z "/>
 <path fill="rgb(255,66,14)" stroke="none" d="M 12100,9733 L 12749,9733 12749,4007 12100,4007 12100,9733 Z "/>
 <path fill="rgb(255,66,14)" stroke="none" d="M 16642,9733 L 17291,9733 17291,3893 16642,3893 16642,9733 Z "/>
 <path fill="rgb(255,211,32)" stroke="none" d="M 3666,9733 L 4315,9733 4315,2337 3666,2337 3666,9733 Z "/>
 <path fill="rgb(255,211,32)" stroke="none" d="M 8208,9733 L 8857,9733 8857,4408 8208,4408 8208,9733 Z "/>
 <path fill="rgb(255,211,32)" stroke="none" d="M 12749,9733 L 13398,9733 13398,4245 12749,4245 12749,9733 Z "/>
 <path fill="rgb(255,211,32)" stroke="none" d="M 17291,9733 L 17939,9733 17939,4011 17291,4011 17291,9733 Z "/>
 <path fill="rgb(87,157,28)" stroke="none" d="M 4315,9733 L 4963,9733 4963,2565 4315,2565 4315,9733 Z "/>
 <path fill="rgb(87,157,28)" stroke="none" d="M 8857,9733 L 9505,9733 9505,4713 8857,4713 8857,9733 Z "/>
 <path fill="rgb(87,157,28)" stroke="none" d="M 13398,9733 L 14046,9733 14046,4466 13398,4466 13398,9733 Z "/>
 <path fill="rgb(87,157,28)" stroke="none" d="M 17940,9733 L 18588,9733 18588,4195 17940,4195 17940,9733 Z "/>
 <path fill="rgb(126,0,33)" stroke="none" d="M 4963,9733 L 5612,9733 5612,4053 4963,4053 4963,9733 Z "/>
 <path fill="rgb(126,0,33)" stroke="none" d="M 9505,9733 L 10154,9733 10154,5694 9505,5694 9505,9733 Z "/>
 <path fill="rgb(126,0,33)" stroke="none" d="M 14046,9733 L 14695,9733 14695,5203 14046,5203 14046,9733 Z "/>
 <path fill="rgb(126,0,33)" stroke="none" d="M 18588,9733 L 19237,9733 19237,4872 18588,4872 18588,9733 Z "/>
 <path fill="rgb(131,202,255)" stroke="none" d="M 5612,9733 L 6261,9733 6261,5962 5612,5962 5612,9733 Z "/>
 <path fill="rgb(131,202,255)" stroke="none" d="M 10154,9733 L 10802,9733 10802,7037 10154,7037 10154,9733 Z "/>
 <path fill="rgb(131,202,255)" stroke="none" d="M 14695,9733 L 15344,9733 15344,6758 14695,6758 14695,9733 Z "/>
 <path fill="rgb(131,202,255)" stroke="none" d="M 19237,9733 L 19886,9733 19886,6393 19237,6393 19237,9733 Z "/>
 <text class="SVGTextShape"><tspan class="TextParagraph"><tspan class="TextPosition" x="3914" y="10301"><tspan font-family="Liberation Sans, sans-serif" font-size="353px" font-weight="400" fill="rgb(0,0,0)" stroke="none" style="white-space: pre">Copy</tspan></tspan></tspan></text>
 <text class="SVGTextShape"><tspan class="TextParagraph"><tspan class="TextPosition" x="8428" y="10301"><tspan font-family="Liberation Sans, sans-serif" font-size="353px" font-weight="400" fill="rgb(0,0,0)" stroke="none" style="white-space: pre">Scale</tspan></tspan></tspan></text>
 <text class="SVGTextShape"><tspan class="TextParagraph"><tspan class="TextPosition" x="13093" y="10301"><tspan font-family="Liberation Sans, sans-serif" font-size="353px" font-weight="400" fill="rgb(0,0,0)" stroke="none" style="white-space: pre">Add</tspan></tspan></tspan></text>
 <text class="SVGTextShape"><tspan class="TextParagraph"><tspan class="TextPosition" x="17549" y="10301"><tspan font-family="Liberation Sans, sans-serif" font-size="353px" font-weight="400" fill="rgb(0,0,0)" stroke="none" style="white-space: pre">Triad</tspan></tspan></tspan></text>
 <text class="SVGTextShape"><tspan class="TextParagraph"><tspan class="TextPosition" x="1603" y="9854"><tspan font-family="Liberation Sans, sans-serif" font-size="353px" font-weight="400" fill="rgb(0,0,0)" stroke="none" style="white-space: pre">0</tspan></tspan></tspan></text>
 <text class="SVGTextShape"><tspan class="TextParagraph"><tspan class="TextPosition" x="1411" y="8431"><tspan font-family="Liberation Sans, sans-serif" font-size="353px" font-weight="400" fill="rgb(0,0,0)" stroke="none" style="white-space: pre">10</tspan></tspan></tspan></text>
 <text class="SVGTextShape"><tspan class="TextParagraph"><tspan class="TextPosition" x="1411" y="7009"><tspan font-family="Liberation Sans, sans-serif" font-size="353px" font-weight="400" fill="rgb(0,0,0)" stroke="none" style="white-space: pre">20</tspan></tspan></tspan></text>
 <text class="SVGTextShape"><tspan class="TextParagraph"><tspan class="TextPosition" x="1411" y="5588"><tspan font-family="Liberation Sans, sans-serif" font-size="353px" font-weight="400" fill="rgb(0,0,0)" stroke="none" style="white-space: pre">30</tspan></tspan></tspan></text>
 <text class="SVGTextShape"><tspan class="TextParagraph"><tspan class="TextPosition" x="1411" y="4165"><tspan font-family="Liberation Sans, sans-serif" font-size="353px" font-weight="400" fill="rgb(0,0,0)" stroke="none" style="white-space: pre">40</tspan></tspan></tspan></text>
 <text class="SVGTextShape"><tspan class="TextParagraph"><tspan class="TextPosition" x="1411" y="2743"><tspan font-family="Liberation Sans, sans-serif" font-size="353px" font-weight="400" fill="rgb(0,0,0)" stroke="none" style="white-space: pre">50</tspan></tspan></tspan></text>
 <text class="SVGTextShape"><tspan class="TextParagraph"><tspan class="TextPosition" x="1411" y="1321"><tspan font-family="Liberation Sans, sans-serif" font-size="353px" font-weight="400" fill="rgb(0,0,0)" stroke="none" style="white-space: pre">60</tspan></tspan></tspan></text>
 <path fill="rgb(0,69,134)" stroke="none" d="M 6291,576 L 6186,576 6186,365 6397,365 6397,576 6291,576 Z "/>
 <path fill="rgb(255,66,14)" stroke="none" d="M 7639,576 L 7534,576 7534,365 7745,365 7745,576 7639,576 Z "/>
 <path fill="rgb(255,211,32)" stroke="none" d="M 8987,576 L 8882,576 8882,365 9093,365 9093,576 8987,576 Z "/>
 <path fill="rgb(87,157,28)" stroke="none" d="M 10335,576 L 10230,576 10230,365 10440,365 10440,576 10335,576 Z "/>
 <path fill="rgb(126,0,33)" stroke="none" d="M 11683,576 L 11577,576 11577,365 11788,365 11788,576 11683,576 Z "/>
 <path fill="rgb(131,202,255)" stroke="none" d="M 13222,576 L 13116,576 13116,365 13327,365 13327,576 13222,576 Z "/>
 <text class="SVGTextShape"><tspan class="TextParagraph"><tspan class="TextPosition" x="6497" y="590"><tspan font-family="Liberation Sans, sans-serif" font-size="353px" font-weight="400" fill="rgb(0,0,0)" stroke="none" style="white-space: pre">1 VM</tspan></tspan></tspan></text>
 <text class="SVGTextShape"><tspan class="TextParagraph"><tspan class="TextPosition" x="7845" y="590"><tspan font-family="Liberation Sans, sans-serif" font-size="353px" font-weight="400" fill="rgb(0,0,0)" stroke="none" style="white-space: pre">2 VM</tspan></tspan></tspan></text>
 <text class="SVGTextShape"><tspan class="TextParagraph"><tspan class="TextPosition" x="9193" y="590"><tspan font-family="Liberation Sans, sans-serif" font-size="353px" font-weight="400" fill="rgb(0,0,0)" stroke="none" style="white-space: pre">4 VM</tspan></tspan></tspan></text>
 <text class="SVGTextShape"><tspan class="TextParagraph"><tspan class="TextPosition" x="10540" y="590"><tspan font-family="Liberation Sans, sans-serif" font-size="353px" font-weight="400" fill="rgb(0,0,0)" stroke="none" style="white-space: pre">6 VM</tspan></tspan></tspan></text>
 <text class="SVGTextShape"><tspan class="TextParagraph"><tspan class="TextPosition" x="11888" y="590"><tspan font-family="Liberation Sans, sans-serif" font-size="353px" font-weight="400" fill="rgb(0,0,0)" stroke="none" style="white-space: pre">12 VM</tspan></tspan></tspan></text>
 <text class="SVGTextShape"><tspan class="TextParagraph"><tspan class="TextPosition" x="13427" y="590"><tspan font-family="Liberation Sans, sans-serif" font-size="353px" font-weight="400" fill="rgb(0,0,0)" stroke="none" style="white-space: pre">24 VM</tspan></tspan></tspan></text>
 <text class="SVGTextShape"><tspan class="TextParagraph"><tspan class="TextPosition" x="9409" y="11000"><tspan font-family="Liberation Sans, sans-serif" font-size="318px" font-weight="400" fill="rgb(0,0,0)" stroke="none" style="white-space: pre">STREAM Operation</tspan></tspan></tspan></text>
 <text class="SVGTextShape" transform="rotate(-90 825 7985)"><tspan class="TextParagraph"><tspan class="TextPosition" x="825" y="7985"><tspan font-family="Liberation Sans, sans-serif" font-size="318px" font-weight="400" fill="rgb(0,0,0)" stroke="none" style="white-space: pre">GBytes/sec (Average of all VMs)</tspan></tspan></tspan></text>
</svg>