<?xml version="1.0" encoding="UTF-8"?>
<!DOCTYPE svg PUBLIC "-//W3C//DTD SVG 1.1//EN" "http://www.w3.org/Graphics/SVG/1.1/DTD/svg11.dtd">
<svg width="275mm" height="155mm" viewBox="0 0 27500 15500" version="1.1" xmlns="http://www.w3.org/2000/svg" xmlns:xlink="http://www.w3.org/1999/xlink" stroke-width="28.222" stroke-linejoin="round" xml:space="preserve">
 <path fill="rgb(255,255,255)" stroke="none" d="M 13740,15457 L -13,15457 -13,-13 27492,-13 27492,15457 13740,15457 Z "/>
 <path fill="none" stroke="rgb(179,179,179)" stroke-linejoin="round" d="M 14657,13520 L 2373,13520 2373,1278 26942,1278 26942,13520 14657,13520 Z "/>
 <path fill="none" stroke="rgb(179,179,179)" stroke-linejoin="round" d="M 26942,13519 L 2373,13519 "/>
 <path fill="none" stroke="rgb(179,179,179)" stroke-linejoin="round" d="M 26942,11988 L 2373,11988 "/>
 <path fill="none" stroke="rgb(179,179,179)" stroke-linejoin="round" d="M 26942,10458 L 2373,10458 "/>
 <path fill="none" stroke="rgb(179,179,179)" stroke-linejoin="round" d="M 26942,8927 L 2373,8927 "/>
 <path fill="none" stroke="rgb(179,179,179)" stroke-linejoin="round" d="M 26942,7398 L 2373,7398 "/>
 <path fill="none" stroke="rgb(179,179,179)" stroke-linejoin="round" d="M 26942,5868 L 2373,5868 "/>
 <path fill="none" stroke="rgb(179,179,179)" stroke-linejoin="round" d="M 26942,4337 L 2373,4337 "/>
 <path fill="none" stroke="rgb(179,179,179)" stroke-linejoin="round" d="M 26942,2807 L 2373,2807 "/>
 <path fill="none" stroke="rgb(179,179,179)" stroke-linejoin="round" d="M 26942,1277 L 2373,1277 "/>
 <path fill="none" stroke="rgb(179,179,179)" stroke-linejoin="round" d="M 2373,13669 L 2373,13519 "/>
 <path fill="none" stroke="rgb(179,179,179)" stroke-linejoin="round" d="M 2373,13669 L 2373,13519 "/>
 <path fill="none" stroke="rgb(179,179,179)" stroke-linejoin="round" d="M 8515,13669 L 8515,13519 "/>
 <path fill="none" stroke="rgb(179,179,179)" stroke-linejoin="round" d="M 8515,13669 L 8515,13519 "/>
 <path fill="none" stroke="rgb(179,179,179)" stroke-linejoin="round" d="M 14657,13669 L 14657,13519 "/>
 <path fill="none" stroke="rgb(179,179,179)" stroke-linejoin="round" d="M 14657,13669 L 14657,13519 "/>
 <path fill="none" stroke="rgb(179,179,179)" stroke-linejoin="round" d="M 20799,13669 L 20799,13519 "/>
 <path fill="none" stroke="rgb(179,179,179)" stroke-linejoin="round" d="M 20799,13669 L 20799,13519 "/>
 <path fill="none" stroke="rgb(179,179,179)" stroke-linejoin="round" d="M 26942,13669 L 26942,13519 "/>
 <path fill="none" stroke="rgb(179,179,179)" stroke-linejoin="round" d="M 26942,13669 L 26942,13519 "/>
 <path fill="none" stroke="rgb(179,179,179)" stroke-linejoin="round" d="M 2373,13519 L 26942,13519 "/>
 <path fill="none" stroke="rgb(179,179,179)" stroke-linejoin="round" d="M 2223,13519 L 2373,13519 "/>
 <path fill="none" stroke="rgb(179,179,179)" stroke-linejoin="round" d="M 2223,13519 L 2373,13519 "/>
 <path fill="none" stroke="rgb(179,179,179)" stroke-linejoin="round" d="M 2223,11988 L 2373,11988 "/>
 <path fill="none" stroke="rgb(179,179,179)" stroke-linejoin="round" d="M 2223,11988 L 2373,11988 "/>
 <path fill="none" stroke="rgb(179,179,179)" stroke-linejoin="round" d="M 2223,10458 L 2373,10458 "/>
 <path fill="none" stroke="rgb(179,179,179)" stroke-linejoin="round" d="M 2223,10458 L 2373,10458 "/>
 <path fill="none" stroke="rgb(179,179,179)" stroke-linejoin="round" d="M 2223,8927 L 2373,8927 "/>
 <path fill="none" stroke="rgb(179,179,179)" stroke-linejoin="round" d="M 2223,8927 L 2373,8927 "/>
 <path fill="none" stroke="rgb(179,179,179)" stroke-linejoin="round" d="M 2223,7398 L 2373,7398 "/>
 <path fill="none" stroke="rgb(179,179,179)" stroke-linejoin="round" d="M 2223,7398 L 2373,7398 "/>
 <path fill="none" stroke="rgb(179,179,179)" stroke-linejoin="round" d="M 2223,5868 L 2373,5868 "/>
 <path fill="none" stroke="rgb(179,179,179)" stroke-linejoin="round" d="M 2223,5868 L 2373,5868 "/>
 <path fill="none" stroke="rgb(179,179,179)" stroke-linejoin="round" d="M 2223,4337 L 2373,4337 "/>
 <path fill="none" stroke="rgb(179,179,179)" stroke-linejoin="round" d="M 2223,4337 L 2373,4337 "/>
 <path fill="none" stroke="rgb(179,179,179)" stroke-linejoin="round" d="M 2223,2807 L 2373,2807 "/>
 <path fill="none" stroke="rgb(179,179,179)" stroke-linejoin="round" d="M 2223,2807 L 2373,2807 "/>
 <path fill="none" stroke="rgb(179,179,179)" stroke-linejoin="round" d="M 2223,1277 L 2373,1277 "/>
 <path fill="none" stroke="rgb(179,179,179)" stroke-linejoin="round" d="M 2223,1277 L 2373,1277 "/>
 <path fill="none" stroke="rgb(179,179,179)" stroke-linejoin="round" d="M 2373,13519 L 2373,1277 "/>
 <path fill="rgb(0,69,134)" stroke="none" d="M 2811,13519 L 3689,13519 3689,3094 2811,3094 2811,13519 Z "/>
 <path fill="rgb(0,69,134)" stroke="none" d="M 8954,13519 L 9831,13519 9831,6143 8954,6143 8954,13519 Z "/>
 <path fill="rgb(0,69,134)" stroke="none" d="M 15095,13519 L 15973,13519 15973,5320 15095,5320 15095,13519 Z "/>
 <path fill="rgb(0,69,134)" stroke="none" d="M 21238,13519 L 22115,13519 22115,5233 21238,5233 21238,13519 Z "/>
 <path fill="rgb(255,66,14)" stroke="none" d="M 3689,13519 L 4566,13519 4566,8312 3689,8312 3689,13519 Z "/>
 <path fill="rgb(255,66,14)" stroke="none" d="M 9831,13519 L 10709,13519 10709,9888 9831,9888 9831,13519 Z "/>
 <path fill="rgb(255,66,14)" stroke="none" d="M 15973,13519 L 16850,13519 16850,9456 15973,9456 15973,13519 Z "/>
 <path fill="rgb(255,66,14)" stroke="none" d="M 22115,13519 L 22993,13519 22993,9430 22115,9430 22115,13519 Z "/>
 <path fill="rgb(255,211,32)" stroke="none" d="M 4566,13519 L 5444,13519 5444,10643 4566,10643 4566,13519 Z "/>
 <path fill="rgb(255,211,32)" stroke="none" d="M 10709,13519 L 11586,13519 11586,11713 10709,11713 10709,13519 Z "/>
 <path fill="rgb(255,211,32)" stroke="none" d="M 16850,13519 L 17728,13519 17728,11463 16850,11463 16850,13519 Z "/>
 <path fill="rgb(255,211,32)" stroke="none" d="M 22993,13519 L 23870,13519 23870,11408 22993,11408 22993,13519 Z "/>
 <path fill="rgb(87,157,28)" stroke="none" d="M 5444,13519 L 6321,13519 6321,12061 5444,12061 5444,13519 Z "/>
 <path fill="rgb(87,157,28)" stroke="none" d="M 11586,13519 L 12464,13519 12464,12622 11586,12622 11586,13519 Z "/>
 <path fill="rgb(87,157,28)" stroke="none" d="M 17728,13519 L 18605,13519 18605,12490 17728,12490 17728,13519 Z "/>
 <path fill="rgb(87,157,28)" stroke="none" d="M 23870,13519 L 24748,13519 24748,12442 23870,12442 23870,13519 Z "/>
 <path fill="rgb(126,0,33)" stroke="none" d="M 6321,13519 L 7199,13519 7199,12716 6321,12716 6321,13519 Z "/>
 <path fill="rgb(126,0,33)" stroke="none" d="M 12464,13519 L 13341,13519 13341,13074 12464,13074 12464,13519 Z "/>
 <path fill="rgb(126,0,33)" stroke="none" d="M 18605,13519 L 19483,13519 19483,13003 18605,13003 18605,13519 Z "/>
 <path fill="rgb(126,0,33)" stroke="none" d="M 24748,13519 L 25625,13519 25625,12936 24748,12936 24748,13519 Z "/>
 <path fill="rgb(131,202,255)" stroke="none" d="M 7199,13519 L 8076,13519 8076,13101 7199,13101 7199,13519 Z "/>
 <path fill="rgb(131,202,255)" stroke="none" d="M 13341,13519 L 14218,13519 14218,13298 13341,13298 13341,13519 Z "/>
 <path fill="rgb(131,202,255)" stroke="none" d="M 19483,13519 L 20360,13519 20360,13258 19483,13258 19483,13519 Z "/>
 <path fill="rgb(131,202,255)" stroke="none" d="M 25625,13519 L 26503,13519 26503,13225 25625,13225 25625,13519 Z "/>
 <text class="SVGTextShape"><tspan class="TextParagraph"><tspan class="TextPosition" x="5043" y="14087"><tspan font-family="Liberation Sans, sans-serif" font-size="353px" font-weight="400" fill="rgb(0,0,0)" stroke="none" style="white-space: pre">Copy</tspan></tspan></tspan></text>
 <text class="SVGTextShape"><tspan class="TextParagraph"><tspan class="TextPosition" x="11157" y="14087"><tspan font-family="Liberation Sans, sans-serif" font-size="353px" font-weight="400" fill="rgb(0,0,0)" stroke="none" style="white-space: pre">Scale</tspan></tspan></tspan></text>
 <text class="SVGTextShape"><tspan class="TextParagraph"><tspan class="TextPosition" x="17423" y="14087"><tspan font-family="Liberation Sans, sans-serif" font-size="353px" font-weight="400" fill="rgb(0,0,0)" stroke="none" style="white-space: pre">Add</tspan></tspan></tspan></text>
 <text class="SVGTextShape"><tspan class="TextParagraph"><tspan class="TextPosition" x="23479" y="14087"><tspan font-family="Liberation Sans, sans-serif" font-size="353px" font-weight="400" fill="rgb(0,0,0)" stroke="none" style="white-space: pre">Triad</tspan></tspan></tspan></text>
 <text class="SVGTextShape"><tspan class="TextParagraph"><tspan class="TextPosition" x="1932" y="13640"><tspan font-family="Liberation Sans, sans-serif" font-size="353px" font-weight="400" fill="rgb(0,0,0)" stroke="none" style="white-space: pre">0</tspan></tspan></tspan></text>
 <text class="SVGTextShape"><tspan class="TextParagraph"><tspan class="TextPosition" x="1549" y="12109"><tspan font-family="Liberation Sans, sans-serif" font-size="353px" font-weight="400" fill="rgb(0,0,0)" stroke="none" style="white-space: pre">100</tspan></tspan></tspan></text>
 <text class="SVGTextShape"><tspan class="TextParagraph"><tspan class="TextPosition" x="1549" y="10579"><tspan font-family="Liberation Sans, sans-serif" font-size="353px" font-weight="400" fill="rgb(0,0,0)" stroke="none" style="white-space: pre">200</tspan></tspan></tspan></text>
 <text class="SVGTextShape"><tspan class="TextParagraph"><tspan class="TextPosition" x="1549" y="9048"><tspan font-family="Liberation Sans, sans-serif" font-size="353px" font-weight="400" fill="rgb(0,0,0)" stroke="none" style="white-space: pre">300</tspan></tspan></tspan></text>
 <text class="SVGTextShape"><tspan class="TextParagraph"><tspan class="TextPosition" x="1549" y="7519"><tspan font-family="Liberation Sans, sans-serif" font-size="353px" font-weight="400" fill="rgb(0,0,0)" stroke="none" style="white-space: pre">400</tspan></tspan></tspan></text>
 <text class="SVGTextShape"><tspan class="TextParagraph"><tspan class="TextPosition" x="1549" y="5989"><tspan font-family="Liberation Sans, sans-serif" font-size="353px" font-weight="400" fill="rgb(0,0,0)" stroke="none" style="white-space: pre">500</tspan></tspan></tspan></text>
 <text class="SVGTextShape"><tspan class="TextParagraph"><tspan class="TextPosition" x="1549" y="4458"><tspan font-family="Liberation Sans, sans-serif" font-size="353px" font-weight="400" fill="rgb(0,0,0)" stroke="none" style="white-space: pre">600</tspan></tspan></tspan></text>
 <text class="SVGTextShape"><tspan class="TextParagraph"><tspan class="TextPosition" x="1549" y="2928"><tspan font-family="Liberation Sans, sans-serif" font-size="353px" font-weight="400" fill="rgb(0,0,0)" stroke="none" style="white-space: pre">700</tspan></tspan></tspan></text>
 <text class="SVGTextShape"><tspan class="TextParagraph"><tspan class="TextPosition" x="1549" y="1398"><tspan font-family="Liberation Sans, sans-serif" font-size="353px" font-weight="400" fill="rgb(0,0,0)" stroke="none" style="white-space: pre">800</tspan></tspan></tspan></text>
 <path fill="rgb(0,69,134)" stroke="none" d="M 9726,576 L 9621,576 9621,365 9832,365 9832,576 9726,576 Z "/>
 <path fill="rgb(255,66,14)" stroke="none" d="M 11074,576 L 10969,576 10969,365 11180,365 11180,576 11074,576 Z "/>
 <path fill="rgb(255,211,32)" stroke="none" d="M 12422,576 L 12317,576 12317,365 12528,365 12528,576 12422,576 Z "/>
 <path fill="rgb(87,157,28)" stroke="none" d="M 13770,576 L 13665,576 13665,365 13875,365 13875,576 13770,576 Z "/>
 <path fill="rgb(126,0,33)" stroke="none" d="M 15118,576 L 15012,576 15012,365 15223,365 15223,576 15118,576 Z "/>
 <path fill="rgb(131,202,255)" stroke="none" d="M 16657,576 L 16551,576 16551,365 16762,365 16762,576 16657,576 Z "/>
 <text class="SVGTextShape"><tspan class="TextParagraph"><tspan class="TextPosition" x="9932" y="590"><tspan font-family="Liberation Sans, sans-serif" font-size="353px" font-weight="400" fill="rgb(0,0,0)" stroke="none" style="white-space: pre">1 VM</tspan></tspan></tspan></text>
 <text class="SVGTextShape"><tspan class="TextParagraph"><tspan class="TextPosition" x="11280" y="590"><tspan font-family="Liberation Sans, sans-serif" font-size="353px" font-weight="400" fill="rgb(0,0,0)" stroke="none" style="white-space: pre">2 VM</tspan></tspan></tspan></text>
 <text class="SVGTextShape"><tspan class="TextParagraph"><tspan class="TextPosition" x="12628" y="590"><tspan font-family="Liberation Sans, sans-serif" font-size="353px" font-weight="400" fill="rgb(0,0,0)" stroke="none" style="white-space: pre">4 VM</tspan></tspan></tspan></text>
 <text class="SVGTextShape"><tspan class="TextParagraph"><tspan class="TextPosition" x="13975" y="590"><tspan font-family="Liberation Sans, sans-serif" font-size="353px" font-weight="400" fill="rgb(0,0,0)" stroke="none" style="white-space: pre">8 VM</tspan></tspan></tspan></text>
 <text class="SVGTextShape"><tspan class="TextParagraph"><tspan class="TextPosition" x="15323" y="590"><tspan font-family="Liberation Sans, sans-serif" font-size="353px" font-weight="400" fill="rgb(0,0,0)" stroke="none" style="white-space: pre">16 VM</tspan></tspan></tspan></text>
 <text class="SVGTextShape"><tspan class="TextParagraph"><tspan class="TextPosition" x="16862" y="590"><tspan font-family="Liberation Sans, sans-serif" font-size="353px" font-weight="400" fill="rgb(0,0,0)" stroke="none" style="white-space: pre">32 VM</tspan></tspan></tspan></text>
 <text class="SVGTextShape"><tspan class="TextParagraph"><tspan class="TextPosition" x="12843" y="14863"><tspan font-family="Liberation Sans, sans-serif" font-size="318px" font-weight="400" fill="rgb(0,0,0)" stroke="none" style="white-space: pre">STREAM Operation</tspan></tspan></tspan></text>
 <text class="SVGTextShape" transform="rotate(-90 825 9916)"><tspan class="TextParagraph"><tspan class="TextPosition" x="825" y="9916"><tspan font-family="Liberation Sans, sans-serif" font-size="318px" font-weight="400" fill="rgb(0,0,0)" stroke="none" style="white-space: pre">GBytes/sec (Average of all VMs)</tspan></tspan></tspan></text>
</svg>