<?xml version="1.0" encoding="UTF-8"?>
<!DOCTYPE svg PUBLIC "-//W3C//DTD SVG 1.1//EN" "http://www.w3.org/Graphics/SVG/1.1/DTD/svg11.dtd">
<svg width="330mm" height="185mm" viewBox="0 0 33000 18500" version="1.1" xmlns="http://www.w3.org/2000/svg" xmlns:xlink="http://www.w3.org/1999/xlink" stroke-width="28.222" stroke-linejoin="round" xml:space="preserve">
 <path fill="rgb(255,255,255)" stroke="none" d="M 16467,18526 L -13,18526 -13,-13 32947,-13 32947,18526 16467,18526 Z "/>
 <path fill="rgb(255,255,255)" stroke="none" d="M 17289,16528 L 2291,16528 2291,1339 32288,1339 32288,16528 17289,16528 Z "/>
 <path fill="none" stroke="rgb(179,179,179)" stroke-linejoin="round" d="M 17289,16528 L 2291,16528 2291,1339 32288,1339 32288,16528 17289,16528 Z "/>
 <path fill="none" stroke="rgb(179,179,179)" stroke-linejoin="round" d="M 32288,16527 L 2291,16527 "/>
 <path fill="none" stroke="rgb(179,179,179)" stroke-linejoin="round" d="M 32288,13995 L 2291,13995 "/>
 <path fill="none" stroke="rgb(179,179,179)" stroke-linejoin="round" d="M 32288,11463 L 2291,11463 "/>
 <path fill="none" stroke="rgb(179,179,179)" stroke-linejoin="round" d="M 32288,8933 L 2291,8933 "/>
 <path fill="none" stroke="rgb(179,179,179)" stroke-linejoin="round" d="M 32288,6401 L 2291,6401 "/>
 <path fill="none" stroke="rgb(179,179,179)" stroke-linejoin="round" d="M 32288,3869 L 2291,3869 "/>
 <path fill="none" stroke="rgb(179,179,179)" stroke-linejoin="round" d="M 32288,1338 L 2291,1338 "/>
 <path fill="none" stroke="rgb(179,179,179)" stroke-linejoin="round" d="M 2291,16677 L 2291,16527 "/>
 <path fill="none" stroke="rgb(179,179,179)" stroke-linejoin="round" d="M 2291,16677 L 2291,16527 "/>
 <path fill="none" stroke="rgb(179,179,179)" stroke-linejoin="round" d="M 9790,16677 L 9790,16527 "/>
 <path fill="none" stroke="rgb(179,179,179)" stroke-linejoin="round" d="M 9790,16677 L 9790,16527 "/>
 <path fill="none" stroke="rgb(179,179,179)" stroke-linejoin="round" d="M 17289,16677 L 17289,16527 "/>
 <path fill="none" stroke="rgb(179,179,179)" stroke-linejoin="round" d="M 17289,16677 L 17289,16527 "/>
 <path fill="none" stroke="rgb(179,179,179)" stroke-linejoin="round" d="M 24788,16677 L 24788,16527 "/>
 <path fill="none" stroke="rgb(179,179,179)" stroke-linejoin="round" d="M 24788,16677 L 24788,16527 "/>
 <path fill="none" stroke="rgb(179,179,179)" stroke-linejoin="round" d="M 32288,16677 L 32288,16527 "/>
 <path fill="none" stroke="rgb(179,179,179)" stroke-linejoin="round" d="M 32288,16677 L 32288,16527 "/>
 <path fill="none" stroke="rgb(179,179,179)" stroke-linejoin="round" d="M 2291,16527 L 32288,16527 "/>
 <path fill="none" stroke="rgb(179,179,179)" stroke-linejoin="round" d="M 2141,16527 L 2291,16527 "/>
 <path fill="none" stroke="rgb(179,179,179)" stroke-linejoin="round" d="M 2141,16527 L 2291,16527 "/>
 <path fill="none" stroke="rgb(179,179,179)" stroke-linejoin="round" d="M 2141,13995 L 2291,13995 "/>
 <path fill="none" stroke="rgb(179,179,179)" stroke-linejoin="round" d="M 2141,13995 L 2291,13995 "/>
 <path fill="none" stroke="rgb(179,179,179)" stroke-linejoin="round" d="M 2141,11463 L 2291,11463 "/>
 <path fill="none" stroke="rgb(179,179,179)" stroke-linejoin="round" d="M 2141,11463 L 2291,11463 "/>
 <path fill="none" stroke="rgb(179,179,179)" stroke-linejoin="round" d="M 2141,8933 L 2291,8933 "/>
 <path fill="none" stroke="rgb(179,179,179)" stroke-linejoin="round" d="M 2141,8933 L 2291,8933 "/>
 <path fill="none" stroke="rgb(179,179,179)" stroke-linejoin="round" d="M 2141,6401 L 2291,6401 "/>
 <path fill="none" stroke="rgb(179,179,179)" stroke-linejoin="round" d="M 2141,6401 L 2291,6401 "/>
 <path fill="none" stroke="rgb(179,179,179)" stroke-linejoin="round" d="M 2141,3869 L 2291,3869 "/>
 <path fill="none" stroke="rgb(179,179,179)" stroke-linejoin="round" d="M 2141,3869 L 2291,3869 "/>
 <path fill="none" stroke="rgb(179,179,179)" stroke-linejoin="round" d="M 2141,1338 L 2291,1338 "/>
 <path fill="none" stroke="rgb(179,179,179)" stroke-linejoin="round" d="M 2141,1338 L 2291,1338 "/>
 <path fill="none" stroke="rgb(179,179,179)" stroke-linejoin="round" d="M 2291,16527 L 2291,1338 "/>
 <path fill="rgb(0,69,134)" stroke="none" d="M 3040,16527 L 4540,16527 4540,3031 3040,3031 3040,16527 Z "/>
 <path fill="rgb(0,69,134)" stroke="none" d="M 10540,16527 L 12040,16527 12040,6517 10540,6517 10540,16527 Z "/>
 <path fill="rgb(0,69,134)" stroke="none" d="M 18038,16527 L 19538,16527 19538,6315 18038,6315 18038,16527 Z "/>
 <path fill="rgb(0,69,134)" stroke="none" d="M 25538,16527 L 27038,16527 27038,6069 25538,6069 25538,16527 Z "/>
 <path fill="rgb(255,66,14)" stroke="none" d="M 4540,16527 L 6040,16527 6040,3363 4540,3363 4540,16527 Z "/>
 <path fill="rgb(255,66,14)" stroke="none" d="M 12040,16527 L 13540,16527 13540,6662 12040,6662 12040,16527 Z "/>
 <path fill="rgb(255,66,14)" stroke="none" d="M 19538,16527 L 21038,16527 21038,6689 19538,6689 19538,16527 Z "/>
 <path fill="rgb(255,66,14)" stroke="none" d="M 27038,16527 L 28538,16527 28538,6376 27038,6376 27038,16527 Z "/>
 <path fill="rgb(255,211,32)" stroke="none" d="M 6040,16527 L 7540,16527 7540,3067 6040,3067 6040,16527 Z "/>
 <path fill="rgb(255,211,32)" stroke="none" d="M 13540,16527 L 15040,16527 15040,6532 13540,6532 13540,16527 Z "/>
 <path fill="rgb(255,211,32)" stroke="none" d="M 21038,16527 L 22538,16527 22538,6467 21038,6467 21038,16527 Z "/>
 <path fill="rgb(255,211,32)" stroke="none" d="M 28538,16527 L 30038,16527 30038,6117 28538,6117 28538,16527 Z "/>
 <path fill="rgb(87,157,28)" stroke="none" d="M 7540,16527 L 9040,16527 9040,3054 7540,3054 7540,16527 Z "/>
 <path fill="rgb(87,157,28)" stroke="none" d="M 15040,16527 L 16539,16527 16539,6560 15040,6560 15040,16527 Z "/>
 <path fill="rgb(87,157,28)" stroke="none" d="M 22538,16527 L 24038,16527 24038,6338 22538,6338 22538,16527 Z "/>
 <path fill="rgb(87,157,28)" stroke="none" d="M 30038,16527 L 31538,16527 31538,6092 30038,6092 30038,16527 Z "/>
 <text class="SVGTextShape"><tspan class="TextParagraph"><tspan class="TextPosition" x="5639" y="17095"><tspan font-family="Liberation Sans, sans-serif" font-size="353px" font-weight="400" fill="rgb(0,0,0)" stroke="none" style="white-space: pre">Copy</tspan></tspan></tspan></text>
 <text class="SVGTextShape"><tspan class="TextParagraph"><tspan class="TextPosition" x="13111" y="17095"><tspan font-family="Liberation Sans, sans-serif" font-size="353px" font-weight="400" fill="rgb(0,0,0)" stroke="none" style="white-space: pre">Scale</tspan></tspan></tspan></text>
 <text class="SVGTextShape"><tspan class="TextParagraph"><tspan class="TextPosition" x="20733" y="17095"><tspan font-family="Liberation Sans, sans-serif" font-size="353px" font-weight="400" fill="rgb(0,0,0)" stroke="none" style="white-space: pre">Add</tspan></tspan></tspan></text>
 <text class="SVGTextShape"><tspan class="TextParagraph"><tspan class="TextPosition" x="28147" y="17095"><tspan font-family="Liberation Sans, sans-serif" font-size="353px" font-weight="400" fill="rgb(0,0,0)" stroke="none" style="white-space: pre">Triad</tspan></tspan></tspan></text>
 <text class="SVGTextShape"><tspan class="TextParagraph"><tspan class="TextPosition" x="1850" y="16648"><tspan font-family="Liberation Sans, sans-serif" font-size="353px" font-weight="400" fill="rgb(0,0,0)" stroke="none" style="white-space: pre">0</tspan></tspan></tspan></text>
 <text class="SVGTextShape"><tspan class="TextParagraph"><tspan class="TextPosition" x="1658" y="14116"><tspan font-family="Liberation Sans, sans-serif" font-size="353px" font-weight="400" fill="rgb(0,0,0)" stroke="none" style="white-space: pre">10</tspan></tspan></tspan></text>
 <text class="SVGTextShape"><tspan class="TextParagraph"><tspan class="TextPosition" x="1658" y="11584"><tspan font-family="Liberation Sans, sans-serif" font-size="353px" font-weight="400" fill="rgb(0,0,0)" stroke="none" style="white-space: pre">20</tspan></tspan></tspan></text>
 <text class="SVGTextShape"><tspan class="TextParagraph"><tspan class="TextPosition" x="1658" y="9054"><tspan font-family="Liberation Sans, sans-serif" font-size="353px" font-weight="400" fill="rgb(0,0,0)" stroke="none" style="white-space: pre">30</tspan></tspan></tspan></text>
 <text class="SVGTextShape"><tspan class="TextParagraph"><tspan class="TextPosition" x="1658" y="6522"><tspan font-family="Liberation Sans, sans-serif" font-size="353px" font-weight="400" fill="rgb(0,0,0)" stroke="none" style="white-space: pre">40</tspan></tspan></tspan></text>
 <text class="SVGTextShape"><tspan class="TextParagraph"><tspan class="TextPosition" x="1658" y="3990"><tspan font-family="Liberation Sans, sans-serif" font-size="353px" font-weight="400" fill="rgb(0,0,0)" stroke="none" style="white-space: pre">50</tspan></tspan></tspan></text>
 <text class="SVGTextShape"><tspan class="TextParagraph"><tspan class="TextPosition" x="1658" y="1459"><tspan font-family="Liberation Sans, sans-serif" font-size="353px" font-weight="400" fill="rgb(0,0,0)" stroke="none" style="white-space: pre">60</tspan></tspan></tspan></text>
 <path fill="rgb(0,69,134)" stroke="none" d="M 10320,576 L 10215,576 10215,365 10426,365 10426,576 10320,576 Z "/>
 <path fill="rgb(255,66,14)" stroke="none" d="M 12452,576 L 12347,576 12347,365 12558,365 12558,576 12452,576 Z "/>
 <path fill="rgb(255,211,32)" stroke="none" d="M 15779,576 L 15674,576 15674,365 15885,365 15885,576 15779,576 Z "/>
 <path fill="rgb(87,157,28)" stroke="none" d="M 18772,576 L 18666,576 18666,365 18877,365 18877,576 18772,576 Z "/>
 <text class="SVGTextShape"><tspan class="TextParagraph"><tspan class="TextPosition" x="10526" y="590"><tspan font-family="Liberation Sans, sans-serif" font-size="353px" font-weight="400" fill="rgb(0,0,0)" stroke="none" style="white-space: pre"> cpumodel</tspan></tspan></tspan></text>
 <text class="SVGTextShape"><tspan class="TextParagraph"><tspan class="TextPosition" x="12658" y="590"><tspan font-family="Liberation Sans, sans-serif" font-size="353px" font-weight="400" fill="rgb(0,0,0)" stroke="none" style="white-space: pre">cpumodel+haltpoll</tspan></tspan></tspan></text>
 <text class="SVGTextShape"><tspan class="TextParagraph"><tspan class="TextPosition" x="15985" y="590"><tspan font-family="Liberation Sans, sans-serif" font-size="353px" font-weight="400" fill="rgb(0,0,0)" stroke="none" style="white-space: pre">cpupassthrough</tspan></tspan></tspan></text>
 <text class="SVGTextShape"><tspan class="TextParagraph"><tspan class="TextPosition" x="18977" y="590"><tspan font-family="Liberation Sans, sans-serif" font-size="353px" font-weight="400" fill="rgb(0,0,0)" stroke="none" style="white-space: pre">cpupassthrough+haltpoll</tspan></tspan></tspan></text>
 <text class="SVGTextShape"><tspan class="TextParagraph"><tspan class="TextPosition" x="15571" y="17932"><tspan font-family="Liberation Sans, sans-serif" font-size="318px" font-weight="400" fill="rgb(0,0,0)" stroke="none" style="white-space: pre">STREAM Operation</tspan></tspan></tspan></text>
 <text class="SVGTextShape" transform="rotate(-90 825 9969)"><tspan class="TextParagraph"><tspan class="TextPosition" x="825" y="9969"><tspan font-family="Liberation Sans, sans-serif" font-size="318px" font-weight="400" fill="rgb(0,0,0)" stroke="none" style="white-space: pre">GBytes/sec</tspan></tspan></tspan></text>
</svg>