<?xml version="1.0" encoding="UTF-8"?>
<!DOCTYPE svg PUBLIC "-//W3C//DTD SVG 1.1//EN" "http://www.w3.org/Graphics/SVG/1.1/DTD/svg11.dtd">
<svg width="276mm" height="155mm" viewBox="0 0 27600 15500" version="1.1" xmlns="http://www.w3.org/2000/svg" xmlns:xlink="http://www.w3.org/1999/xlink" stroke-width="28.222" stroke-linejoin="round" xml:space="preserve">
 <path fill="rgb(255,255,255)" stroke="none" d="M 13799,15525 L -13,15525 -13,-13 27612,-13 27612,15525 13799,15525 Z "/>
 <path fill="none" stroke="rgb(179,179,179)" stroke-linejoin="round" d="M 14622,13588 L 2184,13588 2184,1280 27060,1280 27060,13588 14622,13588 Z "/>
 <path fill="none" stroke="rgb(179,179,179)" stroke-linejoin="round" d="M 27059,13586 L 2184,13586 "/>
 <path fill="none" stroke="rgb(179,179,179)" stroke-linejoin="round" d="M 27059,11828 L 2184,11828 "/>
 <path fill="none" stroke="rgb(179,179,179)" stroke-linejoin="round" d="M 27059,10070 L 2184,10070 "/>
 <path fill="none" stroke="rgb(179,179,179)" stroke-linejoin="round" d="M 27059,8311 L 2184,8311 "/>
 <path fill="none" stroke="rgb(179,179,179)" stroke-linejoin="round" d="M 27059,6554 L 2184,6554 "/>
 <path fill="none" stroke="rgb(179,179,179)" stroke-linejoin="round" d="M 27059,4795 L 2184,4795 "/>
 <path fill="none" stroke="rgb(179,179,179)" stroke-linejoin="round" d="M 27059,3037 L 2184,3037 "/>
 <path fill="none" stroke="rgb(179,179,179)" stroke-linejoin="round" d="M 27059,1278 L 2184,1278 "/>
 <path fill="none" stroke="rgb(179,179,179)" stroke-linejoin="round" d="M 2184,13736 L 2184,13586 "/>
 <path fill="none" stroke="rgb(179,179,179)" stroke-linejoin="round" d="M 2184,13736 L 2184,13586 "/>
 <path fill="none" stroke="rgb(179,179,179)" stroke-linejoin="round" d="M 8403,13736 L 8403,13586 "/>
 <path fill="none" stroke="rgb(179,179,179)" stroke-linejoin="round" d="M 8403,13736 L 8403,13586 "/>
 <path fill="none" stroke="rgb(179,179,179)" stroke-linejoin="round" d="M 14621,13736 L 14621,13586 "/>
 <path fill="none" stroke="rgb(179,179,179)" stroke-linejoin="round" d="M 14621,13736 L 14621,13586 "/>
 <path fill="none" stroke="rgb(179,179,179)" stroke-linejoin="round" d="M 20840,13736 L 20840,13586 "/>
 <path fill="none" stroke="rgb(179,179,179)" stroke-linejoin="round" d="M 20840,13736 L 20840,13586 "/>
 <path fill="none" stroke="rgb(179,179,179)" stroke-linejoin="round" d="M 27059,13736 L 27059,13586 "/>
 <path fill="none" stroke="rgb(179,179,179)" stroke-linejoin="round" d="M 27059,13736 L 27059,13586 "/>
 <path fill="none" stroke="rgb(179,179,179)" stroke-linejoin="round" d="M 2184,13586 L 27059,13586 "/>
 <path fill="none" stroke="rgb(179,179,179)" stroke-linejoin="round" d="M 2034,13586 L 2184,13586 "/>
 <path fill="none" stroke="rgb(179,179,179)" stroke-linejoin="round" d="M 2034,13586 L 2184,13586 "/>
 <path fill="none" stroke="rgb(179,179,179)" stroke-linejoin="round" d="M 2034,11828 L 2184,11828 "/>
 <path fill="none" stroke="rgb(179,179,179)" stroke-linejoin="round" d="M 2034,11828 L 2184,11828 "/>
 <path fill="none" stroke="rgb(179,179,179)" stroke-linejoin="round" d="M 2034,10070 L 2184,10070 "/>
 <path fill="none" stroke="rgb(179,179,179)" stroke-linejoin="round" d="M 2034,10070 L 2184,10070 "/>
 <path fill="none" stroke="rgb(179,179,179)" stroke-linejoin="round" d="M 2034,8311 L 2184,8311 "/>
 <path fill="none" stroke="rgb(179,179,179)" stroke-linejoin="round" d="M 2034,8311 L 2184,8311 "/>
 <path fill="none" stroke="rgb(179,179,179)" stroke-linejoin="round" d="M 2034,6554 L 2184,6554 "/>
 <path fill="none" stroke="rgb(179,179,179)" stroke-linejoin="round" d="M 2034,6554 L 2184,6554 "/>
 <path fill="none" stroke="rgb(179,179,179)" stroke-linejoin="round" d="M 2034,4795 L 2184,4795 "/>
 <path fill="none" stroke="rgb(179,179,179)" stroke-linejoin="round" d="M 2034,4795 L 2184,4795 "/>
 <path fill="none" stroke="rgb(179,179,179)" stroke-linejoin="round" d="M 2034,3037 L 2184,3037 "/>
 <path fill="none" stroke="rgb(179,179,179)" stroke-linejoin="round" d="M 2034,3037 L 2184,3037 "/>
 <path fill="none" stroke="rgb(179,179,179)" stroke-linejoin="round" d="M 2034,1278 L 2184,1278 "/>
 <path fill="none" stroke="rgb(179,179,179)" stroke-linejoin="round" d="M 2034,1278 L 2184,1278 "/>
 <path fill="none" stroke="rgb(179,179,179)" stroke-linejoin="round" d="M 2184,13586 L 2184,1278 "/>
 <path fill="rgb(0,69,134)" stroke="none" d="M 2961,13586 L 4516,13586 4516,3439 2961,3439 2961,13586 Z "/>
 <path fill="rgb(0,69,134)" stroke="none" d="M 9180,13586 L 10735,13586 10735,9470 9180,9470 9180,13586 Z "/>
 <path fill="rgb(0,69,134)" stroke="none" d="M 15398,13586 L 16953,13586 16953,8410 15398,8410 15398,13586 Z "/>
 <path fill="rgb(0,69,134)" stroke="none" d="M 21618,13586 L 23172,13586 23172,8353 21618,8353 21618,13586 Z "/>
 <path fill="rgb(255,66,14)" stroke="none" d="M 4516,13586 L 6071,13586 6071,3415 4516,3415 4516,13586 Z "/>
 <path fill="rgb(255,66,14)" stroke="none" d="M 10735,13586 L 12290,13586 12290,9562 10735,9562 10735,13586 Z "/>
 <path fill="rgb(255,66,14)" stroke="none" d="M 16953,13586 L 18508,13586 18508,8496 16953,8496 16953,13586 Z "/>
 <path fill="rgb(255,66,14)" stroke="none" d="M 23172,13586 L 24727,13586 24727,8428 23172,8428 23172,13586 Z "/>
 <path fill="rgb(255,211,32)" stroke="none" d="M 6071,13586 L 7625,13586 7625,3503 6071,3503 6071,13586 Z "/>
 <path fill="rgb(255,211,32)" stroke="none" d="M 12290,13586 L 13844,13586 13844,9544 12290,9544 12290,13586 Z "/>
 <path fill="rgb(255,211,32)" stroke="none" d="M 18508,13586 L 20063,13586 20063,8478 18508,8478 18508,13586 Z "/>
 <path fill="rgb(255,211,32)" stroke="none" d="M 24727,13586 L 26282,13586 26282,8445 24727,8445 24727,13586 Z "/>
 <text class="SVGTextShape"><tspan class="TextParagraph"><tspan class="TextPosition" x="4892" y="14154"><tspan font-family="Liberation Sans, sans-serif" font-size="353px" font-weight="400" fill="rgb(0,0,0)" stroke="none" style="white-space: pre">Copy</tspan></tspan></tspan></text>
 <text class="SVGTextShape"><tspan class="TextParagraph"><tspan class="TextPosition" x="11083" y="14154"><tspan font-family="Liberation Sans, sans-serif" font-size="353px" font-weight="400" fill="rgb(0,0,0)" stroke="none" style="white-space: pre">Scale</tspan></tspan></tspan></text>
 <text class="SVGTextShape"><tspan class="TextParagraph"><tspan class="TextPosition" x="17426" y="14154"><tspan font-family="Liberation Sans, sans-serif" font-size="353px" font-weight="400" fill="rgb(0,0,0)" stroke="none" style="white-space: pre">Add</tspan></tspan></tspan></text>
 <text class="SVGTextShape"><tspan class="TextParagraph"><tspan class="TextPosition" x="23559" y="14154"><tspan font-family="Liberation Sans, sans-serif" font-size="353px" font-weight="400" fill="rgb(0,0,0)" stroke="none" style="white-space: pre">Triad</tspan></tspan></tspan></text>
 <text class="SVGTextShape"><tspan class="TextParagraph"><tspan class="TextPosition" x="1551" y="13707"><tspan font-family="Liberation Sans, sans-serif" font-size="353px" font-weight="400" fill="rgb(0,0,0)" stroke="none" style="white-space: pre">34</tspan></tspan></tspan></text>
 <text class="SVGTextShape"><tspan class="TextParagraph"><tspan class="TextPosition" x="1551" y="11949"><tspan font-family="Liberation Sans, sans-serif" font-size="353px" font-weight="400" fill="rgb(0,0,0)" stroke="none" style="white-space: pre">36</tspan></tspan></tspan></text>
 <text class="SVGTextShape"><tspan class="TextParagraph"><tspan class="TextPosition" x="1551" y="10191"><tspan font-family="Liberation Sans, sans-serif" font-size="353px" font-weight="400" fill="rgb(0,0,0)" stroke="none" style="white-space: pre">38</tspan></tspan></tspan></text>
 <text class="SVGTextShape"><tspan class="TextParagraph"><tspan class="TextPosition" x="1551" y="8432"><tspan font-family="Liberation Sans, sans-serif" font-size="353px" font-weight="400" fill="rgb(0,0,0)" stroke="none" style="white-space: pre">40</tspan></tspan></tspan></text>
 <text class="SVGTextShape"><tspan class="TextParagraph"><tspan class="TextPosition" x="1551" y="6675"><tspan font-family="Liberation Sans, sans-serif" font-size="353px" font-weight="400" fill="rgb(0,0,0)" stroke="none" style="white-space: pre">42</tspan></tspan></tspan></text>
 <text class="SVGTextShape"><tspan class="TextParagraph"><tspan class="TextPosition" x="1551" y="4916"><tspan font-family="Liberation Sans, sans-serif" font-size="353px" font-weight="400" fill="rgb(0,0,0)" stroke="none" style="white-space: pre">44</tspan></tspan></tspan></text>
 <text class="SVGTextShape"><tspan class="TextParagraph"><tspan class="TextPosition" x="1551" y="3158"><tspan font-family="Liberation Sans, sans-serif" font-size="353px" font-weight="400" fill="rgb(0,0,0)" stroke="none" style="white-space: pre">46</tspan></tspan></tspan></text>
 <text class="SVGTextShape"><tspan class="TextParagraph"><tspan class="TextPosition" x="1551" y="1399"><tspan font-family="Liberation Sans, sans-serif" font-size="353px" font-weight="400" fill="rgb(0,0,0)" stroke="none" style="white-space: pre">48</tspan></tspan></tspan></text>
 <path fill="rgb(0,69,134)" stroke="none" d="M 11186,576 L 11081,576 11081,365 11292,365 11292,576 11186,576 Z "/>
 <path fill="rgb(255,66,14)" stroke="none" d="M 13815,576 L 13710,576 13710,365 13920,365 13920,576 13815,576 Z "/>
 <path fill="rgb(255,211,32)" stroke="none" d="M 15048,576 L 14942,576 14942,365 15153,365 15153,576 15048,576 Z "/>
 <text class="SVGTextShape"><tspan class="TextParagraph"><tspan class="TextPosition" x="11392" y="590"><tspan font-family="Liberation Sans, sans-serif" font-size="353px" font-weight="400" fill="rgb(0,0,0)" stroke="none" style="white-space: pre">not encrypted</tspan></tspan></tspan></text>
 <text class="SVGTextShape"><tspan class="TextParagraph"><tspan class="TextPosition" x="14020" y="590"><tspan font-family="Liberation Sans, sans-serif" font-size="353px" font-weight="400" fill="rgb(0,0,0)" stroke="none" style="white-space: pre">SEV</tspan></tspan></tspan></text>
 <text class="SVGTextShape"><tspan class="TextParagraph"><tspan class="TextPosition" x="15253" y="590"><tspan font-family="Liberation Sans, sans-serif" font-size="353px" font-weight="400" fill="rgb(0,0,0)" stroke="none" style="white-space: pre">SEV-ES</tspan></tspan></tspan></text>
 <text class="SVGTextShape"><tspan class="TextParagraph"><tspan class="TextPosition" x="12824" y="14931"><tspan font-family="Liberation Sans, sans-serif" font-size="318px" font-weight="400" fill="rgb(0,0,0)" stroke="none" style="white-space: pre">STREAM Operations</tspan></tspan></tspan></text>
 <text class="SVGTextShape" transform="rotate(-90 825 8468)"><tspan class="TextParagraph"><tspan class="TextPosition" x="825" y="8468"><tspan font-family="Liberation Sans, sans-serif" font-size="318px" font-weight="400" fill="rgb(0,0,0)" stroke="none" style="white-space: pre">GBytes/sec</tspan></tspan></tspan></text>
</svg>