<?xml version="1.0" encoding="UTF-8"?>
<!DOCTYPE svg PUBLIC "-//W3C//DTD SVG 1.1//EN" "http://www.w3.org/Graphics/SVG/1.1/DTD/svg11.dtd">
<svg width="266mm" height="150mm" viewBox="0 0 26600 15000" version="1.1" xmlns="http://www.w3.org/2000/svg" xmlns:xlink="http://www.w3.org/1999/xlink" stroke-width="28.222" stroke-linejoin="round" xml:space="preserve">
 <path fill="rgb(255,255,255)" stroke="none" d="M 13286,14947 L -13,14947 -13,-13 26584,-13 26584,14947 13286,14947 Z "/>
 <path fill="none" stroke="rgb(179,179,179)" stroke-linejoin="round" d="M 14203,14001 L 2354,14001 2354,1268 26053,1268 26053,14001 14203,14001 Z "/>
 <path fill="none" stroke="rgb(179,179,179)" stroke-linejoin="round" d="M 26053,14000 L 2354,14000 "/>
 <path fill="none" stroke="rgb(179,179,179)" stroke-linejoin="round" d="M 26053,12726 L 2354,12726 "/>
 <path fill="none" stroke="rgb(179,179,179)" stroke-linejoin="round" d="M 26053,11453 L 2354,11453 "/>
 <path fill="none" stroke="rgb(179,179,179)" stroke-linejoin="round" d="M 26053,10179 L 2354,10179 "/>
 <path fill="none" stroke="rgb(179,179,179)" stroke-linejoin="round" d="M 26053,8906 L 2354,8906 "/>
 <path fill="none" stroke="rgb(179,179,179)" stroke-linejoin="round" d="M 26053,7633 L 2354,7633 "/>
 <path fill="none" stroke="rgb(179,179,179)" stroke-linejoin="round" d="M 26053,6360 L 2354,6360 "/>
 <path fill="none" stroke="rgb(179,179,179)" stroke-linejoin="round" d="M 26053,5087 L 2354,5087 "/>
 <path fill="none" stroke="rgb(179,179,179)" stroke-linejoin="round" d="M 26053,3813 L 2354,3813 "/>
 <path fill="none" stroke="rgb(179,179,179)" stroke-linejoin="round" d="M 26053,2540 L 2354,2540 "/>
 <path fill="none" stroke="rgb(179,179,179)" stroke-linejoin="round" d="M 26053,1267 L 2354,1267 "/>
 <path fill="none" stroke="rgb(179,179,179)" stroke-linejoin="round" d="M 2354,14150 L 2354,14000 "/>
 <path fill="none" stroke="rgb(179,179,179)" stroke-linejoin="round" d="M 2354,14150 L 2354,14000 "/>
 <path fill="none" stroke="rgb(179,179,179)" stroke-linejoin="round" d="M 5739,14150 L 5739,14000 "/>
 <path fill="none" stroke="rgb(179,179,179)" stroke-linejoin="round" d="M 5739,14150 L 5739,14000 "/>
 <path fill="none" stroke="rgb(179,179,179)" stroke-linejoin="round" d="M 9125,14150 L 9125,14000 "/>
 <path fill="none" stroke="rgb(179,179,179)" stroke-linejoin="round" d="M 9125,14150 L 9125,14000 "/>
 <path fill="none" stroke="rgb(179,179,179)" stroke-linejoin="round" d="M 12511,14150 L 12511,14000 "/>
 <path fill="none" stroke="rgb(179,179,179)" stroke-linejoin="round" d="M 12511,14150 L 12511,14000 "/>
 <path fill="none" stroke="rgb(179,179,179)" stroke-linejoin="round" d="M 15895,14150 L 15895,14000 "/>
 <path fill="none" stroke="rgb(179,179,179)" stroke-linejoin="round" d="M 15895,14150 L 15895,14000 "/>
 <path fill="none" stroke="rgb(179,179,179)" stroke-linejoin="round" d="M 19281,14150 L 19281,14000 "/>
 <path fill="none" stroke="rgb(179,179,179)" stroke-linejoin="round" d="M 19281,14150 L 19281,14000 "/>
 <path fill="none" stroke="rgb(179,179,179)" stroke-linejoin="round" d="M 22667,14150 L 22667,14000 "/>
 <path fill="none" stroke="rgb(179,179,179)" stroke-linejoin="round" d="M 22667,14150 L 22667,14000 "/>
 <path fill="none" stroke="rgb(179,179,179)" stroke-linejoin="round" d="M 26053,14150 L 26053,14000 "/>
 <path fill="none" stroke="rgb(179,179,179)" stroke-linejoin="round" d="M 26053,14150 L 26053,14000 "/>
 <path fill="none" stroke="rgb(179,179,179)" stroke-linejoin="round" d="M 2354,14000 L 26053,14000 "/>
 <path fill="none" stroke="rgb(179,179,179)" stroke-linejoin="round" d="M 2204,14000 L 2354,14000 "/>
 <path fill="none" stroke="rgb(179,179,179)" stroke-linejoin="round" d="M 2204,14000 L 2354,14000 "/>
 <path fill="none" stroke="rgb(179,179,179)" stroke-linejoin="round" d="M 2204,12726 L 2354,12726 "/>
 <path fill="none" stroke="rgb(179,179,179)" stroke-linejoin="round" d="M 2204,12726 L 2354,12726 "/>
 <path fill="none" stroke="rgb(179,179,179)" stroke-linejoin="round" d="M 2204,11453 L 2354,11453 "/>
 <path fill="none" stroke="rgb(179,179,179)" stroke-linejoin="round" d="M 2204,11453 L 2354,11453 "/>
 <path fill="none" stroke="rgb(179,179,179)" stroke-linejoin="round" d="M 2204,10179 L 2354,10179 "/>
 <path fill="none" stroke="rgb(179,179,179)" stroke-linejoin="round" d="M 2204,10179 L 2354,10179 "/>
 <path fill="none" stroke="rgb(179,179,179)" stroke-linejoin="round" d="M 2204,8906 L 2354,8906 "/>
 <path fill="none" stroke="rgb(179,179,179)" stroke-linejoin="round" d="M 2204,8906 L 2354,8906 "/>
 <path fill="none" stroke="rgb(179,179,179)" stroke-linejoin="round" d="M 2204,7633 L 2354,7633 "/>
 <path fill="none" stroke="rgb(179,179,179)" stroke-linejoin="round" d="M 2204,7633 L 2354,7633 "/>
 <path fill="none" stroke="rgb(179,179,179)" stroke-linejoin="round" d="M 2204,6360 L 2354,6360 "/>
 <path fill="none" stroke="rgb(179,179,179)" stroke-linejoin="round" d="M 2204,6360 L 2354,6360 "/>
 <path fill="none" stroke="rgb(179,179,179)" stroke-linejoin="round" d="M 2204,5087 L 2354,5087 "/>
 <path fill="none" stroke="rgb(179,179,179)" stroke-linejoin="round" d="M 2204,5087 L 2354,5087 "/>
 <path fill="none" stroke="rgb(179,179,179)" stroke-linejoin="round" d="M 2204,3813 L 2354,3813 "/>
 <path fill="none" stroke="rgb(179,179,179)" stroke-linejoin="round" d="M 2204,3813 L 2354,3813 "/>
 <path fill="none" stroke="rgb(179,179,179)" stroke-linejoin="round" d="M 2204,2540 L 2354,2540 "/>
 <path fill="none" stroke="rgb(179,179,179)" stroke-linejoin="round" d="M 2204,2540 L 2354,2540 "/>
 <path fill="none" stroke="rgb(179,179,179)" stroke-linejoin="round" d="M 2204,1267 L 2354,1267 "/>
 <path fill="none" stroke="rgb(179,179,179)" stroke-linejoin="round" d="M 2204,1267 L 2354,1267 "/>
 <path fill="none" stroke="rgb(179,179,179)" stroke-linejoin="round" d="M 2354,14000 L 2354,1267 "/>
 <path fill="rgb(0,69,134)" stroke="none" d="M 2918,14000 L 4046,14000 4046,6390 2918,6390 2918,14000 Z "/>
 <path fill="rgb(0,69,134)" stroke="none" d="M 6304,14000 L 7432,14000 7432,10838 6304,10838 6304,14000 Z "/>
 <path fill="rgb(0,69,134)" stroke="none" d="M 9689,14000 L 10818,14000 10818,13673 9689,13673 9689,14000 Z "/>
 <path fill="rgb(0,69,134)" stroke="none" d="M 13075,14000 L 14203,14000 14203,13868 13075,13868 13075,14000 Z "/>
 <path fill="rgb(0,69,134)" stroke="none" d="M 16460,14000 L 17588,14000 17588,9141 16460,9141 16460,14000 Z "/>
 <path fill="rgb(0,69,134)" stroke="none" d="M 19845,14000 L 20974,14000 20974,13198 19845,13198 19845,14000 Z "/>
 <path fill="rgb(0,69,134)" stroke="none" d="M 23231,14000 L 24360,14000 24360,3387 23231,3387 23231,14000 Z "/>
 <path fill="rgb(255,66,14)" stroke="none" d="M 4046,14000 L 5175,14000 5175,5347 4046,5347 4046,14000 Z "/>
 <path fill="rgb(255,66,14)" stroke="none" d="M 7432,14000 L 8561,14000 8561,10348 7432,10348 7432,14000 Z "/>
 <path fill="rgb(255,66,14)" stroke="none" d="M 10818,14000 L 11946,14000 11946,13588 10818,13588 10818,14000 Z "/>
 <path fill="rgb(255,66,14)" stroke="none" d="M 14203,14000 L 15331,14000 15331,13858 14203,13858 14203,14000 Z "/>
 <path fill="rgb(255,66,14)" stroke="none" d="M 17588,14000 L 18717,14000 18717,8673 17588,8673 17588,14000 Z "/>
 <path fill="rgb(255,66,14)" stroke="none" d="M 20974,14000 L 22103,14000 22103,13109 20974,13109 20974,14000 Z "/>
 <path fill="rgb(255,66,14)" stroke="none" d="M 24360,14000 L 25488,14000 25488,2328 24360,2328 24360,14000 Z "/>
 <text class="SVGTextShape"><tspan class="TextParagraph"><tspan class="TextPosition" x="3731" y="14568"><tspan font-family="Liberation Sans, sans-serif" font-size="353px" font-weight="400" fill="rgb(0,0,0)" stroke="none" style="white-space: pre">bt.D</tspan></tspan></tspan></text>
 <text class="SVGTextShape"><tspan class="TextParagraph"><tspan class="TextPosition" x="7079" y="14568"><tspan font-family="Liberation Sans, sans-serif" font-size="353px" font-weight="400" fill="rgb(0,0,0)" stroke="none" style="white-space: pre">cg.D</tspan></tspan></tspan></text>
 <text class="SVGTextShape"><tspan class="TextParagraph"><tspan class="TextPosition" x="10455" y="14568"><tspan font-family="Liberation Sans, sans-serif" font-size="353px" font-weight="400" fill="rgb(0,0,0)" stroke="none" style="white-space: pre">ep.D</tspan></tspan></tspan></text>
 <text class="SVGTextShape"><tspan class="TextParagraph"><tspan class="TextPosition" x="13908" y="14568"><tspan font-family="Liberation Sans, sans-serif" font-size="353px" font-weight="400" fill="rgb(0,0,0)" stroke="none" style="white-space: pre">is.D</tspan></tspan></tspan></text>
 <text class="SVGTextShape"><tspan class="TextParagraph"><tspan class="TextPosition" x="17283" y="14568"><tspan font-family="Liberation Sans, sans-serif" font-size="353px" font-weight="400" fill="rgb(0,0,0)" stroke="none" style="white-space: pre">lu.D</tspan></tspan></tspan></text>
 <text class="SVGTextShape"><tspan class="TextParagraph"><tspan class="TextPosition" x="20564" y="14568"><tspan font-family="Liberation Sans, sans-serif" font-size="353px" font-weight="400" fill="rgb(0,0,0)" stroke="none" style="white-space: pre">mg.D</tspan></tspan></tspan></text>
 <text class="SVGTextShape"><tspan class="TextParagraph"><tspan class="TextPosition" x="24007" y="14568"><tspan font-family="Liberation Sans, sans-serif" font-size="353px" font-weight="400" fill="rgb(0,0,0)" stroke="none" style="white-space: pre">sp.D</tspan></tspan></tspan></text>
 <text class="SVGTextShape"><tspan class="TextParagraph"><tspan class="TextPosition" x="1913" y="14121"><tspan font-family="Liberation Sans, sans-serif" font-size="353px" font-weight="400" fill="rgb(0,0,0)" stroke="none" style="white-space: pre">0</tspan></tspan></tspan></text>
 <text class="SVGTextShape"><tspan class="TextParagraph"><tspan class="TextPosition" x="1721" y="12847"><tspan font-family="Liberation Sans, sans-serif" font-size="353px" font-weight="400" fill="rgb(0,0,0)" stroke="none" style="white-space: pre">20</tspan></tspan></tspan></text>
 <text class="SVGTextShape"><tspan class="TextParagraph"><tspan class="TextPosition" x="1721" y="11574"><tspan font-family="Liberation Sans, sans-serif" font-size="353px" font-weight="400" fill="rgb(0,0,0)" stroke="none" style="white-space: pre">40</tspan></tspan></tspan></text>
 <text class="SVGTextShape"><tspan class="TextParagraph"><tspan class="TextPosition" x="1721" y="10300"><tspan font-family="Liberation Sans, sans-serif" font-size="353px" font-weight="400" fill="rgb(0,0,0)" stroke="none" style="white-space: pre">60</tspan></tspan></tspan></text>
 <text class="SVGTextShape"><tspan class="TextParagraph"><tspan class="TextPosition" x="1721" y="9027"><tspan font-family="Liberation Sans, sans-serif" font-size="353px" font-weight="400" fill="rgb(0,0,0)" stroke="none" style="white-space: pre">80</tspan></tspan></tspan></text>
 <text class="SVGTextShape"><tspan class="TextParagraph"><tspan class="TextPosition" x="1530" y="7754"><tspan font-family="Liberation Sans, sans-serif" font-size="353px" font-weight="400" fill="rgb(0,0,0)" stroke="none" style="white-space: pre">100</tspan></tspan></tspan></text>
 <text class="SVGTextShape"><tspan class="TextParagraph"><tspan class="TextPosition" x="1530" y="6481"><tspan font-family="Liberation Sans, sans-serif" font-size="353px" font-weight="400" fill="rgb(0,0,0)" stroke="none" style="white-space: pre">120</tspan></tspan></tspan></text>
 <text class="SVGTextShape"><tspan class="TextParagraph"><tspan class="TextPosition" x="1530" y="5208"><tspan font-family="Liberation Sans, sans-serif" font-size="353px" font-weight="400" fill="rgb(0,0,0)" stroke="none" style="white-space: pre">140</tspan></tspan></tspan></text>
 <text class="SVGTextShape"><tspan class="TextParagraph"><tspan class="TextPosition" x="1530" y="3934"><tspan font-family="Liberation Sans, sans-serif" font-size="353px" font-weight="400" fill="rgb(0,0,0)" stroke="none" style="white-space: pre">160</tspan></tspan></tspan></text>
 <text class="SVGTextShape"><tspan class="TextParagraph"><tspan class="TextPosition" x="1530" y="2661"><tspan font-family="Liberation Sans, sans-serif" font-size="353px" font-weight="400" fill="rgb(0,0,0)" stroke="none" style="white-space: pre">180</tspan></tspan></tspan></text>
 <text class="SVGTextShape"><tspan class="TextParagraph"><tspan class="TextPosition" x="1530" y="1388"><tspan font-family="Liberation Sans, sans-serif" font-size="353px" font-weight="400" fill="rgb(0,0,0)" stroke="none" style="white-space: pre">200</tspan></tspan></tspan></text>
 <path fill="rgb(0,69,134)" stroke="none" d="M 11519,576 L 11414,576 11414,365 11625,365 11625,576 11519,576 Z "/>
 <path fill="rgb(255,66,14)" stroke="none" d="M 14147,576 L 14041,576 14041,365 14252,365 14252,576 14147,576 Z "/>
 <text class="SVGTextShape"><tspan class="TextParagraph"><tspan class="TextPosition" x="11725" y="590"><tspan font-family="Liberation Sans, sans-serif" font-size="353px" font-weight="400" fill="rgb(0,0,0)" stroke="none" style="white-space: pre">BAREMETAL</tspan></tspan></tspan></text>
 <text class="SVGTextShape"><tspan class="TextParagraph"><tspan class="TextPosition" x="14352" y="590"><tspan font-family="Liberation Sans, sans-serif" font-size="353px" font-weight="400" fill="rgb(0,0,0)" stroke="none" style="white-space: pre">1 VM</tspan></tspan></tspan></text>
 <text class="SVGTextShape" transform="rotate(-90 825 8608)"><tspan class="TextParagraph"><tspan class="TextPosition" x="825" y="8608"><tspan font-family="Liberation Sans, sans-serif" font-size="318px" font-weight="400" fill="rgb(0,0,0)" stroke="none" style="white-space: pre">Time (sec)</tspan></tspan></tspan></text>
 <text class="SVGTextShape"><tspan class="TextParagraph"><tspan class="TextPosition" x="13166" y="7610"><tspan font-family="Liberation Serif, serif" font-size="423px" font-weight="400" fill="rgb(255,255,255)" stroke="none" style="white-space: pre">=</tspan></tspan></tspan></text>
</svg>