<?xml version="1.0" encoding="UTF-8"?>
<!DOCTYPE svg PUBLIC "-//W3C//DTD SVG 1.1//EN" "http://www.w3.org/Graphics/SVG/1.1/DTD/svg11.dtd">
<svg width="228mm" height="128mm" viewBox="0 0 22800 12800" version="1.1" xmlns="http://www.w3.org/2000/svg" xmlns:xlink="http://www.w3.org/1999/xlink" stroke-width="28.222" stroke-linejoin="round" xml:space="preserve">
 <path fill="rgb(255,255,255)" stroke="none" d="M 11390,12815 L -13,12815 -13,-13 22793,-13 22793,12815 11390,12815 Z "/>
 <path fill="none" stroke="rgb(179,179,179)" stroke-linejoin="round" d="M 12308,10931 L 2279,10931 2279,1225 22337,1225 22337,10931 12308,10931 Z "/>
 <path fill="none" stroke="rgb(179,179,179)" stroke-linejoin="round" d="M 22337,10930 L 2279,10930 "/>
 <path fill="none" stroke="rgb(179,179,179)" stroke-linejoin="round" d="M 22337,9543 L 2279,9543 "/>
 <path fill="none" stroke="rgb(179,179,179)" stroke-linejoin="round" d="M 22337,8156 L 2279,8156 "/>
 <path fill="none" stroke="rgb(179,179,179)" stroke-linejoin="round" d="M 22337,6769 L 2279,6769 "/>
 <path fill="none" stroke="rgb(179,179,179)" stroke-linejoin="round" d="M 22337,5384 L 2279,5384 "/>
 <path fill="none" stroke="rgb(179,179,179)" stroke-linejoin="round" d="M 22337,3997 L 2279,3997 "/>
 <path fill="none" stroke="rgb(179,179,179)" stroke-linejoin="round" d="M 22337,2610 L 2279,2610 "/>
 <path fill="none" stroke="rgb(179,179,179)" stroke-linejoin="round" d="M 22337,1224 L 2279,1224 "/>
 <path fill="none" stroke="rgb(179,179,179)" stroke-linejoin="round" d="M 2279,11080 L 2279,10930 "/>
 <path fill="none" stroke="rgb(179,179,179)" stroke-linejoin="round" d="M 2279,11080 L 2279,10930 "/>
 <path fill="none" stroke="rgb(179,179,179)" stroke-linejoin="round" d="M 7293,11080 L 7293,10930 "/>
 <path fill="none" stroke="rgb(179,179,179)" stroke-linejoin="round" d="M 7293,11080 L 7293,10930 "/>
 <path fill="none" stroke="rgb(179,179,179)" stroke-linejoin="round" d="M 12307,11080 L 12307,10930 "/>
 <path fill="none" stroke="rgb(179,179,179)" stroke-linejoin="round" d="M 12307,11080 L 12307,10930 "/>
 <path fill="none" stroke="rgb(179,179,179)" stroke-linejoin="round" d="M 17322,11080 L 17322,10930 "/>
 <path fill="none" stroke="rgb(179,179,179)" stroke-linejoin="round" d="M 17322,11080 L 17322,10930 "/>
 <path fill="none" stroke="rgb(179,179,179)" stroke-linejoin="round" d="M 22337,11080 L 22337,10930 "/>
 <path fill="none" stroke="rgb(179,179,179)" stroke-linejoin="round" d="M 22337,11080 L 22337,10930 "/>
 <path fill="none" stroke="rgb(179,179,179)" stroke-linejoin="round" d="M 2279,10930 L 22337,10930 "/>
 <path fill="none" stroke="rgb(179,179,179)" stroke-linejoin="round" d="M 2129,10930 L 2279,10930 "/>
 <path fill="none" stroke="rgb(179,179,179)" stroke-linejoin="round" d="M 2129,10930 L 2279,10930 "/>
 <path fill="none" stroke="rgb(179,179,179)" stroke-linejoin="round" d="M 2129,9543 L 2279,9543 "/>
 <path fill="none" stroke="rgb(179,179,179)" stroke-linejoin="round" d="M 2129,9543 L 2279,9543 "/>
 <path fill="none" stroke="rgb(179,179,179)" stroke-linejoin="round" d="M 2129,8156 L 2279,8156 "/>
 <path fill="none" stroke="rgb(179,179,179)" stroke-linejoin="round" d="M 2129,8156 L 2279,8156 "/>
 <path fill="none" stroke="rgb(179,179,179)" stroke-linejoin="round" d="M 2129,6769 L 2279,6769 "/>
 <path fill="none" stroke="rgb(179,179,179)" stroke-linejoin="round" d="M 2129,6769 L 2279,6769 "/>
 <path fill="none" stroke="rgb(179,179,179)" stroke-linejoin="round" d="M 2129,5384 L 2279,5384 "/>
 <path fill="none" stroke="rgb(179,179,179)" stroke-linejoin="round" d="M 2129,5384 L 2279,5384 "/>
 <path fill="none" stroke="rgb(179,179,179)" stroke-linejoin="round" d="M 2129,3997 L 2279,3997 "/>
 <path fill="none" stroke="rgb(179,179,179)" stroke-linejoin="round" d="M 2129,3997 L 2279,3997 "/>
 <path fill="none" stroke="rgb(179,179,179)" stroke-linejoin="round" d="M 2129,2610 L 2279,2610 "/>
 <path fill="none" stroke="rgb(179,179,179)" stroke-linejoin="round" d="M 2129,2610 L 2279,2610 "/>
 <path fill="none" stroke="rgb(179,179,179)" stroke-linejoin="round" d="M 2129,1224 L 2279,1224 "/>
 <path fill="none" stroke="rgb(179,179,179)" stroke-linejoin="round" d="M 2129,1224 L 2279,1224 "/>
 <path fill="none" stroke="rgb(179,179,179)" stroke-linejoin="round" d="M 2279,10930 L 2279,1224 "/>
 <path fill="rgb(0,69,134)" stroke="none" d="M 2905,10930 L 4159,10930 4159,2136 2905,2136 2905,10930 Z "/>
 <path fill="rgb(0,69,134)" stroke="none" d="M 7920,10930 L 9174,10930 9174,4731 7920,4731 7920,10930 Z "/>
 <path fill="rgb(0,69,134)" stroke="none" d="M 12934,10930 L 14188,10930 14188,3990 12934,3990 12934,10930 Z "/>
 <path fill="rgb(0,69,134)" stroke="none" d="M 17949,10930 L 19202,10930 19202,3874 17949,3874 17949,10930 Z "/>
 <path fill="rgb(255,66,14)" stroke="none" d="M 4159,10930 L 5413,10930 5413,2249 4159,2249 4159,10930 Z "/>
 <path fill="rgb(255,66,14)" stroke="none" d="M 9174,10930 L 10427,10930 10427,4845 9174,4845 9174,10930 Z "/>
 <path fill="rgb(255,66,14)" stroke="none" d="M 14188,10930 L 15441,10930 15441,4058 14188,4058 14188,10930 Z "/>
 <path fill="rgb(255,66,14)" stroke="none" d="M 19202,10930 L 20456,10930 20456,3946 19202,3946 19202,10930 Z "/>
 <path fill="rgb(255,211,32)" stroke="none" d="M 5413,10930 L 6666,10930 6666,2274 5413,2274 5413,10930 Z "/>
 <path fill="rgb(255,211,32)" stroke="none" d="M 10427,10930 L 11680,10930 11680,4868 10427,4868 10427,10930 Z "/>
 <path fill="rgb(255,211,32)" stroke="none" d="M 15441,10930 L 16695,10930 16695,4080 15441,4080 15441,10930 Z "/>
 <path fill="rgb(255,211,32)" stroke="none" d="M 20456,10930 L 21710,10930 21710,3966 20456,3966 20456,10930 Z "/>
 <text class="SVGTextShape"><tspan class="TextParagraph"><tspan class="TextPosition" x="4385" y="11498"><tspan font-family="Liberation Sans, sans-serif" font-size="353px" font-weight="400" fill="rgb(0,0,0)" stroke="none" style="white-space: pre">Copy</tspan></tspan></tspan></text>
 <text class="SVGTextShape"><tspan class="TextParagraph"><tspan class="TextPosition" x="9372" y="11498"><tspan font-family="Liberation Sans, sans-serif" font-size="353px" font-weight="400" fill="rgb(0,0,0)" stroke="none" style="white-space: pre">Scale</tspan></tspan></tspan></text>
 <text class="SVGTextShape"><tspan class="TextParagraph"><tspan class="TextPosition" x="14509" y="11498"><tspan font-family="Liberation Sans, sans-serif" font-size="353px" font-weight="400" fill="rgb(0,0,0)" stroke="none" style="white-space: pre">Add</tspan></tspan></tspan></text>
 <text class="SVGTextShape"><tspan class="TextParagraph"><tspan class="TextPosition" x="19438" y="11498"><tspan font-family="Liberation Sans, sans-serif" font-size="353px" font-weight="400" fill="rgb(0,0,0)" stroke="none" style="white-space: pre">Triad</tspan></tspan></tspan></text>
 <text class="SVGTextShape"><tspan class="TextParagraph"><tspan class="TextPosition" x="1838" y="11051"><tspan font-family="Liberation Sans, sans-serif" font-size="353px" font-weight="400" fill="rgb(0,0,0)" stroke="none" style="white-space: pre">0</tspan></tspan></tspan></text>
 <text class="SVGTextShape"><tspan class="TextParagraph"><tspan class="TextPosition" x="1646" y="9664"><tspan font-family="Liberation Sans, sans-serif" font-size="353px" font-weight="400" fill="rgb(0,0,0)" stroke="none" style="white-space: pre">50</tspan></tspan></tspan></text>
 <text class="SVGTextShape"><tspan class="TextParagraph"><tspan class="TextPosition" x="1455" y="8277"><tspan font-family="Liberation Sans, sans-serif" font-size="353px" font-weight="400" fill="rgb(0,0,0)" stroke="none" style="white-space: pre">100</tspan></tspan></tspan></text>
 <text class="SVGTextShape"><tspan class="TextParagraph"><tspan class="TextPosition" x="1455" y="6890"><tspan font-family="Liberation Sans, sans-serif" font-size="353px" font-weight="400" fill="rgb(0,0,0)" stroke="none" style="white-space: pre">150</tspan></tspan></tspan></text>
 <text class="SVGTextShape"><tspan class="TextParagraph"><tspan class="TextPosition" x="1455" y="5505"><tspan font-family="Liberation Sans, sans-serif" font-size="353px" font-weight="400" fill="rgb(0,0,0)" stroke="none" style="white-space: pre">200</tspan></tspan></tspan></text>
 <text class="SVGTextShape"><tspan class="TextParagraph"><tspan class="TextPosition" x="1455" y="4118"><tspan font-family="Liberation Sans, sans-serif" font-size="353px" font-weight="400" fill="rgb(0,0,0)" stroke="none" style="white-space: pre">250</tspan></tspan></tspan></text>
 <text class="SVGTextShape"><tspan class="TextParagraph"><tspan class="TextPosition" x="1455" y="2731"><tspan font-family="Liberation Sans, sans-serif" font-size="353px" font-weight="400" fill="rgb(0,0,0)" stroke="none" style="white-space: pre">300</tspan></tspan></tspan></text>
 <text class="SVGTextShape"><tspan class="TextParagraph"><tspan class="TextPosition" x="1455" y="1345"><tspan font-family="Liberation Sans, sans-serif" font-size="353px" font-weight="400" fill="rgb(0,0,0)" stroke="none" style="white-space: pre">350</tspan></tspan></tspan></text>
 <path fill="rgb(0,69,134)" stroke="none" d="M 8776,576 L 8671,576 8671,365 8882,365 8882,576 8776,576 Z "/>
 <path fill="rgb(255,66,14)" stroke="none" d="M 11405,576 L 11300,576 11300,365 11510,365 11510,576 11405,576 Z "/>
 <path fill="rgb(255,211,32)" stroke="none" d="M 12638,576 L 12532,576 12532,365 12743,365 12743,576 12638,576 Z "/>
 <text class="SVGTextShape"><tspan class="TextParagraph"><tspan class="TextPosition" x="8982" y="590"><tspan font-family="Liberation Sans, sans-serif" font-size="353px" font-weight="400" fill="rgb(0,0,0)" stroke="none" style="white-space: pre">not encrypted</tspan></tspan></tspan></text>
 <text class="SVGTextShape"><tspan class="TextParagraph"><tspan class="TextPosition" x="11610" y="590"><tspan font-family="Liberation Sans, sans-serif" font-size="353px" font-weight="400" fill="rgb(0,0,0)" stroke="none" style="white-space: pre">SEV</tspan></tspan></tspan></text>
 <text class="SVGTextShape"><tspan class="TextParagraph"><tspan class="TextPosition" x="12843" y="590"><tspan font-family="Liberation Sans, sans-serif" font-size="353px" font-weight="400" fill="rgb(0,0,0)" stroke="none" style="white-space: pre">SEV-ES</tspan></tspan></tspan></text>
 <text class="SVGTextShape"><tspan class="TextParagraph"><tspan class="TextPosition" x="10415" y="12221"><tspan font-family="Liberation Sans, sans-serif" font-size="318px" font-weight="400" fill="rgb(0,0,0)" stroke="none" style="white-space: pre">STREAM Operations</tspan></tspan></tspan></text>
 <text class="SVGTextShape" transform="rotate(-90 825 7113)"><tspan class="TextParagraph"><tspan class="TextPosition" x="825" y="7113"><tspan font-family="Liberation Sans, sans-serif" font-size="318px" font-weight="400" fill="rgb(0,0,0)" stroke="none" style="white-space: pre">GBytes/sec</tspan></tspan></tspan></text>
</svg>