<?xml version="1.0" encoding="UTF-8"?>
<!DOCTYPE svg PUBLIC "-//W3C//DTD SVG 1.1//EN" "http://www.w3.org/Graphics/SVG/1.1/DTD/svg11.dtd">
<svg width="206mm" height="116mm" viewBox="0 0 20600 11600" version="1.1" xmlns="http://www.w3.org/2000/svg" xmlns:xlink="http://www.w3.org/1999/xlink" stroke-width="28.222" stroke-linejoin="round" xml:space="preserve">
 <path fill="rgb(255,255,255)" stroke="none" d="M 10305,11594 L -13,11594 -13,-13 20623,-13 20623,11594 10305,11594 Z "/>
 <path fill="none" stroke="rgb(179,179,179)" stroke-linejoin="round" d="M 11223,9734 L 2235,9734 2235,1201 20211,1201 20211,9734 11223,9734 Z "/>
 <path fill="none" stroke="rgb(179,179,179)" stroke-linejoin="round" d="M 20211,9733 L 2235,9733 "/>
 <path fill="none" stroke="rgb(179,179,179)" stroke-linejoin="round" d="M 20211,8666 L 2235,8666 "/>
 <path fill="none" stroke="rgb(179,179,179)" stroke-linejoin="round" d="M 20211,7599 L 2235,7599 "/>
 <path fill="none" stroke="rgb(179,179,179)" stroke-linejoin="round" d="M 20211,6532 L 2235,6532 "/>
 <path fill="none" stroke="rgb(179,179,179)" stroke-linejoin="round" d="M 20211,5467 L 2235,5467 "/>
 <path fill="none" stroke="rgb(179,179,179)" stroke-linejoin="round" d="M 20211,4400 L 2235,4400 "/>
 <path fill="none" stroke="rgb(179,179,179)" stroke-linejoin="round" d="M 20211,3333 L 2235,3333 "/>
 <path fill="none" stroke="rgb(179,179,179)" stroke-linejoin="round" d="M 20211,2266 L 2235,2266 "/>
 <path fill="none" stroke="rgb(179,179,179)" stroke-linejoin="round" d="M 20211,1200 L 2235,1200 "/>
 <path fill="none" stroke="rgb(179,179,179)" stroke-linejoin="round" d="M 2235,9883 L 2235,9733 "/>
 <path fill="none" stroke="rgb(179,179,179)" stroke-linejoin="round" d="M 2235,9883 L 2235,9733 "/>
 <path fill="none" stroke="rgb(179,179,179)" stroke-linejoin="round" d="M 6729,9883 L 6729,9733 "/>
 <path fill="none" stroke="rgb(179,179,179)" stroke-linejoin="round" d="M 6729,9883 L 6729,9733 "/>
 <path fill="none" stroke="rgb(179,179,179)" stroke-linejoin="round" d="M 11222,9883 L 11222,9733 "/>
 <path fill="none" stroke="rgb(179,179,179)" stroke-linejoin="round" d="M 11222,9883 L 11222,9733 "/>
 <path fill="none" stroke="rgb(179,179,179)" stroke-linejoin="round" d="M 15716,9883 L 15716,9733 "/>
 <path fill="none" stroke="rgb(179,179,179)" stroke-linejoin="round" d="M 15716,9883 L 15716,9733 "/>
 <path fill="none" stroke="rgb(179,179,179)" stroke-linejoin="round" d="M 20211,9883 L 20211,9733 "/>
 <path fill="none" stroke="rgb(179,179,179)" stroke-linejoin="round" d="M 20211,9883 L 20211,9733 "/>
 <path fill="none" stroke="rgb(179,179,179)" stroke-linejoin="round" d="M 2235,9733 L 20211,9733 "/>
 <path fill="none" stroke="rgb(179,179,179)" stroke-linejoin="round" d="M 2085,9733 L 2235,9733 "/>
 <path fill="none" stroke="rgb(179,179,179)" stroke-linejoin="round" d="M 2085,9733 L 2235,9733 "/>
 <path fill="none" stroke="rgb(179,179,179)" stroke-linejoin="round" d="M 2085,8666 L 2235,8666 "/>
 <path fill="none" stroke="rgb(179,179,179)" stroke-linejoin="round" d="M 2085,8666 L 2235,8666 "/>
 <path fill="none" stroke="rgb(179,179,179)" stroke-linejoin="round" d="M 2085,7599 L 2235,7599 "/>
 <path fill="none" stroke="rgb(179,179,179)" stroke-linejoin="round" d="M 2085,7599 L 2235,7599 "/>
 <path fill="none" stroke="rgb(179,179,179)" stroke-linejoin="round" d="M 2085,6532 L 2235,6532 "/>
 <path fill="none" stroke="rgb(179,179,179)" stroke-linejoin="round" d="M 2085,6532 L 2235,6532 "/>
 <path fill="none" stroke="rgb(179,179,179)" stroke-linejoin="round" d="M 2085,5467 L 2235,5467 "/>
 <path fill="none" stroke="rgb(179,179,179)" stroke-linejoin="round" d="M 2085,5467 L 2235,5467 "/>
 <path fill="none" stroke="rgb(179,179,179)" stroke-linejoin="round" d="M 2085,4400 L 2235,4400 "/>
 <path fill="none" stroke="rgb(179,179,179)" stroke-linejoin="round" d="M 2085,4400 L 2235,4400 "/>
 <path fill="none" stroke="rgb(179,179,179)" stroke-linejoin="round" d="M 2085,3333 L 2235,3333 "/>
 <path fill="none" stroke="rgb(179,179,179)" stroke-linejoin="round" d="M 2085,3333 L 2235,3333 "/>
 <path fill="none" stroke="rgb(179,179,179)" stroke-linejoin="round" d="M 2085,2266 L 2235,2266 "/>
 <path fill="none" stroke="rgb(179,179,179)" stroke-linejoin="round" d="M 2085,2266 L 2235,2266 "/>
 <path fill="none" stroke="rgb(179,179,179)" stroke-linejoin="round" d="M 2085,1200 L 2235,1200 "/>
 <path fill="none" stroke="rgb(179,179,179)" stroke-linejoin="round" d="M 2085,1200 L 2235,1200 "/>
 <path fill="none" stroke="rgb(179,179,179)" stroke-linejoin="round" d="M 2235,9733 L 2235,1200 "/>
 <path fill="rgb(0,69,134)" stroke="none" d="M 2556,9733 L 3198,9733 3198,3152 2556,3152 2556,9733 Z "/>
 <path fill="rgb(0,69,134)" stroke="none" d="M 7050,9733 L 7692,9733 7692,5077 7050,5077 7050,9733 Z "/>
 <path fill="rgb(0,69,134)" stroke="none" d="M 11543,9733 L 12185,9733 12185,4787 11543,4787 11543,9733 Z "/>
 <path fill="rgb(0,69,134)" stroke="none" d="M 16037,9733 L 16679,9733 16679,4694 16037,4694 16037,9733 Z "/>
 <path fill="rgb(255,66,14)" stroke="none" d="M 3198,9733 L 3840,9733 3840,2968 3198,2968 3198,9733 Z "/>
 <path fill="rgb(255,66,14)" stroke="none" d="M 7692,9733 L 8334,9733 8334,4964 7692,4964 7692,9733 Z "/>
 <path fill="rgb(255,66,14)" stroke="none" d="M 12185,9733 L 12827,9733 12827,4395 12185,4395 12185,9733 Z "/>
 <path fill="rgb(255,66,14)" stroke="none" d="M 16679,9733 L 17321,9733 17321,4305 16679,4305 16679,9733 Z "/>
 <path fill="rgb(255,211,32)" stroke="none" d="M 3840,9733 L 4482,9733 4482,2607 3840,2607 3840,9733 Z "/>
 <path fill="rgb(255,211,32)" stroke="none" d="M 8334,9733 L 8976,9733 8976,5017 8334,5017 8334,9733 Z "/>
 <path fill="rgb(255,211,32)" stroke="none" d="M 12827,9733 L 13469,9733 13469,4328 12827,4328 12827,9733 Z "/>
 <path fill="rgb(255,211,32)" stroke="none" d="M 17321,9733 L 17963,9733 17963,4140 17321,4140 17321,9733 Z "/>
 <path fill="rgb(87,157,28)" stroke="none" d="M 4482,9733 L 5124,9733 5124,1753 4482,1753 4482,9733 Z "/>
 <path fill="rgb(87,157,28)" stroke="none" d="M 8976,9733 L 9618,9733 9618,4432 8976,4432 8976,9733 Z "/>
 <path fill="rgb(87,157,28)" stroke="none" d="M 13469,9733 L 14111,9733 14111,4081 13469,4081 13469,9733 Z "/>
 <path fill="rgb(87,157,28)" stroke="none" d="M 17963,9733 L 18605,9733 18605,3470 17963,3470 17963,9733 Z "/>
 <path fill="rgb(126,0,33)" stroke="none" d="M 5124,9733 L 5766,9733 5766,2226 5124,2226 5124,9733 Z "/>
 <path fill="rgb(126,0,33)" stroke="none" d="M 9618,9733 L 10260,9733 10260,4793 9618,4793 9618,9733 Z "/>
 <path fill="rgb(126,0,33)" stroke="none" d="M 14111,9733 L 14753,9733 14753,4271 14111,4271 14111,9733 Z "/>
 <path fill="rgb(126,0,33)" stroke="none" d="M 18605,9733 L 19247,9733 19247,3079 18605,3079 18605,9733 Z "/>
 <path fill="rgb(131,202,255)" stroke="none" d="M 5766,9733 L 6408,9733 6408,1898 5766,1898 5766,9733 Z "/>
 <path fill="rgb(131,202,255)" stroke="none" d="M 10260,9733 L 10901,9733 10901,4565 10260,4565 10260,9733 Z "/>
 <path fill="rgb(131,202,255)" stroke="none" d="M 14753,9733 L 15395,9733 15395,4012 14753,4012 14753,9733 Z "/>
 <path fill="rgb(131,202,255)" stroke="none" d="M 19247,9733 L 19889,9733 19889,2796 19247,2796 19247,9733 Z "/>
 <text class="SVGTextShape"><tspan class="TextParagraph"><tspan class="TextPosition" x="4081" y="10301"><tspan font-family="Liberation Sans, sans-serif" font-size="353px" font-weight="400" fill="rgb(0,0,0)" stroke="none" style="white-space: pre">Copy</tspan></tspan></tspan></text>
 <text class="SVGTextShape"><tspan class="TextParagraph"><tspan class="TextPosition" x="8547" y="10301"><tspan font-family="Liberation Sans, sans-serif" font-size="353px" font-weight="400" fill="rgb(0,0,0)" stroke="none" style="white-space: pre">Scale</tspan></tspan></tspan></text>
 <text class="SVGTextShape"><tspan class="TextParagraph"><tspan class="TextPosition" x="13164" y="10301"><tspan font-family="Liberation Sans, sans-serif" font-size="353px" font-weight="400" fill="rgb(0,0,0)" stroke="none" style="white-space: pre">Add</tspan></tspan></tspan></text>
 <text class="SVGTextShape"><tspan class="TextParagraph"><tspan class="TextPosition" x="17572" y="10301"><tspan font-family="Liberation Sans, sans-serif" font-size="353px" font-weight="400" fill="rgb(0,0,0)" stroke="none" style="white-space: pre">Triad</tspan></tspan></tspan></text>
 <text class="SVGTextShape"><tspan class="TextParagraph"><tspan class="TextPosition" x="1794" y="9854"><tspan font-family="Liberation Sans, sans-serif" font-size="353px" font-weight="400" fill="rgb(0,0,0)" stroke="none" style="white-space: pre">0</tspan></tspan></tspan></text>
 <text class="SVGTextShape"><tspan class="TextParagraph"><tspan class="TextPosition" x="1411" y="8787"><tspan font-family="Liberation Sans, sans-serif" font-size="353px" font-weight="400" fill="rgb(0,0,0)" stroke="none" style="white-space: pre">100</tspan></tspan></tspan></text>
 <text class="SVGTextShape"><tspan class="TextParagraph"><tspan class="TextPosition" x="1411" y="7720"><tspan font-family="Liberation Sans, sans-serif" font-size="353px" font-weight="400" fill="rgb(0,0,0)" stroke="none" style="white-space: pre">200</tspan></tspan></tspan></text>
 <text class="SVGTextShape"><tspan class="TextParagraph"><tspan class="TextPosition" x="1411" y="6653"><tspan font-family="Liberation Sans, sans-serif" font-size="353px" font-weight="400" fill="rgb(0,0,0)" stroke="none" style="white-space: pre">300</tspan></tspan></tspan></text>
 <text class="SVGTextShape"><tspan class="TextParagraph"><tspan class="TextPosition" x="1411" y="5588"><tspan font-family="Liberation Sans, sans-serif" font-size="353px" font-weight="400" fill="rgb(0,0,0)" stroke="none" style="white-space: pre">400</tspan></tspan></tspan></text>
 <text class="SVGTextShape"><tspan class="TextParagraph"><tspan class="TextPosition" x="1411" y="4521"><tspan font-family="Liberation Sans, sans-serif" font-size="353px" font-weight="400" fill="rgb(0,0,0)" stroke="none" style="white-space: pre">500</tspan></tspan></tspan></text>
 <text class="SVGTextShape"><tspan class="TextParagraph"><tspan class="TextPosition" x="1411" y="3454"><tspan font-family="Liberation Sans, sans-serif" font-size="353px" font-weight="400" fill="rgb(0,0,0)" stroke="none" style="white-space: pre">600</tspan></tspan></tspan></text>
 <text class="SVGTextShape"><tspan class="TextParagraph"><tspan class="TextPosition" x="1411" y="2387"><tspan font-family="Liberation Sans, sans-serif" font-size="353px" font-weight="400" fill="rgb(0,0,0)" stroke="none" style="white-space: pre">700</tspan></tspan></tspan></text>
 <text class="SVGTextShape"><tspan class="TextParagraph"><tspan class="TextPosition" x="1411" y="1321"><tspan font-family="Liberation Sans, sans-serif" font-size="353px" font-weight="400" fill="rgb(0,0,0)" stroke="none" style="white-space: pre">800</tspan></tspan></tspan></text>
 <path fill="rgb(0,69,134)" stroke="none" d="M 6291,576 L 6186,576 6186,365 6397,365 6397,576 6291,576 Z "/>
 <path fill="rgb(255,66,14)" stroke="none" d="M 7639,576 L 7534,576 7534,365 7745,365 7745,576 7639,576 Z "/>
 <path fill="rgb(255,211,32)" stroke="none" d="M 8987,576 L 8882,576 8882,365 9093,365 9093,576 8987,576 Z "/>
 <path fill="rgb(87,157,28)" stroke="none" d="M 10335,576 L 10230,576 10230,365 10440,365 10440,576 10335,576 Z "/>
 <path fill="rgb(126,0,33)" stroke="none" d="M 11683,576 L 11577,576 11577,365 11788,365 11788,576 11683,576 Z "/>
 <path fill="rgb(131,202,255)" stroke="none" d="M 13222,576 L 13116,576 13116,365 13327,365 13327,576 13222,576 Z "/>
 <text class="SVGTextShape"><tspan class="TextParagraph"><tspan class="TextPosition" x="6497" y="590"><tspan font-family="Liberation Sans, sans-serif" font-size="353px" font-weight="400" fill="rgb(0,0,0)" stroke="none" style="white-space: pre">1 VM</tspan></tspan></tspan></text>
 <text class="SVGTextShape"><tspan class="TextParagraph"><tspan class="TextPosition" x="7845" y="590"><tspan font-family="Liberation Sans, sans-serif" font-size="353px" font-weight="400" fill="rgb(0,0,0)" stroke="none" style="white-space: pre">2 VM</tspan></tspan></tspan></text>
 <text class="SVGTextShape"><tspan class="TextParagraph"><tspan class="TextPosition" x="9193" y="590"><tspan font-family="Liberation Sans, sans-serif" font-size="353px" font-weight="400" fill="rgb(0,0,0)" stroke="none" style="white-space: pre">4 VM</tspan></tspan></tspan></text>
 <text class="SVGTextShape"><tspan class="TextParagraph"><tspan class="TextPosition" x="10540" y="590"><tspan font-family="Liberation Sans, sans-serif" font-size="353px" font-weight="400" fill="rgb(0,0,0)" stroke="none" style="white-space: pre">6 VM</tspan></tspan></tspan></text>
 <text class="SVGTextShape"><tspan class="TextParagraph"><tspan class="TextPosition" x="11888" y="590"><tspan font-family="Liberation Sans, sans-serif" font-size="353px" font-weight="400" fill="rgb(0,0,0)" stroke="none" style="white-space: pre">12 VM</tspan></tspan></tspan></text>
 <text class="SVGTextShape"><tspan class="TextParagraph"><tspan class="TextPosition" x="13427" y="590"><tspan font-family="Liberation Sans, sans-serif" font-size="353px" font-weight="400" fill="rgb(0,0,0)" stroke="none" style="white-space: pre">24 VM</tspan></tspan></tspan></text>
 <text class="SVGTextShape"><tspan class="TextParagraph"><tspan class="TextPosition" x="9409" y="11000"><tspan font-family="Liberation Sans, sans-serif" font-size="318px" font-weight="400" fill="rgb(0,0,0)" stroke="none" style="white-space: pre">STREAM Operation</tspan></tspan></tspan></text>
 <text class="SVGTextShape" transform="rotate(-90 825 7985)"><tspan class="TextParagraph"><tspan class="TextPosition" x="825" y="7985"><tspan font-family="Liberation Sans, sans-serif" font-size="318px" font-weight="400" fill="rgb(0,0,0)" stroke="none" style="white-space: pre">GBytes/sec (Average of all VMs)</tspan></tspan></tspan></text>
</svg>