<?xml version="1.0" encoding="UTF-8"?>
<!DOCTYPE svg PUBLIC "-//W3C//DTD SVG 1.1//EN" "http://www.w3.org/Graphics/SVG/1.1/DTD/svg11.dtd">
<svg width="266mm" height="150mm" viewBox="0 0 26600 15000" version="1.1" xmlns="http://www.w3.org/2000/svg" xmlns:xlink="http://www.w3.org/1999/xlink" stroke-width="28.222" stroke-linejoin="round" xml:space="preserve">
 <path fill="rgb(255,255,255)" stroke="none" d="M 13286,14947 L -13,14947 -13,-13 26584,-13 26584,14947 13286,14947 Z "/>
 <path fill="none" stroke="rgb(179,179,179)" stroke-linejoin="round" d="M 14203,14001 L 2354,14001 2354,1269 26053,1269 26053,14001 14203,14001 Z "/>
 <path fill="none" stroke="rgb(179,179,179)" stroke-linejoin="round" d="M 26053,14000 L 2354,14000 "/>
 <path fill="none" stroke="rgb(179,179,179)" stroke-linejoin="round" d="M 26053,12726 L 2354,12726 "/>
 <path fill="none" stroke="rgb(179,179,179)" stroke-linejoin="round" d="M 26053,11453 L 2354,11453 "/>
 <path fill="none" stroke="rgb(179,179,179)" stroke-linejoin="round" d="M 26053,10180 L 2354,10180 "/>
 <path fill="none" stroke="rgb(179,179,179)" stroke-linejoin="round" d="M 26053,8906 L 2354,8906 "/>
 <path fill="none" stroke="rgb(179,179,179)" stroke-linejoin="round" d="M 26053,7633 L 2354,7633 "/>
 <path fill="none" stroke="rgb(179,179,179)" stroke-linejoin="round" d="M 26053,6361 L 2354,6361 "/>
 <path fill="none" stroke="rgb(179,179,179)" stroke-linejoin="round" d="M 26053,5087 L 2354,5087 "/>
 <path fill="none" stroke="rgb(179,179,179)" stroke-linejoin="round" d="M 26053,3814 L 2354,3814 "/>
 <path fill="none" stroke="rgb(179,179,179)" stroke-linejoin="round" d="M 26053,2541 L 2354,2541 "/>
 <path fill="none" stroke="rgb(179,179,179)" stroke-linejoin="round" d="M 26053,1268 L 2354,1268 "/>
 <path fill="none" stroke="rgb(179,179,179)" stroke-linejoin="round" d="M 2354,14150 L 2354,14000 "/>
 <path fill="none" stroke="rgb(179,179,179)" stroke-linejoin="round" d="M 2354,14150 L 2354,14000 "/>
 <path fill="none" stroke="rgb(179,179,179)" stroke-linejoin="round" d="M 5739,14150 L 5739,14000 "/>
 <path fill="none" stroke="rgb(179,179,179)" stroke-linejoin="round" d="M 5739,14150 L 5739,14000 "/>
 <path fill="none" stroke="rgb(179,179,179)" stroke-linejoin="round" d="M 9125,14150 L 9125,14000 "/>
 <path fill="none" stroke="rgb(179,179,179)" stroke-linejoin="round" d="M 9125,14150 L 9125,14000 "/>
 <path fill="none" stroke="rgb(179,179,179)" stroke-linejoin="round" d="M 12511,14150 L 12511,14000 "/>
 <path fill="none" stroke="rgb(179,179,179)" stroke-linejoin="round" d="M 12511,14150 L 12511,14000 "/>
 <path fill="none" stroke="rgb(179,179,179)" stroke-linejoin="round" d="M 15895,14150 L 15895,14000 "/>
 <path fill="none" stroke="rgb(179,179,179)" stroke-linejoin="round" d="M 15895,14150 L 15895,14000 "/>
 <path fill="none" stroke="rgb(179,179,179)" stroke-linejoin="round" d="M 19281,14150 L 19281,14000 "/>
 <path fill="none" stroke="rgb(179,179,179)" stroke-linejoin="round" d="M 19281,14150 L 19281,14000 "/>
 <path fill="none" stroke="rgb(179,179,179)" stroke-linejoin="round" d="M 22667,14150 L 22667,14000 "/>
 <path fill="none" stroke="rgb(179,179,179)" stroke-linejoin="round" d="M 22667,14150 L 22667,14000 "/>
 <path fill="none" stroke="rgb(179,179,179)" stroke-linejoin="round" d="M 26053,14150 L 26053,14000 "/>
 <path fill="none" stroke="rgb(179,179,179)" stroke-linejoin="round" d="M 26053,14150 L 26053,14000 "/>
 <path fill="none" stroke="rgb(179,179,179)" stroke-linejoin="round" d="M 2354,14000 L 26053,14000 "/>
 <path fill="none" stroke="rgb(179,179,179)" stroke-linejoin="round" d="M 2204,14000 L 2354,14000 "/>
 <path fill="none" stroke="rgb(179,179,179)" stroke-linejoin="round" d="M 2204,14000 L 2354,14000 "/>
 <path fill="none" stroke="rgb(179,179,179)" stroke-linejoin="round" d="M 2204,12726 L 2354,12726 "/>
 <path fill="none" stroke="rgb(179,179,179)" stroke-linejoin="round" d="M 2204,12726 L 2354,12726 "/>
 <path fill="none" stroke="rgb(179,179,179)" stroke-linejoin="round" d="M 2204,11453 L 2354,11453 "/>
 <path fill="none" stroke="rgb(179,179,179)" stroke-linejoin="round" d="M 2204,11453 L 2354,11453 "/>
 <path fill="none" stroke="rgb(179,179,179)" stroke-linejoin="round" d="M 2204,10180 L 2354,10180 "/>
 <path fill="none" stroke="rgb(179,179,179)" stroke-linejoin="round" d="M 2204,10180 L 2354,10180 "/>
 <path fill="none" stroke="rgb(179,179,179)" stroke-linejoin="round" d="M 2204,8906 L 2354,8906 "/>
 <path fill="none" stroke="rgb(179,179,179)" stroke-linejoin="round" d="M 2204,8906 L 2354,8906 "/>
 <path fill="none" stroke="rgb(179,179,179)" stroke-linejoin="round" d="M 2204,7633 L 2354,7633 "/>
 <path fill="none" stroke="rgb(179,179,179)" stroke-linejoin="round" d="M 2204,7633 L 2354,7633 "/>
 <path fill="none" stroke="rgb(179,179,179)" stroke-linejoin="round" d="M 2204,6361 L 2354,6361 "/>
 <path fill="none" stroke="rgb(179,179,179)" stroke-linejoin="round" d="M 2204,6361 L 2354,6361 "/>
 <path fill="none" stroke="rgb(179,179,179)" stroke-linejoin="round" d="M 2204,5087 L 2354,5087 "/>
 <path fill="none" stroke="rgb(179,179,179)" stroke-linejoin="round" d="M 2204,5087 L 2354,5087 "/>
 <path fill="none" stroke="rgb(179,179,179)" stroke-linejoin="round" d="M 2204,3814 L 2354,3814 "/>
 <path fill="none" stroke="rgb(179,179,179)" stroke-linejoin="round" d="M 2204,3814 L 2354,3814 "/>
 <path fill="none" stroke="rgb(179,179,179)" stroke-linejoin="round" d="M 2204,2541 L 2354,2541 "/>
 <path fill="none" stroke="rgb(179,179,179)" stroke-linejoin="round" d="M 2204,2541 L 2354,2541 "/>
 <path fill="none" stroke="rgb(179,179,179)" stroke-linejoin="round" d="M 2204,1268 L 2354,1268 "/>
 <path fill="none" stroke="rgb(179,179,179)" stroke-linejoin="round" d="M 2204,1268 L 2354,1268 "/>
 <path fill="none" stroke="rgb(179,179,179)" stroke-linejoin="round" d="M 2354,14000 L 2354,1268 "/>
 <path fill="rgb(0,69,134)" stroke="none" d="M 2777,14000 L 3623,14000 3623,7486 2777,7486 2777,14000 Z "/>
 <path fill="rgb(0,69,134)" stroke="none" d="M 6162,14000 L 7009,14000 7009,11649 6162,11649 6162,14000 Z "/>
 <path fill="rgb(0,69,134)" stroke="none" d="M 9548,14000 L 10395,14000 10395,13757 9548,13757 9548,14000 Z "/>
 <path fill="rgb(0,69,134)" stroke="none" d="M 12934,14000 L 13779,14000 13779,13893 12934,13893 12934,14000 Z "/>
 <path fill="rgb(0,69,134)" stroke="none" d="M 16319,14000 L 17165,14000 17165,10213 16319,10213 16319,14000 Z "/>
 <path fill="rgb(0,69,134)" stroke="none" d="M 19704,14000 L 20551,14000 20551,13374 19704,13374 19704,14000 Z "/>
 <path fill="rgb(0,69,134)" stroke="none" d="M 23090,14000 L 23936,14000 23936,2779 23090,2779 23090,14000 Z "/>
 <path fill="rgb(255,66,14)" stroke="none" d="M 3623,14000 L 4470,14000 4470,7249 3623,7249 3623,14000 Z "/>
 <path fill="rgb(255,66,14)" stroke="none" d="M 7009,14000 L 7855,14000 7855,11583 7009,11583 7009,14000 Z "/>
 <path fill="rgb(255,66,14)" stroke="none" d="M 10395,14000 L 11241,14000 11241,13763 10395,13763 10395,14000 Z "/>
 <path fill="rgb(255,66,14)" stroke="none" d="M 13779,14000 L 14626,14000 14626,13894 13779,13894 13779,14000 Z "/>
 <path fill="rgb(255,66,14)" stroke="none" d="M 17165,14000 L 18011,14000 18011,10184 17165,10184 17165,14000 Z "/>
 <path fill="rgb(255,66,14)" stroke="none" d="M 20551,14000 L 21397,14000 21397,13363 20551,13363 20551,14000 Z "/>
 <path fill="rgb(255,66,14)" stroke="none" d="M 23936,14000 L 24783,14000 24783,2661 23936,2661 23936,14000 Z "/>
 <path fill="rgb(255,211,32)" stroke="none" d="M 4470,14000 L 5316,14000 5316,7194 4470,7194 4470,14000 Z "/>
 <path fill="rgb(255,211,32)" stroke="none" d="M 7855,14000 L 8702,14000 8702,11592 7855,11592 7855,14000 Z "/>
 <path fill="rgb(255,211,32)" stroke="none" d="M 11241,14000 L 12087,14000 12087,13756 11241,13756 11241,14000 Z "/>
 <path fill="rgb(255,211,32)" stroke="none" d="M 14626,14000 L 15472,14000 15472,13898 14626,13898 14626,14000 Z "/>
 <path fill="rgb(255,211,32)" stroke="none" d="M 18011,14000 L 18858,14000 18858,10174 18011,10174 18011,14000 Z "/>
 <path fill="rgb(255,211,32)" stroke="none" d="M 21397,14000 L 22244,14000 22244,13361 21397,13361 21397,14000 Z "/>
 <path fill="rgb(255,211,32)" stroke="none" d="M 24783,14000 L 25629,14000 25629,2590 24783,2590 24783,14000 Z "/>
 <text class="SVGTextShape"><tspan class="TextParagraph"><tspan class="TextPosition" x="3731" y="14568"><tspan font-family="Liberation Sans, sans-serif" font-size="353px" font-weight="400" fill="rgb(0,0,0)" stroke="none" style="white-space: pre">bt.D</tspan></tspan></tspan></text>
 <text class="SVGTextShape"><tspan class="TextParagraph"><tspan class="TextPosition" x="7079" y="14568"><tspan font-family="Liberation Sans, sans-serif" font-size="353px" font-weight="400" fill="rgb(0,0,0)" stroke="none" style="white-space: pre">cg.D</tspan></tspan></tspan></text>
 <text class="SVGTextShape"><tspan class="TextParagraph"><tspan class="TextPosition" x="10455" y="14568"><tspan font-family="Liberation Sans, sans-serif" font-size="353px" font-weight="400" fill="rgb(0,0,0)" stroke="none" style="white-space: pre">ep.D</tspan></tspan></tspan></text>
 <text class="SVGTextShape"><tspan class="TextParagraph"><tspan class="TextPosition" x="13908" y="14568"><tspan font-family="Liberation Sans, sans-serif" font-size="353px" font-weight="400" fill="rgb(0,0,0)" stroke="none" style="white-space: pre">is.D</tspan></tspan></tspan></text>
 <text class="SVGTextShape"><tspan class="TextParagraph"><tspan class="TextPosition" x="17283" y="14568"><tspan font-family="Liberation Sans, sans-serif" font-size="353px" font-weight="400" fill="rgb(0,0,0)" stroke="none" style="white-space: pre">lu.D</tspan></tspan></tspan></text>
 <text class="SVGTextShape"><tspan class="TextParagraph"><tspan class="TextPosition" x="20564" y="14568"><tspan font-family="Liberation Sans, sans-serif" font-size="353px" font-weight="400" fill="rgb(0,0,0)" stroke="none" style="white-space: pre">mg.D</tspan></tspan></tspan></text>
 <text class="SVGTextShape"><tspan class="TextParagraph"><tspan class="TextPosition" x="24007" y="14568"><tspan font-family="Liberation Sans, sans-serif" font-size="353px" font-weight="400" fill="rgb(0,0,0)" stroke="none" style="white-space: pre">sp.D</tspan></tspan></tspan></text>
 <text class="SVGTextShape"><tspan class="TextParagraph"><tspan class="TextPosition" x="1913" y="14121"><tspan font-family="Liberation Sans, sans-serif" font-size="353px" font-weight="400" fill="rgb(0,0,0)" stroke="none" style="white-space: pre">0</tspan></tspan></tspan></text>
 <text class="SVGTextShape"><tspan class="TextParagraph"><tspan class="TextPosition" x="1721" y="12847"><tspan font-family="Liberation Sans, sans-serif" font-size="353px" font-weight="400" fill="rgb(0,0,0)" stroke="none" style="white-space: pre">50</tspan></tspan></tspan></text>
 <text class="SVGTextShape"><tspan class="TextParagraph"><tspan class="TextPosition" x="1530" y="11574"><tspan font-family="Liberation Sans, sans-serif" font-size="353px" font-weight="400" fill="rgb(0,0,0)" stroke="none" style="white-space: pre">100</tspan></tspan></tspan></text>
 <text class="SVGTextShape"><tspan class="TextParagraph"><tspan class="TextPosition" x="1530" y="10301"><tspan font-family="Liberation Sans, sans-serif" font-size="353px" font-weight="400" fill="rgb(0,0,0)" stroke="none" style="white-space: pre">150</tspan></tspan></tspan></text>
 <text class="SVGTextShape"><tspan class="TextParagraph"><tspan class="TextPosition" x="1530" y="9027"><tspan font-family="Liberation Sans, sans-serif" font-size="353px" font-weight="400" fill="rgb(0,0,0)" stroke="none" style="white-space: pre">200</tspan></tspan></tspan></text>
 <text class="SVGTextShape"><tspan class="TextParagraph"><tspan class="TextPosition" x="1530" y="7754"><tspan font-family="Liberation Sans, sans-serif" font-size="353px" font-weight="400" fill="rgb(0,0,0)" stroke="none" style="white-space: pre">250</tspan></tspan></tspan></text>
 <text class="SVGTextShape"><tspan class="TextParagraph"><tspan class="TextPosition" x="1530" y="6482"><tspan font-family="Liberation Sans, sans-serif" font-size="353px" font-weight="400" fill="rgb(0,0,0)" stroke="none" style="white-space: pre">300</tspan></tspan></tspan></text>
 <text class="SVGTextShape"><tspan class="TextParagraph"><tspan class="TextPosition" x="1530" y="5208"><tspan font-family="Liberation Sans, sans-serif" font-size="353px" font-weight="400" fill="rgb(0,0,0)" stroke="none" style="white-space: pre">350</tspan></tspan></tspan></text>
 <text class="SVGTextShape"><tspan class="TextParagraph"><tspan class="TextPosition" x="1530" y="3935"><tspan font-family="Liberation Sans, sans-serif" font-size="353px" font-weight="400" fill="rgb(0,0,0)" stroke="none" style="white-space: pre">400</tspan></tspan></tspan></text>
 <text class="SVGTextShape"><tspan class="TextParagraph"><tspan class="TextPosition" x="1530" y="2662"><tspan font-family="Liberation Sans, sans-serif" font-size="353px" font-weight="400" fill="rgb(0,0,0)" stroke="none" style="white-space: pre">450</tspan></tspan></tspan></text>
 <text class="SVGTextShape"><tspan class="TextParagraph"><tspan class="TextPosition" x="1530" y="1389"><tspan font-family="Liberation Sans, sans-serif" font-size="353px" font-weight="400" fill="rgb(0,0,0)" stroke="none" style="white-space: pre">500</tspan></tspan></tspan></text>
 <path fill="rgb(0,69,134)" stroke="none" d="M 10768,576 L 10663,576 10663,365 10874,365 10874,576 10768,576 Z "/>
 <path fill="rgb(255,66,14)" stroke="none" d="M 13206,576 L 13101,576 13101,365 13311,365 13311,576 13206,576 Z "/>
 <path fill="rgb(255,211,32)" stroke="none" d="M 14439,576 L 14333,576 14333,365 14544,365 14544,576 14439,576 Z "/>
 <text class="SVGTextShape"><tspan class="TextParagraph"><tspan class="TextPosition" x="10974" y="590"><tspan font-family="Liberation Sans, sans-serif" font-size="353px" font-weight="400" fill="rgb(0,0,0)" stroke="none" style="white-space: pre">unencrypted</tspan></tspan></tspan></text>
 <text class="SVGTextShape"><tspan class="TextParagraph"><tspan class="TextPosition" x="13411" y="590"><tspan font-family="Liberation Sans, sans-serif" font-size="353px" font-weight="400" fill="rgb(0,0,0)" stroke="none" style="white-space: pre">SEV</tspan></tspan></tspan></text>
 <text class="SVGTextShape"><tspan class="TextParagraph"><tspan class="TextPosition" x="14644" y="590"><tspan font-family="Liberation Sans, sans-serif" font-size="353px" font-weight="400" fill="rgb(0,0,0)" stroke="none" style="white-space: pre">SEV-ES</tspan></tspan></tspan></text>
 <text class="SVGTextShape" transform="rotate(-90 825 8608)"><tspan class="TextParagraph"><tspan class="TextPosition" x="825" y="8608"><tspan font-family="Liberation Sans, sans-serif" font-size="318px" font-weight="400" fill="rgb(0,0,0)" stroke="none" style="white-space: pre">Time (sec)</tspan></tspan></tspan></text>
 <text class="SVGTextShape"><tspan class="TextParagraph"><tspan class="TextPosition" x="13166" y="7610"><tspan font-family="Liberation Serif, serif" font-size="423px" font-weight="400" fill="rgb(255,255,255)" stroke="none" style="white-space: pre">=</tspan></tspan></tspan></text>
</svg>