<?xml version="1.0" encoding="UTF-8"?>
<!DOCTYPE svg PUBLIC "-//W3C//DTD SVG 1.1//EN" "http://www.w3.org/Graphics/SVG/1.1/DTD/svg11.dtd">
<svg width="266mm" height="150mm" viewBox="0 0 26600 15000" version="1.1" xmlns="http://www.w3.org/2000/svg" xmlns:xlink="http://www.w3.org/1999/xlink" stroke-width="28.222" stroke-linejoin="round" xml:space="preserve">
 <path fill="rgb(255,255,255)" stroke="none" d="M 13286,14947 L -13,14947 -13,-13 26584,-13 26584,14947 13286,14947 Z "/>
 <path fill="none" stroke="rgb(179,179,179)" stroke-linejoin="round" d="M 14299,14001 L 2545,14001 2545,1269 26053,1269 26053,14001 14299,14001 Z "/>
 <path fill="none" stroke="rgb(179,179,179)" stroke-linejoin="round" d="M 26053,14000 L 2545,14000 "/>
 <path fill="none" stroke="rgb(179,179,179)" stroke-linejoin="round" d="M 26053,12181 L 2545,12181 "/>
 <path fill="none" stroke="rgb(179,179,179)" stroke-linejoin="round" d="M 26053,10362 L 2545,10362 "/>
 <path fill="none" stroke="rgb(179,179,179)" stroke-linejoin="round" d="M 26053,8543 L 2545,8543 "/>
 <path fill="none" stroke="rgb(179,179,179)" stroke-linejoin="round" d="M 26053,6724 L 2545,6724 "/>
 <path fill="none" stroke="rgb(179,179,179)" stroke-linejoin="round" d="M 26053,4906 L 2545,4906 "/>
 <path fill="none" stroke="rgb(179,179,179)" stroke-linejoin="round" d="M 26053,3086 L 2545,3086 "/>
 <path fill="none" stroke="rgb(179,179,179)" stroke-linejoin="round" d="M 26053,1267 L 2545,1267 "/>
 <path fill="none" stroke="rgb(179,179,179)" stroke-linejoin="round" d="M 2545,14150 L 2545,14000 "/>
 <path fill="none" stroke="rgb(179,179,179)" stroke-linejoin="round" d="M 2545,14150 L 2545,14000 "/>
 <path fill="none" stroke="rgb(179,179,179)" stroke-linejoin="round" d="M 5903,14150 L 5903,14000 "/>
 <path fill="none" stroke="rgb(179,179,179)" stroke-linejoin="round" d="M 5903,14150 L 5903,14000 "/>
 <path fill="none" stroke="rgb(179,179,179)" stroke-linejoin="round" d="M 9261,14150 L 9261,14000 "/>
 <path fill="none" stroke="rgb(179,179,179)" stroke-linejoin="round" d="M 9261,14150 L 9261,14000 "/>
 <path fill="none" stroke="rgb(179,179,179)" stroke-linejoin="round" d="M 12620,14150 L 12620,14000 "/>
 <path fill="none" stroke="rgb(179,179,179)" stroke-linejoin="round" d="M 12620,14150 L 12620,14000 "/>
 <path fill="none" stroke="rgb(179,179,179)" stroke-linejoin="round" d="M 15977,14150 L 15977,14000 "/>
 <path fill="none" stroke="rgb(179,179,179)" stroke-linejoin="round" d="M 15977,14150 L 15977,14000 "/>
 <path fill="none" stroke="rgb(179,179,179)" stroke-linejoin="round" d="M 19336,14150 L 19336,14000 "/>
 <path fill="none" stroke="rgb(179,179,179)" stroke-linejoin="round" d="M 19336,14150 L 19336,14000 "/>
 <path fill="none" stroke="rgb(179,179,179)" stroke-linejoin="round" d="M 22694,14150 L 22694,14000 "/>
 <path fill="none" stroke="rgb(179,179,179)" stroke-linejoin="round" d="M 22694,14150 L 22694,14000 "/>
 <path fill="none" stroke="rgb(179,179,179)" stroke-linejoin="round" d="M 26053,14150 L 26053,14000 "/>
 <path fill="none" stroke="rgb(179,179,179)" stroke-linejoin="round" d="M 26053,14150 L 26053,14000 "/>
 <path fill="none" stroke="rgb(179,179,179)" stroke-linejoin="round" d="M 2545,14000 L 26053,14000 "/>
 <path fill="none" stroke="rgb(179,179,179)" stroke-linejoin="round" d="M 2395,14000 L 2545,14000 "/>
 <path fill="none" stroke="rgb(179,179,179)" stroke-linejoin="round" d="M 2395,14000 L 2545,14000 "/>
 <path fill="none" stroke="rgb(179,179,179)" stroke-linejoin="round" d="M 2395,12181 L 2545,12181 "/>
 <path fill="none" stroke="rgb(179,179,179)" stroke-linejoin="round" d="M 2395,12181 L 2545,12181 "/>
 <path fill="none" stroke="rgb(179,179,179)" stroke-linejoin="round" d="M 2395,10362 L 2545,10362 "/>
 <path fill="none" stroke="rgb(179,179,179)" stroke-linejoin="round" d="M 2395,10362 L 2545,10362 "/>
 <path fill="none" stroke="rgb(179,179,179)" stroke-linejoin="round" d="M 2395,8543 L 2545,8543 "/>
 <path fill="none" stroke="rgb(179,179,179)" stroke-linejoin="round" d="M 2395,8543 L 2545,8543 "/>
 <path fill="none" stroke="rgb(179,179,179)" stroke-linejoin="round" d="M 2395,6724 L 2545,6724 "/>
 <path fill="none" stroke="rgb(179,179,179)" stroke-linejoin="round" d="M 2395,6724 L 2545,6724 "/>
 <path fill="none" stroke="rgb(179,179,179)" stroke-linejoin="round" d="M 2395,4905 L 2545,4905 "/>
 <path fill="none" stroke="rgb(179,179,179)" stroke-linejoin="round" d="M 2395,4905 L 2545,4905 "/>
 <path fill="none" stroke="rgb(179,179,179)" stroke-linejoin="round" d="M 2395,3086 L 2545,3086 "/>
 <path fill="none" stroke="rgb(179,179,179)" stroke-linejoin="round" d="M 2395,3086 L 2545,3086 "/>
 <path fill="none" stroke="rgb(179,179,179)" stroke-linejoin="round" d="M 2395,1267 L 2545,1267 "/>
 <path fill="none" stroke="rgb(179,179,179)" stroke-linejoin="round" d="M 2395,1267 L 2545,1267 "/>
 <path fill="none" stroke="rgb(179,179,179)" stroke-linejoin="round" d="M 2545,14000 L 2545,1267 "/>
 <path fill="rgb(0,69,134)" stroke="none" d="M 2824,14000 L 3384,14000 3384,13565 2824,13565 2824,14000 Z "/>
 <path fill="rgb(0,69,134)" stroke="none" d="M 6183,14000 L 6743,14000 6743,13819 6183,13819 6183,14000 Z "/>
 <path fill="rgb(0,69,134)" stroke="none" d="M 9541,14000 L 10101,14000 10101,13981 9541,13981 9541,14000 Z "/>
 <path fill="rgb(0,69,134)" stroke="none" d="M 12900,14000 L 13458,14000 13458,13992 12900,13992 12900,14000 Z "/>
 <path fill="rgb(0,69,134)" stroke="none" d="M 16257,14000 L 16817,14000 16817,13722 16257,13722 16257,14000 Z "/>
 <path fill="rgb(0,69,134)" stroke="none" d="M 19616,14000 L 20175,14000 20175,13954 19616,13954 19616,14000 Z "/>
 <path fill="rgb(0,69,134)" stroke="none" d="M 22974,14000 L 23534,14000 23534,13393 22974,13393 22974,14000 Z "/>
 <path fill="rgb(255,211,32)" stroke="none" d="M 3384,14000 L 3944,14000 3944,13069 3384,13069 3384,14000 Z "/>
 <path fill="rgb(255,211,32)" stroke="none" d="M 6743,14000 L 7302,14000 7302,13664 6743,13664 6743,14000 Z "/>
 <path fill="rgb(255,211,32)" stroke="none" d="M 10101,14000 L 10661,14000 10661,13965 10101,13965 10101,14000 Z "/>
 <path fill="rgb(255,211,32)" stroke="none" d="M 13458,14000 L 14018,14000 14018,13984 13458,13984 13458,14000 Z "/>
 <path fill="rgb(255,211,32)" stroke="none" d="M 16817,14000 L 17377,14000 17377,13459 16817,13459 16817,14000 Z "/>
 <path fill="rgb(255,211,32)" stroke="none" d="M 20175,14000 L 20735,14000 20735,13910 20175,13910 20175,14000 Z "/>
 <path fill="rgb(255,211,32)" stroke="none" d="M 23534,14000 L 24093,14000 24093,12396 23534,12396 23534,14000 Z "/>
 <path fill="rgb(87,157,28)" stroke="none" d="M 3944,14000 L 4504,14000 4504,12050 3944,12050 3944,14000 Z "/>
 <path fill="rgb(87,157,28)" stroke="none" d="M 7302,14000 L 7862,14000 7862,13425 7302,13425 7302,14000 Z "/>
 <path fill="rgb(87,157,28)" stroke="none" d="M 10661,14000 L 11220,14000 11220,13931 10661,13931 10661,14000 Z "/>
 <path fill="rgb(87,157,28)" stroke="none" d="M 14018,14000 L 14578,14000 14578,13971 14018,13971 14018,14000 Z "/>
 <path fill="rgb(87,157,28)" stroke="none" d="M 17377,14000 L 17936,14000 17936,12961 17377,12961 17377,14000 Z "/>
 <path fill="rgb(87,157,28)" stroke="none" d="M 20735,14000 L 21295,14000 21295,13793 20735,13793 20735,14000 Z "/>
 <path fill="rgb(87,157,28)" stroke="none" d="M 24093,14000 L 24653,14000 24653,10460 24093,10460 24093,14000 Z "/>
 <path fill="rgb(126,0,33)" stroke="none" d="M 4504,14000 L 5063,14000 5063,11081 4504,11081 4504,14000 Z "/>
 <path fill="rgb(126,0,33)" stroke="none" d="M 7862,14000 L 8422,14000 8422,13129 7862,13129 7862,14000 Z "/>
 <path fill="rgb(126,0,33)" stroke="none" d="M 11220,14000 L 11780,14000 11780,13871 11220,13871 11220,14000 Z "/>
 <path fill="rgb(126,0,33)" stroke="none" d="M 14578,14000 L 15138,14000 15138,13957 14578,13957 14578,14000 Z "/>
 <path fill="rgb(126,0,33)" stroke="none" d="M 17936,14000 L 18496,14000 18496,12256 17936,12256 17936,14000 Z "/>
 <path fill="rgb(126,0,33)" stroke="none" d="M 21295,14000 L 21854,14000 21854,13658 21295,13658 21295,14000 Z "/>
 <path fill="rgb(126,0,33)" stroke="none" d="M 24653,14000 L 25213,14000 25213,8673 24653,8673 24653,14000 Z "/>
 <path fill="rgb(131,202,255)" stroke="none" d="M 5063,14000 L 5623,14000 5623,8411 5063,8411 5063,14000 Z "/>
 <path fill="rgb(131,202,255)" stroke="none" d="M 8422,14000 L 8981,14000 8981,12297 8422,12297 8422,14000 Z "/>
 <path fill="rgb(131,202,255)" stroke="none" d="M 11780,14000 L 12340,14000 12340,13800 11780,13800 11780,14000 Z "/>
 <path fill="rgb(131,202,255)" stroke="none" d="M 15138,14000 L 15697,14000 15697,13924 15138,13924 15138,14000 Z "/>
 <path fill="rgb(131,202,255)" stroke="none" d="M 18496,14000 L 19056,14000 19056,7246 18496,7246 18496,14000 Z "/>
 <path fill="rgb(131,202,255)" stroke="none" d="M 21854,14000 L 22414,14000 22414,13330 21854,13330 21854,14000 Z "/>
 <path fill="rgb(131,202,255)" stroke="none" d="M 25213,14000 L 25773,14000 25773,3371 25213,3371 25213,14000 Z "/>
 <text class="SVGTextShape"><tspan class="TextParagraph"><tspan class="TextPosition" x="3909" y="14568"><tspan font-family="Liberation Sans, sans-serif" font-size="353px" font-weight="400" fill="rgb(0,0,0)" stroke="none" style="white-space: pre">bt.D</tspan></tspan></tspan></text>
 <text class="SVGTextShape"><tspan class="TextParagraph"><tspan class="TextPosition" x="7229" y="14568"><tspan font-family="Liberation Sans, sans-serif" font-size="353px" font-weight="400" fill="rgb(0,0,0)" stroke="none" style="white-space: pre">cg.D</tspan></tspan></tspan></text>
 <text class="SVGTextShape"><tspan class="TextParagraph"><tspan class="TextPosition" x="10578" y="14568"><tspan font-family="Liberation Sans, sans-serif" font-size="353px" font-weight="400" fill="rgb(0,0,0)" stroke="none" style="white-space: pre">ep.D</tspan></tspan></tspan></text>
 <text class="SVGTextShape"><tspan class="TextParagraph"><tspan class="TextPosition" x="14003" y="14568"><tspan font-family="Liberation Sans, sans-serif" font-size="353px" font-weight="400" fill="rgb(0,0,0)" stroke="none" style="white-space: pre">is.D</tspan></tspan></tspan></text>
 <text class="SVGTextShape"><tspan class="TextParagraph"><tspan class="TextPosition" x="17351" y="14568"><tspan font-family="Liberation Sans, sans-serif" font-size="353px" font-weight="400" fill="rgb(0,0,0)" stroke="none" style="white-space: pre">lu.D</tspan></tspan></tspan></text>
 <text class="SVGTextShape"><tspan class="TextParagraph"><tspan class="TextPosition" x="20605" y="14568"><tspan font-family="Liberation Sans, sans-serif" font-size="353px" font-weight="400" fill="rgb(0,0,0)" stroke="none" style="white-space: pre">mg.D</tspan></tspan></tspan></text>
 <text class="SVGTextShape"><tspan class="TextParagraph"><tspan class="TextPosition" x="24020" y="14568"><tspan font-family="Liberation Sans, sans-serif" font-size="353px" font-weight="400" fill="rgb(0,0,0)" stroke="none" style="white-space: pre">sp.D</tspan></tspan></tspan></text>
 <text class="SVGTextShape"><tspan class="TextParagraph"><tspan class="TextPosition" x="2104" y="14121"><tspan font-family="Liberation Sans, sans-serif" font-size="353px" font-weight="400" fill="rgb(0,0,0)" stroke="none" style="white-space: pre">0</tspan></tspan></tspan></text>
 <text class="SVGTextShape"><tspan class="TextParagraph"><tspan class="TextPosition" x="1721" y="12302"><tspan font-family="Liberation Sans, sans-serif" font-size="353px" font-weight="400" fill="rgb(0,0,0)" stroke="none" style="white-space: pre">500</tspan></tspan></tspan></text>
 <text class="SVGTextShape"><tspan class="TextParagraph"><tspan class="TextPosition" x="1530" y="10483"><tspan font-family="Liberation Sans, sans-serif" font-size="353px" font-weight="400" fill="rgb(0,0,0)" stroke="none" style="white-space: pre">1000</tspan></tspan></tspan></text>
 <text class="SVGTextShape"><tspan class="TextParagraph"><tspan class="TextPosition" x="1530" y="8664"><tspan font-family="Liberation Sans, sans-serif" font-size="353px" font-weight="400" fill="rgb(0,0,0)" stroke="none" style="white-space: pre">1500</tspan></tspan></tspan></text>
 <text class="SVGTextShape"><tspan class="TextParagraph"><tspan class="TextPosition" x="1530" y="6845"><tspan font-family="Liberation Sans, sans-serif" font-size="353px" font-weight="400" fill="rgb(0,0,0)" stroke="none" style="white-space: pre">2000</tspan></tspan></tspan></text>
 <text class="SVGTextShape"><tspan class="TextParagraph"><tspan class="TextPosition" x="1530" y="5026"><tspan font-family="Liberation Sans, sans-serif" font-size="353px" font-weight="400" fill="rgb(0,0,0)" stroke="none" style="white-space: pre">2500</tspan></tspan></tspan></text>
 <text class="SVGTextShape"><tspan class="TextParagraph"><tspan class="TextPosition" x="1530" y="3207"><tspan font-family="Liberation Sans, sans-serif" font-size="353px" font-weight="400" fill="rgb(0,0,0)" stroke="none" style="white-space: pre">3000</tspan></tspan></tspan></text>
 <text class="SVGTextShape"><tspan class="TextParagraph"><tspan class="TextPosition" x="1530" y="1388"><tspan font-family="Liberation Sans, sans-serif" font-size="353px" font-weight="400" fill="rgb(0,0,0)" stroke="none" style="white-space: pre">3500</tspan></tspan></tspan></text>
 <path fill="rgb(0,69,134)" stroke="none" d="M 9401,576 L 9296,576 9296,365 9507,365 9507,576 9401,576 Z "/>
 <path fill="rgb(255,211,32)" stroke="none" d="M 12029,576 L 11924,576 11924,365 12135,365 12135,576 12029,576 Z "/>
 <path fill="rgb(87,157,28)" stroke="none" d="M 13377,576 L 13272,576 13272,365 13482,365 13482,576 13377,576 Z "/>
 <path fill="rgb(126,0,33)" stroke="none" d="M 14725,576 L 14619,576 14619,365 14830,365 14830,576 14725,576 Z "/>
 <path fill="rgb(131,202,255)" stroke="none" d="M 16073,576 L 15967,576 15967,365 16178,365 16178,576 16073,576 Z "/>
 <text class="SVGTextShape"><tspan class="TextParagraph"><tspan class="TextPosition" x="9607" y="590"><tspan font-family="Liberation Sans, sans-serif" font-size="353px" font-weight="400" fill="rgb(0,0,0)" stroke="none" style="white-space: pre">BAREMETAL</tspan></tspan></tspan></text>
 <text class="SVGTextShape"><tspan class="TextParagraph"><tspan class="TextPosition" x="12235" y="590"><tspan font-family="Liberation Sans, sans-serif" font-size="353px" font-weight="400" fill="rgb(0,0,0)" stroke="none" style="white-space: pre">2 VM</tspan></tspan></tspan></text>
 <text class="SVGTextShape"><tspan class="TextParagraph"><tspan class="TextPosition" x="13582" y="590"><tspan font-family="Liberation Sans, sans-serif" font-size="353px" font-weight="400" fill="rgb(0,0,0)" stroke="none" style="white-space: pre">4 VM</tspan></tspan></tspan></text>
 <text class="SVGTextShape"><tspan class="TextParagraph"><tspan class="TextPosition" x="14930" y="590"><tspan font-family="Liberation Sans, sans-serif" font-size="353px" font-weight="400" fill="rgb(0,0,0)" stroke="none" style="white-space: pre">6 VM</tspan></tspan></tspan></text>
 <text class="SVGTextShape"><tspan class="TextParagraph"><tspan class="TextPosition" x="16278" y="590"><tspan font-family="Liberation Sans, sans-serif" font-size="353px" font-weight="400" fill="rgb(0,0,0)" stroke="none" style="white-space: pre">12 VM</tspan></tspan></tspan></text>
 <text class="SVGTextShape" transform="rotate(-90 825 8608)"><tspan class="TextParagraph"><tspan class="TextPosition" x="825" y="8608"><tspan font-family="Liberation Sans, sans-serif" font-size="318px" font-weight="400" fill="rgb(0,0,0)" stroke="none" style="white-space: pre">Time (sec)</tspan></tspan></tspan></text>
 <text class="SVGTextShape"><tspan class="TextParagraph"><tspan class="TextPosition" x="13166" y="7610"><tspan font-family="Liberation Serif, serif" font-size="423px" font-weight="400" fill="rgb(255,255,255)" stroke="none" style="white-space: pre">=</tspan></tspan></tspan></text>
</svg>