<?xml version="1.0" encoding="UTF-8"?>
<!DOCTYPE svg PUBLIC "-//W3C//DTD SVG 1.1//EN" "http://www.w3.org/Graphics/SVG/1.1/DTD/svg11.dtd">
<svg width="266mm" height="149mm" viewBox="0 0 26600 14900" version="1.1" xmlns="http://www.w3.org/2000/svg" xmlns:xlink="http://www.w3.org/1999/xlink" stroke-width="28.222" stroke-linejoin="round" xml:space="preserve">
 <path fill="rgb(255,255,255)" stroke="none" d="M 13262,14919 L -13,14919 -13,-13 26536,-13 26536,14919 13262,14919 Z "/>
 <path fill="none" stroke="rgb(179,179,179)" stroke-linejoin="round" d="M 14179,12993 L 2354,12993 2354,1765 26005,1765 26005,12993 14179,12993 Z "/>
 <path fill="none" stroke="rgb(179,179,179)" stroke-linejoin="round" d="M 26005,12992 L 2354,12992 "/>
 <path fill="none" stroke="rgb(179,179,179)" stroke-linejoin="round" d="M 26005,11588 L 2354,11588 "/>
 <path fill="none" stroke="rgb(179,179,179)" stroke-linejoin="round" d="M 26005,10184 L 2354,10184 "/>
 <path fill="none" stroke="rgb(179,179,179)" stroke-linejoin="round" d="M 26005,8781 L 2354,8781 "/>
 <path fill="none" stroke="rgb(179,179,179)" stroke-linejoin="round" d="M 26005,7378 L 2354,7378 "/>
 <path fill="none" stroke="rgb(179,179,179)" stroke-linejoin="round" d="M 26005,5974 L 2354,5974 "/>
 <path fill="none" stroke="rgb(179,179,179)" stroke-linejoin="round" d="M 26005,4571 L 2354,4571 "/>
 <path fill="none" stroke="rgb(179,179,179)" stroke-linejoin="round" d="M 26005,3167 L 2354,3167 "/>
 <path fill="none" stroke="rgb(179,179,179)" stroke-linejoin="round" d="M 26005,1764 L 2354,1764 "/>
 <path fill="none" stroke="rgb(179,179,179)" stroke-linejoin="round" d="M 2354,13142 L 2354,12992 "/>
 <path fill="none" stroke="rgb(179,179,179)" stroke-linejoin="round" d="M 2354,13142 L 2354,12992 "/>
 <path fill="none" stroke="rgb(179,179,179)" stroke-linejoin="round" d="M 8267,13142 L 8267,12992 "/>
 <path fill="none" stroke="rgb(179,179,179)" stroke-linejoin="round" d="M 8267,13142 L 8267,12992 "/>
 <path fill="none" stroke="rgb(179,179,179)" stroke-linejoin="round" d="M 14179,13142 L 14179,12992 "/>
 <path fill="none" stroke="rgb(179,179,179)" stroke-linejoin="round" d="M 14179,13142 L 14179,12992 "/>
 <path fill="none" stroke="rgb(179,179,179)" stroke-linejoin="round" d="M 20092,13142 L 20092,12992 "/>
 <path fill="none" stroke="rgb(179,179,179)" stroke-linejoin="round" d="M 20092,13142 L 20092,12992 "/>
 <path fill="none" stroke="rgb(179,179,179)" stroke-linejoin="round" d="M 26005,13142 L 26005,12992 "/>
 <path fill="none" stroke="rgb(179,179,179)" stroke-linejoin="round" d="M 26005,13142 L 26005,12992 "/>
 <path fill="none" stroke="rgb(179,179,179)" stroke-linejoin="round" d="M 2354,12992 L 26005,12992 "/>
 <path fill="none" stroke="rgb(179,179,179)" stroke-linejoin="round" d="M 2204,12992 L 2354,12992 "/>
 <path fill="none" stroke="rgb(179,179,179)" stroke-linejoin="round" d="M 2204,12992 L 2354,12992 "/>
 <path fill="none" stroke="rgb(179,179,179)" stroke-linejoin="round" d="M 2204,11588 L 2354,11588 "/>
 <path fill="none" stroke="rgb(179,179,179)" stroke-linejoin="round" d="M 2204,11588 L 2354,11588 "/>
 <path fill="none" stroke="rgb(179,179,179)" stroke-linejoin="round" d="M 2204,10184 L 2354,10184 "/>
 <path fill="none" stroke="rgb(179,179,179)" stroke-linejoin="round" d="M 2204,10184 L 2354,10184 "/>
 <path fill="none" stroke="rgb(179,179,179)" stroke-linejoin="round" d="M 2204,8781 L 2354,8781 "/>
 <path fill="none" stroke="rgb(179,179,179)" stroke-linejoin="round" d="M 2204,8781 L 2354,8781 "/>
 <path fill="none" stroke="rgb(179,179,179)" stroke-linejoin="round" d="M 2204,7378 L 2354,7378 "/>
 <path fill="none" stroke="rgb(179,179,179)" stroke-linejoin="round" d="M 2204,7378 L 2354,7378 "/>
 <path fill="none" stroke="rgb(179,179,179)" stroke-linejoin="round" d="M 2204,5974 L 2354,5974 "/>
 <path fill="none" stroke="rgb(179,179,179)" stroke-linejoin="round" d="M 2204,5974 L 2354,5974 "/>
 <path fill="none" stroke="rgb(179,179,179)" stroke-linejoin="round" d="M 2204,4571 L 2354,4571 "/>
 <path fill="none" stroke="rgb(179,179,179)" stroke-linejoin="round" d="M 2204,4571 L 2354,4571 "/>
 <path fill="none" stroke="rgb(179,179,179)" stroke-linejoin="round" d="M 2204,3167 L 2354,3167 "/>
 <path fill="none" stroke="rgb(179,179,179)" stroke-linejoin="round" d="M 2204,3167 L 2354,3167 "/>
 <path fill="none" stroke="rgb(179,179,179)" stroke-linejoin="round" d="M 2204,1764 L 2354,1764 "/>
 <path fill="none" stroke="rgb(179,179,179)" stroke-linejoin="round" d="M 2204,1764 L 2354,1764 "/>
 <path fill="none" stroke="rgb(179,179,179)" stroke-linejoin="round" d="M 2354,12992 L 2354,1764 "/>
 <path fill="rgb(0,69,134)" stroke="none" d="M 2776,12992 L 3621,12992 3621,3452 2776,3452 2776,12992 Z "/>
 <path fill="rgb(0,69,134)" stroke="none" d="M 8689,12992 L 9534,12992 9534,6250 8689,6250 8689,12992 Z "/>
 <path fill="rgb(0,69,134)" stroke="none" d="M 14601,12992 L 15446,12992 15446,5494 14601,5494 14601,12992 Z "/>
 <path fill="rgb(0,69,134)" stroke="none" d="M 20514,12992 L 21359,12992 21359,5418 20514,5418 20514,12992 Z "/>
 <path fill="rgb(255,66,14)" stroke="none" d="M 3621,12992 L 4465,12992 4465,3430 3621,3430 3621,12992 Z "/>
 <path fill="rgb(255,66,14)" stroke="none" d="M 9534,12992 L 10378,12992 10378,6227 9534,6227 9534,12992 Z "/>
 <path fill="rgb(255,66,14)" stroke="none" d="M 15446,12992 L 16290,12992 16290,5472 15446,5472 15446,12992 Z "/>
 <path fill="rgb(255,66,14)" stroke="none" d="M 21359,12992 L 22203,12992 22203,5393 21359,5393 21359,12992 Z "/>
 <path fill="rgb(255,211,32)" stroke="none" d="M 4465,12992 L 5310,12992 5310,10483 4465,10483 4465,12992 Z "/>
 <path fill="rgb(255,211,32)" stroke="none" d="M 10378,12992 L 11223,12992 11223,10823 10378,10823 10378,12992 Z "/>
 <path fill="rgb(255,211,32)" stroke="none" d="M 16290,12992 L 17135,12992 17135,10769 16290,10769 16290,12992 Z "/>
 <path fill="rgb(255,211,32)" stroke="none" d="M 22203,12992 L 23048,12992 23048,10772 22203,10772 22203,12992 Z "/>
 <path fill="rgb(87,157,28)" stroke="none" d="M 5310,12992 L 6155,12992 6155,10482 5310,10482 5310,12992 Z "/>
 <path fill="rgb(87,157,28)" stroke="none" d="M 11223,12992 L 12068,12992 12068,10816 11223,10816 11223,12992 Z "/>
 <path fill="rgb(87,157,28)" stroke="none" d="M 17135,12992 L 17980,12992 17980,10756 17135,10756 17135,12992 Z "/>
 <path fill="rgb(87,157,28)" stroke="none" d="M 23048,12992 L 23893,12992 23893,10770 23048,10770 23048,12992 Z "/>
 <path fill="rgb(126,0,33)" stroke="none" d="M 6155,12992 L 6999,12992 6999,3503 6155,3503 6155,12992 Z "/>
 <path fill="rgb(126,0,33)" stroke="none" d="M 12068,12992 L 12912,12992 12912,6194 12068,6194 12068,12992 Z "/>
 <path fill="rgb(126,0,33)" stroke="none" d="M 17980,12992 L 18824,12992 18824,5464 17980,5464 17980,12992 Z "/>
 <path fill="rgb(126,0,33)" stroke="none" d="M 23893,12992 L 24737,12992 24737,5375 23893,5375 23893,12992 Z "/>
 <path fill="rgb(131,202,255)" stroke="none" d="M 6999,12992 L 7844,12992 7844,3462 6999,3462 6999,12992 Z "/>
 <path fill="rgb(131,202,255)" stroke="none" d="M 12912,12992 L 13756,12992 13756,6209 12912,6209 12912,12992 Z "/>
 <path fill="rgb(131,202,255)" stroke="none" d="M 18824,12992 L 19669,12992 19669,5467 18824,5467 18824,12992 Z "/>
 <path fill="rgb(131,202,255)" stroke="none" d="M 24737,12992 L 25582,12992 25582,5376 24737,5376 24737,12992 Z "/>
 <text class="SVGTextShape"><tspan class="TextParagraph"><tspan class="TextPosition" x="4880" y="13560"><tspan font-family="Liberation Sans, sans-serif" font-size="353px" font-weight="400" fill="rgb(0,0,0)" stroke="none" style="white-space: pre">178.7</tspan></tspan></tspan></text>
 <text class="SVGTextShape"><tspan class="TextParagraph"><tspan class="TextPosition" x="10698" y="13560"><tspan font-family="Liberation Sans, sans-serif" font-size="353px" font-weight="400" fill="rgb(0,0,0)" stroke="none" style="white-space: pre">154.51</tspan></tspan></tspan></text>
 <text class="SVGTextShape"><tspan class="TextParagraph"><tspan class="TextPosition" x="16610" y="13560"><tspan font-family="Liberation Sans, sans-serif" font-size="353px" font-weight="400" fill="rgb(0,0,0)" stroke="none" style="white-space: pre">158.33</tspan></tspan></tspan></text>
 <text class="SVGTextShape"><tspan class="TextParagraph"><tspan class="TextPosition" x="22523" y="13560"><tspan font-family="Liberation Sans, sans-serif" font-size="353px" font-weight="400" fill="rgb(0,0,0)" stroke="none" style="white-space: pre">158.16</tspan></tspan></tspan></text>
 <text class="SVGTextShape"><tspan class="TextParagraph"><tspan class="TextPosition" x="1913" y="13113"><tspan font-family="Liberation Sans, sans-serif" font-size="353px" font-weight="400" fill="rgb(0,0,0)" stroke="none" style="white-space: pre">0</tspan></tspan></tspan></text>
 <text class="SVGTextShape"><tspan class="TextParagraph"><tspan class="TextPosition" x="1530" y="11709"><tspan font-family="Liberation Sans, sans-serif" font-size="353px" font-weight="400" fill="rgb(0,0,0)" stroke="none" style="white-space: pre">100</tspan></tspan></tspan></text>
 <text class="SVGTextShape"><tspan class="TextParagraph"><tspan class="TextPosition" x="1530" y="10305"><tspan font-family="Liberation Sans, sans-serif" font-size="353px" font-weight="400" fill="rgb(0,0,0)" stroke="none" style="white-space: pre">200</tspan></tspan></tspan></text>
 <text class="SVGTextShape"><tspan class="TextParagraph"><tspan class="TextPosition" x="1530" y="8902"><tspan font-family="Liberation Sans, sans-serif" font-size="353px" font-weight="400" fill="rgb(0,0,0)" stroke="none" style="white-space: pre">300</tspan></tspan></tspan></text>
 <text class="SVGTextShape"><tspan class="TextParagraph"><tspan class="TextPosition" x="1530" y="7499"><tspan font-family="Liberation Sans, sans-serif" font-size="353px" font-weight="400" fill="rgb(0,0,0)" stroke="none" style="white-space: pre">400</tspan></tspan></tspan></text>
 <text class="SVGTextShape"><tspan class="TextParagraph"><tspan class="TextPosition" x="1530" y="6095"><tspan font-family="Liberation Sans, sans-serif" font-size="353px" font-weight="400" fill="rgb(0,0,0)" stroke="none" style="white-space: pre">500</tspan></tspan></tspan></text>
 <text class="SVGTextShape"><tspan class="TextParagraph"><tspan class="TextPosition" x="1530" y="4692"><tspan font-family="Liberation Sans, sans-serif" font-size="353px" font-weight="400" fill="rgb(0,0,0)" stroke="none" style="white-space: pre">600</tspan></tspan></tspan></text>
 <text class="SVGTextShape"><tspan class="TextParagraph"><tspan class="TextPosition" x="1530" y="3288"><tspan font-family="Liberation Sans, sans-serif" font-size="353px" font-weight="400" fill="rgb(0,0,0)" stroke="none" style="white-space: pre">700</tspan></tspan></tspan></text>
 <text class="SVGTextShape"><tspan class="TextParagraph"><tspan class="TextPosition" x="1530" y="1885"><tspan font-family="Liberation Sans, sans-serif" font-size="353px" font-weight="400" fill="rgb(0,0,0)" stroke="none" style="white-space: pre">800</tspan></tspan></tspan></text>
 <path fill="rgb(0,69,134)" stroke="none" d="M 3396,576 L 3291,576 3291,365 3502,365 3502,576 3396,576 Z "/>
 <path fill="rgb(255,66,14)" stroke="none" d="M 10691,576 L 10586,576 10586,365 10797,365 10797,576 10691,576 Z "/>
 <path fill="rgb(255,211,32)" stroke="none" d="M 17335,576 L 17229,576 17229,365 17440,365 17440,576 17335,576 Z "/>
 <path fill="rgb(87,157,28)" stroke="none" d="M 3396,1074 L 3291,1074 3291,863 3502,863 3502,1074 3396,1074 Z "/>
 <path fill="rgb(126,0,33)" stroke="none" d="M 10691,1074 L 10586,1074 10586,863 10797,863 10797,1074 10691,1074 Z "/>
 <path fill="rgb(131,202,255)" stroke="none" d="M 17335,1074 L 17229,1074 17229,863 17440,863 17440,1074 17335,1074 Z "/>
 <text class="SVGTextShape"><tspan class="TextParagraph"><tspan class="TextPosition" x="3602" y="590"><tspan font-family="Liberation Sans, sans-serif" font-size="353px" font-weight="400" fill="rgb(0,0,0)" stroke="none" style="white-space: pre"> cpumodel  (2xLLCs threads=64)</tspan></tspan></tspan></text>
 <text class="SVGTextShape"><tspan class="TextParagraph"><tspan class="TextPosition" x="10897" y="590"><tspan font-family="Liberation Sans, sans-serif" font-size="353px" font-weight="400" fill="rgb(0,0,0)" stroke="none" style="white-space: pre">cpumodel+haltpoll (2xLLCs threads=64)</tspan></tspan></tspan></text>
 <text class="SVGTextShape"><tspan class="TextParagraph"><tspan class="TextPosition" x="17540" y="590"><tspan font-family="Liberation Sans, sans-serif" font-size="353px" font-weight="400" fill="rgb(0,0,0)" stroke="none" style="white-space: pre">cpupassthough (2xLLCs=4 threads)</tspan></tspan></tspan></text>
 <text class="SVGTextShape"><tspan class="TextParagraph"><tspan class="TextPosition" x="3602" y="1088"><tspan font-family="Liberation Sans, sans-serif" font-size="353px" font-weight="400" fill="rgb(0,0,0)" stroke="none" style="white-space: pre">cpupassthough+haltpoll (2xLLCs=4 threads)</tspan></tspan></tspan></text>
 <text class="SVGTextShape"><tspan class="TextParagraph"><tspan class="TextPosition" x="10897" y="1088"><tspan font-family="Liberation Sans, sans-serif" font-size="353px" font-weight="400" fill="rgb(0,0,0)" stroke="none" style="white-space: pre">cpupassthrough (64 threads)</tspan></tspan></tspan></text>
 <text class="SVGTextShape"><tspan class="TextParagraph"><tspan class="TextPosition" x="17540" y="1088"><tspan font-family="Liberation Sans, sans-serif" font-size="353px" font-weight="400" fill="rgb(0,0,0)" stroke="none" style="white-space: pre">cpupassthrough+haltpoll (64 threads)</tspan></tspan></tspan></text>
 <text class="SVGTextShape"><tspan class="TextParagraph"><tspan class="TextPosition" x="12365" y="14325"><tspan font-family="Liberation Sans, sans-serif" font-size="318px" font-weight="400" fill="rgb(0,0,0)" stroke="none" style="white-space: pre">STREAM Operation</tspan></tspan></tspan></text>
 <text class="SVGTextShape" transform="rotate(-90 825 8414)"><tspan class="TextParagraph"><tspan class="TextPosition" x="825" y="8414"><tspan font-family="Liberation Sans, sans-serif" font-size="318px" font-weight="400" fill="rgb(0,0,0)" stroke="none" style="white-space: pre">GBytes/sec</tspan></tspan></tspan></text>
</svg>