<?xml version="1.0" encoding="UTF-8"?>
<!DOCTYPE svg PUBLIC "-//W3C//DTD SVG 1.1//EN" "http://www.w3.org/Graphics/SVG/1.1/DTD/svg11.dtd">
<svg width="282mm" height="159mm" viewBox="0 0 28200 15900" version="1.1" xmlns="http://www.w3.org/2000/svg" xmlns:xlink="http://www.w3.org/1999/xlink" stroke-width="28.222" stroke-linejoin="round" xml:space="preserve">
 <path fill="rgb(255,255,255)" stroke="none" d="M 14088,15849 L -13,15849 -13,-13 28188,-13 28188,15849 14088,15849 Z "/>
 <path fill="none" stroke="rgb(179,179,179)" stroke-linejoin="round" d="M 15005,14885 L 2387,14885 2387,1286 27624,1286 27624,14885 15005,14885 Z "/>
 <path fill="none" stroke="rgb(179,179,179)" stroke-linejoin="round" d="M 27624,14884 L 2387,14884 "/>
 <path fill="none" stroke="rgb(179,179,179)" stroke-linejoin="round" d="M 27624,13184 L 2387,13184 "/>
 <path fill="none" stroke="rgb(179,179,179)" stroke-linejoin="round" d="M 27624,11484 L 2387,11484 "/>
 <path fill="none" stroke="rgb(179,179,179)" stroke-linejoin="round" d="M 27624,9784 L 2387,9784 "/>
 <path fill="none" stroke="rgb(179,179,179)" stroke-linejoin="round" d="M 27624,8084 L 2387,8084 "/>
 <path fill="none" stroke="rgb(179,179,179)" stroke-linejoin="round" d="M 27624,6385 L 2387,6385 "/>
 <path fill="none" stroke="rgb(179,179,179)" stroke-linejoin="round" d="M 27624,4685 L 2387,4685 "/>
 <path fill="none" stroke="rgb(179,179,179)" stroke-linejoin="round" d="M 27624,2985 L 2387,2985 "/>
 <path fill="none" stroke="rgb(179,179,179)" stroke-linejoin="round" d="M 27624,1285 L 2387,1285 "/>
 <path fill="none" stroke="rgb(179,179,179)" stroke-linejoin="round" d="M 2387,15034 L 2387,14884 "/>
 <path fill="none" stroke="rgb(179,179,179)" stroke-linejoin="round" d="M 2387,15034 L 2387,14884 "/>
 <path fill="none" stroke="rgb(179,179,179)" stroke-linejoin="round" d="M 5992,15034 L 5992,14884 "/>
 <path fill="none" stroke="rgb(179,179,179)" stroke-linejoin="round" d="M 5992,15034 L 5992,14884 "/>
 <path fill="none" stroke="rgb(179,179,179)" stroke-linejoin="round" d="M 9597,15034 L 9597,14884 "/>
 <path fill="none" stroke="rgb(179,179,179)" stroke-linejoin="round" d="M 9597,15034 L 9597,14884 "/>
 <path fill="none" stroke="rgb(179,179,179)" stroke-linejoin="round" d="M 13203,15034 L 13203,14884 "/>
 <path fill="none" stroke="rgb(179,179,179)" stroke-linejoin="round" d="M 13203,15034 L 13203,14884 "/>
 <path fill="none" stroke="rgb(179,179,179)" stroke-linejoin="round" d="M 16807,15034 L 16807,14884 "/>
 <path fill="none" stroke="rgb(179,179,179)" stroke-linejoin="round" d="M 16807,15034 L 16807,14884 "/>
 <path fill="none" stroke="rgb(179,179,179)" stroke-linejoin="round" d="M 20413,15034 L 20413,14884 "/>
 <path fill="none" stroke="rgb(179,179,179)" stroke-linejoin="round" d="M 20413,15034 L 20413,14884 "/>
 <path fill="none" stroke="rgb(179,179,179)" stroke-linejoin="round" d="M 24018,15034 L 24018,14884 "/>
 <path fill="none" stroke="rgb(179,179,179)" stroke-linejoin="round" d="M 24018,15034 L 24018,14884 "/>
 <path fill="none" stroke="rgb(179,179,179)" stroke-linejoin="round" d="M 27624,15034 L 27624,14884 "/>
 <path fill="none" stroke="rgb(179,179,179)" stroke-linejoin="round" d="M 27624,15034 L 27624,14884 "/>
 <path fill="none" stroke="rgb(179,179,179)" stroke-linejoin="round" d="M 2387,14884 L 27624,14884 "/>
 <path fill="none" stroke="rgb(179,179,179)" stroke-linejoin="round" d="M 2237,14884 L 2387,14884 "/>
 <path fill="none" stroke="rgb(179,179,179)" stroke-linejoin="round" d="M 2237,14884 L 2387,14884 "/>
 <path fill="none" stroke="rgb(179,179,179)" stroke-linejoin="round" d="M 2237,13184 L 2387,13184 "/>
 <path fill="none" stroke="rgb(179,179,179)" stroke-linejoin="round" d="M 2237,13184 L 2387,13184 "/>
 <path fill="none" stroke="rgb(179,179,179)" stroke-linejoin="round" d="M 2237,11484 L 2387,11484 "/>
 <path fill="none" stroke="rgb(179,179,179)" stroke-linejoin="round" d="M 2237,11484 L 2387,11484 "/>
 <path fill="none" stroke="rgb(179,179,179)" stroke-linejoin="round" d="M 2237,9784 L 2387,9784 "/>
 <path fill="none" stroke="rgb(179,179,179)" stroke-linejoin="round" d="M 2237,9784 L 2387,9784 "/>
 <path fill="none" stroke="rgb(179,179,179)" stroke-linejoin="round" d="M 2237,8084 L 2387,8084 "/>
 <path fill="none" stroke="rgb(179,179,179)" stroke-linejoin="round" d="M 2237,8084 L 2387,8084 "/>
 <path fill="none" stroke="rgb(179,179,179)" stroke-linejoin="round" d="M 2237,6385 L 2387,6385 "/>
 <path fill="none" stroke="rgb(179,179,179)" stroke-linejoin="round" d="M 2237,6385 L 2387,6385 "/>
 <path fill="none" stroke="rgb(179,179,179)" stroke-linejoin="round" d="M 2237,4685 L 2387,4685 "/>
 <path fill="none" stroke="rgb(179,179,179)" stroke-linejoin="round" d="M 2237,4685 L 2387,4685 "/>
 <path fill="none" stroke="rgb(179,179,179)" stroke-linejoin="round" d="M 2237,2985 L 2387,2985 "/>
 <path fill="none" stroke="rgb(179,179,179)" stroke-linejoin="round" d="M 2237,2985 L 2387,2985 "/>
 <path fill="none" stroke="rgb(179,179,179)" stroke-linejoin="round" d="M 2237,1285 L 2387,1285 "/>
 <path fill="none" stroke="rgb(179,179,179)" stroke-linejoin="round" d="M 2237,1285 L 2387,1285 "/>
 <path fill="none" stroke="rgb(179,179,179)" stroke-linejoin="round" d="M 2387,14884 L 2387,1285 "/>
 <path fill="rgb(0,69,134)" stroke="none" d="M 2987,14884 L 4189,14884 4189,7154 2987,7154 2987,14884 Z "/>
 <path fill="rgb(0,69,134)" stroke="none" d="M 6593,14884 L 7795,14884 7795,8979 6593,8979 6593,14884 Z "/>
 <path fill="rgb(0,69,134)" stroke="none" d="M 10198,14884 L 11400,14884 11400,14638 10198,14638 10198,14884 Z "/>
 <path fill="rgb(0,69,134)" stroke="none" d="M 13804,14884 L 15005,14884 15005,14740 13804,14740 13804,14884 Z "/>
 <path fill="rgb(0,69,134)" stroke="none" d="M 17408,14884 L 18610,14884 18610,9591 17408,9591 17408,14884 Z "/>
 <path fill="rgb(0,69,134)" stroke="none" d="M 21014,14884 L 22215,14884 22215,13892 21014,13892 21014,14884 Z "/>
 <path fill="rgb(0,69,134)" stroke="none" d="M 24619,14884 L 25821,14884 25821,3079 24619,3079 24619,14884 Z "/>
 <path fill="rgb(255,66,14)" stroke="none" d="M 4189,14884 L 5391,14884 5391,7111 4189,7111 4189,14884 Z "/>
 <path fill="rgb(255,66,14)" stroke="none" d="M 7795,14884 L 8996,14884 8996,9067 7795,9067 7795,14884 Z "/>
 <path fill="rgb(255,66,14)" stroke="none" d="M 11400,14884 L 12602,14884 12602,14649 11400,14649 11400,14884 Z "/>
 <path fill="rgb(255,66,14)" stroke="none" d="M 15005,14884 L 16206,14884 16206,14739 15005,14739 15005,14884 Z "/>
 <path fill="rgb(255,66,14)" stroke="none" d="M 18610,14884 L 19812,14884 19812,9593 18610,9593 18610,14884 Z "/>
 <path fill="rgb(255,66,14)" stroke="none" d="M 22215,14884 L 23417,14884 23417,13886 22215,13886 22215,14884 Z "/>
 <path fill="rgb(255,66,14)" stroke="none" d="M 25821,14884 L 27023,14884 27023,3021 25821,3021 25821,14884 Z "/>
 <text class="SVGTextShape"><tspan class="TextParagraph"><tspan class="TextPosition" x="3874" y="15452"><tspan font-family="Liberation Sans, sans-serif" font-size="353px" font-weight="400" fill="rgb(0,0,0)" stroke="none" style="white-space: pre">bt.D</tspan></tspan></tspan></text>
 <text class="SVGTextShape"><tspan class="TextParagraph"><tspan class="TextPosition" x="7442" y="15452"><tspan font-family="Liberation Sans, sans-serif" font-size="353px" font-weight="400" fill="rgb(0,0,0)" stroke="none" style="white-space: pre">cg.D</tspan></tspan></tspan></text>
 <text class="SVGTextShape"><tspan class="TextParagraph"><tspan class="TextPosition" x="11037" y="15452"><tspan font-family="Liberation Sans, sans-serif" font-size="353px" font-weight="400" fill="rgb(0,0,0)" stroke="none" style="white-space: pre">ep.D</tspan></tspan></tspan></text>
 <text class="SVGTextShape"><tspan class="TextParagraph"><tspan class="TextPosition" x="14710" y="15452"><tspan font-family="Liberation Sans, sans-serif" font-size="353px" font-weight="400" fill="rgb(0,0,0)" stroke="none" style="white-space: pre">is.D</tspan></tspan></tspan></text>
 <text class="SVGTextShape"><tspan class="TextParagraph"><tspan class="TextPosition" x="18305" y="15452"><tspan font-family="Liberation Sans, sans-serif" font-size="353px" font-weight="400" fill="rgb(0,0,0)" stroke="none" style="white-space: pre">lu.D</tspan></tspan></tspan></text>
 <text class="SVGTextShape"><tspan class="TextParagraph"><tspan class="TextPosition" x="21805" y="15452"><tspan font-family="Liberation Sans, sans-serif" font-size="353px" font-weight="400" fill="rgb(0,0,0)" stroke="none" style="white-space: pre">mg.D</tspan></tspan></tspan></text>
 <text class="SVGTextShape"><tspan class="TextParagraph"><tspan class="TextPosition" x="25468" y="15452"><tspan font-family="Liberation Sans, sans-serif" font-size="353px" font-weight="400" fill="rgb(0,0,0)" stroke="none" style="white-space: pre">sp.D</tspan></tspan></tspan></text>
 <text class="SVGTextShape"><tspan class="TextParagraph"><tspan class="TextPosition" x="1946" y="15005"><tspan font-family="Liberation Sans, sans-serif" font-size="353px" font-weight="400" fill="rgb(0,0,0)" stroke="none" style="white-space: pre">0</tspan></tspan></tspan></text>
 <text class="SVGTextShape"><tspan class="TextParagraph"><tspan class="TextPosition" x="1754" y="13305"><tspan font-family="Liberation Sans, sans-serif" font-size="353px" font-weight="400" fill="rgb(0,0,0)" stroke="none" style="white-space: pre">20</tspan></tspan></tspan></text>
 <text class="SVGTextShape"><tspan class="TextParagraph"><tspan class="TextPosition" x="1754" y="11605"><tspan font-family="Liberation Sans, sans-serif" font-size="353px" font-weight="400" fill="rgb(0,0,0)" stroke="none" style="white-space: pre">40</tspan></tspan></tspan></text>
 <text class="SVGTextShape"><tspan class="TextParagraph"><tspan class="TextPosition" x="1754" y="9905"><tspan font-family="Liberation Sans, sans-serif" font-size="353px" font-weight="400" fill="rgb(0,0,0)" stroke="none" style="white-space: pre">60</tspan></tspan></tspan></text>
 <text class="SVGTextShape"><tspan class="TextParagraph"><tspan class="TextPosition" x="1754" y="8205"><tspan font-family="Liberation Sans, sans-serif" font-size="353px" font-weight="400" fill="rgb(0,0,0)" stroke="none" style="white-space: pre">80</tspan></tspan></tspan></text>
 <text class="SVGTextShape"><tspan class="TextParagraph"><tspan class="TextPosition" x="1563" y="6506"><tspan font-family="Liberation Sans, sans-serif" font-size="353px" font-weight="400" fill="rgb(0,0,0)" stroke="none" style="white-space: pre">100</tspan></tspan></tspan></text>
 <text class="SVGTextShape"><tspan class="TextParagraph"><tspan class="TextPosition" x="1563" y="4806"><tspan font-family="Liberation Sans, sans-serif" font-size="353px" font-weight="400" fill="rgb(0,0,0)" stroke="none" style="white-space: pre">120</tspan></tspan></tspan></text>
 <text class="SVGTextShape"><tspan class="TextParagraph"><tspan class="TextPosition" x="1563" y="3106"><tspan font-family="Liberation Sans, sans-serif" font-size="353px" font-weight="400" fill="rgb(0,0,0)" stroke="none" style="white-space: pre">140</tspan></tspan></tspan></text>
 <text class="SVGTextShape"><tspan class="TextParagraph"><tspan class="TextPosition" x="1563" y="1406"><tspan font-family="Liberation Sans, sans-serif" font-size="353px" font-weight="400" fill="rgb(0,0,0)" stroke="none" style="white-space: pre">160</tspan></tspan></tspan></text>
 <path fill="rgb(0,69,134)" stroke="none" d="M 12321,576 L 12216,576 12216,365 12427,365 12427,576 12321,576 Z "/>
 <path fill="rgb(255,66,14)" stroke="none" d="M 14949,576 L 14843,576 14843,365 15054,365 15054,576 14949,576 Z "/>
 <text class="SVGTextShape"><tspan class="TextParagraph"><tspan class="TextPosition" x="12527" y="590"><tspan font-family="Liberation Sans, sans-serif" font-size="353px" font-weight="400" fill="rgb(0,0,0)" stroke="none" style="white-space: pre">BAREMETAL</tspan></tspan></tspan></text>
 <text class="SVGTextShape"><tspan class="TextParagraph"><tspan class="TextPosition" x="15154" y="590"><tspan font-family="Liberation Sans, sans-serif" font-size="353px" font-weight="400" fill="rgb(0,0,0)" stroke="none" style="white-space: pre">1 VM</tspan></tspan></tspan></text>
 <text class="SVGTextShape" transform="rotate(-90 825 9059)"><tspan class="TextParagraph"><tspan class="TextPosition" x="825" y="9059"><tspan font-family="Liberation Sans, sans-serif" font-size="318px" font-weight="400" fill="rgb(0,0,0)" stroke="none" style="white-space: pre">Time (sec)</tspan></tspan></tspan></text>
 <text class="SVGTextShape"><tspan class="TextParagraph"><tspan class="TextPosition" x="13968" y="8061"><tspan font-family="Liberation Serif, serif" font-size="423px" font-weight="400" fill="rgb(255,255,255)" stroke="none" style="white-space: pre">=</tspan></tspan></tspan></text>
</svg>