<?xml version="1.0" encoding="UTF-8"?>
<!DOCTYPE svg PUBLIC "-//W3C//DTD SVG 1.1//EN" "http://www.w3.org/Graphics/SVG/1.1/DTD/svg11.dtd">
<svg width="265mm" height="149mm" viewBox="0 0 26500 14900" version="1.1" xmlns="http://www.w3.org/2000/svg" xmlns:xlink="http://www.w3.org/1999/xlink" stroke-width="28.222" stroke-linejoin="round" xml:space="preserve">
 <path fill="rgb(255,255,255)" stroke="none" d="M 13258,14915 L -13,14915 -13,-13 26529,-13 26529,14915 13258,14915 Z "/>
 <path fill="none" stroke="rgb(179,179,179)" stroke-linejoin="round" d="M 14176,12989 L 2353,12989 2353,1267 25999,1267 25999,12989 14176,12989 Z "/>
 <path fill="none" stroke="rgb(179,179,179)" stroke-linejoin="round" d="M 25999,12988 L 2353,12988 "/>
 <path fill="none" stroke="rgb(179,179,179)" stroke-linejoin="round" d="M 25999,10643 L 2353,10643 "/>
 <path fill="none" stroke="rgb(179,179,179)" stroke-linejoin="round" d="M 25999,8298 L 2353,8298 "/>
 <path fill="none" stroke="rgb(179,179,179)" stroke-linejoin="round" d="M 25999,5955 L 2353,5955 "/>
 <path fill="none" stroke="rgb(179,179,179)" stroke-linejoin="round" d="M 25999,3610 L 2353,3610 "/>
 <path fill="none" stroke="rgb(179,179,179)" stroke-linejoin="round" d="M 25999,1266 L 2353,1266 "/>
 <path fill="none" stroke="rgb(179,179,179)" stroke-linejoin="round" d="M 2353,13138 L 2353,12988 "/>
 <path fill="none" stroke="rgb(179,179,179)" stroke-linejoin="round" d="M 2353,13138 L 2353,12988 "/>
 <path fill="none" stroke="rgb(179,179,179)" stroke-linejoin="round" d="M 8264,13138 L 8264,12988 "/>
 <path fill="none" stroke="rgb(179,179,179)" stroke-linejoin="round" d="M 8264,13138 L 8264,12988 "/>
 <path fill="none" stroke="rgb(179,179,179)" stroke-linejoin="round" d="M 14175,13138 L 14175,12988 "/>
 <path fill="none" stroke="rgb(179,179,179)" stroke-linejoin="round" d="M 14175,13138 L 14175,12988 "/>
 <path fill="none" stroke="rgb(179,179,179)" stroke-linejoin="round" d="M 20087,13138 L 20087,12988 "/>
 <path fill="none" stroke="rgb(179,179,179)" stroke-linejoin="round" d="M 20087,13138 L 20087,12988 "/>
 <path fill="none" stroke="rgb(179,179,179)" stroke-linejoin="round" d="M 25999,13138 L 25999,12988 "/>
 <path fill="none" stroke="rgb(179,179,179)" stroke-linejoin="round" d="M 25999,13138 L 25999,12988 "/>
 <path fill="none" stroke="rgb(179,179,179)" stroke-linejoin="round" d="M 2353,12988 L 25999,12988 "/>
 <path fill="none" stroke="rgb(179,179,179)" stroke-linejoin="round" d="M 2203,12988 L 2353,12988 "/>
 <path fill="none" stroke="rgb(179,179,179)" stroke-linejoin="round" d="M 2203,12988 L 2353,12988 "/>
 <path fill="none" stroke="rgb(179,179,179)" stroke-linejoin="round" d="M 2203,10643 L 2353,10643 "/>
 <path fill="none" stroke="rgb(179,179,179)" stroke-linejoin="round" d="M 2203,10643 L 2353,10643 "/>
 <path fill="none" stroke="rgb(179,179,179)" stroke-linejoin="round" d="M 2203,8298 L 2353,8298 "/>
 <path fill="none" stroke="rgb(179,179,179)" stroke-linejoin="round" d="M 2203,8298 L 2353,8298 "/>
 <path fill="none" stroke="rgb(179,179,179)" stroke-linejoin="round" d="M 2203,5955 L 2353,5955 "/>
 <path fill="none" stroke="rgb(179,179,179)" stroke-linejoin="round" d="M 2203,5955 L 2353,5955 "/>
 <path fill="none" stroke="rgb(179,179,179)" stroke-linejoin="round" d="M 2203,3610 L 2353,3610 "/>
 <path fill="none" stroke="rgb(179,179,179)" stroke-linejoin="round" d="M 2203,3610 L 2353,3610 "/>
 <path fill="none" stroke="rgb(179,179,179)" stroke-linejoin="round" d="M 2203,1266 L 2353,1266 "/>
 <path fill="none" stroke="rgb(179,179,179)" stroke-linejoin="round" d="M 2203,1266 L 2353,1266 "/>
 <path fill="none" stroke="rgb(179,179,179)" stroke-linejoin="round" d="M 2353,12988 L 2353,1266 "/>
 <path fill="rgb(0,69,134)" stroke="none" d="M 3091,12988 L 4569,12988 4569,4178 3091,4178 3091,12988 Z "/>
 <path fill="rgb(0,69,134)" stroke="none" d="M 9003,12988 L 10481,12988 10481,7455 9003,7455 9003,12988 Z "/>
 <path fill="rgb(0,69,134)" stroke="none" d="M 14914,12988 L 16392,12988 16392,6691 14914,6691 14914,12988 Z "/>
 <path fill="rgb(0,69,134)" stroke="none" d="M 20826,12988 L 22304,12988 22304,6522 20826,6522 20826,12988 Z "/>
 <path fill="rgb(255,66,14)" stroke="none" d="M 4569,12988 L 6047,12988 6047,4076 4569,4076 4569,12988 Z "/>
 <path fill="rgb(255,66,14)" stroke="none" d="M 10481,12988 L 11959,12988 11959,7440 10481,7440 10481,12988 Z "/>
 <path fill="rgb(255,66,14)" stroke="none" d="M 16392,12988 L 17870,12988 17870,6684 16392,6684 16392,12988 Z "/>
 <path fill="rgb(255,66,14)" stroke="none" d="M 22304,12988 L 23782,12988 23782,6439 22304,6439 22304,12988 Z "/>
 <path fill="rgb(255,211,32)" stroke="none" d="M 6047,12988 L 7525,12988 7525,3899 6047,3899 6047,12988 Z "/>
 <path fill="rgb(255,211,32)" stroke="none" d="M 11959,12988 L 13436,12988 13436,7482 11959,7482 11959,12988 Z "/>
 <path fill="rgb(255,211,32)" stroke="none" d="M 17870,12988 L 19348,12988 19348,6690 17870,6690 17870,12988 Z "/>
 <path fill="rgb(255,211,32)" stroke="none" d="M 23782,12988 L 25260,12988 25260,6399 23782,6399 23782,12988 Z "/>
 <path fill="none" stroke="rgb(0,0,0)" stroke-linejoin="round" d="M 3830,4355 L 3830,4178 3830,4002 "/>
 <path fill="none" stroke="rgb(0,0,0)" stroke-linejoin="round" d="M 3930,4355 L 3730,4355 "/>
 <path fill="none" stroke="rgb(0,0,0)" stroke-linejoin="round" d="M 3730,4002 L 3930,4002 "/>
 <path fill="none" stroke="rgb(0,0,0)" stroke-linejoin="round" d="M 9742,7507 L 9742,7455 9742,7404 "/>
 <path fill="none" stroke="rgb(0,0,0)" stroke-linejoin="round" d="M 9842,7507 L 9642,7507 "/>
 <path fill="none" stroke="rgb(0,0,0)" stroke-linejoin="round" d="M 9642,7404 L 9842,7404 "/>
 <path fill="none" stroke="rgb(0,0,0)" stroke-linejoin="round" d="M 15653,6713 L 15653,6691 15653,6670 "/>
 <path fill="none" stroke="rgb(0,0,0)" stroke-linejoin="round" d="M 15753,6713 L 15553,6713 "/>
 <path fill="none" stroke="rgb(0,0,0)" stroke-linejoin="round" d="M 15553,6670 L 15753,6670 "/>
 <path fill="none" stroke="rgb(0,0,0)" stroke-linejoin="round" d="M 21565,6669 L 21565,6522 21565,6375 "/>
 <path fill="none" stroke="rgb(0,0,0)" stroke-linejoin="round" d="M 21665,6669 L 21465,6669 "/>
 <path fill="none" stroke="rgb(0,0,0)" stroke-linejoin="round" d="M 21465,6375 L 21665,6375 "/>
 <path fill="none" stroke="rgb(0,0,0)" stroke-linejoin="round" d="M 5308,4214 L 5308,4076 5308,3937 "/>
 <path fill="none" stroke="rgb(0,0,0)" stroke-linejoin="round" d="M 5408,4214 L 5208,4214 "/>
 <path fill="none" stroke="rgb(0,0,0)" stroke-linejoin="round" d="M 5208,3937 L 5408,3937 "/>
 <path fill="none" stroke="rgb(0,0,0)" stroke-linejoin="round" d="M 11220,7467 L 11220,7440 11220,7412 "/>
 <path fill="none" stroke="rgb(0,0,0)" stroke-linejoin="round" d="M 11320,7467 L 11120,7467 "/>
 <path fill="none" stroke="rgb(0,0,0)" stroke-linejoin="round" d="M 11120,7412 L 11320,7412 "/>
 <path fill="none" stroke="rgb(0,0,0)" stroke-linejoin="round" d="M 17131,6687 L 17131,6684 17131,6681 "/>
 <path fill="none" stroke="rgb(0,0,0)" stroke-linejoin="round" d="M 17231,6687 L 17031,6687 "/>
 <path fill="none" stroke="rgb(0,0,0)" stroke-linejoin="round" d="M 17031,6681 L 17231,6681 "/>
 <path fill="none" stroke="rgb(0,0,0)" stroke-linejoin="round" d="M 23043,6674 L 23043,6439 23043,6204 "/>
 <path fill="none" stroke="rgb(0,0,0)" stroke-linejoin="round" d="M 23143,6674 L 22943,6674 "/>
 <path fill="none" stroke="rgb(0,0,0)" stroke-linejoin="round" d="M 22943,6204 L 23143,6204 "/>
 <path fill="none" stroke="rgb(0,0,0)" stroke-linejoin="round" d="M 6786,3963 L 6786,3899 6786,3834 "/>
 <path fill="none" stroke="rgb(0,0,0)" stroke-linejoin="round" d="M 6886,3963 L 6686,3963 "/>
 <path fill="none" stroke="rgb(0,0,0)" stroke-linejoin="round" d="M 6686,3834 L 6886,3834 "/>
 <path fill="none" stroke="rgb(0,0,0)" stroke-linejoin="round" d="M 12698,7579 L 12698,7482 12698,7386 "/>
 <path fill="none" stroke="rgb(0,0,0)" stroke-linejoin="round" d="M 12798,7579 L 12598,7579 "/>
 <path fill="none" stroke="rgb(0,0,0)" stroke-linejoin="round" d="M 12598,7386 L 12798,7386 "/>
 <path fill="none" stroke="rgb(0,0,0)" stroke-linejoin="round" d="M 18609,6711 L 18609,6690 18609,6669 "/>
 <path fill="none" stroke="rgb(0,0,0)" stroke-linejoin="round" d="M 18709,6711 L 18509,6711 "/>
 <path fill="none" stroke="rgb(0,0,0)" stroke-linejoin="round" d="M 18509,6669 L 18709,6669 "/>
 <path fill="none" stroke="rgb(0,0,0)" stroke-linejoin="round" d="M 24521,6661 L 24521,6399 24521,6138 "/>
 <path fill="none" stroke="rgb(0,0,0)" stroke-linejoin="round" d="M 24621,6661 L 24421,6661 "/>
 <path fill="none" stroke="rgb(0,0,0)" stroke-linejoin="round" d="M 24421,6138 L 24621,6138 "/>
 <text class="SVGTextShape"><tspan class="TextParagraph"><tspan class="TextPosition" x="4907" y="13556"><tspan font-family="Liberation Sans, sans-serif" font-size="353px" font-weight="400" fill="rgb(0,0,0)" stroke="none" style="white-space: pre">Copy</tspan></tspan></tspan></text>
 <text class="SVGTextShape"><tspan class="TextParagraph"><tspan class="TextPosition" x="10791" y="13556"><tspan font-family="Liberation Sans, sans-serif" font-size="353px" font-weight="400" fill="rgb(0,0,0)" stroke="none" style="white-space: pre">Scale</tspan></tspan></tspan></text>
 <text class="SVGTextShape"><tspan class="TextParagraph"><tspan class="TextPosition" x="16826" y="13556"><tspan font-family="Liberation Sans, sans-serif" font-size="353px" font-weight="400" fill="rgb(0,0,0)" stroke="none" style="white-space: pre">Add</tspan></tspan></tspan></text>
 <text class="SVGTextShape"><tspan class="TextParagraph"><tspan class="TextPosition" x="22652" y="13556"><tspan font-family="Liberation Sans, sans-serif" font-size="353px" font-weight="400" fill="rgb(0,0,0)" stroke="none" style="white-space: pre">Triad</tspan></tspan></tspan></text>
 <text class="SVGTextShape"><tspan class="TextParagraph"><tspan class="TextPosition" x="1912" y="13109"><tspan font-family="Liberation Sans, sans-serif" font-size="353px" font-weight="400" fill="rgb(0,0,0)" stroke="none" style="white-space: pre">0</tspan></tspan></tspan></text>
 <text class="SVGTextShape"><tspan class="TextParagraph"><tspan class="TextPosition" x="1720" y="10764"><tspan font-family="Liberation Sans, sans-serif" font-size="353px" font-weight="400" fill="rgb(0,0,0)" stroke="none" style="white-space: pre">50</tspan></tspan></tspan></text>
 <text class="SVGTextShape"><tspan class="TextParagraph"><tspan class="TextPosition" x="1529" y="8419"><tspan font-family="Liberation Sans, sans-serif" font-size="353px" font-weight="400" fill="rgb(0,0,0)" stroke="none" style="white-space: pre">100</tspan></tspan></tspan></text>
 <text class="SVGTextShape"><tspan class="TextParagraph"><tspan class="TextPosition" x="1529" y="6076"><tspan font-family="Liberation Sans, sans-serif" font-size="353px" font-weight="400" fill="rgb(0,0,0)" stroke="none" style="white-space: pre">150</tspan></tspan></tspan></text>
 <text class="SVGTextShape"><tspan class="TextParagraph"><tspan class="TextPosition" x="1529" y="3731"><tspan font-family="Liberation Sans, sans-serif" font-size="353px" font-weight="400" fill="rgb(0,0,0)" stroke="none" style="white-space: pre">200</tspan></tspan></tspan></text>
 <text class="SVGTextShape"><tspan class="TextParagraph"><tspan class="TextPosition" x="1529" y="1387"><tspan font-family="Liberation Sans, sans-serif" font-size="353px" font-weight="400" fill="rgb(0,0,0)" stroke="none" style="white-space: pre">250</tspan></tspan></tspan></text>
 <path fill="rgb(0,69,134)" stroke="none" d="M 10644,576 L 10539,576 10539,365 10750,365 10750,576 10644,576 Z "/>
 <path fill="rgb(255,66,14)" stroke="none" d="M 13273,576 L 13168,576 13168,365 13378,365 13378,576 13273,576 Z "/>
 <path fill="rgb(255,211,32)" stroke="none" d="M 14506,576 L 14400,576 14400,365 14611,365 14611,576 14506,576 Z "/>
 <text class="SVGTextShape"><tspan class="TextParagraph"><tspan class="TextPosition" x="10850" y="590"><tspan font-family="Liberation Sans, sans-serif" font-size="353px" font-weight="400" fill="rgb(0,0,0)" stroke="none" style="white-space: pre">not encrypted</tspan></tspan></tspan></text>
 <text class="SVGTextShape"><tspan class="TextParagraph"><tspan class="TextPosition" x="13479" y="590"><tspan font-family="Liberation Sans, sans-serif" font-size="353px" font-weight="400" fill="rgb(0,0,0)" stroke="none" style="white-space: pre">SEV</tspan></tspan></tspan></text>
 <text class="SVGTextShape"><tspan class="TextParagraph"><tspan class="TextPosition" x="14711" y="590"><tspan font-family="Liberation Sans, sans-serif" font-size="353px" font-weight="400" fill="rgb(0,0,0)" stroke="none" style="white-space: pre">SEV-ES</tspan></tspan></tspan></text>
 <text class="SVGTextShape"><tspan class="TextParagraph"><tspan class="TextPosition" x="12283" y="14321"><tspan font-family="Liberation Sans, sans-serif" font-size="318px" font-weight="400" fill="rgb(0,0,0)" stroke="none" style="white-space: pre">STREAM Operations</tspan></tspan></tspan></text>
 <text class="SVGTextShape" transform="rotate(-90 825 8163)"><tspan class="TextParagraph"><tspan class="TextPosition" x="825" y="8163"><tspan font-family="Liberation Sans, sans-serif" font-size="318px" font-weight="400" fill="rgb(0,0,0)" stroke="none" style="white-space: pre">GBytes/sec</tspan></tspan></tspan></text>
</svg>