<?xml version="1.0" encoding="UTF-8"?>
<!DOCTYPE svg PUBLIC "-//W3C//DTD SVG 1.1//EN" "http://www.w3.org/Graphics/SVG/1.1/DTD/svg11.dtd">
<svg width="266mm" height="150mm" viewBox="0 0 26600 15000" version="1.1" xmlns="http://www.w3.org/2000/svg" xmlns:xlink="http://www.w3.org/1999/xlink" stroke-width="28.222" stroke-linejoin="round" xml:space="preserve">
 <path fill="rgb(255,255,255)" stroke="none" d="M 13286,14947 L -13,14947 -13,-13 26584,-13 26584,14947 13286,14947 Z "/>
 <path fill="none" stroke="rgb(179,179,179)" stroke-linejoin="round" d="M 14203,14001 L 2354,14001 2354,1268 26053,1268 26053,14001 14203,14001 Z "/>
 <path fill="none" stroke="rgb(179,179,179)" stroke-linejoin="round" d="M 26053,14000 L 2354,14000 "/>
 <path fill="none" stroke="rgb(179,179,179)" stroke-linejoin="round" d="M 26053,12408 L 2354,12408 "/>
 <path fill="none" stroke="rgb(179,179,179)" stroke-linejoin="round" d="M 26053,10816 L 2354,10816 "/>
 <path fill="none" stroke="rgb(179,179,179)" stroke-linejoin="round" d="M 26053,9224 L 2354,9224 "/>
 <path fill="none" stroke="rgb(179,179,179)" stroke-linejoin="round" d="M 26053,7633 L 2354,7633 "/>
 <path fill="none" stroke="rgb(179,179,179)" stroke-linejoin="round" d="M 26053,6042 L 2354,6042 "/>
 <path fill="none" stroke="rgb(179,179,179)" stroke-linejoin="round" d="M 26053,4450 L 2354,4450 "/>
 <path fill="none" stroke="rgb(179,179,179)" stroke-linejoin="round" d="M 26053,2858 L 2354,2858 "/>
 <path fill="none" stroke="rgb(179,179,179)" stroke-linejoin="round" d="M 26053,1267 L 2354,1267 "/>
 <path fill="none" stroke="rgb(179,179,179)" stroke-linejoin="round" d="M 2354,14150 L 2354,14000 "/>
 <path fill="none" stroke="rgb(179,179,179)" stroke-linejoin="round" d="M 2354,14150 L 2354,14000 "/>
 <path fill="none" stroke="rgb(179,179,179)" stroke-linejoin="round" d="M 5739,14150 L 5739,14000 "/>
 <path fill="none" stroke="rgb(179,179,179)" stroke-linejoin="round" d="M 5739,14150 L 5739,14000 "/>
 <path fill="none" stroke="rgb(179,179,179)" stroke-linejoin="round" d="M 9125,14150 L 9125,14000 "/>
 <path fill="none" stroke="rgb(179,179,179)" stroke-linejoin="round" d="M 9125,14150 L 9125,14000 "/>
 <path fill="none" stroke="rgb(179,179,179)" stroke-linejoin="round" d="M 12511,14150 L 12511,14000 "/>
 <path fill="none" stroke="rgb(179,179,179)" stroke-linejoin="round" d="M 12511,14150 L 12511,14000 "/>
 <path fill="none" stroke="rgb(179,179,179)" stroke-linejoin="round" d="M 15895,14150 L 15895,14000 "/>
 <path fill="none" stroke="rgb(179,179,179)" stroke-linejoin="round" d="M 15895,14150 L 15895,14000 "/>
 <path fill="none" stroke="rgb(179,179,179)" stroke-linejoin="round" d="M 19281,14150 L 19281,14000 "/>
 <path fill="none" stroke="rgb(179,179,179)" stroke-linejoin="round" d="M 19281,14150 L 19281,14000 "/>
 <path fill="none" stroke="rgb(179,179,179)" stroke-linejoin="round" d="M 22667,14150 L 22667,14000 "/>
 <path fill="none" stroke="rgb(179,179,179)" stroke-linejoin="round" d="M 22667,14150 L 22667,14000 "/>
 <path fill="none" stroke="rgb(179,179,179)" stroke-linejoin="round" d="M 26053,14150 L 26053,14000 "/>
 <path fill="none" stroke="rgb(179,179,179)" stroke-linejoin="round" d="M 26053,14150 L 26053,14000 "/>
 <path fill="none" stroke="rgb(179,179,179)" stroke-linejoin="round" d="M 2354,14000 L 26053,14000 "/>
 <path fill="none" stroke="rgb(179,179,179)" stroke-linejoin="round" d="M 2204,14000 L 2354,14000 "/>
 <path fill="none" stroke="rgb(179,179,179)" stroke-linejoin="round" d="M 2204,14000 L 2354,14000 "/>
 <path fill="none" stroke="rgb(179,179,179)" stroke-linejoin="round" d="M 2204,12408 L 2354,12408 "/>
 <path fill="none" stroke="rgb(179,179,179)" stroke-linejoin="round" d="M 2204,12408 L 2354,12408 "/>
 <path fill="none" stroke="rgb(179,179,179)" stroke-linejoin="round" d="M 2204,10816 L 2354,10816 "/>
 <path fill="none" stroke="rgb(179,179,179)" stroke-linejoin="round" d="M 2204,10816 L 2354,10816 "/>
 <path fill="none" stroke="rgb(179,179,179)" stroke-linejoin="round" d="M 2204,9224 L 2354,9224 "/>
 <path fill="none" stroke="rgb(179,179,179)" stroke-linejoin="round" d="M 2204,9224 L 2354,9224 "/>
 <path fill="none" stroke="rgb(179,179,179)" stroke-linejoin="round" d="M 2204,7633 L 2354,7633 "/>
 <path fill="none" stroke="rgb(179,179,179)" stroke-linejoin="round" d="M 2204,7633 L 2354,7633 "/>
 <path fill="none" stroke="rgb(179,179,179)" stroke-linejoin="round" d="M 2204,6042 L 2354,6042 "/>
 <path fill="none" stroke="rgb(179,179,179)" stroke-linejoin="round" d="M 2204,6042 L 2354,6042 "/>
 <path fill="none" stroke="rgb(179,179,179)" stroke-linejoin="round" d="M 2204,4450 L 2354,4450 "/>
 <path fill="none" stroke="rgb(179,179,179)" stroke-linejoin="round" d="M 2204,4450 L 2354,4450 "/>
 <path fill="none" stroke="rgb(179,179,179)" stroke-linejoin="round" d="M 2204,2858 L 2354,2858 "/>
 <path fill="none" stroke="rgb(179,179,179)" stroke-linejoin="round" d="M 2204,2858 L 2354,2858 "/>
 <path fill="none" stroke="rgb(179,179,179)" stroke-linejoin="round" d="M 2204,1267 L 2354,1267 "/>
 <path fill="none" stroke="rgb(179,179,179)" stroke-linejoin="round" d="M 2204,1267 L 2354,1267 "/>
 <path fill="none" stroke="rgb(179,179,179)" stroke-linejoin="round" d="M 2354,14000 L 2354,1267 "/>
 <path fill="rgb(0,69,134)" stroke="none" d="M 2692,14000 L 3369,14000 3369,6722 2692,6722 2692,14000 Z "/>
 <path fill="rgb(0,69,134)" stroke="none" d="M 6078,14000 L 6755,14000 6755,8686 6078,8686 6078,14000 Z "/>
 <path fill="rgb(0,69,134)" stroke="none" d="M 9464,14000 L 10141,14000 10141,13762 9464,13762 9464,14000 Z "/>
 <path fill="rgb(0,69,134)" stroke="none" d="M 12849,14000 L 13525,14000 13525,13863 12849,13863 12849,14000 Z "/>
 <path fill="rgb(0,69,134)" stroke="none" d="M 16234,14000 L 16911,14000 16911,9044 16234,9044 16234,14000 Z "/>
 <path fill="rgb(0,69,134)" stroke="none" d="M 19620,14000 L 20297,14000 20297,13068 19620,13068 19620,14000 Z "/>
 <path fill="rgb(0,69,134)" stroke="none" d="M 23005,14000 L 23683,14000 23683,2882 23005,2882 23005,14000 Z "/>
 <path fill="rgb(255,66,14)" stroke="none" d="M 3369,14000 L 4046,14000 4046,6722 3369,6722 3369,14000 Z "/>
 <path fill="rgb(255,66,14)" stroke="none" d="M 6755,14000 L 7432,14000 7432,8553 6755,8553 6755,14000 Z "/>
 <path fill="rgb(255,66,14)" stroke="none" d="M 10141,14000 L 10818,14000 10818,13780 10141,13780 10141,14000 Z "/>
 <path fill="rgb(255,66,14)" stroke="none" d="M 13525,14000 L 14202,14000 14202,13864 13525,13864 13525,14000 Z "/>
 <path fill="rgb(255,66,14)" stroke="none" d="M 16911,14000 L 17588,14000 17588,9046 16911,9046 16911,14000 Z "/>
 <path fill="rgb(255,66,14)" stroke="none" d="M 20297,14000 L 20974,14000 20974,13066 20297,13066 20297,14000 Z "/>
 <path fill="rgb(255,66,14)" stroke="none" d="M 23683,14000 L 24360,14000 24360,2892 23683,2892 23683,14000 Z "/>
 <path fill="rgb(255,211,32)" stroke="none" d="M 4046,14000 L 4724,14000 4724,6737 4046,6737 4046,14000 Z "/>
 <path fill="rgb(255,211,32)" stroke="none" d="M 7432,14000 L 8109,14000 8109,9699 7432,9699 7432,14000 Z "/>
 <path fill="rgb(255,211,32)" stroke="none" d="M 10818,14000 L 11495,14000 11495,13750 10818,13750 10818,14000 Z "/>
 <path fill="rgb(255,211,32)" stroke="none" d="M 14203,14000 L 14880,14000 14880,13864 14203,13864 14203,14000 Z "/>
 <path fill="rgb(255,211,32)" stroke="none" d="M 17588,14000 L 18265,14000 18265,9049 17588,9049 17588,14000 Z "/>
 <path fill="rgb(255,211,32)" stroke="none" d="M 20974,14000 L 21651,14000 21651,13064 20974,13064 20974,14000 Z "/>
 <path fill="rgb(255,211,32)" stroke="none" d="M 24360,14000 L 25037,14000 25037,2994 24360,2994 24360,14000 Z "/>
 <path fill="rgb(87,157,28)" stroke="none" d="M 4724,14000 L 5401,14000 5401,6731 4724,6731 4724,14000 Z "/>
 <path fill="rgb(87,157,28)" stroke="none" d="M 8109,14000 L 8786,14000 8786,9594 8109,9594 8109,14000 Z "/>
 <path fill="rgb(87,157,28)" stroke="none" d="M 11495,14000 L 12172,14000 12172,13760 11495,13760 11495,14000 Z "/>
 <path fill="rgb(87,157,28)" stroke="none" d="M 14880,14000 L 15557,14000 15557,13864 14880,13864 14880,14000 Z "/>
 <path fill="rgb(87,157,28)" stroke="none" d="M 18265,14000 L 18943,14000 18943,9048 18265,9048 18265,14000 Z "/>
 <path fill="rgb(87,157,28)" stroke="none" d="M 21651,14000 L 22328,14000 22328,13064 21651,13064 21651,14000 Z "/>
 <path fill="rgb(87,157,28)" stroke="none" d="M 25037,14000 L 25714,14000 25714,3017 25037,3017 25037,14000 Z "/>
 <text class="SVGTextShape"><tspan class="TextParagraph"><tspan class="TextPosition" x="3731" y="14568"><tspan font-family="Liberation Sans, sans-serif" font-size="353px" font-weight="400" fill="rgb(0,0,0)" stroke="none" style="white-space: pre">bt.D</tspan></tspan></tspan></text>
 <text class="SVGTextShape"><tspan class="TextParagraph"><tspan class="TextPosition" x="7079" y="14568"><tspan font-family="Liberation Sans, sans-serif" font-size="353px" font-weight="400" fill="rgb(0,0,0)" stroke="none" style="white-space: pre">cg.D</tspan></tspan></tspan></text>
 <text class="SVGTextShape"><tspan class="TextParagraph"><tspan class="TextPosition" x="10455" y="14568"><tspan font-family="Liberation Sans, sans-serif" font-size="353px" font-weight="400" fill="rgb(0,0,0)" stroke="none" style="white-space: pre">ep.D</tspan></tspan></tspan></text>
 <text class="SVGTextShape"><tspan class="TextParagraph"><tspan class="TextPosition" x="13908" y="14568"><tspan font-family="Liberation Sans, sans-serif" font-size="353px" font-weight="400" fill="rgb(0,0,0)" stroke="none" style="white-space: pre">is.D</tspan></tspan></tspan></text>
 <text class="SVGTextShape"><tspan class="TextParagraph"><tspan class="TextPosition" x="17283" y="14568"><tspan font-family="Liberation Sans, sans-serif" font-size="353px" font-weight="400" fill="rgb(0,0,0)" stroke="none" style="white-space: pre">lu.D</tspan></tspan></tspan></text>
 <text class="SVGTextShape"><tspan class="TextParagraph"><tspan class="TextPosition" x="20564" y="14568"><tspan font-family="Liberation Sans, sans-serif" font-size="353px" font-weight="400" fill="rgb(0,0,0)" stroke="none" style="white-space: pre">mg.D</tspan></tspan></tspan></text>
 <text class="SVGTextShape"><tspan class="TextParagraph"><tspan class="TextPosition" x="24007" y="14568"><tspan font-family="Liberation Sans, sans-serif" font-size="353px" font-weight="400" fill="rgb(0,0,0)" stroke="none" style="white-space: pre">sp.D</tspan></tspan></tspan></text>
 <text class="SVGTextShape"><tspan class="TextParagraph"><tspan class="TextPosition" x="1913" y="14121"><tspan font-family="Liberation Sans, sans-serif" font-size="353px" font-weight="400" fill="rgb(0,0,0)" stroke="none" style="white-space: pre">0</tspan></tspan></tspan></text>
 <text class="SVGTextShape"><tspan class="TextParagraph"><tspan class="TextPosition" x="1721" y="12529"><tspan font-family="Liberation Sans, sans-serif" font-size="353px" font-weight="400" fill="rgb(0,0,0)" stroke="none" style="white-space: pre">20</tspan></tspan></tspan></text>
 <text class="SVGTextShape"><tspan class="TextParagraph"><tspan class="TextPosition" x="1721" y="10937"><tspan font-family="Liberation Sans, sans-serif" font-size="353px" font-weight="400" fill="rgb(0,0,0)" stroke="none" style="white-space: pre">40</tspan></tspan></tspan></text>
 <text class="SVGTextShape"><tspan class="TextParagraph"><tspan class="TextPosition" x="1721" y="9345"><tspan font-family="Liberation Sans, sans-serif" font-size="353px" font-weight="400" fill="rgb(0,0,0)" stroke="none" style="white-space: pre">60</tspan></tspan></tspan></text>
 <text class="SVGTextShape"><tspan class="TextParagraph"><tspan class="TextPosition" x="1721" y="7754"><tspan font-family="Liberation Sans, sans-serif" font-size="353px" font-weight="400" fill="rgb(0,0,0)" stroke="none" style="white-space: pre">80</tspan></tspan></tspan></text>
 <text class="SVGTextShape"><tspan class="TextParagraph"><tspan class="TextPosition" x="1530" y="6163"><tspan font-family="Liberation Sans, sans-serif" font-size="353px" font-weight="400" fill="rgb(0,0,0)" stroke="none" style="white-space: pre">100</tspan></tspan></tspan></text>
 <text class="SVGTextShape"><tspan class="TextParagraph"><tspan class="TextPosition" x="1530" y="4571"><tspan font-family="Liberation Sans, sans-serif" font-size="353px" font-weight="400" fill="rgb(0,0,0)" stroke="none" style="white-space: pre">120</tspan></tspan></tspan></text>
 <text class="SVGTextShape"><tspan class="TextParagraph"><tspan class="TextPosition" x="1530" y="2979"><tspan font-family="Liberation Sans, sans-serif" font-size="353px" font-weight="400" fill="rgb(0,0,0)" stroke="none" style="white-space: pre">140</tspan></tspan></tspan></text>
 <text class="SVGTextShape"><tspan class="TextParagraph"><tspan class="TextPosition" x="1530" y="1388"><tspan font-family="Liberation Sans, sans-serif" font-size="353px" font-weight="400" fill="rgb(0,0,0)" stroke="none" style="white-space: pre">160</tspan></tspan></tspan></text>
 <path fill="rgb(0,69,134)" stroke="none" d="M 7254,576 L 7149,576 7149,365 7360,365 7360,576 7254,576 Z "/>
 <path fill="rgb(255,66,14)" stroke="none" d="M 9386,576 L 9281,576 9281,365 9492,365 9492,576 9386,576 Z "/>
 <path fill="rgb(255,211,32)" stroke="none" d="M 12713,576 L 12608,576 12608,365 12819,365 12819,576 12713,576 Z "/>
 <path fill="rgb(87,157,28)" stroke="none" d="M 15591,576 L 15485,576 15485,365 15696,365 15696,576 15591,576 Z "/>
 <text class="SVGTextShape"><tspan class="TextParagraph"><tspan class="TextPosition" x="7460" y="590"><tspan font-family="Liberation Sans, sans-serif" font-size="353px" font-weight="400" fill="rgb(0,0,0)" stroke="none" style="white-space: pre"> cpumodel</tspan></tspan></tspan></text>
 <text class="SVGTextShape"><tspan class="TextParagraph"><tspan class="TextPosition" x="9592" y="590"><tspan font-family="Liberation Sans, sans-serif" font-size="353px" font-weight="400" fill="rgb(0,0,0)" stroke="none" style="white-space: pre">cpumodel+haltpoll</tspan></tspan></tspan></text>
 <text class="SVGTextShape"><tspan class="TextParagraph"><tspan class="TextPosition" x="12919" y="590"><tspan font-family="Liberation Sans, sans-serif" font-size="353px" font-weight="400" fill="rgb(0,0,0)" stroke="none" style="white-space: pre">cpupassthough</tspan></tspan></tspan></text>
 <text class="SVGTextShape"><tspan class="TextParagraph"><tspan class="TextPosition" x="15796" y="590"><tspan font-family="Liberation Sans, sans-serif" font-size="353px" font-weight="400" fill="rgb(0,0,0)" stroke="none" style="white-space: pre">cpupassthough+haltpoll</tspan></tspan></tspan></text>
 <text class="SVGTextShape" transform="rotate(-90 825 8608)"><tspan class="TextParagraph"><tspan class="TextPosition" x="825" y="8608"><tspan font-family="Liberation Sans, sans-serif" font-size="318px" font-weight="400" fill="rgb(0,0,0)" stroke="none" style="white-space: pre">Time (sec)</tspan></tspan></tspan></text>
 <text class="SVGTextShape"><tspan class="TextParagraph"><tspan class="TextPosition" x="13166" y="7610"><tspan font-family="Liberation Serif, serif" font-size="423px" font-weight="400" fill="rgb(255,255,255)" stroke="none" style="white-space: pre">=</tspan></tspan></tspan></text>
</svg>