<?xml version="1.0" encoding="UTF-8"?>
<!DOCTYPE svg PUBLIC "-//W3C//DTD SVG 1.1//EN" "http://www.w3.org/Graphics/SVG/1.1/DTD/svg11.dtd">
<svg width="160mm" height="117mm" viewBox="0 0 16000 11700" version="1.1" xmlns="http://www.w3.org/2000/svg" xmlns:xlink="http://www.w3.org/1999/xlink" stroke-width="28.222" stroke-linejoin="round" xml:space="preserve">
 <path fill="rgb(255,255,255)" stroke="none" d="M 7987,11687 L -13,11687 -13,-13 15987,-13 15987,11687 7987,11687 Z"/>
 <path fill="none" stroke="rgb(179,179,179)" stroke-linejoin="round" d="M 8026,10807 L 3216,10807 3216,221 12836,221 12836,10807 8026,10807 Z"/>
 <path fill="none" stroke="rgb(179,179,179)" stroke-linejoin="round" d="M 3216,220 L 3216,10806"/>
 <path fill="none" stroke="rgb(179,179,179)" stroke-linejoin="round" d="M 4418,220 L 4418,10806"/>
 <path fill="none" stroke="rgb(179,179,179)" stroke-linejoin="round" d="M 5621,220 L 5621,10806"/>
 <path fill="none" stroke="rgb(179,179,179)" stroke-linejoin="round" d="M 6823,220 L 6823,10806"/>
 <path fill="none" stroke="rgb(179,179,179)" stroke-linejoin="round" d="M 8025,220 L 8025,10806"/>
 <path fill="none" stroke="rgb(179,179,179)" stroke-linejoin="round" d="M 9228,220 L 9228,10806"/>
 <path fill="none" stroke="rgb(179,179,179)" stroke-linejoin="round" d="M 10430,220 L 10430,10806"/>
 <path fill="none" stroke="rgb(179,179,179)" stroke-linejoin="round" d="M 11633,220 L 11633,10806"/>
 <path fill="none" stroke="rgb(179,179,179)" stroke-linejoin="round" d="M 12836,220 L 12836,10806"/>
 <path fill="none" stroke="rgb(179,179,179)" stroke-linejoin="round" d="M 3066,220 L 3216,220"/>
 <path fill="none" stroke="rgb(179,179,179)" stroke-linejoin="round" d="M 3066,220 L 3216,220"/>
 <path fill="none" stroke="rgb(179,179,179)" stroke-linejoin="round" d="M 3066,1278 L 3216,1278"/>
 <path fill="none" stroke="rgb(179,179,179)" stroke-linejoin="round" d="M 3066,1278 L 3216,1278"/>
 <path fill="none" stroke="rgb(179,179,179)" stroke-linejoin="round" d="M 3066,2337 L 3216,2337"/>
 <path fill="none" stroke="rgb(179,179,179)" stroke-linejoin="round" d="M 3066,2337 L 3216,2337"/>
 <path fill="none" stroke="rgb(179,179,179)" stroke-linejoin="round" d="M 3066,3396 L 3216,3396"/>
 <path fill="none" stroke="rgb(179,179,179)" stroke-linejoin="round" d="M 3066,3396 L 3216,3396"/>
 <path fill="none" stroke="rgb(179,179,179)" stroke-linejoin="round" d="M 3066,4454 L 3216,4454"/>
 <path fill="none" stroke="rgb(179,179,179)" stroke-linejoin="round" d="M 3066,4454 L 3216,4454"/>
 <path fill="none" stroke="rgb(179,179,179)" stroke-linejoin="round" d="M 3066,5513 L 3216,5513"/>
 <path fill="none" stroke="rgb(179,179,179)" stroke-linejoin="round" d="M 3066,5513 L 3216,5513"/>
 <path fill="none" stroke="rgb(179,179,179)" stroke-linejoin="round" d="M 3066,6571 L 3216,6571"/>
 <path fill="none" stroke="rgb(179,179,179)" stroke-linejoin="round" d="M 3066,6571 L 3216,6571"/>
 <path fill="none" stroke="rgb(179,179,179)" stroke-linejoin="round" d="M 3066,7629 L 3216,7629"/>
 <path fill="none" stroke="rgb(179,179,179)" stroke-linejoin="round" d="M 3066,7629 L 3216,7629"/>
 <path fill="none" stroke="rgb(179,179,179)" stroke-linejoin="round" d="M 3066,8688 L 3216,8688"/>
 <path fill="none" stroke="rgb(179,179,179)" stroke-linejoin="round" d="M 3066,8688 L 3216,8688"/>
 <path fill="none" stroke="rgb(179,179,179)" stroke-linejoin="round" d="M 3066,9747 L 3216,9747"/>
 <path fill="none" stroke="rgb(179,179,179)" stroke-linejoin="round" d="M 3066,9747 L 3216,9747"/>
 <path fill="none" stroke="rgb(179,179,179)" stroke-linejoin="round" d="M 3066,10806 L 3216,10806"/>
 <path fill="none" stroke="rgb(179,179,179)" stroke-linejoin="round" d="M 3066,10806 L 3216,10806"/>
 <path fill="none" stroke="rgb(179,179,179)" stroke-linejoin="round" d="M 3216,10806 L 3216,220"/>
 <path fill="none" stroke="rgb(179,179,179)" stroke-linejoin="round" d="M 3216,10956 L 3216,10806"/>
 <path fill="none" stroke="rgb(179,179,179)" stroke-linejoin="round" d="M 3216,70 L 3216,220"/>
 <path fill="none" stroke="rgb(179,179,179)" stroke-linejoin="round" d="M 4418,10956 L 4418,10806"/>
 <path fill="none" stroke="rgb(179,179,179)" stroke-linejoin="round" d="M 4418,70 L 4418,220"/>
 <path fill="none" stroke="rgb(179,179,179)" stroke-linejoin="round" d="M 5621,10956 L 5621,10806"/>
 <path fill="none" stroke="rgb(179,179,179)" stroke-linejoin="round" d="M 5621,70 L 5621,220"/>
 <path fill="none" stroke="rgb(179,179,179)" stroke-linejoin="round" d="M 6823,10956 L 6823,10806"/>
 <path fill="none" stroke="rgb(179,179,179)" stroke-linejoin="round" d="M 6823,70 L 6823,220"/>
 <path fill="none" stroke="rgb(179,179,179)" stroke-linejoin="round" d="M 8025,10956 L 8025,10806"/>
 <path fill="none" stroke="rgb(179,179,179)" stroke-linejoin="round" d="M 8025,70 L 8025,220"/>
 <path fill="none" stroke="rgb(179,179,179)" stroke-linejoin="round" d="M 9228,10956 L 9228,10806"/>
 <path fill="none" stroke="rgb(179,179,179)" stroke-linejoin="round" d="M 9228,70 L 9228,220"/>
 <path fill="none" stroke="rgb(179,179,179)" stroke-linejoin="round" d="M 10430,10956 L 10430,10806"/>
 <path fill="none" stroke="rgb(179,179,179)" stroke-linejoin="round" d="M 10430,70 L 10430,220"/>
 <path fill="none" stroke="rgb(179,179,179)" stroke-linejoin="round" d="M 11633,10956 L 11633,10806"/>
 <path fill="none" stroke="rgb(179,179,179)" stroke-linejoin="round" d="M 11633,70 L 11633,220"/>
 <path fill="none" stroke="rgb(179,179,179)" stroke-linejoin="round" d="M 12836,10956 L 12836,10806"/>
 <path fill="none" stroke="rgb(179,179,179)" stroke-linejoin="round" d="M 12836,70 L 12836,220"/>
 <path fill="none" stroke="rgb(179,179,179)" stroke-linejoin="round" d="M 3216,220 L 12836,220"/>
 <path fill="rgb(12,50,44)" stroke="none" d="M 3216,325 L 3216,537 9228,537 9228,325 3216,325 Z"/>
 <path fill="rgb(12,50,44)" stroke="none" d="M 3216,1384 L 3216,1596 9228,1596 9228,1384 3216,1384 Z"/>
 <path fill="rgb(12,50,44)" stroke="none" d="M 3216,2443 L 3216,2655 9228,2655 9228,2443 3216,2443 Z"/>
 <path fill="rgb(12,50,44)" stroke="none" d="M 3216,3501 L 3216,3713 9228,3713 9228,3501 3216,3501 Z"/>
 <path fill="rgb(12,50,44)" stroke="none" d="M 3216,4560 L 3216,4772 9228,4772 9228,4560 3216,4560 Z"/>
 <path fill="rgb(12,50,44)" stroke="none" d="M 3216,5619 L 3216,5831 9228,5831 9228,5619 3216,5619 Z"/>
 <path fill="rgb(12,50,44)" stroke="none" d="M 3216,6677 L 3216,6888 9228,6888 9228,6677 3216,6677 Z"/>
 <path fill="rgb(12,50,44)" stroke="none" d="M 3216,7735 L 3216,7947 9228,7947 9228,7735 3216,7735 Z"/>
 <path fill="rgb(12,50,44)" stroke="none" d="M 3216,8794 L 3216,9006 9228,9006 9228,8794 3216,8794 Z"/>
 <path fill="rgb(12,50,44)" stroke="none" d="M 3216,9853 L 3216,10064 9228,10064 9228,9853 3216,9853 Z"/>
 <path fill="rgb(19,148,72)" stroke="none" d="M 3216,537 L 3216,749 9564,749 9564,537 3216,537 Z"/>
 <path fill="rgb(19,148,72)" stroke="none" d="M 3216,1596 L 3216,1808 9389,1808 9389,1596 3216,1596 Z"/>
 <path fill="rgb(19,148,72)" stroke="none" d="M 3216,2655 L 3216,2866 9457,2866 9457,2655 3216,2655 Z"/>
 <path fill="rgb(19,148,72)" stroke="none" d="M 3216,3713 L 3216,3925 9534,3925 9534,3713 3216,3713 Z"/>
 <path fill="rgb(19,148,72)" stroke="none" d="M 3216,4772 L 3216,4984 9367,4984 9367,4772 3216,4772 Z"/>
 <path fill="rgb(19,148,72)" stroke="none" d="M 3216,5831 L 3216,6041 9164,6041 9164,5831 3216,5831 Z"/>
 <path fill="rgb(19,148,72)" stroke="none" d="M 3216,6888 L 3216,7100 10386,7100 10386,6888 3216,6888 Z"/>
 <path fill="rgb(19,148,72)" stroke="none" d="M 3216,7947 L 3216,8159 9787,8159 9787,7947 3216,7947 Z"/>
 <path fill="rgb(19,148,72)" stroke="none" d="M 3216,9006 L 3216,9217 9221,9217 9221,9006 3216,9006 Z"/>
 <path fill="rgb(19,148,72)" stroke="none" d="M 3216,10064 L 3216,10276 9253,10276 9253,10064 3216,10064 Z"/>
 <path fill="rgb(255,193,8)" stroke="none" d="M 3216,749 L 3216,961 9760,961 9760,749 3216,749 Z"/>
 <path fill="rgb(255,193,8)" stroke="none" d="M 3216,1808 L 3216,2019 9624,2019 9624,1808 3216,1808 Z"/>
 <path fill="rgb(255,193,8)" stroke="none" d="M 3216,2866 L 3216,3078 9389,3078 9389,2866 3216,2866 Z"/>
 <path fill="rgb(255,193,8)" stroke="none" d="M 3216,3925 L 3216,4137 10221,4137 10221,3925 3216,3925 Z"/>
 <path fill="rgb(255,193,8)" stroke="none" d="M 3216,4984 L 3216,5195 9507,5195 9507,4984 3216,4984 Z"/>
 <path fill="rgb(255,193,8)" stroke="none" d="M 3216,6041 L 3216,6253 10699,6253 10699,6041 3216,6041 Z"/>
 <path fill="rgb(255,193,8)" stroke="none" d="M 3216,7100 L 3216,7312 8983,7312 8983,7100 3216,7100 Z"/>
 <path fill="rgb(255,193,8)" stroke="none" d="M 3216,8159 L 3216,8370 9125,8370 9125,8159 3216,8159 Z"/>
 <path fill="rgb(255,193,8)" stroke="none" d="M 3216,9217 L 3216,9429 11607,9429 11607,9217 3216,9217 Z"/>
 <path fill="rgb(255,193,8)" stroke="none" d="M 3216,10276 L 3216,10488 9490,10488 9490,10276 3216,10276 Z"/>
 <path fill="rgb(0,138,207)" stroke="none" d="M 3216,961 L 3216,1172 10067,1172 10067,961 3216,961 Z"/>
 <path fill="rgb(0,138,207)" stroke="none" d="M 3216,2019 L 3216,2231 9797,2231 9797,2019 3216,2019 Z"/>
 <path fill="rgb(0,138,207)" stroke="none" d="M 3216,3078 L 3216,3290 10206,3290 10206,3078 3216,3078 Z"/>
 <path fill="rgb(0,138,207)" stroke="none" d="M 3216,4137 L 3216,4348 10802,4348 10802,4137 3216,4137 Z"/>
 <path fill="rgb(0,138,207)" stroke="none" d="M 3216,5195 L 3216,5407 9975,5407 9975,5195 3216,5195 Z"/>
 <path fill="rgb(0,138,207)" stroke="none" d="M 3216,6253 L 3216,6465 10726,6465 10726,6253 3216,6253 Z"/>
 <path fill="rgb(0,138,207)" stroke="none" d="M 3216,7312 L 3216,7524 9885,7524 9885,7312 3216,7312 Z"/>
 <path fill="rgb(0,138,207)" stroke="none" d="M 3216,8370 L 3216,8582 10026,8582 10026,8370 3216,8370 Z"/>
 <path fill="rgb(0,138,207)" stroke="none" d="M 3216,9429 L 3216,9641 11445,9641 11445,9429 3216,9429 Z"/>
 <path fill="rgb(0,138,207)" stroke="none" d="M 3216,10488 L 3216,10700 9440,10700 9440,10488 3216,10488 Z"/>
 <text class="SVGTextShape"><tspan class="TextParagraph"><tspan class="TextPosition" x="480" y="870"><tspan font-family="Liberation Sans, sans-serif" font-size="353px" font-weight="400" fill="rgb(0,0,0)" stroke="none" style="white-space: pre">500.perlbench_r</tspan></tspan></tspan></text>
 <text class="SVGTextShape"><tspan class="TextParagraph"><tspan class="TextPosition" x="1455" y="1929"><tspan font-family="Liberation Sans, sans-serif" font-size="353px" font-weight="400" fill="rgb(0,0,0)" stroke="none" style="white-space: pre">502.gcc_r</tspan></tspan></tspan></text>
 <text class="SVGTextShape"><tspan class="TextParagraph"><tspan class="TextPosition" x="1437" y="2987"><tspan font-family="Liberation Sans, sans-serif" font-size="353px" font-weight="400" fill="rgb(0,0,0)" stroke="none" style="white-space: pre">505.mcf_r</tspan></tspan></tspan></text>
 <text class="SVGTextShape"><tspan class="TextParagraph"><tspan class="TextPosition" x="652" y="4046"><tspan font-family="Liberation Sans, sans-serif" font-size="353px" font-weight="400" fill="rgb(0,0,0)" stroke="none" style="white-space: pre">520.omnetpp_r</tspan></tspan></tspan></text>
 <text class="SVGTextShape"><tspan class="TextParagraph"><tspan class="TextPosition" x="347" y="5105"><tspan font-family="Liberation Sans, sans-serif" font-size="353px" font-weight="400" fill="rgb(0,0,0)" stroke="none" style="white-space: pre">523.xalancbmk_r</tspan></tspan></tspan></text>
 <text class="SVGTextShape"><tspan class="TextParagraph"><tspan class="TextPosition" x="1245" y="6162"><tspan font-family="Liberation Sans, sans-serif" font-size="353px" font-weight="400" fill="rgb(0,0,0)" stroke="none" style="white-space: pre">525.x264_r</tspan></tspan></tspan></text>
 <text class="SVGTextShape"><tspan class="TextParagraph"><tspan class="TextPosition" x="403" y="7221"><tspan font-family="Liberation Sans, sans-serif" font-size="353px" font-weight="400" fill="rgb(0,0,0)" stroke="none" style="white-space: pre">531.deepsjeng_r</tspan></tspan></tspan></text>
 <text class="SVGTextShape"><tspan class="TextParagraph"><tspan class="TextPosition" x="1264" y="8280"><tspan font-family="Liberation Sans, sans-serif" font-size="353px" font-weight="400" fill="rgb(0,0,0)" stroke="none" style="white-space: pre">541.leela_r</tspan></tspan></tspan></text>
 <text class="SVGTextShape"><tspan class="TextParagraph"><tspan class="TextPosition" x="308" y="9338"><tspan font-family="Liberation Sans, sans-serif" font-size="353px" font-weight="400" fill="rgb(0,0,0)" stroke="none" style="white-space: pre">548.exchange2_r</tspan></tspan></tspan></text>
 <text class="SVGTextShape"><tspan class="TextParagraph"><tspan class="TextPosition" x="1647" y="10397"><tspan font-family="Liberation Sans, sans-serif" font-size="353px" font-weight="400" fill="rgb(0,0,0)" stroke="none" style="white-space: pre">557.xz_r</tspan></tspan></tspan></text>
 <text class="SVGTextShape"><tspan class="TextParagraph"><tspan class="TextPosition" x="2968" y="11374"><tspan font-family="Liberation Sans, sans-serif" font-size="353px" font-weight="400" fill="rgb(0,0,0)" stroke="none" style="white-space: pre">0%</tspan></tspan></tspan></text>
 <text class="SVGTextShape"><tspan class="TextParagraph"><tspan class="TextPosition" x="4075" y="11374"><tspan font-family="Liberation Sans, sans-serif" font-size="353px" font-weight="400" fill="rgb(0,0,0)" stroke="none" style="white-space: pre">20%</tspan></tspan></tspan></text>
 <text class="SVGTextShape"><tspan class="TextParagraph"><tspan class="TextPosition" x="5278" y="11374"><tspan font-family="Liberation Sans, sans-serif" font-size="353px" font-weight="400" fill="rgb(0,0,0)" stroke="none" style="white-space: pre">40%</tspan></tspan></tspan></text>
 <text class="SVGTextShape"><tspan class="TextParagraph"><tspan class="TextPosition" x="6480" y="11374"><tspan font-family="Liberation Sans, sans-serif" font-size="353px" font-weight="400" fill="rgb(0,0,0)" stroke="none" style="white-space: pre">60%</tspan></tspan></tspan></text>
 <text class="SVGTextShape"><tspan class="TextParagraph"><tspan class="TextPosition" x="7683" y="11374"><tspan font-family="Liberation Sans, sans-serif" font-size="353px" font-weight="400" fill="rgb(0,0,0)" stroke="none" style="white-space: pre">80%</tspan></tspan></tspan></text>
 <text class="SVGTextShape"><tspan class="TextParagraph"><tspan class="TextPosition" x="8789" y="11374"><tspan font-family="Liberation Sans, sans-serif" font-size="353px" font-weight="400" fill="rgb(0,0,0)" stroke="none" style="white-space: pre">100%</tspan></tspan></tspan></text>
 <text class="SVGTextShape"><tspan class="TextParagraph"><tspan class="TextPosition" x="9991" y="11374"><tspan font-family="Liberation Sans, sans-serif" font-size="353px" font-weight="400" fill="rgb(0,0,0)" stroke="none" style="white-space: pre">120%</tspan></tspan></tspan></text>
 <text class="SVGTextShape"><tspan class="TextParagraph"><tspan class="TextPosition" x="11194" y="11374"><tspan font-family="Liberation Sans, sans-serif" font-size="353px" font-weight="400" fill="rgb(0,0,0)" stroke="none" style="white-space: pre">140%</tspan></tspan></tspan></text>
 <text class="SVGTextShape"><tspan class="TextParagraph"><tspan class="TextPosition" x="12397" y="11374"><tspan font-family="Liberation Sans, sans-serif" font-size="353px" font-weight="400" fill="rgb(0,0,0)" stroke="none" style="white-space: pre">160%</tspan></tspan></tspan></text>
 <path fill="rgb(12,50,44)" stroke="none" d="M 13820,6688 L 13714,6688 13714,6477 13925,6477 13925,6688 13820,6688 Z"/>
 <path fill="rgb(19,148,72)" stroke="none" d="M 13820,6190 L 13714,6190 13714,5979 13925,5979 13925,6190 13820,6190 Z"/>
 <path fill="rgb(255,193,8)" stroke="none" d="M 13820,5693 L 13714,5693 13714,5482 13925,5482 13925,5693 13820,5693 Z"/>
 <path fill="rgb(0,138,207)" stroke="none" d="M 13820,5195 L 13714,5195 13714,4984 13925,4984 13925,5195 13820,5195 Z"/>
 <text class="SVGTextShape"><tspan class="TextParagraph"><tspan class="TextPosition" x="14025" y="5209"><tspan font-family="Liberation Sans, sans-serif" font-size="353px" font-weight="400" fill="rgb(0,0,0)" stroke="none" style="white-space: pre">LTO+PGO</tspan></tspan></tspan></text>
 <text class="SVGTextShape"><tspan class="TextParagraph"><tspan class="TextPosition" x="14025" y="5707"><tspan font-family="Liberation Sans, sans-serif" font-size="353px" font-weight="400" fill="rgb(0,0,0)" stroke="none" style="white-space: pre">PGO</tspan></tspan></tspan></text>
 <text class="SVGTextShape"><tspan class="TextParagraph"><tspan class="TextPosition" x="14025" y="6204"><tspan font-family="Liberation Sans, sans-serif" font-size="353px" font-weight="400" fill="rgb(0,0,0)" stroke="none" style="white-space: pre">LTO</tspan></tspan></tspan></text>
 <text class="SVGTextShape"><tspan class="TextParagraph"><tspan class="TextPosition" x="14025" y="6702"><tspan font-family="Liberation Sans, sans-serif" font-size="353px" font-weight="400" fill="rgb(0,0,0)" stroke="none" style="white-space: pre">Standard</tspan></tspan></tspan></text>
</svg>