<?xml version="1.0" encoding="UTF-8"?>
<!DOCTYPE svg PUBLIC "-//W3C//DTD SVG 1.1//EN" "http://www.w3.org/Graphics/SVG/1.1/DTD/svg11.dtd">
<svg width="160mm" height="19mm" viewBox="0 0 16000 1900" version="1.1" xmlns="http://www.w3.org/2000/svg" xmlns:xlink="http://www.w3.org/1999/xlink" stroke-width="28.222" stroke-linejoin="round" xml:space="preserve">
 <path fill="rgb(255,255,255)" stroke="none" d="M 7987,1887 L -13,1887 -13,94 15987,94 15987,1887 7987,1887 Z"/>
 <path fill="none" stroke="rgb(179,179,179)" stroke-linejoin="round" d="M 8773,1241 L 4789,1241 4789,130 12757,130 12757,1241 8773,1241 Z"/>
 <path fill="none" stroke="rgb(179,179,179)" stroke-linejoin="round" d="M 12757,129 L 12757,1240"/>
 <path fill="none" stroke="rgb(179,179,179)" stroke-linejoin="round" d="M 11428,129 L 11428,1240"/>
 <path fill="none" stroke="rgb(179,179,179)" stroke-linejoin="round" d="M 10100,129 L 10100,1240"/>
 <path fill="none" stroke="rgb(179,179,179)" stroke-linejoin="round" d="M 8772,129 L 8772,1240"/>
 <path fill="none" stroke="rgb(179,179,179)" stroke-linejoin="round" d="M 7445,129 L 7445,1240"/>
 <path fill="none" stroke="rgb(179,179,179)" stroke-linejoin="round" d="M 6117,129 L 6117,1240"/>
 <path fill="none" stroke="rgb(179,179,179)" stroke-linejoin="round" d="M 4789,129 L 4789,1240"/>
 <path fill="none" stroke="rgb(179,179,179)" stroke-linejoin="round" d="M 12907,129 L 12757,129"/>
 <path fill="none" stroke="rgb(179,179,179)" stroke-linejoin="round" d="M 12907,129 L 12757,129"/>
 <path fill="none" stroke="rgb(179,179,179)" stroke-linejoin="round" d="M 12907,1240 L 12757,1240"/>
 <path fill="none" stroke="rgb(179,179,179)" stroke-linejoin="round" d="M 12907,1240 L 12757,1240"/>
 <path fill="none" stroke="rgb(179,179,179)" stroke-linejoin="round" d="M 12757,1240 L 12757,129"/>
 <path fill="none" stroke="rgb(179,179,179)" stroke-linejoin="round" d="M 12757,1381 L 12757,1240"/>
 <path fill="none" stroke="rgb(179,179,179)" stroke-linejoin="round" d="M 12757,-13 L 12757,129"/>
 <path fill="none" stroke="rgb(179,179,179)" stroke-linejoin="round" d="M 11428,1381 L 11428,1240"/>
 <path fill="none" stroke="rgb(179,179,179)" stroke-linejoin="round" d="M 11428,-13 L 11428,129"/>
 <path fill="none" stroke="rgb(179,179,179)" stroke-linejoin="round" d="M 10100,1381 L 10100,1240"/>
 <path fill="none" stroke="rgb(179,179,179)" stroke-linejoin="round" d="M 10100,-13 L 10100,129"/>
 <path fill="none" stroke="rgb(179,179,179)" stroke-linejoin="round" d="M 8772,1381 L 8772,1240"/>
 <path fill="none" stroke="rgb(179,179,179)" stroke-linejoin="round" d="M 8772,-13 L 8772,129"/>
 <path fill="none" stroke="rgb(179,179,179)" stroke-linejoin="round" d="M 7445,1381 L 7445,1240"/>
 <path fill="none" stroke="rgb(179,179,179)" stroke-linejoin="round" d="M 7445,-13 L 7445,129"/>
 <path fill="none" stroke="rgb(179,179,179)" stroke-linejoin="round" d="M 6117,1381 L 6117,1240"/>
 <path fill="none" stroke="rgb(179,179,179)" stroke-linejoin="round" d="M 6117,-13 L 6117,129"/>
 <path fill="none" stroke="rgb(179,179,179)" stroke-linejoin="round" d="M 4789,1381 L 4789,1240"/>
 <path fill="none" stroke="rgb(179,179,179)" stroke-linejoin="round" d="M 4789,-13 L 4789,129"/>
 <path fill="none" stroke="rgb(179,179,179)" stroke-linejoin="round" d="M 4789,129 L 12757,129"/>
 <path fill="rgb(12,50,44)" stroke="none" d="M 12757,239 L 12757,462 10100,462 10100,239 12757,239 Z"/>
 <path fill="rgb(19,148,72)" stroke="none" d="M 12757,462 L 12757,684 10122,684 10122,462 12757,462 Z"/>
 <path fill="rgb(255,211,32)" stroke="none" d="M 12757,684 L 12757,906 5817,906 5817,684 12757,684 Z"/>
 <path fill="rgb(0,138,207)" stroke="none" d="M 12757,906 L 12757,1129 8131,1129 8131,906 12757,906 Z"/>
 <text class="SVGTextShape"><tspan class="TextParagraph"><tspan class="TextPosition" x="13007" y="799"><tspan font-family="Liberation Sans, sans-serif" font-size="333px" font-weight="400" fill="rgb(0,0,0)" stroke="none" style="white-space: pre">548.exchange2_r</tspan></tspan></tspan></text>
 <text class="SVGTextShape"><tspan class="TextParagraph"><tspan class="TextPosition" x="12509" y="1776"><tspan font-family="Liberation Sans, sans-serif" font-size="333px" font-weight="400" fill="rgb(0,0,0)" stroke="none" style="white-space: pre">0%</tspan></tspan></tspan></text>
 <text class="SVGTextShape"><tspan class="TextParagraph"><tspan class="TextPosition" x="11085" y="1776"><tspan font-family="Liberation Sans, sans-serif" font-size="333px" font-weight="400" fill="rgb(0,0,0)" stroke="none" style="white-space: pre">50%</tspan></tspan></tspan></text>
 <text class="SVGTextShape"><tspan class="TextParagraph"><tspan class="TextPosition" x="9661" y="1776"><tspan font-family="Liberation Sans, sans-serif" font-size="333px" font-weight="400" fill="rgb(0,0,0)" stroke="none" style="white-space: pre">100%</tspan></tspan></tspan></text>
 <text class="SVGTextShape"><tspan class="TextParagraph"><tspan class="TextPosition" x="8333" y="1776"><tspan font-family="Liberation Sans, sans-serif" font-size="333px" font-weight="400" fill="rgb(0,0,0)" stroke="none" style="white-space: pre">150%</tspan></tspan></tspan></text>
 <text class="SVGTextShape"><tspan class="TextParagraph"><tspan class="TextPosition" x="7006" y="1776"><tspan font-family="Liberation Sans, sans-serif" font-size="333px" font-weight="400" fill="rgb(0,0,0)" stroke="none" style="white-space: pre">200%</tspan></tspan></tspan></text>
 <text class="SVGTextShape"><tspan class="TextParagraph"><tspan class="TextPosition" x="5678" y="1776"><tspan font-family="Liberation Sans, sans-serif" font-size="333px" font-weight="400" fill="rgb(0,0,0)" stroke="none" style="white-space: pre">250%</tspan></tspan></tspan></text>
 <text class="SVGTextShape"><tspan class="TextParagraph"><tspan class="TextPosition" x="4350" y="1776"><tspan font-family="Liberation Sans, sans-serif" font-size="333px" font-weight="400" fill="rgb(0,0,0)" stroke="none" style="white-space: pre">300%</tspan></tspan></tspan></text>
 <path fill="rgb(12,50,44)" stroke="none" d="M 2597,1324 L 2492,1324 2492,1125 2703,1125 2703,1324 2597,1324 Z"/>
 <path fill="rgb(19,148,72)" stroke="none" d="M 418,1324 L 313,1324 313,1125 524,1125 524,1324 418,1324 Z"/>
 <path fill="rgb(255,211,32)" stroke="none" d="M 2597,854 L 2492,854 2492,655 2703,655 2703,854 2597,854 Z"/>
 <path fill="rgb(0,138,207)" stroke="none" d="M 418,854 L 313,854 313,655 524,655 524,854 418,854 Z"/>
 <text class="SVGTextShape"><tspan class="TextParagraph"><tspan class="TextPosition" x="624" y="868"><tspan font-family="Liberation Sans, sans-serif" font-size="333px" font-weight="400" fill="rgb(0,0,0)" stroke="none" style="white-space: pre">LTO+PGO</tspan></tspan></tspan></text>
 <text class="SVGTextShape"><tspan class="TextParagraph"><tspan class="TextPosition" x="2803" y="868"><tspan font-family="Liberation Sans, sans-serif" font-size="333px" font-weight="400" fill="rgb(0,0,0)" stroke="none" style="white-space: pre">PGO</tspan></tspan></tspan></text>
 <text class="SVGTextShape"><tspan class="TextParagraph"><tspan class="TextPosition" x="624" y="1337"><tspan font-family="Liberation Sans, sans-serif" font-size="333px" font-weight="400" fill="rgb(0,0,0)" stroke="none" style="white-space: pre">LTO</tspan></tspan></tspan></text>
 <text class="SVGTextShape"><tspan class="TextParagraph"><tspan class="TextPosition" x="2803" y="1337"><tspan font-family="Liberation Sans, sans-serif" font-size="333px" font-weight="400" fill="rgb(0,0,0)" stroke="none" style="white-space: pre">Normal</tspan></tspan></tspan></text>
</svg>