<?xml version="1.0" encoding="UTF-8"?>
<!DOCTYPE svg PUBLIC "-//W3C//DTD SVG 1.1//EN" "http://www.w3.org/Graphics/SVG/1.1/DTD/svg11.dtd">
<svg width="160mm" height="117mm" viewBox="0 0 16000 11700" version="1.1" xmlns="http://www.w3.org/2000/svg" xmlns:xlink="http://www.w3.org/1999/xlink" stroke-width="28.222" stroke-linejoin="round" xml:space="preserve">
 <path fill="rgb(255,255,255)" stroke="none" d="M 7985,11687 L -13,11687 -13,-13 15983,-13 15983,11687 7985,11687 Z"/>
 <path fill="none" stroke="rgb(179,179,179)" stroke-linejoin="round" d="M 7696,10603 L 2989,10603 2989,210 12402,210 12402,10603 7696,10603 Z"/>
 <path fill="none" stroke="rgb(179,179,179)" stroke-linejoin="round" d="M 2989,208 L 2989,10602"/>
 <path fill="none" stroke="rgb(179,179,179)" stroke-linejoin="round" d="M 4333,208 L 4333,10602"/>
 <path fill="none" stroke="rgb(179,179,179)" stroke-linejoin="round" d="M 5678,208 L 5678,10602"/>
 <path fill="none" stroke="rgb(179,179,179)" stroke-linejoin="round" d="M 7023,208 L 7023,10602"/>
 <path fill="none" stroke="rgb(179,179,179)" stroke-linejoin="round" d="M 8367,208 L 8367,10602"/>
 <path fill="none" stroke="rgb(179,179,179)" stroke-linejoin="round" d="M 9712,208 L 9712,10602"/>
 <path fill="none" stroke="rgb(179,179,179)" stroke-linejoin="round" d="M 11057,208 L 11057,10602"/>
 <path fill="none" stroke="rgb(179,179,179)" stroke-linejoin="round" d="M 12402,208 L 12402,10602"/>
 <path fill="none" stroke="rgb(179,179,179)" stroke-linejoin="round" d="M 2839,208 L 2989,208"/>
 <path fill="none" stroke="rgb(179,179,179)" stroke-linejoin="round" d="M 2839,208 L 2989,208"/>
 <path fill="none" stroke="rgb(179,179,179)" stroke-linejoin="round" d="M 2839,1248 L 2989,1248"/>
 <path fill="none" stroke="rgb(179,179,179)" stroke-linejoin="round" d="M 2839,1248 L 2989,1248"/>
 <path fill="none" stroke="rgb(179,179,179)" stroke-linejoin="round" d="M 2839,2287 L 2989,2287"/>
 <path fill="none" stroke="rgb(179,179,179)" stroke-linejoin="round" d="M 2839,2287 L 2989,2287"/>
 <path fill="none" stroke="rgb(179,179,179)" stroke-linejoin="round" d="M 2839,3327 L 2989,3327"/>
 <path fill="none" stroke="rgb(179,179,179)" stroke-linejoin="round" d="M 2839,3327 L 2989,3327"/>
 <path fill="none" stroke="rgb(179,179,179)" stroke-linejoin="round" d="M 2839,4366 L 2989,4366"/>
 <path fill="none" stroke="rgb(179,179,179)" stroke-linejoin="round" d="M 2839,4366 L 2989,4366"/>
 <path fill="none" stroke="rgb(179,179,179)" stroke-linejoin="round" d="M 2839,5405 L 2989,5405"/>
 <path fill="none" stroke="rgb(179,179,179)" stroke-linejoin="round" d="M 2839,5405 L 2989,5405"/>
 <path fill="none" stroke="rgb(179,179,179)" stroke-linejoin="round" d="M 2839,6444 L 2989,6444"/>
 <path fill="none" stroke="rgb(179,179,179)" stroke-linejoin="round" d="M 2839,6444 L 2989,6444"/>
 <path fill="none" stroke="rgb(179,179,179)" stroke-linejoin="round" d="M 2839,7483 L 2989,7483"/>
 <path fill="none" stroke="rgb(179,179,179)" stroke-linejoin="round" d="M 2839,7483 L 2989,7483"/>
 <path fill="none" stroke="rgb(179,179,179)" stroke-linejoin="round" d="M 2839,8523 L 2989,8523"/>
 <path fill="none" stroke="rgb(179,179,179)" stroke-linejoin="round" d="M 2839,8523 L 2989,8523"/>
 <path fill="none" stroke="rgb(179,179,179)" stroke-linejoin="round" d="M 2839,9562 L 2989,9562"/>
 <path fill="none" stroke="rgb(179,179,179)" stroke-linejoin="round" d="M 2839,9562 L 2989,9562"/>
 <path fill="none" stroke="rgb(179,179,179)" stroke-linejoin="round" d="M 2839,10602 L 2989,10602"/>
 <path fill="none" stroke="rgb(179,179,179)" stroke-linejoin="round" d="M 2839,10602 L 2989,10602"/>
 <path fill="none" stroke="rgb(179,179,179)" stroke-linejoin="round" d="M 2989,10602 L 2989,208"/>
 <path fill="none" stroke="rgb(179,179,179)" stroke-linejoin="round" d="M 2989,10752 L 2989,10602"/>
 <path fill="none" stroke="rgb(179,179,179)" stroke-linejoin="round" d="M 2989,58 L 2989,208"/>
 <path fill="none" stroke="rgb(179,179,179)" stroke-linejoin="round" d="M 4333,10752 L 4333,10602"/>
 <path fill="none" stroke="rgb(179,179,179)" stroke-linejoin="round" d="M 4333,58 L 4333,208"/>
 <path fill="none" stroke="rgb(179,179,179)" stroke-linejoin="round" d="M 5678,10752 L 5678,10602"/>
 <path fill="none" stroke="rgb(179,179,179)" stroke-linejoin="round" d="M 5678,58 L 5678,208"/>
 <path fill="none" stroke="rgb(179,179,179)" stroke-linejoin="round" d="M 7023,10752 L 7023,10602"/>
 <path fill="none" stroke="rgb(179,179,179)" stroke-linejoin="round" d="M 7023,58 L 7023,208"/>
 <path fill="none" stroke="rgb(179,179,179)" stroke-linejoin="round" d="M 8367,10752 L 8367,10602"/>
 <path fill="none" stroke="rgb(179,179,179)" stroke-linejoin="round" d="M 8367,58 L 8367,208"/>
 <path fill="none" stroke="rgb(179,179,179)" stroke-linejoin="round" d="M 9712,10752 L 9712,10602"/>
 <path fill="none" stroke="rgb(179,179,179)" stroke-linejoin="round" d="M 9712,58 L 9712,208"/>
 <path fill="none" stroke="rgb(179,179,179)" stroke-linejoin="round" d="M 11057,10752 L 11057,10602"/>
 <path fill="none" stroke="rgb(179,179,179)" stroke-linejoin="round" d="M 11057,58 L 11057,208"/>
 <path fill="none" stroke="rgb(179,179,179)" stroke-linejoin="round" d="M 12402,10752 L 12402,10602"/>
 <path fill="none" stroke="rgb(179,179,179)" stroke-linejoin="round" d="M 12402,58 L 12402,208"/>
 <path fill="none" stroke="rgb(179,179,179)" stroke-linejoin="round" d="M 2989,208 L 12402,208"/>
 <path fill="rgb(12,50,44)" stroke="none" d="M 2989,312 L 2989,520 9712,520 9712,312 2989,312 Z"/>
 <path fill="rgb(12,50,44)" stroke="none" d="M 2989,1352 L 2989,1560 9712,1560 9712,1352 2989,1352 Z"/>
 <path fill="rgb(12,50,44)" stroke="none" d="M 2989,2391 L 2989,2599 9712,2599 9712,2391 2989,2391 Z"/>
 <path fill="rgb(12,50,44)" stroke="none" d="M 2989,3431 L 2989,3639 9712,3639 9712,3431 2989,3431 Z"/>
 <path fill="rgb(12,50,44)" stroke="none" d="M 2989,4470 L 2989,4678 9712,4678 9712,4470 2989,4470 Z"/>
 <path fill="rgb(12,50,44)" stroke="none" d="M 2989,5509 L 2989,5717 9712,5717 9712,5509 2989,5509 Z"/>
 <path fill="rgb(12,50,44)" stroke="none" d="M 2989,6548 L 2989,6756 9712,6756 9712,6548 2989,6548 Z"/>
 <path fill="rgb(12,50,44)" stroke="none" d="M 2989,7587 L 2989,7795 9712,7795 9712,7587 2989,7587 Z"/>
 <path fill="rgb(12,50,44)" stroke="none" d="M 2989,8627 L 2989,8835 9712,8835 9712,8627 2989,8627 Z"/>
 <path fill="rgb(12,50,44)" stroke="none" d="M 2989,9666 L 2989,9874 9712,9874 9712,9666 2989,9666 Z"/>
 <path fill="rgb(19,148,72)" stroke="none" d="M 2989,520 L 2989,728 9760,728 9760,520 2989,520 Z"/>
 <path fill="rgb(19,148,72)" stroke="none" d="M 2989,1560 L 2989,1768 9881,1768 9881,1560 2989,1560 Z"/>
 <path fill="rgb(19,148,72)" stroke="none" d="M 2989,2599 L 2989,2807 10938,2807 10938,2599 2989,2599 Z"/>
 <path fill="rgb(19,148,72)" stroke="none" d="M 2989,3639 L 2989,3846 9853,3846 9853,3639 2989,3639 Z"/>
 <path fill="rgb(19,148,72)" stroke="none" d="M 2989,4678 L 2989,4886 9976,4886 9976,4678 2989,4678 Z"/>
 <path fill="rgb(19,148,72)" stroke="none" d="M 2989,5717 L 2989,5924 9694,5924 9694,5717 2989,5717 Z"/>
 <path fill="rgb(19,148,72)" stroke="none" d="M 2989,6756 L 2989,6964 10460,6964 10460,6756 2989,6756 Z"/>
 <path fill="rgb(19,148,72)" stroke="none" d="M 2989,7795 L 2989,8003 10380,8003 10380,7795 2989,7795 Z"/>
 <path fill="rgb(19,148,72)" stroke="none" d="M 2989,8835 L 2989,9042 9583,9042 9583,8835 2989,8835 Z"/>
 <path fill="rgb(19,148,72)" stroke="none" d="M 2989,9874 L 2989,10082 9627,10082 9627,9874 2989,9874 Z"/>
 <path fill="rgb(255,193,8)" stroke="none" d="M 2989,728 L 2989,936 10172,936 10172,728 2989,728 Z"/>
 <path fill="rgb(255,193,8)" stroke="none" d="M 2989,1768 L 2989,1975 10105,1975 10105,1768 2989,1768 Z"/>
 <path fill="rgb(255,193,8)" stroke="none" d="M 2989,2807 L 2989,3015 10049,3015 10049,2807 2989,2807 Z"/>
 <path fill="rgb(255,193,8)" stroke="none" d="M 2989,3846 L 2989,4054 9815,4054 9815,3846 2989,3846 Z"/>
 <path fill="rgb(255,193,8)" stroke="none" d="M 2989,4886 L 2989,5094 9414,5094 9414,4886 2989,4886 Z"/>
 <path fill="rgb(255,193,8)" stroke="none" d="M 2989,5924 L 2989,6132 11238,6132 11238,5924 2989,5924 Z"/>
 <path fill="rgb(255,193,8)" stroke="none" d="M 2989,6964 L 2989,7171 9498,7171 9498,6964 2989,6964 Z"/>
 <path fill="rgb(255,193,8)" stroke="none" d="M 2989,8003 L 2989,8211 9193,8211 9193,8003 2989,8003 Z"/>
 <path fill="rgb(255,193,8)" stroke="none" d="M 2989,9042 L 2989,9250 9628,9250 9628,9042 2989,9042 Z"/>
 <path fill="rgb(255,193,8)" stroke="none" d="M 2989,10082 L 2989,10290 9830,10290 9830,10082 2989,10082 Z"/>
 <path fill="rgb(0,138,207)" stroke="none" d="M 2989,936 L 2989,1144 10459,1144 10459,936 2989,936 Z"/>
 <path fill="rgb(0,138,207)" stroke="none" d="M 2989,1975 L 2989,2183 10545,2183 10545,1975 2989,1975 Z"/>
 <path fill="rgb(0,138,207)" stroke="none" d="M 2989,3015 L 2989,3223 11061,3223 11061,3015 2989,3015 Z"/>
 <path fill="rgb(0,138,207)" stroke="none" d="M 2989,4054 L 2989,4262 10535,4262 10535,4054 2989,4054 Z"/>
 <path fill="rgb(0,138,207)" stroke="none" d="M 2989,5094 L 2989,5302 9800,5302 9800,5094 2989,5094 Z"/>
 <path fill="rgb(0,138,207)" stroke="none" d="M 2989,6132 L 2989,6340 10932,6340 10932,6132 2989,6132 Z"/>
 <path fill="rgb(0,138,207)" stroke="none" d="M 2989,7171 L 2989,7379 10246,7379 10246,7171 2989,7171 Z"/>
 <path fill="rgb(0,138,207)" stroke="none" d="M 2989,8211 L 2989,8419 10257,8419 10257,8211 2989,8211 Z"/>
 <path fill="rgb(0,138,207)" stroke="none" d="M 2989,9250 L 2989,9458 9583,9458 9583,9250 2989,9250 Z"/>
 <path fill="rgb(0,138,207)" stroke="none" d="M 2989,10290 L 2989,10498 9762,10498 9762,10290 2989,10290 Z"/>
 <text class="SVGTextShape"><tspan class="TextParagraph" font-family="Liberation Sans, sans-serif" font-size="353px" font-weight="400"><tspan class="TextPosition" x="305" y="848"><tspan fill="rgb(0,0,0)" stroke="none" style="white-space: pre">500.perlbench_r</tspan></tspan></tspan></text>
 <text class="SVGTextShape"><tspan class="TextParagraph" font-family="Liberation Sans, sans-serif" font-size="353px" font-weight="400"><tspan class="TextPosition" x="1231" y="1888"><tspan fill="rgb(0,0,0)" stroke="none" style="white-space: pre">502.gcc_r</tspan></tspan></tspan></text>
 <text class="SVGTextShape"><tspan class="TextParagraph" font-family="Liberation Sans, sans-serif" font-size="353px" font-weight="400"><tspan class="TextPosition" x="1204" y="2927"><tspan fill="rgb(0,0,0)" stroke="none" style="white-space: pre">505.mcf_r</tspan></tspan></tspan></text>
 <text class="SVGTextShape"><tspan class="TextParagraph" font-family="Liberation Sans, sans-serif" font-size="353px" font-weight="400"><tspan class="TextPosition" x="464" y="3966"><tspan fill="rgb(0,0,0)" stroke="none" style="white-space: pre">520.omnetpp_r</tspan></tspan></tspan></text>
 <text class="SVGTextShape"><tspan class="TextParagraph" font-family="Liberation Sans, sans-serif" font-size="353px" font-weight="400"><tspan class="TextPosition" x="120" y="5006"><tspan fill="rgb(0,0,0)" stroke="none" style="white-space: pre">523.xalancbmk_r</tspan></tspan></tspan></text>
 <text class="SVGTextShape"><tspan class="TextParagraph" font-family="Liberation Sans, sans-serif" font-size="353px" font-weight="400"><tspan class="TextPosition" x="1046" y="6044"><tspan fill="rgb(0,0,0)" stroke="none" style="white-space: pre">525.x264_r</tspan></tspan></tspan></text>
 <text class="SVGTextShape"><tspan class="TextParagraph" font-family="Liberation Sans, sans-serif" font-size="353px" font-weight="400"><tspan class="TextPosition" x="225" y="7084"><tspan fill="rgb(0,0,0)" stroke="none" style="white-space: pre">531.deepsjeng_r</tspan></tspan></tspan></text>
 <text class="SVGTextShape"><tspan class="TextParagraph" font-family="Liberation Sans, sans-serif" font-size="353px" font-weight="400"><tspan class="TextPosition" x="1072" y="8123"><tspan fill="rgb(0,0,0)" stroke="none" style="white-space: pre">541.leela_r</tspan></tspan></tspan></text>
 <text class="SVGTextShape"><tspan class="TextParagraph" font-family="Liberation Sans, sans-serif" font-size="353px" font-weight="400"><tspan class="TextPosition" x="120" y="9162"><tspan fill="rgb(0,0,0)" stroke="none" style="white-space: pre">548.exchange2_r</tspan></tspan></tspan></text>
 <text class="SVGTextShape"><tspan class="TextParagraph" font-family="Liberation Sans, sans-serif" font-size="353px" font-weight="400"><tspan class="TextPosition" x="1416" y="10202"><tspan fill="rgb(0,0,0)" stroke="none" style="white-space: pre">557.xz_r</tspan></tspan></tspan></text>
 <text class="SVGTextShape"><tspan class="TextParagraph" font-family="Liberation Sans, sans-serif" font-size="353px" font-weight="400"><tspan class="TextPosition" x="2737" y="11170"><tspan fill="rgb(0,0,0)" stroke="none" style="white-space: pre">0%</tspan></tspan></tspan></text>
 <text class="SVGTextShape"><tspan class="TextParagraph" font-family="Liberation Sans, sans-serif" font-size="353px" font-weight="400"><tspan class="TextPosition" x="3989" y="11170"><tspan fill="rgb(0,0,0)" stroke="none" style="white-space: pre">20%</tspan></tspan></tspan></text>
 <text class="SVGTextShape"><tspan class="TextParagraph" font-family="Liberation Sans, sans-serif" font-size="353px" font-weight="400"><tspan class="TextPosition" x="5334" y="11170"><tspan fill="rgb(0,0,0)" stroke="none" style="white-space: pre">40%</tspan></tspan></tspan></text>
 <text class="SVGTextShape"><tspan class="TextParagraph" font-family="Liberation Sans, sans-serif" font-size="353px" font-weight="400"><tspan class="TextPosition" x="6679" y="11170"><tspan fill="rgb(0,0,0)" stroke="none" style="white-space: pre">60%</tspan></tspan></tspan></text>
 <text class="SVGTextShape"><tspan class="TextParagraph" font-family="Liberation Sans, sans-serif" font-size="353px" font-weight="400"><tspan class="TextPosition" x="8023" y="11170"><tspan fill="rgb(0,0,0)" stroke="none" style="white-space: pre">80%</tspan></tspan></tspan></text>
 <text class="SVGTextShape"><tspan class="TextParagraph" font-family="Liberation Sans, sans-serif" font-size="353px" font-weight="400"><tspan class="TextPosition" x="9275" y="11170"><tspan fill="rgb(0,0,0)" stroke="none" style="white-space: pre">100%</tspan></tspan></tspan></text>
 <text class="SVGTextShape"><tspan class="TextParagraph" font-family="Liberation Sans, sans-serif" font-size="353px" font-weight="400"><tspan class="TextPosition" x="10620" y="11170"><tspan fill="rgb(0,0,0)" stroke="none" style="white-space: pre">120%</tspan></tspan></tspan></text>
 <text class="SVGTextShape"><tspan class="TextParagraph" font-family="Liberation Sans, sans-serif" font-size="353px" font-weight="400"><tspan class="TextPosition" x="11965" y="11170"><tspan fill="rgb(0,0,0)" stroke="none" style="white-space: pre">140%</tspan></tspan></tspan></text>
 <path fill="rgb(12,50,44)" stroke="none" d="M 13810,6688 L 13704,6688 13704,6477 13915,6477 13915,6688 13810,6688 Z"/>
 <path fill="rgb(19,148,72)" stroke="none" d="M 13810,6190 L 13704,6190 13704,5979 13915,5979 13915,6190 13810,6190 Z"/>
 <path fill="rgb(255,193,8)" stroke="none" d="M 13810,5693 L 13704,5693 13704,5482 13915,5482 13915,5693 13810,5693 Z"/>
 <path fill="rgb(0,138,207)" stroke="none" d="M 13810,5195 L 13704,5195 13704,4984 13915,4984 13915,5195 13810,5195 Z"/>
 <text class="SVGTextShape"><tspan class="TextParagraph" font-family="Liberation Sans, sans-serif" font-size="353px" font-weight="400"><tspan class="TextPosition" x="14015" y="5209"><tspan fill="rgb(0,0,0)" stroke="none" style="white-space: pre">LTO+PGO</tspan></tspan></tspan></text>
 <text class="SVGTextShape"><tspan class="TextParagraph" font-family="Liberation Sans, sans-serif" font-size="353px" font-weight="400"><tspan class="TextPosition" x="14015" y="5707"><tspan fill="rgb(0,0,0)" stroke="none" style="white-space: pre">PGO</tspan></tspan></tspan></text>
 <text class="SVGTextShape"><tspan class="TextParagraph" font-family="Liberation Sans, sans-serif" font-size="353px" font-weight="400"><tspan class="TextPosition" x="14015" y="6204"><tspan fill="rgb(0,0,0)" stroke="none" style="white-space: pre">LTO</tspan></tspan></tspan></text>
 <text class="SVGTextShape"><tspan class="TextParagraph" font-family="Liberation Sans, sans-serif" font-size="353px" font-weight="400"><tspan class="TextPosition" x="14015" y="6702"><tspan fill="rgb(0,0,0)" stroke="none" style="white-space: pre">Normal</tspan></tspan></tspan></text>
</svg>