<?xml version="1.0" encoding="UTF-8"?>
<!DOCTYPE svg PUBLIC "-//W3C//DTD SVG 1.1//EN" "http://www.w3.org/Graphics/SVG/1.1/DTD/svg11.dtd">
<svg width="160mm" height="117mm" viewBox="0 0 16000 11700" version="1.1" xmlns="http://www.w3.org/2000/svg" xmlns:xlink="http://www.w3.org/1999/xlink" stroke-width="28.222" stroke-linejoin="round" xml:space="preserve">
 <path fill="rgb(255,255,255)" stroke="none" d="M 7987,11687 L -13,11687 -13,-13 15987,-13 15987,11687 7987,11687 Z"/>
 <path fill="none" stroke="rgb(179,179,179)" stroke-linejoin="round" d="M 7968,10807 L 3140,10807 3140,221 12796,221 12796,10807 7968,10807 Z"/>
 <path fill="none" stroke="rgb(179,179,179)" stroke-linejoin="round" d="M 12796,220 L 12796,10806"/>
 <path fill="none" stroke="rgb(179,179,179)" stroke-linejoin="round" d="M 11186,220 L 11186,10806"/>
 <path fill="none" stroke="rgb(179,179,179)" stroke-linejoin="round" d="M 9577,220 L 9577,10806"/>
 <path fill="none" stroke="rgb(179,179,179)" stroke-linejoin="round" d="M 7968,220 L 7968,10806"/>
 <path fill="none" stroke="rgb(179,179,179)" stroke-linejoin="round" d="M 6358,220 L 6358,10806"/>
 <path fill="none" stroke="rgb(179,179,179)" stroke-linejoin="round" d="M 4749,220 L 4749,10806"/>
 <path fill="none" stroke="rgb(179,179,179)" stroke-linejoin="round" d="M 3139,220 L 3139,10806"/>
 <path fill="none" stroke="rgb(179,179,179)" stroke-linejoin="round" d="M 12946,220 L 12796,220"/>
 <path fill="none" stroke="rgb(179,179,179)" stroke-linejoin="round" d="M 12946,220 L 12796,220"/>
 <path fill="none" stroke="rgb(179,179,179)" stroke-linejoin="round" d="M 12946,1278 L 12796,1278"/>
 <path fill="none" stroke="rgb(179,179,179)" stroke-linejoin="round" d="M 12946,1278 L 12796,1278"/>
 <path fill="none" stroke="rgb(179,179,179)" stroke-linejoin="round" d="M 12946,2337 L 12796,2337"/>
 <path fill="none" stroke="rgb(179,179,179)" stroke-linejoin="round" d="M 12946,2337 L 12796,2337"/>
 <path fill="none" stroke="rgb(179,179,179)" stroke-linejoin="round" d="M 12946,3396 L 12796,3396"/>
 <path fill="none" stroke="rgb(179,179,179)" stroke-linejoin="round" d="M 12946,3396 L 12796,3396"/>
 <path fill="none" stroke="rgb(179,179,179)" stroke-linejoin="round" d="M 12946,4454 L 12796,4454"/>
 <path fill="none" stroke="rgb(179,179,179)" stroke-linejoin="round" d="M 12946,4454 L 12796,4454"/>
 <path fill="none" stroke="rgb(179,179,179)" stroke-linejoin="round" d="M 12946,5513 L 12796,5513"/>
 <path fill="none" stroke="rgb(179,179,179)" stroke-linejoin="round" d="M 12946,5513 L 12796,5513"/>
 <path fill="none" stroke="rgb(179,179,179)" stroke-linejoin="round" d="M 12946,6571 L 12796,6571"/>
 <path fill="none" stroke="rgb(179,179,179)" stroke-linejoin="round" d="M 12946,6571 L 12796,6571"/>
 <path fill="none" stroke="rgb(179,179,179)" stroke-linejoin="round" d="M 12946,7629 L 12796,7629"/>
 <path fill="none" stroke="rgb(179,179,179)" stroke-linejoin="round" d="M 12946,7629 L 12796,7629"/>
 <path fill="none" stroke="rgb(179,179,179)" stroke-linejoin="round" d="M 12946,8688 L 12796,8688"/>
 <path fill="none" stroke="rgb(179,179,179)" stroke-linejoin="round" d="M 12946,8688 L 12796,8688"/>
 <path fill="none" stroke="rgb(179,179,179)" stroke-linejoin="round" d="M 12946,9747 L 12796,9747"/>
 <path fill="none" stroke="rgb(179,179,179)" stroke-linejoin="round" d="M 12946,9747 L 12796,9747"/>
 <path fill="none" stroke="rgb(179,179,179)" stroke-linejoin="round" d="M 12946,10806 L 12796,10806"/>
 <path fill="none" stroke="rgb(179,179,179)" stroke-linejoin="round" d="M 12946,10806 L 12796,10806"/>
 <path fill="none" stroke="rgb(179,179,179)" stroke-linejoin="round" d="M 12796,10806 L 12796,220"/>
 <path fill="none" stroke="rgb(179,179,179)" stroke-linejoin="round" d="M 12796,10956 L 12796,10806"/>
 <path fill="none" stroke="rgb(179,179,179)" stroke-linejoin="round" d="M 12796,70 L 12796,220"/>
 <path fill="none" stroke="rgb(179,179,179)" stroke-linejoin="round" d="M 11186,10956 L 11186,10806"/>
 <path fill="none" stroke="rgb(179,179,179)" stroke-linejoin="round" d="M 11186,70 L 11186,220"/>
 <path fill="none" stroke="rgb(179,179,179)" stroke-linejoin="round" d="M 9577,10956 L 9577,10806"/>
 <path fill="none" stroke="rgb(179,179,179)" stroke-linejoin="round" d="M 9577,70 L 9577,220"/>
 <path fill="none" stroke="rgb(179,179,179)" stroke-linejoin="round" d="M 7968,10956 L 7968,10806"/>
 <path fill="none" stroke="rgb(179,179,179)" stroke-linejoin="round" d="M 7968,70 L 7968,220"/>
 <path fill="none" stroke="rgb(179,179,179)" stroke-linejoin="round" d="M 6358,10956 L 6358,10806"/>
 <path fill="none" stroke="rgb(179,179,179)" stroke-linejoin="round" d="M 6358,70 L 6358,220"/>
 <path fill="none" stroke="rgb(179,179,179)" stroke-linejoin="round" d="M 4749,10956 L 4749,10806"/>
 <path fill="none" stroke="rgb(179,179,179)" stroke-linejoin="round" d="M 4749,70 L 4749,220"/>
 <path fill="none" stroke="rgb(179,179,179)" stroke-linejoin="round" d="M 3139,10956 L 3139,10806"/>
 <path fill="none" stroke="rgb(179,179,179)" stroke-linejoin="round" d="M 3139,70 L 3139,220"/>
 <path fill="none" stroke="rgb(179,179,179)" stroke-linejoin="round" d="M 3140,220 L 12796,220"/>
 <path fill="rgb(12,50,44)" stroke="none" d="M 12796,325 L 12796,537 4749,537 4749,325 12796,325 Z"/>
 <path fill="rgb(12,50,44)" stroke="none" d="M 12796,1384 L 12796,1596 4749,1596 4749,1384 12796,1384 Z"/>
 <path fill="rgb(12,50,44)" stroke="none" d="M 12796,2443 L 12796,2655 4749,2655 4749,2443 12796,2443 Z"/>
 <path fill="rgb(12,50,44)" stroke="none" d="M 12796,3501 L 12796,3713 4749,3713 4749,3501 12796,3501 Z"/>
 <path fill="rgb(12,50,44)" stroke="none" d="M 12796,4560 L 12796,4772 4749,4772 4749,4560 12796,4560 Z"/>
 <path fill="rgb(12,50,44)" stroke="none" d="M 12796,5619 L 12796,5831 4749,5831 4749,5619 12796,5619 Z"/>
 <path fill="rgb(12,50,44)" stroke="none" d="M 12796,6677 L 12796,6888 4749,6888 4749,6677 12796,6677 Z"/>
 <path fill="rgb(12,50,44)" stroke="none" d="M 12796,7735 L 12796,7947 4749,7947 4749,7735 12796,7735 Z"/>
 <path fill="rgb(12,50,44)" stroke="none" d="M 12796,8794 L 12796,9006 4749,9006 4749,8794 12796,8794 Z"/>
 <path fill="rgb(12,50,44)" stroke="none" d="M 12796,9853 L 12796,10064 4749,10064 4749,9853 12796,9853 Z"/>
 <path fill="rgb(19,148,72)" stroke="none" d="M 12796,537 L 12796,749 3804,749 3804,537 12796,537 Z"/>
 <path fill="rgb(19,148,72)" stroke="none" d="M 12796,1596 L 12796,1808 4486,1808 4486,1596 12796,1596 Z"/>
 <path fill="rgb(19,148,72)" stroke="none" d="M 12796,2655 L 12796,2866 6532,2866 6532,2655 12796,2655 Z"/>
 <path fill="rgb(19,148,72)" stroke="none" d="M 12796,3713 L 12796,3925 6182,3925 6182,3713 12796,3713 Z"/>
 <path fill="rgb(19,148,72)" stroke="none" d="M 12796,4772 L 12796,4984 7376,4984 7376,4772 12796,4772 Z"/>
 <path fill="rgb(19,148,72)" stroke="none" d="M 12796,5831 L 12796,6041 4498,6041 4498,5831 12796,5831 Z"/>
 <path fill="rgb(19,148,72)" stroke="none" d="M 12796,6888 L 12796,7100 4824,7100 4824,6888 12796,6888 Z"/>
 <path fill="rgb(19,148,72)" stroke="none" d="M 12796,7947 L 12796,8159 8469,8159 8469,7947 12796,7947 Z"/>
 <path fill="rgb(19,148,72)" stroke="none" d="M 12796,9006 L 12796,9217 4312,9217 4312,9006 12796,9006 Z"/>
 <path fill="rgb(19,148,72)" stroke="none" d="M 12796,10064 L 12796,10276 6975,10276 6975,10064 12796,10064 Z"/>
 <path fill="rgb(255,193,8)" stroke="none" d="M 12796,749 L 12796,961 6162,961 6162,749 12796,749 Z"/>
 <path fill="rgb(255,193,8)" stroke="none" d="M 12796,1808 L 12796,2019 5649,2019 5649,1808 12796,1808 Z"/>
 <path fill="rgb(255,193,8)" stroke="none" d="M 12796,2866 L 12796,3078 6040,3078 6040,2866 12796,2866 Z"/>
 <path fill="rgb(255,193,8)" stroke="none" d="M 12796,3925 L 12796,4137 7110,4137 7110,3925 12796,3925 Z"/>
 <path fill="rgb(255,193,8)" stroke="none" d="M 12796,4984 L 12796,5195 7966,5195 7966,4984 12796,4984 Z"/>
 <path fill="rgb(255,193,8)" stroke="none" d="M 12796,6041 L 12796,6253 5729,6253 5729,6041 12796,6041 Z"/>
 <path fill="rgb(255,193,8)" stroke="none" d="M 12796,7100 L 12796,7312 4760,7312 4760,7100 12796,7100 Z"/>
 <path fill="rgb(255,193,8)" stroke="none" d="M 12796,8159 L 12796,8370 7351,8370 7351,8159 12796,8159 Z"/>
 <path fill="rgb(255,193,8)" stroke="none" d="M 12796,9217 L 12796,9429 4886,9429 4886,9217 12796,9217 Z"/>
 <path fill="rgb(255,193,8)" stroke="none" d="M 12796,10276 L 12796,10488 5644,10488 5644,10276 12796,10276 Z"/>
 <path fill="rgb(0,138,207)" stroke="none" d="M 12796,961 L 12796,1172 6431,1172 6431,961 12796,961 Z"/>
 <path fill="rgb(0,138,207)" stroke="none" d="M 12796,2019 L 12796,2231 5336,2231 5336,2019 12796,2019 Z"/>
 <path fill="rgb(0,138,207)" stroke="none" d="M 12796,3078 L 12796,3290 7602,3290 7602,3078 12796,3078 Z"/>
 <path fill="rgb(0,138,207)" stroke="none" d="M 12796,4137 L 12796,4348 8112,4348 8112,4137 12796,4137 Z"/>
 <path fill="rgb(0,138,207)" stroke="none" d="M 12796,5195 L 12796,5407 8946,5407 8946,5195 12796,5195 Z"/>
 <path fill="rgb(0,138,207)" stroke="none" d="M 12796,6253 L 12796,6465 5919,6465 5919,6253 12796,6253 Z"/>
 <path fill="rgb(0,138,207)" stroke="none" d="M 12796,7312 L 12796,7524 4831,7524 4831,7312 12796,7312 Z"/>
 <path fill="rgb(0,138,207)" stroke="none" d="M 12796,8370 L 12796,8582 9484,8582 9484,8370 12796,8370 Z"/>
 <path fill="rgb(0,138,207)" stroke="none" d="M 12796,9429 L 12796,9641 7529,9641 7529,9429 12796,9429 Z"/>
 <path fill="rgb(0,138,207)" stroke="none" d="M 12796,10488 L 12796,10700 8328,10700 8328,10488 12796,10488 Z"/>
 <text class="SVGTextShape"><tspan class="TextParagraph" font-family="Liberation Sans, sans-serif" font-size="353px" font-weight="400"><tspan class="TextPosition" x="13046" y="869"><tspan fill="rgb(0,0,0)" stroke="none" style="white-space: pre">500.perlbench_r</tspan></tspan></tspan></text>
 <text class="SVGTextShape"><tspan class="TextParagraph" font-family="Liberation Sans, sans-serif" font-size="353px" font-weight="400"><tspan class="TextPosition" x="13046" y="1928"><tspan fill="rgb(0,0,0)" stroke="none" style="white-space: pre">502.gcc_r</tspan></tspan></tspan></text>
 <text class="SVGTextShape"><tspan class="TextParagraph" font-family="Liberation Sans, sans-serif" font-size="353px" font-weight="400"><tspan class="TextPosition" x="13046" y="2986"><tspan fill="rgb(0,0,0)" stroke="none" style="white-space: pre">505.mcf_r</tspan></tspan></tspan></text>
 <text class="SVGTextShape"><tspan class="TextParagraph" font-family="Liberation Sans, sans-serif" font-size="353px" font-weight="400"><tspan class="TextPosition" x="13046" y="4045"><tspan fill="rgb(0,0,0)" stroke="none" style="white-space: pre">520.omnetpp_r</tspan></tspan></tspan></text>
 <text class="SVGTextShape"><tspan class="TextParagraph" font-family="Liberation Sans, sans-serif" font-size="353px" font-weight="400"><tspan class="TextPosition" x="13046" y="5104"><tspan fill="rgb(0,0,0)" stroke="none" style="white-space: pre">523.xalancbmk_r</tspan></tspan></tspan></text>
 <text class="SVGTextShape"><tspan class="TextParagraph" font-family="Liberation Sans, sans-serif" font-size="353px" font-weight="400"><tspan class="TextPosition" x="13046" y="6161"><tspan fill="rgb(0,0,0)" stroke="none" style="white-space: pre">525.x264_r</tspan></tspan></tspan></text>
 <text class="SVGTextShape"><tspan class="TextParagraph" font-family="Liberation Sans, sans-serif" font-size="353px" font-weight="400"><tspan class="TextPosition" x="13046" y="7220"><tspan fill="rgb(0,0,0)" stroke="none" style="white-space: pre">531.deepsjeng_r</tspan></tspan></tspan></text>
 <text class="SVGTextShape"><tspan class="TextParagraph" font-family="Liberation Sans, sans-serif" font-size="353px" font-weight="400"><tspan class="TextPosition" x="13046" y="8279"><tspan fill="rgb(0,0,0)" stroke="none" style="white-space: pre">541.leela_r</tspan></tspan></tspan></text>
 <text class="SVGTextShape"><tspan class="TextParagraph" font-family="Liberation Sans, sans-serif" font-size="353px" font-weight="400"><tspan class="TextPosition" x="13046" y="9337"><tspan fill="rgb(0,0,0)" stroke="none" style="white-space: pre">548.exchange2_r</tspan></tspan></tspan></text>
 <text class="SVGTextShape"><tspan class="TextParagraph" font-family="Liberation Sans, sans-serif" font-size="353px" font-weight="400"><tspan class="TextPosition" x="13046" y="10396"><tspan fill="rgb(0,0,0)" stroke="none" style="white-space: pre">557.xz_r</tspan></tspan></tspan></text>
 <text class="SVGTextShape"><tspan class="TextParagraph" font-family="Liberation Sans, sans-serif" font-size="353px" font-weight="400"><tspan class="TextPosition" x="12544" y="11374"><tspan fill="rgb(0,0,0)" stroke="none" style="white-space: pre">0%</tspan></tspan></tspan></text>
 <text class="SVGTextShape"><tspan class="TextParagraph" font-family="Liberation Sans, sans-serif" font-size="353px" font-weight="400"><tspan class="TextPosition" x="10842" y="11374"><tspan fill="rgb(0,0,0)" stroke="none" style="white-space: pre">20%</tspan></tspan></tspan></text>
 <text class="SVGTextShape"><tspan class="TextParagraph" font-family="Liberation Sans, sans-serif" font-size="353px" font-weight="400"><tspan class="TextPosition" x="9233" y="11374"><tspan fill="rgb(0,0,0)" stroke="none" style="white-space: pre">40%</tspan></tspan></tspan></text>
 <text class="SVGTextShape"><tspan class="TextParagraph" font-family="Liberation Sans, sans-serif" font-size="353px" font-weight="400"><tspan class="TextPosition" x="7624" y="11374"><tspan fill="rgb(0,0,0)" stroke="none" style="white-space: pre">60%</tspan></tspan></tspan></text>
 <text class="SVGTextShape"><tspan class="TextParagraph" font-family="Liberation Sans, sans-serif" font-size="353px" font-weight="400"><tspan class="TextPosition" x="6014" y="11374"><tspan fill="rgb(0,0,0)" stroke="none" style="white-space: pre">80%</tspan></tspan></tspan></text>
 <text class="SVGTextShape"><tspan class="TextParagraph" font-family="Liberation Sans, sans-serif" font-size="353px" font-weight="400"><tspan class="TextPosition" x="4312" y="11374"><tspan fill="rgb(0,0,0)" stroke="none" style="white-space: pre">100%</tspan></tspan></tspan></text>
 <text class="SVGTextShape"><tspan class="TextParagraph" font-family="Liberation Sans, sans-serif" font-size="353px" font-weight="400"><tspan class="TextPosition" x="2702" y="11374"><tspan fill="rgb(0,0,0)" stroke="none" style="white-space: pre">120%</tspan></tspan></tspan></text>
 <path fill="rgb(12,50,44)" stroke="none" d="M 418,6688 L 313,6688 313,6477 524,6477 524,6688 418,6688 Z"/>
 <path fill="rgb(19,148,72)" stroke="none" d="M 418,6190 L 313,6190 313,5979 524,5979 524,6190 418,6190 Z"/>
 <path fill="rgb(255,193,8)" stroke="none" d="M 418,5693 L 313,5693 313,5482 524,5482 524,5693 418,5693 Z"/>
 <path fill="rgb(0,138,207)" stroke="none" d="M 418,5195 L 313,5195 313,4984 524,4984 524,5195 418,5195 Z"/>
 <text class="SVGTextShape"><tspan class="TextParagraph" font-family="Liberation Sans, sans-serif" font-size="353px" font-weight="400"><tspan class="TextPosition" x="624" y="5209"><tspan fill="rgb(0,0,0)" stroke="none" style="white-space: pre">LTO+PGO</tspan></tspan></tspan></text>
 <text class="SVGTextShape"><tspan class="TextParagraph" font-family="Liberation Sans, sans-serif" font-size="353px" font-weight="400"><tspan class="TextPosition" x="624" y="5707"><tspan fill="rgb(0,0,0)" stroke="none" style="white-space: pre">PGO</tspan></tspan></tspan></text>
 <text class="SVGTextShape"><tspan class="TextParagraph" font-family="Liberation Sans, sans-serif" font-size="353px" font-weight="400"><tspan class="TextPosition" x="624" y="6204"><tspan fill="rgb(0,0,0)" stroke="none" style="white-space: pre">LTO</tspan></tspan></tspan></text>
 <text class="SVGTextShape"><tspan class="TextParagraph" font-family="Liberation Sans, sans-serif" font-size="353px" font-weight="400"><tspan class="TextPosition" x="624" y="6702"><tspan fill="rgb(0,0,0)" stroke="none" style="white-space: pre">Normal</tspan></tspan></tspan></text>
</svg>