<?xml version="1.0" encoding="UTF-8"?>
<!DOCTYPE svg PUBLIC "-//W3C//DTD SVG 1.1//EN" "http://www.w3.org/Graphics/SVG/1.1/DTD/svg11.dtd">
<svg width="160mm" height="117mm" viewBox="0 0 16000 11700" version="1.1" xmlns="http://www.w3.org/2000/svg" xmlns:xlink="http://www.w3.org/1999/xlink" stroke-width="28.222" stroke-linejoin="round" xml:space="preserve">
 <path fill="rgb(255,255,255)" stroke="none" d="M 8000,11700 L 0,11700 0,0 16000,0 16000,11700 8000,11700 Z"/>
 <path fill="none" stroke="rgb(179,179,179)" stroke-linejoin="round" d="M 7543,10819 L 2715,10819 2715,234 12371,234 12371,10819 7543,10819 Z"/>
 <path fill="none" stroke="rgb(179,179,179)" stroke-linejoin="round" d="M 12371,232 L 12371,10817"/>
 <path fill="none" stroke="rgb(179,179,179)" stroke-linejoin="round" d="M 10761,232 L 10761,10817"/>
 <path fill="none" stroke="rgb(179,179,179)" stroke-linejoin="round" d="M 9152,232 L 9152,10817"/>
 <path fill="none" stroke="rgb(179,179,179)" stroke-linejoin="round" d="M 7543,232 L 7543,10817"/>
 <path fill="none" stroke="rgb(179,179,179)" stroke-linejoin="round" d="M 5933,232 L 5933,10817"/>
 <path fill="none" stroke="rgb(179,179,179)" stroke-linejoin="round" d="M 4324,232 L 4324,10817"/>
 <path fill="none" stroke="rgb(179,179,179)" stroke-linejoin="round" d="M 2714,232 L 2714,10817"/>
 <path fill="none" stroke="rgb(179,179,179)" stroke-linejoin="round" d="M 12521,233 L 12371,233"/>
 <path fill="none" stroke="rgb(179,179,179)" stroke-linejoin="round" d="M 12521,233 L 12371,233"/>
 <path fill="none" stroke="rgb(179,179,179)" stroke-linejoin="round" d="M 12521,1291 L 12371,1291"/>
 <path fill="none" stroke="rgb(179,179,179)" stroke-linejoin="round" d="M 12521,1291 L 12371,1291"/>
 <path fill="none" stroke="rgb(179,179,179)" stroke-linejoin="round" d="M 12521,2350 L 12371,2350"/>
 <path fill="none" stroke="rgb(179,179,179)" stroke-linejoin="round" d="M 12521,2350 L 12371,2350"/>
 <path fill="none" stroke="rgb(179,179,179)" stroke-linejoin="round" d="M 12521,3408 L 12371,3408"/>
 <path fill="none" stroke="rgb(179,179,179)" stroke-linejoin="round" d="M 12521,3408 L 12371,3408"/>
 <path fill="none" stroke="rgb(179,179,179)" stroke-linejoin="round" d="M 12521,4467 L 12371,4467"/>
 <path fill="none" stroke="rgb(179,179,179)" stroke-linejoin="round" d="M 12521,4467 L 12371,4467"/>
 <path fill="none" stroke="rgb(179,179,179)" stroke-linejoin="round" d="M 12521,5525 L 12371,5525"/>
 <path fill="none" stroke="rgb(179,179,179)" stroke-linejoin="round" d="M 12521,5525 L 12371,5525"/>
 <path fill="none" stroke="rgb(179,179,179)" stroke-linejoin="round" d="M 12521,6583 L 12371,6583"/>
 <path fill="none" stroke="rgb(179,179,179)" stroke-linejoin="round" d="M 12521,6583 L 12371,6583"/>
 <path fill="none" stroke="rgb(179,179,179)" stroke-linejoin="round" d="M 12521,7642 L 12371,7642"/>
 <path fill="none" stroke="rgb(179,179,179)" stroke-linejoin="round" d="M 12521,7642 L 12371,7642"/>
 <path fill="none" stroke="rgb(179,179,179)" stroke-linejoin="round" d="M 12521,8700 L 12371,8700"/>
 <path fill="none" stroke="rgb(179,179,179)" stroke-linejoin="round" d="M 12521,8700 L 12371,8700"/>
 <path fill="none" stroke="rgb(179,179,179)" stroke-linejoin="round" d="M 12521,9759 L 12371,9759"/>
 <path fill="none" stroke="rgb(179,179,179)" stroke-linejoin="round" d="M 12521,9759 L 12371,9759"/>
 <path fill="none" stroke="rgb(179,179,179)" stroke-linejoin="round" d="M 12521,10817 L 12371,10817"/>
 <path fill="none" stroke="rgb(179,179,179)" stroke-linejoin="round" d="M 12521,10817 L 12371,10817"/>
 <path fill="none" stroke="rgb(179,179,179)" stroke-linejoin="round" d="M 12371,10817 L 12371,232"/>
 <path fill="none" stroke="rgb(179,179,179)" stroke-linejoin="round" d="M 12371,10967 L 12371,10817"/>
 <path fill="none" stroke="rgb(179,179,179)" stroke-linejoin="round" d="M 12371,82 L 12371,232"/>
 <path fill="none" stroke="rgb(179,179,179)" stroke-linejoin="round" d="M 10761,10967 L 10761,10817"/>
 <path fill="none" stroke="rgb(179,179,179)" stroke-linejoin="round" d="M 10761,82 L 10761,232"/>
 <path fill="none" stroke="rgb(179,179,179)" stroke-linejoin="round" d="M 9152,10967 L 9152,10817"/>
 <path fill="none" stroke="rgb(179,179,179)" stroke-linejoin="round" d="M 9152,82 L 9152,232"/>
 <path fill="none" stroke="rgb(179,179,179)" stroke-linejoin="round" d="M 7543,10967 L 7543,10817"/>
 <path fill="none" stroke="rgb(179,179,179)" stroke-linejoin="round" d="M 7543,82 L 7543,232"/>
 <path fill="none" stroke="rgb(179,179,179)" stroke-linejoin="round" d="M 5933,10967 L 5933,10817"/>
 <path fill="none" stroke="rgb(179,179,179)" stroke-linejoin="round" d="M 5933,82 L 5933,232"/>
 <path fill="none" stroke="rgb(179,179,179)" stroke-linejoin="round" d="M 4324,10967 L 4324,10817"/>
 <path fill="none" stroke="rgb(179,179,179)" stroke-linejoin="round" d="M 4324,82 L 4324,232"/>
 <path fill="none" stroke="rgb(179,179,179)" stroke-linejoin="round" d="M 2714,10967 L 2714,10817"/>
 <path fill="none" stroke="rgb(179,179,179)" stroke-linejoin="round" d="M 2714,82 L 2714,232"/>
 <path fill="none" stroke="rgb(179,179,179)" stroke-linejoin="round" d="M 2715,232 L 12371,232"/>
 <path fill="rgb(19,148,72)" stroke="none" d="M 12371,9865 L 12371,10076 4324,10076 4324,9865 12371,9865 Z"/>
 <path fill="rgb(19,148,72)" stroke="none" d="M 12371,8806 L 12371,9018 4324,9018 4324,8806 12371,8806 Z"/>
 <path fill="rgb(19,148,72)" stroke="none" d="M 12371,7748 L 12371,7959 4324,7959 4324,7748 12371,7748 Z"/>
 <path fill="rgb(19,148,72)" stroke="none" d="M 12371,6689 L 12371,6901 4324,6901 4324,6689 12371,6689 Z"/>
 <path fill="rgb(19,148,72)" stroke="none" d="M 12371,5631 L 12371,5843 4324,5843 4324,5631 12371,5631 Z"/>
 <path fill="rgb(19,148,72)" stroke="none" d="M 12371,4573 L 12371,4784 4324,4784 4324,4573 12371,4573 Z"/>
 <path fill="rgb(19,148,72)" stroke="none" d="M 12371,3514 L 12371,3726 4324,3726 4324,3514 12371,3514 Z"/>
 <path fill="rgb(19,148,72)" stroke="none" d="M 12371,2456 L 12371,2667 4324,2667 4324,2456 12371,2456 Z"/>
 <path fill="rgb(19,148,72)" stroke="none" d="M 12371,1397 L 12371,1609 4324,1609 4324,1397 12371,1397 Z"/>
 <path fill="rgb(19,148,72)" stroke="none" d="M 12371,338 L 12371,550 4324,550 4324,338 12371,338 Z"/>
 <path fill="rgb(12,50,44)" stroke="none" d="M 12371,10076 L 12371,10288 6775,10288 6775,10076 12371,10076 Z"/>
 <path fill="rgb(12,50,44)" stroke="none" d="M 12371,9018 L 12371,9230 4217,9230 4217,9018 12371,9018 Z"/>
 <path fill="rgb(12,50,44)" stroke="none" d="M 12371,7959 L 12371,8171 7934,8171 7934,7959 12371,7959 Z"/>
 <path fill="rgb(12,50,44)" stroke="none" d="M 12371,6901 L 12371,7112 4397,7112 4397,6901 12371,6901 Z"/>
 <path fill="rgb(12,50,44)" stroke="none" d="M 12371,5843 L 12371,6054 4085,6054 4085,5843 12371,5843 Z"/>
 <path fill="rgb(12,50,44)" stroke="none" d="M 12371,4784 L 12371,4996 7076,4996 7076,4784 12371,4784 Z"/>
 <path fill="rgb(12,50,44)" stroke="none" d="M 12371,3726 L 12371,3938 5471,3938 5471,3726 12371,3726 Z"/>
 <path fill="rgb(12,50,44)" stroke="none" d="M 12371,2667 L 12371,2879 6141,2879 6141,2667 12371,2667 Z"/>
 <path fill="rgb(12,50,44)" stroke="none" d="M 12371,1609 L 12371,1820 4093,1820 4093,1609 12371,1609 Z"/>
 <path fill="rgb(12,50,44)" stroke="none" d="M 12371,550 L 12371,762 3424,762 3424,550 12371,550 Z"/>
 <path fill="rgb(255,193,8)" stroke="none" d="M 12371,10288 L 12371,10500 5087,10500 5087,10288 12371,10288 Z"/>
 <path fill="rgb(255,193,8)" stroke="none" d="M 12371,9230 L 12371,9441 4056,9441 4056,9230 12371,9230 Z"/>
 <path fill="rgb(255,193,8)" stroke="none" d="M 12371,8171 L 12371,8383 6858,8383 6858,8171 12371,8171 Z"/>
 <path fill="rgb(255,193,8)" stroke="none" d="M 12371,7112 L 12371,7324 4328,7324 4328,7112 12371,7112 Z"/>
 <path fill="rgb(255,193,8)" stroke="none" d="M 12371,6054 L 12371,6266 5309,6266 5309,6054 12371,6054 Z"/>
 <path fill="rgb(255,193,8)" stroke="none" d="M 12371,4996 L 12371,5208 7531,5208 7531,4996 12371,4996 Z"/>
 <path fill="rgb(255,193,8)" stroke="none" d="M 12371,3938 L 12371,4149 6516,4149 6516,3938 12371,3938 Z"/>
 <path fill="rgb(255,193,8)" stroke="none" d="M 12371,2879 L 12371,3091 6190,3091 6190,2879 12371,2879 Z"/>
 <path fill="rgb(255,193,8)" stroke="none" d="M 12371,1820 L 12371,2032 5163,2032 5163,1820 12371,1820 Z"/>
 <path fill="rgb(255,193,8)" stroke="none" d="M 12371,762 L 12371,974 5599,974 5599,762 12371,762 Z"/>
 <path fill="rgb(0,138,207)" stroke="none" d="M 12371,10500 L 12371,10712 7602,10712 7602,10500 12371,10500 Z"/>
 <path fill="rgb(0,138,207)" stroke="none" d="M 12371,9441 L 12371,9653 7520,9653 7520,9441 12371,9441 Z"/>
 <path fill="rgb(0,138,207)" stroke="none" d="M 12371,8383 L 12371,8594 9076,8594 9076,8383 12371,8383 Z"/>
 <path fill="rgb(0,138,207)" stroke="none" d="M 12371,7324 L 12371,7536 4398,7536 4398,7324 12371,7324 Z"/>
 <path fill="rgb(0,138,207)" stroke="none" d="M 12371,6266 L 12371,6477 5731,6477 5731,6266 12371,6266 Z"/>
 <path fill="rgb(0,138,207)" stroke="none" d="M 12371,5208 L 12371,5420 8511,5420 8511,5208 12371,5208 Z"/>
 <path fill="rgb(0,138,207)" stroke="none" d="M 12371,4149 L 12371,4361 7436,4361 7436,4149 12371,4149 Z"/>
 <path fill="rgb(0,138,207)" stroke="none" d="M 12371,3091 L 12371,3302 7592,3302 7592,3091 12371,3091 Z"/>
 <path fill="rgb(0,138,207)" stroke="none" d="M 12371,2032 L 12371,2244 4861,2244 4861,2032 12371,2032 Z"/>
 <path fill="rgb(0,138,207)" stroke="none" d="M 12371,974 L 12371,1185 5867,1185 5867,974 12371,974 Z"/>
 <text class="SVGTextShape"><tspan class="TextParagraph" font-family="Liberation Sans, sans-serif" font-size="353px" font-weight="400"><tspan class="TextPosition" x="12621" y="882"><tspan fill="rgb(0,0,0)" stroke="none">500.perlbench_r</tspan></tspan></tspan></text>
 <text class="SVGTextShape"><tspan class="TextParagraph" font-family="Liberation Sans, sans-serif" font-size="353px" font-weight="400"><tspan class="TextPosition" x="12621" y="1940"><tspan fill="rgb(0,0,0)" stroke="none">502.gcc_r</tspan></tspan></tspan></text>
 <text class="SVGTextShape"><tspan class="TextParagraph" font-family="Liberation Sans, sans-serif" font-size="353px" font-weight="400"><tspan class="TextPosition" x="12621" y="2999"><tspan fill="rgb(0,0,0)" stroke="none">505.mcf_r</tspan></tspan></tspan></text>
 <text class="SVGTextShape"><tspan class="TextParagraph" font-family="Liberation Sans, sans-serif" font-size="353px" font-weight="400"><tspan class="TextPosition" x="12621" y="4058"><tspan fill="rgb(0,0,0)" stroke="none">520.omnetpp_r</tspan></tspan></tspan></text>
 <text class="SVGTextShape"><tspan class="TextParagraph" font-family="Liberation Sans, sans-serif" font-size="353px" font-weight="400"><tspan class="TextPosition" x="12621" y="5116"><tspan fill="rgb(0,0,0)" stroke="none">523.xalancbmk_r</tspan></tspan></tspan></text>
 <text class="SVGTextShape"><tspan class="TextParagraph" font-family="Liberation Sans, sans-serif" font-size="353px" font-weight="400"><tspan class="TextPosition" x="12621" y="6175"><tspan fill="rgb(0,0,0)" stroke="none">525.x264_r</tspan></tspan></tspan></text>
 <text class="SVGTextShape"><tspan class="TextParagraph" font-family="Liberation Sans, sans-serif" font-size="353px" font-weight="400"><tspan class="TextPosition" x="12621" y="7233"><tspan fill="rgb(0,0,0)" stroke="none">531.deepsjeng_r</tspan></tspan></tspan></text>
 <text class="SVGTextShape"><tspan class="TextParagraph" font-family="Liberation Sans, sans-serif" font-size="353px" font-weight="400"><tspan class="TextPosition" x="12621" y="8292"><tspan fill="rgb(0,0,0)" stroke="none">541.leela_r</tspan></tspan></tspan></text>
 <text class="SVGTextShape"><tspan class="TextParagraph" font-family="Liberation Sans, sans-serif" font-size="353px" font-weight="400"><tspan class="TextPosition" x="12621" y="9351"><tspan fill="rgb(0,0,0)" stroke="none">548.exchange2_r</tspan></tspan></tspan></text>
 <text class="SVGTextShape"><tspan class="TextParagraph" font-family="Liberation Sans, sans-serif" font-size="353px" font-weight="400"><tspan class="TextPosition" x="12621" y="10409"><tspan fill="rgb(0,0,0)" stroke="none">557.xz_r</tspan></tspan></tspan></text>
 <text class="SVGTextShape"><tspan class="TextParagraph" font-family="Liberation Sans, sans-serif" font-size="353px" font-weight="400"><tspan class="TextPosition" x="12120" y="11385"><tspan fill="rgb(0,0,0)" stroke="none">0%</tspan></tspan></tspan></text>
 <text class="SVGTextShape"><tspan class="TextParagraph" font-family="Liberation Sans, sans-serif" font-size="353px" font-weight="400"><tspan class="TextPosition" x="10418" y="11385"><tspan fill="rgb(0,0,0)" stroke="none">20%</tspan></tspan></tspan></text>
 <text class="SVGTextShape"><tspan class="TextParagraph" font-family="Liberation Sans, sans-serif" font-size="353px" font-weight="400"><tspan class="TextPosition" x="8809" y="11385"><tspan fill="rgb(0,0,0)" stroke="none">40%</tspan></tspan></tspan></text>
 <text class="SVGTextShape"><tspan class="TextParagraph" font-family="Liberation Sans, sans-serif" font-size="353px" font-weight="400"><tspan class="TextPosition" x="7199" y="11385"><tspan fill="rgb(0,0,0)" stroke="none">60%</tspan></tspan></tspan></text>
 <text class="SVGTextShape"><tspan class="TextParagraph" font-family="Liberation Sans, sans-serif" font-size="353px" font-weight="400"><tspan class="TextPosition" x="5589" y="11385"><tspan fill="rgb(0,0,0)" stroke="none">80%</tspan></tspan></tspan></text>
 <text class="SVGTextShape"><tspan class="TextParagraph" font-family="Liberation Sans, sans-serif" font-size="353px" font-weight="400"><tspan class="TextPosition" x="3887" y="11385"><tspan fill="rgb(0,0,0)" stroke="none">100%</tspan></tspan></tspan></text>
 <text class="SVGTextShape"><tspan class="TextParagraph" font-family="Liberation Sans, sans-serif" font-size="353px" font-weight="400"><tspan class="TextPosition" x="2277" y="11385"><tspan fill="rgb(0,0,0)" stroke="none">120%</tspan></tspan></tspan></text>
 <path fill="rgb(19,148,72)" stroke="none" d="M 431,6701 L 326,6701 326,6490 537,6490 537,6701 431,6701 Z"/>
 <path fill="rgb(12,50,44)" stroke="none" d="M 431,6203 L 326,6203 326,5992 537,5992 537,6203 431,6203 Z"/>
 <path fill="rgb(255,193,8)" stroke="none" d="M 431,5706 L 326,5706 326,5495 537,5495 537,5706 431,5706 Z"/>
 <path fill="rgb(0,138,207)" stroke="none" d="M 431,5208 L 326,5208 326,4997 537,4997 537,5208 431,5208 Z"/>
 <text class="SVGTextShape"><tspan class="TextParagraph" font-family="Liberation Sans, sans-serif" font-size="353px" font-weight="400"><tspan class="TextPosition" x="637" y="5222"><tspan fill="rgb(0,0,0)" stroke="none">LTO+PGO</tspan></tspan></tspan></text>
 <text class="SVGTextShape"><tspan class="TextParagraph" font-family="Liberation Sans, sans-serif" font-size="353px" font-weight="400"><tspan class="TextPosition" x="637" y="5720"><tspan fill="rgb(0,0,0)" stroke="none">PGO</tspan></tspan></tspan></text>
 <text class="SVGTextShape"><tspan class="TextParagraph" font-family="Liberation Sans, sans-serif" font-size="353px" font-weight="400"><tspan class="TextPosition" x="637" y="6217"><tspan fill="rgb(0,0,0)" stroke="none">LTO</tspan></tspan></tspan></text>
 <text class="SVGTextShape"><tspan class="TextParagraph" font-family="Liberation Sans, sans-serif" font-size="353px" font-weight="400"><tspan class="TextPosition" x="637" y="6715"><tspan fill="rgb(0,0,0)" stroke="none">Normal</tspan></tspan></tspan></text>
</svg>