<?xml version="1.0" encoding="UTF-8"?>
<!DOCTYPE svg PUBLIC "-//W3C//DTD SVG 1.1//EN" "http://www.w3.org/Graphics/SVG/1.1/DTD/svg11.dtd">
<svg width="160mm" height="19mm" viewBox="0 0 16000 1900" version="1.1" xmlns="http://www.w3.org/2000/svg" xmlns:xlink="http://www.w3.org/1999/xlink" stroke-width="28.222" stroke-linejoin="round" xml:space="preserve">
 <path fill="rgb(255,255,255)" stroke="none" d="M 7987,1887 L -13,1887 -13,94 15987,94 15987,1887 7987,1887 Z"/>
 <path fill="none" stroke="rgb(179,179,179)" stroke-linejoin="round" d="M 7357,1241 L 1960,1241 1960,130 12754,130 12754,1241 7357,1241 Z"/>
 <path fill="none" stroke="rgb(179,179,179)" stroke-linejoin="round" d="M 1960,129 L 1960,1240"/>
 <path fill="none" stroke="rgb(179,179,179)" stroke-linejoin="round" d="M 3759,129 L 3759,1240"/>
 <path fill="none" stroke="rgb(179,179,179)" stroke-linejoin="round" d="M 5558,129 L 5558,1240"/>
 <path fill="none" stroke="rgb(179,179,179)" stroke-linejoin="round" d="M 7357,129 L 7357,1240"/>
 <path fill="none" stroke="rgb(179,179,179)" stroke-linejoin="round" d="M 9155,129 L 9155,1240"/>
 <path fill="none" stroke="rgb(179,179,179)" stroke-linejoin="round" d="M 10954,129 L 10954,1240"/>
 <path fill="none" stroke="rgb(179,179,179)" stroke-linejoin="round" d="M 12754,129 L 12754,1240"/>
 <path fill="none" stroke="rgb(179,179,179)" stroke-linejoin="round" d="M 1810,129 L 1960,129"/>
 <path fill="none" stroke="rgb(179,179,179)" stroke-linejoin="round" d="M 1810,129 L 1960,129"/>
 <path fill="none" stroke="rgb(179,179,179)" stroke-linejoin="round" d="M 1810,1240 L 1960,1240"/>
 <path fill="none" stroke="rgb(179,179,179)" stroke-linejoin="round" d="M 1810,1240 L 1960,1240"/>
 <path fill="none" stroke="rgb(179,179,179)" stroke-linejoin="round" d="M 1960,1240 L 1960,129"/>
 <path fill="none" stroke="rgb(179,179,179)" stroke-linejoin="round" d="M 1960,1381 L 1960,1240"/>
 <path fill="none" stroke="rgb(179,179,179)" stroke-linejoin="round" d="M 1960,-13 L 1960,129"/>
 <path fill="none" stroke="rgb(179,179,179)" stroke-linejoin="round" d="M 3759,1381 L 3759,1240"/>
 <path fill="none" stroke="rgb(179,179,179)" stroke-linejoin="round" d="M 3759,-13 L 3759,129"/>
 <path fill="none" stroke="rgb(179,179,179)" stroke-linejoin="round" d="M 5558,1381 L 5558,1240"/>
 <path fill="none" stroke="rgb(179,179,179)" stroke-linejoin="round" d="M 5558,-13 L 5558,129"/>
 <path fill="none" stroke="rgb(179,179,179)" stroke-linejoin="round" d="M 7357,1381 L 7357,1240"/>
 <path fill="none" stroke="rgb(179,179,179)" stroke-linejoin="round" d="M 7357,-13 L 7357,129"/>
 <path fill="none" stroke="rgb(179,179,179)" stroke-linejoin="round" d="M 9155,1381 L 9155,1240"/>
 <path fill="none" stroke="rgb(179,179,179)" stroke-linejoin="round" d="M 9155,-13 L 9155,129"/>
 <path fill="none" stroke="rgb(179,179,179)" stroke-linejoin="round" d="M 10954,1381 L 10954,1240"/>
 <path fill="none" stroke="rgb(179,179,179)" stroke-linejoin="round" d="M 10954,-13 L 10954,129"/>
 <path fill="none" stroke="rgb(179,179,179)" stroke-linejoin="round" d="M 12754,1381 L 12754,1240"/>
 <path fill="none" stroke="rgb(179,179,179)" stroke-linejoin="round" d="M 12754,-13 L 12754,129"/>
 <path fill="none" stroke="rgb(179,179,179)" stroke-linejoin="round" d="M 1960,129 L 12754,129"/>
 <path fill="rgb(222,0,128)" stroke="none" d="M 1960,314 L 1960,684 10954,684 10954,314 1960,314 Z"/>
 <path fill="rgb(19,148,72)" stroke="none" d="M 1960,684 L 1960,1054 11736,1054 11736,684 1960,684 Z"/>
 <text class="SVGTextShape"><tspan class="TextParagraph" font-family="Liberation Sans, sans-serif" font-size="353px" font-weight="400"><tspan class="TextPosition" x="308" y="798"><tspan font-size="333px" fill="rgb(0,0,0)" stroke="none" style="white-space: pre">521.wrf_r</tspan></tspan></tspan></text>
 <text class="SVGTextShape"><tspan class="TextParagraph" font-family="Liberation Sans, sans-serif" font-size="353px" font-weight="400"><tspan class="TextPosition" x="1708" y="1776"><tspan font-size="333px" fill="rgb(0,0,0)" stroke="none" style="white-space: pre">0%</tspan></tspan></tspan></text>
 <text class="SVGTextShape"><tspan class="TextParagraph" font-family="Liberation Sans, sans-serif" font-size="353px" font-weight="400"><tspan class="TextPosition" x="3415" y="1776"><tspan font-size="333px" fill="rgb(0,0,0)" stroke="none" style="white-space: pre">20%</tspan></tspan></tspan></text>
 <text class="SVGTextShape"><tspan class="TextParagraph" font-family="Liberation Sans, sans-serif" font-size="353px" font-weight="400"><tspan class="TextPosition" x="5214" y="1776"><tspan font-size="333px" fill="rgb(0,0,0)" stroke="none" style="white-space: pre">40%</tspan></tspan></tspan></text>
 <text class="SVGTextShape"><tspan class="TextParagraph" font-family="Liberation Sans, sans-serif" font-size="353px" font-weight="400"><tspan class="TextPosition" x="7013" y="1776"><tspan font-size="333px" fill="rgb(0,0,0)" stroke="none" style="white-space: pre">60%</tspan></tspan></tspan></text>
 <text class="SVGTextShape"><tspan class="TextParagraph" font-family="Liberation Sans, sans-serif" font-size="353px" font-weight="400"><tspan class="TextPosition" x="8811" y="1776"><tspan font-size="333px" fill="rgb(0,0,0)" stroke="none" style="white-space: pre">80%</tspan></tspan></tspan></text>
 <text class="SVGTextShape"><tspan class="TextParagraph" font-family="Liberation Sans, sans-serif" font-size="353px" font-weight="400"><tspan class="TextPosition" x="10517" y="1776"><tspan font-size="333px" fill="rgb(0,0,0)" stroke="none" style="white-space: pre">100%</tspan></tspan></tspan></text>
 <text class="SVGTextShape"><tspan class="TextParagraph" font-family="Liberation Sans, sans-serif" font-size="353px" font-weight="400"><tspan class="TextPosition" x="12317" y="1776"><tspan font-size="333px" fill="rgb(0,0,0)" stroke="none" style="white-space: pre">120%</tspan></tspan></tspan></text>
 <path fill="rgb(222,0,128)" stroke="none" d="M 13734,1324 L 13628,1324 13628,1125 13839,1125 13839,1324 13734,1324 Z"/>
 <path fill="rgb(19,148,72)" stroke="none" d="M 13734,854 L 13628,854 13628,655 13839,655 13839,854 13734,854 Z"/>
 <text class="SVGTextShape"><tspan class="TextParagraph" font-family="Liberation Sans, sans-serif" font-size="353px" font-weight="400"><tspan class="TextPosition" x="13939" y="868"><tspan font-size="333px" fill="rgb(0,0,0)" stroke="none" style="white-space: pre">GCC (LTO)</tspan></tspan></tspan></text>
 <text class="SVGTextShape"><tspan class="TextParagraph" font-family="Liberation Sans, sans-serif" font-size="353px" font-weight="400"><tspan class="TextPosition" x="13939" y="1337"><tspan font-size="333px" fill="rgb(0,0,0)" stroke="none" style="white-space: pre">ICC (LTO)</tspan></tspan></tspan></text>
</svg>