<?xml version="1.0" encoding="UTF-8"?>
<!DOCTYPE svg PUBLIC "-//W3C//DTD SVG 1.1//EN" "http://www.w3.org/Graphics/SVG/1.1/DTD/svg11.dtd">
<svg width="160mm" height="50mm" viewBox="0 0 16000 5000" version="1.1" xmlns="http://www.w3.org/2000/svg" xmlns:xlink="http://www.w3.org/1999/xlink" stroke-width="28.222" stroke-linejoin="round" xml:space="preserve">
 <path fill="rgb(255,255,255)" stroke="none" d="M 8000,5000 L 0,5000 0,0 16000,0 16000,5000 8000,5000 Z"/>
 <path fill="none" stroke="rgb(179,179,179)" stroke-linejoin="round" d="M 9110,4253 L 2979,4253 2979,883 15242,883 15242,4253 9110,4253 Z"/>
 <path fill="none" stroke="rgb(179,179,179)" stroke-linejoin="round" d="M 2979,882 L 2979,4252"/>
 <path fill="none" stroke="rgb(179,179,179)" stroke-linejoin="round" d="M 5023,882 L 5023,4252"/>
 <path fill="none" stroke="rgb(179,179,179)" stroke-linejoin="round" d="M 7067,882 L 7067,4252"/>
 <path fill="none" stroke="rgb(179,179,179)" stroke-linejoin="round" d="M 9110,882 L 9110,4252"/>
 <path fill="none" stroke="rgb(179,179,179)" stroke-linejoin="round" d="M 11154,882 L 11154,4252"/>
 <path fill="none" stroke="rgb(179,179,179)" stroke-linejoin="round" d="M 13198,882 L 13198,4252"/>
 <path fill="none" stroke="rgb(179,179,179)" stroke-linejoin="round" d="M 15242,882 L 15242,4252"/>
 <path fill="none" stroke="rgb(179,179,179)" stroke-linejoin="round" d="M 2829,4252 L 2979,4252"/>
 <path fill="none" stroke="rgb(179,179,179)" stroke-linejoin="round" d="M 2829,4252 L 2979,4252"/>
 <path fill="none" stroke="rgb(179,179,179)" stroke-linejoin="round" d="M 2829,3128 L 2979,3128"/>
 <path fill="none" stroke="rgb(179,179,179)" stroke-linejoin="round" d="M 2829,3128 L 2979,3128"/>
 <path fill="none" stroke="rgb(179,179,179)" stroke-linejoin="round" d="M 2829,2005 L 2979,2005"/>
 <path fill="none" stroke="rgb(179,179,179)" stroke-linejoin="round" d="M 2829,2005 L 2979,2005"/>
 <path fill="none" stroke="rgb(179,179,179)" stroke-linejoin="round" d="M 2829,882 L 2979,882"/>
 <path fill="none" stroke="rgb(179,179,179)" stroke-linejoin="round" d="M 2829,882 L 2979,882"/>
 <path fill="none" stroke="rgb(179,179,179)" stroke-linejoin="round" d="M 2979,4252 L 2979,882"/>
 <path fill="none" stroke="rgb(179,179,179)" stroke-linejoin="round" d="M 2979,4402 L 2979,4252"/>
 <path fill="none" stroke="rgb(179,179,179)" stroke-linejoin="round" d="M 2979,4402 L 2979,4252"/>
 <path fill="none" stroke="rgb(179,179,179)" stroke-linejoin="round" d="M 5023,4402 L 5023,4252"/>
 <path fill="none" stroke="rgb(179,179,179)" stroke-linejoin="round" d="M 5023,4402 L 5023,4252"/>
 <path fill="none" stroke="rgb(179,179,179)" stroke-linejoin="round" d="M 7067,4402 L 7067,4252"/>
 <path fill="none" stroke="rgb(179,179,179)" stroke-linejoin="round" d="M 7067,4402 L 7067,4252"/>
 <path fill="none" stroke="rgb(179,179,179)" stroke-linejoin="round" d="M 9110,4402 L 9110,4252"/>
 <path fill="none" stroke="rgb(179,179,179)" stroke-linejoin="round" d="M 9110,4402 L 9110,4252"/>
 <path fill="none" stroke="rgb(179,179,179)" stroke-linejoin="round" d="M 11154,4402 L 11154,4252"/>
 <path fill="none" stroke="rgb(179,179,179)" stroke-linejoin="round" d="M 11154,4402 L 11154,4252"/>
 <path fill="none" stroke="rgb(179,179,179)" stroke-linejoin="round" d="M 13198,4402 L 13198,4252"/>
 <path fill="none" stroke="rgb(179,179,179)" stroke-linejoin="round" d="M 13198,4402 L 13198,4252"/>
 <path fill="none" stroke="rgb(179,179,179)" stroke-linejoin="round" d="M 15242,4402 L 15242,4252"/>
 <path fill="none" stroke="rgb(179,179,179)" stroke-linejoin="round" d="M 15242,4402 L 15242,4252"/>
 <path fill="none" stroke="rgb(179,179,179)" stroke-linejoin="round" d="M 2979,4252 L 15242,4252"/>
 <path fill="rgb(0,138,207)" stroke="none" d="M 2979,1818 L 2979,1443 13559,1443 13559,1818 2979,1818 Z"/>
 <path fill="rgb(0,138,207)" stroke="none" d="M 2979,2941 L 2979,2566 14220,2566 14220,2941 2979,2941 Z"/>
 <path fill="rgb(0,138,207)" stroke="none" d="M 2979,4064 L 2979,3690 13709,3690 13709,4064 2979,4064 Z"/>
 <path fill="rgb(19,148,72)" stroke="none" d="M 2979,1443 L 2979,1069 13198,1069 13198,1443 2979,1443 Z"/>
 <path fill="rgb(19,148,72)" stroke="none" d="M 2979,2566 L 2979,2192 13198,2192 13198,2566 2979,2566 Z"/>
 <path fill="rgb(19,148,72)" stroke="none" d="M 2979,3690 L 2979,3315 13198,3315 13198,3690 2979,3690 Z"/>
 <text class="SVGTextShape"><tspan class="TextParagraph" font-family="Liberation Sans, sans-serif" font-size="353px" font-weight="400"><tspan class="TextPosition" x="1168" y="3811"><tspan fill="rgb(0,0,0)" stroke="none">singletons</tspan></tspan></tspan></text>
 <text class="SVGTextShape"><tspan class="TextParagraph" font-family="Liberation Sans, sans-serif" font-size="353px" font-weight="400"><tspan class="TextPosition" x="321" y="2687"><tspan fill="rgb(0,0,0)" stroke="none">responsiveness</tspan></tspan></tspan></text>
 <text class="SVGTextShape"><tspan class="TextParagraph" font-family="Liberation Sans, sans-serif" font-size="353px" font-weight="400"><tspan class="TextPosition" x="2068" y="1563"><tspan fill="rgb(0,0,0)" stroke="none">tp5o</tspan></tspan></tspan></text>
 <text class="SVGTextShape"><tspan class="TextParagraph" font-family="Liberation Sans, sans-serif" font-size="353px" font-weight="400"><tspan class="TextPosition" x="2727" y="4820"><tspan fill="rgb(0,0,0)" stroke="none">0%</tspan></tspan></tspan></text>
 <text class="SVGTextShape"><tspan class="TextParagraph" font-family="Liberation Sans, sans-serif" font-size="353px" font-weight="400"><tspan class="TextPosition" x="4679" y="4820"><tspan fill="rgb(0,0,0)" stroke="none">20%</tspan></tspan></tspan></text>
 <text class="SVGTextShape"><tspan class="TextParagraph" font-family="Liberation Sans, sans-serif" font-size="353px" font-weight="400"><tspan class="TextPosition" x="6723" y="4820"><tspan fill="rgb(0,0,0)" stroke="none">40%</tspan></tspan></tspan></text>
 <text class="SVGTextShape"><tspan class="TextParagraph" font-family="Liberation Sans, sans-serif" font-size="353px" font-weight="400"><tspan class="TextPosition" x="8767" y="4820"><tspan fill="rgb(0,0,0)" stroke="none">60%</tspan></tspan></tspan></text>
 <text class="SVGTextShape"><tspan class="TextParagraph" font-family="Liberation Sans, sans-serif" font-size="353px" font-weight="400"><tspan class="TextPosition" x="10811" y="4820"><tspan fill="rgb(0,0,0)" stroke="none">80%</tspan></tspan></tspan></text>
 <text class="SVGTextShape"><tspan class="TextParagraph" font-family="Liberation Sans, sans-serif" font-size="353px" font-weight="400"><tspan class="TextPosition" x="12762" y="4820"><tspan fill="rgb(0,0,0)" stroke="none">100%</tspan></tspan></tspan></text>
 <text class="SVGTextShape"><tspan class="TextParagraph" font-family="Liberation Sans, sans-serif" font-size="353px" font-weight="400"><tspan class="TextPosition" x="14806" y="4820"><tspan fill="rgb(0,0,0)" stroke="none">120%</tspan></tspan></tspan></text>
 <path fill="rgb(0,138,207)" stroke="none" d="M 8128,589 L 8022,589 8022,378 8233,378 8233,589 8128,589 Z"/>
 <path fill="rgb(19,148,72)" stroke="none" d="M 5890,589 L 5785,589 5785,378 5996,378 5996,589 5890,589 Z"/>
 <text class="SVGTextShape"><tspan class="TextParagraph" font-family="Liberation Sans, sans-serif" font-size="353px" font-weight="400"><tspan class="TextPosition" x="6096" y="603"><tspan fill="rgb(0,0,0)" stroke="none">GCC 7 -O2</tspan></tspan></tspan></text>
 <text class="SVGTextShape"><tspan class="TextParagraph" font-family="Liberation Sans, sans-serif" font-size="353px" font-weight="400"><tspan class="TextPosition" x="8333" y="603"><tspan fill="rgb(0,0,0)" stroke="none">GCC 11 -O2</tspan></tspan></tspan></text>
</svg>