<?xml version="1.0" encoding="UTF-8"?>
<!DOCTYPE svg PUBLIC "-//W3C//DTD SVG 1.1//EN" "http://www.w3.org/Graphics/SVG/1.1/DTD/svg11.dtd">
<svg width="160mm" height="45mm" viewBox="0 0 16000 4500" version="1.1" xmlns="http://www.w3.org/2000/svg" xmlns:xlink="http://www.w3.org/1999/xlink" stroke-width="28.222" stroke-linejoin="round" xml:space="preserve">
 <path fill="rgb(255,255,255)" stroke="none" d="M 8000,4500 L 0,4500 0,0 16000,0 16000,4500 8000,4500 Z"/>
 <path fill="none" stroke="rgb(179,179,179)" stroke-linejoin="round" d="M 8092,3763 L 758,3763 758,1371 15427,1371 15427,3763 8092,3763 Z"/>
 <path fill="none" stroke="rgb(179,179,179)" stroke-linejoin="round" d="M 15427,1370 L 15427,3762"/>
 <path fill="none" stroke="rgb(179,179,179)" stroke-linejoin="round" d="M 12982,1370 L 12982,3762"/>
 <path fill="none" stroke="rgb(179,179,179)" stroke-linejoin="round" d="M 10537,1370 L 10537,3762"/>
 <path fill="none" stroke="rgb(179,179,179)" stroke-linejoin="round" d="M 8091,1370 L 8091,3762"/>
 <path fill="none" stroke="rgb(179,179,179)" stroke-linejoin="round" d="M 5647,1370 L 5647,3762"/>
 <path fill="none" stroke="rgb(179,179,179)" stroke-linejoin="round" d="M 3202,1370 L 3202,3762"/>
 <path fill="none" stroke="rgb(179,179,179)" stroke-linejoin="round" d="M 757,1370 L 757,3762"/>
 <path fill="none" stroke="rgb(179,179,179)" stroke-linejoin="round" d="M 15577,3762 L 15427,3762"/>
 <path fill="none" stroke="rgb(179,179,179)" stroke-linejoin="round" d="M 15577,3762 L 15427,3762"/>
 <path fill="none" stroke="rgb(179,179,179)" stroke-linejoin="round" d="M 15577,1370 L 15427,1370"/>
 <path fill="none" stroke="rgb(179,179,179)" stroke-linejoin="round" d="M 15577,1370 L 15427,1370"/>
 <path fill="none" stroke="rgb(179,179,179)" stroke-linejoin="round" d="M 15427,3762 L 15427,1370"/>
 <path fill="none" stroke="rgb(179,179,179)" stroke-linejoin="round" d="M 15427,3912 L 15427,3762"/>
 <path fill="none" stroke="rgb(179,179,179)" stroke-linejoin="round" d="M 15427,3912 L 15427,3762"/>
 <path fill="none" stroke="rgb(179,179,179)" stroke-linejoin="round" d="M 12982,3912 L 12982,3762"/>
 <path fill="none" stroke="rgb(179,179,179)" stroke-linejoin="round" d="M 12982,3912 L 12982,3762"/>
 <path fill="none" stroke="rgb(179,179,179)" stroke-linejoin="round" d="M 10536,3912 L 10536,3762"/>
 <path fill="none" stroke="rgb(179,179,179)" stroke-linejoin="round" d="M 10536,3912 L 10536,3762"/>
 <path fill="none" stroke="rgb(179,179,179)" stroke-linejoin="round" d="M 8091,3912 L 8091,3762"/>
 <path fill="none" stroke="rgb(179,179,179)" stroke-linejoin="round" d="M 8091,3912 L 8091,3762"/>
 <path fill="none" stroke="rgb(179,179,179)" stroke-linejoin="round" d="M 5647,3912 L 5647,3762"/>
 <path fill="none" stroke="rgb(179,179,179)" stroke-linejoin="round" d="M 5647,3912 L 5647,3762"/>
 <path fill="none" stroke="rgb(179,179,179)" stroke-linejoin="round" d="M 3202,3912 L 3202,3762"/>
 <path fill="none" stroke="rgb(179,179,179)" stroke-linejoin="round" d="M 3202,3912 L 3202,3762"/>
 <path fill="none" stroke="rgb(179,179,179)" stroke-linejoin="round" d="M 757,3912 L 757,3762"/>
 <path fill="none" stroke="rgb(179,179,179)" stroke-linejoin="round" d="M 757,3912 L 757,3762"/>
 <path fill="none" stroke="rgb(179,179,179)" stroke-linejoin="round" d="M 757,3762 L 15427,3762"/>
 <path fill="rgb(0,138,207)" stroke="none" d="M 15427,3591 L 15427,3249 6298,3249 6298,3591 15427,3591 Z"/>
 <path fill="rgb(13,44,64)" stroke="none" d="M 15427,3249 L 15427,2907 3865,2907 3865,3249 15427,3249 Z"/>
 <path fill="rgb(19,148,72)" stroke="none" d="M 15427,2907 L 15427,2565 2563,2565 2563,2907 15427,2907 Z"/>
 <path fill="rgb(220,53,69)" stroke="none" d="M 15427,2565 L 15427,2224 3287,2224 3287,2565 15427,2565 Z"/>
 <path fill="rgb(255,193,8)" stroke="none" d="M 15427,2224 L 15427,1882 2360,1882 2360,2224 15427,2224 Z"/>
 <path fill="rgb(126,0,33)" stroke="none" d="M 15427,1882 L 15427,1540 3202,1540 3202,1882 15427,1882 Z"/>
 <text class="TextShape"><tspan class="TextParagraph" font-family="Liberation Sans, sans-serif" font-size="353px" font-weight="400"><tspan class="TextPosition" x="15176" y="4330"><tspan fill="rgb(0,0,0)" stroke="none">0%</tspan></tspan></tspan></text>
 <text class="TextShape"><tspan class="TextParagraph" font-family="Liberation Sans, sans-serif" font-size="353px" font-weight="400"><tspan class="TextPosition" x="12639" y="4330"><tspan fill="rgb(0,0,0)" stroke="none">20%</tspan></tspan></tspan></text>
 <text class="TextShape"><tspan class="TextParagraph" font-family="Liberation Sans, sans-serif" font-size="353px" font-weight="400"><tspan class="TextPosition" x="10193" y="4330"><tspan fill="rgb(0,0,0)" stroke="none">40%</tspan></tspan></tspan></text>
 <text class="TextShape"><tspan class="TextParagraph" font-family="Liberation Sans, sans-serif" font-size="353px" font-weight="400"><tspan class="TextPosition" x="7748" y="4330"><tspan fill="rgb(0,0,0)" stroke="none">60%</tspan></tspan></tspan></text>
 <text class="TextShape"><tspan class="TextParagraph" font-family="Liberation Sans, sans-serif" font-size="353px" font-weight="400"><tspan class="TextPosition" x="5303" y="4330"><tspan fill="rgb(0,0,0)" stroke="none">80%</tspan></tspan></tspan></text>
 <text class="TextShape"><tspan class="TextParagraph" font-family="Liberation Sans, sans-serif" font-size="353px" font-weight="400"><tspan class="TextPosition" x="2765" y="4330"><tspan fill="rgb(0,0,0)" stroke="none">100%</tspan></tspan></tspan></text>
 <text class="TextShape"><tspan class="TextParagraph" font-family="Liberation Sans, sans-serif" font-size="353px" font-weight="400"><tspan class="TextPosition" x="320" y="4330"><tspan fill="rgb(0,0,0)" stroke="none">120%</tspan></tspan></tspan></text>
 <path fill="rgb(0,138,207)" stroke="none" d="M 8771,1087 L 8665,1087 8665,876 8876,876 8876,1087 8771,1087 Z"/>
 <path fill="rgb(13,44,64)" stroke="none" d="M 5712,1087 L 5607,1087 5607,876 5818,876 5818,1087 5712,1087 Z"/>
 <path fill="rgb(19,148,72)" stroke="none" d="M 3632,1087 L 3527,1087 3527,876 3738,876 3738,1087 3632,1087 Z"/>
 <path fill="rgb(220,53,69)" stroke="none" d="M 8771,589 L 8665,589 8665,378 8876,378 8876,589 8771,589 Z"/>
 <path fill="rgb(255,193,8)" stroke="none" d="M 5712,589 L 5607,589 5607,378 5818,378 5818,589 5712,589 Z"/>
 <path fill="rgb(126,0,33)" stroke="none" d="M 3632,589 L 3527,589 3527,378 3738,378 3738,589 3632,589 Z"/>
 <text class="TextShape"><tspan class="TextParagraph" font-family="Liberation Sans, sans-serif" font-size="353px" font-weight="400"><tspan class="TextPosition" x="3838" y="603"><tspan fill="rgb(0,0,0)" stroke="none">Clang -O3</tspan></tspan></tspan></text>
 <text class="TextShape"><tspan class="TextParagraph" font-family="Liberation Sans, sans-serif" font-size="353px" font-weight="400"><tspan class="TextPosition" x="5918" y="603"><tspan fill="rgb(0,0,0)" stroke="none">Clang -O3 (LTO)</tspan></tspan></tspan></text>
 <text class="TextShape"><tspan class="TextParagraph" font-family="Liberation Sans, sans-serif" font-size="353px" font-weight="400"><tspan class="TextPosition" x="8976" y="603"><tspan fill="rgb(0,0,0)" stroke="none">Clang -O3 (LTO+PGO)</tspan></tspan></tspan></text>
 <text class="TextShape"><tspan class="TextParagraph" font-family="Liberation Sans, sans-serif" font-size="353px" font-weight="400"><tspan class="TextPosition" x="3838" y="1101"><tspan fill="rgb(0,0,0)" stroke="none">GCC -O3</tspan></tspan></tspan></text>
 <text class="TextShape"><tspan class="TextParagraph" font-family="Liberation Sans, sans-serif" font-size="353px" font-weight="400"><tspan class="TextPosition" x="5918" y="1101"><tspan fill="rgb(0,0,0)" stroke="none">GCC -O3 LTO</tspan></tspan></tspan></text>
 <text class="TextShape"><tspan class="TextParagraph" font-family="Liberation Sans, sans-serif" font-size="353px" font-weight="400"><tspan class="TextPosition" x="8976" y="1101"><tspan fill="rgb(0,0,0)" stroke="none">GCC -O3 (LTO+PGO)</tspan></tspan></tspan></text>
</svg>