<?xml version="1.0" encoding="UTF-8"?>
<!DOCTYPE svg PUBLIC "-//W3C//DTD SVG 1.1//EN" "http://www.w3.org/Graphics/SVG/1.1/DTD/svg11.dtd">
<svg width="160mm" height="75mm" viewBox="0 0 16000 7500" version="1.1" xmlns="http://www.w3.org/2000/svg" xmlns:xlink="http://www.w3.org/1999/xlink" stroke-width="28.222" stroke-linejoin="round" xml:space="preserve">
 <path fill="rgb(255,255,255)" stroke="none" d="M 8000,7500 L 0,7500 0,1 16000,1 16000,7500 8000,7500 Z"/>
 <path fill="none" stroke="rgb(179,179,179)" stroke-linejoin="round" d="M 7543,6704 L 2715,6704 2715,151 12371,151 12371,6704 7543,6704 Z"/>
 <path fill="none" stroke="rgb(179,179,179)" stroke-linejoin="round" d="M 12371,149 L 12371,6702"/>
 <path fill="none" stroke="rgb(179,179,179)" stroke-linejoin="round" d="M 10761,149 L 10761,6702"/>
 <path fill="none" stroke="rgb(179,179,179)" stroke-linejoin="round" d="M 9152,149 L 9152,6702"/>
 <path fill="none" stroke="rgb(179,179,179)" stroke-linejoin="round" d="M 7543,149 L 7543,6702"/>
 <path fill="none" stroke="rgb(179,179,179)" stroke-linejoin="round" d="M 5933,149 L 5933,6702"/>
 <path fill="none" stroke="rgb(179,179,179)" stroke-linejoin="round" d="M 4324,149 L 4324,6702"/>
 <path fill="none" stroke="rgb(179,179,179)" stroke-linejoin="round" d="M 2714,149 L 2714,6702"/>
 <path fill="none" stroke="rgb(179,179,179)" stroke-linejoin="round" d="M 12521,149 L 12371,149"/>
 <path fill="none" stroke="rgb(179,179,179)" stroke-linejoin="round" d="M 12521,149 L 12371,149"/>
 <path fill="none" stroke="rgb(179,179,179)" stroke-linejoin="round" d="M 12521,1242 L 12371,1242"/>
 <path fill="none" stroke="rgb(179,179,179)" stroke-linejoin="round" d="M 12521,1242 L 12371,1242"/>
 <path fill="none" stroke="rgb(179,179,179)" stroke-linejoin="round" d="M 12521,2334 L 12371,2334"/>
 <path fill="none" stroke="rgb(179,179,179)" stroke-linejoin="round" d="M 12521,2334 L 12371,2334"/>
 <path fill="none" stroke="rgb(179,179,179)" stroke-linejoin="round" d="M 12521,3426 L 12371,3426"/>
 <path fill="none" stroke="rgb(179,179,179)" stroke-linejoin="round" d="M 12521,3426 L 12371,3426"/>
 <path fill="none" stroke="rgb(179,179,179)" stroke-linejoin="round" d="M 12521,4518 L 12371,4518"/>
 <path fill="none" stroke="rgb(179,179,179)" stroke-linejoin="round" d="M 12521,4518 L 12371,4518"/>
 <path fill="none" stroke="rgb(179,179,179)" stroke-linejoin="round" d="M 12521,5611 L 12371,5611"/>
 <path fill="none" stroke="rgb(179,179,179)" stroke-linejoin="round" d="M 12521,5611 L 12371,5611"/>
 <path fill="none" stroke="rgb(179,179,179)" stroke-linejoin="round" d="M 12521,6702 L 12371,6702"/>
 <path fill="none" stroke="rgb(179,179,179)" stroke-linejoin="round" d="M 12521,6702 L 12371,6702"/>
 <path fill="none" stroke="rgb(179,179,179)" stroke-linejoin="round" d="M 12371,6702 L 12371,149"/>
 <path fill="none" stroke="rgb(179,179,179)" stroke-linejoin="round" d="M 12371,6852 L 12371,6702"/>
 <path fill="none" stroke="rgb(179,179,179)" stroke-linejoin="round" d="M 12371,0 L 12371,149"/>
 <path fill="none" stroke="rgb(179,179,179)" stroke-linejoin="round" d="M 10761,6852 L 10761,6702"/>
 <path fill="none" stroke="rgb(179,179,179)" stroke-linejoin="round" d="M 10761,0 L 10761,149"/>
 <path fill="none" stroke="rgb(179,179,179)" stroke-linejoin="round" d="M 9152,6852 L 9152,6702"/>
 <path fill="none" stroke="rgb(179,179,179)" stroke-linejoin="round" d="M 9152,0 L 9152,149"/>
 <path fill="none" stroke="rgb(179,179,179)" stroke-linejoin="round" d="M 7543,6852 L 7543,6702"/>
 <path fill="none" stroke="rgb(179,179,179)" stroke-linejoin="round" d="M 7543,0 L 7543,149"/>
 <path fill="none" stroke="rgb(179,179,179)" stroke-linejoin="round" d="M 5933,6852 L 5933,6702"/>
 <path fill="none" stroke="rgb(179,179,179)" stroke-linejoin="round" d="M 5933,0 L 5933,149"/>
 <path fill="none" stroke="rgb(179,179,179)" stroke-linejoin="round" d="M 4324,6852 L 4324,6702"/>
 <path fill="none" stroke="rgb(179,179,179)" stroke-linejoin="round" d="M 4324,0 L 4324,149"/>
 <path fill="none" stroke="rgb(179,179,179)" stroke-linejoin="round" d="M 2714,6852 L 2714,6702"/>
 <path fill="none" stroke="rgb(179,179,179)" stroke-linejoin="round" d="M 2714,0 L 2714,149"/>
 <path fill="none" stroke="rgb(179,179,179)" stroke-linejoin="round" d="M 2715,149 L 12371,149"/>
 <path fill="rgb(19,148,72)" stroke="none" d="M 12371,5720 L 12371,5939 4324,5939 4324,5720 12371,5720 Z"/>
 <path fill="rgb(19,148,72)" stroke="none" d="M 12371,4628 L 12371,4846 4324,4846 4324,4628 12371,4628 Z"/>
 <path fill="rgb(19,148,72)" stroke="none" d="M 12371,3535 L 12371,3754 4324,3754 4324,3535 12371,3535 Z"/>
 <path fill="rgb(19,148,72)" stroke="none" d="M 12371,2444 L 12371,2662 4324,2662 4324,2444 12371,2444 Z"/>
 <path fill="rgb(19,148,72)" stroke="none" d="M 12371,1351 L 12371,1570 4324,1570 4324,1351 12371,1351 Z"/>
 <path fill="rgb(19,148,72)" stroke="none" d="M 12371,259 L 12371,477 4324,477 4324,259 12371,259 Z"/>
 <path fill="rgb(12,50,44)" stroke="none" d="M 12371,5939 L 12371,6156 6841,6156 6841,5939 12371,5939 Z"/>
 <path fill="rgb(12,50,44)" stroke="none" d="M 12371,4846 L 12371,5065 8120,5065 8120,4846 12371,4846 Z"/>
 <path fill="rgb(12,50,44)" stroke="none" d="M 12371,3754 L 12371,3972 7216,3972 7216,3754 12371,3754 Z"/>
 <path fill="rgb(12,50,44)" stroke="none" d="M 12371,2662 L 12371,2881 5506,2881 5506,2662 12371,2662 Z"/>
 <path fill="rgb(12,50,44)" stroke="none" d="M 12371,1570 L 12371,1788 6159,1788 6159,1570 12371,1570 Z"/>
 <path fill="rgb(12,50,44)" stroke="none" d="M 12371,477 L 12371,696 3446,696 3446,477 12371,477 Z"/>
 <path fill="rgb(255,193,8)" stroke="none" d="M 12371,6156 L 12371,6375 5061,6375 5061,6156 12371,6156 Z"/>
 <path fill="rgb(255,193,8)" stroke="none" d="M 12371,5065 L 12371,5283 6923,5283 6923,5065 12371,5065 Z"/>
 <path fill="rgb(255,193,8)" stroke="none" d="M 12371,3972 L 12371,4191 7662,4191 7662,3972 12371,3972 Z"/>
 <path fill="rgb(255,193,8)" stroke="none" d="M 12371,2881 L 12371,3098 6462,3098 6462,2881 12371,2881 Z"/>
 <path fill="rgb(255,193,8)" stroke="none" d="M 12371,1788 L 12371,2007 5832,2007 5832,1788 12371,1788 Z"/>
 <path fill="rgb(255,193,8)" stroke="none" d="M 12371,696 L 12371,914 5528,914 5528,696 12371,696 Z"/>
 <path fill="rgb(0,138,207)" stroke="none" d="M 12371,6375 L 12371,6593 7616,6593 7616,6375 12371,6375 Z"/>
 <path fill="rgb(0,138,207)" stroke="none" d="M 12371,5283 L 12371,5502 9147,5502 9147,5283 12371,5283 Z"/>
 <path fill="rgb(0,138,207)" stroke="none" d="M 12371,4191 L 12371,4409 8626,4409 8626,4191 12371,4191 Z"/>
 <path fill="rgb(0,138,207)" stroke="none" d="M 12371,3098 L 12371,3317 7346,3317 7346,3098 12371,3098 Z"/>
 <path fill="rgb(0,138,207)" stroke="none" d="M 12371,2007 L 12371,2225 7541,2225 7541,2007 12371,2007 Z"/>
 <path fill="rgb(0,138,207)" stroke="none" d="M 12371,914 L 12371,1133 5811,1133 5811,914 12371,914 Z"/>
 <text class="TextShape"><tspan class="TextParagraph" font-family="Liberation Sans, sans-serif" font-size="353px" font-weight="400"><tspan class="TextPosition" x="12621" y="817"><tspan fill="rgb(0,0,0)" stroke="none">500.perlbench_r</tspan></tspan></tspan></text>
 <text class="TextShape"><tspan class="TextParagraph" font-family="Liberation Sans, sans-serif" font-size="353px" font-weight="400"><tspan class="TextPosition" x="12621" y="1908"><tspan fill="rgb(0,0,0)" stroke="none">505.mcf_r</tspan></tspan></tspan></text>
 <text class="TextShape"><tspan class="TextParagraph" font-family="Liberation Sans, sans-serif" font-size="353px" font-weight="400"><tspan class="TextPosition" x="12621" y="3001"><tspan fill="rgb(0,0,0)" stroke="none">520.omnetpp_r</tspan></tspan></tspan></text>
 <text class="TextShape"><tspan class="TextParagraph" font-family="Liberation Sans, sans-serif" font-size="353px" font-weight="400"><tspan class="TextPosition" x="12621" y="4093"><tspan fill="rgb(0,0,0)" stroke="none">523.xalancbmk_r</tspan></tspan></tspan></text>
 <text class="TextShape"><tspan class="TextParagraph" font-family="Liberation Sans, sans-serif" font-size="353px" font-weight="400"><tspan class="TextPosition" x="12621" y="5185"><tspan fill="rgb(0,0,0)" stroke="none">541.leela_r</tspan></tspan></tspan></text>
 <text class="TextShape"><tspan class="TextParagraph" font-family="Liberation Sans, sans-serif" font-size="353px" font-weight="400"><tspan class="TextPosition" x="12621" y="6277"><tspan fill="rgb(0,0,0)" stroke="none">557.xz_r</tspan></tspan></tspan></text>
 <text class="TextShape"><tspan class="TextParagraph" font-family="Liberation Sans, sans-serif" font-size="353px" font-weight="400"><tspan class="TextPosition" x="12120" y="7270"><tspan fill="rgb(0,0,0)" stroke="none">0%</tspan></tspan></tspan></text>
 <text class="TextShape"><tspan class="TextParagraph" font-family="Liberation Sans, sans-serif" font-size="353px" font-weight="400"><tspan class="TextPosition" x="10418" y="7270"><tspan fill="rgb(0,0,0)" stroke="none">20%</tspan></tspan></tspan></text>
 <text class="TextShape"><tspan class="TextParagraph" font-family="Liberation Sans, sans-serif" font-size="353px" font-weight="400"><tspan class="TextPosition" x="8809" y="7270"><tspan fill="rgb(0,0,0)" stroke="none">40%</tspan></tspan></tspan></text>
 <text class="TextShape"><tspan class="TextParagraph" font-family="Liberation Sans, sans-serif" font-size="353px" font-weight="400"><tspan class="TextPosition" x="7199" y="7270"><tspan fill="rgb(0,0,0)" stroke="none">60%</tspan></tspan></tspan></text>
 <text class="TextShape"><tspan class="TextParagraph" font-family="Liberation Sans, sans-serif" font-size="353px" font-weight="400"><tspan class="TextPosition" x="5589" y="7270"><tspan fill="rgb(0,0,0)" stroke="none">80%</tspan></tspan></tspan></text>
 <text class="TextShape"><tspan class="TextParagraph" font-family="Liberation Sans, sans-serif" font-size="353px" font-weight="400"><tspan class="TextPosition" x="3887" y="7270"><tspan fill="rgb(0,0,0)" stroke="none">100%</tspan></tspan></tspan></text>
 <text class="TextShape"><tspan class="TextParagraph" font-family="Liberation Sans, sans-serif" font-size="353px" font-weight="400"><tspan class="TextPosition" x="2277" y="7270"><tspan fill="rgb(0,0,0)" stroke="none">120%</tspan></tspan></tspan></text>
 <path fill="rgb(19,148,72)" stroke="none" d="M 431,4602 L 326,4602 326,4391 537,4391 537,4602 431,4602 Z"/>
 <path fill="rgb(12,50,44)" stroke="none" d="M 431,4104 L 326,4104 326,3893 537,3893 537,4104 431,4104 Z"/>
 <path fill="rgb(255,193,8)" stroke="none" d="M 431,3606 L 326,3606 326,3395 537,3395 537,3606 431,3606 Z"/>
 <path fill="rgb(0,138,207)" stroke="none" d="M 431,3108 L 326,3108 326,2898 537,2898 537,3108 431,3108 Z"/>
 <text class="TextShape"><tspan class="TextParagraph" font-family="Liberation Sans, sans-serif" font-size="353px" font-weight="400"><tspan class="TextPosition" x="637" y="3122"><tspan fill="rgb(0,0,0)" stroke="none">LTO+PGO</tspan></tspan></tspan></text>
 <text class="TextShape"><tspan class="TextParagraph" font-family="Liberation Sans, sans-serif" font-size="353px" font-weight="400"><tspan class="TextPosition" x="637" y="3620"><tspan fill="rgb(0,0,0)" stroke="none">PGO</tspan></tspan></tspan></text>
 <text class="TextShape"><tspan class="TextParagraph" font-family="Liberation Sans, sans-serif" font-size="353px" font-weight="400"><tspan class="TextPosition" x="637" y="4118"><tspan fill="rgb(0,0,0)" stroke="none">LTO</tspan></tspan></tspan></text>
 <text class="TextShape"><tspan class="TextParagraph" font-family="Liberation Sans, sans-serif" font-size="353px" font-weight="400"><tspan class="TextPosition" x="637" y="4616"><tspan fill="rgb(0,0,0)" stroke="none">Normal</tspan></tspan></tspan></text>
</svg>