<?xml version="1.0" encoding="UTF-8"?>
<!DOCTYPE svg PUBLIC "-//W3C//DTD SVG 1.1//EN" "http://www.w3.org/Graphics/SVG/1.1/DTD/svg11.dtd">
<svg width="160mm" height="140mm" viewBox="0 0 16000 14000" version="1.1" xmlns="http://www.w3.org/2000/svg" xmlns:xlink="http://www.w3.org/1999/xlink" stroke-width="28.222" stroke-linejoin="round" xml:space="preserve">
 <path fill="rgb(255,255,255)" stroke="none" d="M 7987,13987 L -13,13987 -13,-13 15987,-13 15987,13987 7987,13987 Z"/>
 <path fill="none" stroke="rgb(179,179,179)" stroke-linejoin="round" d="M 8002,13060 L 3292,13060 3292,267 12712,267 12712,13060 8002,13060 Z"/>
 <path fill="none" stroke="rgb(179,179,179)" stroke-linejoin="round" d="M 3292,265 L 3292,13059"/>
 <path fill="none" stroke="rgb(179,179,179)" stroke-linejoin="round" d="M 4862,265 L 4862,13059"/>
 <path fill="none" stroke="rgb(179,179,179)" stroke-linejoin="round" d="M 6432,265 L 6432,13059"/>
 <path fill="none" stroke="rgb(179,179,179)" stroke-linejoin="round" d="M 8001,265 L 8001,13059"/>
 <path fill="none" stroke="rgb(179,179,179)" stroke-linejoin="round" d="M 9571,265 L 9571,13059"/>
 <path fill="none" stroke="rgb(179,179,179)" stroke-linejoin="round" d="M 11141,265 L 11141,13059"/>
 <path fill="none" stroke="rgb(179,179,179)" stroke-linejoin="round" d="M 12712,265 L 12712,13059"/>
 <path fill="none" stroke="rgb(179,179,179)" stroke-linejoin="round" d="M 3142,265 L 3292,265"/>
 <path fill="none" stroke="rgb(179,179,179)" stroke-linejoin="round" d="M 3142,265 L 3292,265"/>
 <path fill="none" stroke="rgb(179,179,179)" stroke-linejoin="round" d="M 3142,1250 L 3292,1250"/>
 <path fill="none" stroke="rgb(179,179,179)" stroke-linejoin="round" d="M 3142,1250 L 3292,1250"/>
 <path fill="none" stroke="rgb(179,179,179)" stroke-linejoin="round" d="M 3142,2234 L 3292,2234"/>
 <path fill="none" stroke="rgb(179,179,179)" stroke-linejoin="round" d="M 3142,2234 L 3292,2234"/>
 <path fill="none" stroke="rgb(179,179,179)" stroke-linejoin="round" d="M 3142,3218 L 3292,3218"/>
 <path fill="none" stroke="rgb(179,179,179)" stroke-linejoin="round" d="M 3142,3218 L 3292,3218"/>
 <path fill="none" stroke="rgb(179,179,179)" stroke-linejoin="round" d="M 3142,4202 L 3292,4202"/>
 <path fill="none" stroke="rgb(179,179,179)" stroke-linejoin="round" d="M 3142,4202 L 3292,4202"/>
 <path fill="none" stroke="rgb(179,179,179)" stroke-linejoin="round" d="M 3142,5186 L 3292,5186"/>
 <path fill="none" stroke="rgb(179,179,179)" stroke-linejoin="round" d="M 3142,5186 L 3292,5186"/>
 <path fill="none" stroke="rgb(179,179,179)" stroke-linejoin="round" d="M 3142,6170 L 3292,6170"/>
 <path fill="none" stroke="rgb(179,179,179)" stroke-linejoin="round" d="M 3142,6170 L 3292,6170"/>
 <path fill="none" stroke="rgb(179,179,179)" stroke-linejoin="round" d="M 3142,7154 L 3292,7154"/>
 <path fill="none" stroke="rgb(179,179,179)" stroke-linejoin="round" d="M 3142,7154 L 3292,7154"/>
 <path fill="none" stroke="rgb(179,179,179)" stroke-linejoin="round" d="M 3142,8138 L 3292,8138"/>
 <path fill="none" stroke="rgb(179,179,179)" stroke-linejoin="round" d="M 3142,8138 L 3292,8138"/>
 <path fill="none" stroke="rgb(179,179,179)" stroke-linejoin="round" d="M 3142,9122 L 3292,9122"/>
 <path fill="none" stroke="rgb(179,179,179)" stroke-linejoin="round" d="M 3142,9122 L 3292,9122"/>
 <path fill="none" stroke="rgb(179,179,179)" stroke-linejoin="round" d="M 3142,10106 L 3292,10106"/>
 <path fill="none" stroke="rgb(179,179,179)" stroke-linejoin="round" d="M 3142,10106 L 3292,10106"/>
 <path fill="none" stroke="rgb(179,179,179)" stroke-linejoin="round" d="M 3142,11090 L 3292,11090"/>
 <path fill="none" stroke="rgb(179,179,179)" stroke-linejoin="round" d="M 3142,11090 L 3292,11090"/>
 <path fill="none" stroke="rgb(179,179,179)" stroke-linejoin="round" d="M 3142,12074 L 3292,12074"/>
 <path fill="none" stroke="rgb(179,179,179)" stroke-linejoin="round" d="M 3142,12074 L 3292,12074"/>
 <path fill="none" stroke="rgb(179,179,179)" stroke-linejoin="round" d="M 3142,13059 L 3292,13059"/>
 <path fill="none" stroke="rgb(179,179,179)" stroke-linejoin="round" d="M 3142,13059 L 3292,13059"/>
 <path fill="none" stroke="rgb(179,179,179)" stroke-linejoin="round" d="M 3292,13059 L 3292,265"/>
 <path fill="none" stroke="rgb(179,179,179)" stroke-linejoin="round" d="M 3292,13209 L 3292,13059"/>
 <path fill="none" stroke="rgb(179,179,179)" stroke-linejoin="round" d="M 3292,115 L 3292,265"/>
 <path fill="none" stroke="rgb(179,179,179)" stroke-linejoin="round" d="M 4862,13209 L 4862,13059"/>
 <path fill="none" stroke="rgb(179,179,179)" stroke-linejoin="round" d="M 4862,115 L 4862,265"/>
 <path fill="none" stroke="rgb(179,179,179)" stroke-linejoin="round" d="M 6432,13209 L 6432,13059"/>
 <path fill="none" stroke="rgb(179,179,179)" stroke-linejoin="round" d="M 6432,115 L 6432,265"/>
 <path fill="none" stroke="rgb(179,179,179)" stroke-linejoin="round" d="M 8001,13209 L 8001,13059"/>
 <path fill="none" stroke="rgb(179,179,179)" stroke-linejoin="round" d="M 8001,115 L 8001,265"/>
 <path fill="none" stroke="rgb(179,179,179)" stroke-linejoin="round" d="M 9571,13209 L 9571,13059"/>
 <path fill="none" stroke="rgb(179,179,179)" stroke-linejoin="round" d="M 9571,115 L 9571,265"/>
 <path fill="none" stroke="rgb(179,179,179)" stroke-linejoin="round" d="M 11141,13209 L 11141,13059"/>
 <path fill="none" stroke="rgb(179,179,179)" stroke-linejoin="round" d="M 11141,115 L 11141,265"/>
 <path fill="none" stroke="rgb(179,179,179)" stroke-linejoin="round" d="M 12712,13209 L 12712,13059"/>
 <path fill="none" stroke="rgb(179,179,179)" stroke-linejoin="round" d="M 12712,115 L 12712,265"/>
 <path fill="none" stroke="rgb(179,179,179)" stroke-linejoin="round" d="M 3292,265 L 12712,265"/>
 <path fill="rgb(222,0,128)" stroke="none" d="M 3292,364 L 3292,561 6432,561 6432,364 3292,364 Z"/>
 <path fill="rgb(222,0,128)" stroke="none" d="M 3292,1348 L 3292,1545 6432,1545 6432,1348 3292,1348 Z"/>
 <path fill="rgb(222,0,128)" stroke="none" d="M 3292,2332 L 3292,2529 6432,2529 6432,2332 3292,2332 Z"/>
 <path fill="rgb(222,0,128)" stroke="none" d="M 3292,3316 L 3292,3513 6432,3513 6432,3316 3292,3316 Z"/>
 <path fill="rgb(222,0,128)" stroke="none" d="M 3292,4301 L 3292,4497 6432,4497 6432,4301 3292,4301 Z"/>
 <path fill="rgb(222,0,128)" stroke="none" d="M 3292,5285 L 3292,5482 6432,5482 6432,5285 3292,5285 Z"/>
 <path fill="rgb(222,0,128)" stroke="none" d="M 3292,6269 L 3292,6466 6432,6466 6432,6269 3292,6269 Z"/>
 <path fill="rgb(222,0,128)" stroke="none" d="M 3292,7252 L 3292,7449 6432,7449 6432,7252 3292,7252 Z"/>
 <path fill="rgb(222,0,128)" stroke="none" d="M 3292,8236 L 3292,8433 6432,8433 6432,8236 3292,8236 Z"/>
 <path fill="rgb(222,0,128)" stroke="none" d="M 3292,9220 L 3292,9417 6432,9417 6432,9220 3292,9220 Z"/>
 <path fill="rgb(222,0,128)" stroke="none" d="M 3292,10204 L 3292,10401 6432,10401 6432,10204 3292,10204 Z"/>
 <path fill="rgb(222,0,128)" stroke="none" d="M 3292,11189 L 3292,11385 6432,11385 6432,11189 3292,11189 Z"/>
 <path fill="rgb(222,0,128)" stroke="none" d="M 3292,12173 L 3292,12370 6432,12370 6432,12173 3292,12173 Z"/>
 <path fill="rgb(112,23,108)" stroke="none" d="M 3292,561 L 3292,758 7309,758 7309,561 3292,561 Z"/>
 <path fill="rgb(112,23,108)" stroke="none" d="M 3292,1545 L 3292,1742 6607,1742 6607,1545 3292,1545 Z"/>
 <path fill="rgb(112,23,108)" stroke="none" d="M 3292,2529 L 3292,2726 6432,2726 6432,2529 3292,2529 Z"/>
 <path fill="rgb(112,23,108)" stroke="none" d="M 3292,3513 L 3292,3710 5988,3710 5988,3513 3292,3513 Z"/>
 <path fill="rgb(112,23,108)" stroke="none" d="M 3292,4497 L 3292,4694 6840,4694 6840,4497 3292,4497 Z"/>
 <path fill="rgb(112,23,108)" stroke="none" d="M 3292,5482 L 3292,5678 7828,5678 7828,5482 3292,5482 Z"/>
 <path fill="rgb(112,23,108)" stroke="none" d="M 3292,6466 L 3292,6662 6536,6662 6536,6466 3292,6466 Z"/>
 <path fill="rgb(112,23,108)" stroke="none" d="M 3292,7449 L 3292,7646 6508,7646 6508,7449 3292,7449 Z"/>
 <path fill="rgb(112,23,108)" stroke="none" d="M 3292,8433 L 3292,8630 6641,8630 6641,8433 3292,8433 Z"/>
 <path fill="rgb(112,23,108)" stroke="none" d="M 3292,9417 L 3292,9614 6621,9614 6621,9417 3292,9417 Z"/>
 <path fill="rgb(112,23,108)" stroke="none" d="M 3292,10401 L 3292,10598 6679,10598 6679,10401 3292,10401 Z"/>
 <path fill="rgb(112,23,108)" stroke="none" d="M 3292,11385 L 3292,11582 6258,11582 6258,11385 3292,11385 Z"/>
 <path fill="rgb(112,23,108)" stroke="none" d="M 3292,12370 L 3292,12566 6481,12566 6481,12370 3292,12370 Z"/>
 <path fill="rgb(12,50,44)" stroke="none" d="M 3292,758 L 3292,954 7416,954 7416,758 3292,758 Z"/>
 <path fill="rgb(12,50,44)" stroke="none" d="M 3292,1742 L 3292,1939 6406,1939 6406,1742 3292,1742 Z"/>
 <path fill="rgb(12,50,44)" stroke="none" d="M 3292,2726 L 3292,2923 6064,2923 6064,2726 3292,2726 Z"/>
 <path fill="rgb(12,50,44)" stroke="none" d="M 3292,3710 L 3292,3907 6448,3907 6448,3710 3292,3710 Z"/>
 <path fill="rgb(12,50,44)" stroke="none" d="M 3292,4694 L 3292,4891 6557,4891 6557,4694 3292,4694 Z"/>
 <path fill="rgb(12,50,44)" stroke="none" d="M 3292,5678 L 3292,5875 6848,5875 6848,5678 3292,5678 Z"/>
 <path fill="rgb(12,50,44)" stroke="none" d="M 3292,6663 L 3292,6859 6186,6859 6186,6663 3292,6663 Z"/>
 <path fill="rgb(12,50,44)" stroke="none" d="M 3292,7646 L 3292,7842 6208,7842 6208,7646 3292,7646 Z"/>
 <path fill="rgb(12,50,44)" stroke="none" d="M 3292,8630 L 3292,8827 6089,8827 6089,8630 3292,8630 Z"/>
 <path fill="rgb(12,50,44)" stroke="none" d="M 3292,9614 L 3292,9811 10764,9811 10764,9614 3292,9614 Z"/>
 <path fill="rgb(12,50,44)" stroke="none" d="M 3292,10598 L 3292,10795 6003,10795 6003,10598 3292,10598 Z"/>
 <path fill="rgb(12,50,44)" stroke="none" d="M 3292,11582 L 3292,11779 6765,11779 6765,11582 3292,11582 Z"/>
 <path fill="rgb(12,50,44)" stroke="none" d="M 3292,12566 L 3292,12763 11213,12763 11213,12566 3292,12566 Z"/>
 <path fill="rgb(19,148,72)" stroke="none" d="M 3292,954 L 3292,1151 7479,1151 7479,954 3292,954 Z"/>
 <path fill="rgb(19,148,72)" stroke="none" d="M 3292,1939 L 3292,2135 6427,2135 6427,1939 3292,1939 Z"/>
 <path fill="rgb(19,148,72)" stroke="none" d="M 3292,2923 L 3292,3120 6064,3120 6064,2923 3292,2923 Z"/>
 <path fill="rgb(19,148,72)" stroke="none" d="M 3292,3907 L 3292,4104 6532,4104 6532,3907 3292,3907 Z"/>
 <path fill="rgb(19,148,72)" stroke="none" d="M 3292,4891 L 3292,5088 6863,5088 6863,4891 3292,4891 Z"/>
 <path fill="rgb(19,148,72)" stroke="none" d="M 3292,5875 L 3292,6072 6713,6072 6713,5875 3292,5875 Z"/>
 <path fill="rgb(19,148,72)" stroke="none" d="M 3292,6859 L 3292,7055 6249,7055 6249,6859 3292,6859 Z"/>
 <path fill="rgb(19,148,72)" stroke="none" d="M 3292,7842 L 3292,8039 6257,8039 6257,7842 3292,7842 Z"/>
 <path fill="rgb(19,148,72)" stroke="none" d="M 3292,8827 L 3292,9023 6180,9023 6180,8827 3292,8827 Z"/>
 <path fill="rgb(19,148,72)" stroke="none" d="M 3292,9811 L 3292,10008 11233,10008 11233,9811 3292,9811 Z"/>
 <path fill="rgb(19,148,72)" stroke="none" d="M 3292,10795 L 3292,10992 5936,10992 5936,10795 3292,10795 Z"/>
 <path fill="rgb(19,148,72)" stroke="none" d="M 3292,11779 L 3292,11976 6757,11976 6757,11779 3292,11779 Z"/>
 <path fill="rgb(19,148,72)" stroke="none" d="M 3292,12763 L 3292,12960 11373,12960 11373,12763 3292,12763 Z"/>
 <text class="SVGTextShape"><tspan class="TextParagraph"><tspan class="TextPosition" x="900" y="879"><tspan font-family="Liberation Sans, sans-serif" font-size="353px" font-weight="400" fill="rgb(0,0,0)" stroke="none" style="white-space: pre">503.bwaves_r</tspan></tspan></tspan></text>
 <text class="SVGTextShape"><tspan class="TextParagraph"><tspan class="TextPosition" x="308" y="1863"><tspan font-family="Liberation Sans, sans-serif" font-size="353px" font-weight="400" fill="rgb(0,0,0)" stroke="none" style="white-space: pre">507.cactuBSSN_r</tspan></tspan></tspan></text>
 <text class="SVGTextShape"><tspan class="TextParagraph"><tspan class="TextPosition" x="1206" y="2847"><tspan font-family="Liberation Sans, sans-serif" font-size="353px" font-weight="400" fill="rgb(0,0,0)" stroke="none" style="white-space: pre">508.namd_r</tspan></tspan></tspan></text>
 <text class="SVGTextShape"><tspan class="TextParagraph"><tspan class="TextPosition" x="1111" y="3831"><tspan font-family="Liberation Sans, sans-serif" font-size="353px" font-weight="400" fill="rgb(0,0,0)" stroke="none" style="white-space: pre">510.parest_r</tspan></tspan></tspan></text>
 <text class="SVGTextShape"><tspan class="TextParagraph"><tspan class="TextPosition" x="1034" y="4815"><tspan font-family="Liberation Sans, sans-serif" font-size="353px" font-weight="400" fill="rgb(0,0,0)" stroke="none" style="white-space: pre">511.povray_r</tspan></tspan></tspan></text>
 <text class="SVGTextShape"><tspan class="TextParagraph"><tspan class="TextPosition" x="1512" y="5799"><tspan font-family="Liberation Sans, sans-serif" font-size="353px" font-weight="400" fill="rgb(0,0,0)" stroke="none" style="white-space: pre">519.lbm_r</tspan></tspan></tspan></text>
 <text class="SVGTextShape"><tspan class="TextParagraph"><tspan class="TextPosition" x="1608" y="6783"><tspan font-family="Liberation Sans, sans-serif" font-size="353px" font-weight="400" fill="rgb(0,0,0)" stroke="none" style="white-space: pre">521.wrf_r</tspan></tspan></tspan></text>
 <text class="SVGTextShape"><tspan class="TextParagraph"><tspan class="TextPosition" x="919" y="7767"><tspan font-family="Liberation Sans, sans-serif" font-size="353px" font-weight="400" fill="rgb(0,0,0)" stroke="none" style="white-space: pre">526.blender_r</tspan></tspan></tspan></text>
 <text class="SVGTextShape"><tspan class="TextParagraph"><tspan class="TextPosition" x="1226" y="8751"><tspan font-family="Liberation Sans, sans-serif" font-size="353px" font-weight="400" fill="rgb(0,0,0)" stroke="none" style="white-space: pre">527.cam4_r</tspan></tspan></tspan></text>
 <text class="SVGTextShape"><tspan class="TextParagraph"><tspan class="TextPosition" x="901" y="9735"><tspan font-family="Liberation Sans, sans-serif" font-size="353px" font-weight="400" fill="rgb(0,0,0)" stroke="none" style="white-space: pre">538.imagick_r</tspan></tspan></tspan></text>
 <text class="SVGTextShape"><tspan class="TextParagraph"><tspan class="TextPosition" x="1493" y="10719"><tspan font-family="Liberation Sans, sans-serif" font-size="353px" font-weight="400" fill="rgb(0,0,0)" stroke="none" style="white-space: pre">544.nab_r</tspan></tspan></tspan></text>
 <text class="SVGTextShape"><tspan class="TextParagraph"><tspan class="TextPosition" x="671" y="11703"><tspan font-family="Liberation Sans, sans-serif" font-size="353px" font-weight="400" fill="rgb(0,0,0)" stroke="none" style="white-space: pre">549.fotonik3d_r</tspan></tspan></tspan></text>
 <text class="SVGTextShape"><tspan class="TextParagraph"><tspan class="TextPosition" x="1302" y="12687"><tspan font-family="Liberation Sans, sans-serif" font-size="353px" font-weight="400" fill="rgb(0,0,0)" stroke="none" style="white-space: pre">554.roms_r</tspan></tspan></tspan></text>
 <text class="SVGTextShape"><tspan class="TextParagraph"><tspan class="TextPosition" x="3044" y="13627"><tspan font-family="Liberation Sans, sans-serif" font-size="353px" font-weight="400" fill="rgb(0,0,0)" stroke="none" style="white-space: pre">0%</tspan></tspan></tspan></text>
 <text class="SVGTextShape"><tspan class="TextParagraph"><tspan class="TextPosition" x="4519" y="13627"><tspan font-family="Liberation Sans, sans-serif" font-size="353px" font-weight="400" fill="rgb(0,0,0)" stroke="none" style="white-space: pre">50%</tspan></tspan></tspan></text>
 <text class="SVGTextShape"><tspan class="TextParagraph"><tspan class="TextPosition" x="5993" y="13627"><tspan font-family="Liberation Sans, sans-serif" font-size="353px" font-weight="400" fill="rgb(0,0,0)" stroke="none" style="white-space: pre">100%</tspan></tspan></tspan></text>
 <text class="SVGTextShape"><tspan class="TextParagraph"><tspan class="TextPosition" x="7563" y="13627"><tspan font-family="Liberation Sans, sans-serif" font-size="353px" font-weight="400" fill="rgb(0,0,0)" stroke="none" style="white-space: pre">150%</tspan></tspan></tspan></text>
 <text class="SVGTextShape"><tspan class="TextParagraph"><tspan class="TextPosition" x="9132" y="13627"><tspan font-family="Liberation Sans, sans-serif" font-size="353px" font-weight="400" fill="rgb(0,0,0)" stroke="none" style="white-space: pre">200%</tspan></tspan></tspan></text>
 <text class="SVGTextShape"><tspan class="TextParagraph"><tspan class="TextPosition" x="10702" y="13627"><tspan font-family="Liberation Sans, sans-serif" font-size="353px" font-weight="400" fill="rgb(0,0,0)" stroke="none" style="white-space: pre">250%</tspan></tspan></tspan></text>
 <text class="SVGTextShape"><tspan class="TextParagraph"><tspan class="TextPosition" x="12273" y="13627"><tspan font-family="Liberation Sans, sans-serif" font-size="353px" font-weight="400" fill="rgb(0,0,0)" stroke="none" style="white-space: pre">300%</tspan></tspan></tspan></text>
 <path fill="rgb(222,0,128)" stroke="none" d="M 13696,7838 L 13590,7838 13590,7627 13801,7627 13801,7838 13696,7838 Z"/>
 <path fill="rgb(112,23,108)" stroke="none" d="M 13696,7340 L 13590,7340 13590,7129 13801,7129 13801,7340 13696,7340 Z"/>
 <path fill="rgb(12,50,44)" stroke="none" d="M 13696,6843 L 13590,6843 13590,6632 13801,6632 13801,6843 13696,6843 Z"/>
 <path fill="rgb(19,148,72)" stroke="none" d="M 13696,6345 L 13590,6345 13590,6134 13801,6134 13801,6345 13696,6345 Z"/>
 <text class="SVGTextShape"><tspan class="TextParagraph"><tspan class="TextPosition" x="13901" y="6359"><tspan font-family="Liberation Sans, sans-serif" font-size="353px" font-weight="400" fill="rgb(0,0,0)" stroke="none" style="white-space: pre">GCC (LTO)</tspan></tspan></tspan></text>
 <text class="SVGTextShape"><tspan class="TextParagraph"><tspan class="TextPosition" x="13901" y="6857"><tspan font-family="Liberation Sans, sans-serif" font-size="353px" font-weight="400" fill="rgb(0,0,0)" stroke="none" style="white-space: pre">GCC</tspan></tspan></tspan></text>
 <text class="SVGTextShape"><tspan class="TextParagraph"><tspan class="TextPosition" x="13901" y="7354"><tspan font-family="Liberation Sans, sans-serif" font-size="353px" font-weight="400" fill="rgb(0,0,0)" stroke="none" style="white-space: pre">ICX (LTO)</tspan></tspan></tspan></text>
 <text class="SVGTextShape"><tspan class="TextParagraph"><tspan class="TextPosition" x="13901" y="7852"><tspan font-family="Liberation Sans, sans-serif" font-size="353px" font-weight="400" fill="rgb(0,0,0)" stroke="none" style="white-space: pre">ICX</tspan></tspan></tspan></text>
</svg>