<?xml version="1.0" encoding="UTF-8"?>
<!DOCTYPE svg PUBLIC "-//W3C//DTD SVG 1.1//EN" "http://www.w3.org/Graphics/SVG/1.1/DTD/svg11.dtd">
<svg width="160mm" height="92mm" viewBox="0 0 16000 9200" version="1.1" xmlns="http://www.w3.org/2000/svg" xmlns:xlink="http://www.w3.org/1999/xlink" stroke-width="28.222" stroke-linejoin="round" xml:space="preserve">
 <path fill="rgb(255,255,255)" stroke="none" d="M 7987,9187 L -13,9187 -13,-13 15986,-13 15986,9187 7987,9187 Z"/>
 <path fill="none" stroke="rgb(179,179,179)" stroke-linejoin="round" d="M 8012,8356 L 3310,8356 3310,171 12715,171 12715,8356 8012,8356 Z"/>
 <path fill="none" stroke="rgb(179,179,179)" stroke-linejoin="round" d="M 3310,170 L 3310,8355"/>
 <path fill="none" stroke="rgb(179,179,179)" stroke-linejoin="round" d="M 4416,170 L 4416,8355"/>
 <path fill="none" stroke="rgb(179,179,179)" stroke-linejoin="round" d="M 5523,170 L 5523,8355"/>
 <path fill="none" stroke="rgb(179,179,179)" stroke-linejoin="round" d="M 6629,170 L 6629,8355"/>
 <path fill="none" stroke="rgb(179,179,179)" stroke-linejoin="round" d="M 7736,170 L 7736,8355"/>
 <path fill="none" stroke="rgb(179,179,179)" stroke-linejoin="round" d="M 8841,170 L 8841,8355"/>
 <path fill="none" stroke="rgb(179,179,179)" stroke-linejoin="round" d="M 9948,170 L 9948,8355"/>
 <path fill="none" stroke="rgb(179,179,179)" stroke-linejoin="round" d="M 11055,170 L 11055,8355"/>
 <path fill="none" stroke="rgb(179,179,179)" stroke-linejoin="round" d="M 12161,170 L 12161,8355"/>
 <path fill="none" stroke="rgb(179,179,179)" stroke-linejoin="round" d="M 3160,170 L 3310,170"/>
 <path fill="none" stroke="rgb(179,179,179)" stroke-linejoin="round" d="M 3160,170 L 3310,170"/>
 <path fill="none" stroke="rgb(179,179,179)" stroke-linejoin="round" d="M 3160,1193 L 3310,1193"/>
 <path fill="none" stroke="rgb(179,179,179)" stroke-linejoin="round" d="M 3160,1193 L 3310,1193"/>
 <path fill="none" stroke="rgb(179,179,179)" stroke-linejoin="round" d="M 3160,2216 L 3310,2216"/>
 <path fill="none" stroke="rgb(179,179,179)" stroke-linejoin="round" d="M 3160,2216 L 3310,2216"/>
 <path fill="none" stroke="rgb(179,179,179)" stroke-linejoin="round" d="M 3160,3239 L 3310,3239"/>
 <path fill="none" stroke="rgb(179,179,179)" stroke-linejoin="round" d="M 3160,3239 L 3310,3239"/>
 <path fill="none" stroke="rgb(179,179,179)" stroke-linejoin="round" d="M 3160,4263 L 3310,4263"/>
 <path fill="none" stroke="rgb(179,179,179)" stroke-linejoin="round" d="M 3160,4263 L 3310,4263"/>
 <path fill="none" stroke="rgb(179,179,179)" stroke-linejoin="round" d="M 3160,5285 L 3310,5285"/>
 <path fill="none" stroke="rgb(179,179,179)" stroke-linejoin="round" d="M 3160,5285 L 3310,5285"/>
 <path fill="none" stroke="rgb(179,179,179)" stroke-linejoin="round" d="M 3160,6308 L 3310,6308"/>
 <path fill="none" stroke="rgb(179,179,179)" stroke-linejoin="round" d="M 3160,6308 L 3310,6308"/>
 <path fill="none" stroke="rgb(179,179,179)" stroke-linejoin="round" d="M 3160,7331 L 3310,7331"/>
 <path fill="none" stroke="rgb(179,179,179)" stroke-linejoin="round" d="M 3160,7331 L 3310,7331"/>
 <path fill="none" stroke="rgb(179,179,179)" stroke-linejoin="round" d="M 3160,8355 L 3310,8355"/>
 <path fill="none" stroke="rgb(179,179,179)" stroke-linejoin="round" d="M 3160,8355 L 3310,8355"/>
 <path fill="none" stroke="rgb(179,179,179)" stroke-linejoin="round" d="M 3310,8355 L 3310,170"/>
 <path fill="none" stroke="rgb(179,179,179)" stroke-linejoin="round" d="M 3310,8505 L 3310,8355"/>
 <path fill="none" stroke="rgb(179,179,179)" stroke-linejoin="round" d="M 3310,20 L 3310,170"/>
 <path fill="none" stroke="rgb(179,179,179)" stroke-linejoin="round" d="M 4416,8505 L 4416,8355"/>
 <path fill="none" stroke="rgb(179,179,179)" stroke-linejoin="round" d="M 4416,20 L 4416,170"/>
 <path fill="none" stroke="rgb(179,179,179)" stroke-linejoin="round" d="M 5523,8505 L 5523,8355"/>
 <path fill="none" stroke="rgb(179,179,179)" stroke-linejoin="round" d="M 5523,20 L 5523,170"/>
 <path fill="none" stroke="rgb(179,179,179)" stroke-linejoin="round" d="M 6629,8505 L 6629,8355"/>
 <path fill="none" stroke="rgb(179,179,179)" stroke-linejoin="round" d="M 6629,20 L 6629,170"/>
 <path fill="none" stroke="rgb(179,179,179)" stroke-linejoin="round" d="M 7736,8505 L 7736,8355"/>
 <path fill="none" stroke="rgb(179,179,179)" stroke-linejoin="round" d="M 7736,20 L 7736,170"/>
 <path fill="none" stroke="rgb(179,179,179)" stroke-linejoin="round" d="M 8841,8505 L 8841,8355"/>
 <path fill="none" stroke="rgb(179,179,179)" stroke-linejoin="round" d="M 8841,20 L 8841,170"/>
 <path fill="none" stroke="rgb(179,179,179)" stroke-linejoin="round" d="M 9948,8505 L 9948,8355"/>
 <path fill="none" stroke="rgb(179,179,179)" stroke-linejoin="round" d="M 9948,20 L 9948,170"/>
 <path fill="none" stroke="rgb(179,179,179)" stroke-linejoin="round" d="M 11055,8505 L 11055,8355"/>
 <path fill="none" stroke="rgb(179,179,179)" stroke-linejoin="round" d="M 11055,20 L 11055,170"/>
 <path fill="none" stroke="rgb(179,179,179)" stroke-linejoin="round" d="M 12161,8505 L 12161,8355"/>
 <path fill="none" stroke="rgb(179,179,179)" stroke-linejoin="round" d="M 12161,20 L 12161,170"/>
 <path fill="none" stroke="rgb(179,179,179)" stroke-linejoin="round" d="M 3310,170 L 12715,170"/>
 <path fill="rgb(220,53,69)" stroke="none" d="M 3310,272 L 3310,476 8841,476 8841,272 3310,272 Z"/>
 <path fill="rgb(220,53,69)" stroke="none" d="M 3310,1295 L 3310,1500 8841,1500 8841,1295 3310,1295 Z"/>
 <path fill="rgb(220,53,69)" stroke="none" d="M 3310,2318 L 3310,2523 8841,2523 8841,2318 3310,2318 Z"/>
 <path fill="rgb(220,53,69)" stroke="none" d="M 3310,3342 L 3310,3546 8841,3546 8841,3342 3310,3342 Z"/>
 <path fill="rgb(220,53,69)" stroke="none" d="M 3310,4365 L 3310,4569 8841,4569 8841,4365 3310,4365 Z"/>
 <path fill="rgb(220,53,69)" stroke="none" d="M 3310,5387 L 3310,5592 8841,5592 8841,5387 3310,5387 Z"/>
 <path fill="rgb(220,53,69)" stroke="none" d="M 3310,6410 L 3310,6615 8841,6615 8841,6410 3310,6410 Z"/>
 <path fill="rgb(220,53,69)" stroke="none" d="M 3310,7434 L 3310,7638 8841,7638 8841,7434 3310,7434 Z"/>
 <path fill="rgb(255,158,2)" stroke="none" d="M 3310,476 L 3310,681 9839,681 9839,476 3310,476 Z"/>
 <path fill="rgb(255,158,2)" stroke="none" d="M 3310,1500 L 3310,1704 8991,1704 8991,1500 3310,1500 Z"/>
 <path fill="rgb(255,158,2)" stroke="none" d="M 3310,2523 L 3310,2728 9079,2728 9079,2523 3310,2523 Z"/>
 <path fill="rgb(255,158,2)" stroke="none" d="M 3310,3546 L 3310,3751 9154,3751 9154,3546 3310,3546 Z"/>
 <path fill="rgb(255,158,2)" stroke="none" d="M 3310,4569 L 3310,4773 8413,4773 8413,4569 3310,4569 Z"/>
 <path fill="rgb(255,158,2)" stroke="none" d="M 3310,5592 L 3310,5796 8921,5796 8921,5592 3310,5592 Z"/>
 <path fill="rgb(255,158,2)" stroke="none" d="M 3310,6615 L 3310,6820 8799,6820 8799,6615 3310,6615 Z"/>
 <path fill="rgb(255,158,2)" stroke="none" d="M 3310,7638 L 3310,7843 8904,7843 8904,7638 3310,7638 Z"/>
 <path fill="rgb(12,50,44)" stroke="none" d="M 3310,681 L 3310,886 9781,886 9781,681 3310,681 Z"/>
 <path fill="rgb(12,50,44)" stroke="none" d="M 3310,1704 L 3310,1909 8684,1909 8684,1704 3310,1704 Z"/>
 <path fill="rgb(12,50,44)" stroke="none" d="M 3310,2728 L 3310,2932 12277,2932 12277,2728 3310,2728 Z"/>
 <path fill="rgb(12,50,44)" stroke="none" d="M 3310,3751 L 3310,3956 8602,3956 8602,3751 3310,3751 Z"/>
 <path fill="rgb(12,50,44)" stroke="none" d="M 3310,4773 L 3310,4978 10262,4978 10262,4773 3310,4773 Z"/>
 <path fill="rgb(12,50,44)" stroke="none" d="M 3310,5796 L 3310,6001 9447,6001 9447,5796 3310,5796 Z"/>
 <path fill="rgb(12,50,44)" stroke="none" d="M 3310,6820 L 3310,7024 10619,7024 10619,6820 3310,6820 Z"/>
 <path fill="rgb(12,50,44)" stroke="none" d="M 3310,7843 L 3310,8048 11242,8048 11242,7843 3310,7843 Z"/>
 <path fill="rgb(19,148,72)" stroke="none" d="M 3310,886 L 3310,1090 9940,1090 9940,886 3310,886 Z"/>
 <path fill="rgb(19,148,72)" stroke="none" d="M 3310,1909 L 3310,2114 8640,2114 8640,1909 3310,1909 Z"/>
 <path fill="rgb(19,148,72)" stroke="none" d="M 3310,2932 L 3310,3137 12631,3137 12631,2932 3310,2932 Z"/>
 <path fill="rgb(19,148,72)" stroke="none" d="M 3310,3956 L 3310,4160 9246,4160 9246,3956 3310,3956 Z"/>
 <path fill="rgb(19,148,72)" stroke="none" d="M 3310,4978 L 3310,5182 10371,5182 10371,4978 3310,4978 Z"/>
 <path fill="rgb(19,148,72)" stroke="none" d="M 3310,6001 L 3310,6206 9653,6206 9653,6001 3310,6001 Z"/>
 <path fill="rgb(19,148,72)" stroke="none" d="M 3310,7024 L 3310,7229 10297,7229 10297,7024 3310,7024 Z"/>
 <path fill="rgb(19,148,72)" stroke="none" d="M 3310,8048 L 3310,8252 11332,8252 11332,8048 3310,8048 Z"/>
 <text class="SVGTextShape"><tspan class="TextParagraph" font-family="Liberation Sans, sans-serif" font-size="353px" font-weight="400"><tspan class="TextPosition" x="943" y="801"><tspan fill="rgb(0,0,0)" stroke="none" style="white-space: pre">503.bwaves_r</tspan></tspan></tspan></text>
 <text class="SVGTextShape"><tspan class="TextParagraph" font-family="Liberation Sans, sans-serif" font-size="353px" font-weight="400"><tspan class="TextPosition" x="308" y="1824"><tspan fill="rgb(0,0,0)" stroke="none" style="white-space: pre">507.cactuBSSN_r</tspan></tspan></tspan></text>
 <text class="SVGTextShape"><tspan class="TextParagraph" font-family="Liberation Sans, sans-serif" font-size="353px" font-weight="400"><tspan class="TextPosition" x="1155" y="2848"><tspan fill="rgb(0,0,0)" stroke="none" style="white-space: pre">510.parest_r</tspan></tspan></tspan></text>
 <text class="SVGTextShape"><tspan class="TextParagraph" font-family="Liberation Sans, sans-serif" font-size="353px" font-weight="400"><tspan class="TextPosition" x="1076" y="3871"><tspan fill="rgb(0,0,0)" stroke="none" style="white-space: pre">511.povray_r</tspan></tspan></tspan></text>
 <text class="SVGTextShape"><tspan class="TextParagraph" font-family="Liberation Sans, sans-serif" font-size="353px" font-weight="400"><tspan class="TextPosition" x="1658" y="4893"><tspan fill="rgb(0,0,0)" stroke="none" style="white-space: pre">521.wrf_r</tspan></tspan></tspan></text>
 <text class="SVGTextShape"><tspan class="TextParagraph" font-family="Liberation Sans, sans-serif" font-size="353px" font-weight="400"><tspan class="TextPosition" x="1261" y="5916"><tspan fill="rgb(0,0,0)" stroke="none" style="white-space: pre">527.cam4_r</tspan></tspan></tspan></text>
 <text class="SVGTextShape"><tspan class="TextParagraph" font-family="Liberation Sans, sans-serif" font-size="353px" font-weight="400"><tspan class="TextPosition" x="705" y="6940"><tspan fill="rgb(0,0,0)" stroke="none" style="white-space: pre">549.fotonik3d_r</tspan></tspan></tspan></text>
 <text class="SVGTextShape"><tspan class="TextParagraph" font-family="Liberation Sans, sans-serif" font-size="353px" font-weight="400"><tspan class="TextPosition" x="1340" y="7963"><tspan fill="rgb(0,0,0)" stroke="none" style="white-space: pre">554.roms_r</tspan></tspan></tspan></text>
 <text class="SVGTextShape"><tspan class="TextParagraph" font-family="Liberation Sans, sans-serif" font-size="353px" font-weight="400"><tspan class="TextPosition" x="3058" y="8923"><tspan fill="rgb(0,0,0)" stroke="none" style="white-space: pre">0%</tspan></tspan></tspan></text>
 <text class="SVGTextShape"><tspan class="TextParagraph" font-family="Liberation Sans, sans-serif" font-size="353px" font-weight="400"><tspan class="TextPosition" x="4072" y="8923"><tspan fill="rgb(0,0,0)" stroke="none" style="white-space: pre">20%</tspan></tspan></tspan></text>
 <text class="SVGTextShape"><tspan class="TextParagraph" font-family="Liberation Sans, sans-serif" font-size="353px" font-weight="400"><tspan class="TextPosition" x="5179" y="8923"><tspan fill="rgb(0,0,0)" stroke="none" style="white-space: pre">40%</tspan></tspan></tspan></text>
 <text class="SVGTextShape"><tspan class="TextParagraph" font-family="Liberation Sans, sans-serif" font-size="353px" font-weight="400"><tspan class="TextPosition" x="6285" y="8923"><tspan fill="rgb(0,0,0)" stroke="none" style="white-space: pre">60%</tspan></tspan></tspan></text>
 <text class="SVGTextShape"><tspan class="TextParagraph" font-family="Liberation Sans, sans-serif" font-size="353px" font-weight="400"><tspan class="TextPosition" x="7392" y="8923"><tspan fill="rgb(0,0,0)" stroke="none" style="white-space: pre">80%</tspan></tspan></tspan></text>
 <text class="SVGTextShape"><tspan class="TextParagraph" font-family="Liberation Sans, sans-serif" font-size="353px" font-weight="400"><tspan class="TextPosition" x="8404" y="8923"><tspan fill="rgb(0,0,0)" stroke="none" style="white-space: pre">100%</tspan></tspan></tspan></text>
 <text class="SVGTextShape"><tspan class="TextParagraph" font-family="Liberation Sans, sans-serif" font-size="353px" font-weight="400"><tspan class="TextPosition" x="9511" y="8923"><tspan fill="rgb(0,0,0)" stroke="none" style="white-space: pre">120%</tspan></tspan></tspan></text>
 <text class="SVGTextShape"><tspan class="TextParagraph" font-family="Liberation Sans, sans-serif" font-size="353px" font-weight="400"><tspan class="TextPosition" x="10618" y="8923"><tspan fill="rgb(0,0,0)" stroke="none" style="white-space: pre">140%</tspan></tspan></tspan></text>
 <text class="SVGTextShape"><tspan class="TextParagraph" font-family="Liberation Sans, sans-serif" font-size="353px" font-weight="400"><tspan class="TextPosition" x="11724" y="8923"><tspan fill="rgb(0,0,0)" stroke="none" style="white-space: pre">160%</tspan></tspan></tspan></text>
 <path fill="rgb(220,53,69)" stroke="none" d="M 13257,5438 L 13151,5438 13151,5227 13362,5227 13362,5438 13257,5438 Z"/>
 <path fill="rgb(255,158,2)" stroke="none" d="M 13257,4940 L 13151,4940 13151,4729 13362,4729 13362,4940 13257,4940 Z"/>
 <path fill="rgb(12,50,44)" stroke="none" d="M 13257,4443 L 13151,4443 13151,4232 13362,4232 13362,4443 13257,4443 Z"/>
 <path fill="rgb(19,148,72)" stroke="none" d="M 13257,3945 L 13151,3945 13151,3734 13362,3734 13362,3945 13257,3945 Z"/>
 <text class="SVGTextShape"><tspan class="TextParagraph" font-family="Liberation Sans, sans-serif" font-size="353px" font-weight="400"><tspan class="TextPosition" x="13462" y="3959"><tspan fill="rgb(0,0,0)" stroke="none" style="white-space: pre">GCC 11 (LTO)</tspan></tspan></tspan></text>
 <text class="SVGTextShape"><tspan class="TextParagraph" font-family="Liberation Sans, sans-serif" font-size="353px" font-weight="400"><tspan class="TextPosition" x="13462" y="4457"><tspan fill="rgb(0,0,0)" stroke="none" style="white-space: pre">GCC 11</tspan></tspan></tspan></text>
 <text class="SVGTextShape"><tspan class="TextParagraph" font-family="Liberation Sans, sans-serif" font-size="353px" font-weight="400"><tspan class="TextPosition" x="13462" y="4954"><tspan fill="rgb(0,0,0)" stroke="none" style="white-space: pre">GCC 7 (LTO)</tspan></tspan></tspan></text>
 <text class="SVGTextShape"><tspan class="TextParagraph" font-family="Liberation Sans, sans-serif" font-size="353px" font-weight="400"><tspan class="TextPosition" x="13462" y="5452"><tspan fill="rgb(0,0,0)" stroke="none" style="white-space: pre">GCC 7</tspan></tspan></tspan></text>
</svg>