<?xml version="1.0" encoding="UTF-8"?>
<!DOCTYPE svg PUBLIC "-//W3C//DTD SVG 1.1//EN" "http://www.w3.org/Graphics/SVG/1.1/DTD/svg11.dtd">
<svg width="160mm" height="19mm" viewBox="0 0 16000 1900" version="1.1" xmlns="http://www.w3.org/2000/svg" xmlns:xlink="http://www.w3.org/1999/xlink" stroke-width="28.222" stroke-linejoin="round" xml:space="preserve">
 <path fill="rgb(255,255,255)" stroke="none" d="M 7987,1887 L -13,1887 -13,94 15987,94 15987,1887 7987,1887 Z"/>
 <path fill="none" stroke="rgb(179,179,179)" stroke-linejoin="round" d="M 7556,1241 L 2357,1241 2357,130 12754,130 12754,1241 7556,1241 Z"/>
 <path fill="none" stroke="rgb(179,179,179)" stroke-linejoin="round" d="M 2357,129 L 2357,1240"/>
 <path fill="none" stroke="rgb(179,179,179)" stroke-linejoin="round" d="M 3842,129 L 3842,1240"/>
 <path fill="none" stroke="rgb(179,179,179)" stroke-linejoin="round" d="M 5327,129 L 5327,1240"/>
 <path fill="none" stroke="rgb(179,179,179)" stroke-linejoin="round" d="M 6813,129 L 6813,1240"/>
 <path fill="none" stroke="rgb(179,179,179)" stroke-linejoin="round" d="M 8297,129 L 8297,1240"/>
 <path fill="none" stroke="rgb(179,179,179)" stroke-linejoin="round" d="M 9783,129 L 9783,1240"/>
 <path fill="none" stroke="rgb(179,179,179)" stroke-linejoin="round" d="M 11268,129 L 11268,1240"/>
 <path fill="none" stroke="rgb(179,179,179)" stroke-linejoin="round" d="M 12754,129 L 12754,1240"/>
 <path fill="none" stroke="rgb(179,179,179)" stroke-linejoin="round" d="M 2207,129 L 2357,129"/>
 <path fill="none" stroke="rgb(179,179,179)" stroke-linejoin="round" d="M 2207,129 L 2357,129"/>
 <path fill="none" stroke="rgb(179,179,179)" stroke-linejoin="round" d="M 2207,1240 L 2357,1240"/>
 <path fill="none" stroke="rgb(179,179,179)" stroke-linejoin="round" d="M 2207,1240 L 2357,1240"/>
 <path fill="none" stroke="rgb(179,179,179)" stroke-linejoin="round" d="M 2357,1240 L 2357,129"/>
 <path fill="none" stroke="rgb(179,179,179)" stroke-linejoin="round" d="M 2357,1381 L 2357,1240"/>
 <path fill="none" stroke="rgb(179,179,179)" stroke-linejoin="round" d="M 2357,-13 L 2357,129"/>
 <path fill="none" stroke="rgb(179,179,179)" stroke-linejoin="round" d="M 3842,1381 L 3842,1240"/>
 <path fill="none" stroke="rgb(179,179,179)" stroke-linejoin="round" d="M 3842,-13 L 3842,129"/>
 <path fill="none" stroke="rgb(179,179,179)" stroke-linejoin="round" d="M 5327,1381 L 5327,1240"/>
 <path fill="none" stroke="rgb(179,179,179)" stroke-linejoin="round" d="M 5327,-13 L 5327,129"/>
 <path fill="none" stroke="rgb(179,179,179)" stroke-linejoin="round" d="M 6813,1381 L 6813,1240"/>
 <path fill="none" stroke="rgb(179,179,179)" stroke-linejoin="round" d="M 6813,-13 L 6813,129"/>
 <path fill="none" stroke="rgb(179,179,179)" stroke-linejoin="round" d="M 8297,1381 L 8297,1240"/>
 <path fill="none" stroke="rgb(179,179,179)" stroke-linejoin="round" d="M 8297,-13 L 8297,129"/>
 <path fill="none" stroke="rgb(179,179,179)" stroke-linejoin="round" d="M 9783,1381 L 9783,1240"/>
 <path fill="none" stroke="rgb(179,179,179)" stroke-linejoin="round" d="M 9783,-13 L 9783,129"/>
 <path fill="none" stroke="rgb(179,179,179)" stroke-linejoin="round" d="M 11268,1381 L 11268,1240"/>
 <path fill="none" stroke="rgb(179,179,179)" stroke-linejoin="round" d="M 11268,-13 L 11268,129"/>
 <path fill="none" stroke="rgb(179,179,179)" stroke-linejoin="round" d="M 12754,1381 L 12754,1240"/>
 <path fill="none" stroke="rgb(179,179,179)" stroke-linejoin="round" d="M 12754,-13 L 12754,129"/>
 <path fill="none" stroke="rgb(179,179,179)" stroke-linejoin="round" d="M 2357,129 L 12754,129"/>
 <path fill="rgb(220,53,69)" stroke="none" d="M 2357,268 L 2357,545 5327,545 5327,268 2357,268 Z"/>
 <path fill="rgb(12,50,44)" stroke="none" d="M 2357,545 L 2357,823 11446,823 11446,545 2357,545 Z"/>
 <path fill="rgb(19,148,72)" stroke="none" d="M 2357,823 L 2357,1100 11751,1100 11751,823 2357,823 Z"/>
 <text class="SVGTextShape"><tspan class="TextParagraph" font-family="Liberation Sans, sans-serif" font-size="353px" font-weight="400"><tspan class="TextPosition" x="308" y="798"><tspan font-size="333px" fill="rgb(0,0,0)" stroke="none" style="white-space: pre">527.cam4_r</tspan></tspan></tspan></text>
 <text class="SVGTextShape"><tspan class="TextParagraph" font-family="Liberation Sans, sans-serif" font-size="353px" font-weight="400"><tspan class="TextPosition" x="2105" y="1776"><tspan font-size="333px" fill="rgb(0,0,0)" stroke="none" style="white-space: pre">0%</tspan></tspan></tspan></text>
 <text class="SVGTextShape"><tspan class="TextParagraph" font-family="Liberation Sans, sans-serif" font-size="353px" font-weight="400"><tspan class="TextPosition" x="3498" y="1776"><tspan font-size="333px" fill="rgb(0,0,0)" stroke="none" style="white-space: pre">50%</tspan></tspan></tspan></text>
 <text class="SVGTextShape"><tspan class="TextParagraph" font-family="Liberation Sans, sans-serif" font-size="353px" font-weight="400"><tspan class="TextPosition" x="4890" y="1776"><tspan font-size="333px" fill="rgb(0,0,0)" stroke="none" style="white-space: pre">100%</tspan></tspan></tspan></text>
 <text class="SVGTextShape"><tspan class="TextParagraph" font-family="Liberation Sans, sans-serif" font-size="353px" font-weight="400"><tspan class="TextPosition" x="6376" y="1776"><tspan font-size="333px" fill="rgb(0,0,0)" stroke="none" style="white-space: pre">150%</tspan></tspan></tspan></text>
 <text class="SVGTextShape"><tspan class="TextParagraph" font-family="Liberation Sans, sans-serif" font-size="353px" font-weight="400"><tspan class="TextPosition" x="7861" y="1776"><tspan font-size="333px" fill="rgb(0,0,0)" stroke="none" style="white-space: pre">200%</tspan></tspan></tspan></text>
 <text class="SVGTextShape"><tspan class="TextParagraph" font-family="Liberation Sans, sans-serif" font-size="353px" font-weight="400"><tspan class="TextPosition" x="9346" y="1776"><tspan font-size="333px" fill="rgb(0,0,0)" stroke="none" style="white-space: pre">250%</tspan></tspan></tspan></text>
 <text class="SVGTextShape"><tspan class="TextParagraph" font-family="Liberation Sans, sans-serif" font-size="353px" font-weight="400"><tspan class="TextPosition" x="10831" y="1776"><tspan font-size="333px" fill="rgb(0,0,0)" stroke="none" style="white-space: pre">300%</tspan></tspan></tspan></text>
 <text class="SVGTextShape"><tspan class="TextParagraph" font-family="Liberation Sans, sans-serif" font-size="353px" font-weight="400"><tspan class="TextPosition" x="12317" y="1776"><tspan font-size="333px" fill="rgb(0,0,0)" stroke="none" style="white-space: pre">350%</tspan></tspan></tspan></text>
 <path fill="rgb(220,53,69)" stroke="none" d="M 13734,1559 L 13628,1559 13628,1360 13839,1360 13839,1559 13734,1559 Z"/>
 <path fill="rgb(12,50,44)" stroke="none" d="M 13734,1089 L 13628,1089 13628,890 13839,890 13839,1089 13734,1089 Z"/>
 <path fill="rgb(19,148,72)" stroke="none" d="M 13734,619 L 13628,619 13628,420 13839,420 13839,619 13734,619 Z"/>
 <text class="SVGTextShape"><tspan class="TextParagraph" font-family="Liberation Sans, sans-serif" font-size="353px" font-weight="400"><tspan class="TextPosition" x="13939" y="633"><tspan font-size="333px" fill="rgb(0,0,0)" stroke="none" style="white-space: pre">GCC (LTO)</tspan></tspan></tspan></text>
 <text class="SVGTextShape"><tspan class="TextParagraph" font-family="Liberation Sans, sans-serif" font-size="353px" font-weight="400"><tspan class="TextPosition" x="13939" y="1103"><tspan font-size="333px" fill="rgb(0,0,0)" stroke="none" style="white-space: pre">GCC</tspan></tspan></tspan></text>
 <text class="SVGTextShape"><tspan class="TextParagraph" font-family="Liberation Sans, sans-serif" font-size="353px" font-weight="400"><tspan class="TextPosition" x="13939" y="1572"><tspan font-size="333px" fill="rgb(0,0,0)" stroke="none" style="white-space: pre">LLVM 13</tspan></tspan></tspan></text>
</svg>