<?xml version="1.0" encoding="UTF-8"?>
<!DOCTYPE svg PUBLIC "-//W3C//DTD SVG 1.1//EN" "http://www.w3.org/Graphics/SVG/1.1/DTD/svg11.dtd">
<svg width="160mm" height="70mm" viewBox="0 0 16000 7000" version="1.1" xmlns="http://www.w3.org/2000/svg" xmlns:xlink="http://www.w3.org/1999/xlink" stroke-width="28.222" stroke-linejoin="round" xml:space="preserve">
 <path fill="rgb(255,255,255)" stroke="none" d="M 8000,7000 L 0,7000 0,0 16000,0 16000,7000 8000,7000 Z"/>
 <path fill="none" stroke="rgb(179,179,179)" stroke-linejoin="round" d="M 7087,6213 L 1444,6213 1444,340 12729,340 12729,6213 7087,6213 Z"/>
 <path fill="none" stroke="rgb(179,179,179)" stroke-linejoin="round" d="M 12729,6212 L 1444,6212"/>
 <path fill="none" stroke="rgb(179,179,179)" stroke-linejoin="round" d="M 12729,5037 L 1444,5037"/>
 <path fill="none" stroke="rgb(179,179,179)" stroke-linejoin="round" d="M 12729,3862 L 1444,3862"/>
 <path fill="none" stroke="rgb(179,179,179)" stroke-linejoin="round" d="M 12729,2688 L 1444,2688"/>
 <path fill="none" stroke="rgb(179,179,179)" stroke-linejoin="round" d="M 12729,1513 L 1444,1513"/>
 <path fill="none" stroke="rgb(179,179,179)" stroke-linejoin="round" d="M 12729,339 L 1444,339"/>
 <path fill="none" stroke="rgb(179,179,179)" stroke-linejoin="round" d="M 1444,6362 L 1444,6212"/>
 <path fill="none" stroke="rgb(179,179,179)" stroke-linejoin="round" d="M 1444,6362 L 1444,6212"/>
 <path fill="none" stroke="rgb(179,179,179)" stroke-linejoin="round" d="M 12729,6362 L 12729,6212"/>
 <path fill="none" stroke="rgb(179,179,179)" stroke-linejoin="round" d="M 12729,6362 L 12729,6212"/>
 <path fill="none" stroke="rgb(179,179,179)" stroke-linejoin="round" d="M 1444,6212 L 12729,6212"/>
 <path fill="none" stroke="rgb(179,179,179)" stroke-linejoin="round" d="M 1294,6212 L 1444,6212"/>
 <path fill="none" stroke="rgb(179,179,179)" stroke-linejoin="round" d="M 1294,6212 L 1444,6212"/>
 <path fill="none" stroke="rgb(179,179,179)" stroke-linejoin="round" d="M 1294,5037 L 1444,5037"/>
 <path fill="none" stroke="rgb(179,179,179)" stroke-linejoin="round" d="M 1294,5037 L 1444,5037"/>
 <path fill="none" stroke="rgb(179,179,179)" stroke-linejoin="round" d="M 1294,3862 L 1444,3862"/>
 <path fill="none" stroke="rgb(179,179,179)" stroke-linejoin="round" d="M 1294,3862 L 1444,3862"/>
 <path fill="none" stroke="rgb(179,179,179)" stroke-linejoin="round" d="M 1294,2688 L 1444,2688"/>
 <path fill="none" stroke="rgb(179,179,179)" stroke-linejoin="round" d="M 1294,2688 L 1444,2688"/>
 <path fill="none" stroke="rgb(179,179,179)" stroke-linejoin="round" d="M 1294,1513 L 1444,1513"/>
 <path fill="none" stroke="rgb(179,179,179)" stroke-linejoin="round" d="M 1294,1513 L 1444,1513"/>
 <path fill="none" stroke="rgb(179,179,179)" stroke-linejoin="round" d="M 1294,339 L 1444,339"/>
 <path fill="none" stroke="rgb(179,179,179)" stroke-linejoin="round" d="M 1294,339 L 1444,339"/>
 <path fill="none" stroke="rgb(179,179,179)" stroke-linejoin="round" d="M 1444,6212 L 1444,339"/>
 <path fill="rgb(220,53,69)" stroke="none" d="M 2572,6212 L 4829,6212 4829,3862 2572,3862 2572,6212 Z"/>
 <path fill="rgb(255,158,2)" stroke="none" d="M 4829,6212 L 7087,6212 7087,3263 4829,3263 4829,6212 Z"/>
 <path fill="rgb(19,148,72)" stroke="none" d="M 7087,6212 L 9343,6212 9343,3205 7087,3205 7087,6212 Z"/>
 <path fill="rgb(12,50,44)" stroke="none" d="M 9343,6212 L 11600,6212 11600,2462 9343,2462 9343,6212 Z"/>
 <text class="TextShape"><tspan class="TextParagraph" font-family="Liberation Sans, sans-serif" font-size="353px" font-weight="400"><tspan class="TextPosition" x="5817" y="6780"><tspan fill="rgb(0,0,0)" stroke="none">Geometric mean</tspan></tspan></tspan></text>
 <text class="TextShape"><tspan class="TextParagraph" font-family="Liberation Sans, sans-serif" font-size="353px" font-weight="400"><tspan class="TextPosition" x="506" y="6333"><tspan fill="rgb(0,0,0)" stroke="none">80%</tspan></tspan></tspan></text>
 <text class="TextShape"><tspan class="TextParagraph" font-family="Liberation Sans, sans-serif" font-size="353px" font-weight="400"><tspan class="TextPosition" x="506" y="5158"><tspan fill="rgb(0,0,0)" stroke="none">90%</tspan></tspan></tspan></text>
 <text class="TextShape"><tspan class="TextParagraph" font-family="Liberation Sans, sans-serif" font-size="353px" font-weight="400"><tspan class="TextPosition" x="321" y="3983"><tspan fill="rgb(0,0,0)" stroke="none">100%</tspan></tspan></tspan></text>
 <text class="TextShape"><tspan class="TextParagraph" font-family="Liberation Sans, sans-serif" font-size="353px" font-weight="400"><tspan class="TextPosition" x="321" y="2808"><tspan fill="rgb(0,0,0)" stroke="none">110%</tspan></tspan></tspan></text>
 <text class="TextShape"><tspan class="TextParagraph" font-family="Liberation Sans, sans-serif" font-size="353px" font-weight="400"><tspan class="TextPosition" x="321" y="1633"><tspan fill="rgb(0,0,0)" stroke="none">120%</tspan></tspan></tspan></text>
 <text class="TextShape"><tspan class="TextParagraph" font-family="Liberation Sans, sans-serif" font-size="353px" font-weight="400"><tspan class="TextPosition" x="321" y="459"><tspan fill="rgb(0,0,0)" stroke="none">130%</tspan></tspan></tspan></text>
 <path fill="rgb(220,53,69)" stroke="none" d="M 13271,2858 L 13165,2858 13165,2647 13376,2647 13376,2858 13271,2858 Z"/>
 <path fill="rgb(255,158,2)" stroke="none" d="M 13271,3356 L 13165,3356 13165,3145 13376,3145 13376,3356 13271,3356 Z"/>
 <path fill="rgb(19,148,72)" stroke="none" d="M 13271,3853 L 13165,3853 13165,3642 13376,3642 13376,3853 13271,3853 Z"/>
 <path fill="rgb(12,50,44)" stroke="none" d="M 13271,4351 L 13165,4351 13165,4140 13376,4140 13376,4351 13271,4351 Z"/>
 <text class="TextShape"><tspan class="TextParagraph" font-family="Liberation Sans, sans-serif" font-size="353px" font-weight="400"><tspan class="TextPosition" x="13476" y="2872"><tspan fill="rgb(0,0,0)" stroke="none">GCC 7</tspan></tspan></tspan></text>
 <text class="TextShape"><tspan class="TextParagraph" font-family="Liberation Sans, sans-serif" font-size="353px" font-weight="400"><tspan class="TextPosition" x="13476" y="3370"><tspan fill="rgb(0,0,0)" stroke="none">GCC 7 (LTO)</tspan></tspan></tspan></text>
 <text class="TextShape"><tspan class="TextParagraph" font-family="Liberation Sans, sans-serif" font-size="353px" font-weight="400"><tspan class="TextPosition" x="13476" y="3867"><tspan fill="rgb(0,0,0)" stroke="none">GCC 10</tspan></tspan></tspan></text>
 <text class="TextShape"><tspan class="TextParagraph" font-family="Liberation Sans, sans-serif" font-size="353px" font-weight="400"><tspan class="TextPosition" x="13476" y="4365"><tspan fill="rgb(0,0,0)" stroke="none">GCC 10 (LTO)</tspan></tspan></tspan></text>
</svg>