<?xml version="1.0" encoding="UTF-8"?>
<!DOCTYPE svg PUBLIC "-//W3C//DTD SVG 1.1//EN" "http://www.w3.org/Graphics/SVG/1.1/DTD/svg11.dtd">
<svg width="160mm" height="35mm" viewBox="0 0 16000 3500" version="1.1" xmlns="http://www.w3.org/2000/svg" xmlns:xlink="http://www.w3.org/1999/xlink" stroke-width="28.222" stroke-linejoin="round" xml:space="preserve">
 <path fill="rgb(255,255,255)" stroke="none" d="M 8000,3460 L 0,3460 0,0 16000,0 16000,3460 8000,3460 Z"/>
 <path fill="none" stroke="rgb(179,179,179)" stroke-linejoin="round" d="M 8092,2744 L 758,2744 758,1350 15427,1350 15427,2744 8092,2744 Z"/>
 <path fill="none" stroke="rgb(179,179,179)" stroke-linejoin="round" d="M 15427,1348 L 15427,2743"/>
 <path fill="none" stroke="rgb(179,179,179)" stroke-linejoin="round" d="M 12982,1348 L 12982,2743"/>
 <path fill="none" stroke="rgb(179,179,179)" stroke-linejoin="round" d="M 10537,1348 L 10537,2743"/>
 <path fill="none" stroke="rgb(179,179,179)" stroke-linejoin="round" d="M 8091,1348 L 8091,2743"/>
 <path fill="none" stroke="rgb(179,179,179)" stroke-linejoin="round" d="M 5647,1348 L 5647,2743"/>
 <path fill="none" stroke="rgb(179,179,179)" stroke-linejoin="round" d="M 3202,1348 L 3202,2743"/>
 <path fill="none" stroke="rgb(179,179,179)" stroke-linejoin="round" d="M 757,1348 L 757,2743"/>
 <path fill="none" stroke="rgb(179,179,179)" stroke-linejoin="round" d="M 15577,2743 L 15427,2743"/>
 <path fill="none" stroke="rgb(179,179,179)" stroke-linejoin="round" d="M 15577,2743 L 15427,2743"/>
 <path fill="none" stroke="rgb(179,179,179)" stroke-linejoin="round" d="M 15577,1348 L 15427,1348"/>
 <path fill="none" stroke="rgb(179,179,179)" stroke-linejoin="round" d="M 15577,1348 L 15427,1348"/>
 <path fill="none" stroke="rgb(179,179,179)" stroke-linejoin="round" d="M 15427,2743 L 15427,1348"/>
 <path fill="none" stroke="rgb(179,179,179)" stroke-linejoin="round" d="M 15427,2893 L 15427,2743"/>
 <path fill="none" stroke="rgb(179,179,179)" stroke-linejoin="round" d="M 15427,2893 L 15427,2743"/>
 <path fill="none" stroke="rgb(179,179,179)" stroke-linejoin="round" d="M 12982,2893 L 12982,2743"/>
 <path fill="none" stroke="rgb(179,179,179)" stroke-linejoin="round" d="M 12982,2893 L 12982,2743"/>
 <path fill="none" stroke="rgb(179,179,179)" stroke-linejoin="round" d="M 10536,2893 L 10536,2743"/>
 <path fill="none" stroke="rgb(179,179,179)" stroke-linejoin="round" d="M 10536,2893 L 10536,2743"/>
 <path fill="none" stroke="rgb(179,179,179)" stroke-linejoin="round" d="M 8091,2893 L 8091,2743"/>
 <path fill="none" stroke="rgb(179,179,179)" stroke-linejoin="round" d="M 8091,2893 L 8091,2743"/>
 <path fill="none" stroke="rgb(179,179,179)" stroke-linejoin="round" d="M 5647,2893 L 5647,2743"/>
 <path fill="none" stroke="rgb(179,179,179)" stroke-linejoin="round" d="M 5647,2893 L 5647,2743"/>
 <path fill="none" stroke="rgb(179,179,179)" stroke-linejoin="round" d="M 3202,2893 L 3202,2743"/>
 <path fill="none" stroke="rgb(179,179,179)" stroke-linejoin="round" d="M 3202,2893 L 3202,2743"/>
 <path fill="none" stroke="rgb(179,179,179)" stroke-linejoin="round" d="M 757,2893 L 757,2743"/>
 <path fill="none" stroke="rgb(179,179,179)" stroke-linejoin="round" d="M 757,2893 L 757,2743"/>
 <path fill="none" stroke="rgb(179,179,179)" stroke-linejoin="round" d="M 757,2743 L 15427,2743"/>
 <path fill="rgb(0,138,207)" stroke="none" d="M 15427,2568 L 15427,2219 5810,2219 5810,2568 15427,2568 Z"/>
 <path fill="rgb(220,53,69)" stroke="none" d="M 15427,2219 L 15427,1871 4738,1871 4738,2219 15427,2219 Z"/>
 <path fill="rgb(126,0,33)" stroke="none" d="M 15427,1871 L 15427,1523 3202,1523 3202,1871 15427,1871 Z"/>
 <text class="TextShape"><tspan class="TextParagraph" font-family="Liberation Sans, sans-serif" font-size="353px" font-weight="400"><tspan class="TextPosition" x="15176" y="3311"><tspan fill="rgb(0,0,0)" stroke="none">0%</tspan></tspan></tspan></text>
 <text class="TextShape"><tspan class="TextParagraph" font-family="Liberation Sans, sans-serif" font-size="353px" font-weight="400"><tspan class="TextPosition" x="12639" y="3311"><tspan fill="rgb(0,0,0)" stroke="none">20%</tspan></tspan></tspan></text>
 <text class="TextShape"><tspan class="TextParagraph" font-family="Liberation Sans, sans-serif" font-size="353px" font-weight="400"><tspan class="TextPosition" x="10193" y="3311"><tspan fill="rgb(0,0,0)" stroke="none">40%</tspan></tspan></tspan></text>
 <text class="TextShape"><tspan class="TextParagraph" font-family="Liberation Sans, sans-serif" font-size="353px" font-weight="400"><tspan class="TextPosition" x="7748" y="3311"><tspan fill="rgb(0,0,0)" stroke="none">60%</tspan></tspan></tspan></text>
 <text class="TextShape"><tspan class="TextParagraph" font-family="Liberation Sans, sans-serif" font-size="353px" font-weight="400"><tspan class="TextPosition" x="5303" y="3311"><tspan fill="rgb(0,0,0)" stroke="none">80%</tspan></tspan></tspan></text>
 <text class="TextShape"><tspan class="TextParagraph" font-family="Liberation Sans, sans-serif" font-size="353px" font-weight="400"><tspan class="TextPosition" x="2765" y="3311"><tspan fill="rgb(0,0,0)" stroke="none">100%</tspan></tspan></tspan></text>
 <text class="TextShape"><tspan class="TextParagraph" font-family="Liberation Sans, sans-serif" font-size="353px" font-weight="400"><tspan class="TextPosition" x="320" y="3311"><tspan fill="rgb(0,0,0)" stroke="none">120%</tspan></tspan></tspan></text>
 <path fill="rgb(0,138,207)" stroke="none" d="M 2993,1087 L 2888,1087 2888,876 3099,876 3099,1087 2993,1087 Z"/>
 <path fill="rgb(220,53,69)" stroke="none" d="M 9147,589 L 9041,589 9041,378 9252,378 9252,589 9147,589 Z"/>
 <path fill="rgb(126,0,33)" stroke="none" d="M 2993,589 L 2888,589 2888,378 3099,378 3099,589 2993,589 Z"/>
 <text class="TextShape"><tspan class="TextParagraph" font-family="Liberation Sans, sans-serif" font-size="353px" font-weight="400"><tspan class="TextPosition" x="3199" y="603"><tspan fill="rgb(0,0,0)" stroke="none">Clang -O3</tspan></tspan></tspan></text>
 <text class="TextShape"><tspan class="TextParagraph" font-family="Liberation Sans, sans-serif" font-size="353px" font-weight="400"><tspan class="TextPosition" x="9352" y="603"><tspan fill="rgb(0,0,0)" stroke="none">Clang default FF options</tspan></tspan></tspan></text>
 <text class="TextShape"><tspan class="TextParagraph" font-family="Liberation Sans, sans-serif" font-size="353px" font-weight="400"><tspan class="TextPosition" x="3199" y="1101"><tspan fill="rgb(0,0,0)" stroke="none">GCC -O3 (LTO+PGO + extra param)</tspan></tspan></tspan></text>
</svg>