<?xml version="1.0" encoding="UTF-8"?>
<!DOCTYPE svg PUBLIC "-//W3C//DTD SVG 1.1//EN" "http://www.w3.org/Graphics/SVG/1.1/DTD/svg11.dtd">
<svg width="160mm" height="19mm" viewBox="0 0 16000 1900" version="1.1" xmlns="http://www.w3.org/2000/svg" xmlns:xlink="http://www.w3.org/1999/xlink" stroke-width="28.222" stroke-linejoin="round" xml:space="preserve">
 <path fill="rgb(255,255,255)" stroke="none" d="M 7987,1887 L -13,1887 -13,94 15987,94 15987,1887 7987,1887 Z"/>
 <path fill="none" stroke="rgb(179,179,179)" stroke-linejoin="round" d="M 8782,1241 L 4769,1241 4769,130 12796,130 12796,1241 8782,1241 Z"/>
 <path fill="none" stroke="rgb(179,179,179)" stroke-linejoin="round" d="M 12796,129 L 12796,1240"/>
 <path fill="none" stroke="rgb(179,179,179)" stroke-linejoin="round" d="M 11649,129 L 11649,1240"/>
 <path fill="none" stroke="rgb(179,179,179)" stroke-linejoin="round" d="M 10502,129 L 10502,1240"/>
 <path fill="none" stroke="rgb(179,179,179)" stroke-linejoin="round" d="M 9355,129 L 9355,1240"/>
 <path fill="none" stroke="rgb(179,179,179)" stroke-linejoin="round" d="M 8208,129 L 8208,1240"/>
 <path fill="none" stroke="rgb(179,179,179)" stroke-linejoin="round" d="M 7062,129 L 7062,1240"/>
 <path fill="none" stroke="rgb(179,179,179)" stroke-linejoin="round" d="M 5915,129 L 5915,1240"/>
 <path fill="none" stroke="rgb(179,179,179)" stroke-linejoin="round" d="M 4769,129 L 4769,1240"/>
 <path fill="none" stroke="rgb(179,179,179)" stroke-linejoin="round" d="M 12946,129 L 12796,129"/>
 <path fill="none" stroke="rgb(179,179,179)" stroke-linejoin="round" d="M 12946,129 L 12796,129"/>
 <path fill="none" stroke="rgb(179,179,179)" stroke-linejoin="round" d="M 12946,1240 L 12796,1240"/>
 <path fill="none" stroke="rgb(179,179,179)" stroke-linejoin="round" d="M 12946,1240 L 12796,1240"/>
 <path fill="none" stroke="rgb(179,179,179)" stroke-linejoin="round" d="M 12796,1240 L 12796,129"/>
 <path fill="none" stroke="rgb(179,179,179)" stroke-linejoin="round" d="M 12796,1381 L 12796,1240"/>
 <path fill="none" stroke="rgb(179,179,179)" stroke-linejoin="round" d="M 12796,-13 L 12796,129"/>
 <path fill="none" stroke="rgb(179,179,179)" stroke-linejoin="round" d="M 11649,1381 L 11649,1240"/>
 <path fill="none" stroke="rgb(179,179,179)" stroke-linejoin="round" d="M 11649,-13 L 11649,129"/>
 <path fill="none" stroke="rgb(179,179,179)" stroke-linejoin="round" d="M 10502,1381 L 10502,1240"/>
 <path fill="none" stroke="rgb(179,179,179)" stroke-linejoin="round" d="M 10502,-13 L 10502,129"/>
 <path fill="none" stroke="rgb(179,179,179)" stroke-linejoin="round" d="M 9355,1381 L 9355,1240"/>
 <path fill="none" stroke="rgb(179,179,179)" stroke-linejoin="round" d="M 9355,-13 L 9355,129"/>
 <path fill="none" stroke="rgb(179,179,179)" stroke-linejoin="round" d="M 8208,1381 L 8208,1240"/>
 <path fill="none" stroke="rgb(179,179,179)" stroke-linejoin="round" d="M 8208,-13 L 8208,129"/>
 <path fill="none" stroke="rgb(179,179,179)" stroke-linejoin="round" d="M 7062,1381 L 7062,1240"/>
 <path fill="none" stroke="rgb(179,179,179)" stroke-linejoin="round" d="M 7062,-13 L 7062,129"/>
 <path fill="none" stroke="rgb(179,179,179)" stroke-linejoin="round" d="M 5915,1381 L 5915,1240"/>
 <path fill="none" stroke="rgb(179,179,179)" stroke-linejoin="round" d="M 5915,-13 L 5915,129"/>
 <path fill="none" stroke="rgb(179,179,179)" stroke-linejoin="round" d="M 4769,1381 L 4769,1240"/>
 <path fill="none" stroke="rgb(179,179,179)" stroke-linejoin="round" d="M 4769,-13 L 4769,129"/>
 <path fill="none" stroke="rgb(179,179,179)" stroke-linejoin="round" d="M 4769,129 L 12796,129"/>
 <path fill="rgb(12,50,44)" stroke="none" d="M 12796,239 L 12796,462 10502,462 10502,239 12796,239 Z"/>
 <path fill="rgb(19,148,72)" stroke="none" d="M 12796,462 L 12796,684 10484,684 10484,462 12796,462 Z"/>
 <path fill="rgb(255,211,32)" stroke="none" d="M 12796,684 L 12796,906 6081,906 6081,684 12796,684 Z"/>
 <path fill="rgb(0,138,207)" stroke="none" d="M 12796,906 L 12796,1129 8174,1129 8174,906 12796,906 Z"/>
 <text class="SVGTextShape"><tspan class="TextParagraph" font-family="Liberation Sans, sans-serif" font-size="353px" font-weight="400"><tspan class="TextPosition" x="13046" y="798"><tspan font-size="333px" fill="rgb(0,0,0)" stroke="none" style="white-space: pre">548.exchange2_r</tspan></tspan></tspan></text>
 <text class="SVGTextShape"><tspan class="TextParagraph" font-family="Liberation Sans, sans-serif" font-size="353px" font-weight="400"><tspan class="TextPosition" x="12544" y="1776"><tspan font-size="333px" fill="rgb(0,0,0)" stroke="none" style="white-space: pre">0%</tspan></tspan></tspan></text>
 <text class="SVGTextShape"><tspan class="TextParagraph" font-family="Liberation Sans, sans-serif" font-size="353px" font-weight="400"><tspan class="TextPosition" x="11305" y="1776"><tspan font-size="333px" fill="rgb(0,0,0)" stroke="none" style="white-space: pre">50%</tspan></tspan></tspan></text>
 <text class="SVGTextShape"><tspan class="TextParagraph" font-family="Liberation Sans, sans-serif" font-size="353px" font-weight="400"><tspan class="TextPosition" x="10065" y="1776"><tspan font-size="333px" fill="rgb(0,0,0)" stroke="none" style="white-space: pre">100%</tspan></tspan></tspan></text>
 <text class="SVGTextShape"><tspan class="TextParagraph" font-family="Liberation Sans, sans-serif" font-size="353px" font-weight="400"><tspan class="TextPosition" x="8918" y="1776"><tspan font-size="333px" fill="rgb(0,0,0)" stroke="none" style="white-space: pre">150%</tspan></tspan></tspan></text>
 <text class="SVGTextShape"><tspan class="TextParagraph" font-family="Liberation Sans, sans-serif" font-size="353px" font-weight="400"><tspan class="TextPosition" x="7772" y="1776"><tspan font-size="333px" fill="rgb(0,0,0)" stroke="none" style="white-space: pre">200%</tspan></tspan></tspan></text>
 <text class="SVGTextShape"><tspan class="TextParagraph" font-family="Liberation Sans, sans-serif" font-size="353px" font-weight="400"><tspan class="TextPosition" x="6625" y="1776"><tspan font-size="333px" fill="rgb(0,0,0)" stroke="none" style="white-space: pre">250%</tspan></tspan></tspan></text>
 <text class="SVGTextShape"><tspan class="TextParagraph" font-family="Liberation Sans, sans-serif" font-size="353px" font-weight="400"><tspan class="TextPosition" x="5478" y="1776"><tspan font-size="333px" fill="rgb(0,0,0)" stroke="none" style="white-space: pre">300%</tspan></tspan></tspan></text>
 <text class="SVGTextShape"><tspan class="TextParagraph" font-family="Liberation Sans, sans-serif" font-size="353px" font-weight="400"><tspan class="TextPosition" x="4332" y="1776"><tspan font-size="333px" fill="rgb(0,0,0)" stroke="none" style="white-space: pre">350%</tspan></tspan></tspan></text>
 <path fill="rgb(12,50,44)" stroke="none" d="M 2603,1324 L 2498,1324 2498,1125 2709,1125 2709,1324 2603,1324 Z"/>
 <path fill="rgb(19,148,72)" stroke="none" d="M 418,1324 L 313,1324 313,1125 524,1125 524,1324 418,1324 Z"/>
 <path fill="rgb(255,211,32)" stroke="none" d="M 2603,854 L 2498,854 2498,655 2709,655 2709,854 2603,854 Z"/>
 <path fill="rgb(0,138,207)" stroke="none" d="M 418,854 L 313,854 313,655 524,655 524,854 418,854 Z"/>
 <text class="SVGTextShape"><tspan class="TextParagraph" font-family="Liberation Sans, sans-serif" font-size="353px" font-weight="400"><tspan class="TextPosition" x="624" y="868"><tspan font-size="333px" fill="rgb(0,0,0)" stroke="none" style="white-space: pre">LTO+PGO</tspan></tspan></tspan></text>
 <text class="SVGTextShape"><tspan class="TextParagraph" font-family="Liberation Sans, sans-serif" font-size="353px" font-weight="400"><tspan class="TextPosition" x="2809" y="868"><tspan font-size="333px" fill="rgb(0,0,0)" stroke="none" style="white-space: pre">PGO</tspan></tspan></tspan></text>
 <text class="SVGTextShape"><tspan class="TextParagraph" font-family="Liberation Sans, sans-serif" font-size="353px" font-weight="400"><tspan class="TextPosition" x="624" y="1337"><tspan font-size="333px" fill="rgb(0,0,0)" stroke="none" style="white-space: pre">LTO</tspan></tspan></tspan></text>
 <text class="SVGTextShape"><tspan class="TextParagraph" font-family="Liberation Sans, sans-serif" font-size="353px" font-weight="400"><tspan class="TextPosition" x="2809" y="1337"><tspan font-size="333px" fill="rgb(0,0,0)" stroke="none" style="white-space: pre">Normal</tspan></tspan></tspan></text>
</svg>