<?xml version="1.0" encoding="UTF-8"?>
<!DOCTYPE svg PUBLIC "-//W3C//DTD SVG 1.1//EN" "http://www.w3.org/Graphics/SVG/1.1/DTD/svg11.dtd">
<svg width="160mm" height="107mm" viewBox="0 0 16000 10700" version="1.1" xmlns="http://www.w3.org/2000/svg" xmlns:xlink="http://www.w3.org/1999/xlink" stroke-width="28.222" stroke-linejoin="round" xml:space="preserve">
 <path fill="rgb(255,255,255)" stroke="none" d="M 7987,10687 L -13,10687 -13,-13 15987,-13 15987,10687 7987,10687 Z"/>
 <path fill="none" stroke="rgb(179,179,179)" stroke-linejoin="round" d="M 7834,9826 L 3177,9826 3177,201 12490,201 12490,9826 7834,9826 Z"/>
 <path fill="none" stroke="rgb(179,179,179)" stroke-linejoin="round" d="M 3177,199 L 3177,9825"/>
 <path fill="none" stroke="rgb(179,179,179)" stroke-linejoin="round" d="M 4507,199 L 4507,9825"/>
 <path fill="none" stroke="rgb(179,179,179)" stroke-linejoin="round" d="M 5838,199 L 5838,9825"/>
 <path fill="none" stroke="rgb(179,179,179)" stroke-linejoin="round" d="M 7168,199 L 7168,9825"/>
 <path fill="none" stroke="rgb(179,179,179)" stroke-linejoin="round" d="M 8498,199 L 8498,9825"/>
 <path fill="none" stroke="rgb(179,179,179)" stroke-linejoin="round" d="M 9828,199 L 9828,9825"/>
 <path fill="none" stroke="rgb(179,179,179)" stroke-linejoin="round" d="M 11159,199 L 11159,9825"/>
 <path fill="none" stroke="rgb(179,179,179)" stroke-linejoin="round" d="M 12490,199 L 12490,9825"/>
 <path fill="none" stroke="rgb(179,179,179)" stroke-linejoin="round" d="M 3027,200 L 3177,200"/>
 <path fill="none" stroke="rgb(179,179,179)" stroke-linejoin="round" d="M 3027,200 L 3177,200"/>
 <path fill="none" stroke="rgb(179,179,179)" stroke-linejoin="round" d="M 3027,1269 L 3177,1269"/>
 <path fill="none" stroke="rgb(179,179,179)" stroke-linejoin="round" d="M 3027,1269 L 3177,1269"/>
 <path fill="none" stroke="rgb(179,179,179)" stroke-linejoin="round" d="M 3027,2339 L 3177,2339"/>
 <path fill="none" stroke="rgb(179,179,179)" stroke-linejoin="round" d="M 3027,2339 L 3177,2339"/>
 <path fill="none" stroke="rgb(179,179,179)" stroke-linejoin="round" d="M 3027,3408 L 3177,3408"/>
 <path fill="none" stroke="rgb(179,179,179)" stroke-linejoin="round" d="M 3027,3408 L 3177,3408"/>
 <path fill="none" stroke="rgb(179,179,179)" stroke-linejoin="round" d="M 3027,4478 L 3177,4478"/>
 <path fill="none" stroke="rgb(179,179,179)" stroke-linejoin="round" d="M 3027,4478 L 3177,4478"/>
 <path fill="none" stroke="rgb(179,179,179)" stroke-linejoin="round" d="M 3027,5546 L 3177,5546"/>
 <path fill="none" stroke="rgb(179,179,179)" stroke-linejoin="round" d="M 3027,5546 L 3177,5546"/>
 <path fill="none" stroke="rgb(179,179,179)" stroke-linejoin="round" d="M 3027,6616 L 3177,6616"/>
 <path fill="none" stroke="rgb(179,179,179)" stroke-linejoin="round" d="M 3027,6616 L 3177,6616"/>
 <path fill="none" stroke="rgb(179,179,179)" stroke-linejoin="round" d="M 3027,7685 L 3177,7685"/>
 <path fill="none" stroke="rgb(179,179,179)" stroke-linejoin="round" d="M 3027,7685 L 3177,7685"/>
 <path fill="none" stroke="rgb(179,179,179)" stroke-linejoin="round" d="M 3027,8755 L 3177,8755"/>
 <path fill="none" stroke="rgb(179,179,179)" stroke-linejoin="round" d="M 3027,8755 L 3177,8755"/>
 <path fill="none" stroke="rgb(179,179,179)" stroke-linejoin="round" d="M 3027,9825 L 3177,9825"/>
 <path fill="none" stroke="rgb(179,179,179)" stroke-linejoin="round" d="M 3027,9825 L 3177,9825"/>
 <path fill="none" stroke="rgb(179,179,179)" stroke-linejoin="round" d="M 3177,9825 L 3177,199"/>
 <path fill="none" stroke="rgb(179,179,179)" stroke-linejoin="round" d="M 3177,9975 L 3177,9825"/>
 <path fill="none" stroke="rgb(179,179,179)" stroke-linejoin="round" d="M 3177,49 L 3177,199"/>
 <path fill="none" stroke="rgb(179,179,179)" stroke-linejoin="round" d="M 4507,9975 L 4507,9825"/>
 <path fill="none" stroke="rgb(179,179,179)" stroke-linejoin="round" d="M 4507,49 L 4507,199"/>
 <path fill="none" stroke="rgb(179,179,179)" stroke-linejoin="round" d="M 5838,9975 L 5838,9825"/>
 <path fill="none" stroke="rgb(179,179,179)" stroke-linejoin="round" d="M 5838,49 L 5838,199"/>
 <path fill="none" stroke="rgb(179,179,179)" stroke-linejoin="round" d="M 7168,9975 L 7168,9825"/>
 <path fill="none" stroke="rgb(179,179,179)" stroke-linejoin="round" d="M 7168,49 L 7168,199"/>
 <path fill="none" stroke="rgb(179,179,179)" stroke-linejoin="round" d="M 8498,9975 L 8498,9825"/>
 <path fill="none" stroke="rgb(179,179,179)" stroke-linejoin="round" d="M 8498,49 L 8498,199"/>
 <path fill="none" stroke="rgb(179,179,179)" stroke-linejoin="round" d="M 9828,9975 L 9828,9825"/>
 <path fill="none" stroke="rgb(179,179,179)" stroke-linejoin="round" d="M 9828,49 L 9828,199"/>
 <path fill="none" stroke="rgb(179,179,179)" stroke-linejoin="round" d="M 11159,9975 L 11159,9825"/>
 <path fill="none" stroke="rgb(179,179,179)" stroke-linejoin="round" d="M 11159,49 L 11159,199"/>
 <path fill="none" stroke="rgb(179,179,179)" stroke-linejoin="round" d="M 12490,9975 L 12490,9825"/>
 <path fill="none" stroke="rgb(179,179,179)" stroke-linejoin="round" d="M 12490,49 L 12490,199"/>
 <path fill="none" stroke="rgb(179,179,179)" stroke-linejoin="round" d="M 3177,199 L 12490,199"/>
 <path fill="rgb(220,53,69)" stroke="none" d="M 3177,306 L 3177,520 9828,520 9828,306 3177,306 Z"/>
 <path fill="rgb(220,53,69)" stroke="none" d="M 3177,1376 L 3177,1590 9828,1590 9828,1376 3177,1376 Z"/>
 <path fill="rgb(220,53,69)" stroke="none" d="M 3177,2446 L 3177,2659 9828,2659 9828,2446 3177,2446 Z"/>
 <path fill="rgb(220,53,69)" stroke="none" d="M 3177,3515 L 3177,3729 9828,3729 9828,3515 3177,3515 Z"/>
 <path fill="rgb(220,53,69)" stroke="none" d="M 3177,4585 L 3177,4799 9828,4799 9828,4585 3177,4585 Z"/>
 <path fill="rgb(220,53,69)" stroke="none" d="M 3177,5653 L 3177,5867 9828,5867 9828,5653 3177,5653 Z"/>
 <path fill="rgb(220,53,69)" stroke="none" d="M 3177,6723 L 3177,6937 9828,6937 9828,6723 3177,6723 Z"/>
 <path fill="rgb(220,53,69)" stroke="none" d="M 3177,7792 L 3177,8006 9828,8006 9828,7792 3177,7792 Z"/>
 <path fill="rgb(220,53,69)" stroke="none" d="M 3177,8862 L 3177,9076 9828,9076 9828,8862 3177,8862 Z"/>
 <path fill="rgb(255,158,2)" stroke="none" d="M 3177,520 L 3177,734 10145,734 10145,520 3177,520 Z"/>
 <path fill="rgb(255,158,2)" stroke="none" d="M 3177,1590 L 3177,1804 10117,1804 10117,1590 3177,1590 Z"/>
 <path fill="rgb(255,158,2)" stroke="none" d="M 3177,2659 L 3177,2873 11452,2873 11452,2659 3177,2659 Z"/>
 <path fill="rgb(255,158,2)" stroke="none" d="M 3177,3729 L 3177,3943 10171,3943 10171,3729 3177,3729 Z"/>
 <path fill="rgb(255,158,2)" stroke="none" d="M 3177,4799 L 3177,5012 10138,5012 10138,4799 3177,4799 Z"/>
 <path fill="rgb(255,158,2)" stroke="none" d="M 3177,5867 L 3177,6081 10232,6081 10232,5867 3177,5867 Z"/>
 <path fill="rgb(255,158,2)" stroke="none" d="M 3177,6937 L 3177,7151 11008,7151 11008,6937 3177,6937 Z"/>
 <path fill="rgb(255,158,2)" stroke="none" d="M 3177,8006 L 3177,8220 10555,8220 10555,8006 3177,8006 Z"/>
 <path fill="rgb(255,158,2)" stroke="none" d="M 3177,9076 L 3177,9290 9893,9290 9893,9076 3177,9076 Z"/>
 <path fill="rgb(12,50,44)" stroke="none" d="M 3177,734 L 3177,948 10577,948 10577,734 3177,734 Z"/>
 <path fill="rgb(12,50,44)" stroke="none" d="M 3177,1804 L 3177,2018 9985,2018 9985,1804 3177,1804 Z"/>
 <path fill="rgb(12,50,44)" stroke="none" d="M 3177,2873 L 3177,3087 10069,3087 10069,2873 3177,2873 Z"/>
 <path fill="rgb(12,50,44)" stroke="none" d="M 3177,3943 L 3177,4157 10065,4157 10065,3943 3177,3943 Z"/>
 <path fill="rgb(12,50,44)" stroke="none" d="M 3177,5013 L 3177,5226 9917,5226 9917,5013 3177,5013 Z"/>
 <path fill="rgb(12,50,44)" stroke="none" d="M 3177,6081 L 3177,6295 8794,6295 8794,6081 3177,6081 Z"/>
 <path fill="rgb(12,50,44)" stroke="none" d="M 3177,7151 L 3177,7365 10280,7365 10280,7151 3177,7151 Z"/>
 <path fill="rgb(12,50,44)" stroke="none" d="M 3177,8220 L 3177,8434 9569,8434 9569,8220 3177,8220 Z"/>
 <path fill="rgb(12,50,44)" stroke="none" d="M 3177,9290 L 3177,9504 9634,9504 9634,9290 3177,9290 Z"/>
 <path fill="rgb(19,148,72)" stroke="none" d="M 3177,948 L 3177,1162 10630,1162 10630,948 3177,948 Z"/>
 <path fill="rgb(19,148,72)" stroke="none" d="M 3177,2018 L 3177,2232 10156,2232 10156,2018 3177,2018 Z"/>
 <path fill="rgb(19,148,72)" stroke="none" d="M 3177,3087 L 3177,3301 11327,3301 11327,3087 3177,3087 Z"/>
 <path fill="rgb(19,148,72)" stroke="none" d="M 3177,4157 L 3177,4371 10210,4371 10210,4157 3177,4157 Z"/>
 <path fill="rgb(19,148,72)" stroke="none" d="M 3177,5226 L 3177,5439 10182,5439 10182,5226 3177,5226 Z"/>
 <path fill="rgb(19,148,72)" stroke="none" d="M 3177,6295 L 3177,6509 8779,6509 8779,6295 3177,6295 Z"/>
 <path fill="rgb(19,148,72)" stroke="none" d="M 3177,7365 L 3177,7578 11071,7578 11071,7365 3177,7365 Z"/>
 <path fill="rgb(19,148,72)" stroke="none" d="M 3177,8434 L 3177,8648 10204,8648 10204,8434 3177,8434 Z"/>
 <path fill="rgb(19,148,72)" stroke="none" d="M 3177,9504 L 3177,9718 9553,9718 9553,9504 3177,9504 Z"/>
 <text class="SVGTextShape"><tspan class="TextParagraph" font-family="Liberation Sans, sans-serif" font-size="353px" font-weight="400"><tspan class="TextPosition" x="493" y="854"><tspan fill="rgb(0,0,0)" stroke="none" style="white-space: pre">500.perlbench_r</tspan></tspan></tspan></text>
 <text class="SVGTextShape"><tspan class="TextParagraph" font-family="Liberation Sans, sans-serif" font-size="353px" font-weight="400"><tspan class="TextPosition" x="1419" y="1924"><tspan fill="rgb(0,0,0)" stroke="none" style="white-space: pre">502.gcc_r</tspan></tspan></tspan></text>
 <text class="SVGTextShape"><tspan class="TextParagraph" font-family="Liberation Sans, sans-serif" font-size="353px" font-weight="400"><tspan class="TextPosition" x="1392" y="2993"><tspan fill="rgb(0,0,0)" stroke="none" style="white-space: pre">505.mcf_r</tspan></tspan></tspan></text>
 <text class="SVGTextShape"><tspan class="TextParagraph" font-family="Liberation Sans, sans-serif" font-size="353px" font-weight="400"><tspan class="TextPosition" x="652" y="4063"><tspan fill="rgb(0,0,0)" stroke="none" style="white-space: pre">520.omnetpp_r</tspan></tspan></tspan></text>
 <text class="SVGTextShape"><tspan class="TextParagraph" font-family="Liberation Sans, sans-serif" font-size="353px" font-weight="400"><tspan class="TextPosition" x="308" y="5133"><tspan fill="rgb(0,0,0)" stroke="none" style="white-space: pre">523.xalancbmk_r</tspan></tspan></tspan></text>
 <text class="SVGTextShape"><tspan class="TextParagraph" font-family="Liberation Sans, sans-serif" font-size="353px" font-weight="400"><tspan class="TextPosition" x="1234" y="6201"><tspan fill="rgb(0,0,0)" stroke="none" style="white-space: pre">525.x264_r</tspan></tspan></tspan></text>
 <text class="SVGTextShape"><tspan class="TextParagraph" font-family="Liberation Sans, sans-serif" font-size="353px" font-weight="400"><tspan class="TextPosition" x="413" y="7271"><tspan fill="rgb(0,0,0)" stroke="none" style="white-space: pre">531.deepsjeng_r</tspan></tspan></tspan></text>
 <text class="SVGTextShape"><tspan class="TextParagraph" font-family="Liberation Sans, sans-serif" font-size="353px" font-weight="400"><tspan class="TextPosition" x="1260" y="8340"><tspan fill="rgb(0,0,0)" stroke="none" style="white-space: pre">541.leela_r</tspan></tspan></tspan></text>
 <text class="SVGTextShape"><tspan class="TextParagraph" font-family="Liberation Sans, sans-serif" font-size="353px" font-weight="400"><tspan class="TextPosition" x="1604" y="9410"><tspan fill="rgb(0,0,0)" stroke="none" style="white-space: pre">557.xz_r</tspan></tspan></tspan></text>
 <text class="SVGTextShape"><tspan class="TextParagraph" font-family="Liberation Sans, sans-serif" font-size="353px" font-weight="400"><tspan class="TextPosition" x="2925" y="10393"><tspan fill="rgb(0,0,0)" stroke="none" style="white-space: pre">0%</tspan></tspan></tspan></text>
 <text class="SVGTextShape"><tspan class="TextParagraph" font-family="Liberation Sans, sans-serif" font-size="353px" font-weight="400"><tspan class="TextPosition" x="4163" y="10393"><tspan fill="rgb(0,0,0)" stroke="none" style="white-space: pre">20%</tspan></tspan></tspan></text>
 <text class="SVGTextShape"><tspan class="TextParagraph" font-family="Liberation Sans, sans-serif" font-size="353px" font-weight="400"><tspan class="TextPosition" x="5494" y="10393"><tspan fill="rgb(0,0,0)" stroke="none" style="white-space: pre">40%</tspan></tspan></tspan></text>
 <text class="SVGTextShape"><tspan class="TextParagraph" font-family="Liberation Sans, sans-serif" font-size="353px" font-weight="400"><tspan class="TextPosition" x="6824" y="10393"><tspan fill="rgb(0,0,0)" stroke="none" style="white-space: pre">60%</tspan></tspan></tspan></text>
 <text class="SVGTextShape"><tspan class="TextParagraph" font-family="Liberation Sans, sans-serif" font-size="353px" font-weight="400"><tspan class="TextPosition" x="8154" y="10393"><tspan fill="rgb(0,0,0)" stroke="none" style="white-space: pre">80%</tspan></tspan></tspan></text>
 <text class="SVGTextShape"><tspan class="TextParagraph" font-family="Liberation Sans, sans-serif" font-size="353px" font-weight="400"><tspan class="TextPosition" x="9391" y="10393"><tspan fill="rgb(0,0,0)" stroke="none" style="white-space: pre">100%</tspan></tspan></tspan></text>
 <text class="SVGTextShape"><tspan class="TextParagraph" font-family="Liberation Sans, sans-serif" font-size="353px" font-weight="400"><tspan class="TextPosition" x="10722" y="10393"><tspan fill="rgb(0,0,0)" stroke="none" style="white-space: pre">120%</tspan></tspan></tspan></text>
 <text class="SVGTextShape"><tspan class="TextParagraph" font-family="Liberation Sans, sans-serif" font-size="353px" font-weight="400"><tspan class="TextPosition" x="12053" y="10393"><tspan fill="rgb(0,0,0)" stroke="none" style="white-space: pre">140%</tspan></tspan></tspan></text>
 <path fill="rgb(220,53,69)" stroke="none" d="M 13470,6188 L 13364,6188 13364,5977 13575,5977 13575,6188 13470,6188 Z"/>
 <path fill="rgb(255,158,2)" stroke="none" d="M 13470,5690 L 13364,5690 13364,5479 13575,5479 13575,5690 13470,5690 Z"/>
 <path fill="rgb(12,50,44)" stroke="none" d="M 13470,5193 L 13364,5193 13364,4982 13575,4982 13575,5193 13470,5193 Z"/>
 <path fill="rgb(19,148,72)" stroke="none" d="M 13470,4695 L 13364,4695 13364,4484 13575,4484 13575,4695 13470,4695 Z"/>
 <text class="SVGTextShape"><tspan class="TextParagraph" font-family="Liberation Sans, sans-serif" font-size="353px" font-weight="400"><tspan class="TextPosition" x="13675" y="4709"><tspan fill="rgb(0,0,0)" stroke="none" style="white-space: pre">GCC (LTO)</tspan></tspan></tspan></text>
 <text class="SVGTextShape"><tspan class="TextParagraph" font-family="Liberation Sans, sans-serif" font-size="353px" font-weight="400"><tspan class="TextPosition" x="13675" y="5207"><tspan fill="rgb(0,0,0)" stroke="none" style="white-space: pre">GCC</tspan></tspan></tspan></text>
 <text class="SVGTextShape"><tspan class="TextParagraph" font-family="Liberation Sans, sans-serif" font-size="353px" font-weight="400"><tspan class="TextPosition" x="13675" y="5704"><tspan fill="rgb(0,0,0)" stroke="none" style="white-space: pre">LLVM  (LTO)</tspan></tspan></tspan></text>
 <text class="SVGTextShape"><tspan class="TextParagraph" font-family="Liberation Sans, sans-serif" font-size="353px" font-weight="400"><tspan class="TextPosition" x="13675" y="6202"><tspan fill="rgb(0,0,0)" stroke="none" style="white-space: pre">LLVM </tspan></tspan></tspan></text>
</svg>