<?xml version="1.0" encoding="UTF-8"?>
<!DOCTYPE svg PUBLIC "-//W3C//DTD SVG 1.1//EN" "http://www.w3.org/Graphics/SVG/1.1/DTD/svg11.dtd">
<svg width="160mm" height="75mm" viewBox="0 0 16000 7500" version="1.1" xmlns="http://www.w3.org/2000/svg" xmlns:xlink="http://www.w3.org/1999/xlink" stroke-width="28.222" stroke-linejoin="round" xml:space="preserve">
 <path fill="rgb(255,255,255)" stroke="none" d="M 8000,7500 L 0,7500 0,0 16000,0 16000,7500 8000,7500 Z"/>
 <path fill="none" stroke="rgb(179,179,179)" stroke-linejoin="round" d="M 9110,6703 L 2979,6703 2979,933 15242,933 15242,6703 9110,6703 Z"/>
 <path fill="none" stroke="rgb(179,179,179)" stroke-linejoin="round" d="M 2979,932 L 2979,6702"/>
 <path fill="none" stroke="rgb(179,179,179)" stroke-linejoin="round" d="M 4731,932 L 4731,6702"/>
 <path fill="none" stroke="rgb(179,179,179)" stroke-linejoin="round" d="M 6483,932 L 6483,6702"/>
 <path fill="none" stroke="rgb(179,179,179)" stroke-linejoin="round" d="M 8234,932 L 8234,6702"/>
 <path fill="none" stroke="rgb(179,179,179)" stroke-linejoin="round" d="M 9986,932 L 9986,6702"/>
 <path fill="none" stroke="rgb(179,179,179)" stroke-linejoin="round" d="M 11738,932 L 11738,6702"/>
 <path fill="none" stroke="rgb(179,179,179)" stroke-linejoin="round" d="M 13490,932 L 13490,6702"/>
 <path fill="none" stroke="rgb(179,179,179)" stroke-linejoin="round" d="M 15242,932 L 15242,6702"/>
 <path fill="none" stroke="rgb(179,179,179)" stroke-linejoin="round" d="M 2829,6702 L 2979,6702"/>
 <path fill="none" stroke="rgb(179,179,179)" stroke-linejoin="round" d="M 2829,6702 L 2979,6702"/>
 <path fill="none" stroke="rgb(179,179,179)" stroke-linejoin="round" d="M 2829,4778 L 2979,4778"/>
 <path fill="none" stroke="rgb(179,179,179)" stroke-linejoin="round" d="M 2829,4778 L 2979,4778"/>
 <path fill="none" stroke="rgb(179,179,179)" stroke-linejoin="round" d="M 2829,2855 L 2979,2855"/>
 <path fill="none" stroke="rgb(179,179,179)" stroke-linejoin="round" d="M 2829,2855 L 2979,2855"/>
 <path fill="none" stroke="rgb(179,179,179)" stroke-linejoin="round" d="M 2829,932 L 2979,932"/>
 <path fill="none" stroke="rgb(179,179,179)" stroke-linejoin="round" d="M 2829,932 L 2979,932"/>
 <path fill="none" stroke="rgb(179,179,179)" stroke-linejoin="round" d="M 2979,6702 L 2979,932"/>
 <path fill="none" stroke="rgb(179,179,179)" stroke-linejoin="round" d="M 2979,6852 L 2979,6702"/>
 <path fill="none" stroke="rgb(179,179,179)" stroke-linejoin="round" d="M 2979,6852 L 2979,6702"/>
 <path fill="none" stroke="rgb(179,179,179)" stroke-linejoin="round" d="M 4731,6852 L 4731,6702"/>
 <path fill="none" stroke="rgb(179,179,179)" stroke-linejoin="round" d="M 4731,6852 L 4731,6702"/>
 <path fill="none" stroke="rgb(179,179,179)" stroke-linejoin="round" d="M 6483,6852 L 6483,6702"/>
 <path fill="none" stroke="rgb(179,179,179)" stroke-linejoin="round" d="M 6483,6852 L 6483,6702"/>
 <path fill="none" stroke="rgb(179,179,179)" stroke-linejoin="round" d="M 8234,6852 L 8234,6702"/>
 <path fill="none" stroke="rgb(179,179,179)" stroke-linejoin="round" d="M 8234,6852 L 8234,6702"/>
 <path fill="none" stroke="rgb(179,179,179)" stroke-linejoin="round" d="M 9986,6852 L 9986,6702"/>
 <path fill="none" stroke="rgb(179,179,179)" stroke-linejoin="round" d="M 9986,6852 L 9986,6702"/>
 <path fill="none" stroke="rgb(179,179,179)" stroke-linejoin="round" d="M 11738,6852 L 11738,6702"/>
 <path fill="none" stroke="rgb(179,179,179)" stroke-linejoin="round" d="M 11738,6852 L 11738,6702"/>
 <path fill="none" stroke="rgb(179,179,179)" stroke-linejoin="round" d="M 13490,6852 L 13490,6702"/>
 <path fill="none" stroke="rgb(179,179,179)" stroke-linejoin="round" d="M 13490,6852 L 13490,6702"/>
 <path fill="none" stroke="rgb(179,179,179)" stroke-linejoin="round" d="M 15242,6852 L 15242,6702"/>
 <path fill="none" stroke="rgb(179,179,179)" stroke-linejoin="round" d="M 15242,6852 L 15242,6702"/>
 <path fill="none" stroke="rgb(179,179,179)" stroke-linejoin="round" d="M 2979,6702 L 15242,6702"/>
 <path fill="rgb(0,138,207)" stroke="none" d="M 2979,2695 L 2979,2374 13214,2374 13214,2695 2979,2695 Z"/>
 <path fill="rgb(0,138,207)" stroke="none" d="M 2979,4618 L 2979,4297 12521,4297 12521,4618 2979,4618 Z"/>
 <path fill="rgb(0,138,207)" stroke="none" d="M 2979,6541 L 2979,6221 13486,6221 13486,6541 2979,6541 Z"/>
 <path fill="rgb(13,44,64)" stroke="none" d="M 2979,2374 L 2979,2054 12066,2054 12066,2374 2979,2374 Z"/>
 <path fill="rgb(13,44,64)" stroke="none" d="M 2979,4297 L 2979,3976 11801,3976 11801,4297 2979,4297 Z"/>
 <path fill="rgb(13,44,64)" stroke="none" d="M 2979,6221 L 2979,5900 12056,5900 12056,6221 2979,6221 Z"/>
 <path fill="rgb(255,193,8)" stroke="none" d="M 2979,2054 L 2979,1733 11907,1733 11907,2054 2979,2054 Z"/>
 <path fill="rgb(255,193,8)" stroke="none" d="M 2979,3976 L 2979,3657 12062,3657 12062,3976 2979,3976 Z"/>
 <path fill="rgb(255,193,8)" stroke="none" d="M 2979,5900 L 2979,5579 11993,5579 11993,5900 2979,5900 Z"/>
 <path fill="rgb(19,148,72)" stroke="none" d="M 2979,1733 L 2979,1412 11895,1412 11895,1733 2979,1733 Z"/>
 <path fill="rgb(19,148,72)" stroke="none" d="M 2979,3657 L 2979,3336 11614,3336 11614,3657 2979,3657 Z"/>
 <path fill="rgb(19,148,72)" stroke="none" d="M 2979,5579 L 2979,5259 11960,5259 11960,5579 2979,5579 Z"/>
 <path fill="rgb(126,0,33)" stroke="none" d="M 2979,1412 L 2979,1092 11738,1092 11738,1412 2979,1412 Z"/>
 <path fill="rgb(126,0,33)" stroke="none" d="M 2979,3336 L 2979,3015 11738,3015 11738,3336 2979,3336 Z"/>
 <path fill="rgb(126,0,33)" stroke="none" d="M 2979,5259 L 2979,4938 11738,4938 11738,5259 2979,5259 Z"/>
 <text class="SVGTextShape"><tspan class="TextParagraph" font-family="Liberation Sans, sans-serif" font-size="353px" font-weight="400"><tspan class="TextPosition" x="1168" y="5861"><tspan fill="rgb(0,0,0)" stroke="none">singletons</tspan></tspan></tspan></text>
 <text class="SVGTextShape"><tspan class="TextParagraph" font-family="Liberation Sans, sans-serif" font-size="353px" font-weight="400"><tspan class="TextPosition" x="321" y="3937"><tspan fill="rgb(0,0,0)" stroke="none">responsiveness</tspan></tspan></tspan></text>
 <text class="SVGTextShape"><tspan class="TextParagraph" font-family="Liberation Sans, sans-serif" font-size="353px" font-weight="400"><tspan class="TextPosition" x="2068" y="2013"><tspan fill="rgb(0,0,0)" stroke="none">tp5o</tspan></tspan></tspan></text>
 <text class="SVGTextShape"><tspan class="TextParagraph" font-family="Liberation Sans, sans-serif" font-size="353px" font-weight="400"><tspan class="TextPosition" x="2727" y="7270"><tspan fill="rgb(0,0,0)" stroke="none">0%</tspan></tspan></tspan></text>
 <text class="SVGTextShape"><tspan class="TextParagraph" font-family="Liberation Sans, sans-serif" font-size="353px" font-weight="400"><tspan class="TextPosition" x="4387" y="7270"><tspan fill="rgb(0,0,0)" stroke="none">20%</tspan></tspan></tspan></text>
 <text class="SVGTextShape"><tspan class="TextParagraph" font-family="Liberation Sans, sans-serif" font-size="353px" font-weight="400"><tspan class="TextPosition" x="6139" y="7270"><tspan fill="rgb(0,0,0)" stroke="none">40%</tspan></tspan></tspan></text>
 <text class="SVGTextShape"><tspan class="TextParagraph" font-family="Liberation Sans, sans-serif" font-size="353px" font-weight="400"><tspan class="TextPosition" x="7891" y="7270"><tspan fill="rgb(0,0,0)" stroke="none">60%</tspan></tspan></tspan></text>
 <text class="SVGTextShape"><tspan class="TextParagraph" font-family="Liberation Sans, sans-serif" font-size="353px" font-weight="400"><tspan class="TextPosition" x="9643" y="7270"><tspan fill="rgb(0,0,0)" stroke="none">80%</tspan></tspan></tspan></text>
 <text class="SVGTextShape"><tspan class="TextParagraph" font-family="Liberation Sans, sans-serif" font-size="353px" font-weight="400"><tspan class="TextPosition" x="11302" y="7270"><tspan fill="rgb(0,0,0)" stroke="none">100%</tspan></tspan></tspan></text>
 <text class="SVGTextShape"><tspan class="TextParagraph" font-family="Liberation Sans, sans-serif" font-size="353px" font-weight="400"><tspan class="TextPosition" x="13054" y="7270"><tspan fill="rgb(0,0,0)" stroke="none">120%</tspan></tspan></tspan></text>
 <text class="SVGTextShape"><tspan class="TextParagraph" font-family="Liberation Sans, sans-serif" font-size="353px" font-weight="400"><tspan class="TextPosition" x="14806" y="7270"><tspan fill="rgb(0,0,0)" stroke="none">140%</tspan></tspan></tspan></text>
 <path fill="rgb(0,138,207)" stroke="none" d="M 9872,589 L 9766,589 9766,378 9977,378 9977,589 9872,589 Z"/>
 <path fill="rgb(13,44,64)" stroke="none" d="M 7792,589 L 7687,589 7687,378 7898,378 7898,589 7792,589 Z"/>
 <path fill="rgb(255,193,8)" stroke="none" d="M 6691,589 L 6586,589 6586,378 6797,378 6797,589 6691,589 Z"/>
 <path fill="rgb(19,148,72)" stroke="none" d="M 4611,589 L 4506,589 4506,378 4717,378 4717,589 4611,589 Z"/>
 <path fill="rgb(126,0,33)" stroke="none" d="M 3510,589 L 3405,589 3405,378 3616,378 3616,589 3510,589 Z"/>
 <text class="SVGTextShape"><tspan class="TextParagraph" font-family="Liberation Sans, sans-serif" font-size="353px" font-weight="400"><tspan class="TextPosition" x="3716" y="603"><tspan fill="rgb(0,0,0)" stroke="none">-O2</tspan></tspan></tspan></text>
 <text class="SVGTextShape"><tspan class="TextParagraph" font-family="Liberation Sans, sans-serif" font-size="353px" font-weight="400"><tspan class="TextPosition" x="4817" y="603"><tspan fill="rgb(0,0,0)" stroke="none">-O2 (LTO)</tspan></tspan></tspan></text>
 <text class="SVGTextShape"><tspan class="TextParagraph" font-family="Liberation Sans, sans-serif" font-size="353px" font-weight="400"><tspan class="TextPosition" x="6897" y="603"><tspan fill="rgb(0,0,0)" stroke="none">-O3</tspan></tspan></tspan></text>
 <text class="SVGTextShape"><tspan class="TextParagraph" font-family="Liberation Sans, sans-serif" font-size="353px" font-weight="400"><tspan class="TextPosition" x="7998" y="603"><tspan fill="rgb(0,0,0)" stroke="none">-O3 (LTO)</tspan></tspan></tspan></text>
 <text class="SVGTextShape"><tspan class="TextParagraph" font-family="Liberation Sans, sans-serif" font-size="353px" font-weight="400"><tspan class="TextPosition" x="10077" y="603"><tspan fill="rgb(0,0,0)" stroke="none">-O3 (LTO+PGO)</tspan></tspan></tspan></text>
</svg>