<?xml version="1.0" encoding="UTF-8"?>
<!DOCTYPE svg PUBLIC "-//W3C//DTD SVG 1.1//EN" "http://www.w3.org/Graphics/SVG/1.1/DTD/svg11.dtd">
<svg width="160mm" height="70mm" viewBox="0 0 16000 7000" version="1.1" xmlns="http://www.w3.org/2000/svg" xmlns:xlink="http://www.w3.org/1999/xlink" stroke-width="28.222" stroke-linejoin="round" xml:space="preserve">
 <path fill="rgb(255,255,255)" stroke="none" d="M 7987,6987 L -13,6987 -13,-13 15987,-13 15987,6987 7987,6987 Z"/>
 <path fill="none" stroke="rgb(179,179,179)" stroke-linejoin="round" d="M 7418,6649 L 1907,6649 1907,326 12928,326 12928,6649 7418,6649 Z"/>
 <path fill="none" stroke="rgb(179,179,179)" stroke-linejoin="round" d="M 12928,6648 L 1907,6648"/>
 <path fill="none" stroke="rgb(179,179,179)" stroke-linejoin="round" d="M 12928,5383 L 1907,5383"/>
 <path fill="none" stroke="rgb(179,179,179)" stroke-linejoin="round" d="M 12928,4118 L 1907,4118"/>
 <path fill="none" stroke="rgb(179,179,179)" stroke-linejoin="round" d="M 12928,2854 L 1907,2854"/>
 <path fill="none" stroke="rgb(179,179,179)" stroke-linejoin="round" d="M 12928,1589 L 1907,1589"/>
 <path fill="none" stroke="rgb(179,179,179)" stroke-linejoin="round" d="M 12928,325 L 1907,325"/>
 <path fill="none" stroke="rgb(179,179,179)" stroke-linejoin="round" d="M 1907,6798 L 1907,6648"/>
 <path fill="none" stroke="rgb(179,179,179)" stroke-linejoin="round" d="M 1907,6798 L 1907,6648"/>
 <path fill="none" stroke="rgb(179,179,179)" stroke-linejoin="round" d="M 12928,6798 L 12928,6648"/>
 <path fill="none" stroke="rgb(179,179,179)" stroke-linejoin="round" d="M 12928,6798 L 12928,6648"/>
 <path fill="none" stroke="rgb(179,179,179)" stroke-linejoin="round" d="M 1907,6648 L 12928,6648"/>
 <path fill="none" stroke="rgb(179,179,179)" stroke-linejoin="round" d="M 1757,6648 L 1907,6648"/>
 <path fill="none" stroke="rgb(179,179,179)" stroke-linejoin="round" d="M 1757,6648 L 1907,6648"/>
 <path fill="none" stroke="rgb(179,179,179)" stroke-linejoin="round" d="M 1757,5383 L 1907,5383"/>
 <path fill="none" stroke="rgb(179,179,179)" stroke-linejoin="round" d="M 1757,5383 L 1907,5383"/>
 <path fill="none" stroke="rgb(179,179,179)" stroke-linejoin="round" d="M 1757,4118 L 1907,4118"/>
 <path fill="none" stroke="rgb(179,179,179)" stroke-linejoin="round" d="M 1757,4118 L 1907,4118"/>
 <path fill="none" stroke="rgb(179,179,179)" stroke-linejoin="round" d="M 1757,2854 L 1907,2854"/>
 <path fill="none" stroke="rgb(179,179,179)" stroke-linejoin="round" d="M 1757,2854 L 1907,2854"/>
 <path fill="none" stroke="rgb(179,179,179)" stroke-linejoin="round" d="M 1757,1589 L 1907,1589"/>
 <path fill="none" stroke="rgb(179,179,179)" stroke-linejoin="round" d="M 1757,1589 L 1907,1589"/>
 <path fill="none" stroke="rgb(179,179,179)" stroke-linejoin="round" d="M 1757,325 L 1907,325"/>
 <path fill="none" stroke="rgb(179,179,179)" stroke-linejoin="round" d="M 1757,325 L 1907,325"/>
 <path fill="none" stroke="rgb(179,179,179)" stroke-linejoin="round" d="M 1907,6648 L 1907,325"/>
 <path fill="rgb(220,53,69)" stroke="none" d="M 3009,6648 L 5213,6648 5213,4118 3009,4118 3009,6648 Z"/>
 <path fill="rgb(255,158,2)" stroke="none" d="M 5213,6648 L 7418,6648 7418,3097 5213,3097 5213,6648 Z"/>
 <path fill="rgb(12,50,44)" stroke="none" d="M 7418,6648 L 9621,6648 9621,2475 7418,2475 7418,6648 Z"/>
 <path fill="rgb(19,148,72)" stroke="none" d="M 9621,6648 L 11825,6648 11825,1854 9621,1854 9621,6648 Z"/>
 <text class="SVGTextShape"><tspan class="TextParagraph" font-family="Liberation Sans, sans-serif" font-size="353px" font-weight="400"><tspan class="TextPosition" x="493" y="6768"><tspan fill="rgb(0,0,0)" stroke="none" style="white-space: pre">80.00%</tspan></tspan></tspan></text>
 <text class="SVGTextShape"><tspan class="TextParagraph" font-family="Liberation Sans, sans-serif" font-size="353px" font-weight="400"><tspan class="TextPosition" x="493" y="5503"><tspan fill="rgb(0,0,0)" stroke="none" style="white-space: pre">90.00%</tspan></tspan></tspan></text>
 <text class="SVGTextShape"><tspan class="TextParagraph" font-family="Liberation Sans, sans-serif" font-size="353px" font-weight="400"><tspan class="TextPosition" x="308" y="4238"><tspan fill="rgb(0,0,0)" stroke="none" style="white-space: pre">100.00%</tspan></tspan></tspan></text>
 <text class="SVGTextShape"><tspan class="TextParagraph" font-family="Liberation Sans, sans-serif" font-size="353px" font-weight="400"><tspan class="TextPosition" x="308" y="2974"><tspan fill="rgb(0,0,0)" stroke="none" style="white-space: pre">110.00%</tspan></tspan></tspan></text>
 <text class="SVGTextShape"><tspan class="TextParagraph" font-family="Liberation Sans, sans-serif" font-size="353px" font-weight="400"><tspan class="TextPosition" x="308" y="1709"><tspan fill="rgb(0,0,0)" stroke="none" style="white-space: pre">120.00%</tspan></tspan></tspan></text>
 <text class="SVGTextShape"><tspan class="TextParagraph" font-family="Liberation Sans, sans-serif" font-size="353px" font-weight="400"><tspan class="TextPosition" x="308" y="445"><tspan fill="rgb(0,0,0)" stroke="none" style="white-space: pre">130.00%</tspan></tspan></tspan></text>
 <path fill="rgb(220,53,69)" stroke="none" d="M 13470,2845 L 13364,2845 13364,2634 13575,2634 13575,2845 13470,2845 Z"/>
 <path fill="rgb(255,158,2)" stroke="none" d="M 13470,3343 L 13364,3343 13364,3132 13575,3132 13575,3343 13470,3343 Z"/>
 <path fill="rgb(12,50,44)" stroke="none" d="M 13470,3840 L 13364,3840 13364,3629 13575,3629 13575,3840 13470,3840 Z"/>
 <path fill="rgb(19,148,72)" stroke="none" d="M 13470,4338 L 13364,4338 13364,4127 13575,4127 13575,4338 13470,4338 Z"/>
 <text class="SVGTextShape"><tspan class="TextParagraph" font-family="Liberation Sans, sans-serif" font-size="353px" font-weight="400"><tspan class="TextPosition" x="13675" y="2859"><tspan fill="rgb(0,0,0)" stroke="none" style="white-space: pre">LLVM </tspan></tspan></tspan></text>
 <text class="SVGTextShape"><tspan class="TextParagraph" font-family="Liberation Sans, sans-serif" font-size="353px" font-weight="400"><tspan class="TextPosition" x="13675" y="3357"><tspan fill="rgb(0,0,0)" stroke="none" style="white-space: pre">LLVM  (LTO)</tspan></tspan></tspan></text>
 <text class="SVGTextShape"><tspan class="TextParagraph" font-family="Liberation Sans, sans-serif" font-size="353px" font-weight="400"><tspan class="TextPosition" x="13675" y="3854"><tspan fill="rgb(0,0,0)" stroke="none" style="white-space: pre">GCC</tspan></tspan></tspan></text>
 <text class="SVGTextShape"><tspan class="TextParagraph" font-family="Liberation Sans, sans-serif" font-size="353px" font-weight="400"><tspan class="TextPosition" x="13675" y="4352"><tspan fill="rgb(0,0,0)" stroke="none" style="white-space: pre">GCC (LTO)</tspan></tspan></tspan></text>
</svg>