<?xml version="1.0" encoding="UTF-8"?>
<!DOCTYPE svg PUBLIC "-//W3C//DTD SVG 1.1//EN" "http://www.w3.org/Graphics/SVG/1.1/DTD/svg11.dtd">
<svg width="160mm" height="75mm" viewBox="0 0 16000 7500" version="1.1" xmlns="http://www.w3.org/2000/svg" xmlns:xlink="http://www.w3.org/1999/xlink" stroke-width="28.222" stroke-linejoin="round" xml:space="preserve">
 <path fill="rgb(255,255,255)" stroke="none" d="M 8000,7500 L 0,7500 0,1 16000,1 16000,7500 8000,7500 Z"/>
 <path fill="none" stroke="rgb(179,179,179)" stroke-linejoin="round" d="M 7675,6704 L 2714,6704 2714,151 12635,151 12635,6704 7675,6704 Z"/>
 <path fill="none" stroke="rgb(179,179,179)" stroke-linejoin="round" d="M 2714,149 L 2714,6702"/>
 <path fill="none" stroke="rgb(179,179,179)" stroke-linejoin="round" d="M 4131,149 L 4131,6702"/>
 <path fill="none" stroke="rgb(179,179,179)" stroke-linejoin="round" d="M 5548,149 L 5548,6702"/>
 <path fill="none" stroke="rgb(179,179,179)" stroke-linejoin="round" d="M 6966,149 L 6966,6702"/>
 <path fill="none" stroke="rgb(179,179,179)" stroke-linejoin="round" d="M 8382,149 L 8382,6702"/>
 <path fill="none" stroke="rgb(179,179,179)" stroke-linejoin="round" d="M 9800,149 L 9800,6702"/>
 <path fill="none" stroke="rgb(179,179,179)" stroke-linejoin="round" d="M 11217,149 L 11217,6702"/>
 <path fill="none" stroke="rgb(179,179,179)" stroke-linejoin="round" d="M 12635,149 L 12635,6702"/>
 <path fill="none" stroke="rgb(179,179,179)" stroke-linejoin="round" d="M 2564,149 L 2714,149"/>
 <path fill="none" stroke="rgb(179,179,179)" stroke-linejoin="round" d="M 2564,149 L 2714,149"/>
 <path fill="none" stroke="rgb(179,179,179)" stroke-linejoin="round" d="M 2564,1242 L 2714,1242"/>
 <path fill="none" stroke="rgb(179,179,179)" stroke-linejoin="round" d="M 2564,1242 L 2714,1242"/>
 <path fill="none" stroke="rgb(179,179,179)" stroke-linejoin="round" d="M 2564,2334 L 2714,2334"/>
 <path fill="none" stroke="rgb(179,179,179)" stroke-linejoin="round" d="M 2564,2334 L 2714,2334"/>
 <path fill="none" stroke="rgb(179,179,179)" stroke-linejoin="round" d="M 2564,3426 L 2714,3426"/>
 <path fill="none" stroke="rgb(179,179,179)" stroke-linejoin="round" d="M 2564,3426 L 2714,3426"/>
 <path fill="none" stroke="rgb(179,179,179)" stroke-linejoin="round" d="M 2564,4518 L 2714,4518"/>
 <path fill="none" stroke="rgb(179,179,179)" stroke-linejoin="round" d="M 2564,4518 L 2714,4518"/>
 <path fill="none" stroke="rgb(179,179,179)" stroke-linejoin="round" d="M 2564,5611 L 2714,5611"/>
 <path fill="none" stroke="rgb(179,179,179)" stroke-linejoin="round" d="M 2564,5611 L 2714,5611"/>
 <path fill="none" stroke="rgb(179,179,179)" stroke-linejoin="round" d="M 2564,6702 L 2714,6702"/>
 <path fill="none" stroke="rgb(179,179,179)" stroke-linejoin="round" d="M 2564,6702 L 2714,6702"/>
 <path fill="none" stroke="rgb(179,179,179)" stroke-linejoin="round" d="M 2714,6702 L 2714,149"/>
 <path fill="none" stroke="rgb(179,179,179)" stroke-linejoin="round" d="M 2714,6852 L 2714,6702"/>
 <path fill="none" stroke="rgb(179,179,179)" stroke-linejoin="round" d="M 2714,0 L 2714,149"/>
 <path fill="none" stroke="rgb(179,179,179)" stroke-linejoin="round" d="M 4131,6852 L 4131,6702"/>
 <path fill="none" stroke="rgb(179,179,179)" stroke-linejoin="round" d="M 4131,0 L 4131,149"/>
 <path fill="none" stroke="rgb(179,179,179)" stroke-linejoin="round" d="M 5548,6852 L 5548,6702"/>
 <path fill="none" stroke="rgb(179,179,179)" stroke-linejoin="round" d="M 5548,0 L 5548,149"/>
 <path fill="none" stroke="rgb(179,179,179)" stroke-linejoin="round" d="M 6966,6852 L 6966,6702"/>
 <path fill="none" stroke="rgb(179,179,179)" stroke-linejoin="round" d="M 6966,0 L 6966,149"/>
 <path fill="none" stroke="rgb(179,179,179)" stroke-linejoin="round" d="M 8382,6852 L 8382,6702"/>
 <path fill="none" stroke="rgb(179,179,179)" stroke-linejoin="round" d="M 8382,0 L 8382,149"/>
 <path fill="none" stroke="rgb(179,179,179)" stroke-linejoin="round" d="M 9800,6852 L 9800,6702"/>
 <path fill="none" stroke="rgb(179,179,179)" stroke-linejoin="round" d="M 9800,0 L 9800,149"/>
 <path fill="none" stroke="rgb(179,179,179)" stroke-linejoin="round" d="M 11217,6852 L 11217,6702"/>
 <path fill="none" stroke="rgb(179,179,179)" stroke-linejoin="round" d="M 11217,0 L 11217,149"/>
 <path fill="none" stroke="rgb(179,179,179)" stroke-linejoin="round" d="M 12635,6852 L 12635,6702"/>
 <path fill="none" stroke="rgb(179,179,179)" stroke-linejoin="round" d="M 12635,0 L 12635,149"/>
 <path fill="none" stroke="rgb(179,179,179)" stroke-linejoin="round" d="M 2714,149 L 12635,149"/>
 <path fill="rgb(220,53,69)" stroke="none" d="M 2714,5720 L 2714,5939 9800,5939 9800,5720 2714,5720 Z"/>
 <path fill="rgb(220,53,69)" stroke="none" d="M 2714,4628 L 2714,4846 9800,4846 9800,4628 2714,4628 Z"/>
 <path fill="rgb(220,53,69)" stroke="none" d="M 2714,3535 L 2714,3754 9800,3754 9800,3535 2714,3535 Z"/>
 <path fill="rgb(220,53,69)" stroke="none" d="M 2714,2444 L 2714,2662 9800,2662 9800,2444 2714,2444 Z"/>
 <path fill="rgb(220,53,69)" stroke="none" d="M 2714,1351 L 2714,1570 9800,1570 9800,1351 2714,1351 Z"/>
 <path fill="rgb(220,53,69)" stroke="none" d="M 2714,259 L 2714,477 9800,477 9800,259 2714,259 Z"/>
 <path fill="rgb(255,158,2)" stroke="none" d="M 2714,5939 L 2714,6156 9764,6156 9764,5939 2714,5939 Z"/>
 <path fill="rgb(255,158,2)" stroke="none" d="M 2714,4846 L 2714,5065 10421,5065 10421,4846 2714,4846 Z"/>
 <path fill="rgb(255,158,2)" stroke="none" d="M 2714,3754 L 2714,3972 9943,3972 9943,3754 2714,3754 Z"/>
 <path fill="rgb(255,158,2)" stroke="none" d="M 2714,2662 L 2714,2881 9788,2881 9788,2662 2714,2662 Z"/>
 <path fill="rgb(255,158,2)" stroke="none" d="M 2714,1570 L 2714,1788 9776,1788 9776,1570 2714,1570 Z"/>
 <path fill="rgb(255,158,2)" stroke="none" d="M 2714,477 L 2714,696 9785,696 9785,477 2714,477 Z"/>
 <path fill="rgb(19,148,72)" stroke="none" d="M 2714,6156 L 2714,6375 9117,6375 9117,6156 2714,6156 Z"/>
 <path fill="rgb(19,148,72)" stroke="none" d="M 2714,5065 L 2714,5283 10895,5283 10895,5065 2714,5065 Z"/>
 <path fill="rgb(19,148,72)" stroke="none" d="M 2714,3972 L 2714,4191 9358,4191 9358,3972 2714,3972 Z"/>
 <path fill="rgb(19,148,72)" stroke="none" d="M 2714,2881 L 2714,3098 10088,3098 10088,2881 2714,2881 Z"/>
 <path fill="rgb(19,148,72)" stroke="none" d="M 2714,1788 L 2714,2007 11126,2007 11126,1788 2714,1788 Z"/>
 <path fill="rgb(19,148,72)" stroke="none" d="M 2714,696 L 2714,914 9162,914 9162,696 2714,696 Z"/>
 <path fill="rgb(12,50,44)" stroke="none" d="M 2714,6375 L 2714,6593 8999,6593 8999,6375 2714,6375 Z"/>
 <path fill="rgb(12,50,44)" stroke="none" d="M 2714,5283 L 2714,5502 11000,5502 11000,5283 2714,5283 Z"/>
 <path fill="rgb(12,50,44)" stroke="none" d="M 2714,4191 L 2714,4409 9418,4409 9418,4191 2714,4191 Z"/>
 <path fill="rgb(12,50,44)" stroke="none" d="M 2714,3098 L 2714,3317 9915,3317 9915,3098 2714,3098 Z"/>
 <path fill="rgb(12,50,44)" stroke="none" d="M 2714,2007 L 2714,2225 11627,2225 11627,2007 2714,2007 Z"/>
 <path fill="rgb(12,50,44)" stroke="none" d="M 2714,914 L 2714,1133 9133,1133 9133,914 2714,914 Z"/>
 <text class="TextShape"><tspan class="TextParagraph" font-family="Liberation Sans, sans-serif" font-size="353px" font-weight="400"><tspan class="TextPosition" x="665" y="817"><tspan fill="rgb(0,0,0)" stroke="none">508.namd_r</tspan></tspan></tspan></text>
 <text class="TextShape"><tspan class="TextParagraph" font-family="Liberation Sans, sans-serif" font-size="353px" font-weight="400"><tspan class="TextPosition" x="559" y="1908"><tspan fill="rgb(0,0,0)" stroke="none">510.parest_r</tspan></tspan></tspan></text>
 <text class="TextShape"><tspan class="TextParagraph" font-family="Liberation Sans, sans-serif" font-size="353px" font-weight="400"><tspan class="TextPosition" x="956" y="3001"><tspan fill="rgb(0,0,0)" stroke="none">519.lbm_r</tspan></tspan></tspan></text>
 <text class="TextShape"><tspan class="TextParagraph" font-family="Liberation Sans, sans-serif" font-size="353px" font-weight="400"><tspan class="TextPosition" x="400" y="4093"><tspan fill="rgb(0,0,0)" stroke="none">526.blender_r</tspan></tspan></tspan></text>
 <text class="TextShape"><tspan class="TextParagraph" font-family="Liberation Sans, sans-serif" font-size="353px" font-weight="400"><tspan class="TextPosition" x="321" y="5185"><tspan fill="rgb(0,0,0)" stroke="none">538.imagick_r</tspan></tspan></tspan></text>
 <text class="TextShape"><tspan class="TextParagraph" font-family="Liberation Sans, sans-serif" font-size="353px" font-weight="400"><tspan class="TextPosition" x="956" y="6277"><tspan fill="rgb(0,0,0)" stroke="none">544.nab_r</tspan></tspan></tspan></text>
 <text class="TextShape"><tspan class="TextParagraph" font-family="Liberation Sans, sans-serif" font-size="353px" font-weight="400"><tspan class="TextPosition" x="2462" y="7270"><tspan fill="rgb(0,0,0)" stroke="none">0%</tspan></tspan></tspan></text>
 <text class="TextShape"><tspan class="TextParagraph" font-family="Liberation Sans, sans-serif" font-size="353px" font-weight="400"><tspan class="TextPosition" x="3787" y="7270"><tspan fill="rgb(0,0,0)" stroke="none">20%</tspan></tspan></tspan></text>
 <text class="TextShape"><tspan class="TextParagraph" font-family="Liberation Sans, sans-serif" font-size="353px" font-weight="400"><tspan class="TextPosition" x="5204" y="7270"><tspan fill="rgb(0,0,0)" stroke="none">40%</tspan></tspan></tspan></text>
 <text class="TextShape"><tspan class="TextParagraph" font-family="Liberation Sans, sans-serif" font-size="353px" font-weight="400"><tspan class="TextPosition" x="6622" y="7270"><tspan fill="rgb(0,0,0)" stroke="none">60%</tspan></tspan></tspan></text>
 <text class="TextShape"><tspan class="TextParagraph" font-family="Liberation Sans, sans-serif" font-size="353px" font-weight="400"><tspan class="TextPosition" x="8039" y="7270"><tspan fill="rgb(0,0,0)" stroke="none">80%</tspan></tspan></tspan></text>
 <text class="TextShape"><tspan class="TextParagraph" font-family="Liberation Sans, sans-serif" font-size="353px" font-weight="400"><tspan class="TextPosition" x="9364" y="7270"><tspan fill="rgb(0,0,0)" stroke="none">100%</tspan></tspan></tspan></text>
 <text class="TextShape"><tspan class="TextParagraph" font-family="Liberation Sans, sans-serif" font-size="353px" font-weight="400"><tspan class="TextPosition" x="10781" y="7270"><tspan fill="rgb(0,0,0)" stroke="none">120%</tspan></tspan></tspan></text>
 <text class="TextShape"><tspan class="TextParagraph" font-family="Liberation Sans, sans-serif" font-size="353px" font-weight="400"><tspan class="TextPosition" x="12199" y="7270"><tspan fill="rgb(0,0,0)" stroke="none">140%</tspan></tspan></tspan></text>
 <path fill="rgb(220,53,69)" stroke="none" d="M 13615,4602 L 13509,4602 13509,4391 13720,4391 13720,4602 13615,4602 Z"/>
 <path fill="rgb(255,158,2)" stroke="none" d="M 13615,4104 L 13509,4104 13509,3893 13720,3893 13720,4104 13615,4104 Z"/>
 <path fill="rgb(19,148,72)" stroke="none" d="M 13615,3606 L 13509,3606 13509,3395 13720,3395 13720,3606 13615,3606 Z"/>
 <path fill="rgb(12,50,44)" stroke="none" d="M 13615,3108 L 13509,3108 13509,2898 13720,2898 13720,3108 13615,3108 Z"/>
 <text class="TextShape"><tspan class="TextParagraph" font-family="Liberation Sans, sans-serif" font-size="353px" font-weight="400"><tspan class="TextPosition" x="13820" y="3122"><tspan fill="rgb(0,0,0)" stroke="none">GCC (LTO)</tspan></tspan></tspan></text>
 <text class="TextShape"><tspan class="TextParagraph" font-family="Liberation Sans, sans-serif" font-size="353px" font-weight="400"><tspan class="TextPosition" x="13820" y="3620"><tspan fill="rgb(0,0,0)" stroke="none">GCC</tspan></tspan></tspan></text>
 <text class="TextShape"><tspan class="TextParagraph" font-family="Liberation Sans, sans-serif" font-size="353px" font-weight="400"><tspan class="TextPosition" x="13820" y="4118"><tspan fill="rgb(0,0,0)" stroke="none">Clang (LTO)</tspan></tspan></tspan></text>
 <text class="TextShape"><tspan class="TextParagraph" font-family="Liberation Sans, sans-serif" font-size="353px" font-weight="400"><tspan class="TextPosition" x="13820" y="4616"><tspan fill="rgb(0,0,0)" stroke="none">Clang</tspan></tspan></tspan></text>
</svg>