<?xml version="1.0" encoding="UTF-8"?>
<!DOCTYPE svg PUBLIC "-//W3C//DTD SVG 1.1//EN" "http://www.w3.org/Graphics/SVG/1.1/DTD/svg11.dtd">
<svg width="160mm" height="140mm" viewBox="0 0 16000 14000" version="1.1" xmlns="http://www.w3.org/2000/svg" xmlns:xlink="http://www.w3.org/1999/xlink" stroke-width="28.222" stroke-linejoin="round" xml:space="preserve">
 <path fill="rgb(255,255,255)" stroke="none" d="M 7987,13987 L -13,13987 -13,-13 15986,-13 15986,13987 7987,13987 Z"/>
 <path fill="none" stroke="rgb(179,179,179)" stroke-linejoin="round" d="M 7984,13060 L 3292,13060 3292,267 12675,267 12675,13060 7984,13060 Z"/>
 <path fill="none" stroke="rgb(179,179,179)" stroke-linejoin="round" d="M 3292,265 L 3292,13059"/>
 <path fill="none" stroke="rgb(179,179,179)" stroke-linejoin="round" d="M 4543,265 L 4543,13059"/>
 <path fill="none" stroke="rgb(179,179,179)" stroke-linejoin="round" d="M 5794,265 L 5794,13059"/>
 <path fill="none" stroke="rgb(179,179,179)" stroke-linejoin="round" d="M 7045,265 L 7045,13059"/>
 <path fill="none" stroke="rgb(179,179,179)" stroke-linejoin="round" d="M 8295,265 L 8295,13059"/>
 <path fill="none" stroke="rgb(179,179,179)" stroke-linejoin="round" d="M 9547,265 L 9547,13059"/>
 <path fill="none" stroke="rgb(179,179,179)" stroke-linejoin="round" d="M 10798,265 L 10798,13059"/>
 <path fill="none" stroke="rgb(179,179,179)" stroke-linejoin="round" d="M 12049,265 L 12049,13059"/>
 <path fill="none" stroke="rgb(179,179,179)" stroke-linejoin="round" d="M 3142,265 L 3292,265"/>
 <path fill="none" stroke="rgb(179,179,179)" stroke-linejoin="round" d="M 3142,265 L 3292,265"/>
 <path fill="none" stroke="rgb(179,179,179)" stroke-linejoin="round" d="M 3142,1250 L 3292,1250"/>
 <path fill="none" stroke="rgb(179,179,179)" stroke-linejoin="round" d="M 3142,1250 L 3292,1250"/>
 <path fill="none" stroke="rgb(179,179,179)" stroke-linejoin="round" d="M 3142,2234 L 3292,2234"/>
 <path fill="none" stroke="rgb(179,179,179)" stroke-linejoin="round" d="M 3142,2234 L 3292,2234"/>
 <path fill="none" stroke="rgb(179,179,179)" stroke-linejoin="round" d="M 3142,3218 L 3292,3218"/>
 <path fill="none" stroke="rgb(179,179,179)" stroke-linejoin="round" d="M 3142,3218 L 3292,3218"/>
 <path fill="none" stroke="rgb(179,179,179)" stroke-linejoin="round" d="M 3142,4202 L 3292,4202"/>
 <path fill="none" stroke="rgb(179,179,179)" stroke-linejoin="round" d="M 3142,4202 L 3292,4202"/>
 <path fill="none" stroke="rgb(179,179,179)" stroke-linejoin="round" d="M 3142,5186 L 3292,5186"/>
 <path fill="none" stroke="rgb(179,179,179)" stroke-linejoin="round" d="M 3142,5186 L 3292,5186"/>
 <path fill="none" stroke="rgb(179,179,179)" stroke-linejoin="round" d="M 3142,6170 L 3292,6170"/>
 <path fill="none" stroke="rgb(179,179,179)" stroke-linejoin="round" d="M 3142,6170 L 3292,6170"/>
 <path fill="none" stroke="rgb(179,179,179)" stroke-linejoin="round" d="M 3142,7154 L 3292,7154"/>
 <path fill="none" stroke="rgb(179,179,179)" stroke-linejoin="round" d="M 3142,7154 L 3292,7154"/>
 <path fill="none" stroke="rgb(179,179,179)" stroke-linejoin="round" d="M 3142,8138 L 3292,8138"/>
 <path fill="none" stroke="rgb(179,179,179)" stroke-linejoin="round" d="M 3142,8138 L 3292,8138"/>
 <path fill="none" stroke="rgb(179,179,179)" stroke-linejoin="round" d="M 3142,9122 L 3292,9122"/>
 <path fill="none" stroke="rgb(179,179,179)" stroke-linejoin="round" d="M 3142,9122 L 3292,9122"/>
 <path fill="none" stroke="rgb(179,179,179)" stroke-linejoin="round" d="M 3142,10106 L 3292,10106"/>
 <path fill="none" stroke="rgb(179,179,179)" stroke-linejoin="round" d="M 3142,10106 L 3292,10106"/>
 <path fill="none" stroke="rgb(179,179,179)" stroke-linejoin="round" d="M 3142,11090 L 3292,11090"/>
 <path fill="none" stroke="rgb(179,179,179)" stroke-linejoin="round" d="M 3142,11090 L 3292,11090"/>
 <path fill="none" stroke="rgb(179,179,179)" stroke-linejoin="round" d="M 3142,12074 L 3292,12074"/>
 <path fill="none" stroke="rgb(179,179,179)" stroke-linejoin="round" d="M 3142,12074 L 3292,12074"/>
 <path fill="none" stroke="rgb(179,179,179)" stroke-linejoin="round" d="M 3142,13059 L 3292,13059"/>
 <path fill="none" stroke="rgb(179,179,179)" stroke-linejoin="round" d="M 3142,13059 L 3292,13059"/>
 <path fill="none" stroke="rgb(179,179,179)" stroke-linejoin="round" d="M 3292,13059 L 3292,265"/>
 <path fill="none" stroke="rgb(179,179,179)" stroke-linejoin="round" d="M 3292,13209 L 3292,13059"/>
 <path fill="none" stroke="rgb(179,179,179)" stroke-linejoin="round" d="M 3292,115 L 3292,265"/>
 <path fill="none" stroke="rgb(179,179,179)" stroke-linejoin="round" d="M 4543,13209 L 4543,13059"/>
 <path fill="none" stroke="rgb(179,179,179)" stroke-linejoin="round" d="M 4543,115 L 4543,265"/>
 <path fill="none" stroke="rgb(179,179,179)" stroke-linejoin="round" d="M 5794,13209 L 5794,13059"/>
 <path fill="none" stroke="rgb(179,179,179)" stroke-linejoin="round" d="M 5794,115 L 5794,265"/>
 <path fill="none" stroke="rgb(179,179,179)" stroke-linejoin="round" d="M 7045,13209 L 7045,13059"/>
 <path fill="none" stroke="rgb(179,179,179)" stroke-linejoin="round" d="M 7045,115 L 7045,265"/>
 <path fill="none" stroke="rgb(179,179,179)" stroke-linejoin="round" d="M 8295,13209 L 8295,13059"/>
 <path fill="none" stroke="rgb(179,179,179)" stroke-linejoin="round" d="M 8295,115 L 8295,265"/>
 <path fill="none" stroke="rgb(179,179,179)" stroke-linejoin="round" d="M 9547,13209 L 9547,13059"/>
 <path fill="none" stroke="rgb(179,179,179)" stroke-linejoin="round" d="M 9547,115 L 9547,265"/>
 <path fill="none" stroke="rgb(179,179,179)" stroke-linejoin="round" d="M 10798,13209 L 10798,13059"/>
 <path fill="none" stroke="rgb(179,179,179)" stroke-linejoin="round" d="M 10798,115 L 10798,265"/>
 <path fill="none" stroke="rgb(179,179,179)" stroke-linejoin="round" d="M 12049,13209 L 12049,13059"/>
 <path fill="none" stroke="rgb(179,179,179)" stroke-linejoin="round" d="M 12049,115 L 12049,265"/>
 <path fill="none" stroke="rgb(179,179,179)" stroke-linejoin="round" d="M 3292,265 L 12675,265"/>
 <path fill="rgb(220,53,69)" stroke="none" d="M 3292,364 L 3292,561 9547,561 9547,364 3292,364 Z"/>
 <path fill="rgb(220,53,69)" stroke="none" d="M 3292,1348 L 3292,1545 9547,1545 9547,1348 3292,1348 Z"/>
 <path fill="rgb(220,53,69)" stroke="none" d="M 3292,2332 L 3292,2529 9547,2529 9547,2332 3292,2332 Z"/>
 <path fill="rgb(220,53,69)" stroke="none" d="M 3292,3316 L 3292,3513 9547,3513 9547,3316 3292,3316 Z"/>
 <path fill="rgb(220,53,69)" stroke="none" d="M 3292,4301 L 3292,4497 9547,4497 9547,4301 3292,4301 Z"/>
 <path fill="rgb(220,53,69)" stroke="none" d="M 3292,5285 L 3292,5482 9547,5482 9547,5285 3292,5285 Z"/>
 <path fill="rgb(220,53,69)" stroke="none" d="M 3292,6269 L 3292,6466 9547,6466 9547,6269 3292,6269 Z"/>
 <path fill="rgb(220,53,69)" stroke="none" d="M 3292,7252 L 3292,7449 9547,7449 9547,7252 3292,7252 Z"/>
 <path fill="rgb(220,53,69)" stroke="none" d="M 3292,8236 L 3292,8433 9547,8433 9547,8236 3292,8236 Z"/>
 <path fill="rgb(220,53,69)" stroke="none" d="M 3292,9220 L 3292,9417 9547,9417 9547,9220 3292,9220 Z"/>
 <path fill="rgb(220,53,69)" stroke="none" d="M 3292,10204 L 3292,10401 9547,10401 9547,10204 3292,10204 Z"/>
 <path fill="rgb(220,53,69)" stroke="none" d="M 3292,11189 L 3292,11385 9547,11385 9547,11189 3292,11189 Z"/>
 <path fill="rgb(220,53,69)" stroke="none" d="M 3292,12173 L 3292,12370 9547,12370 9547,12173 3292,12173 Z"/>
 <path fill="rgb(255,158,2)" stroke="none" d="M 3292,561 L 3292,758 10488,758 10488,561 3292,561 Z"/>
 <path fill="rgb(255,158,2)" stroke="none" d="M 3292,1545 L 3292,1742 9536,1742 9536,1545 3292,1545 Z"/>
 <path fill="rgb(255,158,2)" stroke="none" d="M 3292,2529 L 3292,2726 9589,2726 9589,2529 3292,2529 Z"/>
 <path fill="rgb(255,158,2)" stroke="none" d="M 3292,3513 L 3292,3710 9813,3710 9813,3513 3292,3513 Z"/>
 <path fill="rgb(255,158,2)" stroke="none" d="M 3292,4497 L 3292,4694 10014,4694 10014,4497 3292,4497 Z"/>
 <path fill="rgb(255,158,2)" stroke="none" d="M 3292,5482 L 3292,5678 9381,5678 9381,5482 3292,5482 Z"/>
 <path fill="rgb(255,158,2)" stroke="none" d="M 3292,6466 L 3292,6662 9055,6662 9055,6466 3292,6466 Z"/>
 <path fill="rgb(255,158,2)" stroke="none" d="M 3292,7449 L 3292,7646 9473,7646 9473,7449 3292,7449 Z"/>
 <path fill="rgb(255,158,2)" stroke="none" d="M 3292,8433 L 3292,8630 9622,8630 9622,8433 3292,8433 Z"/>
 <path fill="rgb(255,158,2)" stroke="none" d="M 3292,9417 L 3292,9614 9835,9614 9835,9417 3292,9417 Z"/>
 <path fill="rgb(255,158,2)" stroke="none" d="M 3292,10401 L 3292,10598 8876,10598 8876,10401 3292,10401 Z"/>
 <path fill="rgb(255,158,2)" stroke="none" d="M 3292,11385 L 3292,11582 9555,11582 9555,11385 3292,11385 Z"/>
 <path fill="rgb(255,158,2)" stroke="none" d="M 3292,12370 L 3292,12566 9604,12566 9604,12370 3292,12370 Z"/>
 <path fill="rgb(12,50,44)" stroke="none" d="M 3292,758 L 3292,954 10541,954 10541,758 3292,758 Z"/>
 <path fill="rgb(12,50,44)" stroke="none" d="M 3292,1742 L 3292,1939 9635,1939 9635,1742 3292,1742 Z"/>
 <path fill="rgb(12,50,44)" stroke="none" d="M 3292,2726 L 3292,2923 9412,2923 9412,2726 3292,2726 Z"/>
 <path fill="rgb(12,50,44)" stroke="none" d="M 3292,3710 L 3292,3907 12216,3907 12216,3710 3292,3710 Z"/>
 <path fill="rgb(12,50,44)" stroke="none" d="M 3292,4694 L 3292,4891 9471,4891 9471,4694 3292,4694 Z"/>
 <path fill="rgb(12,50,44)" stroke="none" d="M 3292,5678 L 3292,5875 10128,5875 10128,5678 3292,5678 Z"/>
 <path fill="rgb(12,50,44)" stroke="none" d="M 3292,6663 L 3292,6859 11244,6859 11244,6663 3292,6663 Z"/>
 <path fill="rgb(12,50,44)" stroke="none" d="M 3292,7646 L 3292,7842 9436,7842 9436,7646 3292,7646 Z"/>
 <path fill="rgb(12,50,44)" stroke="none" d="M 3292,8630 L 3292,8827 10323,8827 10323,8630 3292,8630 Z"/>
 <path fill="rgb(12,50,44)" stroke="none" d="M 3292,9614 L 3292,9811 12675,9811 12675,9614 3292,9614 Z"/>
 <path fill="rgb(12,50,44)" stroke="none" d="M 3292,10598 L 3292,10795 10799,10795 10799,10598 3292,10598 Z"/>
 <path fill="rgb(12,50,44)" stroke="none" d="M 3292,11582 L 3292,11779 11907,11779 11907,11582 3292,11582 Z"/>
 <path fill="rgb(12,50,44)" stroke="none" d="M 3292,12566 L 3292,12763 12675,12763 12675,12566 3292,12566 Z"/>
 <path fill="rgb(19,148,72)" stroke="none" d="M 3292,954 L 3292,1151 10652,1151 10652,954 3292,954 Z"/>
 <path fill="rgb(19,148,72)" stroke="none" d="M 3292,1939 L 3292,2135 9676,2135 9676,1939 3292,1939 Z"/>
 <path fill="rgb(19,148,72)" stroke="none" d="M 3292,2923 L 3292,3120 9412,3120 9412,2923 3292,2923 Z"/>
 <path fill="rgb(19,148,72)" stroke="none" d="M 3292,3907 L 3292,4104 12454,4104 12454,3907 3292,3907 Z"/>
 <path fill="rgb(19,148,72)" stroke="none" d="M 3292,4891 L 3292,5088 10051,5088 10051,4891 3292,4891 Z"/>
 <path fill="rgb(19,148,72)" stroke="none" d="M 3292,5875 L 3292,6072 9868,6072 9868,5875 3292,5875 Z"/>
 <path fill="rgb(19,148,72)" stroke="none" d="M 3292,6859 L 3292,7055 11418,7055 11418,6859 3292,6859 Z"/>
 <path fill="rgb(19,148,72)" stroke="none" d="M 3292,7842 L 3292,8039 9540,8039 9540,7842 3292,7842 Z"/>
 <path fill="rgb(19,148,72)" stroke="none" d="M 3292,8827 L 3292,9023 10550,9023 10550,8827 3292,8827 Z"/>
 <path fill="rgb(19,148,72)" stroke="none" d="M 3292,9811 L 3292,10008 12675,10008 12675,9811 3292,9811 Z"/>
 <path fill="rgb(19,148,72)" stroke="none" d="M 3292,10795 L 3292,10992 10614,10992 10614,10795 3292,10795 Z"/>
 <path fill="rgb(19,148,72)" stroke="none" d="M 3292,11779 L 3292,11976 11887,11976 11887,11779 3292,11779 Z"/>
 <path fill="rgb(19,148,72)" stroke="none" d="M 3292,12763 L 3292,12960 12675,12960 12675,12763 3292,12763 Z"/>
 <text class="SVGTextShape"><tspan class="TextParagraph"><tspan class="TextPosition" x="900" y="879"><tspan font-family="Liberation Sans, sans-serif" font-size="353px" font-weight="400" fill="rgb(0,0,0)" stroke="none" style="white-space: pre">503.bwaves_r</tspan></tspan></tspan></text>
 <text class="SVGTextShape"><tspan class="TextParagraph"><tspan class="TextPosition" x="308" y="1863"><tspan font-family="Liberation Sans, sans-serif" font-size="353px" font-weight="400" fill="rgb(0,0,0)" stroke="none" style="white-space: pre">507.cactuBSSN_r</tspan></tspan></tspan></text>
 <text class="SVGTextShape"><tspan class="TextParagraph"><tspan class="TextPosition" x="1206" y="2847"><tspan font-family="Liberation Sans, sans-serif" font-size="353px" font-weight="400" fill="rgb(0,0,0)" stroke="none" style="white-space: pre">508.namd_r</tspan></tspan></tspan></text>
 <text class="SVGTextShape"><tspan class="TextParagraph"><tspan class="TextPosition" x="1111" y="3831"><tspan font-family="Liberation Sans, sans-serif" font-size="353px" font-weight="400" fill="rgb(0,0,0)" stroke="none" style="white-space: pre">510.parest_r</tspan></tspan></tspan></text>
 <text class="SVGTextShape"><tspan class="TextParagraph"><tspan class="TextPosition" x="1034" y="4815"><tspan font-family="Liberation Sans, sans-serif" font-size="353px" font-weight="400" fill="rgb(0,0,0)" stroke="none" style="white-space: pre">511.povray_r</tspan></tspan></tspan></text>
 <text class="SVGTextShape"><tspan class="TextParagraph"><tspan class="TextPosition" x="1512" y="5799"><tspan font-family="Liberation Sans, sans-serif" font-size="353px" font-weight="400" fill="rgb(0,0,0)" stroke="none" style="white-space: pre">519.lbm_r</tspan></tspan></tspan></text>
 <text class="SVGTextShape"><tspan class="TextParagraph"><tspan class="TextPosition" x="1608" y="6783"><tspan font-family="Liberation Sans, sans-serif" font-size="353px" font-weight="400" fill="rgb(0,0,0)" stroke="none" style="white-space: pre">521.wrf_r</tspan></tspan></tspan></text>
 <text class="SVGTextShape"><tspan class="TextParagraph"><tspan class="TextPosition" x="919" y="7767"><tspan font-family="Liberation Sans, sans-serif" font-size="353px" font-weight="400" fill="rgb(0,0,0)" stroke="none" style="white-space: pre">526.blender_r</tspan></tspan></tspan></text>
 <text class="SVGTextShape"><tspan class="TextParagraph"><tspan class="TextPosition" x="1226" y="8751"><tspan font-family="Liberation Sans, sans-serif" font-size="353px" font-weight="400" fill="rgb(0,0,0)" stroke="none" style="white-space: pre">527.cam4_r</tspan></tspan></tspan></text>
 <text class="SVGTextShape"><tspan class="TextParagraph"><tspan class="TextPosition" x="901" y="9735"><tspan font-family="Liberation Sans, sans-serif" font-size="353px" font-weight="400" fill="rgb(0,0,0)" stroke="none" style="white-space: pre">538.imagick_r</tspan></tspan></tspan></text>
 <text class="SVGTextShape"><tspan class="TextParagraph"><tspan class="TextPosition" x="1493" y="10719"><tspan font-family="Liberation Sans, sans-serif" font-size="353px" font-weight="400" fill="rgb(0,0,0)" stroke="none" style="white-space: pre">544.nab_r</tspan></tspan></tspan></text>
 <text class="SVGTextShape"><tspan class="TextParagraph"><tspan class="TextPosition" x="671" y="11703"><tspan font-family="Liberation Sans, sans-serif" font-size="353px" font-weight="400" fill="rgb(0,0,0)" stroke="none" style="white-space: pre">549.fotonik3d_r</tspan></tspan></tspan></text>
 <text class="SVGTextShape"><tspan class="TextParagraph"><tspan class="TextPosition" x="1302" y="12687"><tspan font-family="Liberation Sans, sans-serif" font-size="353px" font-weight="400" fill="rgb(0,0,0)" stroke="none" style="white-space: pre">554.roms_r</tspan></tspan></tspan></text>
 <text class="SVGTextShape"><tspan class="TextParagraph"><tspan class="TextPosition" x="3044" y="13627"><tspan font-family="Liberation Sans, sans-serif" font-size="353px" font-weight="400" fill="rgb(0,0,0)" stroke="none" style="white-space: pre">0%</tspan></tspan></tspan></text>
 <text class="SVGTextShape"><tspan class="TextParagraph"><tspan class="TextPosition" x="4200" y="13627"><tspan font-family="Liberation Sans, sans-serif" font-size="353px" font-weight="400" fill="rgb(0,0,0)" stroke="none" style="white-space: pre">20%</tspan></tspan></tspan></text>
 <text class="SVGTextShape"><tspan class="TextParagraph"><tspan class="TextPosition" x="5451" y="13627"><tspan font-family="Liberation Sans, sans-serif" font-size="353px" font-weight="400" fill="rgb(0,0,0)" stroke="none" style="white-space: pre">40%</tspan></tspan></tspan></text>
 <text class="SVGTextShape"><tspan class="TextParagraph"><tspan class="TextPosition" x="6702" y="13627"><tspan font-family="Liberation Sans, sans-serif" font-size="353px" font-weight="400" fill="rgb(0,0,0)" stroke="none" style="white-space: pre">60%</tspan></tspan></tspan></text>
 <text class="SVGTextShape"><tspan class="TextParagraph"><tspan class="TextPosition" x="7953" y="13627"><tspan font-family="Liberation Sans, sans-serif" font-size="353px" font-weight="400" fill="rgb(0,0,0)" stroke="none" style="white-space: pre">80%</tspan></tspan></tspan></text>
 <text class="SVGTextShape"><tspan class="TextParagraph"><tspan class="TextPosition" x="9108" y="13627"><tspan font-family="Liberation Sans, sans-serif" font-size="353px" font-weight="400" fill="rgb(0,0,0)" stroke="none" style="white-space: pre">100%</tspan></tspan></tspan></text>
 <text class="SVGTextShape"><tspan class="TextParagraph"><tspan class="TextPosition" x="10359" y="13627"><tspan font-family="Liberation Sans, sans-serif" font-size="353px" font-weight="400" fill="rgb(0,0,0)" stroke="none" style="white-space: pre">120%</tspan></tspan></tspan></text>
 <text class="SVGTextShape"><tspan class="TextParagraph"><tspan class="TextPosition" x="11610" y="13627"><tspan font-family="Liberation Sans, sans-serif" font-size="353px" font-weight="400" fill="rgb(0,0,0)" stroke="none" style="white-space: pre">140%</tspan></tspan></tspan></text>
 <path fill="rgb(220,53,69)" stroke="none" d="M 13217,7838 L 13111,7838 13111,7627 13322,7627 13322,7838 13217,7838 Z"/>
 <path fill="rgb(255,158,2)" stroke="none" d="M 13217,7340 L 13111,7340 13111,7129 13322,7129 13322,7340 13217,7340 Z"/>
 <path fill="rgb(12,50,44)" stroke="none" d="M 13217,6843 L 13111,6843 13111,6632 13322,6632 13322,6843 13217,6843 Z"/>
 <path fill="rgb(19,148,72)" stroke="none" d="M 13217,6345 L 13111,6345 13111,6134 13322,6134 13322,6345 13217,6345 Z"/>
 <text class="SVGTextShape"><tspan class="TextParagraph"><tspan class="TextPosition" x="13422" y="6359"><tspan font-family="Liberation Sans, sans-serif" font-size="353px" font-weight="400" fill="rgb(0,0,0)" stroke="none" style="white-space: pre">GCC 14 (LTO)</tspan></tspan></tspan></text>
 <text class="SVGTextShape"><tspan class="TextParagraph"><tspan class="TextPosition" x="13422" y="6857"><tspan font-family="Liberation Sans, sans-serif" font-size="353px" font-weight="400" fill="rgb(0,0,0)" stroke="none" style="white-space: pre">GCC 14</tspan></tspan></tspan></text>
 <text class="SVGTextShape"><tspan class="TextParagraph"><tspan class="TextPosition" x="13422" y="7354"><tspan font-family="Liberation Sans, sans-serif" font-size="353px" font-weight="400" fill="rgb(0,0,0)" stroke="none" style="white-space: pre">GCC 7 (LTO)</tspan></tspan></tspan></text>
 <text class="SVGTextShape"><tspan class="TextParagraph"><tspan class="TextPosition" x="13422" y="7852"><tspan font-family="Liberation Sans, sans-serif" font-size="353px" font-weight="400" fill="rgb(0,0,0)" stroke="none" style="white-space: pre">GCC 7</tspan></tspan></tspan></text>
</svg>