<?xml version="1.0" encoding="UTF-8"?>
<!DOCTYPE svg PUBLIC "-//W3C//DTD SVG 1.1//EN" "http://www.w3.org/Graphics/SVG/1.1/DTD/svg11.dtd">
<svg width="160mm" height="70mm" viewBox="0 0 16000 7000" version="1.1" xmlns="http://www.w3.org/2000/svg" xmlns:xlink="http://www.w3.org/1999/xlink" stroke-width="28.222" stroke-linejoin="round" xml:space="preserve">
 <path fill="rgb(255,255,255)" stroke="none" d="M 7987,6987 L -13,6987 -13,-13 15987,-13 15987,6987 7987,6987 Z"/>
 <path fill="none" stroke="rgb(179,179,179)" stroke-linejoin="round" d="M 7352,6649 L 1431,6649 1431,326 13272,326 13272,6649 7352,6649 Z"/>
 <path fill="none" stroke="rgb(179,179,179)" stroke-linejoin="round" d="M 13272,6648 L 1431,6648"/>
 <path fill="none" stroke="rgb(179,179,179)" stroke-linejoin="round" d="M 13272,5383 L 1431,5383"/>
 <path fill="none" stroke="rgb(179,179,179)" stroke-linejoin="round" d="M 13272,4118 L 1431,4118"/>
 <path fill="none" stroke="rgb(179,179,179)" stroke-linejoin="round" d="M 13272,2854 L 1431,2854"/>
 <path fill="none" stroke="rgb(179,179,179)" stroke-linejoin="round" d="M 13272,1589 L 1431,1589"/>
 <path fill="none" stroke="rgb(179,179,179)" stroke-linejoin="round" d="M 13272,325 L 1431,325"/>
 <path fill="none" stroke="rgb(179,179,179)" stroke-linejoin="round" d="M 1431,6798 L 1431,6648"/>
 <path fill="none" stroke="rgb(179,179,179)" stroke-linejoin="round" d="M 1431,6798 L 1431,6648"/>
 <path fill="none" stroke="rgb(179,179,179)" stroke-linejoin="round" d="M 13272,6798 L 13272,6648"/>
 <path fill="none" stroke="rgb(179,179,179)" stroke-linejoin="round" d="M 13272,6798 L 13272,6648"/>
 <path fill="none" stroke="rgb(179,179,179)" stroke-linejoin="round" d="M 1431,6648 L 13272,6648"/>
 <path fill="none" stroke="rgb(179,179,179)" stroke-linejoin="round" d="M 1281,6648 L 1431,6648"/>
 <path fill="none" stroke="rgb(179,179,179)" stroke-linejoin="round" d="M 1281,6648 L 1431,6648"/>
 <path fill="none" stroke="rgb(179,179,179)" stroke-linejoin="round" d="M 1281,5383 L 1431,5383"/>
 <path fill="none" stroke="rgb(179,179,179)" stroke-linejoin="round" d="M 1281,5383 L 1431,5383"/>
 <path fill="none" stroke="rgb(179,179,179)" stroke-linejoin="round" d="M 1281,4118 L 1431,4118"/>
 <path fill="none" stroke="rgb(179,179,179)" stroke-linejoin="round" d="M 1281,4118 L 1431,4118"/>
 <path fill="none" stroke="rgb(179,179,179)" stroke-linejoin="round" d="M 1281,2854 L 1431,2854"/>
 <path fill="none" stroke="rgb(179,179,179)" stroke-linejoin="round" d="M 1281,2854 L 1431,2854"/>
 <path fill="none" stroke="rgb(179,179,179)" stroke-linejoin="round" d="M 1281,1589 L 1431,1589"/>
 <path fill="none" stroke="rgb(179,179,179)" stroke-linejoin="round" d="M 1281,1589 L 1431,1589"/>
 <path fill="none" stroke="rgb(179,179,179)" stroke-linejoin="round" d="M 1281,325 L 1431,325"/>
 <path fill="none" stroke="rgb(179,179,179)" stroke-linejoin="round" d="M 1281,325 L 1431,325"/>
 <path fill="none" stroke="rgb(179,179,179)" stroke-linejoin="round" d="M 1431,6648 L 1431,325"/>
 <path fill="rgb(12,50,44)" stroke="none" d="M 2615,6648 L 4983,6648 4983,4118 2615,4118 2615,6648 Z"/>
 <path fill="rgb(19,148,72)" stroke="none" d="M 4983,6648 L 7352,6648 7352,3568 4983,3568 4983,6648 Z"/>
 <path fill="rgb(255,193,8)" stroke="none" d="M 7352,6648 L 9719,6648 9719,3816 7352,3816 7352,6648 Z"/>
 <path fill="rgb(0,138,207)" stroke="none" d="M 9719,6648 L 12087,6648 12087,3001 9719,3001 9719,6648 Z"/>
 <text class="SVGTextShape"><tspan class="TextParagraph" font-family="Liberation Sans, sans-serif" font-size="353px" font-weight="400"><tspan class="TextPosition" x="493" y="6768"><tspan fill="rgb(0,0,0)" stroke="none" style="white-space: pre">80%</tspan></tspan></tspan></text>
 <text class="SVGTextShape"><tspan class="TextParagraph" font-family="Liberation Sans, sans-serif" font-size="353px" font-weight="400"><tspan class="TextPosition" x="493" y="5503"><tspan fill="rgb(0,0,0)" stroke="none" style="white-space: pre">90%</tspan></tspan></tspan></text>
 <text class="SVGTextShape"><tspan class="TextParagraph" font-family="Liberation Sans, sans-serif" font-size="353px" font-weight="400"><tspan class="TextPosition" x="308" y="4238"><tspan fill="rgb(0,0,0)" stroke="none" style="white-space: pre">100%</tspan></tspan></tspan></text>
 <text class="SVGTextShape"><tspan class="TextParagraph" font-family="Liberation Sans, sans-serif" font-size="353px" font-weight="400"><tspan class="TextPosition" x="308" y="2974"><tspan fill="rgb(0,0,0)" stroke="none" style="white-space: pre">110%</tspan></tspan></tspan></text>
 <text class="SVGTextShape"><tspan class="TextParagraph" font-family="Liberation Sans, sans-serif" font-size="353px" font-weight="400"><tspan class="TextPosition" x="308" y="1709"><tspan fill="rgb(0,0,0)" stroke="none" style="white-space: pre">120%</tspan></tspan></tspan></text>
 <text class="SVGTextShape"><tspan class="TextParagraph" font-family="Liberation Sans, sans-serif" font-size="353px" font-weight="400"><tspan class="TextPosition" x="308" y="445"><tspan fill="rgb(0,0,0)" stroke="none" style="white-space: pre">130%</tspan></tspan></tspan></text>
 <path fill="rgb(12,50,44)" stroke="none" d="M 13814,2845 L 13708,2845 13708,2634 13919,2634 13919,2845 13814,2845 Z"/>
 <path fill="rgb(19,148,72)" stroke="none" d="M 13814,3343 L 13708,3343 13708,3132 13919,3132 13919,3343 13814,3343 Z"/>
 <path fill="rgb(255,193,8)" stroke="none" d="M 13814,3840 L 13708,3840 13708,3629 13919,3629 13919,3840 13814,3840 Z"/>
 <path fill="rgb(0,138,207)" stroke="none" d="M 13814,4338 L 13708,4338 13708,4127 13919,4127 13919,4338 13814,4338 Z"/>
 <text class="SVGTextShape"><tspan class="TextParagraph" font-family="Liberation Sans, sans-serif" font-size="353px" font-weight="400"><tspan class="TextPosition" x="14019" y="2859"><tspan fill="rgb(0,0,0)" stroke="none" style="white-space: pre">Normal</tspan></tspan></tspan></text>
 <text class="SVGTextShape"><tspan class="TextParagraph" font-family="Liberation Sans, sans-serif" font-size="353px" font-weight="400"><tspan class="TextPosition" x="14019" y="3357"><tspan fill="rgb(0,0,0)" stroke="none" style="white-space: pre">LTO</tspan></tspan></tspan></text>
 <text class="SVGTextShape"><tspan class="TextParagraph" font-family="Liberation Sans, sans-serif" font-size="353px" font-weight="400"><tspan class="TextPosition" x="14019" y="3854"><tspan fill="rgb(0,0,0)" stroke="none" style="white-space: pre">PGO</tspan></tspan></tspan></text>
 <text class="SVGTextShape"><tspan class="TextParagraph" font-family="Liberation Sans, sans-serif" font-size="353px" font-weight="400"><tspan class="TextPosition" x="14019" y="4352"><tspan fill="rgb(0,0,0)" stroke="none" style="white-space: pre">LTO+PGO</tspan></tspan></tspan></text>
</svg>