<?xml version="1.0" encoding="UTF-8"?>
<!DOCTYPE svg PUBLIC "-//W3C//DTD SVG 1.1//EN" "http://www.w3.org/Graphics/SVG/1.1/DTD/svg11.dtd">
<svg width="160mm" height="35mm" viewBox="0 0 16000 3500" version="1.1" xmlns="http://www.w3.org/2000/svg" xmlns:xlink="http://www.w3.org/1999/xlink" stroke-width="28.222" stroke-linejoin="round" xml:space="preserve">
 <path fill="rgb(255,255,255)" stroke="none" d="M 8000,3500 L 0,3500 0,0 16000,0 16000,3500 8000,3500 Z"/>
 <path fill="none" stroke="rgb(179,179,179)" stroke-linejoin="round" d="M 8092,2783 L 758,2783 758,853 15427,853 15427,2783 8092,2783 Z"/>
 <path fill="none" stroke="rgb(179,179,179)" stroke-linejoin="round" d="M 15427,852 L 15427,2782"/>
 <path fill="none" stroke="rgb(179,179,179)" stroke-linejoin="round" d="M 12982,852 L 12982,2782"/>
 <path fill="none" stroke="rgb(179,179,179)" stroke-linejoin="round" d="M 10537,852 L 10537,2782"/>
 <path fill="none" stroke="rgb(179,179,179)" stroke-linejoin="round" d="M 8091,852 L 8091,2782"/>
 <path fill="none" stroke="rgb(179,179,179)" stroke-linejoin="round" d="M 5647,852 L 5647,2782"/>
 <path fill="none" stroke="rgb(179,179,179)" stroke-linejoin="round" d="M 3202,852 L 3202,2782"/>
 <path fill="none" stroke="rgb(179,179,179)" stroke-linejoin="round" d="M 757,852 L 757,2782"/>
 <path fill="none" stroke="rgb(179,179,179)" stroke-linejoin="round" d="M 15577,2782 L 15427,2782"/>
 <path fill="none" stroke="rgb(179,179,179)" stroke-linejoin="round" d="M 15577,2782 L 15427,2782"/>
 <path fill="none" stroke="rgb(179,179,179)" stroke-linejoin="round" d="M 15577,852 L 15427,852"/>
 <path fill="none" stroke="rgb(179,179,179)" stroke-linejoin="round" d="M 15577,852 L 15427,852"/>
 <path fill="none" stroke="rgb(179,179,179)" stroke-linejoin="round" d="M 15427,2782 L 15427,852"/>
 <path fill="none" stroke="rgb(179,179,179)" stroke-linejoin="round" d="M 15427,2932 L 15427,2782"/>
 <path fill="none" stroke="rgb(179,179,179)" stroke-linejoin="round" d="M 15427,2932 L 15427,2782"/>
 <path fill="none" stroke="rgb(179,179,179)" stroke-linejoin="round" d="M 12982,2932 L 12982,2782"/>
 <path fill="none" stroke="rgb(179,179,179)" stroke-linejoin="round" d="M 12982,2932 L 12982,2782"/>
 <path fill="none" stroke="rgb(179,179,179)" stroke-linejoin="round" d="M 10536,2932 L 10536,2782"/>
 <path fill="none" stroke="rgb(179,179,179)" stroke-linejoin="round" d="M 10536,2932 L 10536,2782"/>
 <path fill="none" stroke="rgb(179,179,179)" stroke-linejoin="round" d="M 8091,2932 L 8091,2782"/>
 <path fill="none" stroke="rgb(179,179,179)" stroke-linejoin="round" d="M 8091,2932 L 8091,2782"/>
 <path fill="none" stroke="rgb(179,179,179)" stroke-linejoin="round" d="M 5647,2932 L 5647,2782"/>
 <path fill="none" stroke="rgb(179,179,179)" stroke-linejoin="round" d="M 5647,2932 L 5647,2782"/>
 <path fill="none" stroke="rgb(179,179,179)" stroke-linejoin="round" d="M 3202,2932 L 3202,2782"/>
 <path fill="none" stroke="rgb(179,179,179)" stroke-linejoin="round" d="M 3202,2932 L 3202,2782"/>
 <path fill="none" stroke="rgb(179,179,179)" stroke-linejoin="round" d="M 757,2932 L 757,2782"/>
 <path fill="none" stroke="rgb(179,179,179)" stroke-linejoin="round" d="M 757,2932 L 757,2782"/>
 <path fill="none" stroke="rgb(179,179,179)" stroke-linejoin="round" d="M 757,2782 L 15427,2782"/>
 <path fill="rgb(0,138,207)" stroke="none" d="M 15427,2621 L 15427,2299 5966,2299 5966,2621 15427,2621 Z"/>
 <path fill="rgb(12,50,44)" stroke="none" d="M 15427,2299 L 15427,1977 3445,1977 3445,2299 15427,2299 Z"/>
 <path fill="rgb(255,193,8)" stroke="none" d="M 15427,1977 L 15427,1656 2096,1656 2096,1977 15427,1977 Z"/>
 <path fill="rgb(19,148,72)" stroke="none" d="M 15427,1656 L 15427,1334 4263,1334 4263,1656 15427,1656 Z"/>
 <path fill="rgb(126,0,33)" stroke="none" d="M 15427,1334 L 15427,1012 3202,1012 3202,1334 15427,1334 Z"/>
 <text class="TextShape"><tspan class="TextParagraph" font-family="Liberation Sans, sans-serif" font-size="353px" font-weight="400"><tspan class="TextPosition" x="15176" y="3350"><tspan fill="rgb(0,0,0)" stroke="none">0%</tspan></tspan></tspan></text>
 <text class="TextShape"><tspan class="TextParagraph" font-family="Liberation Sans, sans-serif" font-size="353px" font-weight="400"><tspan class="TextPosition" x="12639" y="3350"><tspan fill="rgb(0,0,0)" stroke="none">20%</tspan></tspan></tspan></text>
 <text class="TextShape"><tspan class="TextParagraph" font-family="Liberation Sans, sans-serif" font-size="353px" font-weight="400"><tspan class="TextPosition" x="10193" y="3350"><tspan fill="rgb(0,0,0)" stroke="none">40%</tspan></tspan></tspan></text>
 <text class="TextShape"><tspan class="TextParagraph" font-family="Liberation Sans, sans-serif" font-size="353px" font-weight="400"><tspan class="TextPosition" x="7748" y="3350"><tspan fill="rgb(0,0,0)" stroke="none">60%</tspan></tspan></tspan></text>
 <text class="TextShape"><tspan class="TextParagraph" font-family="Liberation Sans, sans-serif" font-size="353px" font-weight="400"><tspan class="TextPosition" x="5303" y="3350"><tspan fill="rgb(0,0,0)" stroke="none">80%</tspan></tspan></tspan></text>
 <text class="TextShape"><tspan class="TextParagraph" font-family="Liberation Sans, sans-serif" font-size="353px" font-weight="400"><tspan class="TextPosition" x="2765" y="3350"><tspan fill="rgb(0,0,0)" stroke="none">100%</tspan></tspan></tspan></text>
 <text class="TextShape"><tspan class="TextParagraph" font-family="Liberation Sans, sans-serif" font-size="353px" font-weight="400"><tspan class="TextPosition" x="320" y="3350"><tspan fill="rgb(0,0,0)" stroke="none">120%</tspan></tspan></tspan></text>
 <path fill="rgb(0,138,207)" stroke="none" d="M 9872,589 L 9766,589 9766,378 9977,378 9977,589 9872,589 Z"/>
 <path fill="rgb(12,50,44)" stroke="none" d="M 7792,589 L 7687,589 7687,378 7898,378 7898,589 7792,589 Z"/>
 <path fill="rgb(255,193,8)" stroke="none" d="M 6691,589 L 6586,589 6586,378 6797,378 6797,589 6691,589 Z"/>
 <path fill="rgb(19,148,72)" stroke="none" d="M 4611,589 L 4506,589 4506,378 4717,378 4717,589 4611,589 Z"/>
 <path fill="rgb(126,0,33)" stroke="none" d="M 3510,589 L 3405,589 3405,378 3616,378 3616,589 3510,589 Z"/>
 <text class="TextShape"><tspan class="TextParagraph" font-family="Liberation Sans, sans-serif" font-size="353px" font-weight="400"><tspan class="TextPosition" x="3716" y="603"><tspan fill="rgb(0,0,0)" stroke="none">-O2</tspan></tspan></tspan></text>
 <text class="TextShape"><tspan class="TextParagraph" font-family="Liberation Sans, sans-serif" font-size="353px" font-weight="400"><tspan class="TextPosition" x="4817" y="603"><tspan fill="rgb(0,0,0)" stroke="none">-O2 (LTO)</tspan></tspan></tspan></text>
 <text class="TextShape"><tspan class="TextParagraph" font-family="Liberation Sans, sans-serif" font-size="353px" font-weight="400"><tspan class="TextPosition" x="6897" y="603"><tspan fill="rgb(0,0,0)" stroke="none">-O3</tspan></tspan></tspan></text>
 <text class="TextShape"><tspan class="TextParagraph" font-family="Liberation Sans, sans-serif" font-size="353px" font-weight="400"><tspan class="TextPosition" x="7998" y="603"><tspan fill="rgb(0,0,0)" stroke="none">-O3 (LTO)</tspan></tspan></tspan></text>
 <text class="TextShape"><tspan class="TextParagraph" font-family="Liberation Sans, sans-serif" font-size="353px" font-weight="400"><tspan class="TextPosition" x="10077" y="603"><tspan fill="rgb(0,0,0)" stroke="none">-O3 (LTO+PGO)</tspan></tspan></tspan></text>
</svg>