<?xml version="1.0" encoding="UTF-8"?>
<!DOCTYPE svg PUBLIC "-//W3C//DTD SVG 1.1//EN" "http://www.w3.org/Graphics/SVG/1.1/DTD/svg11.dtd">
<svg width="160mm" height="117mm" viewBox="0 0 16000 11700" version="1.1" xmlns="http://www.w3.org/2000/svg" xmlns:xlink="http://www.w3.org/1999/xlink" stroke-width="28.222" stroke-linejoin="round" xml:space="preserve">
 <path fill="rgb(255,255,255)" stroke="none" d="M 7985,11687 L -13,11687 -13,-13 15983,-13 15983,11687 7985,11687 Z"/>
 <path fill="none" stroke="rgb(179,179,179)" stroke-linejoin="round" d="M 7696,10603 L 2989,10603 2989,210 12402,210 12402,10603 7696,10603 Z"/>
 <path fill="none" stroke="rgb(179,179,179)" stroke-linejoin="round" d="M 2989,208 L 2989,10602"/>
 <path fill="none" stroke="rgb(179,179,179)" stroke-linejoin="round" d="M 4333,208 L 4333,10602"/>
 <path fill="none" stroke="rgb(179,179,179)" stroke-linejoin="round" d="M 5678,208 L 5678,10602"/>
 <path fill="none" stroke="rgb(179,179,179)" stroke-linejoin="round" d="M 7023,208 L 7023,10602"/>
 <path fill="none" stroke="rgb(179,179,179)" stroke-linejoin="round" d="M 8367,208 L 8367,10602"/>
 <path fill="none" stroke="rgb(179,179,179)" stroke-linejoin="round" d="M 9712,208 L 9712,10602"/>
 <path fill="none" stroke="rgb(179,179,179)" stroke-linejoin="round" d="M 11057,208 L 11057,10602"/>
 <path fill="none" stroke="rgb(179,179,179)" stroke-linejoin="round" d="M 12402,208 L 12402,10602"/>
 <path fill="none" stroke="rgb(179,179,179)" stroke-linejoin="round" d="M 2839,208 L 2989,208"/>
 <path fill="none" stroke="rgb(179,179,179)" stroke-linejoin="round" d="M 2839,208 L 2989,208"/>
 <path fill="none" stroke="rgb(179,179,179)" stroke-linejoin="round" d="M 2839,1248 L 2989,1248"/>
 <path fill="none" stroke="rgb(179,179,179)" stroke-linejoin="round" d="M 2839,1248 L 2989,1248"/>
 <path fill="none" stroke="rgb(179,179,179)" stroke-linejoin="round" d="M 2839,2287 L 2989,2287"/>
 <path fill="none" stroke="rgb(179,179,179)" stroke-linejoin="round" d="M 2839,2287 L 2989,2287"/>
 <path fill="none" stroke="rgb(179,179,179)" stroke-linejoin="round" d="M 2839,3327 L 2989,3327"/>
 <path fill="none" stroke="rgb(179,179,179)" stroke-linejoin="round" d="M 2839,3327 L 2989,3327"/>
 <path fill="none" stroke="rgb(179,179,179)" stroke-linejoin="round" d="M 2839,4366 L 2989,4366"/>
 <path fill="none" stroke="rgb(179,179,179)" stroke-linejoin="round" d="M 2839,4366 L 2989,4366"/>
 <path fill="none" stroke="rgb(179,179,179)" stroke-linejoin="round" d="M 2839,5405 L 2989,5405"/>
 <path fill="none" stroke="rgb(179,179,179)" stroke-linejoin="round" d="M 2839,5405 L 2989,5405"/>
 <path fill="none" stroke="rgb(179,179,179)" stroke-linejoin="round" d="M 2839,6444 L 2989,6444"/>
 <path fill="none" stroke="rgb(179,179,179)" stroke-linejoin="round" d="M 2839,6444 L 2989,6444"/>
 <path fill="none" stroke="rgb(179,179,179)" stroke-linejoin="round" d="M 2839,7483 L 2989,7483"/>
 <path fill="none" stroke="rgb(179,179,179)" stroke-linejoin="round" d="M 2839,7483 L 2989,7483"/>
 <path fill="none" stroke="rgb(179,179,179)" stroke-linejoin="round" d="M 2839,8523 L 2989,8523"/>
 <path fill="none" stroke="rgb(179,179,179)" stroke-linejoin="round" d="M 2839,8523 L 2989,8523"/>
 <path fill="none" stroke="rgb(179,179,179)" stroke-linejoin="round" d="M 2839,9562 L 2989,9562"/>
 <path fill="none" stroke="rgb(179,179,179)" stroke-linejoin="round" d="M 2839,9562 L 2989,9562"/>
 <path fill="none" stroke="rgb(179,179,179)" stroke-linejoin="round" d="M 2839,10602 L 2989,10602"/>
 <path fill="none" stroke="rgb(179,179,179)" stroke-linejoin="round" d="M 2839,10602 L 2989,10602"/>
 <path fill="none" stroke="rgb(179,179,179)" stroke-linejoin="round" d="M 2989,10602 L 2989,208"/>
 <path fill="none" stroke="rgb(179,179,179)" stroke-linejoin="round" d="M 2989,10752 L 2989,10602"/>
 <path fill="none" stroke="rgb(179,179,179)" stroke-linejoin="round" d="M 2989,58 L 2989,208"/>
 <path fill="none" stroke="rgb(179,179,179)" stroke-linejoin="round" d="M 4333,10752 L 4333,10602"/>
 <path fill="none" stroke="rgb(179,179,179)" stroke-linejoin="round" d="M 4333,58 L 4333,208"/>
 <path fill="none" stroke="rgb(179,179,179)" stroke-linejoin="round" d="M 5678,10752 L 5678,10602"/>
 <path fill="none" stroke="rgb(179,179,179)" stroke-linejoin="round" d="M 5678,58 L 5678,208"/>
 <path fill="none" stroke="rgb(179,179,179)" stroke-linejoin="round" d="M 7023,10752 L 7023,10602"/>
 <path fill="none" stroke="rgb(179,179,179)" stroke-linejoin="round" d="M 7023,58 L 7023,208"/>
 <path fill="none" stroke="rgb(179,179,179)" stroke-linejoin="round" d="M 8367,10752 L 8367,10602"/>
 <path fill="none" stroke="rgb(179,179,179)" stroke-linejoin="round" d="M 8367,58 L 8367,208"/>
 <path fill="none" stroke="rgb(179,179,179)" stroke-linejoin="round" d="M 9712,10752 L 9712,10602"/>
 <path fill="none" stroke="rgb(179,179,179)" stroke-linejoin="round" d="M 9712,58 L 9712,208"/>
 <path fill="none" stroke="rgb(179,179,179)" stroke-linejoin="round" d="M 11057,10752 L 11057,10602"/>
 <path fill="none" stroke="rgb(179,179,179)" stroke-linejoin="round" d="M 11057,58 L 11057,208"/>
 <path fill="none" stroke="rgb(179,179,179)" stroke-linejoin="round" d="M 12402,10752 L 12402,10602"/>
 <path fill="none" stroke="rgb(179,179,179)" stroke-linejoin="round" d="M 12402,58 L 12402,208"/>
 <path fill="none" stroke="rgb(179,179,179)" stroke-linejoin="round" d="M 2989,208 L 12402,208"/>
 <path fill="rgb(12,50,44)" stroke="none" d="M 2989,312 L 2989,520 9712,520 9712,312 2989,312 Z"/>
 <path fill="rgb(12,50,44)" stroke="none" d="M 2989,1352 L 2989,1560 9712,1560 9712,1352 2989,1352 Z"/>
 <path fill="rgb(12,50,44)" stroke="none" d="M 2989,2391 L 2989,2599 9712,2599 9712,2391 2989,2391 Z"/>
 <path fill="rgb(12,50,44)" stroke="none" d="M 2989,3431 L 2989,3639 9712,3639 9712,3431 2989,3431 Z"/>
 <path fill="rgb(12,50,44)" stroke="none" d="M 2989,4470 L 2989,4678 9712,4678 9712,4470 2989,4470 Z"/>
 <path fill="rgb(12,50,44)" stroke="none" d="M 2989,5509 L 2989,5717 9712,5717 9712,5509 2989,5509 Z"/>
 <path fill="rgb(12,50,44)" stroke="none" d="M 2989,6548 L 2989,6756 9712,6756 9712,6548 2989,6548 Z"/>
 <path fill="rgb(12,50,44)" stroke="none" d="M 2989,7587 L 2989,7795 9712,7795 9712,7587 2989,7587 Z"/>
 <path fill="rgb(12,50,44)" stroke="none" d="M 2989,8627 L 2989,8835 9712,8835 9712,8627 2989,8627 Z"/>
 <path fill="rgb(12,50,44)" stroke="none" d="M 2989,9666 L 2989,9874 9712,9874 9712,9666 2989,9666 Z"/>
 <path fill="rgb(19,148,72)" stroke="none" d="M 2989,520 L 2989,728 9842,728 9842,520 2989,520 Z"/>
 <path fill="rgb(19,148,72)" stroke="none" d="M 2989,1560 L 2989,1768 9928,1768 9928,1560 2989,1560 Z"/>
 <path fill="rgb(19,148,72)" stroke="none" d="M 2989,2599 L 2989,2807 11026,2807 11026,2599 2989,2599 Z"/>
 <path fill="rgb(19,148,72)" stroke="none" d="M 2989,3639 L 2989,3846 9864,3846 9864,3639 2989,3639 Z"/>
 <path fill="rgb(19,148,72)" stroke="none" d="M 2989,4678 L 2989,4886 9908,4886 9908,4678 2989,4678 Z"/>
 <path fill="rgb(19,148,72)" stroke="none" d="M 2989,5717 L 2989,5924 9773,5924 9773,5717 2989,5717 Z"/>
 <path fill="rgb(19,148,72)" stroke="none" d="M 2989,6756 L 2989,6964 11144,6964 11144,6756 2989,6756 Z"/>
 <path fill="rgb(19,148,72)" stroke="none" d="M 2989,7795 L 2989,8003 10418,8003 10418,7795 2989,7795 Z"/>
 <path fill="rgb(19,148,72)" stroke="none" d="M 2989,8835 L 2989,9042 9599,9042 9599,8835 2989,8835 Z"/>
 <path fill="rgb(19,148,72)" stroke="none" d="M 2989,9874 L 2989,10082 9726,10082 9726,9874 2989,9874 Z"/>
 <path fill="rgb(255,193,8)" stroke="none" d="M 2989,728 L 2989,936 10384,936 10384,728 2989,728 Z"/>
 <path fill="rgb(255,193,8)" stroke="none" d="M 2989,1768 L 2989,1975 10039,1975 10039,1768 2989,1768 Z"/>
 <path fill="rgb(255,193,8)" stroke="none" d="M 2989,2807 L 2989,3015 9794,3015 9794,2807 2989,2807 Z"/>
 <path fill="rgb(255,193,8)" stroke="none" d="M 2989,3846 L 2989,4054 9691,4054 9691,3846 2989,3846 Z"/>
 <path fill="rgb(255,193,8)" stroke="none" d="M 2989,4886 L 2989,5094 9695,5094 9695,4886 2989,4886 Z"/>
 <path fill="rgb(255,193,8)" stroke="none" d="M 2989,5924 L 2989,6132 10240,6132 10240,5924 2989,5924 Z"/>
 <path fill="rgb(255,193,8)" stroke="none" d="M 2989,6964 L 2989,7171 9307,7171 9307,6964 2989,6964 Z"/>
 <path fill="rgb(255,193,8)" stroke="none" d="M 2989,8003 L 2989,8211 9249,8211 9249,8003 2989,8003 Z"/>
 <path fill="rgb(255,193,8)" stroke="none" d="M 2989,9042 L 2989,9250 9330,9250 9330,9042 2989,9042 Z"/>
 <path fill="rgb(255,193,8)" stroke="none" d="M 2989,10082 L 2989,10290 9808,10290 9808,10082 2989,10082 Z"/>
 <path fill="rgb(0,138,207)" stroke="none" d="M 2989,936 L 2989,1144 10671,1144 10671,936 2989,936 Z"/>
 <path fill="rgb(0,138,207)" stroke="none" d="M 2989,1975 L 2989,2183 10501,2183 10501,1975 2989,1975 Z"/>
 <path fill="rgb(0,138,207)" stroke="none" d="M 2989,3015 L 2989,3223 10989,3223 10989,3015 2989,3015 Z"/>
 <path fill="rgb(0,138,207)" stroke="none" d="M 2989,4054 L 2989,4262 10728,4262 10728,4054 2989,4054 Z"/>
 <path fill="rgb(0,138,207)" stroke="none" d="M 2989,5094 L 2989,5302 9993,5302 9993,5094 2989,5094 Z"/>
 <path fill="rgb(0,138,207)" stroke="none" d="M 2989,6132 L 2989,6340 10086,6340 10086,6132 2989,6132 Z"/>
 <path fill="rgb(0,138,207)" stroke="none" d="M 2989,7171 L 2989,7379 10567,7379 10567,7171 2989,7171 Z"/>
 <path fill="rgb(0,138,207)" stroke="none" d="M 2989,8211 L 2989,8419 10187,8419 10187,8211 2989,8211 Z"/>
 <path fill="rgb(0,138,207)" stroke="none" d="M 2989,9250 L 2989,9458 9102,9458 9102,9250 2989,9250 Z"/>
 <path fill="rgb(0,138,207)" stroke="none" d="M 2989,10290 L 2989,10498 9808,10498 9808,10290 2989,10290 Z"/>
 <text class="SVGTextShape"><tspan class="TextParagraph"><tspan class="TextPosition" x="253" y="849"><tspan font-family="Liberation Sans, sans-serif" font-size="353px" font-weight="400" fill="rgb(0,0,0)" stroke="none" style="white-space: pre">500.perlbench_r</tspan></tspan></tspan></text>
 <text class="SVGTextShape"><tspan class="TextParagraph"><tspan class="TextPosition" x="1228" y="1889"><tspan font-family="Liberation Sans, sans-serif" font-size="353px" font-weight="400" fill="rgb(0,0,0)" stroke="none" style="white-space: pre">502.gcc_r</tspan></tspan></tspan></text>
 <text class="SVGTextShape"><tspan class="TextParagraph"><tspan class="TextPosition" x="1210" y="2928"><tspan font-family="Liberation Sans, sans-serif" font-size="353px" font-weight="400" fill="rgb(0,0,0)" stroke="none" style="white-space: pre">505.mcf_r</tspan></tspan></tspan></text>
 <text class="SVGTextShape"><tspan class="TextParagraph"><tspan class="TextPosition" x="425" y="3967"><tspan font-family="Liberation Sans, sans-serif" font-size="353px" font-weight="400" fill="rgb(0,0,0)" stroke="none" style="white-space: pre">520.omnetpp_r</tspan></tspan></tspan></text>
 <text class="SVGTextShape"><tspan class="TextParagraph"><tspan class="TextPosition" x="120" y="5007"><tspan font-family="Liberation Sans, sans-serif" font-size="353px" font-weight="400" fill="rgb(0,0,0)" stroke="none" style="white-space: pre">523.xalancbmk_r</tspan></tspan></tspan></text>
 <text class="SVGTextShape"><tspan class="TextParagraph"><tspan class="TextPosition" x="1018" y="6045"><tspan font-family="Liberation Sans, sans-serif" font-size="353px" font-weight="400" fill="rgb(0,0,0)" stroke="none" style="white-space: pre">525.x264_r</tspan></tspan></tspan></text>
 <text class="SVGTextShape"><tspan class="TextParagraph"><tspan class="TextPosition" x="176" y="7085"><tspan font-family="Liberation Sans, sans-serif" font-size="353px" font-weight="400" fill="rgb(0,0,0)" stroke="none" style="white-space: pre">531.deepsjeng_r</tspan></tspan></tspan></text>
 <text class="SVGTextShape"><tspan class="TextParagraph"><tspan class="TextPosition" x="1037" y="8124"><tspan font-family="Liberation Sans, sans-serif" font-size="353px" font-weight="400" fill="rgb(0,0,0)" stroke="none" style="white-space: pre">541.leela_r</tspan></tspan></tspan></text>
 <text class="SVGTextShape"><tspan class="TextParagraph"><tspan class="TextPosition" x="81" y="9163"><tspan font-family="Liberation Sans, sans-serif" font-size="353px" font-weight="400" fill="rgb(0,0,0)" stroke="none" style="white-space: pre">548.exchange2_r</tspan></tspan></tspan></text>
 <text class="SVGTextShape"><tspan class="TextParagraph"><tspan class="TextPosition" x="1420" y="10203"><tspan font-family="Liberation Sans, sans-serif" font-size="353px" font-weight="400" fill="rgb(0,0,0)" stroke="none" style="white-space: pre">557.xz_r</tspan></tspan></tspan></text>
 <text class="SVGTextShape"><tspan class="TextParagraph"><tspan class="TextPosition" x="2741" y="11170"><tspan font-family="Liberation Sans, sans-serif" font-size="353px" font-weight="400" fill="rgb(0,0,0)" stroke="none" style="white-space: pre">0%</tspan></tspan></tspan></text>
 <text class="SVGTextShape"><tspan class="TextParagraph"><tspan class="TextPosition" x="3990" y="11170"><tspan font-family="Liberation Sans, sans-serif" font-size="353px" font-weight="400" fill="rgb(0,0,0)" stroke="none" style="white-space: pre">20%</tspan></tspan></tspan></text>
 <text class="SVGTextShape"><tspan class="TextParagraph"><tspan class="TextPosition" x="5335" y="11170"><tspan font-family="Liberation Sans, sans-serif" font-size="353px" font-weight="400" fill="rgb(0,0,0)" stroke="none" style="white-space: pre">40%</tspan></tspan></tspan></text>
 <text class="SVGTextShape"><tspan class="TextParagraph"><tspan class="TextPosition" x="6680" y="11170"><tspan font-family="Liberation Sans, sans-serif" font-size="353px" font-weight="400" fill="rgb(0,0,0)" stroke="none" style="white-space: pre">60%</tspan></tspan></tspan></text>
 <text class="SVGTextShape"><tspan class="TextParagraph"><tspan class="TextPosition" x="8024" y="11170"><tspan font-family="Liberation Sans, sans-serif" font-size="353px" font-weight="400" fill="rgb(0,0,0)" stroke="none" style="white-space: pre">80%</tspan></tspan></tspan></text>
 <text class="SVGTextShape"><tspan class="TextParagraph"><tspan class="TextPosition" x="9273" y="11170"><tspan font-family="Liberation Sans, sans-serif" font-size="353px" font-weight="400" fill="rgb(0,0,0)" stroke="none" style="white-space: pre">100%</tspan></tspan></tspan></text>
 <text class="SVGTextShape"><tspan class="TextParagraph"><tspan class="TextPosition" x="10618" y="11170"><tspan font-family="Liberation Sans, sans-serif" font-size="353px" font-weight="400" fill="rgb(0,0,0)" stroke="none" style="white-space: pre">120%</tspan></tspan></tspan></text>
 <text class="SVGTextShape"><tspan class="TextParagraph"><tspan class="TextPosition" x="11963" y="11170"><tspan font-family="Liberation Sans, sans-serif" font-size="353px" font-weight="400" fill="rgb(0,0,0)" stroke="none" style="white-space: pre">140%</tspan></tspan></tspan></text>
 <path fill="rgb(12,50,44)" stroke="none" d="M 13816,6688 L 13710,6688 13710,6477 13921,6477 13921,6688 13816,6688 Z"/>
 <path fill="rgb(19,148,72)" stroke="none" d="M 13816,6190 L 13710,6190 13710,5979 13921,5979 13921,6190 13816,6190 Z"/>
 <path fill="rgb(255,193,8)" stroke="none" d="M 13816,5693 L 13710,5693 13710,5482 13921,5482 13921,5693 13816,5693 Z"/>
 <path fill="rgb(0,138,207)" stroke="none" d="M 13816,5195 L 13710,5195 13710,4984 13921,4984 13921,5195 13816,5195 Z"/>
 <text class="SVGTextShape"><tspan class="TextParagraph"><tspan class="TextPosition" x="14021" y="5209"><tspan font-family="Liberation Sans, sans-serif" font-size="353px" font-weight="400" fill="rgb(0,0,0)" stroke="none" style="white-space: pre">LTO+PGO</tspan></tspan></tspan></text>
 <text class="SVGTextShape"><tspan class="TextParagraph"><tspan class="TextPosition" x="14021" y="5707"><tspan font-family="Liberation Sans, sans-serif" font-size="353px" font-weight="400" fill="rgb(0,0,0)" stroke="none" style="white-space: pre">PGO</tspan></tspan></tspan></text>
 <text class="SVGTextShape"><tspan class="TextParagraph"><tspan class="TextPosition" x="14021" y="6204"><tspan font-family="Liberation Sans, sans-serif" font-size="353px" font-weight="400" fill="rgb(0,0,0)" stroke="none" style="white-space: pre">LTO</tspan></tspan></tspan></text>
 <text class="SVGTextShape"><tspan class="TextParagraph"><tspan class="TextPosition" x="14021" y="6702"><tspan font-family="Liberation Sans, sans-serif" font-size="353px" font-weight="400" fill="rgb(0,0,0)" stroke="none" style="white-space: pre">Normal</tspan></tspan></tspan></text>
</svg>