<?xml version="1.0" encoding="UTF-8"?>
<!DOCTYPE svg PUBLIC "-//W3C//DTD SVG 1.1//EN" "http://www.w3.org/Graphics/SVG/1.1/DTD/svg11.dtd">
<svg width="160mm" height="61mm" viewBox="0 0 16000 6100" version="1.1" xmlns="http://www.w3.org/2000/svg" xmlns:xlink="http://www.w3.org/1999/xlink" stroke-width="28.222" stroke-linejoin="round" xml:space="preserve">
 <path fill="rgb(255,255,255)" stroke="none" d="M 8000,6116 L 0,6116 0,28 16000,28 16000,6116 8000,6116 Z"/>
 <path fill="none" stroke="rgb(179,179,179)" stroke-linejoin="round" d="M 7741,5351 L 3190,5351 3190,150 12291,150 12291,5351 7741,5351 Z"/>
 <path fill="none" stroke="rgb(179,179,179)" stroke-linejoin="round" d="M 3190,149 L 3190,5350"/>
 <path fill="none" stroke="rgb(179,179,179)" stroke-linejoin="round" d="M 4327,149 L 4327,5350"/>
 <path fill="none" stroke="rgb(179,179,179)" stroke-linejoin="round" d="M 5465,149 L 5465,5350"/>
 <path fill="none" stroke="rgb(179,179,179)" stroke-linejoin="round" d="M 6603,149 L 6603,5350"/>
 <path fill="none" stroke="rgb(179,179,179)" stroke-linejoin="round" d="M 7741,149 L 7741,5350"/>
 <path fill="none" stroke="rgb(179,179,179)" stroke-linejoin="round" d="M 8877,149 L 8877,5350"/>
 <path fill="none" stroke="rgb(179,179,179)" stroke-linejoin="round" d="M 10015,149 L 10015,5350"/>
 <path fill="none" stroke="rgb(179,179,179)" stroke-linejoin="round" d="M 11153,149 L 11153,5350"/>
 <path fill="none" stroke="rgb(179,179,179)" stroke-linejoin="round" d="M 12291,149 L 12291,5350"/>
 <path fill="none" stroke="rgb(179,179,179)" stroke-linejoin="round" d="M 3040,149 L 3190,149"/>
 <path fill="none" stroke="rgb(179,179,179)" stroke-linejoin="round" d="M 3040,149 L 3190,149"/>
 <path fill="none" stroke="rgb(179,179,179)" stroke-linejoin="round" d="M 3040,1449 L 3190,1449"/>
 <path fill="none" stroke="rgb(179,179,179)" stroke-linejoin="round" d="M 3040,1449 L 3190,1449"/>
 <path fill="none" stroke="rgb(179,179,179)" stroke-linejoin="round" d="M 3040,2749 L 3190,2749"/>
 <path fill="none" stroke="rgb(179,179,179)" stroke-linejoin="round" d="M 3040,2749 L 3190,2749"/>
 <path fill="none" stroke="rgb(179,179,179)" stroke-linejoin="round" d="M 3040,4049 L 3190,4049"/>
 <path fill="none" stroke="rgb(179,179,179)" stroke-linejoin="round" d="M 3040,4049 L 3190,4049"/>
 <path fill="none" stroke="rgb(179,179,179)" stroke-linejoin="round" d="M 3040,5350 L 3190,5350"/>
 <path fill="none" stroke="rgb(179,179,179)" stroke-linejoin="round" d="M 3040,5350 L 3190,5350"/>
 <path fill="none" stroke="rgb(179,179,179)" stroke-linejoin="round" d="M 3190,5350 L 3190,149"/>
 <path fill="none" stroke="rgb(179,179,179)" stroke-linejoin="round" d="M 3190,5499 L 3190,5350"/>
 <path fill="none" stroke="rgb(179,179,179)" stroke-linejoin="round" d="M 3190,0 L 3190,149"/>
 <path fill="none" stroke="rgb(179,179,179)" stroke-linejoin="round" d="M 4327,5499 L 4327,5350"/>
 <path fill="none" stroke="rgb(179,179,179)" stroke-linejoin="round" d="M 4327,0 L 4327,149"/>
 <path fill="none" stroke="rgb(179,179,179)" stroke-linejoin="round" d="M 5465,5499 L 5465,5350"/>
 <path fill="none" stroke="rgb(179,179,179)" stroke-linejoin="round" d="M 5465,0 L 5465,149"/>
 <path fill="none" stroke="rgb(179,179,179)" stroke-linejoin="round" d="M 6603,5499 L 6603,5350"/>
 <path fill="none" stroke="rgb(179,179,179)" stroke-linejoin="round" d="M 6603,0 L 6603,149"/>
 <path fill="none" stroke="rgb(179,179,179)" stroke-linejoin="round" d="M 7741,5499 L 7741,5350"/>
 <path fill="none" stroke="rgb(179,179,179)" stroke-linejoin="round" d="M 7741,0 L 7741,149"/>
 <path fill="none" stroke="rgb(179,179,179)" stroke-linejoin="round" d="M 8877,5499 L 8877,5350"/>
 <path fill="none" stroke="rgb(179,179,179)" stroke-linejoin="round" d="M 8877,0 L 8877,149"/>
 <path fill="none" stroke="rgb(179,179,179)" stroke-linejoin="round" d="M 10015,5499 L 10015,5350"/>
 <path fill="none" stroke="rgb(179,179,179)" stroke-linejoin="round" d="M 10015,0 L 10015,149"/>
 <path fill="none" stroke="rgb(179,179,179)" stroke-linejoin="round" d="M 11153,5499 L 11153,5350"/>
 <path fill="none" stroke="rgb(179,179,179)" stroke-linejoin="round" d="M 11153,0 L 11153,149"/>
 <path fill="none" stroke="rgb(179,179,179)" stroke-linejoin="round" d="M 12291,5499 L 12291,5350"/>
 <path fill="none" stroke="rgb(179,179,179)" stroke-linejoin="round" d="M 12291,0 L 12291,149"/>
 <path fill="none" stroke="rgb(179,179,179)" stroke-linejoin="round" d="M 3190,149 L 12291,149"/>
 <path fill="rgb(220,53,69)" stroke="none" d="M 3190,4179 L 3190,4439 8877,4439 8877,4179 3190,4179 Z"/>
 <path fill="rgb(220,53,69)" stroke="none" d="M 3190,2879 L 3190,3138 8877,3138 8877,2879 3190,2879 Z"/>
 <path fill="rgb(220,53,69)" stroke="none" d="M 3190,1579 L 3190,1839 8877,1839 8877,1579 3190,1579 Z"/>
 <path fill="rgb(220,53,69)" stroke="none" d="M 3190,278 L 3190,538 8877,538 8877,278 3190,278 Z"/>
 <path fill="rgb(255,158,2)" stroke="none" d="M 3190,4439 L 3190,4699 10552,4699 10552,4439 3190,4439 Z"/>
 <path fill="rgb(255,158,2)" stroke="none" d="M 3190,3138 L 3190,3399 8868,3399 8868,3138 3190,3138 Z"/>
 <path fill="rgb(255,158,2)" stroke="none" d="M 3190,1839 L 3190,2098 8906,2098 8906,1839 3190,1839 Z"/>
 <path fill="rgb(255,158,2)" stroke="none" d="M 3190,538 L 3190,799 8900,799 8900,538 3190,538 Z"/>
 <path fill="rgb(19,148,72)" stroke="none" d="M 3190,4699 L 3190,4960 9657,4960 9657,4699 3190,4699 Z"/>
 <path fill="rgb(19,148,72)" stroke="none" d="M 3190,3399 L 3190,3659 11334,3659 11334,3399 3190,3399 Z"/>
 <path fill="rgb(19,148,72)" stroke="none" d="M 3190,2098 L 3190,2359 9162,2359 9162,2098 3190,2098 Z"/>
 <path fill="rgb(19,148,72)" stroke="none" d="M 3190,799 L 3190,1058 8888,1058 8888,799 3190,799 Z"/>
 <path fill="rgb(12,50,44)" stroke="none" d="M 3190,4960 L 3190,5219 10894,5219 10894,4960 3190,4960 Z"/>
 <path fill="rgb(12,50,44)" stroke="none" d="M 3190,3659 L 3190,3919 11370,3919 11370,3659 3190,3659 Z"/>
 <path fill="rgb(12,50,44)" stroke="none" d="M 3190,2359 L 3190,2619 9547,2619 9547,2359 3190,2359 Z"/>
 <path fill="rgb(12,50,44)" stroke="none" d="M 3190,1058 L 3190,1318 9078,1318 9078,1058 3190,1058 Z"/>
 <text class="TextShape"><tspan class="TextParagraph" font-family="Liberation Sans, sans-serif" font-size="351px" font-weight="400"><tspan class="TextPosition" x="1432" y="919"><tspan fill="rgb(0,0,0)" stroke="none">502.gcc_r</tspan></tspan></tspan></text>
 <text class="TextShape"><tspan class="TextParagraph" font-family="Liberation Sans, sans-serif" font-size="351px" font-weight="400"><tspan class="TextPosition" x="321" y="2218"><tspan fill="rgb(0,0,0)" stroke="none">523.xalancbmk_r</tspan></tspan></tspan></text>
 <text class="TextShape"><tspan class="TextParagraph" font-family="Liberation Sans, sans-serif" font-size="351px" font-weight="400"><tspan class="TextPosition" x="1247" y="3519"><tspan fill="rgb(0,0,0)" stroke="none">525.x264_r</tspan></tspan></tspan></text>
 <text class="TextShape"><tspan class="TextParagraph" font-family="Liberation Sans, sans-serif" font-size="351px" font-weight="400"><tspan class="TextPosition" x="426" y="4819"><tspan fill="rgb(0,0,0)" stroke="none">531.deepsjeng_r</tspan></tspan></tspan></text>
 <text class="TextShape"><tspan class="TextParagraph" font-family="Liberation Sans, sans-serif" font-size="351px" font-weight="400"><tspan class="TextPosition" x="2938" y="5915"><tspan fill="rgb(0,0,0)" stroke="none">0%</tspan></tspan></tspan></text>
 <text class="TextShape"><tspan class="TextParagraph" font-family="Liberation Sans, sans-serif" font-size="351px" font-weight="400"><tspan class="TextPosition" x="3983" y="5915"><tspan fill="rgb(0,0,0)" stroke="none">20%</tspan></tspan></tspan></text>
 <text class="TextShape"><tspan class="TextParagraph" font-family="Liberation Sans, sans-serif" font-size="351px" font-weight="400"><tspan class="TextPosition" x="5121" y="5915"><tspan fill="rgb(0,0,0)" stroke="none">40%</tspan></tspan></tspan></text>
 <text class="TextShape"><tspan class="TextParagraph" font-family="Liberation Sans, sans-serif" font-size="351px" font-weight="400"><tspan class="TextPosition" x="6259" y="5915"><tspan fill="rgb(0,0,0)" stroke="none">60%</tspan></tspan></tspan></text>
 <text class="TextShape"><tspan class="TextParagraph" font-family="Liberation Sans, sans-serif" font-size="351px" font-weight="400"><tspan class="TextPosition" x="7397" y="5915"><tspan fill="rgb(0,0,0)" stroke="none">80%</tspan></tspan></tspan></text>
 <text class="TextShape"><tspan class="TextParagraph" font-family="Liberation Sans, sans-serif" font-size="351px" font-weight="400"><tspan class="TextPosition" x="8441" y="5915"><tspan fill="rgb(0,0,0)" stroke="none">100%</tspan></tspan></tspan></text>
 <text class="TextShape"><tspan class="TextParagraph" font-family="Liberation Sans, sans-serif" font-size="351px" font-weight="400"><tspan class="TextPosition" x="9579" y="5915"><tspan fill="rgb(0,0,0)" stroke="none">120%</tspan></tspan></tspan></text>
 <text class="TextShape"><tspan class="TextParagraph" font-family="Liberation Sans, sans-serif" font-size="351px" font-weight="400"><tspan class="TextPosition" x="10717" y="5915"><tspan fill="rgb(0,0,0)" stroke="none">140%</tspan></tspan></tspan></text>
 <text class="TextShape"><tspan class="TextParagraph" font-family="Liberation Sans, sans-serif" font-size="351px" font-weight="400"><tspan class="TextPosition" x="11855" y="5915"><tspan fill="rgb(0,0,0)" stroke="none">160%</tspan></tspan></tspan></text>
 <path fill="rgb(220,53,69)" stroke="none" d="M 13271,3920 L 13165,3920 13165,3710 13376,3710 13376,3920 13271,3920 Z"/>
 <path fill="rgb(255,158,2)" stroke="none" d="M 13271,3424 L 13165,3424 13165,3214 13376,3214 13376,3424 13271,3424 Z"/>
 <path fill="rgb(19,148,72)" stroke="none" d="M 13271,2928 L 13165,2928 13165,2718 13376,2718 13376,2928 13271,2928 Z"/>
 <path fill="rgb(12,50,44)" stroke="none" d="M 13271,2433 L 13165,2433 13165,2223 13376,2223 13376,2433 13271,2433 Z"/>
 <text class="TextShape"><tspan class="TextParagraph" font-family="Liberation Sans, sans-serif" font-size="351px" font-weight="400"><tspan class="TextPosition" x="13476" y="2447"><tspan fill="rgb(0,0,0)" stroke="none">GCC 10 (LTO)</tspan></tspan></tspan></text>
 <text class="TextShape"><tspan class="TextParagraph" font-family="Liberation Sans, sans-serif" font-size="351px" font-weight="400"><tspan class="TextPosition" x="13476" y="2942"><tspan fill="rgb(0,0,0)" stroke="none">GCC 10</tspan></tspan></tspan></text>
 <text class="TextShape"><tspan class="TextParagraph" font-family="Liberation Sans, sans-serif" font-size="351px" font-weight="400"><tspan class="TextPosition" x="13476" y="3438"><tspan fill="rgb(0,0,0)" stroke="none">GCC 7 (LTO)</tspan></tspan></tspan></text>
 <text class="TextShape"><tspan class="TextParagraph" font-family="Liberation Sans, sans-serif" font-size="351px" font-weight="400"><tspan class="TextPosition" x="13476" y="3934"><tspan fill="rgb(0,0,0)" stroke="none">GCC 7</tspan></tspan></tspan></text>
</svg>