<?xml version="1.0" encoding="UTF-8"?>
<!DOCTYPE svg PUBLIC "-//W3C//DTD SVG 1.1//EN" "http://www.w3.org/Graphics/SVG/1.1/DTD/svg11.dtd">
<svg width="160mm" height="35mm" viewBox="0 0 16000 3500" version="1.1" xmlns="http://www.w3.org/2000/svg" xmlns:xlink="http://www.w3.org/1999/xlink" stroke-width="28.222" stroke-linejoin="round" xml:space="preserve">
 <path fill="rgb(255,255,255)" stroke="none" d="M 8000,3500 L 0,3500 0,0 16000,0 16000,3500 8000,3500 Z"/>
 <path fill="none" stroke="rgb(179,179,179)" stroke-linejoin="round" d="M 9190,2783 L 3137,2783 3137,853 15243,853 15243,2783 9190,2783 Z"/>
 <path fill="none" stroke="rgb(179,179,179)" stroke-linejoin="round" d="M 3137,852 L 3137,2782"/>
 <path fill="none" stroke="rgb(179,179,179)" stroke-linejoin="round" d="M 4866,852 L 4866,2782"/>
 <path fill="none" stroke="rgb(179,179,179)" stroke-linejoin="round" d="M 6596,852 L 6596,2782"/>
 <path fill="none" stroke="rgb(179,179,179)" stroke-linejoin="round" d="M 8324,852 L 8324,2782"/>
 <path fill="none" stroke="rgb(179,179,179)" stroke-linejoin="round" d="M 10054,852 L 10054,2782"/>
 <path fill="none" stroke="rgb(179,179,179)" stroke-linejoin="round" d="M 11783,852 L 11783,2782"/>
 <path fill="none" stroke="rgb(179,179,179)" stroke-linejoin="round" d="M 13513,852 L 13513,2782"/>
 <path fill="none" stroke="rgb(179,179,179)" stroke-linejoin="round" d="M 15243,852 L 15243,2782"/>
 <path fill="none" stroke="rgb(179,179,179)" stroke-linejoin="round" d="M 2987,2782 L 3137,2782"/>
 <path fill="none" stroke="rgb(179,179,179)" stroke-linejoin="round" d="M 2987,2782 L 3137,2782"/>
 <path fill="none" stroke="rgb(179,179,179)" stroke-linejoin="round" d="M 2987,852 L 3137,852"/>
 <path fill="none" stroke="rgb(179,179,179)" stroke-linejoin="round" d="M 2987,852 L 3137,852"/>
 <path fill="none" stroke="rgb(179,179,179)" stroke-linejoin="round" d="M 3137,2782 L 3137,852"/>
 <path fill="none" stroke="rgb(179,179,179)" stroke-linejoin="round" d="M 3137,2932 L 3137,2782"/>
 <path fill="none" stroke="rgb(179,179,179)" stroke-linejoin="round" d="M 3137,2932 L 3137,2782"/>
 <path fill="none" stroke="rgb(179,179,179)" stroke-linejoin="round" d="M 4866,2932 L 4866,2782"/>
 <path fill="none" stroke="rgb(179,179,179)" stroke-linejoin="round" d="M 4866,2932 L 4866,2782"/>
 <path fill="none" stroke="rgb(179,179,179)" stroke-linejoin="round" d="M 6596,2932 L 6596,2782"/>
 <path fill="none" stroke="rgb(179,179,179)" stroke-linejoin="round" d="M 6596,2932 L 6596,2782"/>
 <path fill="none" stroke="rgb(179,179,179)" stroke-linejoin="round" d="M 8324,2932 L 8324,2782"/>
 <path fill="none" stroke="rgb(179,179,179)" stroke-linejoin="round" d="M 8324,2932 L 8324,2782"/>
 <path fill="none" stroke="rgb(179,179,179)" stroke-linejoin="round" d="M 10054,2932 L 10054,2782"/>
 <path fill="none" stroke="rgb(179,179,179)" stroke-linejoin="round" d="M 10054,2932 L 10054,2782"/>
 <path fill="none" stroke="rgb(179,179,179)" stroke-linejoin="round" d="M 11783,2932 L 11783,2782"/>
 <path fill="none" stroke="rgb(179,179,179)" stroke-linejoin="round" d="M 11783,2932 L 11783,2782"/>
 <path fill="none" stroke="rgb(179,179,179)" stroke-linejoin="round" d="M 13513,2932 L 13513,2782"/>
 <path fill="none" stroke="rgb(179,179,179)" stroke-linejoin="round" d="M 13513,2932 L 13513,2782"/>
 <path fill="none" stroke="rgb(179,179,179)" stroke-linejoin="round" d="M 15243,2932 L 15243,2782"/>
 <path fill="none" stroke="rgb(179,179,179)" stroke-linejoin="round" d="M 15243,2932 L 15243,2782"/>
 <path fill="none" stroke="rgb(179,179,179)" stroke-linejoin="round" d="M 3137,2782 L 15243,2782"/>
 <path fill="rgb(0,138,207)" stroke="none" d="M 3137,2621 L 3137,2299 14004,2299 14004,2621 3137,2621 Z"/>
 <path fill="rgb(12,50,44)" stroke="none" d="M 3137,2299 L 3137,1977 12076,1977 12076,2299 3137,2299 Z"/>
 <path fill="rgb(255,193,8)" stroke="none" d="M 3137,1977 L 3137,1656 11900,1656 11900,1977 3137,1977 Z"/>
 <path fill="rgb(19,148,72)" stroke="none" d="M 3137,1656 L 3137,1334 11947,1334 11947,1656 3137,1656 Z"/>
 <path fill="rgb(126,0,33)" stroke="none" d="M 3137,1334 L 3137,1012 11783,1012 11783,1334 3137,1334 Z"/>
 <text class="SVGTextShape"><tspan class="TextParagraph" font-family="Liberation Sans, sans-serif" font-size="353px" font-weight="400"><tspan class="TextPosition" x="321" y="1937"><tspan fill="rgb(0,0,0)" stroke="none">speedometer 2.0</tspan></tspan></tspan></text>
 <text class="SVGTextShape"><tspan class="TextParagraph" font-family="Liberation Sans, sans-serif" font-size="353px" font-weight="400"><tspan class="TextPosition" x="2885" y="3350"><tspan fill="rgb(0,0,0)" stroke="none">0%</tspan></tspan></tspan></text>
 <text class="SVGTextShape"><tspan class="TextParagraph" font-family="Liberation Sans, sans-serif" font-size="353px" font-weight="400"><tspan class="TextPosition" x="4522" y="3350"><tspan fill="rgb(0,0,0)" stroke="none">20%</tspan></tspan></tspan></text>
 <text class="SVGTextShape"><tspan class="TextParagraph" font-family="Liberation Sans, sans-serif" font-size="353px" font-weight="400"><tspan class="TextPosition" x="6252" y="3350"><tspan fill="rgb(0,0,0)" stroke="none">40%</tspan></tspan></tspan></text>
 <text class="SVGTextShape"><tspan class="TextParagraph" font-family="Liberation Sans, sans-serif" font-size="353px" font-weight="400"><tspan class="TextPosition" x="7981" y="3350"><tspan fill="rgb(0,0,0)" stroke="none">60%</tspan></tspan></tspan></text>
 <text class="SVGTextShape"><tspan class="TextParagraph" font-family="Liberation Sans, sans-serif" font-size="353px" font-weight="400"><tspan class="TextPosition" x="9711" y="3350"><tspan fill="rgb(0,0,0)" stroke="none">80%</tspan></tspan></tspan></text>
 <text class="SVGTextShape"><tspan class="TextParagraph" font-family="Liberation Sans, sans-serif" font-size="353px" font-weight="400"><tspan class="TextPosition" x="11347" y="3350"><tspan fill="rgb(0,0,0)" stroke="none">100%</tspan></tspan></tspan></text>
 <text class="SVGTextShape"><tspan class="TextParagraph" font-family="Liberation Sans, sans-serif" font-size="353px" font-weight="400"><tspan class="TextPosition" x="13077" y="3350"><tspan fill="rgb(0,0,0)" stroke="none">120%</tspan></tspan></tspan></text>
 <text class="SVGTextShape"><tspan class="TextParagraph" font-family="Liberation Sans, sans-serif" font-size="353px" font-weight="400"><tspan class="TextPosition" x="14807" y="3350"><tspan fill="rgb(0,0,0)" stroke="none">140%</tspan></tspan></tspan></text>
 <path fill="rgb(0,138,207)" stroke="none" d="M 9872,589 L 9766,589 9766,378 9977,378 9977,589 9872,589 Z"/>
 <path fill="rgb(12,50,44)" stroke="none" d="M 7792,589 L 7687,589 7687,378 7898,378 7898,589 7792,589 Z"/>
 <path fill="rgb(255,193,8)" stroke="none" d="M 6691,589 L 6586,589 6586,378 6797,378 6797,589 6691,589 Z"/>
 <path fill="rgb(19,148,72)" stroke="none" d="M 4611,589 L 4506,589 4506,378 4717,378 4717,589 4611,589 Z"/>
 <path fill="rgb(126,0,33)" stroke="none" d="M 3510,589 L 3405,589 3405,378 3616,378 3616,589 3510,589 Z"/>
 <text class="SVGTextShape"><tspan class="TextParagraph" font-family="Liberation Sans, sans-serif" font-size="353px" font-weight="400"><tspan class="TextPosition" x="3716" y="603"><tspan fill="rgb(0,0,0)" stroke="none">-O2</tspan></tspan></tspan></text>
 <text class="SVGTextShape"><tspan class="TextParagraph" font-family="Liberation Sans, sans-serif" font-size="353px" font-weight="400"><tspan class="TextPosition" x="4817" y="603"><tspan fill="rgb(0,0,0)" stroke="none">-O2 (LTO)</tspan></tspan></tspan></text>
 <text class="SVGTextShape"><tspan class="TextParagraph" font-family="Liberation Sans, sans-serif" font-size="353px" font-weight="400"><tspan class="TextPosition" x="6897" y="603"><tspan fill="rgb(0,0,0)" stroke="none">-O3</tspan></tspan></tspan></text>
 <text class="SVGTextShape"><tspan class="TextParagraph" font-family="Liberation Sans, sans-serif" font-size="353px" font-weight="400"><tspan class="TextPosition" x="7998" y="603"><tspan fill="rgb(0,0,0)" stroke="none">-O3 (LTO)</tspan></tspan></tspan></text>
 <text class="SVGTextShape"><tspan class="TextParagraph" font-family="Liberation Sans, sans-serif" font-size="353px" font-weight="400"><tspan class="TextPosition" x="10077" y="603"><tspan fill="rgb(0,0,0)" stroke="none">-O3 (LTO+PGO)</tspan></tspan></tspan></text>
</svg>