<?xml version="1.0" encoding="UTF-8"?>
<!DOCTYPE svg PUBLIC "-//W3C//DTD SVG 1.1//EN" "http://www.w3.org/Graphics/SVG/1.1/DTD/svg11.dtd">
<svg width="160mm" height="55mm" viewBox="0 0 16000 5500" version="1.1" xmlns="http://www.w3.org/2000/svg" xmlns:xlink="http://www.w3.org/1999/xlink" stroke-width="28.222" stroke-linejoin="round" xml:space="preserve">
 <path fill="rgb(255,255,255)" stroke="none" d="M 8000,5451 L 0,5451 0,42 16000,42 16000,5451 8000,5451 Z"/>
 <path fill="none" stroke="rgb(179,179,179)" stroke-linejoin="round" d="M 6987,4702 L 2688,4702 2688,150 11286,150 11286,4702 6987,4702 Z"/>
 <path fill="none" stroke="rgb(179,179,179)" stroke-linejoin="round" d="M 2688,148 L 2688,4700"/>
 <path fill="none" stroke="rgb(179,179,179)" stroke-linejoin="round" d="M 3916,148 L 3916,4700"/>
 <path fill="none" stroke="rgb(179,179,179)" stroke-linejoin="round" d="M 5144,148 L 5144,4700"/>
 <path fill="none" stroke="rgb(179,179,179)" stroke-linejoin="round" d="M 6373,148 L 6373,4700"/>
 <path fill="none" stroke="rgb(179,179,179)" stroke-linejoin="round" d="M 7601,148 L 7601,4700"/>
 <path fill="none" stroke="rgb(179,179,179)" stroke-linejoin="round" d="M 8829,148 L 8829,4700"/>
 <path fill="none" stroke="rgb(179,179,179)" stroke-linejoin="round" d="M 10057,148 L 10057,4700"/>
 <path fill="none" stroke="rgb(179,179,179)" stroke-linejoin="round" d="M 11286,148 L 11286,4700"/>
 <path fill="none" stroke="rgb(179,179,179)" stroke-linejoin="round" d="M 2538,149 L 2688,149"/>
 <path fill="none" stroke="rgb(179,179,179)" stroke-linejoin="round" d="M 2538,149 L 2688,149"/>
 <path fill="none" stroke="rgb(179,179,179)" stroke-linejoin="round" d="M 2538,907 L 2688,907"/>
 <path fill="none" stroke="rgb(179,179,179)" stroke-linejoin="round" d="M 2538,907 L 2688,907"/>
 <path fill="none" stroke="rgb(179,179,179)" stroke-linejoin="round" d="M 2538,1666 L 2688,1666"/>
 <path fill="none" stroke="rgb(179,179,179)" stroke-linejoin="round" d="M 2538,1666 L 2688,1666"/>
 <path fill="none" stroke="rgb(179,179,179)" stroke-linejoin="round" d="M 2538,2424 L 2688,2424"/>
 <path fill="none" stroke="rgb(179,179,179)" stroke-linejoin="round" d="M 2538,2424 L 2688,2424"/>
 <path fill="none" stroke="rgb(179,179,179)" stroke-linejoin="round" d="M 2538,3183 L 2688,3183"/>
 <path fill="none" stroke="rgb(179,179,179)" stroke-linejoin="round" d="M 2538,3183 L 2688,3183"/>
 <path fill="none" stroke="rgb(179,179,179)" stroke-linejoin="round" d="M 2538,3942 L 2688,3942"/>
 <path fill="none" stroke="rgb(179,179,179)" stroke-linejoin="round" d="M 2538,3942 L 2688,3942"/>
 <path fill="none" stroke="rgb(179,179,179)" stroke-linejoin="round" d="M 2538,4700 L 2688,4700"/>
 <path fill="none" stroke="rgb(179,179,179)" stroke-linejoin="round" d="M 2538,4700 L 2688,4700"/>
 <path fill="none" stroke="rgb(179,179,179)" stroke-linejoin="round" d="M 2688,4700 L 2688,148"/>
 <path fill="none" stroke="rgb(179,179,179)" stroke-linejoin="round" d="M 2688,4849 L 2688,4700"/>
 <path fill="none" stroke="rgb(179,179,179)" stroke-linejoin="round" d="M 2688,0 L 2688,148"/>
 <path fill="none" stroke="rgb(179,179,179)" stroke-linejoin="round" d="M 3916,4849 L 3916,4700"/>
 <path fill="none" stroke="rgb(179,179,179)" stroke-linejoin="round" d="M 3916,0 L 3916,148"/>
 <path fill="none" stroke="rgb(179,179,179)" stroke-linejoin="round" d="M 5144,4849 L 5144,4700"/>
 <path fill="none" stroke="rgb(179,179,179)" stroke-linejoin="round" d="M 5144,0 L 5144,148"/>
 <path fill="none" stroke="rgb(179,179,179)" stroke-linejoin="round" d="M 6373,4849 L 6373,4700"/>
 <path fill="none" stroke="rgb(179,179,179)" stroke-linejoin="round" d="M 6373,0 L 6373,148"/>
 <path fill="none" stroke="rgb(179,179,179)" stroke-linejoin="round" d="M 7601,4849 L 7601,4700"/>
 <path fill="none" stroke="rgb(179,179,179)" stroke-linejoin="round" d="M 7601,0 L 7601,148"/>
 <path fill="none" stroke="rgb(179,179,179)" stroke-linejoin="round" d="M 8829,4849 L 8829,4700"/>
 <path fill="none" stroke="rgb(179,179,179)" stroke-linejoin="round" d="M 8829,0 L 8829,148"/>
 <path fill="none" stroke="rgb(179,179,179)" stroke-linejoin="round" d="M 10057,4849 L 10057,4700"/>
 <path fill="none" stroke="rgb(179,179,179)" stroke-linejoin="round" d="M 10057,0 L 10057,148"/>
 <path fill="none" stroke="rgb(179,179,179)" stroke-linejoin="round" d="M 11286,4849 L 11286,4700"/>
 <path fill="none" stroke="rgb(179,179,179)" stroke-linejoin="round" d="M 11286,0 L 11286,148"/>
 <path fill="none" stroke="rgb(179,179,179)" stroke-linejoin="round" d="M 2688,148 L 11286,148"/>
 <path fill="rgb(220,53,69)" stroke="none" d="M 2688,4068 L 2688,4321 8829,4321 8829,4068 2688,4068 Z"/>
 <path fill="rgb(220,53,69)" stroke="none" d="M 2688,3310 L 2688,3563 8829,3563 8829,3310 2688,3310 Z"/>
 <path fill="rgb(220,53,69)" stroke="none" d="M 2688,2551 L 2688,2804 8829,2804 8829,2551 2688,2551 Z"/>
 <path fill="rgb(220,53,69)" stroke="none" d="M 2688,1792 L 2688,2045 8829,2045 8829,1792 2688,1792 Z"/>
 <path fill="rgb(220,53,69)" stroke="none" d="M 2688,1034 L 2688,1286 8829,1286 8829,1034 2688,1034 Z"/>
 <path fill="rgb(220,53,69)" stroke="none" d="M 2688,275 L 2688,528 8829,528 8829,275 2688,275 Z"/>
 <path fill="rgb(12,50,44)" stroke="none" d="M 2688,4321 L 2688,4574 10106,4574 10106,4321 2688,4321 Z"/>
 <path fill="rgb(12,50,44)" stroke="none" d="M 2688,3562 L 2688,3815 9520,3815 9520,3562 2688,3562 Z"/>
 <path fill="rgb(12,50,44)" stroke="none" d="M 2688,2804 L 2688,3057 9864,3057 9864,2804 2688,2804 Z"/>
 <path fill="rgb(12,50,44)" stroke="none" d="M 2688,2045 L 2688,2298 9591,2298 9591,2045 2688,2045 Z"/>
 <path fill="rgb(12,50,44)" stroke="none" d="M 2688,1286 L 2688,1539 9479,1539 9479,1286 2688,1286 Z"/>
 <path fill="rgb(12,50,44)" stroke="none" d="M 2688,528 L 2688,781 10329,781 10329,528 2688,528 Z"/>
 <text class="TextShape"><tspan class="TextParagraph" font-family="Liberation Sans, sans-serif" font-size="350px" font-weight="400"><tspan class="TextPosition" x="321" y="648"><tspan fill="rgb(0,0,0)" stroke="none">503.bwaves_r</tspan></tspan></tspan></text>
 <text class="TextShape"><tspan class="TextParagraph" font-family="Liberation Sans, sans-serif" font-size="350px" font-weight="400"><tspan class="TextPosition" x="533" y="1407"><tspan fill="rgb(0,0,0)" stroke="none">510.parest_r</tspan></tspan></tspan></text>
 <text class="TextShape"><tspan class="TextParagraph" font-family="Liberation Sans, sans-serif" font-size="350px" font-weight="400"><tspan class="TextPosition" x="930" y="2165"><tspan fill="rgb(0,0,0)" stroke="none">519.lbm_r</tspan></tspan></tspan></text>
 <text class="TextShape"><tspan class="TextParagraph" font-family="Liberation Sans, sans-serif" font-size="350px" font-weight="400"><tspan class="TextPosition" x="1036" y="2924"><tspan fill="rgb(0,0,0)" stroke="none">521.wrf_r</tspan></tspan></tspan></text>
 <text class="TextShape"><tspan class="TextParagraph" font-family="Liberation Sans, sans-serif" font-size="350px" font-weight="400"><tspan class="TextPosition" x="930" y="3682"><tspan fill="rgb(0,0,0)" stroke="none">544.nab_r</tspan></tspan></tspan></text>
 <text class="TextShape"><tspan class="TextParagraph" font-family="Liberation Sans, sans-serif" font-size="350px" font-weight="400"><tspan class="TextPosition" x="718" y="4441"><tspan fill="rgb(0,0,0)" stroke="none">554.roms_r</tspan></tspan></tspan></text>
 <text class="TextShape"><tspan class="TextParagraph" font-family="Liberation Sans, sans-serif" font-size="350px" font-weight="400"><tspan class="TextPosition" x="2436" y="5263"><tspan fill="rgb(0,0,0)" stroke="none">0%</tspan></tspan></tspan></text>
 <text class="TextShape"><tspan class="TextParagraph" font-family="Liberation Sans, sans-serif" font-size="350px" font-weight="400"><tspan class="TextPosition" x="3572" y="5263"><tspan fill="rgb(0,0,0)" stroke="none">20%</tspan></tspan></tspan></text>
 <text class="TextShape"><tspan class="TextParagraph" font-family="Liberation Sans, sans-serif" font-size="350px" font-weight="400"><tspan class="TextPosition" x="4800" y="5263"><tspan fill="rgb(0,0,0)" stroke="none">40%</tspan></tspan></tspan></text>
 <text class="TextShape"><tspan class="TextParagraph" font-family="Liberation Sans, sans-serif" font-size="350px" font-weight="400"><tspan class="TextPosition" x="6029" y="5263"><tspan fill="rgb(0,0,0)" stroke="none">60%</tspan></tspan></tspan></text>
 <text class="TextShape"><tspan class="TextParagraph" font-family="Liberation Sans, sans-serif" font-size="350px" font-weight="400"><tspan class="TextPosition" x="7257" y="5263"><tspan fill="rgb(0,0,0)" stroke="none">80%</tspan></tspan></tspan></text>
 <text class="TextShape"><tspan class="TextParagraph" font-family="Liberation Sans, sans-serif" font-size="350px" font-weight="400"><tspan class="TextPosition" x="8393" y="5263"><tspan fill="rgb(0,0,0)" stroke="none">100%</tspan></tspan></tspan></text>
 <text class="TextShape"><tspan class="TextParagraph" font-family="Liberation Sans, sans-serif" font-size="350px" font-weight="400"><tspan class="TextPosition" x="9621" y="5263"><tspan fill="rgb(0,0,0)" stroke="none">120%</tspan></tspan></tspan></text>
 <text class="TextShape"><tspan class="TextParagraph" font-family="Liberation Sans, sans-serif" font-size="350px" font-weight="400"><tspan class="TextPosition" x="10850" y="5263"><tspan fill="rgb(0,0,0)" stroke="none">140%</tspan></tspan></tspan></text>
 <path fill="rgb(220,53,69)" stroke="none" d="M 12266,3098 L 12160,3098 12160,2888 12371,2888 12371,3098 12266,3098 Z"/>
 <path fill="rgb(12,50,44)" stroke="none" d="M 12266,2604 L 12160,2604 12160,2394 12371,2394 12371,2604 12266,2604 Z"/>
 <text class="TextShape"><tspan class="TextParagraph" font-family="Liberation Sans, sans-serif" font-size="350px" font-weight="400"><tspan class="TextPosition" x="12471" y="2618"><tspan fill="rgb(0,0,0)" stroke="none">-O3 -ffastmath (LTO)</tspan></tspan></tspan></text>
 <text class="TextShape"><tspan class="TextParagraph" font-family="Liberation Sans, sans-serif" font-size="350px" font-weight="400"><tspan class="TextPosition" x="12471" y="3112"><tspan fill="rgb(0,0,0)" stroke="none">Plain -O3 (LTO)</tspan></tspan></tspan></text>
</svg>