<?xml version="1.0" encoding="UTF-8"?>
<!DOCTYPE svg PUBLIC "-//W3C//DTD SVG 1.1//EN" "http://www.w3.org/Graphics/SVG/1.1/DTD/svg11.dtd">
<svg width="160mm" height="107mm" viewBox="0 0 16000 10700" version="1.1" xmlns="http://www.w3.org/2000/svg" xmlns:xlink="http://www.w3.org/1999/xlink" stroke-width="28.222" stroke-linejoin="round" xml:space="preserve">
 <path fill="rgb(255,255,255)" stroke="none" d="M 8000,10700 L 0,10700 0,0 16000,0 16000,10700 8000,10700 Z"/>
 <path fill="none" stroke="rgb(179,179,179)" stroke-linejoin="round" d="M 7544,9839 L 2715,9839 2715,214 12372,214 12372,9839 7544,9839 Z"/>
 <path fill="none" stroke="rgb(179,179,179)" stroke-linejoin="round" d="M 12372,212 L 12372,9838"/>
 <path fill="none" stroke="rgb(179,179,179)" stroke-linejoin="round" d="M 10992,212 L 10992,9838"/>
 <path fill="none" stroke="rgb(179,179,179)" stroke-linejoin="round" d="M 9612,212 L 9612,9838"/>
 <path fill="none" stroke="rgb(179,179,179)" stroke-linejoin="round" d="M 8232,212 L 8232,9838"/>
 <path fill="none" stroke="rgb(179,179,179)" stroke-linejoin="round" d="M 6854,212 L 6854,9838"/>
 <path fill="none" stroke="rgb(179,179,179)" stroke-linejoin="round" d="M 5474,212 L 5474,9838"/>
 <path fill="none" stroke="rgb(179,179,179)" stroke-linejoin="round" d="M 4094,212 L 4094,9838"/>
 <path fill="none" stroke="rgb(179,179,179)" stroke-linejoin="round" d="M 2715,212 L 2715,9838"/>
 <path fill="none" stroke="rgb(179,179,179)" stroke-linejoin="round" d="M 12522,213 L 12372,213"/>
 <path fill="none" stroke="rgb(179,179,179)" stroke-linejoin="round" d="M 12522,213 L 12372,213"/>
 <path fill="none" stroke="rgb(179,179,179)" stroke-linejoin="round" d="M 12522,1282 L 12372,1282"/>
 <path fill="none" stroke="rgb(179,179,179)" stroke-linejoin="round" d="M 12522,1282 L 12372,1282"/>
 <path fill="none" stroke="rgb(179,179,179)" stroke-linejoin="round" d="M 12522,2352 L 12372,2352"/>
 <path fill="none" stroke="rgb(179,179,179)" stroke-linejoin="round" d="M 12522,2352 L 12372,2352"/>
 <path fill="none" stroke="rgb(179,179,179)" stroke-linejoin="round" d="M 12522,3421 L 12372,3421"/>
 <path fill="none" stroke="rgb(179,179,179)" stroke-linejoin="round" d="M 12522,3421 L 12372,3421"/>
 <path fill="none" stroke="rgb(179,179,179)" stroke-linejoin="round" d="M 12522,4491 L 12372,4491"/>
 <path fill="none" stroke="rgb(179,179,179)" stroke-linejoin="round" d="M 12522,4491 L 12372,4491"/>
 <path fill="none" stroke="rgb(179,179,179)" stroke-linejoin="round" d="M 12522,5559 L 12372,5559"/>
 <path fill="none" stroke="rgb(179,179,179)" stroke-linejoin="round" d="M 12522,5559 L 12372,5559"/>
 <path fill="none" stroke="rgb(179,179,179)" stroke-linejoin="round" d="M 12522,6629 L 12372,6629"/>
 <path fill="none" stroke="rgb(179,179,179)" stroke-linejoin="round" d="M 12522,6629 L 12372,6629"/>
 <path fill="none" stroke="rgb(179,179,179)" stroke-linejoin="round" d="M 12522,7698 L 12372,7698"/>
 <path fill="none" stroke="rgb(179,179,179)" stroke-linejoin="round" d="M 12522,7698 L 12372,7698"/>
 <path fill="none" stroke="rgb(179,179,179)" stroke-linejoin="round" d="M 12522,8768 L 12372,8768"/>
 <path fill="none" stroke="rgb(179,179,179)" stroke-linejoin="round" d="M 12522,8768 L 12372,8768"/>
 <path fill="none" stroke="rgb(179,179,179)" stroke-linejoin="round" d="M 12522,9838 L 12372,9838"/>
 <path fill="none" stroke="rgb(179,179,179)" stroke-linejoin="round" d="M 12522,9838 L 12372,9838"/>
 <path fill="none" stroke="rgb(179,179,179)" stroke-linejoin="round" d="M 12372,9838 L 12372,212"/>
 <path fill="none" stroke="rgb(179,179,179)" stroke-linejoin="round" d="M 12372,9988 L 12372,9838"/>
 <path fill="none" stroke="rgb(179,179,179)" stroke-linejoin="round" d="M 12372,62 L 12372,212"/>
 <path fill="none" stroke="rgb(179,179,179)" stroke-linejoin="round" d="M 10992,9988 L 10992,9838"/>
 <path fill="none" stroke="rgb(179,179,179)" stroke-linejoin="round" d="M 10992,62 L 10992,212"/>
 <path fill="none" stroke="rgb(179,179,179)" stroke-linejoin="round" d="M 9612,9988 L 9612,9838"/>
 <path fill="none" stroke="rgb(179,179,179)" stroke-linejoin="round" d="M 9612,62 L 9612,212"/>
 <path fill="none" stroke="rgb(179,179,179)" stroke-linejoin="round" d="M 8232,9988 L 8232,9838"/>
 <path fill="none" stroke="rgb(179,179,179)" stroke-linejoin="round" d="M 8232,62 L 8232,212"/>
 <path fill="none" stroke="rgb(179,179,179)" stroke-linejoin="round" d="M 6854,9988 L 6854,9838"/>
 <path fill="none" stroke="rgb(179,179,179)" stroke-linejoin="round" d="M 6854,62 L 6854,212"/>
 <path fill="none" stroke="rgb(179,179,179)" stroke-linejoin="round" d="M 5474,9988 L 5474,9838"/>
 <path fill="none" stroke="rgb(179,179,179)" stroke-linejoin="round" d="M 5474,62 L 5474,212"/>
 <path fill="none" stroke="rgb(179,179,179)" stroke-linejoin="round" d="M 4094,9988 L 4094,9838"/>
 <path fill="none" stroke="rgb(179,179,179)" stroke-linejoin="round" d="M 4094,62 L 4094,212"/>
 <path fill="none" stroke="rgb(179,179,179)" stroke-linejoin="round" d="M 2715,9988 L 2715,9838"/>
 <path fill="none" stroke="rgb(179,179,179)" stroke-linejoin="round" d="M 2715,62 L 2715,212"/>
 <path fill="none" stroke="rgb(179,179,179)" stroke-linejoin="round" d="M 2715,212 L 12372,212"/>
 <path fill="rgb(19,148,72)" stroke="none" d="M 12372,8875 L 12372,9089 5474,9089 5474,8875 12372,8875 Z"/>
 <path fill="rgb(19,148,72)" stroke="none" d="M 12372,7805 L 12372,8019 5474,8019 5474,7805 12372,7805 Z"/>
 <path fill="rgb(19,148,72)" stroke="none" d="M 12372,6736 L 12372,6950 5474,6950 5474,6736 12372,6736 Z"/>
 <path fill="rgb(19,148,72)" stroke="none" d="M 12372,5666 L 12372,5880 5474,5880 5474,5666 12372,5666 Z"/>
 <path fill="rgb(19,148,72)" stroke="none" d="M 12372,4598 L 12372,4812 5474,4812 5474,4598 12372,4598 Z"/>
 <path fill="rgb(19,148,72)" stroke="none" d="M 12372,3528 L 12372,3742 5474,3742 5474,3528 12372,3528 Z"/>
 <path fill="rgb(19,148,72)" stroke="none" d="M 12372,2459 L 12372,2672 5474,2672 5474,2459 12372,2459 Z"/>
 <path fill="rgb(19,148,72)" stroke="none" d="M 12372,1389 L 12372,1603 5474,1603 5474,1389 12372,1389 Z"/>
 <path fill="rgb(19,148,72)" stroke="none" d="M 12372,319 L 12372,533 5474,533 5474,319 12372,319 Z"/>
 <path fill="rgb(12,50,44)" stroke="none" d="M 12372,9089 L 12372,9303 7716,9303 7716,9089 12372,9089 Z"/>
 <path fill="rgb(12,50,44)" stroke="none" d="M 12372,8019 L 12372,8233 8138,8233 8138,8019 12372,8019 Z"/>
 <path fill="rgb(12,50,44)" stroke="none" d="M 12372,6950 L 12372,7164 5536,7164 5536,6950 12372,6950 Z"/>
 <path fill="rgb(12,50,44)" stroke="none" d="M 12372,5880 L 12372,6094 5576,6094 5576,5880 12372,5880 Z"/>
 <path fill="rgb(12,50,44)" stroke="none" d="M 12372,4812 L 12372,5025 6905,5025 6905,4812 12372,4812 Z"/>
 <path fill="rgb(12,50,44)" stroke="none" d="M 12372,3742 L 12372,3956 6521,3956 6521,3742 12372,3742 Z"/>
 <path fill="rgb(12,50,44)" stroke="none" d="M 12372,2672 L 12372,2886 7024,2886 7024,2672 12372,2672 Z"/>
 <path fill="rgb(12,50,44)" stroke="none" d="M 12372,1603 L 12372,1817 5455,1817 5455,1603 12372,1603 Z"/>
 <path fill="rgb(12,50,44)" stroke="none" d="M 12372,533 L 12372,747 5347,747 5347,533 12372,533 Z"/>
 <path fill="rgb(255,211,32)" stroke="none" d="M 12372,9303 L 12372,9517 5778,9517 5778,9303 12372,9303 Z"/>
 <path fill="rgb(255,211,32)" stroke="none" d="M 12372,8233 L 12372,8447 6499,8447 6499,8233 12372,8233 Z"/>
 <path fill="rgb(255,211,32)" stroke="none" d="M 12372,7164 L 12372,7378 5468,7378 5468,7164 12372,7164 Z"/>
 <path fill="rgb(255,211,32)" stroke="none" d="M 12372,6094 L 12372,6308 4854,6308 4854,6094 12372,6094 Z"/>
 <path fill="rgb(255,211,32)" stroke="none" d="M 12372,5026 L 12372,5239 7104,5239 7104,5026 12372,5026 Z"/>
 <path fill="rgb(255,211,32)" stroke="none" d="M 12372,3956 L 12372,4170 6997,4170 6997,3956 12372,3956 Z"/>
 <path fill="rgb(255,211,32)" stroke="none" d="M 12372,2886 L 12372,3100 3799,3100 3799,2886 12372,2886 Z"/>
 <path fill="rgb(255,211,32)" stroke="none" d="M 12372,1817 L 12372,2031 5818,2031 5818,1817 12372,1817 Z"/>
 <path fill="rgb(255,211,32)" stroke="none" d="M 12372,747 L 12372,961 5914,961 5914,747 12372,747 Z"/>
 <path fill="rgb(0,138,207)" stroke="none" d="M 12372,9517 L 12372,9731 8127,9731 8127,9517 12372,9517 Z"/>
 <path fill="rgb(0,138,207)" stroke="none" d="M 12372,8447 L 12372,8661 8795,8661 8795,8447 12372,8447 Z"/>
 <path fill="rgb(0,138,207)" stroke="none" d="M 12372,7378 L 12372,7591 5529,7591 5529,7378 12372,7378 Z"/>
 <path fill="rgb(0,138,207)" stroke="none" d="M 12372,6308 L 12372,6522 5373,6522 5373,6308 12372,6308 Z"/>
 <path fill="rgb(0,138,207)" stroke="none" d="M 12372,5239 L 12372,5452 8225,5452 8225,5239 12372,5239 Z"/>
 <path fill="rgb(0,138,207)" stroke="none" d="M 12372,4170 L 12372,4384 7836,4384 7836,4170 12372,4170 Z"/>
 <path fill="rgb(0,138,207)" stroke="none" d="M 12372,3100 L 12372,3314 6436,3314 6436,3100 12372,3100 Z"/>
 <path fill="rgb(0,138,207)" stroke="none" d="M 12372,2031 L 12372,2245 6052,2245 6052,2031 12372,2031 Z"/>
 <path fill="rgb(0,138,207)" stroke="none" d="M 12372,961 L 12372,1175 6227,1175 6227,961 12372,961 Z"/>
 <text class="SVGTextShape"><tspan class="TextParagraph" font-family="Liberation Sans, sans-serif" font-size="353px" font-weight="400"><tspan class="TextPosition" x="12622" y="867"><tspan fill="rgb(0,0,0)" stroke="none">500.perlbench_r</tspan></tspan></tspan></text>
 <text class="SVGTextShape"><tspan class="TextParagraph" font-family="Liberation Sans, sans-serif" font-size="353px" font-weight="400"><tspan class="TextPosition" x="12622" y="1937"><tspan fill="rgb(0,0,0)" stroke="none">502.gcc_r</tspan></tspan></tspan></text>
 <text class="SVGTextShape"><tspan class="TextParagraph" font-family="Liberation Sans, sans-serif" font-size="353px" font-weight="400"><tspan class="TextPosition" x="12622" y="3006"><tspan fill="rgb(0,0,0)" stroke="none">505.mcf_r</tspan></tspan></tspan></text>
 <text class="SVGTextShape"><tspan class="TextParagraph" font-family="Liberation Sans, sans-serif" font-size="353px" font-weight="400"><tspan class="TextPosition" x="12622" y="4076"><tspan fill="rgb(0,0,0)" stroke="none">520.omnetpp_r</tspan></tspan></tspan></text>
 <text class="SVGTextShape"><tspan class="TextParagraph" font-family="Liberation Sans, sans-serif" font-size="353px" font-weight="400"><tspan class="TextPosition" x="12622" y="5146"><tspan fill="rgb(0,0,0)" stroke="none">523.xalancbmk_r</tspan></tspan></tspan></text>
 <text class="SVGTextShape"><tspan class="TextParagraph" font-family="Liberation Sans, sans-serif" font-size="353px" font-weight="400"><tspan class="TextPosition" x="12622" y="6215"><tspan fill="rgb(0,0,0)" stroke="none">525.x264_r</tspan></tspan></tspan></text>
 <text class="SVGTextShape"><tspan class="TextParagraph" font-family="Liberation Sans, sans-serif" font-size="353px" font-weight="400"><tspan class="TextPosition" x="12622" y="7285"><tspan fill="rgb(0,0,0)" stroke="none">531.deepsjeng_r</tspan></tspan></tspan></text>
 <text class="SVGTextShape"><tspan class="TextParagraph" font-family="Liberation Sans, sans-serif" font-size="353px" font-weight="400"><tspan class="TextPosition" x="12622" y="8354"><tspan fill="rgb(0,0,0)" stroke="none">541.leela_r</tspan></tspan></tspan></text>
 <text class="SVGTextShape"><tspan class="TextParagraph" font-family="Liberation Sans, sans-serif" font-size="353px" font-weight="400"><tspan class="TextPosition" x="12622" y="9424"><tspan fill="rgb(0,0,0)" stroke="none">557.xz_r</tspan></tspan></tspan></text>
 <text class="SVGTextShape"><tspan class="TextParagraph" font-family="Liberation Sans, sans-serif" font-size="353px" font-weight="400"><tspan class="TextPosition" x="12121" y="10406"><tspan fill="rgb(0,0,0)" stroke="none">0%</tspan></tspan></tspan></text>
 <text class="SVGTextShape"><tspan class="TextParagraph" font-family="Liberation Sans, sans-serif" font-size="353px" font-weight="400"><tspan class="TextPosition" x="10649" y="10406"><tspan fill="rgb(0,0,0)" stroke="none">20%</tspan></tspan></tspan></text>
 <text class="SVGTextShape"><tspan class="TextParagraph" font-family="Liberation Sans, sans-serif" font-size="353px" font-weight="400"><tspan class="TextPosition" x="9269" y="10406"><tspan fill="rgb(0,0,0)" stroke="none">40%</tspan></tspan></tspan></text>
 <text class="SVGTextShape"><tspan class="TextParagraph" font-family="Liberation Sans, sans-serif" font-size="353px" font-weight="400"><tspan class="TextPosition" x="7889" y="10406"><tspan fill="rgb(0,0,0)" stroke="none">60%</tspan></tspan></tspan></text>
 <text class="SVGTextShape"><tspan class="TextParagraph" font-family="Liberation Sans, sans-serif" font-size="353px" font-weight="400"><tspan class="TextPosition" x="6510" y="10406"><tspan fill="rgb(0,0,0)" stroke="none">80%</tspan></tspan></tspan></text>
 <text class="SVGTextShape"><tspan class="TextParagraph" font-family="Liberation Sans, sans-serif" font-size="353px" font-weight="400"><tspan class="TextPosition" x="5037" y="10406"><tspan fill="rgb(0,0,0)" stroke="none">100%</tspan></tspan></tspan></text>
 <text class="SVGTextShape"><tspan class="TextParagraph" font-family="Liberation Sans, sans-serif" font-size="353px" font-weight="400"><tspan class="TextPosition" x="3657" y="10406"><tspan fill="rgb(0,0,0)" stroke="none">120%</tspan></tspan></tspan></text>
 <text class="SVGTextShape"><tspan class="TextParagraph" font-family="Liberation Sans, sans-serif" font-size="353px" font-weight="400"><tspan class="TextPosition" x="2278" y="10406"><tspan fill="rgb(0,0,0)" stroke="none">140%</tspan></tspan></tspan></text>
 <path fill="rgb(19,148,72)" stroke="none" d="M 431,6201 L 326,6201 326,5990 537,5990 537,6201 431,6201 Z"/>
 <path fill="rgb(12,50,44)" stroke="none" d="M 431,5703 L 326,5703 326,5492 537,5492 537,5703 431,5703 Z"/>
 <path fill="rgb(255,211,32)" stroke="none" d="M 431,5206 L 326,5206 326,4995 537,4995 537,5206 431,5206 Z"/>
 <path fill="rgb(0,138,207)" stroke="none" d="M 431,4708 L 326,4708 326,4497 537,4497 537,4708 431,4708 Z"/>
 <text class="SVGTextShape"><tspan class="TextParagraph" font-family="Liberation Sans, sans-serif" font-size="353px" font-weight="400"><tspan class="TextPosition" x="637" y="4722"><tspan fill="rgb(0,0,0)" stroke="none">LTO+PGO</tspan></tspan></tspan></text>
 <text class="SVGTextShape"><tspan class="TextParagraph" font-family="Liberation Sans, sans-serif" font-size="353px" font-weight="400"><tspan class="TextPosition" x="637" y="5220"><tspan fill="rgb(0,0,0)" stroke="none">PGO</tspan></tspan></tspan></text>
 <text class="SVGTextShape"><tspan class="TextParagraph" font-family="Liberation Sans, sans-serif" font-size="353px" font-weight="400"><tspan class="TextPosition" x="637" y="5717"><tspan fill="rgb(0,0,0)" stroke="none">LTO</tspan></tspan></tspan></text>
 <text class="SVGTextShape"><tspan class="TextParagraph" font-family="Liberation Sans, sans-serif" font-size="353px" font-weight="400"><tspan class="TextPosition" x="637" y="6215"><tspan fill="rgb(0,0,0)" stroke="none">Normal</tspan></tspan></tspan></text>
</svg>