<?xml version="1.0" encoding="UTF-8"?>
<!DOCTYPE svg PUBLIC "-//W3C//DTD SVG 1.1//EN" "http://www.w3.org/Graphics/SVG/1.1/DTD/svg11.dtd">
<svg width="160mm" height="140mm" viewBox="0 0 16000 14000" version="1.1" xmlns="http://www.w3.org/2000/svg" xmlns:xlink="http://www.w3.org/1999/xlink" stroke-width="28.222" stroke-linejoin="round" xml:space="preserve">
 <path fill="rgb(255,255,255)" stroke="none" d="M 7987,13987 L -13,13987 -13,-13 15987,-13 15987,13987 7987,13987 Z"/>
 <path fill="none" stroke="rgb(179,179,179)" stroke-linejoin="round" d="M 7725,13060 L 3292,13060 3292,267 12157,267 12157,13060 7725,13060 Z"/>
 <path fill="none" stroke="rgb(179,179,179)" stroke-linejoin="round" d="M 3292,265 L 3292,13059"/>
 <path fill="none" stroke="rgb(179,179,179)" stroke-linejoin="round" d="M 4277,265 L 4277,13059"/>
 <path fill="none" stroke="rgb(179,179,179)" stroke-linejoin="round" d="M 5262,265 L 5262,13059"/>
 <path fill="none" stroke="rgb(179,179,179)" stroke-linejoin="round" d="M 6247,265 L 6247,13059"/>
 <path fill="none" stroke="rgb(179,179,179)" stroke-linejoin="round" d="M 7232,265 L 7232,13059"/>
 <path fill="none" stroke="rgb(179,179,179)" stroke-linejoin="round" d="M 8216,265 L 8216,13059"/>
 <path fill="none" stroke="rgb(179,179,179)" stroke-linejoin="round" d="M 9201,265 L 9201,13059"/>
 <path fill="none" stroke="rgb(179,179,179)" stroke-linejoin="round" d="M 10186,265 L 10186,13059"/>
 <path fill="none" stroke="rgb(179,179,179)" stroke-linejoin="round" d="M 11171,265 L 11171,13059"/>
 <path fill="none" stroke="rgb(179,179,179)" stroke-linejoin="round" d="M 12157,265 L 12157,13059"/>
 <path fill="none" stroke="rgb(179,179,179)" stroke-linejoin="round" d="M 3142,265 L 3292,265"/>
 <path fill="none" stroke="rgb(179,179,179)" stroke-linejoin="round" d="M 3142,265 L 3292,265"/>
 <path fill="none" stroke="rgb(179,179,179)" stroke-linejoin="round" d="M 3142,1250 L 3292,1250"/>
 <path fill="none" stroke="rgb(179,179,179)" stroke-linejoin="round" d="M 3142,1250 L 3292,1250"/>
 <path fill="none" stroke="rgb(179,179,179)" stroke-linejoin="round" d="M 3142,2234 L 3292,2234"/>
 <path fill="none" stroke="rgb(179,179,179)" stroke-linejoin="round" d="M 3142,2234 L 3292,2234"/>
 <path fill="none" stroke="rgb(179,179,179)" stroke-linejoin="round" d="M 3142,3218 L 3292,3218"/>
 <path fill="none" stroke="rgb(179,179,179)" stroke-linejoin="round" d="M 3142,3218 L 3292,3218"/>
 <path fill="none" stroke="rgb(179,179,179)" stroke-linejoin="round" d="M 3142,4202 L 3292,4202"/>
 <path fill="none" stroke="rgb(179,179,179)" stroke-linejoin="round" d="M 3142,4202 L 3292,4202"/>
 <path fill="none" stroke="rgb(179,179,179)" stroke-linejoin="round" d="M 3142,5186 L 3292,5186"/>
 <path fill="none" stroke="rgb(179,179,179)" stroke-linejoin="round" d="M 3142,5186 L 3292,5186"/>
 <path fill="none" stroke="rgb(179,179,179)" stroke-linejoin="round" d="M 3142,6170 L 3292,6170"/>
 <path fill="none" stroke="rgb(179,179,179)" stroke-linejoin="round" d="M 3142,6170 L 3292,6170"/>
 <path fill="none" stroke="rgb(179,179,179)" stroke-linejoin="round" d="M 3142,7154 L 3292,7154"/>
 <path fill="none" stroke="rgb(179,179,179)" stroke-linejoin="round" d="M 3142,7154 L 3292,7154"/>
 <path fill="none" stroke="rgb(179,179,179)" stroke-linejoin="round" d="M 3142,8138 L 3292,8138"/>
 <path fill="none" stroke="rgb(179,179,179)" stroke-linejoin="round" d="M 3142,8138 L 3292,8138"/>
 <path fill="none" stroke="rgb(179,179,179)" stroke-linejoin="round" d="M 3142,9122 L 3292,9122"/>
 <path fill="none" stroke="rgb(179,179,179)" stroke-linejoin="round" d="M 3142,9122 L 3292,9122"/>
 <path fill="none" stroke="rgb(179,179,179)" stroke-linejoin="round" d="M 3142,10106 L 3292,10106"/>
 <path fill="none" stroke="rgb(179,179,179)" stroke-linejoin="round" d="M 3142,10106 L 3292,10106"/>
 <path fill="none" stroke="rgb(179,179,179)" stroke-linejoin="round" d="M 3142,11090 L 3292,11090"/>
 <path fill="none" stroke="rgb(179,179,179)" stroke-linejoin="round" d="M 3142,11090 L 3292,11090"/>
 <path fill="none" stroke="rgb(179,179,179)" stroke-linejoin="round" d="M 3142,12074 L 3292,12074"/>
 <path fill="none" stroke="rgb(179,179,179)" stroke-linejoin="round" d="M 3142,12074 L 3292,12074"/>
 <path fill="none" stroke="rgb(179,179,179)" stroke-linejoin="round" d="M 3142,13059 L 3292,13059"/>
 <path fill="none" stroke="rgb(179,179,179)" stroke-linejoin="round" d="M 3142,13059 L 3292,13059"/>
 <path fill="none" stroke="rgb(179,179,179)" stroke-linejoin="round" d="M 3292,13059 L 3292,265"/>
 <path fill="none" stroke="rgb(179,179,179)" stroke-linejoin="round" d="M 3292,13209 L 3292,13059"/>
 <path fill="none" stroke="rgb(179,179,179)" stroke-linejoin="round" d="M 3292,115 L 3292,265"/>
 <path fill="none" stroke="rgb(179,179,179)" stroke-linejoin="round" d="M 4277,13209 L 4277,13059"/>
 <path fill="none" stroke="rgb(179,179,179)" stroke-linejoin="round" d="M 4277,115 L 4277,265"/>
 <path fill="none" stroke="rgb(179,179,179)" stroke-linejoin="round" d="M 5262,13209 L 5262,13059"/>
 <path fill="none" stroke="rgb(179,179,179)" stroke-linejoin="round" d="M 5262,115 L 5262,265"/>
 <path fill="none" stroke="rgb(179,179,179)" stroke-linejoin="round" d="M 6247,13209 L 6247,13059"/>
 <path fill="none" stroke="rgb(179,179,179)" stroke-linejoin="round" d="M 6247,115 L 6247,265"/>
 <path fill="none" stroke="rgb(179,179,179)" stroke-linejoin="round" d="M 7232,13209 L 7232,13059"/>
 <path fill="none" stroke="rgb(179,179,179)" stroke-linejoin="round" d="M 7232,115 L 7232,265"/>
 <path fill="none" stroke="rgb(179,179,179)" stroke-linejoin="round" d="M 8216,13209 L 8216,13059"/>
 <path fill="none" stroke="rgb(179,179,179)" stroke-linejoin="round" d="M 8216,115 L 8216,265"/>
 <path fill="none" stroke="rgb(179,179,179)" stroke-linejoin="round" d="M 9201,13209 L 9201,13059"/>
 <path fill="none" stroke="rgb(179,179,179)" stroke-linejoin="round" d="M 9201,115 L 9201,265"/>
 <path fill="none" stroke="rgb(179,179,179)" stroke-linejoin="round" d="M 10186,13209 L 10186,13059"/>
 <path fill="none" stroke="rgb(179,179,179)" stroke-linejoin="round" d="M 10186,115 L 10186,265"/>
 <path fill="none" stroke="rgb(179,179,179)" stroke-linejoin="round" d="M 11171,13209 L 11171,13059"/>
 <path fill="none" stroke="rgb(179,179,179)" stroke-linejoin="round" d="M 11171,115 L 11171,265"/>
 <path fill="none" stroke="rgb(179,179,179)" stroke-linejoin="round" d="M 12157,13209 L 12157,13059"/>
 <path fill="none" stroke="rgb(179,179,179)" stroke-linejoin="round" d="M 12157,115 L 12157,265"/>
 <path fill="none" stroke="rgb(179,179,179)" stroke-linejoin="round" d="M 3292,265 L 12157,265"/>
 <path fill="rgb(220,53,69)" stroke="none" d="M 3292,430 L 3292,758 8216,758 8216,430 3292,430 Z"/>
 <path fill="rgb(220,53,69)" stroke="none" d="M 3292,1414 L 3292,1742 8216,1742 8216,1414 3292,1414 Z"/>
 <path fill="rgb(220,53,69)" stroke="none" d="M 3292,2398 L 3292,2726 8216,2726 8216,2398 3292,2398 Z"/>
 <path fill="rgb(220,53,69)" stroke="none" d="M 3292,3382 L 3292,3710 8216,3710 8216,3382 3292,3382 Z"/>
 <path fill="rgb(220,53,69)" stroke="none" d="M 3292,4366 L 3292,4694 8216,4694 8216,4366 3292,4366 Z"/>
 <path fill="rgb(220,53,69)" stroke="none" d="M 3292,5350 L 3292,5678 8216,5678 8216,5350 3292,5350 Z"/>
 <path fill="rgb(220,53,69)" stroke="none" d="M 3292,6334 L 3292,6663 8216,6663 8216,6334 3292,6334 Z"/>
 <path fill="rgb(220,53,69)" stroke="none" d="M 3292,7318 L 3292,7646 8216,7646 8216,7318 3292,7318 Z"/>
 <path fill="rgb(220,53,69)" stroke="none" d="M 3292,8302 L 3292,8630 8216,8630 8216,8302 3292,8302 Z"/>
 <path fill="rgb(220,53,69)" stroke="none" d="M 3292,9286 L 3292,9614 8216,9614 8216,9286 3292,9286 Z"/>
 <path fill="rgb(220,53,69)" stroke="none" d="M 3292,10270 L 3292,10598 8216,10598 8216,10270 3292,10270 Z"/>
 <path fill="rgb(220,53,69)" stroke="none" d="M 3292,11254 L 3292,11582 8216,11582 8216,11254 3292,11254 Z"/>
 <path fill="rgb(220,53,69)" stroke="none" d="M 3292,12238 L 3292,12566 8216,12566 8216,12238 3292,12238 Z"/>
 <path fill="rgb(13,99,48)" stroke="none" d="M 3292,758 L 3292,1086 9138,1086 9138,758 3292,758 Z"/>
 <path fill="rgb(13,99,48)" stroke="none" d="M 3292,1742 L 3292,2070 8326,2070 8326,1742 3292,1742 Z"/>
 <path fill="rgb(13,99,48)" stroke="none" d="M 3292,2726 L 3292,3054 8182,3054 8182,2726 3292,2726 Z"/>
 <path fill="rgb(13,99,48)" stroke="none" d="M 3292,3710 L 3292,4038 10761,4038 10761,3710 3292,3710 Z"/>
 <path fill="rgb(13,99,48)" stroke="none" d="M 3292,4694 L 3292,5022 8181,5022 8181,4694 3292,4694 Z"/>
 <path fill="rgb(13,99,48)" stroke="none" d="M 3292,5678 L 3292,6006 8864,6006 8864,5678 3292,5678 Z"/>
 <path fill="rgb(13,99,48)" stroke="none" d="M 3292,6663 L 3292,6990 9089,6990 9089,6663 3292,6663 Z"/>
 <path fill="rgb(13,99,48)" stroke="none" d="M 3292,7646 L 3292,7974 8305,7974 8305,7646 3292,7646 Z"/>
 <path fill="rgb(13,99,48)" stroke="none" d="M 3292,8630 L 3292,8958 8510,8958 8510,8630 3292,8630 Z"/>
 <path fill="rgb(13,99,48)" stroke="none" d="M 3292,9614 L 3292,9942 11267,9942 11267,9614 3292,9614 Z"/>
 <path fill="rgb(13,99,48)" stroke="none" d="M 3292,10598 L 3292,10926 8693,10926 8693,10598 3292,10598 Z"/>
 <path fill="rgb(13,99,48)" stroke="none" d="M 3292,11582 L 3292,11910 8254,11910 8254,11582 3292,11582 Z"/>
 <path fill="rgb(13,99,48)" stroke="none" d="M 3292,12566 L 3292,12894 8744,12894 8744,12566 3292,12566 Z"/>
 <text class="SVGTextShape"><tspan class="TextParagraph"><tspan class="TextPosition" x="900" y="879"><tspan font-family="Liberation Sans, sans-serif" font-size="353px" font-weight="400" fill="rgb(0,0,0)" stroke="none" style="white-space: pre">503.bwaves_r</tspan></tspan></tspan></text>
 <text class="SVGTextShape"><tspan class="TextParagraph"><tspan class="TextPosition" x="308" y="1863"><tspan font-family="Liberation Sans, sans-serif" font-size="353px" font-weight="400" fill="rgb(0,0,0)" stroke="none" style="white-space: pre">507.cactuBSSN_r</tspan></tspan></tspan></text>
 <text class="SVGTextShape"><tspan class="TextParagraph"><tspan class="TextPosition" x="1206" y="2847"><tspan font-family="Liberation Sans, sans-serif" font-size="353px" font-weight="400" fill="rgb(0,0,0)" stroke="none" style="white-space: pre">508.namd_r</tspan></tspan></tspan></text>
 <text class="SVGTextShape"><tspan class="TextParagraph"><tspan class="TextPosition" x="1111" y="3831"><tspan font-family="Liberation Sans, sans-serif" font-size="353px" font-weight="400" fill="rgb(0,0,0)" stroke="none" style="white-space: pre">510.parest_r</tspan></tspan></tspan></text>
 <text class="SVGTextShape"><tspan class="TextParagraph"><tspan class="TextPosition" x="1034" y="4815"><tspan font-family="Liberation Sans, sans-serif" font-size="353px" font-weight="400" fill="rgb(0,0,0)" stroke="none" style="white-space: pre">511.povray_r</tspan></tspan></tspan></text>
 <text class="SVGTextShape"><tspan class="TextParagraph"><tspan class="TextPosition" x="1512" y="5799"><tspan font-family="Liberation Sans, sans-serif" font-size="353px" font-weight="400" fill="rgb(0,0,0)" stroke="none" style="white-space: pre">519.lbm_r</tspan></tspan></tspan></text>
 <text class="SVGTextShape"><tspan class="TextParagraph"><tspan class="TextPosition" x="1608" y="6783"><tspan font-family="Liberation Sans, sans-serif" font-size="353px" font-weight="400" fill="rgb(0,0,0)" stroke="none" style="white-space: pre">521.wrf_r</tspan></tspan></tspan></text>
 <text class="SVGTextShape"><tspan class="TextParagraph"><tspan class="TextPosition" x="919" y="7767"><tspan font-family="Liberation Sans, sans-serif" font-size="353px" font-weight="400" fill="rgb(0,0,0)" stroke="none" style="white-space: pre">526.blender_r</tspan></tspan></tspan></text>
 <text class="SVGTextShape"><tspan class="TextParagraph"><tspan class="TextPosition" x="1226" y="8751"><tspan font-family="Liberation Sans, sans-serif" font-size="353px" font-weight="400" fill="rgb(0,0,0)" stroke="none" style="white-space: pre">527.cam4_r</tspan></tspan></tspan></text>
 <text class="SVGTextShape"><tspan class="TextParagraph"><tspan class="TextPosition" x="901" y="9735"><tspan font-family="Liberation Sans, sans-serif" font-size="353px" font-weight="400" fill="rgb(0,0,0)" stroke="none" style="white-space: pre">538.imagick_r</tspan></tspan></tspan></text>
 <text class="SVGTextShape"><tspan class="TextParagraph"><tspan class="TextPosition" x="1493" y="10719"><tspan font-family="Liberation Sans, sans-serif" font-size="353px" font-weight="400" fill="rgb(0,0,0)" stroke="none" style="white-space: pre">544.nab_r</tspan></tspan></tspan></text>
 <text class="SVGTextShape"><tspan class="TextParagraph"><tspan class="TextPosition" x="671" y="11703"><tspan font-family="Liberation Sans, sans-serif" font-size="353px" font-weight="400" fill="rgb(0,0,0)" stroke="none" style="white-space: pre">549.fotonik3d_r</tspan></tspan></tspan></text>
 <text class="SVGTextShape"><tspan class="TextParagraph"><tspan class="TextPosition" x="1302" y="12687"><tspan font-family="Liberation Sans, sans-serif" font-size="353px" font-weight="400" fill="rgb(0,0,0)" stroke="none" style="white-space: pre">554.roms_r</tspan></tspan></tspan></text>
 <text class="SVGTextShape"><tspan class="TextParagraph"><tspan class="TextPosition" x="3044" y="13627"><tspan font-family="Liberation Sans, sans-serif" font-size="353px" font-weight="400" fill="rgb(0,0,0)" stroke="none" style="white-space: pre">0%</tspan></tspan></tspan></text>
 <text class="SVGTextShape"><tspan class="TextParagraph"><tspan class="TextPosition" x="3934" y="13627"><tspan font-family="Liberation Sans, sans-serif" font-size="353px" font-weight="400" fill="rgb(0,0,0)" stroke="none" style="white-space: pre">20%</tspan></tspan></tspan></text>
 <text class="SVGTextShape"><tspan class="TextParagraph"><tspan class="TextPosition" x="4919" y="13627"><tspan font-family="Liberation Sans, sans-serif" font-size="353px" font-weight="400" fill="rgb(0,0,0)" stroke="none" style="white-space: pre">40%</tspan></tspan></tspan></text>
 <text class="SVGTextShape"><tspan class="TextParagraph"><tspan class="TextPosition" x="5904" y="13627"><tspan font-family="Liberation Sans, sans-serif" font-size="353px" font-weight="400" fill="rgb(0,0,0)" stroke="none" style="white-space: pre">60%</tspan></tspan></tspan></text>
 <text class="SVGTextShape"><tspan class="TextParagraph"><tspan class="TextPosition" x="6889" y="13627"><tspan font-family="Liberation Sans, sans-serif" font-size="353px" font-weight="400" fill="rgb(0,0,0)" stroke="none" style="white-space: pre">80%</tspan></tspan></tspan></text>
 <text class="SVGTextShape"><tspan class="TextParagraph"><tspan class="TextPosition" x="7778" y="13627"><tspan font-family="Liberation Sans, sans-serif" font-size="353px" font-weight="400" fill="rgb(0,0,0)" stroke="none" style="white-space: pre">100%</tspan></tspan></tspan></text>
 <text class="SVGTextShape"><tspan class="TextParagraph"><tspan class="TextPosition" x="8762" y="13627"><tspan font-family="Liberation Sans, sans-serif" font-size="353px" font-weight="400" fill="rgb(0,0,0)" stroke="none" style="white-space: pre">120%</tspan></tspan></tspan></text>
 <text class="SVGTextShape"><tspan class="TextParagraph"><tspan class="TextPosition" x="9747" y="13627"><tspan font-family="Liberation Sans, sans-serif" font-size="353px" font-weight="400" fill="rgb(0,0,0)" stroke="none" style="white-space: pre">140%</tspan></tspan></tspan></text>
 <text class="SVGTextShape"><tspan class="TextParagraph"><tspan class="TextPosition" x="10732" y="13627"><tspan font-family="Liberation Sans, sans-serif" font-size="353px" font-weight="400" fill="rgb(0,0,0)" stroke="none" style="white-space: pre">160%</tspan></tspan></tspan></text>
 <text class="SVGTextShape"><tspan class="TextParagraph"><tspan class="TextPosition" x="11718" y="13627"><tspan font-family="Liberation Sans, sans-serif" font-size="353px" font-weight="400" fill="rgb(0,0,0)" stroke="none" style="white-space: pre">180%</tspan></tspan></tspan></text>
 <path fill="rgb(220,53,69)" stroke="none" d="M 13141,7340 L 13035,7340 13035,7129 13246,7129 13246,7340 13141,7340 Z"/>
 <path fill="rgb(13,99,48)" stroke="none" d="M 13141,6843 L 13035,6843 13035,6632 13246,6632 13246,6843 13141,6843 Z"/>
 <text class="SVGTextShape"><tspan class="TextParagraph"><tspan class="TextPosition" x="13346" y="6857"><tspan font-family="Liberation Sans, sans-serif" font-size="353px" font-weight="400" fill="rgb(0,0,0)" stroke="none" style="white-space: pre">-O3 -ffast-math</tspan></tspan></tspan></text>
 <text class="SVGTextShape"><tspan class="TextParagraph"><tspan class="TextPosition" x="13346" y="7354"><tspan font-family="Liberation Sans, sans-serif" font-size="353px" font-weight="400" fill="rgb(0,0,0)" stroke="none" style="white-space: pre">Plain -O3</tspan></tspan></tspan></text>
</svg>