<?xml version="1.0" encoding="UTF-8"?>
<!DOCTYPE svg PUBLIC "-//W3C//DTD SVG 1.1//EN" "http://www.w3.org/Graphics/SVG/1.1/DTD/svg11.dtd">
<svg width="160mm" height="90mm" viewBox="0 0 16000 9000" version="1.1" xmlns="http://www.w3.org/2000/svg" xmlns:xlink="http://www.w3.org/1999/xlink" stroke-width="28.222" stroke-linejoin="round" xml:space="preserve">
 <path fill="rgb(255,255,255)" stroke="none" d="M 8000,8999 L 0,8999 0,0 16000,0 16000,8999 8000,8999 Z"/>
 <path fill="none" stroke="rgb(179,179,179)" stroke-linejoin="round" d="M 7544,8172 L 2715,8172 2715,180 12372,180 12372,8172 7544,8172 Z"/>
 <path fill="none" stroke="rgb(179,179,179)" stroke-linejoin="round" d="M 12372,178 L 12372,8171"/>
 <path fill="none" stroke="rgb(179,179,179)" stroke-linejoin="round" d="M 10992,178 L 10992,8171"/>
 <path fill="none" stroke="rgb(179,179,179)" stroke-linejoin="round" d="M 9612,178 L 9612,8171"/>
 <path fill="none" stroke="rgb(179,179,179)" stroke-linejoin="round" d="M 8232,178 L 8232,8171"/>
 <path fill="none" stroke="rgb(179,179,179)" stroke-linejoin="round" d="M 6854,178 L 6854,8171"/>
 <path fill="none" stroke="rgb(179,179,179)" stroke-linejoin="round" d="M 5474,178 L 5474,8171"/>
 <path fill="none" stroke="rgb(179,179,179)" stroke-linejoin="round" d="M 4094,178 L 4094,8171"/>
 <path fill="none" stroke="rgb(179,179,179)" stroke-linejoin="round" d="M 2715,178 L 2715,8171"/>
 <path fill="none" stroke="rgb(179,179,179)" stroke-linejoin="round" d="M 12522,179 L 12372,179"/>
 <path fill="none" stroke="rgb(179,179,179)" stroke-linejoin="round" d="M 12522,179 L 12372,179"/>
 <path fill="none" stroke="rgb(179,179,179)" stroke-linejoin="round" d="M 12522,1320 L 12372,1320"/>
 <path fill="none" stroke="rgb(179,179,179)" stroke-linejoin="round" d="M 12522,1320 L 12372,1320"/>
 <path fill="none" stroke="rgb(179,179,179)" stroke-linejoin="round" d="M 12522,2462 L 12372,2462"/>
 <path fill="none" stroke="rgb(179,179,179)" stroke-linejoin="round" d="M 12522,2462 L 12372,2462"/>
 <path fill="none" stroke="rgb(179,179,179)" stroke-linejoin="round" d="M 12522,3604 L 12372,3604"/>
 <path fill="none" stroke="rgb(179,179,179)" stroke-linejoin="round" d="M 12522,3604 L 12372,3604"/>
 <path fill="none" stroke="rgb(179,179,179)" stroke-linejoin="round" d="M 12522,4745 L 12372,4745"/>
 <path fill="none" stroke="rgb(179,179,179)" stroke-linejoin="round" d="M 12522,4745 L 12372,4745"/>
 <path fill="none" stroke="rgb(179,179,179)" stroke-linejoin="round" d="M 12522,5887 L 12372,5887"/>
 <path fill="none" stroke="rgb(179,179,179)" stroke-linejoin="round" d="M 12522,5887 L 12372,5887"/>
 <path fill="none" stroke="rgb(179,179,179)" stroke-linejoin="round" d="M 12522,7029 L 12372,7029"/>
 <path fill="none" stroke="rgb(179,179,179)" stroke-linejoin="round" d="M 12522,7029 L 12372,7029"/>
 <path fill="none" stroke="rgb(179,179,179)" stroke-linejoin="round" d="M 12522,8171 L 12372,8171"/>
 <path fill="none" stroke="rgb(179,179,179)" stroke-linejoin="round" d="M 12522,8171 L 12372,8171"/>
 <path fill="none" stroke="rgb(179,179,179)" stroke-linejoin="round" d="M 12372,8171 L 12372,178"/>
 <path fill="none" stroke="rgb(179,179,179)" stroke-linejoin="round" d="M 12372,8321 L 12372,8171"/>
 <path fill="none" stroke="rgb(179,179,179)" stroke-linejoin="round" d="M 12372,28 L 12372,178"/>
 <path fill="none" stroke="rgb(179,179,179)" stroke-linejoin="round" d="M 10992,8321 L 10992,8171"/>
 <path fill="none" stroke="rgb(179,179,179)" stroke-linejoin="round" d="M 10992,28 L 10992,178"/>
 <path fill="none" stroke="rgb(179,179,179)" stroke-linejoin="round" d="M 9612,8321 L 9612,8171"/>
 <path fill="none" stroke="rgb(179,179,179)" stroke-linejoin="round" d="M 9612,28 L 9612,178"/>
 <path fill="none" stroke="rgb(179,179,179)" stroke-linejoin="round" d="M 8232,8321 L 8232,8171"/>
 <path fill="none" stroke="rgb(179,179,179)" stroke-linejoin="round" d="M 8232,28 L 8232,178"/>
 <path fill="none" stroke="rgb(179,179,179)" stroke-linejoin="round" d="M 6854,8321 L 6854,8171"/>
 <path fill="none" stroke="rgb(179,179,179)" stroke-linejoin="round" d="M 6854,28 L 6854,178"/>
 <path fill="none" stroke="rgb(179,179,179)" stroke-linejoin="round" d="M 5474,8321 L 5474,8171"/>
 <path fill="none" stroke="rgb(179,179,179)" stroke-linejoin="round" d="M 5474,28 L 5474,178"/>
 <path fill="none" stroke="rgb(179,179,179)" stroke-linejoin="round" d="M 4094,8321 L 4094,8171"/>
 <path fill="none" stroke="rgb(179,179,179)" stroke-linejoin="round" d="M 4094,28 L 4094,178"/>
 <path fill="none" stroke="rgb(179,179,179)" stroke-linejoin="round" d="M 2715,8321 L 2715,8171"/>
 <path fill="none" stroke="rgb(179,179,179)" stroke-linejoin="round" d="M 2715,28 L 2715,178"/>
 <path fill="none" stroke="rgb(179,179,179)" stroke-linejoin="round" d="M 2715,178 L 12372,178"/>
 <path fill="rgb(19,148,72)" stroke="none" d="M 12372,7143 L 12372,7371 5474,7371 5474,7143 12372,7143 Z"/>
 <path fill="rgb(19,148,72)" stroke="none" d="M 12372,6001 L 12372,6229 5474,6229 5474,6001 12372,6001 Z"/>
 <path fill="rgb(19,148,72)" stroke="none" d="M 12372,4859 L 12372,5087 5474,5087 5474,4859 12372,4859 Z"/>
 <path fill="rgb(19,148,72)" stroke="none" d="M 12372,3718 L 12372,3947 5474,3947 5474,3718 12372,3718 Z"/>
 <path fill="rgb(19,148,72)" stroke="none" d="M 12372,2576 L 12372,2805 5474,2805 5474,2576 12372,2576 Z"/>
 <path fill="rgb(19,148,72)" stroke="none" d="M 12372,1435 L 12372,1663 5474,1663 5474,1435 12372,1435 Z"/>
 <path fill="rgb(19,148,72)" stroke="none" d="M 12372,293 L 12372,521 5474,521 5474,293 12372,293 Z"/>
 <path fill="rgb(12,50,44)" stroke="none" d="M 12372,7371 L 12372,7600 7703,7600 7703,7371 12372,7371 Z"/>
 <path fill="rgb(12,50,44)" stroke="none" d="M 12372,6229 L 12372,6458 8149,6458 8149,6229 12372,6229 Z"/>
 <path fill="rgb(12,50,44)" stroke="none" d="M 12372,5087 L 12372,5316 5576,5316 5576,5087 12372,5087 Z"/>
 <path fill="rgb(12,50,44)" stroke="none" d="M 12372,3947 L 12372,4175 7557,4175 7557,3947 12372,3947 Z"/>
 <path fill="rgb(12,50,44)" stroke="none" d="M 12372,2805 L 12372,3033 6473,3033 6473,2805 12372,2805 Z"/>
 <path fill="rgb(12,50,44)" stroke="none" d="M 12372,1663 L 12372,1891 6977,1891 6977,1663 12372,1663 Z"/>
 <path fill="rgb(12,50,44)" stroke="none" d="M 12372,521 L 12372,749 5339,749 5339,521 12372,521 Z"/>
 <path fill="rgb(255,211,32)" stroke="none" d="M 12372,7600 L 12372,7828 5720,7828 5720,7600 12372,7600 Z"/>
 <path fill="rgb(255,211,32)" stroke="none" d="M 12372,6458 L 12372,6686 6568,6686 6568,6458 12372,6458 Z"/>
 <path fill="rgb(255,211,32)" stroke="none" d="M 12372,5316 L 12372,5544 4674,5544 4674,5316 12372,5316 Z"/>
 <path fill="rgb(255,211,32)" stroke="none" d="M 12372,4175 L 12372,4403 7710,4403 7710,4175 12372,4175 Z"/>
 <path fill="rgb(255,211,32)" stroke="none" d="M 12372,3033 L 12372,3262 6841,3262 6841,3033 12372,3033 Z"/>
 <path fill="rgb(255,211,32)" stroke="none" d="M 12372,1891 L 12372,2120 3729,2120 3729,1891 12372,1891 Z"/>
 <path fill="rgb(255,211,32)" stroke="none" d="M 12372,749 L 12372,978 5924,978 5924,749 12372,749 Z"/>
 <path fill="rgb(0,138,207)" stroke="none" d="M 12372,7828 L 12372,8056 8119,8056 8119,7828 12372,7828 Z"/>
 <path fill="rgb(0,138,207)" stroke="none" d="M 12372,6686 L 12372,6914 8900,6914 8900,6686 12372,6686 Z"/>
 <path fill="rgb(0,138,207)" stroke="none" d="M 12372,5544 L 12372,5773 5188,5773 5188,5544 12372,5544 Z"/>
 <path fill="rgb(0,138,207)" stroke="none" d="M 12372,4403 L 12372,4631 8727,4631 8727,4403 12372,4403 Z"/>
 <path fill="rgb(0,138,207)" stroke="none" d="M 12372,3262 L 12372,3490 7646,3490 7646,3262 12372,3262 Z"/>
 <path fill="rgb(0,138,207)" stroke="none" d="M 12372,2120 L 12372,2348 6481,2348 6481,2120 12372,2120 Z"/>
 <path fill="rgb(0,138,207)" stroke="none" d="M 12372,978 L 12372,1206 6247,1206 6247,978 12372,978 Z"/>
 <text class="TextShape"><tspan class="TextParagraph" font-family="Liberation Sans, sans-serif" font-size="353px" font-weight="400"><tspan class="TextPosition" x="12622" y="869"><tspan fill="rgb(0,0,0)" stroke="none">500.perlbench_r</tspan></tspan></tspan></text>
 <text class="TextShape"><tspan class="TextParagraph" font-family="Liberation Sans, sans-serif" font-size="353px" font-weight="400"><tspan class="TextPosition" x="12622" y="2011"><tspan fill="rgb(0,0,0)" stroke="none">505.mcf_r</tspan></tspan></tspan></text>
 <text class="TextShape"><tspan class="TextParagraph" font-family="Liberation Sans, sans-serif" font-size="353px" font-weight="400"><tspan class="TextPosition" x="12622" y="3153"><tspan fill="rgb(0,0,0)" stroke="none">520.omnetpp_r</tspan></tspan></tspan></text>
 <text class="TextShape"><tspan class="TextParagraph" font-family="Liberation Sans, sans-serif" font-size="353px" font-weight="400"><tspan class="TextPosition" x="12622" y="4295"><tspan fill="rgb(0,0,0)" stroke="none">523.xalancbmk_r</tspan></tspan></tspan></text>
 <text class="TextShape"><tspan class="TextParagraph" font-family="Liberation Sans, sans-serif" font-size="353px" font-weight="400"><tspan class="TextPosition" x="12622" y="5437"><tspan fill="rgb(0,0,0)" stroke="none">525.x264_r</tspan></tspan></tspan></text>
 <text class="TextShape"><tspan class="TextParagraph" font-family="Liberation Sans, sans-serif" font-size="353px" font-weight="400"><tspan class="TextPosition" x="12622" y="6579"><tspan fill="rgb(0,0,0)" stroke="none">541.leela_r</tspan></tspan></tspan></text>
 <text class="TextShape"><tspan class="TextParagraph" font-family="Liberation Sans, sans-serif" font-size="353px" font-weight="400"><tspan class="TextPosition" x="12622" y="7721"><tspan fill="rgb(0,0,0)" stroke="none">557.xz_r</tspan></tspan></tspan></text>
 <text class="TextShape"><tspan class="TextParagraph" font-family="Liberation Sans, sans-serif" font-size="353px" font-weight="400"><tspan class="TextPosition" x="12121" y="8739"><tspan fill="rgb(0,0,0)" stroke="none">0%</tspan></tspan></tspan></text>
 <text class="TextShape"><tspan class="TextParagraph" font-family="Liberation Sans, sans-serif" font-size="353px" font-weight="400"><tspan class="TextPosition" x="10649" y="8739"><tspan fill="rgb(0,0,0)" stroke="none">20%</tspan></tspan></tspan></text>
 <text class="TextShape"><tspan class="TextParagraph" font-family="Liberation Sans, sans-serif" font-size="353px" font-weight="400"><tspan class="TextPosition" x="9269" y="8739"><tspan fill="rgb(0,0,0)" stroke="none">40%</tspan></tspan></tspan></text>
 <text class="TextShape"><tspan class="TextParagraph" font-family="Liberation Sans, sans-serif" font-size="353px" font-weight="400"><tspan class="TextPosition" x="7889" y="8739"><tspan fill="rgb(0,0,0)" stroke="none">60%</tspan></tspan></tspan></text>
 <text class="TextShape"><tspan class="TextParagraph" font-family="Liberation Sans, sans-serif" font-size="353px" font-weight="400"><tspan class="TextPosition" x="6510" y="8739"><tspan fill="rgb(0,0,0)" stroke="none">80%</tspan></tspan></tspan></text>
 <text class="TextShape"><tspan class="TextParagraph" font-family="Liberation Sans, sans-serif" font-size="353px" font-weight="400"><tspan class="TextPosition" x="5037" y="8739"><tspan fill="rgb(0,0,0)" stroke="none">100%</tspan></tspan></tspan></text>
 <text class="TextShape"><tspan class="TextParagraph" font-family="Liberation Sans, sans-serif" font-size="353px" font-weight="400"><tspan class="TextPosition" x="3657" y="8739"><tspan fill="rgb(0,0,0)" stroke="none">120%</tspan></tspan></tspan></text>
 <text class="TextShape"><tspan class="TextParagraph" font-family="Liberation Sans, sans-serif" font-size="353px" font-weight="400"><tspan class="TextPosition" x="2278" y="8739"><tspan fill="rgb(0,0,0)" stroke="none">140%</tspan></tspan></tspan></text>
 <path fill="rgb(19,148,72)" stroke="none" d="M 431,5351 L 326,5351 326,5140 537,5140 537,5351 431,5351 Z"/>
 <path fill="rgb(12,50,44)" stroke="none" d="M 431,4853 L 326,4853 326,4642 537,4642 537,4853 431,4853 Z"/>
 <path fill="rgb(255,211,32)" stroke="none" d="M 431,4356 L 326,4356 326,4145 537,4145 537,4356 431,4356 Z"/>
 <path fill="rgb(0,138,207)" stroke="none" d="M 431,3858 L 326,3858 326,3647 537,3647 537,3858 431,3858 Z"/>
 <text class="TextShape"><tspan class="TextParagraph" font-family="Liberation Sans, sans-serif" font-size="353px" font-weight="400"><tspan class="TextPosition" x="637" y="3872"><tspan fill="rgb(0,0,0)" stroke="none">LTO+PGO</tspan></tspan></tspan></text>
 <text class="TextShape"><tspan class="TextParagraph" font-family="Liberation Sans, sans-serif" font-size="353px" font-weight="400"><tspan class="TextPosition" x="637" y="4370"><tspan fill="rgb(0,0,0)" stroke="none">PGO</tspan></tspan></tspan></text>
 <text class="TextShape"><tspan class="TextParagraph" font-family="Liberation Sans, sans-serif" font-size="353px" font-weight="400"><tspan class="TextPosition" x="637" y="4867"><tspan fill="rgb(0,0,0)" stroke="none">LTO</tspan></tspan></tspan></text>
 <text class="TextShape"><tspan class="TextParagraph" font-family="Liberation Sans, sans-serif" font-size="353px" font-weight="400"><tspan class="TextPosition" x="637" y="5365"><tspan fill="rgb(0,0,0)" stroke="none">Normal</tspan></tspan></tspan></text>
</svg>