<?xml version="1.0" encoding="UTF-8"?>
<!DOCTYPE svg PUBLIC "-//W3C//DTD SVG 1.1//EN" "http://www.w3.org/Graphics/SVG/1.1/DTD/svg11.dtd">
<svg width="160mm" height="75mm" viewBox="0 0 16000 7500" version="1.1" xmlns="http://www.w3.org/2000/svg" xmlns:xlink="http://www.w3.org/1999/xlink" stroke-width="28.222" stroke-linejoin="round" xml:space="preserve">
 <path fill="rgb(255,255,255)" stroke="none" d="M 8000,7500 L 0,7500 0,0 16000,0 16000,7500 8000,7500 Z"/>
 <path fill="none" stroke="rgb(179,179,179)" stroke-linejoin="round" d="M 9110,6703 L 2979,6703 2979,933 15242,933 15242,6703 9110,6703 Z"/>
 <path fill="none" stroke="rgb(179,179,179)" stroke-linejoin="round" d="M 2979,932 L 2979,6702"/>
 <path fill="none" stroke="rgb(179,179,179)" stroke-linejoin="round" d="M 4512,932 L 4512,6702"/>
 <path fill="none" stroke="rgb(179,179,179)" stroke-linejoin="round" d="M 6045,932 L 6045,6702"/>
 <path fill="none" stroke="rgb(179,179,179)" stroke-linejoin="round" d="M 7578,932 L 7578,6702"/>
 <path fill="none" stroke="rgb(179,179,179)" stroke-linejoin="round" d="M 9110,932 L 9110,6702"/>
 <path fill="none" stroke="rgb(179,179,179)" stroke-linejoin="round" d="M 10643,932 L 10643,6702"/>
 <path fill="none" stroke="rgb(179,179,179)" stroke-linejoin="round" d="M 12176,932 L 12176,6702"/>
 <path fill="none" stroke="rgb(179,179,179)" stroke-linejoin="round" d="M 13709,932 L 13709,6702"/>
 <path fill="none" stroke="rgb(179,179,179)" stroke-linejoin="round" d="M 15242,932 L 15242,6702"/>
 <path fill="none" stroke="rgb(179,179,179)" stroke-linejoin="round" d="M 2829,6702 L 2979,6702"/>
 <path fill="none" stroke="rgb(179,179,179)" stroke-linejoin="round" d="M 2829,6702 L 2979,6702"/>
 <path fill="none" stroke="rgb(179,179,179)" stroke-linejoin="round" d="M 2829,4778 L 2979,4778"/>
 <path fill="none" stroke="rgb(179,179,179)" stroke-linejoin="round" d="M 2829,4778 L 2979,4778"/>
 <path fill="none" stroke="rgb(179,179,179)" stroke-linejoin="round" d="M 2829,2855 L 2979,2855"/>
 <path fill="none" stroke="rgb(179,179,179)" stroke-linejoin="round" d="M 2829,2855 L 2979,2855"/>
 <path fill="none" stroke="rgb(179,179,179)" stroke-linejoin="round" d="M 2829,932 L 2979,932"/>
 <path fill="none" stroke="rgb(179,179,179)" stroke-linejoin="round" d="M 2829,932 L 2979,932"/>
 <path fill="none" stroke="rgb(179,179,179)" stroke-linejoin="round" d="M 2979,6702 L 2979,932"/>
 <path fill="none" stroke="rgb(179,179,179)" stroke-linejoin="round" d="M 2979,6852 L 2979,6702"/>
 <path fill="none" stroke="rgb(179,179,179)" stroke-linejoin="round" d="M 2979,6852 L 2979,6702"/>
 <path fill="none" stroke="rgb(179,179,179)" stroke-linejoin="round" d="M 4512,6852 L 4512,6702"/>
 <path fill="none" stroke="rgb(179,179,179)" stroke-linejoin="round" d="M 4512,6852 L 4512,6702"/>
 <path fill="none" stroke="rgb(179,179,179)" stroke-linejoin="round" d="M 6045,6852 L 6045,6702"/>
 <path fill="none" stroke="rgb(179,179,179)" stroke-linejoin="round" d="M 6045,6852 L 6045,6702"/>
 <path fill="none" stroke="rgb(179,179,179)" stroke-linejoin="round" d="M 7578,6852 L 7578,6702"/>
 <path fill="none" stroke="rgb(179,179,179)" stroke-linejoin="round" d="M 7578,6852 L 7578,6702"/>
 <path fill="none" stroke="rgb(179,179,179)" stroke-linejoin="round" d="M 9110,6852 L 9110,6702"/>
 <path fill="none" stroke="rgb(179,179,179)" stroke-linejoin="round" d="M 9110,6852 L 9110,6702"/>
 <path fill="none" stroke="rgb(179,179,179)" stroke-linejoin="round" d="M 10643,6852 L 10643,6702"/>
 <path fill="none" stroke="rgb(179,179,179)" stroke-linejoin="round" d="M 10643,6852 L 10643,6702"/>
 <path fill="none" stroke="rgb(179,179,179)" stroke-linejoin="round" d="M 12176,6852 L 12176,6702"/>
 <path fill="none" stroke="rgb(179,179,179)" stroke-linejoin="round" d="M 12176,6852 L 12176,6702"/>
 <path fill="none" stroke="rgb(179,179,179)" stroke-linejoin="round" d="M 13709,6852 L 13709,6702"/>
 <path fill="none" stroke="rgb(179,179,179)" stroke-linejoin="round" d="M 13709,6852 L 13709,6702"/>
 <path fill="none" stroke="rgb(179,179,179)" stroke-linejoin="round" d="M 15242,6852 L 15242,6702"/>
 <path fill="none" stroke="rgb(179,179,179)" stroke-linejoin="round" d="M 15242,6852 L 15242,6702"/>
 <path fill="none" stroke="rgb(179,179,179)" stroke-linejoin="round" d="M 2979,6702 L 15242,6702"/>
 <path fill="rgb(0,138,207)" stroke="none" d="M 2979,2695 L 2979,2374 11759,2374 11759,2695 2979,2695 Z"/>
 <path fill="rgb(0,138,207)" stroke="none" d="M 2979,4618 L 2979,4297 13885,4297 13885,4618 2979,4618 Z"/>
 <path fill="rgb(0,138,207)" stroke="none" d="M 2979,6541 L 2979,6221 12690,6221 12690,6541 2979,6541 Z"/>
 <path fill="rgb(13,44,64)" stroke="none" d="M 2979,2374 L 2979,2054 10963,2054 10963,2374 2979,2374 Z"/>
 <path fill="rgb(13,44,64)" stroke="none" d="M 2979,4297 L 2979,3976 10783,3976 10783,4297 2979,4297 Z"/>
 <path fill="rgb(13,44,64)" stroke="none" d="M 2979,6221 L 2979,5900 11132,5900 11132,6221 2979,6221 Z"/>
 <path fill="rgb(255,193,8)" stroke="none" d="M 2979,2054 L 2979,1733 10699,1733 10699,2054 2979,2054 Z"/>
 <path fill="rgb(255,193,8)" stroke="none" d="M 2979,3976 L 2979,3657 10783,3657 10783,3976 2979,3976 Z"/>
 <path fill="rgb(255,193,8)" stroke="none" d="M 2979,5900 L 2979,5579 10764,5579 10764,5900 2979,5900 Z"/>
 <path fill="rgb(19,148,72)" stroke="none" d="M 2979,1733 L 2979,1412 10879,1412 10879,1733 2979,1733 Z"/>
 <path fill="rgb(19,148,72)" stroke="none" d="M 2979,3657 L 2979,3336 10712,3336 10712,3657 2979,3657 Z"/>
 <path fill="rgb(19,148,72)" stroke="none" d="M 2979,5579 L 2979,5259 10901,5259 10901,5579 2979,5579 Z"/>
 <path fill="rgb(126,0,33)" stroke="none" d="M 2979,1412 L 2979,1092 10643,1092 10643,1412 2979,1412 Z"/>
 <path fill="rgb(126,0,33)" stroke="none" d="M 2979,3336 L 2979,3015 10643,3015 10643,3336 2979,3336 Z"/>
 <path fill="rgb(126,0,33)" stroke="none" d="M 2979,5259 L 2979,4938 10643,4938 10643,5259 2979,5259 Z"/>
 <text class="TextShape"><tspan class="TextParagraph" font-family="Liberation Sans, sans-serif" font-size="353px" font-weight="400"><tspan class="TextPosition" x="1168" y="5861"><tspan fill="rgb(0,0,0)" stroke="none">singletons</tspan></tspan></tspan></text>
 <text class="TextShape"><tspan class="TextParagraph" font-family="Liberation Sans, sans-serif" font-size="353px" font-weight="400"><tspan class="TextPosition" x="321" y="3937"><tspan fill="rgb(0,0,0)" stroke="none">responsiveness</tspan></tspan></tspan></text>
 <text class="TextShape"><tspan class="TextParagraph" font-family="Liberation Sans, sans-serif" font-size="353px" font-weight="400"><tspan class="TextPosition" x="2068" y="2013"><tspan fill="rgb(0,0,0)" stroke="none">tp5o</tspan></tspan></tspan></text>
 <text class="TextShape"><tspan class="TextParagraph" font-family="Liberation Sans, sans-serif" font-size="353px" font-weight="400"><tspan class="TextPosition" x="2727" y="7270"><tspan fill="rgb(0,0,0)" stroke="none">0%</tspan></tspan></tspan></text>
 <text class="TextShape"><tspan class="TextParagraph" font-family="Liberation Sans, sans-serif" font-size="353px" font-weight="400"><tspan class="TextPosition" x="4168" y="7270"><tspan fill="rgb(0,0,0)" stroke="none">20%</tspan></tspan></tspan></text>
 <text class="TextShape"><tspan class="TextParagraph" font-family="Liberation Sans, sans-serif" font-size="353px" font-weight="400"><tspan class="TextPosition" x="5701" y="7270"><tspan fill="rgb(0,0,0)" stroke="none">40%</tspan></tspan></tspan></text>
 <text class="TextShape"><tspan class="TextParagraph" font-family="Liberation Sans, sans-serif" font-size="353px" font-weight="400"><tspan class="TextPosition" x="7234" y="7270"><tspan fill="rgb(0,0,0)" stroke="none">60%</tspan></tspan></tspan></text>
 <text class="TextShape"><tspan class="TextParagraph" font-family="Liberation Sans, sans-serif" font-size="353px" font-weight="400"><tspan class="TextPosition" x="8767" y="7270"><tspan fill="rgb(0,0,0)" stroke="none">80%</tspan></tspan></tspan></text>
 <text class="TextShape"><tspan class="TextParagraph" font-family="Liberation Sans, sans-serif" font-size="353px" font-weight="400"><tspan class="TextPosition" x="10207" y="7270"><tspan fill="rgb(0,0,0)" stroke="none">100%</tspan></tspan></tspan></text>
 <text class="TextShape"><tspan class="TextParagraph" font-family="Liberation Sans, sans-serif" font-size="353px" font-weight="400"><tspan class="TextPosition" x="11740" y="7270"><tspan fill="rgb(0,0,0)" stroke="none">120%</tspan></tspan></tspan></text>
 <text class="TextShape"><tspan class="TextParagraph" font-family="Liberation Sans, sans-serif" font-size="353px" font-weight="400"><tspan class="TextPosition" x="13273" y="7270"><tspan fill="rgb(0,0,0)" stroke="none">140%</tspan></tspan></tspan></text>
 <text class="TextShape"><tspan class="TextParagraph" font-family="Liberation Sans, sans-serif" font-size="353px" font-weight="400"><tspan class="TextPosition" x="14806" y="7270"><tspan fill="rgb(0,0,0)" stroke="none">160%</tspan></tspan></tspan></text>
 <path fill="rgb(0,138,207)" stroke="none" d="M 9872,589 L 9766,589 9766,378 9977,378 9977,589 9872,589 Z"/>
 <path fill="rgb(13,44,64)" stroke="none" d="M 7792,589 L 7687,589 7687,378 7898,378 7898,589 7792,589 Z"/>
 <path fill="rgb(255,193,8)" stroke="none" d="M 6691,589 L 6586,589 6586,378 6797,378 6797,589 6691,589 Z"/>
 <path fill="rgb(19,148,72)" stroke="none" d="M 4611,589 L 4506,589 4506,378 4717,378 4717,589 4611,589 Z"/>
 <path fill="rgb(126,0,33)" stroke="none" d="M 3510,589 L 3405,589 3405,378 3616,378 3616,589 3510,589 Z"/>
 <text class="TextShape"><tspan class="TextParagraph" font-family="Liberation Sans, sans-serif" font-size="353px" font-weight="400"><tspan class="TextPosition" x="3716" y="603"><tspan fill="rgb(0,0,0)" stroke="none">-O2</tspan></tspan></tspan></text>
 <text class="TextShape"><tspan class="TextParagraph" font-family="Liberation Sans, sans-serif" font-size="353px" font-weight="400"><tspan class="TextPosition" x="4817" y="603"><tspan fill="rgb(0,0,0)" stroke="none">-O2 (LTO)</tspan></tspan></tspan></text>
 <text class="TextShape"><tspan class="TextParagraph" font-family="Liberation Sans, sans-serif" font-size="353px" font-weight="400"><tspan class="TextPosition" x="6897" y="603"><tspan fill="rgb(0,0,0)" stroke="none">-O3</tspan></tspan></tspan></text>
 <text class="TextShape"><tspan class="TextParagraph" font-family="Liberation Sans, sans-serif" font-size="353px" font-weight="400"><tspan class="TextPosition" x="7998" y="603"><tspan fill="rgb(0,0,0)" stroke="none">-O3 (LTO)</tspan></tspan></tspan></text>
 <text class="TextShape"><tspan class="TextParagraph" font-family="Liberation Sans, sans-serif" font-size="353px" font-weight="400"><tspan class="TextPosition" x="10077" y="603"><tspan fill="rgb(0,0,0)" stroke="none">-O3 (LTO+PGO)</tspan></tspan></tspan></text>
</svg>