<?xml version="1.0" encoding="UTF-8"?>
<!DOCTYPE svg PUBLIC "-//W3C//DTD SVG 1.1//EN" "http://www.w3.org/Graphics/SVG/1.1/DTD/svg11.dtd">
<svg width="160mm" height="130mm" viewBox="0 0 16000 13000" version="1.1" xmlns="http://www.w3.org/2000/svg" xmlns:xlink="http://www.w3.org/1999/xlink" stroke-width="28.222" stroke-linejoin="round" xml:space="preserve">
 <path fill="rgb(255,255,255)" stroke="none" d="M 8000,13000 L 0,13000 0,0 16000,0 16000,13000 8000,13000 Z"/>
 <path fill="none" stroke="rgb(179,179,179)" stroke-linejoin="round" d="M 8045,12093 L 3323,12093 3323,260 12767,260 12767,12093 8045,12093 Z"/>
 <path fill="none" stroke="rgb(179,179,179)" stroke-linejoin="round" d="M 3323,258 L 3323,12092"/>
 <path fill="none" stroke="rgb(179,179,179)" stroke-linejoin="round" d="M 4672,258 L 4672,12092"/>
 <path fill="none" stroke="rgb(179,179,179)" stroke-linejoin="round" d="M 6021,258 L 6021,12092"/>
 <path fill="none" stroke="rgb(179,179,179)" stroke-linejoin="round" d="M 7370,258 L 7370,12092"/>
 <path fill="none" stroke="rgb(179,179,179)" stroke-linejoin="round" d="M 8719,258 L 8719,12092"/>
 <path fill="none" stroke="rgb(179,179,179)" stroke-linejoin="round" d="M 10068,258 L 10068,12092"/>
 <path fill="none" stroke="rgb(179,179,179)" stroke-linejoin="round" d="M 11417,258 L 11417,12092"/>
 <path fill="none" stroke="rgb(179,179,179)" stroke-linejoin="round" d="M 12767,258 L 12767,12092"/>
 <path fill="none" stroke="rgb(179,179,179)" stroke-linejoin="round" d="M 3173,258 L 3323,258"/>
 <path fill="none" stroke="rgb(179,179,179)" stroke-linejoin="round" d="M 3173,258 L 3323,258"/>
 <path fill="none" stroke="rgb(179,179,179)" stroke-linejoin="round" d="M 3173,1245 L 3323,1245"/>
 <path fill="none" stroke="rgb(179,179,179)" stroke-linejoin="round" d="M 3173,1245 L 3323,1245"/>
 <path fill="none" stroke="rgb(179,179,179)" stroke-linejoin="round" d="M 3173,2231 L 3323,2231"/>
 <path fill="none" stroke="rgb(179,179,179)" stroke-linejoin="round" d="M 3173,2231 L 3323,2231"/>
 <path fill="none" stroke="rgb(179,179,179)" stroke-linejoin="round" d="M 3173,3217 L 3323,3217"/>
 <path fill="none" stroke="rgb(179,179,179)" stroke-linejoin="round" d="M 3173,3217 L 3323,3217"/>
 <path fill="none" stroke="rgb(179,179,179)" stroke-linejoin="round" d="M 3173,4203 L 3323,4203"/>
 <path fill="none" stroke="rgb(179,179,179)" stroke-linejoin="round" d="M 3173,4203 L 3323,4203"/>
 <path fill="none" stroke="rgb(179,179,179)" stroke-linejoin="round" d="M 3173,5189 L 3323,5189"/>
 <path fill="none" stroke="rgb(179,179,179)" stroke-linejoin="round" d="M 3173,5189 L 3323,5189"/>
 <path fill="none" stroke="rgb(179,179,179)" stroke-linejoin="round" d="M 3173,6175 L 3323,6175"/>
 <path fill="none" stroke="rgb(179,179,179)" stroke-linejoin="round" d="M 3173,6175 L 3323,6175"/>
 <path fill="none" stroke="rgb(179,179,179)" stroke-linejoin="round" d="M 3173,7161 L 3323,7161"/>
 <path fill="none" stroke="rgb(179,179,179)" stroke-linejoin="round" d="M 3173,7161 L 3323,7161"/>
 <path fill="none" stroke="rgb(179,179,179)" stroke-linejoin="round" d="M 3173,8147 L 3323,8147"/>
 <path fill="none" stroke="rgb(179,179,179)" stroke-linejoin="round" d="M 3173,8147 L 3323,8147"/>
 <path fill="none" stroke="rgb(179,179,179)" stroke-linejoin="round" d="M 3173,9133 L 3323,9133"/>
 <path fill="none" stroke="rgb(179,179,179)" stroke-linejoin="round" d="M 3173,9133 L 3323,9133"/>
 <path fill="none" stroke="rgb(179,179,179)" stroke-linejoin="round" d="M 3173,10119 L 3323,10119"/>
 <path fill="none" stroke="rgb(179,179,179)" stroke-linejoin="round" d="M 3173,10119 L 3323,10119"/>
 <path fill="none" stroke="rgb(179,179,179)" stroke-linejoin="round" d="M 3173,11105 L 3323,11105"/>
 <path fill="none" stroke="rgb(179,179,179)" stroke-linejoin="round" d="M 3173,11105 L 3323,11105"/>
 <path fill="none" stroke="rgb(179,179,179)" stroke-linejoin="round" d="M 3173,12092 L 3323,12092"/>
 <path fill="none" stroke="rgb(179,179,179)" stroke-linejoin="round" d="M 3173,12092 L 3323,12092"/>
 <path fill="none" stroke="rgb(179,179,179)" stroke-linejoin="round" d="M 3323,12092 L 3323,258"/>
 <path fill="none" stroke="rgb(179,179,179)" stroke-linejoin="round" d="M 3323,12242 L 3323,12092"/>
 <path fill="none" stroke="rgb(179,179,179)" stroke-linejoin="round" d="M 3323,108 L 3323,258"/>
 <path fill="none" stroke="rgb(179,179,179)" stroke-linejoin="round" d="M 4672,12242 L 4672,12092"/>
 <path fill="none" stroke="rgb(179,179,179)" stroke-linejoin="round" d="M 4672,108 L 4672,258"/>
 <path fill="none" stroke="rgb(179,179,179)" stroke-linejoin="round" d="M 6021,12242 L 6021,12092"/>
 <path fill="none" stroke="rgb(179,179,179)" stroke-linejoin="round" d="M 6021,108 L 6021,258"/>
 <path fill="none" stroke="rgb(179,179,179)" stroke-linejoin="round" d="M 7370,12242 L 7370,12092"/>
 <path fill="none" stroke="rgb(179,179,179)" stroke-linejoin="round" d="M 7370,108 L 7370,258"/>
 <path fill="none" stroke="rgb(179,179,179)" stroke-linejoin="round" d="M 8719,12242 L 8719,12092"/>
 <path fill="none" stroke="rgb(179,179,179)" stroke-linejoin="round" d="M 8719,108 L 8719,258"/>
 <path fill="none" stroke="rgb(179,179,179)" stroke-linejoin="round" d="M 10068,12242 L 10068,12092"/>
 <path fill="none" stroke="rgb(179,179,179)" stroke-linejoin="round" d="M 10068,108 L 10068,258"/>
 <path fill="none" stroke="rgb(179,179,179)" stroke-linejoin="round" d="M 11417,12242 L 11417,12092"/>
 <path fill="none" stroke="rgb(179,179,179)" stroke-linejoin="round" d="M 11417,108 L 11417,258"/>
 <path fill="none" stroke="rgb(179,179,179)" stroke-linejoin="round" d="M 12767,12242 L 12767,12092"/>
 <path fill="none" stroke="rgb(179,179,179)" stroke-linejoin="round" d="M 12767,108 L 12767,258"/>
 <path fill="none" stroke="rgb(179,179,179)" stroke-linejoin="round" d="M 3323,258 L 12767,258"/>
 <path fill="rgb(222,0,128)" stroke="none" d="M 3323,11204 L 3323,11401 10068,11401 10068,11204 3323,11204 Z"/>
 <path fill="rgb(222,0,128)" stroke="none" d="M 3323,10218 L 3323,10415 10068,10415 10068,10218 3323,10218 Z"/>
 <path fill="rgb(222,0,128)" stroke="none" d="M 3323,9232 L 3323,9429 10068,9429 10068,9232 3323,9232 Z"/>
 <path fill="rgb(222,0,128)" stroke="none" d="M 3323,8245 L 3323,8443 10068,8443 10068,8245 3323,8245 Z"/>
 <path fill="rgb(222,0,128)" stroke="none" d="M 3323,7259 L 3323,7457 10068,7457 10068,7259 3323,7259 Z"/>
 <path fill="rgb(222,0,128)" stroke="none" d="M 3323,6274 L 3323,6471 10068,6471 10068,6274 3323,6274 Z"/>
 <path fill="rgb(222,0,128)" stroke="none" d="M 3323,5288 L 3323,5485 10068,5485 10068,5288 3323,5288 Z"/>
 <path fill="rgb(222,0,128)" stroke="none" d="M 3323,4302 L 3323,4499 10068,4499 10068,4302 3323,4302 Z"/>
 <path fill="rgb(222,0,128)" stroke="none" d="M 3323,3316 L 3323,3513 10068,3513 10068,3316 3323,3316 Z"/>
 <path fill="rgb(222,0,128)" stroke="none" d="M 3323,2329 L 3323,2527 10068,2527 10068,2329 3323,2329 Z"/>
 <path fill="rgb(222,0,128)" stroke="none" d="M 3323,1343 L 3323,1541 10068,1541 10068,1343 3323,1343 Z"/>
 <path fill="rgb(222,0,128)" stroke="none" d="M 3323,357 L 3323,554 10068,554 10068,357 3323,357 Z"/>
 <path fill="rgb(112,23,108)" stroke="none" d="M 3323,11401 L 3323,11598 10332,11598 10332,11401 3323,11401 Z"/>
 <path fill="rgb(112,23,108)" stroke="none" d="M 3323,10415 L 3323,10612 10902,10612 10902,10415 3323,10415 Z"/>
 <path fill="rgb(112,23,108)" stroke="none" d="M 3323,9429 L 3323,9626 10564,9626 10564,9429 3323,9429 Z"/>
 <path fill="rgb(112,23,108)" stroke="none" d="M 3323,8443 L 3323,8640 10219,8640 10219,8443 3323,8443 Z"/>
 <path fill="rgb(112,23,108)" stroke="none" d="M 3323,7457 L 3323,7654 10095,7654 10095,7457 3323,7457 Z"/>
 <path fill="rgb(112,23,108)" stroke="none" d="M 3323,6471 L 3323,6668 9985,6668 9985,6471 3323,6471 Z"/>
 <path fill="rgb(112,23,108)" stroke="none" d="M 3323,5485 L 3323,5682 7280,5682 7280,5485 3323,5485 Z"/>
 <path fill="rgb(112,23,108)" stroke="none" d="M 3323,4499 L 3323,4696 11367,4696 11367,4499 3323,4499 Z"/>
 <path fill="rgb(112,23,108)" stroke="none" d="M 3323,3513 L 3323,3710 11123,3710 11123,3513 3323,3513 Z"/>
 <path fill="rgb(112,23,108)" stroke="none" d="M 3323,2527 L 3323,2724 10232,2724 10232,2527 3323,2527 Z"/>
 <path fill="rgb(112,23,108)" stroke="none" d="M 3323,1541 L 3323,1738 9833,1738 9833,1541 3323,1541 Z"/>
 <path fill="rgb(112,23,108)" stroke="none" d="M 3323,554 L 3323,752 11501,752 11501,554 3323,554 Z"/>
 <path fill="rgb(19,148,72)" stroke="none" d="M 3323,11598 L 3323,11796 9580,11796 9580,11598 3323,11598 Z"/>
 <path fill="rgb(19,148,72)" stroke="none" d="M 3323,10612 L 3323,10809 10192,10809 10192,10612 3323,10612 Z"/>
 <path fill="rgb(19,148,72)" stroke="none" d="M 3323,9626 L 3323,9823 10364,9823 10364,9626 3323,9626 Z"/>
 <path fill="rgb(19,148,72)" stroke="none" d="M 3323,8640 L 3323,8837 9539,8837 9539,8640 3323,8640 Z"/>
 <path fill="rgb(19,148,72)" stroke="none" d="M 3323,7654 L 3323,7851 9831,7851 9831,7654 3323,7654 Z"/>
 <path fill="rgb(19,148,72)" stroke="none" d="M 3323,6668 L 3323,6865 9028,6865 9028,6668 3323,6668 Z"/>
 <path fill="rgb(19,148,72)" stroke="none" d="M 3323,5682 L 3323,5880 8761,5880 8761,5682 3323,5682 Z"/>
 <path fill="rgb(19,148,72)" stroke="none" d="M 3323,4696 L 3323,4893 10250,4893 10250,4696 3323,4696 Z"/>
 <path fill="rgb(19,148,72)" stroke="none" d="M 3323,3710 L 3323,3907 8985,3907 8985,3710 3323,3710 Z"/>
 <path fill="rgb(19,148,72)" stroke="none" d="M 3323,2724 L 3323,2921 10785,2921 10785,2724 3323,2724 Z"/>
 <path fill="rgb(19,148,72)" stroke="none" d="M 3323,1738 L 3323,1935 10055,1935 10055,1738 3323,1738 Z"/>
 <path fill="rgb(19,148,72)" stroke="none" d="M 3323,752 L 3323,949 11394,949 11394,752 3323,752 Z"/>
 <path fill="rgb(12,50,44)" stroke="none" d="M 3323,11796 L 3323,11993 9696,11993 9696,11796 3323,11796 Z"/>
 <path fill="rgb(12,50,44)" stroke="none" d="M 3323,10809 L 3323,11007 10059,11007 10059,10809 3323,10809 Z"/>
 <path fill="rgb(12,50,44)" stroke="none" d="M 3323,9823 L 3323,10021 10329,10021 10329,9823 3323,9823 Z"/>
 <path fill="rgb(12,50,44)" stroke="none" d="M 3323,8837 L 3323,9034 9715,9034 9715,8837 3323,8837 Z"/>
 <path fill="rgb(12,50,44)" stroke="none" d="M 3323,7851 L 3323,8048 9849,8048 9849,7851 3323,7851 Z"/>
 <path fill="rgb(12,50,44)" stroke="none" d="M 3323,6865 L 3323,7062 9225,7062 9225,6865 3323,6865 Z"/>
 <path fill="rgb(12,50,44)" stroke="none" d="M 3323,5880 L 3323,6077 8369,6077 8369,5880 3323,5880 Z"/>
 <path fill="rgb(12,50,44)" stroke="none" d="M 3323,4893 L 3323,5091 10640,5091 10640,4893 3323,4893 Z"/>
 <path fill="rgb(12,50,44)" stroke="none" d="M 3323,3907 L 3323,4105 9792,4105 9792,3907 3323,3907 Z"/>
 <path fill="rgb(12,50,44)" stroke="none" d="M 3323,2921 L 3323,3118 10710,3118 10710,2921 3323,2921 Z"/>
 <path fill="rgb(12,50,44)" stroke="none" d="M 3323,1935 L 3323,2132 10146,2132 10146,1935 3323,1935 Z"/>
 <path fill="rgb(12,50,44)" stroke="none" d="M 3323,949 L 3323,1146 11782,1146 11782,949 3323,949 Z"/>
 <text class="SVGTextShape"><tspan class="TextParagraph" font-family="Liberation Sans, sans-serif" font-size="353px" font-weight="400"><tspan class="TextPosition" x="956" y="872"><tspan fill="rgb(0,0,0)" stroke="none">503.bwaves_r</tspan></tspan></tspan></text>
 <text class="SVGTextShape"><tspan class="TextParagraph" font-family="Liberation Sans, sans-serif" font-size="353px" font-weight="400"><tspan class="TextPosition" x="321" y="1858"><tspan fill="rgb(0,0,0)" stroke="none">507.cactuBSSN_r</tspan></tspan></tspan></text>
 <text class="SVGTextShape"><tspan class="TextParagraph" font-family="Liberation Sans, sans-serif" font-size="353px" font-weight="400"><tspan class="TextPosition" x="1274" y="2844"><tspan fill="rgb(0,0,0)" stroke="none">508.namd_r</tspan></tspan></tspan></text>
 <text class="SVGTextShape"><tspan class="TextParagraph" font-family="Liberation Sans, sans-serif" font-size="353px" font-weight="400"><tspan class="TextPosition" x="1168" y="3830"><tspan fill="rgb(0,0,0)" stroke="none">510.parest_r</tspan></tspan></tspan></text>
 <text class="SVGTextShape"><tspan class="TextParagraph" font-family="Liberation Sans, sans-serif" font-size="353px" font-weight="400"><tspan class="TextPosition" x="1089" y="4816"><tspan fill="rgb(0,0,0)" stroke="none">511.povray_r</tspan></tspan></tspan></text>
 <text class="SVGTextShape"><tspan class="TextParagraph" font-family="Liberation Sans, sans-serif" font-size="353px" font-weight="400"><tspan class="TextPosition" x="1565" y="5802"><tspan fill="rgb(0,0,0)" stroke="none">519.lbm_r</tspan></tspan></tspan></text>
 <text class="SVGTextShape"><tspan class="TextParagraph" font-family="Liberation Sans, sans-serif" font-size="353px" font-weight="400"><tspan class="TextPosition" x="1671" y="6789"><tspan fill="rgb(0,0,0)" stroke="none">521.wrf_r</tspan></tspan></tspan></text>
 <text class="SVGTextShape"><tspan class="TextParagraph" font-family="Liberation Sans, sans-serif" font-size="353px" font-weight="400"><tspan class="TextPosition" x="1009" y="7775"><tspan fill="rgb(0,0,0)" stroke="none">526.blender_r</tspan></tspan></tspan></text>
 <text class="SVGTextShape"><tspan class="TextParagraph" font-family="Liberation Sans, sans-serif" font-size="353px" font-weight="400"><tspan class="TextPosition" x="1274" y="8761"><tspan fill="rgb(0,0,0)" stroke="none">527.cam4_r</tspan></tspan></tspan></text>
 <text class="SVGTextShape"><tspan class="TextParagraph" font-family="Liberation Sans, sans-serif" font-size="353px" font-weight="400"><tspan class="TextPosition" x="930" y="9747"><tspan fill="rgb(0,0,0)" stroke="none">538.imagick_r</tspan></tspan></tspan></text>
 <text class="SVGTextShape"><tspan class="TextParagraph" font-family="Liberation Sans, sans-serif" font-size="353px" font-weight="400"><tspan class="TextPosition" x="1565" y="10733"><tspan fill="rgb(0,0,0)" stroke="none">544.nab_r</tspan></tspan></tspan></text>
 <text class="SVGTextShape"><tspan class="TextParagraph" font-family="Liberation Sans, sans-serif" font-size="353px" font-weight="400"><tspan class="TextPosition" x="1353" y="11719"><tspan fill="rgb(0,0,0)" stroke="none">554.roms_r</tspan></tspan></tspan></text>
 <text class="SVGTextShape"><tspan class="TextParagraph" font-family="Liberation Sans, sans-serif" font-size="353px" font-weight="400"><tspan class="TextPosition" x="3071" y="12660"><tspan fill="rgb(0,0,0)" stroke="none">0%</tspan></tspan></tspan></text>
 <text class="SVGTextShape"><tspan class="TextParagraph" font-family="Liberation Sans, sans-serif" font-size="353px" font-weight="400"><tspan class="TextPosition" x="4328" y="12660"><tspan fill="rgb(0,0,0)" stroke="none">20%</tspan></tspan></tspan></text>
 <text class="SVGTextShape"><tspan class="TextParagraph" font-family="Liberation Sans, sans-serif" font-size="353px" font-weight="400"><tspan class="TextPosition" x="5677" y="12660"><tspan fill="rgb(0,0,0)" stroke="none">40%</tspan></tspan></tspan></text>
 <text class="SVGTextShape"><tspan class="TextParagraph" font-family="Liberation Sans, sans-serif" font-size="353px" font-weight="400"><tspan class="TextPosition" x="7026" y="12660"><tspan fill="rgb(0,0,0)" stroke="none">60%</tspan></tspan></tspan></text>
 <text class="SVGTextShape"><tspan class="TextParagraph" font-family="Liberation Sans, sans-serif" font-size="353px" font-weight="400"><tspan class="TextPosition" x="8376" y="12660"><tspan fill="rgb(0,0,0)" stroke="none">80%</tspan></tspan></tspan></text>
 <text class="SVGTextShape"><tspan class="TextParagraph" font-family="Liberation Sans, sans-serif" font-size="353px" font-weight="400"><tspan class="TextPosition" x="9632" y="12660"><tspan fill="rgb(0,0,0)" stroke="none">100%</tspan></tspan></tspan></text>
 <text class="SVGTextShape"><tspan class="TextParagraph" font-family="Liberation Sans, sans-serif" font-size="353px" font-weight="400"><tspan class="TextPosition" x="10981" y="12660"><tspan fill="rgb(0,0,0)" stroke="none">120%</tspan></tspan></tspan></text>
 <text class="SVGTextShape"><tspan class="TextParagraph" font-family="Liberation Sans, sans-serif" font-size="353px" font-weight="400"><tspan class="TextPosition" x="12331" y="12660"><tspan fill="rgb(0,0,0)" stroke="none">140%</tspan></tspan></tspan></text>
 <path fill="rgb(222,0,128)" stroke="none" d="M 13747,7351 L 13641,7351 13641,7140 13852,7140 13852,7351 13747,7351 Z"/>
 <path fill="rgb(112,23,108)" stroke="none" d="M 13747,6853 L 13641,6853 13641,6642 13852,6642 13852,6853 13747,6853 Z"/>
 <path fill="rgb(19,148,72)" stroke="none" d="M 13747,6356 L 13641,6356 13641,6145 13852,6145 13852,6356 13747,6356 Z"/>
 <path fill="rgb(12,50,44)" stroke="none" d="M 13747,5858 L 13641,5858 13641,5647 13852,5647 13852,5858 13747,5858 Z"/>
 <text class="SVGTextShape"><tspan class="TextParagraph" font-family="Liberation Sans, sans-serif" font-size="353px" font-weight="400"><tspan class="TextPosition" x="13952" y="5872"><tspan fill="rgb(0,0,0)" stroke="none">GCC (LTO)</tspan></tspan></tspan></text>
 <text class="SVGTextShape"><tspan class="TextParagraph" font-family="Liberation Sans, sans-serif" font-size="353px" font-weight="400"><tspan class="TextPosition" x="13952" y="6370"><tspan fill="rgb(0,0,0)" stroke="none">GCC</tspan></tspan></tspan></text>
 <text class="SVGTextShape"><tspan class="TextParagraph" font-family="Liberation Sans, sans-serif" font-size="353px" font-weight="400"><tspan class="TextPosition" x="13952" y="6867"><tspan fill="rgb(0,0,0)" stroke="none">ICC (LTO)</tspan></tspan></tspan></text>
 <text class="SVGTextShape"><tspan class="TextParagraph" font-family="Liberation Sans, sans-serif" font-size="353px" font-weight="400"><tspan class="TextPosition" x="13952" y="7365"><tspan fill="rgb(0,0,0)" stroke="none">ICC</tspan></tspan></tspan></text>
</svg>