<?xml version="1.0" encoding="UTF-8"?>
<!DOCTYPE svg PUBLIC "-//W3C//DTD SVG 1.1//EN" "http://www.w3.org/Graphics/SVG/1.1/DTD/svg11.dtd">
<svg width="160mm" height="90mm" viewBox="0 0 16000 9000" version="1.1" xmlns="http://www.w3.org/2000/svg" xmlns:xlink="http://www.w3.org/1999/xlink" stroke-width="28.222" stroke-linejoin="round" xml:space="preserve">
 <path fill="rgb(255,255,255)" stroke="none" d="M 8000,8999 L 0,8999 0,0 15999,0 15999,8999 8000,8999 Z"/>
 <path fill="none" stroke="rgb(179,179,179)" stroke-linejoin="round" d="M 9110,8172 L 2979,8172 2979,1461 15241,1461 15241,8172 9110,8172 Z"/>
 <path fill="none" stroke="rgb(179,179,179)" stroke-linejoin="round" d="M 2979,1460 L 2979,8171"/>
 <path fill="none" stroke="rgb(179,179,179)" stroke-linejoin="round" d="M 4730,1460 L 4730,8171"/>
 <path fill="none" stroke="rgb(179,179,179)" stroke-linejoin="round" d="M 6482,1460 L 6482,8171"/>
 <path fill="none" stroke="rgb(179,179,179)" stroke-linejoin="round" d="M 8233,1460 L 8233,8171"/>
 <path fill="none" stroke="rgb(179,179,179)" stroke-linejoin="round" d="M 9985,1460 L 9985,8171"/>
 <path fill="none" stroke="rgb(179,179,179)" stroke-linejoin="round" d="M 11737,1460 L 11737,8171"/>
 <path fill="none" stroke="rgb(179,179,179)" stroke-linejoin="round" d="M 13489,1460 L 13489,8171"/>
 <path fill="none" stroke="rgb(179,179,179)" stroke-linejoin="round" d="M 15241,1460 L 15241,8171"/>
 <path fill="none" stroke="rgb(179,179,179)" stroke-linejoin="round" d="M 2829,8171 L 2979,8171"/>
 <path fill="none" stroke="rgb(179,179,179)" stroke-linejoin="round" d="M 2829,8171 L 2979,8171"/>
 <path fill="none" stroke="rgb(179,179,179)" stroke-linejoin="round" d="M 2829,5933 L 2979,5933"/>
 <path fill="none" stroke="rgb(179,179,179)" stroke-linejoin="round" d="M 2829,5933 L 2979,5933"/>
 <path fill="none" stroke="rgb(179,179,179)" stroke-linejoin="round" d="M 2829,3697 L 2979,3697"/>
 <path fill="none" stroke="rgb(179,179,179)" stroke-linejoin="round" d="M 2829,3697 L 2979,3697"/>
 <path fill="none" stroke="rgb(179,179,179)" stroke-linejoin="round" d="M 2829,1460 L 2979,1460"/>
 <path fill="none" stroke="rgb(179,179,179)" stroke-linejoin="round" d="M 2829,1460 L 2979,1460"/>
 <path fill="none" stroke="rgb(179,179,179)" stroke-linejoin="round" d="M 2979,8171 L 2979,1460"/>
 <path fill="none" stroke="rgb(179,179,179)" stroke-linejoin="round" d="M 2979,8321 L 2979,8171"/>
 <path fill="none" stroke="rgb(179,179,179)" stroke-linejoin="round" d="M 2979,8321 L 2979,8171"/>
 <path fill="none" stroke="rgb(179,179,179)" stroke-linejoin="round" d="M 4730,8321 L 4730,8171"/>
 <path fill="none" stroke="rgb(179,179,179)" stroke-linejoin="round" d="M 4730,8321 L 4730,8171"/>
 <path fill="none" stroke="rgb(179,179,179)" stroke-linejoin="round" d="M 6482,8321 L 6482,8171"/>
 <path fill="none" stroke="rgb(179,179,179)" stroke-linejoin="round" d="M 6482,8321 L 6482,8171"/>
 <path fill="none" stroke="rgb(179,179,179)" stroke-linejoin="round" d="M 8233,8321 L 8233,8171"/>
 <path fill="none" stroke="rgb(179,179,179)" stroke-linejoin="round" d="M 8233,8321 L 8233,8171"/>
 <path fill="none" stroke="rgb(179,179,179)" stroke-linejoin="round" d="M 9985,8321 L 9985,8171"/>
 <path fill="none" stroke="rgb(179,179,179)" stroke-linejoin="round" d="M 9985,8321 L 9985,8171"/>
 <path fill="none" stroke="rgb(179,179,179)" stroke-linejoin="round" d="M 11737,8321 L 11737,8171"/>
 <path fill="none" stroke="rgb(179,179,179)" stroke-linejoin="round" d="M 11737,8321 L 11737,8171"/>
 <path fill="none" stroke="rgb(179,179,179)" stroke-linejoin="round" d="M 13489,8321 L 13489,8171"/>
 <path fill="none" stroke="rgb(179,179,179)" stroke-linejoin="round" d="M 13489,8321 L 13489,8171"/>
 <path fill="none" stroke="rgb(179,179,179)" stroke-linejoin="round" d="M 15241,8321 L 15241,8171"/>
 <path fill="none" stroke="rgb(179,179,179)" stroke-linejoin="round" d="M 15241,8321 L 15241,8171"/>
 <path fill="none" stroke="rgb(179,179,179)" stroke-linejoin="round" d="M 2979,8171 L 15241,8171"/>
 <path fill="rgb(0,138,207)" stroke="none" d="M 2979,3537 L 2979,3217 13312,3217 13312,3537 2979,3537 Z"/>
 <path fill="rgb(0,138,207)" stroke="none" d="M 2979,5773 L 2979,5454 12282,5454 12282,5773 2979,5773 Z"/>
 <path fill="rgb(0,138,207)" stroke="none" d="M 2979,8011 L 2979,7691 14152,7691 14152,8011 2979,8011 Z"/>
 <path fill="rgb(13,44,64)" stroke="none" d="M 2979,3217 L 2979,2898 12153,2898 12153,3217 2979,3217 Z"/>
 <path fill="rgb(13,44,64)" stroke="none" d="M 2979,5454 L 2979,5134 11579,5134 11579,5454 2979,5454 Z"/>
 <path fill="rgb(13,44,64)" stroke="none" d="M 2979,7691 L 2979,7371 12630,7371 12630,7691 2979,7691 Z"/>
 <path fill="rgb(19,148,72)" stroke="none" d="M 2979,2898 L 2979,2578 11991,2578 11991,2898 2979,2898 Z"/>
 <path fill="rgb(19,148,72)" stroke="none" d="M 2979,5134 L 2979,4814 11834,4814 11834,5134 2979,5134 Z"/>
 <path fill="rgb(19,148,72)" stroke="none" d="M 2979,7371 L 2979,7052 12564,7052 12564,7371 2979,7371 Z"/>
 <path fill="rgb(220,53,69)" stroke="none" d="M 2979,2578 L 2979,2259 12240,2259 12240,2578 2979,2578 Z"/>
 <path fill="rgb(220,53,69)" stroke="none" d="M 2979,4815 L 2979,4496 12900,4496 12900,4815 2979,4815 Z"/>
 <path fill="rgb(220,53,69)" stroke="none" d="M 2979,7052 L 2979,6732 13697,6732 13697,7052 2979,7052 Z"/>
 <path fill="rgb(255,193,8)" stroke="none" d="M 2979,2259 L 2979,1939 12266,1939 12266,2259 2979,2259 Z"/>
 <path fill="rgb(255,193,8)" stroke="none" d="M 2979,4496 L 2979,4176 11934,4176 11934,4496 2979,4496 Z"/>
 <path fill="rgb(255,193,8)" stroke="none" d="M 2979,6732 L 2979,6413 12228,6413 12228,6732 2979,6732 Z"/>
 <path fill="rgb(126,0,33)" stroke="none" d="M 2979,1939 L 2979,1619 11737,1619 11737,1939 2979,1939 Z"/>
 <path fill="rgb(126,0,33)" stroke="none" d="M 2979,4176 L 2979,3857 11737,3857 11737,4176 2979,4176 Z"/>
 <path fill="rgb(126,0,33)" stroke="none" d="M 2979,6413 L 2979,6093 11737,6093 11737,6413 2979,6413 Z"/>
 <text class="SVGTextShape"><tspan class="TextParagraph" font-family="Liberation Sans, sans-serif" font-size="353px" font-weight="400"><tspan class="TextPosition" x="1168" y="7173"><tspan fill="rgb(0,0,0)" stroke="none">singletons</tspan></tspan></tspan></text>
 <text class="SVGTextShape"><tspan class="TextParagraph" font-family="Liberation Sans, sans-serif" font-size="353px" font-weight="400"><tspan class="TextPosition" x="321" y="4936"><tspan fill="rgb(0,0,0)" stroke="none">responsiveness</tspan></tspan></tspan></text>
 <text class="SVGTextShape"><tspan class="TextParagraph" font-family="Liberation Sans, sans-serif" font-size="353px" font-weight="400"><tspan class="TextPosition" x="2068" y="2698"><tspan fill="rgb(0,0,0)" stroke="none">tp5o</tspan></tspan></tspan></text>
 <text class="SVGTextShape"><tspan class="TextParagraph" font-family="Liberation Sans, sans-serif" font-size="353px" font-weight="400"><tspan class="TextPosition" x="2727" y="8739"><tspan fill="rgb(0,0,0)" stroke="none">0%</tspan></tspan></tspan></text>
 <text class="SVGTextShape"><tspan class="TextParagraph" font-family="Liberation Sans, sans-serif" font-size="353px" font-weight="400"><tspan class="TextPosition" x="4386" y="8739"><tspan fill="rgb(0,0,0)" stroke="none">20%</tspan></tspan></tspan></text>
 <text class="SVGTextShape"><tspan class="TextParagraph" font-family="Liberation Sans, sans-serif" font-size="353px" font-weight="400"><tspan class="TextPosition" x="6138" y="8739"><tspan fill="rgb(0,0,0)" stroke="none">40%</tspan></tspan></tspan></text>
 <text class="SVGTextShape"><tspan class="TextParagraph" font-family="Liberation Sans, sans-serif" font-size="353px" font-weight="400"><tspan class="TextPosition" x="7890" y="8739"><tspan fill="rgb(0,0,0)" stroke="none">60%</tspan></tspan></tspan></text>
 <text class="SVGTextShape"><tspan class="TextParagraph" font-family="Liberation Sans, sans-serif" font-size="353px" font-weight="400"><tspan class="TextPosition" x="9642" y="8739"><tspan fill="rgb(0,0,0)" stroke="none">80%</tspan></tspan></tspan></text>
 <text class="SVGTextShape"><tspan class="TextParagraph" font-family="Liberation Sans, sans-serif" font-size="353px" font-weight="400"><tspan class="TextPosition" x="11301" y="8739"><tspan fill="rgb(0,0,0)" stroke="none">100%</tspan></tspan></tspan></text>
 <text class="SVGTextShape"><tspan class="TextParagraph" font-family="Liberation Sans, sans-serif" font-size="353px" font-weight="400"><tspan class="TextPosition" x="13053" y="8739"><tspan fill="rgb(0,0,0)" stroke="none">120%</tspan></tspan></tspan></text>
 <text class="SVGTextShape"><tspan class="TextParagraph" font-family="Liberation Sans, sans-serif" font-size="353px" font-weight="400"><tspan class="TextPosition" x="14805" y="8739"><tspan fill="rgb(0,0,0)" stroke="none">140%</tspan></tspan></tspan></text>
 <path fill="rgb(0,138,207)" stroke="none" d="M 8771,1087 L 8665,1087 8665,876 8876,876 8876,1087 8771,1087 Z"/>
 <path fill="rgb(13,44,64)" stroke="none" d="M 5712,1087 L 5607,1087 5607,876 5818,876 5818,1087 5712,1087 Z"/>
 <path fill="rgb(19,148,72)" stroke="none" d="M 3632,1087 L 3527,1087 3527,876 3738,876 3738,1087 3632,1087 Z"/>
 <path fill="rgb(220,53,69)" stroke="none" d="M 8771,589 L 8665,589 8665,378 8876,378 8876,589 8771,589 Z"/>
 <path fill="rgb(255,193,8)" stroke="none" d="M 5712,589 L 5607,589 5607,378 5818,378 5818,589 5712,589 Z"/>
 <path fill="rgb(126,0,33)" stroke="none" d="M 3632,589 L 3527,589 3527,378 3738,378 3738,589 3632,589 Z"/>
 <text class="SVGTextShape"><tspan class="TextParagraph" font-family="Liberation Sans, sans-serif" font-size="353px" font-weight="400"><tspan class="TextPosition" x="3838" y="603"><tspan fill="rgb(0,0,0)" stroke="none">Clang -O3</tspan></tspan></tspan></text>
 <text class="SVGTextShape"><tspan class="TextParagraph" font-family="Liberation Sans, sans-serif" font-size="353px" font-weight="400"><tspan class="TextPosition" x="5918" y="603"><tspan fill="rgb(0,0,0)" stroke="none">Clang -O3 (LTO)</tspan></tspan></tspan></text>
 <text class="SVGTextShape"><tspan class="TextParagraph" font-family="Liberation Sans, sans-serif" font-size="353px" font-weight="400"><tspan class="TextPosition" x="8976" y="603"><tspan fill="rgb(0,0,0)" stroke="none">Clang -O3 (LTO+PGO)</tspan></tspan></tspan></text>
 <text class="SVGTextShape"><tspan class="TextParagraph" font-family="Liberation Sans, sans-serif" font-size="353px" font-weight="400"><tspan class="TextPosition" x="3838" y="1101"><tspan fill="rgb(0,0,0)" stroke="none">GCC -O3</tspan></tspan></tspan></text>
 <text class="SVGTextShape"><tspan class="TextParagraph" font-family="Liberation Sans, sans-serif" font-size="353px" font-weight="400"><tspan class="TextPosition" x="5918" y="1101"><tspan fill="rgb(0,0,0)" stroke="none">GCC -O3 LTO</tspan></tspan></tspan></text>
 <text class="SVGTextShape"><tspan class="TextParagraph" font-family="Liberation Sans, sans-serif" font-size="353px" font-weight="400"><tspan class="TextPosition" x="8976" y="1101"><tspan fill="rgb(0,0,0)" stroke="none">GCC -O3 (LTO+PGO)</tspan></tspan></tspan></text>
</svg>