<?xml version="1.0" encoding="UTF-8"?>
<!DOCTYPE svg PUBLIC "-//W3C//DTD SVG 1.1//EN" "http://www.w3.org/Graphics/SVG/1.1/DTD/svg11.dtd">
<svg width="160mm" height="75mm" viewBox="0 0 16000 7500" version="1.1" xmlns="http://www.w3.org/2000/svg" xmlns:xlink="http://www.w3.org/1999/xlink" stroke-width="28.222" stroke-linejoin="round" xml:space="preserve">
 <path fill="rgb(255,255,255)" stroke="none" d="M 8000,7500 L 0,7500 0,1 15999,1 15999,7500 8000,7500 Z"/>
 <path fill="none" stroke="rgb(179,179,179)" stroke-linejoin="round" d="M 7827,6704 L 2926,6704 2926,151 12728,151 12728,6704 7827,6704 Z"/>
 <path fill="none" stroke="rgb(179,179,179)" stroke-linejoin="round" d="M 2926,149 L 2926,6702"/>
 <path fill="none" stroke="rgb(179,179,179)" stroke-linejoin="round" d="M 5153,149 L 5153,6702"/>
 <path fill="none" stroke="rgb(179,179,179)" stroke-linejoin="round" d="M 7381,149 L 7381,6702"/>
 <path fill="none" stroke="rgb(179,179,179)" stroke-linejoin="round" d="M 9608,149 L 9608,6702"/>
 <path fill="none" stroke="rgb(179,179,179)" stroke-linejoin="round" d="M 11836,149 L 11836,6702"/>
 <path fill="none" stroke="rgb(179,179,179)" stroke-linejoin="round" d="M 2776,149 L 2926,149"/>
 <path fill="none" stroke="rgb(179,179,179)" stroke-linejoin="round" d="M 2776,149 L 2926,149"/>
 <path fill="none" stroke="rgb(179,179,179)" stroke-linejoin="round" d="M 2776,1242 L 2926,1242"/>
 <path fill="none" stroke="rgb(179,179,179)" stroke-linejoin="round" d="M 2776,1242 L 2926,1242"/>
 <path fill="none" stroke="rgb(179,179,179)" stroke-linejoin="round" d="M 2776,2334 L 2926,2334"/>
 <path fill="none" stroke="rgb(179,179,179)" stroke-linejoin="round" d="M 2776,2334 L 2926,2334"/>
 <path fill="none" stroke="rgb(179,179,179)" stroke-linejoin="round" d="M 2776,3426 L 2926,3426"/>
 <path fill="none" stroke="rgb(179,179,179)" stroke-linejoin="round" d="M 2776,3426 L 2926,3426"/>
 <path fill="none" stroke="rgb(179,179,179)" stroke-linejoin="round" d="M 2776,4518 L 2926,4518"/>
 <path fill="none" stroke="rgb(179,179,179)" stroke-linejoin="round" d="M 2776,4518 L 2926,4518"/>
 <path fill="none" stroke="rgb(179,179,179)" stroke-linejoin="round" d="M 2776,5611 L 2926,5611"/>
 <path fill="none" stroke="rgb(179,179,179)" stroke-linejoin="round" d="M 2776,5611 L 2926,5611"/>
 <path fill="none" stroke="rgb(179,179,179)" stroke-linejoin="round" d="M 2776,6702 L 2926,6702"/>
 <path fill="none" stroke="rgb(179,179,179)" stroke-linejoin="round" d="M 2776,6702 L 2926,6702"/>
 <path fill="none" stroke="rgb(179,179,179)" stroke-linejoin="round" d="M 2926,6702 L 2926,149"/>
 <path fill="none" stroke="rgb(179,179,179)" stroke-linejoin="round" d="M 2926,6852 L 2926,6702"/>
 <path fill="none" stroke="rgb(179,179,179)" stroke-linejoin="round" d="M 2926,0 L 2926,149"/>
 <path fill="none" stroke="rgb(179,179,179)" stroke-linejoin="round" d="M 5153,6852 L 5153,6702"/>
 <path fill="none" stroke="rgb(179,179,179)" stroke-linejoin="round" d="M 5153,0 L 5153,149"/>
 <path fill="none" stroke="rgb(179,179,179)" stroke-linejoin="round" d="M 7381,6852 L 7381,6702"/>
 <path fill="none" stroke="rgb(179,179,179)" stroke-linejoin="round" d="M 7381,0 L 7381,149"/>
 <path fill="none" stroke="rgb(179,179,179)" stroke-linejoin="round" d="M 9608,6852 L 9608,6702"/>
 <path fill="none" stroke="rgb(179,179,179)" stroke-linejoin="round" d="M 9608,0 L 9608,149"/>
 <path fill="none" stroke="rgb(179,179,179)" stroke-linejoin="round" d="M 11836,6852 L 11836,6702"/>
 <path fill="none" stroke="rgb(179,179,179)" stroke-linejoin="round" d="M 11836,0 L 11836,149"/>
 <path fill="none" stroke="rgb(179,179,179)" stroke-linejoin="round" d="M 2926,149 L 12727,149"/>
 <path fill="rgb(220,53,69)" stroke="none" d="M 2926,5720 L 2926,5939 7381,5939 7381,5720 2926,5720 Z"/>
 <path fill="rgb(220,53,69)" stroke="none" d="M 2926,4628 L 2926,4846 7381,4846 7381,4628 2926,4628 Z"/>
 <path fill="rgb(220,53,69)" stroke="none" d="M 2926,3535 L 2926,3754 7381,3754 7381,3535 2926,3535 Z"/>
 <path fill="rgb(220,53,69)" stroke="none" d="M 2926,2444 L 2926,2662 7381,2662 7381,2444 2926,2444 Z"/>
 <path fill="rgb(220,53,69)" stroke="none" d="M 2926,1351 L 2926,1570 7381,1570 7381,1351 2926,1351 Z"/>
 <path fill="rgb(220,53,69)" stroke="none" d="M 2926,259 L 2926,477 7381,477 7381,259 2926,259 Z"/>
 <path fill="rgb(255,158,2)" stroke="none" d="M 2926,5939 L 2926,6156 7417,6156 7417,5939 2926,5939 Z"/>
 <path fill="rgb(255,158,2)" stroke="none" d="M 2926,4846 L 2926,5065 7500,5065 7500,4846 2926,4846 Z"/>
 <path fill="rgb(255,158,2)" stroke="none" d="M 2926,3754 L 2926,3972 7655,3972 7655,3754 2926,3754 Z"/>
 <path fill="rgb(255,158,2)" stroke="none" d="M 2926,2662 L 2926,2881 7397,2881 7397,2662 2926,2662 Z"/>
 <path fill="rgb(255,158,2)" stroke="none" d="M 2926,1570 L 2926,1788 6996,1788 6996,1570 2926,1570 Z"/>
 <path fill="rgb(255,158,2)" stroke="none" d="M 2926,477 L 2926,696 7488,696 7488,477 2926,477 Z"/>
 <path fill="rgb(19,148,72)" stroke="none" d="M 2926,6156 L 2926,6375 12048,6375 12048,6156 2926,6156 Z"/>
 <path fill="rgb(19,148,72)" stroke="none" d="M 2926,5065 L 2926,5283 8208,5283 8208,5065 2926,5065 Z"/>
 <path fill="rgb(19,148,72)" stroke="none" d="M 2926,3972 L 2926,4191 8833,4191 8833,3972 2926,3972 Z"/>
 <path fill="rgb(19,148,72)" stroke="none" d="M 2926,2881 L 2926,3098 7747,3098 7747,2881 2926,2881 Z"/>
 <path fill="rgb(19,148,72)" stroke="none" d="M 2926,1788 L 2926,2007 7745,2007 7745,1788 2926,1788 Z"/>
 <path fill="rgb(19,148,72)" stroke="none" d="M 2926,696 L 2926,914 8836,914 8836,696 2926,696 Z"/>
 <path fill="rgb(12,50,44)" stroke="none" d="M 2926,6375 L 2926,6593 12118,6593 12118,6375 2926,6375 Z"/>
 <path fill="rgb(12,50,44)" stroke="none" d="M 2926,5283 L 2926,5502 8208,5502 8208,5283 2926,5283 Z"/>
 <path fill="rgb(12,50,44)" stroke="none" d="M 2926,4191 L 2926,4409 8909,4409 8909,4191 2926,4191 Z"/>
 <path fill="rgb(12,50,44)" stroke="none" d="M 2926,3098 L 2926,3317 7810,3317 7810,3098 2926,3098 Z"/>
 <path fill="rgb(12,50,44)" stroke="none" d="M 2926,2007 L 2926,2225 7722,2225 7722,2007 2926,2007 Z"/>
 <path fill="rgb(12,50,44)" stroke="none" d="M 2926,914 L 2926,1133 9187,1133 9187,914 2926,914 Z"/>
 <text class="TextShape"><tspan class="TextParagraph" font-family="Liberation Sans, sans-serif" font-size="353px" font-weight="400"><tspan class="TextPosition" x="771" y="817"><tspan fill="rgb(0,0,0)" stroke="none">510.parest_r</tspan></tspan></tspan></text>
 <text class="TextShape"><tspan class="TextParagraph" font-family="Liberation Sans, sans-serif" font-size="353px" font-weight="400"><tspan class="TextPosition" x="1274" y="1908"><tspan fill="rgb(0,0,0)" stroke="none">521.wrf_r</tspan></tspan></tspan></text>
 <text class="TextShape"><tspan class="TextParagraph" font-family="Liberation Sans, sans-serif" font-size="353px" font-weight="400"><tspan class="TextPosition" x="877" y="3001"><tspan fill="rgb(0,0,0)" stroke="none">527.cam4_r</tspan></tspan></tspan></text>
 <text class="TextShape"><tspan class="TextParagraph" font-family="Liberation Sans, sans-serif" font-size="353px" font-weight="400"><tspan class="TextPosition" x="533" y="4093"><tspan fill="rgb(0,0,0)" stroke="none">538.imagick_r</tspan></tspan></tspan></text>
 <text class="TextShape"><tspan class="TextParagraph" font-family="Liberation Sans, sans-serif" font-size="353px" font-weight="400"><tspan class="TextPosition" x="321" y="5185"><tspan fill="rgb(0,0,0)" stroke="none">549.fotonik3d_r</tspan></tspan></tspan></text>
 <text class="TextShape"><tspan class="TextParagraph" font-family="Liberation Sans, sans-serif" font-size="353px" font-weight="400"><tspan class="TextPosition" x="956" y="6277"><tspan fill="rgb(0,0,0)" stroke="none">554.roms_r</tspan></tspan></tspan></text>
 <text class="TextShape"><tspan class="TextParagraph" font-family="Liberation Sans, sans-serif" font-size="353px" font-weight="400"><tspan class="TextPosition" x="2674" y="7270"><tspan fill="rgb(0,0,0)" stroke="none">0%</tspan></tspan></tspan></text>
 <text class="TextShape"><tspan class="TextParagraph" font-family="Liberation Sans, sans-serif" font-size="353px" font-weight="400"><tspan class="TextPosition" x="4809" y="7270"><tspan fill="rgb(0,0,0)" stroke="none">50%</tspan></tspan></tspan></text>
 <text class="TextShape"><tspan class="TextParagraph" font-family="Liberation Sans, sans-serif" font-size="353px" font-weight="400"><tspan class="TextPosition" x="6944" y="7270"><tspan fill="rgb(0,0,0)" stroke="none">100%</tspan></tspan></tspan></text>
 <text class="TextShape"><tspan class="TextParagraph" font-family="Liberation Sans, sans-serif" font-size="353px" font-weight="400"><tspan class="TextPosition" x="9172" y="7270"><tspan fill="rgb(0,0,0)" stroke="none">150%</tspan></tspan></tspan></text>
 <text class="TextShape"><tspan class="TextParagraph" font-family="Liberation Sans, sans-serif" font-size="353px" font-weight="400"><tspan class="TextPosition" x="11400" y="7270"><tspan fill="rgb(0,0,0)" stroke="none">200%</tspan></tspan></tspan></text>
 <path fill="rgb(220,53,69)" stroke="none" d="M 13270,4602 L 13164,4602 13164,4391 13375,4391 13375,4602 13270,4602 Z"/>
 <path fill="rgb(255,158,2)" stroke="none" d="M 13270,4104 L 13164,4104 13164,3893 13375,3893 13375,4104 13270,4104 Z"/>
 <path fill="rgb(19,148,72)" stroke="none" d="M 13270,3606 L 13164,3606 13164,3395 13375,3395 13375,3606 13270,3606 Z"/>
 <path fill="rgb(12,50,44)" stroke="none" d="M 13270,3108 L 13164,3108 13164,2898 13375,2898 13375,3108 13270,3108 Z"/>
 <text class="TextShape"><tspan class="TextParagraph" font-family="Liberation Sans, sans-serif" font-size="353px" font-weight="400"><tspan class="TextPosition" x="13475" y="3122"><tspan fill="rgb(0,0,0)" stroke="none">GCC 10 (LTO)</tspan></tspan></tspan></text>
 <text class="TextShape"><tspan class="TextParagraph" font-family="Liberation Sans, sans-serif" font-size="353px" font-weight="400"><tspan class="TextPosition" x="13475" y="3620"><tspan fill="rgb(0,0,0)" stroke="none">GCC 10</tspan></tspan></tspan></text>
 <text class="TextShape"><tspan class="TextParagraph" font-family="Liberation Sans, sans-serif" font-size="353px" font-weight="400"><tspan class="TextPosition" x="13475" y="4118"><tspan fill="rgb(0,0,0)" stroke="none">GCC 7 (LTO)</tspan></tspan></tspan></text>
 <text class="TextShape"><tspan class="TextParagraph" font-family="Liberation Sans, sans-serif" font-size="353px" font-weight="400"><tspan class="TextPosition" x="13475" y="4616"><tspan fill="rgb(0,0,0)" stroke="none">GCC 7</tspan></tspan></tspan></text>
</svg>