<?xml version="1.0" encoding="UTF-8"?>
<!DOCTYPE svg PUBLIC "-//W3C//DTD SVG 1.1//EN" "http://www.w3.org/Graphics/SVG/1.1/DTD/svg11.dtd">
<svg width="160mm" height="117mm" viewBox="0 0 16000 11700" version="1.1" xmlns="http://www.w3.org/2000/svg" xmlns:xlink="http://www.w3.org/1999/xlink" stroke-width="28.222" stroke-linejoin="round" xml:space="preserve">
 <path fill="rgb(255,255,255)" stroke="none" d="M 7987,11687 L -13,11687 -13,-13 15987,-13 15987,11687 7987,11687 Z"/>
 <path fill="none" stroke="rgb(179,179,179)" stroke-linejoin="round" d="M 8005,10807 L 3177,10807 3177,221 12834,221 12834,10807 8005,10807 Z"/>
 <path fill="none" stroke="rgb(179,179,179)" stroke-linejoin="round" d="M 3177,220 L 3177,10806"/>
 <path fill="none" stroke="rgb(179,179,179)" stroke-linejoin="round" d="M 4384,220 L 4384,10806"/>
 <path fill="none" stroke="rgb(179,179,179)" stroke-linejoin="round" d="M 5591,220 L 5591,10806"/>
 <path fill="none" stroke="rgb(179,179,179)" stroke-linejoin="round" d="M 6798,220 L 6798,10806"/>
 <path fill="none" stroke="rgb(179,179,179)" stroke-linejoin="round" d="M 8005,220 L 8005,10806"/>
 <path fill="none" stroke="rgb(179,179,179)" stroke-linejoin="round" d="M 9212,220 L 9212,10806"/>
 <path fill="none" stroke="rgb(179,179,179)" stroke-linejoin="round" d="M 10419,220 L 10419,10806"/>
 <path fill="none" stroke="rgb(179,179,179)" stroke-linejoin="round" d="M 11626,220 L 11626,10806"/>
 <path fill="none" stroke="rgb(179,179,179)" stroke-linejoin="round" d="M 12834,220 L 12834,10806"/>
 <path fill="none" stroke="rgb(179,179,179)" stroke-linejoin="round" d="M 3027,220 L 3177,220"/>
 <path fill="none" stroke="rgb(179,179,179)" stroke-linejoin="round" d="M 3027,220 L 3177,220"/>
 <path fill="none" stroke="rgb(179,179,179)" stroke-linejoin="round" d="M 3027,1278 L 3177,1278"/>
 <path fill="none" stroke="rgb(179,179,179)" stroke-linejoin="round" d="M 3027,1278 L 3177,1278"/>
 <path fill="none" stroke="rgb(179,179,179)" stroke-linejoin="round" d="M 3027,2337 L 3177,2337"/>
 <path fill="none" stroke="rgb(179,179,179)" stroke-linejoin="round" d="M 3027,2337 L 3177,2337"/>
 <path fill="none" stroke="rgb(179,179,179)" stroke-linejoin="round" d="M 3027,3396 L 3177,3396"/>
 <path fill="none" stroke="rgb(179,179,179)" stroke-linejoin="round" d="M 3027,3396 L 3177,3396"/>
 <path fill="none" stroke="rgb(179,179,179)" stroke-linejoin="round" d="M 3027,4454 L 3177,4454"/>
 <path fill="none" stroke="rgb(179,179,179)" stroke-linejoin="round" d="M 3027,4454 L 3177,4454"/>
 <path fill="none" stroke="rgb(179,179,179)" stroke-linejoin="round" d="M 3027,5513 L 3177,5513"/>
 <path fill="none" stroke="rgb(179,179,179)" stroke-linejoin="round" d="M 3027,5513 L 3177,5513"/>
 <path fill="none" stroke="rgb(179,179,179)" stroke-linejoin="round" d="M 3027,6571 L 3177,6571"/>
 <path fill="none" stroke="rgb(179,179,179)" stroke-linejoin="round" d="M 3027,6571 L 3177,6571"/>
 <path fill="none" stroke="rgb(179,179,179)" stroke-linejoin="round" d="M 3027,7629 L 3177,7629"/>
 <path fill="none" stroke="rgb(179,179,179)" stroke-linejoin="round" d="M 3027,7629 L 3177,7629"/>
 <path fill="none" stroke="rgb(179,179,179)" stroke-linejoin="round" d="M 3027,8688 L 3177,8688"/>
 <path fill="none" stroke="rgb(179,179,179)" stroke-linejoin="round" d="M 3027,8688 L 3177,8688"/>
 <path fill="none" stroke="rgb(179,179,179)" stroke-linejoin="round" d="M 3027,9747 L 3177,9747"/>
 <path fill="none" stroke="rgb(179,179,179)" stroke-linejoin="round" d="M 3027,9747 L 3177,9747"/>
 <path fill="none" stroke="rgb(179,179,179)" stroke-linejoin="round" d="M 3027,10806 L 3177,10806"/>
 <path fill="none" stroke="rgb(179,179,179)" stroke-linejoin="round" d="M 3027,10806 L 3177,10806"/>
 <path fill="none" stroke="rgb(179,179,179)" stroke-linejoin="round" d="M 3177,10806 L 3177,220"/>
 <path fill="none" stroke="rgb(179,179,179)" stroke-linejoin="round" d="M 3177,10956 L 3177,10806"/>
 <path fill="none" stroke="rgb(179,179,179)" stroke-linejoin="round" d="M 3177,70 L 3177,220"/>
 <path fill="none" stroke="rgb(179,179,179)" stroke-linejoin="round" d="M 4384,10956 L 4384,10806"/>
 <path fill="none" stroke="rgb(179,179,179)" stroke-linejoin="round" d="M 4384,70 L 4384,220"/>
 <path fill="none" stroke="rgb(179,179,179)" stroke-linejoin="round" d="M 5591,10956 L 5591,10806"/>
 <path fill="none" stroke="rgb(179,179,179)" stroke-linejoin="round" d="M 5591,70 L 5591,220"/>
 <path fill="none" stroke="rgb(179,179,179)" stroke-linejoin="round" d="M 6798,10956 L 6798,10806"/>
 <path fill="none" stroke="rgb(179,179,179)" stroke-linejoin="round" d="M 6798,70 L 6798,220"/>
 <path fill="none" stroke="rgb(179,179,179)" stroke-linejoin="round" d="M 8005,10956 L 8005,10806"/>
 <path fill="none" stroke="rgb(179,179,179)" stroke-linejoin="round" d="M 8005,70 L 8005,220"/>
 <path fill="none" stroke="rgb(179,179,179)" stroke-linejoin="round" d="M 9212,10956 L 9212,10806"/>
 <path fill="none" stroke="rgb(179,179,179)" stroke-linejoin="round" d="M 9212,70 L 9212,220"/>
 <path fill="none" stroke="rgb(179,179,179)" stroke-linejoin="round" d="M 10419,10956 L 10419,10806"/>
 <path fill="none" stroke="rgb(179,179,179)" stroke-linejoin="round" d="M 10419,70 L 10419,220"/>
 <path fill="none" stroke="rgb(179,179,179)" stroke-linejoin="round" d="M 11626,10956 L 11626,10806"/>
 <path fill="none" stroke="rgb(179,179,179)" stroke-linejoin="round" d="M 11626,70 L 11626,220"/>
 <path fill="none" stroke="rgb(179,179,179)" stroke-linejoin="round" d="M 12834,10956 L 12834,10806"/>
 <path fill="none" stroke="rgb(179,179,179)" stroke-linejoin="round" d="M 12834,70 L 12834,220"/>
 <path fill="none" stroke="rgb(179,179,179)" stroke-linejoin="round" d="M 3177,220 L 12834,220"/>
 <path fill="rgb(12,50,44)" stroke="none" d="M 3177,325 L 3177,537 9212,537 9212,325 3177,325 Z"/>
 <path fill="rgb(12,50,44)" stroke="none" d="M 3177,1384 L 3177,1596 9212,1596 9212,1384 3177,1384 Z"/>
 <path fill="rgb(12,50,44)" stroke="none" d="M 3177,2443 L 3177,2655 9212,2655 9212,2443 3177,2443 Z"/>
 <path fill="rgb(12,50,44)" stroke="none" d="M 3177,3501 L 3177,3713 9212,3713 9212,3501 3177,3501 Z"/>
 <path fill="rgb(12,50,44)" stroke="none" d="M 3177,4560 L 3177,4772 9212,4772 9212,4560 3177,4560 Z"/>
 <path fill="rgb(12,50,44)" stroke="none" d="M 3177,5619 L 3177,5831 9212,5831 9212,5619 3177,5619 Z"/>
 <path fill="rgb(12,50,44)" stroke="none" d="M 3177,6677 L 3177,6888 9212,6888 9212,6677 3177,6677 Z"/>
 <path fill="rgb(12,50,44)" stroke="none" d="M 3177,7735 L 3177,7947 9212,7947 9212,7735 3177,7735 Z"/>
 <path fill="rgb(12,50,44)" stroke="none" d="M 3177,8794 L 3177,9006 9212,9006 9212,8794 3177,8794 Z"/>
 <path fill="rgb(12,50,44)" stroke="none" d="M 3177,9853 L 3177,10064 9212,10064 9212,9853 3177,9853 Z"/>
 <path fill="rgb(19,148,72)" stroke="none" d="M 3177,537 L 3177,749 9255,749 9255,537 3177,537 Z"/>
 <path fill="rgb(19,148,72)" stroke="none" d="M 3177,1596 L 3177,1808 9340,1808 9340,1596 3177,1596 Z"/>
 <path fill="rgb(19,148,72)" stroke="none" d="M 3177,2655 L 3177,2866 9095,2866 9095,2655 3177,2655 Z"/>
 <path fill="rgb(19,148,72)" stroke="none" d="M 3177,3713 L 3177,3925 9264,3925 9264,3713 3177,3713 Z"/>
 <path fill="rgb(19,148,72)" stroke="none" d="M 3177,4772 L 3177,4984 9138,4984 9138,4772 3177,4772 Z"/>
 <path fill="rgb(19,148,72)" stroke="none" d="M 3177,5831 L 3177,6041 9117,6041 9117,5831 3177,5831 Z"/>
 <path fill="rgb(19,148,72)" stroke="none" d="M 3177,6888 L 3177,7100 9881,7100 9881,6888 3177,6888 Z"/>
 <path fill="rgb(19,148,72)" stroke="none" d="M 3177,7947 L 3177,8159 9778,8159 9778,7947 3177,7947 Z"/>
 <path fill="rgb(19,148,72)" stroke="none" d="M 3177,9006 L 3177,9217 9250,9217 9250,9006 3177,9006 Z"/>
 <path fill="rgb(19,148,72)" stroke="none" d="M 3177,10064 L 3177,10276 9258,10276 9258,10064 3177,10064 Z"/>
 <path fill="rgb(255,193,8)" stroke="none" d="M 3177,749 L 3177,961 9705,961 9705,749 3177,749 Z"/>
 <path fill="rgb(255,193,8)" stroke="none" d="M 3177,1808 L 3177,2019 9612,2019 9612,1808 3177,1808 Z"/>
 <path fill="rgb(255,193,8)" stroke="none" d="M 3177,2866 L 3177,3078 9346,3078 9346,2866 3177,2866 Z"/>
 <path fill="rgb(255,193,8)" stroke="none" d="M 3177,3925 L 3177,4137 9983,4137 9983,3925 3177,3925 Z"/>
 <path fill="rgb(255,193,8)" stroke="none" d="M 3177,4984 L 3177,5195 9296,5195 9296,4984 3177,4984 Z"/>
 <path fill="rgb(255,193,8)" stroke="none" d="M 3177,6041 L 3177,6253 10403,6253 10403,6041 3177,6041 Z"/>
 <path fill="rgb(255,193,8)" stroke="none" d="M 3177,7100 L 3177,7312 9096,7312 9096,7100 3177,7100 Z"/>
 <path fill="rgb(255,193,8)" stroke="none" d="M 3177,8159 L 3177,8370 9291,8370 9291,8159 3177,8159 Z"/>
 <path fill="rgb(255,193,8)" stroke="none" d="M 3177,9217 L 3177,9429 11817,9429 11817,9217 3177,9217 Z"/>
 <path fill="rgb(255,193,8)" stroke="none" d="M 3177,10276 L 3177,10488 9538,10488 9538,10276 3177,10276 Z"/>
 <path fill="rgb(0,138,207)" stroke="none" d="M 3177,961 L 3177,1172 9714,1172 9714,961 3177,961 Z"/>
 <path fill="rgb(0,138,207)" stroke="none" d="M 3177,2019 L 3177,2231 9777,2231 9777,2019 3177,2019 Z"/>
 <path fill="rgb(0,138,207)" stroke="none" d="M 3177,3078 L 3177,3290 9874,3290 9874,3078 3177,3078 Z"/>
 <path fill="rgb(0,138,207)" stroke="none" d="M 3177,4137 L 3177,4348 10531,4348 10531,4137 3177,4137 Z"/>
 <path fill="rgb(0,138,207)" stroke="none" d="M 3177,5195 L 3177,5407 9686,5407 9686,5195 3177,5195 Z"/>
 <path fill="rgb(0,138,207)" stroke="none" d="M 3177,6253 L 3177,6465 10369,6465 10369,6253 3177,6253 Z"/>
 <path fill="rgb(0,138,207)" stroke="none" d="M 3177,7312 L 3177,7524 9616,7524 9616,7312 3177,7312 Z"/>
 <path fill="rgb(0,138,207)" stroke="none" d="M 3177,8370 L 3177,8582 10227,8582 10227,8370 3177,8370 Z"/>
 <path fill="rgb(0,138,207)" stroke="none" d="M 3177,9429 L 3177,9641 11969,9641 11969,9429 3177,9429 Z"/>
 <path fill="rgb(0,138,207)" stroke="none" d="M 3177,10488 L 3177,10700 9430,10700 9430,10488 3177,10488 Z"/>
 <text class="SVGTextShape"><tspan class="TextParagraph" font-family="Liberation Sans, sans-serif" font-size="353px" font-weight="400"><tspan class="TextPosition" x="493" y="869"><tspan fill="rgb(0,0,0)" stroke="none" style="white-space: pre">500.perlbench_r</tspan></tspan></tspan></text>
 <text class="SVGTextShape"><tspan class="TextParagraph" font-family="Liberation Sans, sans-serif" font-size="353px" font-weight="400"><tspan class="TextPosition" x="1419" y="1928"><tspan fill="rgb(0,0,0)" stroke="none" style="white-space: pre">502.gcc_r</tspan></tspan></tspan></text>
 <text class="SVGTextShape"><tspan class="TextParagraph" font-family="Liberation Sans, sans-serif" font-size="353px" font-weight="400"><tspan class="TextPosition" x="1392" y="2986"><tspan fill="rgb(0,0,0)" stroke="none" style="white-space: pre">505.mcf_r</tspan></tspan></tspan></text>
 <text class="SVGTextShape"><tspan class="TextParagraph" font-family="Liberation Sans, sans-serif" font-size="353px" font-weight="400"><tspan class="TextPosition" x="652" y="4045"><tspan fill="rgb(0,0,0)" stroke="none" style="white-space: pre">520.omnetpp_r</tspan></tspan></tspan></text>
 <text class="SVGTextShape"><tspan class="TextParagraph" font-family="Liberation Sans, sans-serif" font-size="353px" font-weight="400"><tspan class="TextPosition" x="308" y="5104"><tspan fill="rgb(0,0,0)" stroke="none" style="white-space: pre">523.xalancbmk_r</tspan></tspan></tspan></text>
 <text class="SVGTextShape"><tspan class="TextParagraph" font-family="Liberation Sans, sans-serif" font-size="353px" font-weight="400"><tspan class="TextPosition" x="1234" y="6161"><tspan fill="rgb(0,0,0)" stroke="none" style="white-space: pre">525.x264_r</tspan></tspan></tspan></text>
 <text class="SVGTextShape"><tspan class="TextParagraph" font-family="Liberation Sans, sans-serif" font-size="353px" font-weight="400"><tspan class="TextPosition" x="413" y="7220"><tspan fill="rgb(0,0,0)" stroke="none" style="white-space: pre">531.deepsjeng_r</tspan></tspan></tspan></text>
 <text class="SVGTextShape"><tspan class="TextParagraph" font-family="Liberation Sans, sans-serif" font-size="353px" font-weight="400"><tspan class="TextPosition" x="1260" y="8279"><tspan fill="rgb(0,0,0)" stroke="none" style="white-space: pre">541.leela_r</tspan></tspan></tspan></text>
 <text class="SVGTextShape"><tspan class="TextParagraph" font-family="Liberation Sans, sans-serif" font-size="353px" font-weight="400"><tspan class="TextPosition" x="308" y="9337"><tspan fill="rgb(0,0,0)" stroke="none" style="white-space: pre">548.exchange2_r</tspan></tspan></tspan></text>
 <text class="SVGTextShape"><tspan class="TextParagraph" font-family="Liberation Sans, sans-serif" font-size="353px" font-weight="400"><tspan class="TextPosition" x="1604" y="10396"><tspan fill="rgb(0,0,0)" stroke="none" style="white-space: pre">557.xz_r</tspan></tspan></tspan></text>
 <text class="SVGTextShape"><tspan class="TextParagraph" font-family="Liberation Sans, sans-serif" font-size="353px" font-weight="400"><tspan class="TextPosition" x="2925" y="11374"><tspan fill="rgb(0,0,0)" stroke="none" style="white-space: pre">0%</tspan></tspan></tspan></text>
 <text class="SVGTextShape"><tspan class="TextParagraph" font-family="Liberation Sans, sans-serif" font-size="353px" font-weight="400"><tspan class="TextPosition" x="4040" y="11374"><tspan fill="rgb(0,0,0)" stroke="none" style="white-space: pre">20%</tspan></tspan></tspan></text>
 <text class="SVGTextShape"><tspan class="TextParagraph" font-family="Liberation Sans, sans-serif" font-size="353px" font-weight="400"><tspan class="TextPosition" x="5247" y="11374"><tspan fill="rgb(0,0,0)" stroke="none" style="white-space: pre">40%</tspan></tspan></tspan></text>
 <text class="SVGTextShape"><tspan class="TextParagraph" font-family="Liberation Sans, sans-serif" font-size="353px" font-weight="400"><tspan class="TextPosition" x="6454" y="11374"><tspan fill="rgb(0,0,0)" stroke="none" style="white-space: pre">60%</tspan></tspan></tspan></text>
 <text class="SVGTextShape"><tspan class="TextParagraph" font-family="Liberation Sans, sans-serif" font-size="353px" font-weight="400"><tspan class="TextPosition" x="7662" y="11374"><tspan fill="rgb(0,0,0)" stroke="none" style="white-space: pre">80%</tspan></tspan></tspan></text>
 <text class="SVGTextShape"><tspan class="TextParagraph" font-family="Liberation Sans, sans-serif" font-size="353px" font-weight="400"><tspan class="TextPosition" x="8775" y="11374"><tspan fill="rgb(0,0,0)" stroke="none" style="white-space: pre">100%</tspan></tspan></tspan></text>
 <text class="SVGTextShape"><tspan class="TextParagraph" font-family="Liberation Sans, sans-serif" font-size="353px" font-weight="400"><tspan class="TextPosition" x="9982" y="11374"><tspan fill="rgb(0,0,0)" stroke="none" style="white-space: pre">120%</tspan></tspan></tspan></text>
 <text class="SVGTextShape"><tspan class="TextParagraph" font-family="Liberation Sans, sans-serif" font-size="353px" font-weight="400"><tspan class="TextPosition" x="11189" y="11374"><tspan fill="rgb(0,0,0)" stroke="none" style="white-space: pre">140%</tspan></tspan></tspan></text>
 <text class="SVGTextShape"><tspan class="TextParagraph" font-family="Liberation Sans, sans-serif" font-size="353px" font-weight="400"><tspan class="TextPosition" x="12397" y="11374"><tspan fill="rgb(0,0,0)" stroke="none" style="white-space: pre">160%</tspan></tspan></tspan></text>
 <path fill="rgb(12,50,44)" stroke="none" d="M 13814,6688 L 13708,6688 13708,6477 13919,6477 13919,6688 13814,6688 Z"/>
 <path fill="rgb(19,148,72)" stroke="none" d="M 13814,6190 L 13708,6190 13708,5979 13919,5979 13919,6190 13814,6190 Z"/>
 <path fill="rgb(255,193,8)" stroke="none" d="M 13814,5693 L 13708,5693 13708,5482 13919,5482 13919,5693 13814,5693 Z"/>
 <path fill="rgb(0,138,207)" stroke="none" d="M 13814,5195 L 13708,5195 13708,4984 13919,4984 13919,5195 13814,5195 Z"/>
 <text class="SVGTextShape"><tspan class="TextParagraph" font-family="Liberation Sans, sans-serif" font-size="353px" font-weight="400"><tspan class="TextPosition" x="14019" y="5209"><tspan fill="rgb(0,0,0)" stroke="none" style="white-space: pre">LTO+PGO</tspan></tspan></tspan></text>
 <text class="SVGTextShape"><tspan class="TextParagraph" font-family="Liberation Sans, sans-serif" font-size="353px" font-weight="400"><tspan class="TextPosition" x="14019" y="5707"><tspan fill="rgb(0,0,0)" stroke="none" style="white-space: pre">PGO</tspan></tspan></tspan></text>
 <text class="SVGTextShape"><tspan class="TextParagraph" font-family="Liberation Sans, sans-serif" font-size="353px" font-weight="400"><tspan class="TextPosition" x="14019" y="6204"><tspan fill="rgb(0,0,0)" stroke="none" style="white-space: pre">LTO</tspan></tspan></tspan></text>
 <text class="SVGTextShape"><tspan class="TextParagraph" font-family="Liberation Sans, sans-serif" font-size="353px" font-weight="400"><tspan class="TextPosition" x="14019" y="6702"><tspan fill="rgb(0,0,0)" stroke="none" style="white-space: pre">Standard</tspan></tspan></tspan></text>
</svg>