<?xml version="1.0" encoding="UTF-8"?>
<!DOCTYPE svg PUBLIC "-//W3C//DTD SVG 1.1//EN" "http://www.w3.org/Graphics/SVG/1.1/DTD/svg11.dtd">
<svg width="160mm" height="81mm" viewBox="0 0 16000 8100" version="1.1" xmlns="http://www.w3.org/2000/svg" xmlns:xlink="http://www.w3.org/1999/xlink" stroke-width="28.222" stroke-linejoin="round" xml:space="preserve">
 <path fill="rgb(255,255,255)" stroke="none" d="M 8000,8100 L 0,8100 0,0 16000,0 16000,8100 8000,8100 Z"/>
 <path fill="none" stroke="rgb(179,179,179)" stroke-linejoin="round" d="M 7423,7291 L 2714,7291 2714,162 12132,162 12132,7291 7423,7291 Z"/>
 <path fill="none" stroke="rgb(179,179,179)" stroke-linejoin="round" d="M 2714,161 L 2714,7290"/>
 <path fill="none" stroke="rgb(179,179,179)" stroke-linejoin="round" d="M 4059,161 L 4059,7290"/>
 <path fill="none" stroke="rgb(179,179,179)" stroke-linejoin="round" d="M 5405,161 L 5405,7290"/>
 <path fill="none" stroke="rgb(179,179,179)" stroke-linejoin="round" d="M 6750,161 L 6750,7290"/>
 <path fill="none" stroke="rgb(179,179,179)" stroke-linejoin="round" d="M 8095,161 L 8095,7290"/>
 <path fill="none" stroke="rgb(179,179,179)" stroke-linejoin="round" d="M 9440,161 L 9440,7290"/>
 <path fill="none" stroke="rgb(179,179,179)" stroke-linejoin="round" d="M 10786,161 L 10786,7290"/>
 <path fill="none" stroke="rgb(179,179,179)" stroke-linejoin="round" d="M 12132,161 L 12132,7290"/>
 <path fill="none" stroke="rgb(179,179,179)" stroke-linejoin="round" d="M 2564,161 L 2714,161"/>
 <path fill="none" stroke="rgb(179,179,179)" stroke-linejoin="round" d="M 2564,161 L 2714,161"/>
 <path fill="none" stroke="rgb(179,179,179)" stroke-linejoin="round" d="M 2564,1179 L 2714,1179"/>
 <path fill="none" stroke="rgb(179,179,179)" stroke-linejoin="round" d="M 2564,1179 L 2714,1179"/>
 <path fill="none" stroke="rgb(179,179,179)" stroke-linejoin="round" d="M 2564,2198 L 2714,2198"/>
 <path fill="none" stroke="rgb(179,179,179)" stroke-linejoin="round" d="M 2564,2198 L 2714,2198"/>
 <path fill="none" stroke="rgb(179,179,179)" stroke-linejoin="round" d="M 2564,3216 L 2714,3216"/>
 <path fill="none" stroke="rgb(179,179,179)" stroke-linejoin="round" d="M 2564,3216 L 2714,3216"/>
 <path fill="none" stroke="rgb(179,179,179)" stroke-linejoin="round" d="M 2564,4234 L 2714,4234"/>
 <path fill="none" stroke="rgb(179,179,179)" stroke-linejoin="round" d="M 2564,4234 L 2714,4234"/>
 <path fill="none" stroke="rgb(179,179,179)" stroke-linejoin="round" d="M 2564,5252 L 2714,5252"/>
 <path fill="none" stroke="rgb(179,179,179)" stroke-linejoin="round" d="M 2564,5252 L 2714,5252"/>
 <path fill="none" stroke="rgb(179,179,179)" stroke-linejoin="round" d="M 2564,6271 L 2714,6271"/>
 <path fill="none" stroke="rgb(179,179,179)" stroke-linejoin="round" d="M 2564,6271 L 2714,6271"/>
 <path fill="none" stroke="rgb(179,179,179)" stroke-linejoin="round" d="M 2564,7290 L 2714,7290"/>
 <path fill="none" stroke="rgb(179,179,179)" stroke-linejoin="round" d="M 2564,7290 L 2714,7290"/>
 <path fill="none" stroke="rgb(179,179,179)" stroke-linejoin="round" d="M 2714,7290 L 2714,161"/>
 <path fill="none" stroke="rgb(179,179,179)" stroke-linejoin="round" d="M 2714,7440 L 2714,7290"/>
 <path fill="none" stroke="rgb(179,179,179)" stroke-linejoin="round" d="M 2714,11 L 2714,161"/>
 <path fill="none" stroke="rgb(179,179,179)" stroke-linejoin="round" d="M 4059,7440 L 4059,7290"/>
 <path fill="none" stroke="rgb(179,179,179)" stroke-linejoin="round" d="M 4059,11 L 4059,161"/>
 <path fill="none" stroke="rgb(179,179,179)" stroke-linejoin="round" d="M 5405,7440 L 5405,7290"/>
 <path fill="none" stroke="rgb(179,179,179)" stroke-linejoin="round" d="M 5405,11 L 5405,161"/>
 <path fill="none" stroke="rgb(179,179,179)" stroke-linejoin="round" d="M 6750,7440 L 6750,7290"/>
 <path fill="none" stroke="rgb(179,179,179)" stroke-linejoin="round" d="M 6750,11 L 6750,161"/>
 <path fill="none" stroke="rgb(179,179,179)" stroke-linejoin="round" d="M 8095,7440 L 8095,7290"/>
 <path fill="none" stroke="rgb(179,179,179)" stroke-linejoin="round" d="M 8095,11 L 8095,161"/>
 <path fill="none" stroke="rgb(179,179,179)" stroke-linejoin="round" d="M 9440,7440 L 9440,7290"/>
 <path fill="none" stroke="rgb(179,179,179)" stroke-linejoin="round" d="M 9440,11 L 9440,161"/>
 <path fill="none" stroke="rgb(179,179,179)" stroke-linejoin="round" d="M 10786,7440 L 10786,7290"/>
 <path fill="none" stroke="rgb(179,179,179)" stroke-linejoin="round" d="M 10786,11 L 10786,161"/>
 <path fill="none" stroke="rgb(179,179,179)" stroke-linejoin="round" d="M 12132,7440 L 12132,7290"/>
 <path fill="none" stroke="rgb(179,179,179)" stroke-linejoin="round" d="M 12132,11 L 12132,161"/>
 <path fill="none" stroke="rgb(179,179,179)" stroke-linejoin="round" d="M 2714,161 L 12132,161"/>
 <path fill="rgb(220,53,69)" stroke="none" d="M 2714,6373 L 2714,6576 9440,6576 9440,6373 2714,6373 Z"/>
 <path fill="rgb(220,53,69)" stroke="none" d="M 2714,5354 L 2714,5558 9440,5558 9440,5354 2714,5354 Z"/>
 <path fill="rgb(220,53,69)" stroke="none" d="M 2714,4336 L 2714,4539 9440,4539 9440,4336 2714,4336 Z"/>
 <path fill="rgb(220,53,69)" stroke="none" d="M 2714,3318 L 2714,3522 9440,3522 9440,3318 2714,3318 Z"/>
 <path fill="rgb(220,53,69)" stroke="none" d="M 2714,2300 L 2714,2503 9440,2503 9440,2300 2714,2300 Z"/>
 <path fill="rgb(220,53,69)" stroke="none" d="M 2714,1281 L 2714,1485 9440,1485 9440,1281 2714,1281 Z"/>
 <path fill="rgb(220,53,69)" stroke="none" d="M 2714,262 L 2714,466 9440,466 9440,262 2714,262 Z"/>
 <path fill="rgb(255,158,2)" stroke="none" d="M 2714,6577 L 2714,6780 9440,6780 9440,6577 2714,6577 Z"/>
 <path fill="rgb(255,158,2)" stroke="none" d="M 2714,5558 L 2714,5762 9724,5762 9724,5558 2714,5558 Z"/>
 <path fill="rgb(255,158,2)" stroke="none" d="M 2714,4539 L 2714,4743 9563,4743 9563,4539 2714,4539 Z"/>
 <path fill="rgb(255,158,2)" stroke="none" d="M 2714,3522 L 2714,3725 9476,3725 9476,3522 2714,3522 Z"/>
 <path fill="rgb(255,158,2)" stroke="none" d="M 2714,2503 L 2714,2707 9821,2707 9821,2503 2714,2503 Z"/>
 <path fill="rgb(255,158,2)" stroke="none" d="M 2714,1485 L 2714,1688 10321,1688 10321,1485 2714,1485 Z"/>
 <path fill="rgb(255,158,2)" stroke="none" d="M 2714,466 L 2714,670 9209,670 9209,466 2714,466 Z"/>
 <path fill="rgb(19,148,72)" stroke="none" d="M 2714,6780 L 2714,6984 8385,6984 8385,6780 2714,6780 Z"/>
 <path fill="rgb(19,148,72)" stroke="none" d="M 2714,5762 L 2714,5965 9457,5965 9457,5762 2714,5762 Z"/>
 <path fill="rgb(19,148,72)" stroke="none" d="M 2714,4743 L 2714,4947 8992,4947 8992,4743 2714,4743 Z"/>
 <path fill="rgb(19,148,72)" stroke="none" d="M 2714,3726 L 2714,3929 9440,3929 9440,3726 2714,3726 Z"/>
 <path fill="rgb(19,148,72)" stroke="none" d="M 2714,2707 L 2714,2911 9631,2911 9631,2707 2714,2707 Z"/>
 <path fill="rgb(19,148,72)" stroke="none" d="M 2714,1688 L 2714,1892 9976,1892 9976,1688 2714,1688 Z"/>
 <path fill="rgb(19,148,72)" stroke="none" d="M 2714,670 L 2714,874 9231,874 9231,670 2714,670 Z"/>
 <path fill="rgb(12,50,44)" stroke="none" d="M 2714,6984 L 2714,7188 8275,7188 8275,6984 2714,6984 Z"/>
 <path fill="rgb(12,50,44)" stroke="none" d="M 2714,5965 L 2714,6169 9424,6169 9424,5965 2714,5965 Z"/>
 <path fill="rgb(12,50,44)" stroke="none" d="M 2714,4947 L 2714,5150 9009,5150 9009,4947 2714,4947 Z"/>
 <path fill="rgb(12,50,44)" stroke="none" d="M 2714,3929 L 2714,4132 8955,4132 8955,3929 2714,3929 Z"/>
 <path fill="rgb(12,50,44)" stroke="none" d="M 2714,2911 L 2714,3114 10020,3114 10020,2911 2714,2911 Z"/>
 <path fill="rgb(12,50,44)" stroke="none" d="M 2714,1892 L 2714,2096 11011,2096 11011,1892 2714,1892 Z"/>
 <path fill="rgb(12,50,44)" stroke="none" d="M 2714,874 L 2714,1077 9166,1077 9166,874 2714,874 Z"/>
 <text class="SVGTextShape"><tspan class="TextParagraph" font-family="Liberation Sans, sans-serif" font-size="353px" font-weight="400"><tspan class="TextPosition" x="665" y="790"><tspan fill="rgb(0,0,0)" stroke="none">508.namd_r</tspan></tspan></tspan></text>
 <text class="SVGTextShape"><tspan class="TextParagraph" font-family="Liberation Sans, sans-serif" font-size="353px" font-weight="400"><tspan class="TextPosition" x="559" y="1808"><tspan fill="rgb(0,0,0)" stroke="none">510.parest_r</tspan></tspan></tspan></text>
 <text class="SVGTextShape"><tspan class="TextParagraph" font-family="Liberation Sans, sans-serif" font-size="353px" font-weight="400"><tspan class="TextPosition" x="480" y="2827"><tspan fill="rgb(0,0,0)" stroke="none">511.povray_r</tspan></tspan></tspan></text>
 <text class="SVGTextShape"><tspan class="TextParagraph" font-family="Liberation Sans, sans-serif" font-size="353px" font-weight="400"><tspan class="TextPosition" x="956" y="3846"><tspan fill="rgb(0,0,0)" stroke="none">519.lbm_r</tspan></tspan></tspan></text>
 <text class="SVGTextShape"><tspan class="TextParagraph" font-family="Liberation Sans, sans-serif" font-size="353px" font-weight="400"><tspan class="TextPosition" x="400" y="4864"><tspan fill="rgb(0,0,0)" stroke="none">526.blender_r</tspan></tspan></tspan></text>
 <text class="SVGTextShape"><tspan class="TextParagraph" font-family="Liberation Sans, sans-serif" font-size="353px" font-weight="400"><tspan class="TextPosition" x="321" y="5883"><tspan fill="rgb(0,0,0)" stroke="none">538.imagick_r</tspan></tspan></tspan></text>
 <text class="SVGTextShape"><tspan class="TextParagraph" font-family="Liberation Sans, sans-serif" font-size="353px" font-weight="400"><tspan class="TextPosition" x="956" y="6901"><tspan fill="rgb(0,0,0)" stroke="none">544.nab_r</tspan></tspan></tspan></text>
 <text class="SVGTextShape"><tspan class="TextParagraph" font-family="Liberation Sans, sans-serif" font-size="353px" font-weight="400"><tspan class="TextPosition" x="2462" y="7858"><tspan fill="rgb(0,0,0)" stroke="none">0%</tspan></tspan></tspan></text>
 <text class="SVGTextShape"><tspan class="TextParagraph" font-family="Liberation Sans, sans-serif" font-size="353px" font-weight="400"><tspan class="TextPosition" x="3715" y="7858"><tspan fill="rgb(0,0,0)" stroke="none">20%</tspan></tspan></tspan></text>
 <text class="SVGTextShape"><tspan class="TextParagraph" font-family="Liberation Sans, sans-serif" font-size="353px" font-weight="400"><tspan class="TextPosition" x="5061" y="7858"><tspan fill="rgb(0,0,0)" stroke="none">40%</tspan></tspan></tspan></text>
 <text class="SVGTextShape"><tspan class="TextParagraph" font-family="Liberation Sans, sans-serif" font-size="353px" font-weight="400"><tspan class="TextPosition" x="6406" y="7858"><tspan fill="rgb(0,0,0)" stroke="none">60%</tspan></tspan></tspan></text>
 <text class="SVGTextShape"><tspan class="TextParagraph" font-family="Liberation Sans, sans-serif" font-size="353px" font-weight="400"><tspan class="TextPosition" x="7752" y="7858"><tspan fill="rgb(0,0,0)" stroke="none">80%</tspan></tspan></tspan></text>
 <text class="SVGTextShape"><tspan class="TextParagraph" font-family="Liberation Sans, sans-serif" font-size="353px" font-weight="400"><tspan class="TextPosition" x="9004" y="7858"><tspan fill="rgb(0,0,0)" stroke="none">100%</tspan></tspan></tspan></text>
 <text class="SVGTextShape"><tspan class="TextParagraph" font-family="Liberation Sans, sans-serif" font-size="353px" font-weight="400"><tspan class="TextPosition" x="10350" y="7858"><tspan fill="rgb(0,0,0)" stroke="none">120%</tspan></tspan></tspan></text>
 <text class="SVGTextShape"><tspan class="TextParagraph" font-family="Liberation Sans, sans-serif" font-size="353px" font-weight="400"><tspan class="TextPosition" x="11696" y="7858"><tspan fill="rgb(0,0,0)" stroke="none">140%</tspan></tspan></tspan></text>
 <path fill="rgb(220,53,69)" stroke="none" d="M 13112,4901 L 13006,4901 13006,4690 13217,4690 13217,4901 13112,4901 Z"/>
 <path fill="rgb(255,158,2)" stroke="none" d="M 13112,4403 L 13006,4403 13006,4192 13217,4192 13217,4403 13112,4403 Z"/>
 <path fill="rgb(19,148,72)" stroke="none" d="M 13112,3906 L 13006,3906 13006,3695 13217,3695 13217,3906 13112,3906 Z"/>
 <path fill="rgb(12,50,44)" stroke="none" d="M 13112,3408 L 13006,3408 13006,3197 13217,3197 13217,3408 13112,3408 Z"/>
 <text class="SVGTextShape"><tspan class="TextParagraph" font-family="Liberation Sans, sans-serif" font-size="353px" font-weight="400"><tspan class="TextPosition" x="13317" y="3422"><tspan fill="rgb(0,0,0)" stroke="none">GCC (LTO)</tspan></tspan></tspan></text>
 <text class="SVGTextShape"><tspan class="TextParagraph" font-family="Liberation Sans, sans-serif" font-size="353px" font-weight="400"><tspan class="TextPosition" x="13317" y="3920"><tspan fill="rgb(0,0,0)" stroke="none">GCC</tspan></tspan></tspan></text>
 <text class="SVGTextShape"><tspan class="TextParagraph" font-family="Liberation Sans, sans-serif" font-size="353px" font-weight="400"><tspan class="TextPosition" x="13317" y="4417"><tspan fill="rgb(0,0,0)" stroke="none">LLVM 13 (LTO)</tspan></tspan></tspan></text>
 <text class="SVGTextShape"><tspan class="TextParagraph" font-family="Liberation Sans, sans-serif" font-size="353px" font-weight="400"><tspan class="TextPosition" x="13317" y="4915"><tspan fill="rgb(0,0,0)" stroke="none">LLVM 13</tspan></tspan></tspan></text>
</svg>