<?xml version="1.0" encoding="UTF-8"?>
<!DOCTYPE svg PUBLIC "-//W3C//DTD SVG 1.1//EN" "http://www.w3.org/Graphics/SVG/1.1/DTD/svg11.dtd">
<svg width="160mm" height="66mm" viewBox="0 0 16000 6600" version="1.1" xmlns="http://www.w3.org/2000/svg" xmlns:xlink="http://www.w3.org/1999/xlink" stroke-width="28.222" stroke-linejoin="round" xml:space="preserve">
 <path fill="rgb(255,255,255)" stroke="none" d="M 7987,6587 L -13,6587 -13,5 15987,5 15987,6587 7987,6587 Z"/>
 <path fill="none" stroke="rgb(179,179,179)" stroke-linejoin="round" d="M 7728,5810 L 3177,5810 3177,137 12278,137 12278,5810 7728,5810 Z"/>
 <path fill="none" stroke="rgb(179,179,179)" stroke-linejoin="round" d="M 3177,136 L 3177,5809"/>
 <path fill="none" stroke="rgb(179,179,179)" stroke-linejoin="round" d="M 4087,136 L 4087,5809"/>
 <path fill="none" stroke="rgb(179,179,179)" stroke-linejoin="round" d="M 4997,136 L 4997,5809"/>
 <path fill="none" stroke="rgb(179,179,179)" stroke-linejoin="round" d="M 5907,136 L 5907,5809"/>
 <path fill="none" stroke="rgb(179,179,179)" stroke-linejoin="round" d="M 6817,136 L 6817,5809"/>
 <path fill="none" stroke="rgb(179,179,179)" stroke-linejoin="round" d="M 7728,136 L 7728,5809"/>
 <path fill="none" stroke="rgb(179,179,179)" stroke-linejoin="round" d="M 8637,136 L 8637,5809"/>
 <path fill="none" stroke="rgb(179,179,179)" stroke-linejoin="round" d="M 9547,136 L 9547,5809"/>
 <path fill="none" stroke="rgb(179,179,179)" stroke-linejoin="round" d="M 10457,136 L 10457,5809"/>
 <path fill="none" stroke="rgb(179,179,179)" stroke-linejoin="round" d="M 11367,136 L 11367,5809"/>
 <path fill="none" stroke="rgb(179,179,179)" stroke-linejoin="round" d="M 12278,136 L 12278,5809"/>
 <path fill="none" stroke="rgb(179,179,179)" stroke-linejoin="round" d="M 3027,136 L 3177,136"/>
 <path fill="none" stroke="rgb(179,179,179)" stroke-linejoin="round" d="M 3027,136 L 3177,136"/>
 <path fill="none" stroke="rgb(179,179,179)" stroke-linejoin="round" d="M 3027,1271 L 3177,1271"/>
 <path fill="none" stroke="rgb(179,179,179)" stroke-linejoin="round" d="M 3027,1271 L 3177,1271"/>
 <path fill="none" stroke="rgb(179,179,179)" stroke-linejoin="round" d="M 3027,2405 L 3177,2405"/>
 <path fill="none" stroke="rgb(179,179,179)" stroke-linejoin="round" d="M 3027,2405 L 3177,2405"/>
 <path fill="none" stroke="rgb(179,179,179)" stroke-linejoin="round" d="M 3027,3540 L 3177,3540"/>
 <path fill="none" stroke="rgb(179,179,179)" stroke-linejoin="round" d="M 3027,3540 L 3177,3540"/>
 <path fill="none" stroke="rgb(179,179,179)" stroke-linejoin="round" d="M 3027,4675 L 3177,4675"/>
 <path fill="none" stroke="rgb(179,179,179)" stroke-linejoin="round" d="M 3027,4675 L 3177,4675"/>
 <path fill="none" stroke="rgb(179,179,179)" stroke-linejoin="round" d="M 3027,5809 L 3177,5809"/>
 <path fill="none" stroke="rgb(179,179,179)" stroke-linejoin="round" d="M 3027,5809 L 3177,5809"/>
 <path fill="none" stroke="rgb(179,179,179)" stroke-linejoin="round" d="M 3177,5809 L 3177,136"/>
 <path fill="none" stroke="rgb(179,179,179)" stroke-linejoin="round" d="M 3177,5959 L 3177,5809"/>
 <path fill="none" stroke="rgb(179,179,179)" stroke-linejoin="round" d="M 3177,-13 L 3177,136"/>
 <path fill="none" stroke="rgb(179,179,179)" stroke-linejoin="round" d="M 4087,5959 L 4087,5809"/>
 <path fill="none" stroke="rgb(179,179,179)" stroke-linejoin="round" d="M 4087,-13 L 4087,136"/>
 <path fill="none" stroke="rgb(179,179,179)" stroke-linejoin="round" d="M 4997,5959 L 4997,5809"/>
 <path fill="none" stroke="rgb(179,179,179)" stroke-linejoin="round" d="M 4997,-13 L 4997,136"/>
 <path fill="none" stroke="rgb(179,179,179)" stroke-linejoin="round" d="M 5907,5959 L 5907,5809"/>
 <path fill="none" stroke="rgb(179,179,179)" stroke-linejoin="round" d="M 5907,-13 L 5907,136"/>
 <path fill="none" stroke="rgb(179,179,179)" stroke-linejoin="round" d="M 6817,5959 L 6817,5809"/>
 <path fill="none" stroke="rgb(179,179,179)" stroke-linejoin="round" d="M 6817,-13 L 6817,136"/>
 <path fill="none" stroke="rgb(179,179,179)" stroke-linejoin="round" d="M 7728,5959 L 7728,5809"/>
 <path fill="none" stroke="rgb(179,179,179)" stroke-linejoin="round" d="M 7728,-13 L 7728,136"/>
 <path fill="none" stroke="rgb(179,179,179)" stroke-linejoin="round" d="M 8637,5959 L 8637,5809"/>
 <path fill="none" stroke="rgb(179,179,179)" stroke-linejoin="round" d="M 8637,-13 L 8637,136"/>
 <path fill="none" stroke="rgb(179,179,179)" stroke-linejoin="round" d="M 9547,5959 L 9547,5809"/>
 <path fill="none" stroke="rgb(179,179,179)" stroke-linejoin="round" d="M 9547,-13 L 9547,136"/>
 <path fill="none" stroke="rgb(179,179,179)" stroke-linejoin="round" d="M 10457,5959 L 10457,5809"/>
 <path fill="none" stroke="rgb(179,179,179)" stroke-linejoin="round" d="M 10457,-13 L 10457,136"/>
 <path fill="none" stroke="rgb(179,179,179)" stroke-linejoin="round" d="M 11367,5959 L 11367,5809"/>
 <path fill="none" stroke="rgb(179,179,179)" stroke-linejoin="round" d="M 11367,-13 L 11367,136"/>
 <path fill="none" stroke="rgb(179,179,179)" stroke-linejoin="round" d="M 12278,5959 L 12278,5809"/>
 <path fill="none" stroke="rgb(179,179,179)" stroke-linejoin="round" d="M 12278,-13 L 12278,136"/>
 <path fill="none" stroke="rgb(179,179,179)" stroke-linejoin="round" d="M 3177,136 L 12278,136"/>
 <path fill="rgb(220,53,69)" stroke="none" d="M 3177,249 L 3177,476 7728,476 7728,249 3177,249 Z"/>
 <path fill="rgb(220,53,69)" stroke="none" d="M 3177,1383 L 3177,1611 7728,1611 7728,1383 3177,1383 Z"/>
 <path fill="rgb(220,53,69)" stroke="none" d="M 3177,2518 L 3177,2745 7728,2745 7728,2518 3177,2518 Z"/>
 <path fill="rgb(220,53,69)" stroke="none" d="M 3177,3653 L 3177,3880 7728,3880 7728,3653 3177,3653 Z"/>
 <path fill="rgb(220,53,69)" stroke="none" d="M 3177,4787 L 3177,5015 7728,5015 7728,4787 3177,4787 Z"/>
 <path fill="rgb(255,158,2)" stroke="none" d="M 3177,476 L 3177,703 7678,703 7678,476 3177,476 Z"/>
 <path fill="rgb(255,158,2)" stroke="none" d="M 3177,1611 L 3177,1838 7694,1838 7694,1611 3177,1611 Z"/>
 <path fill="rgb(255,158,2)" stroke="none" d="M 3177,2745 L 3177,2973 8271,2973 8271,2745 3177,2745 Z"/>
 <path fill="rgb(255,158,2)" stroke="none" d="M 3177,3880 L 3177,4107 8294,4107 8294,3880 3177,3880 Z"/>
 <path fill="rgb(255,158,2)" stroke="none" d="M 3177,5015 L 3177,5242 7851,5242 7851,5015 3177,5015 Z"/>
 <path fill="rgb(12,50,44)" stroke="none" d="M 3177,703 L 3177,930 8305,930 8305,703 3177,703 Z"/>
 <path fill="rgb(12,50,44)" stroke="none" d="M 3177,1838 L 3177,2064 10712,2064 10712,1838 3177,1838 Z"/>
 <path fill="rgb(12,50,44)" stroke="none" d="M 3177,2973 L 3177,3199 8487,3199 8487,2973 3177,2973 Z"/>
 <path fill="rgb(12,50,44)" stroke="none" d="M 3177,4107 L 3177,4334 8085,4334 8085,4107 3177,4107 Z"/>
 <path fill="rgb(12,50,44)" stroke="none" d="M 3177,5242 L 3177,5468 11739,5468 11739,5242 3177,5242 Z"/>
 <path fill="rgb(19,148,72)" stroke="none" d="M 3177,930 L 3177,1157 8413,1157 8413,930 3177,930 Z"/>
 <path fill="rgb(19,148,72)" stroke="none" d="M 3177,2064 L 3177,2292 10692,2292 10692,2064 3177,2064 Z"/>
 <path fill="rgb(19,148,72)" stroke="none" d="M 3177,3199 L 3177,3426 9078,3426 9078,3199 3177,3199 Z"/>
 <path fill="rgb(19,148,72)" stroke="none" d="M 3177,4334 L 3177,4561 8573,4561 8573,4334 3177,4334 Z"/>
 <path fill="rgb(19,148,72)" stroke="none" d="M 3177,5468 L 3177,5696 11575,5696 11575,5468 3177,5468 Z"/>
 <text class="SVGTextShape"><tspan class="TextParagraph" font-family="Liberation Sans, sans-serif" font-size="353px" font-weight="400"><tspan class="TextPosition" x="652" y="823"><tspan font-size="352px" fill="rgb(0,0,0)" stroke="none" style="white-space: pre">520.omnetpp_r</tspan></tspan></tspan></text>
 <text class="SVGTextShape"><tspan class="TextParagraph" font-family="Liberation Sans, sans-serif" font-size="353px" font-weight="400"><tspan class="TextPosition" x="1234" y="1957"><tspan font-size="352px" fill="rgb(0,0,0)" stroke="none" style="white-space: pre">525.x264_r</tspan></tspan></tspan></text>
 <text class="SVGTextShape"><tspan class="TextParagraph" font-family="Liberation Sans, sans-serif" font-size="353px" font-weight="400"><tspan class="TextPosition" x="413" y="3092"><tspan font-size="352px" fill="rgb(0,0,0)" stroke="none" style="white-space: pre">531.deepsjeng_r</tspan></tspan></tspan></text>
 <text class="SVGTextShape"><tspan class="TextParagraph" font-family="Liberation Sans, sans-serif" font-size="353px" font-weight="400"><tspan class="TextPosition" x="1260" y="4227"><tspan font-size="352px" fill="rgb(0,0,0)" stroke="none" style="white-space: pre">541.leela_r</tspan></tspan></tspan></text>
 <text class="SVGTextShape"><tspan class="TextParagraph" font-family="Liberation Sans, sans-serif" font-size="353px" font-weight="400"><tspan class="TextPosition" x="308" y="5361"><tspan font-size="352px" fill="rgb(0,0,0)" stroke="none" style="white-space: pre">548.exchange2_r</tspan></tspan></tspan></text>
 <text class="SVGTextShape"><tspan class="TextParagraph" font-family="Liberation Sans, sans-serif" font-size="353px" font-weight="400"><tspan class="TextPosition" x="2925" y="6375"><tspan font-size="352px" fill="rgb(0,0,0)" stroke="none" style="white-space: pre">0%</tspan></tspan></tspan></text>
 <text class="SVGTextShape"><tspan class="TextParagraph" font-family="Liberation Sans, sans-serif" font-size="353px" font-weight="400"><tspan class="TextPosition" x="3743" y="6375"><tspan font-size="352px" fill="rgb(0,0,0)" stroke="none" style="white-space: pre">20%</tspan></tspan></tspan></text>
 <text class="SVGTextShape"><tspan class="TextParagraph" font-family="Liberation Sans, sans-serif" font-size="353px" font-weight="400"><tspan class="TextPosition" x="4653" y="6375"><tspan font-size="352px" fill="rgb(0,0,0)" stroke="none" style="white-space: pre">40%</tspan></tspan></tspan></text>
 <text class="SVGTextShape"><tspan class="TextParagraph" font-family="Liberation Sans, sans-serif" font-size="353px" font-weight="400"><tspan class="TextPosition" x="5563" y="6375"><tspan font-size="352px" fill="rgb(0,0,0)" stroke="none" style="white-space: pre">60%</tspan></tspan></tspan></text>
 <text class="SVGTextShape"><tspan class="TextParagraph" font-family="Liberation Sans, sans-serif" font-size="353px" font-weight="400"><tspan class="TextPosition" x="6473" y="6375"><tspan font-size="352px" fill="rgb(0,0,0)" stroke="none" style="white-space: pre">80%</tspan></tspan></tspan></text>
 <text class="SVGTextShape"><tspan class="TextParagraph" font-family="Liberation Sans, sans-serif" font-size="353px" font-weight="400"><tspan class="TextPosition" x="7291" y="6375"><tspan font-size="352px" fill="rgb(0,0,0)" stroke="none" style="white-space: pre">100%</tspan></tspan></tspan></text>
 <text class="SVGTextShape"><tspan class="TextParagraph" font-family="Liberation Sans, sans-serif" font-size="353px" font-weight="400"><tspan class="TextPosition" x="8200" y="6375"><tspan font-size="352px" fill="rgb(0,0,0)" stroke="none" style="white-space: pre">120%</tspan></tspan></tspan></text>
 <text class="SVGTextShape"><tspan class="TextParagraph" font-family="Liberation Sans, sans-serif" font-size="353px" font-weight="400"><tspan class="TextPosition" x="9110" y="6375"><tspan font-size="352px" fill="rgb(0,0,0)" stroke="none" style="white-space: pre">140%</tspan></tspan></tspan></text>
 <text class="SVGTextShape"><tspan class="TextParagraph" font-family="Liberation Sans, sans-serif" font-size="353px" font-weight="400"><tspan class="TextPosition" x="10020" y="6375"><tspan font-size="352px" fill="rgb(0,0,0)" stroke="none" style="white-space: pre">160%</tspan></tspan></tspan></text>
 <text class="SVGTextShape"><tspan class="TextParagraph" font-family="Liberation Sans, sans-serif" font-size="353px" font-weight="400"><tspan class="TextPosition" x="10930" y="6375"><tspan font-size="352px" fill="rgb(0,0,0)" stroke="none" style="white-space: pre">180%</tspan></tspan></tspan></text>
 <text class="SVGTextShape"><tspan class="TextParagraph" font-family="Liberation Sans, sans-serif" font-size="353px" font-weight="400"><tspan class="TextPosition" x="11841" y="6375"><tspan font-size="352px" fill="rgb(0,0,0)" stroke="none" style="white-space: pre">200%</tspan></tspan></tspan></text>
 <path fill="rgb(220,53,69)" stroke="none" d="M 13258,4145 L 13152,4145 13152,3935 13363,3935 13363,4145 13258,4145 Z"/>
 <path fill="rgb(255,158,2)" stroke="none" d="M 13258,3649 L 13152,3649 13152,3438 13363,3438 13363,3649 13258,3649 Z"/>
 <path fill="rgb(12,50,44)" stroke="none" d="M 13258,3152 L 13152,3152 13152,2942 13363,2942 13363,3152 13258,3152 Z"/>
 <path fill="rgb(19,148,72)" stroke="none" d="M 13258,2656 L 13152,2656 13152,2445 13363,2445 13363,2656 13258,2656 Z"/>
 <text class="SVGTextShape"><tspan class="TextParagraph" font-family="Liberation Sans, sans-serif" font-size="353px" font-weight="400"><tspan class="TextPosition" x="13463" y="2669"><tspan font-size="352px" fill="rgb(0,0,0)" stroke="none" style="white-space: pre">GCC 11 (LTO)</tspan></tspan></tspan></text>
 <text class="SVGTextShape"><tspan class="TextParagraph" font-family="Liberation Sans, sans-serif" font-size="353px" font-weight="400"><tspan class="TextPosition" x="13463" y="3166"><tspan font-size="352px" fill="rgb(0,0,0)" stroke="none" style="white-space: pre">GCC 11</tspan></tspan></tspan></text>
 <text class="SVGTextShape"><tspan class="TextParagraph" font-family="Liberation Sans, sans-serif" font-size="353px" font-weight="400"><tspan class="TextPosition" x="13463" y="3662"><tspan font-size="352px" fill="rgb(0,0,0)" stroke="none" style="white-space: pre">GCC 7 (LTO)</tspan></tspan></tspan></text>
 <text class="SVGTextShape"><tspan class="TextParagraph" font-family="Liberation Sans, sans-serif" font-size="353px" font-weight="400"><tspan class="TextPosition" x="13463" y="4159"><tspan font-size="352px" fill="rgb(0,0,0)" stroke="none" style="white-space: pre">GCC 7</tspan></tspan></tspan></text>
</svg>