<?xml version="1.0" encoding="UTF-8"?>
<!DOCTYPE svg PUBLIC "-//W3C//DTD SVG 1.1//EN" "http://www.w3.org/Graphics/SVG/1.1/DTD/svg11.dtd">
<svg width="160mm" height="55mm" viewBox="0 0 16000 5500" version="1.1" xmlns="http://www.w3.org/2000/svg" xmlns:xlink="http://www.w3.org/1999/xlink" stroke-width="28.222" stroke-linejoin="round" xml:space="preserve">
 <path fill="rgb(255,255,255)" stroke="none" d="M 8000,5451 L 0,5451 0,42 16000,42 16000,5451 8000,5451 Z"/>
 <path fill="none" stroke="rgb(179,179,179)" stroke-linejoin="round" d="M 7424,4702 L 2688,4702 2688,150 12159,150 12159,4702 7424,4702 Z"/>
 <path fill="none" stroke="rgb(179,179,179)" stroke-linejoin="round" d="M 2688,148 L 2688,4700"/>
 <path fill="none" stroke="rgb(179,179,179)" stroke-linejoin="round" d="M 3740,148 L 3740,4700"/>
 <path fill="none" stroke="rgb(179,179,179)" stroke-linejoin="round" d="M 4792,148 L 4792,4700"/>
 <path fill="none" stroke="rgb(179,179,179)" stroke-linejoin="round" d="M 5845,148 L 5845,4700"/>
 <path fill="none" stroke="rgb(179,179,179)" stroke-linejoin="round" d="M 6897,148 L 6897,4700"/>
 <path fill="none" stroke="rgb(179,179,179)" stroke-linejoin="round" d="M 7950,148 L 7950,4700"/>
 <path fill="none" stroke="rgb(179,179,179)" stroke-linejoin="round" d="M 9001,148 L 9001,4700"/>
 <path fill="none" stroke="rgb(179,179,179)" stroke-linejoin="round" d="M 10054,148 L 10054,4700"/>
 <path fill="none" stroke="rgb(179,179,179)" stroke-linejoin="round" d="M 11106,148 L 11106,4700"/>
 <path fill="none" stroke="rgb(179,179,179)" stroke-linejoin="round" d="M 12159,148 L 12159,4700"/>
 <path fill="none" stroke="rgb(179,179,179)" stroke-linejoin="round" d="M 2538,149 L 2688,149"/>
 <path fill="none" stroke="rgb(179,179,179)" stroke-linejoin="round" d="M 2538,149 L 2688,149"/>
 <path fill="none" stroke="rgb(179,179,179)" stroke-linejoin="round" d="M 2538,907 L 2688,907"/>
 <path fill="none" stroke="rgb(179,179,179)" stroke-linejoin="round" d="M 2538,907 L 2688,907"/>
 <path fill="none" stroke="rgb(179,179,179)" stroke-linejoin="round" d="M 2538,1666 L 2688,1666"/>
 <path fill="none" stroke="rgb(179,179,179)" stroke-linejoin="round" d="M 2538,1666 L 2688,1666"/>
 <path fill="none" stroke="rgb(179,179,179)" stroke-linejoin="round" d="M 2538,2424 L 2688,2424"/>
 <path fill="none" stroke="rgb(179,179,179)" stroke-linejoin="round" d="M 2538,2424 L 2688,2424"/>
 <path fill="none" stroke="rgb(179,179,179)" stroke-linejoin="round" d="M 2538,3183 L 2688,3183"/>
 <path fill="none" stroke="rgb(179,179,179)" stroke-linejoin="round" d="M 2538,3183 L 2688,3183"/>
 <path fill="none" stroke="rgb(179,179,179)" stroke-linejoin="round" d="M 2538,3942 L 2688,3942"/>
 <path fill="none" stroke="rgb(179,179,179)" stroke-linejoin="round" d="M 2538,3942 L 2688,3942"/>
 <path fill="none" stroke="rgb(179,179,179)" stroke-linejoin="round" d="M 2538,4700 L 2688,4700"/>
 <path fill="none" stroke="rgb(179,179,179)" stroke-linejoin="round" d="M 2538,4700 L 2688,4700"/>
 <path fill="none" stroke="rgb(179,179,179)" stroke-linejoin="round" d="M 2688,4700 L 2688,148"/>
 <path fill="none" stroke="rgb(179,179,179)" stroke-linejoin="round" d="M 2688,4849 L 2688,4700"/>
 <path fill="none" stroke="rgb(179,179,179)" stroke-linejoin="round" d="M 2688,0 L 2688,148"/>
 <path fill="none" stroke="rgb(179,179,179)" stroke-linejoin="round" d="M 3740,4849 L 3740,4700"/>
 <path fill="none" stroke="rgb(179,179,179)" stroke-linejoin="round" d="M 3740,0 L 3740,148"/>
 <path fill="none" stroke="rgb(179,179,179)" stroke-linejoin="round" d="M 4792,4849 L 4792,4700"/>
 <path fill="none" stroke="rgb(179,179,179)" stroke-linejoin="round" d="M 4792,0 L 4792,148"/>
 <path fill="none" stroke="rgb(179,179,179)" stroke-linejoin="round" d="M 5845,4849 L 5845,4700"/>
 <path fill="none" stroke="rgb(179,179,179)" stroke-linejoin="round" d="M 5845,0 L 5845,148"/>
 <path fill="none" stroke="rgb(179,179,179)" stroke-linejoin="round" d="M 6897,4849 L 6897,4700"/>
 <path fill="none" stroke="rgb(179,179,179)" stroke-linejoin="round" d="M 6897,0 L 6897,148"/>
 <path fill="none" stroke="rgb(179,179,179)" stroke-linejoin="round" d="M 7950,4849 L 7950,4700"/>
 <path fill="none" stroke="rgb(179,179,179)" stroke-linejoin="round" d="M 7950,0 L 7950,148"/>
 <path fill="none" stroke="rgb(179,179,179)" stroke-linejoin="round" d="M 9001,4849 L 9001,4700"/>
 <path fill="none" stroke="rgb(179,179,179)" stroke-linejoin="round" d="M 9001,0 L 9001,148"/>
 <path fill="none" stroke="rgb(179,179,179)" stroke-linejoin="round" d="M 10054,4849 L 10054,4700"/>
 <path fill="none" stroke="rgb(179,179,179)" stroke-linejoin="round" d="M 10054,0 L 10054,148"/>
 <path fill="none" stroke="rgb(179,179,179)" stroke-linejoin="round" d="M 11106,4849 L 11106,4700"/>
 <path fill="none" stroke="rgb(179,179,179)" stroke-linejoin="round" d="M 11106,0 L 11106,148"/>
 <path fill="none" stroke="rgb(179,179,179)" stroke-linejoin="round" d="M 12159,4849 L 12159,4700"/>
 <path fill="none" stroke="rgb(179,179,179)" stroke-linejoin="round" d="M 12159,0 L 12159,148"/>
 <path fill="none" stroke="rgb(179,179,179)" stroke-linejoin="round" d="M 2688,148 L 12159,148"/>
 <path fill="rgb(220,53,69)" stroke="none" d="M 2688,4068 L 2688,4321 7950,4321 7950,4068 2688,4068 Z"/>
 <path fill="rgb(220,53,69)" stroke="none" d="M 2688,3310 L 2688,3563 7950,3563 7950,3310 2688,3310 Z"/>
 <path fill="rgb(220,53,69)" stroke="none" d="M 2688,2551 L 2688,2804 7950,2804 7950,2551 2688,2551 Z"/>
 <path fill="rgb(220,53,69)" stroke="none" d="M 2688,1792 L 2688,2045 7950,2045 7950,1792 2688,1792 Z"/>
 <path fill="rgb(220,53,69)" stroke="none" d="M 2688,1034 L 2688,1286 7950,1286 7950,1034 2688,1034 Z"/>
 <path fill="rgb(220,53,69)" stroke="none" d="M 2688,275 L 2688,528 7950,528 7950,275 2688,275 Z"/>
 <path fill="rgb(12,50,44)" stroke="none" d="M 2688,4321 L 2688,4574 8255,4574 8255,4321 2688,4321 Z"/>
 <path fill="rgb(12,50,44)" stroke="none" d="M 2688,3562 L 2688,3815 8719,3815 8719,3562 2688,3562 Z"/>
 <path fill="rgb(12,50,44)" stroke="none" d="M 2688,2804 L 2688,3057 8524,3057 8524,2804 2688,2804 Z"/>
 <path fill="rgb(12,50,44)" stroke="none" d="M 2688,2045 L 2688,2298 8837,2298 8837,2045 2688,2045 Z"/>
 <path fill="rgb(12,50,44)" stroke="none" d="M 2688,1286 L 2688,1539 8172,1539 8172,1286 2688,1286 Z"/>
 <path fill="rgb(12,50,44)" stroke="none" d="M 2688,528 L 2688,781 10712,781 10712,528 2688,528 Z"/>
 <text class="SVGTextShape"><tspan class="TextParagraph" font-family="Liberation Sans, sans-serif" font-size="350px" font-weight="400"><tspan class="TextPosition" x="321" y="648"><tspan fill="rgb(0,0,0)" stroke="none">503.bwaves_r</tspan></tspan></tspan></text>
 <text class="SVGTextShape"><tspan class="TextParagraph" font-family="Liberation Sans, sans-serif" font-size="350px" font-weight="400"><tspan class="TextPosition" x="533" y="1407"><tspan fill="rgb(0,0,0)" stroke="none">510.parest_r</tspan></tspan></tspan></text>
 <text class="SVGTextShape"><tspan class="TextParagraph" font-family="Liberation Sans, sans-serif" font-size="350px" font-weight="400"><tspan class="TextPosition" x="930" y="2165"><tspan fill="rgb(0,0,0)" stroke="none">519.lbm_r</tspan></tspan></tspan></text>
 <text class="SVGTextShape"><tspan class="TextParagraph" font-family="Liberation Sans, sans-serif" font-size="350px" font-weight="400"><tspan class="TextPosition" x="1036" y="2924"><tspan fill="rgb(0,0,0)" stroke="none">521.wrf_r</tspan></tspan></tspan></text>
 <text class="SVGTextShape"><tspan class="TextParagraph" font-family="Liberation Sans, sans-serif" font-size="350px" font-weight="400"><tspan class="TextPosition" x="930" y="3682"><tspan fill="rgb(0,0,0)" stroke="none">544.nab_r</tspan></tspan></tspan></text>
 <text class="SVGTextShape"><tspan class="TextParagraph" font-family="Liberation Sans, sans-serif" font-size="350px" font-weight="400"><tspan class="TextPosition" x="718" y="4441"><tspan fill="rgb(0,0,0)" stroke="none">554.roms_r</tspan></tspan></tspan></text>
 <text class="SVGTextShape"><tspan class="TextParagraph" font-family="Liberation Sans, sans-serif" font-size="350px" font-weight="400"><tspan class="TextPosition" x="2436" y="5263"><tspan fill="rgb(0,0,0)" stroke="none">0%</tspan></tspan></tspan></text>
 <text class="SVGTextShape"><tspan class="TextParagraph" font-family="Liberation Sans, sans-serif" font-size="350px" font-weight="400"><tspan class="TextPosition" x="3396" y="5263"><tspan fill="rgb(0,0,0)" stroke="none">20%</tspan></tspan></tspan></text>
 <text class="SVGTextShape"><tspan class="TextParagraph" font-family="Liberation Sans, sans-serif" font-size="350px" font-weight="400"><tspan class="TextPosition" x="4448" y="5263"><tspan fill="rgb(0,0,0)" stroke="none">40%</tspan></tspan></tspan></text>
 <text class="SVGTextShape"><tspan class="TextParagraph" font-family="Liberation Sans, sans-serif" font-size="350px" font-weight="400"><tspan class="TextPosition" x="5501" y="5263"><tspan fill="rgb(0,0,0)" stroke="none">60%</tspan></tspan></tspan></text>
 <text class="SVGTextShape"><tspan class="TextParagraph" font-family="Liberation Sans, sans-serif" font-size="350px" font-weight="400"><tspan class="TextPosition" x="6553" y="5263"><tspan fill="rgb(0,0,0)" stroke="none">80%</tspan></tspan></tspan></text>
 <text class="SVGTextShape"><tspan class="TextParagraph" font-family="Liberation Sans, sans-serif" font-size="350px" font-weight="400"><tspan class="TextPosition" x="7513" y="5263"><tspan fill="rgb(0,0,0)" stroke="none">100%</tspan></tspan></tspan></text>
 <text class="SVGTextShape"><tspan class="TextParagraph" font-family="Liberation Sans, sans-serif" font-size="350px" font-weight="400"><tspan class="TextPosition" x="8565" y="5263"><tspan fill="rgb(0,0,0)" stroke="none">120%</tspan></tspan></tspan></text>
 <text class="SVGTextShape"><tspan class="TextParagraph" font-family="Liberation Sans, sans-serif" font-size="350px" font-weight="400"><tspan class="TextPosition" x="9618" y="5263"><tspan fill="rgb(0,0,0)" stroke="none">140%</tspan></tspan></tspan></text>
 <text class="SVGTextShape"><tspan class="TextParagraph" font-family="Liberation Sans, sans-serif" font-size="350px" font-weight="400"><tspan class="TextPosition" x="10670" y="5263"><tspan fill="rgb(0,0,0)" stroke="none">160%</tspan></tspan></tspan></text>
 <text class="SVGTextShape"><tspan class="TextParagraph" font-family="Liberation Sans, sans-serif" font-size="350px" font-weight="400"><tspan class="TextPosition" x="11723" y="5263"><tspan fill="rgb(0,0,0)" stroke="none">180%</tspan></tspan></tspan></text>
 <path fill="rgb(220,53,69)" stroke="none" d="M 13139,3098 L 13033,3098 13033,2888 13244,2888 13244,3098 13139,3098 Z"/>
 <path fill="rgb(12,50,44)" stroke="none" d="M 13139,2604 L 13033,2604 13033,2394 13244,2394 13244,2604 13139,2604 Z"/>
 <text class="SVGTextShape"><tspan class="TextParagraph" font-family="Liberation Sans, sans-serif" font-size="350px" font-weight="400"><tspan class="TextPosition" x="13344" y="2618"><tspan fill="rgb(0,0,0)" stroke="none">-O3 -ffast-math</tspan></tspan></tspan></text>
 <text class="SVGTextShape"><tspan class="TextParagraph" font-family="Liberation Sans, sans-serif" font-size="350px" font-weight="400"><tspan class="TextPosition" x="13344" y="3112"><tspan fill="rgb(0,0,0)" stroke="none">Plain -O3</tspan></tspan></tspan></text>
</svg>