<?xml version="1.0" encoding="UTF-8"?>
<!DOCTYPE svg PUBLIC "-//W3C//DTD SVG 1.1//EN" "http://www.w3.org/Graphics/SVG/1.1/DTD/svg11.dtd">
<svg width="160mm" height="65mm" viewBox="0 0 16000 6500" version="1.1" xmlns="http://www.w3.org/2000/svg" xmlns:xlink="http://www.w3.org/1999/xlink" stroke-width="28.222" stroke-linejoin="round" xml:space="preserve">
 <path fill="rgb(255,255,255)" stroke="none" d="M 8000,6500 L 0,6500 0,0 16000,0 16000,6500 8000,6500 Z"/>
 <path fill="none" stroke="rgb(179,179,179)" stroke-linejoin="round" d="M 9110,5723 L 2979,5723 2979,1411 15242,1411 15242,5723 9110,5723 Z"/>
 <path fill="none" stroke="rgb(179,179,179)" stroke-linejoin="round" d="M 2979,1410 L 2979,5722"/>
 <path fill="none" stroke="rgb(179,179,179)" stroke-linejoin="round" d="M 4512,1410 L 4512,5722"/>
 <path fill="none" stroke="rgb(179,179,179)" stroke-linejoin="round" d="M 6045,1410 L 6045,5722"/>
 <path fill="none" stroke="rgb(179,179,179)" stroke-linejoin="round" d="M 7578,1410 L 7578,5722"/>
 <path fill="none" stroke="rgb(179,179,179)" stroke-linejoin="round" d="M 9110,1410 L 9110,5722"/>
 <path fill="none" stroke="rgb(179,179,179)" stroke-linejoin="round" d="M 10643,1410 L 10643,5722"/>
 <path fill="none" stroke="rgb(179,179,179)" stroke-linejoin="round" d="M 12176,1410 L 12176,5722"/>
 <path fill="none" stroke="rgb(179,179,179)" stroke-linejoin="round" d="M 13709,1410 L 13709,5722"/>
 <path fill="none" stroke="rgb(179,179,179)" stroke-linejoin="round" d="M 15242,1410 L 15242,5722"/>
 <path fill="none" stroke="rgb(179,179,179)" stroke-linejoin="round" d="M 2829,5722 L 2979,5722"/>
 <path fill="none" stroke="rgb(179,179,179)" stroke-linejoin="round" d="M 2829,5722 L 2979,5722"/>
 <path fill="none" stroke="rgb(179,179,179)" stroke-linejoin="round" d="M 2829,4284 L 2979,4284"/>
 <path fill="none" stroke="rgb(179,179,179)" stroke-linejoin="round" d="M 2829,4284 L 2979,4284"/>
 <path fill="none" stroke="rgb(179,179,179)" stroke-linejoin="round" d="M 2829,2847 L 2979,2847"/>
 <path fill="none" stroke="rgb(179,179,179)" stroke-linejoin="round" d="M 2829,2847 L 2979,2847"/>
 <path fill="none" stroke="rgb(179,179,179)" stroke-linejoin="round" d="M 2829,1410 L 2979,1410"/>
 <path fill="none" stroke="rgb(179,179,179)" stroke-linejoin="round" d="M 2829,1410 L 2979,1410"/>
 <path fill="none" stroke="rgb(179,179,179)" stroke-linejoin="round" d="M 2979,5722 L 2979,1410"/>
 <path fill="none" stroke="rgb(179,179,179)" stroke-linejoin="round" d="M 2979,5872 L 2979,5722"/>
 <path fill="none" stroke="rgb(179,179,179)" stroke-linejoin="round" d="M 2979,5872 L 2979,5722"/>
 <path fill="none" stroke="rgb(179,179,179)" stroke-linejoin="round" d="M 4512,5872 L 4512,5722"/>
 <path fill="none" stroke="rgb(179,179,179)" stroke-linejoin="round" d="M 4512,5872 L 4512,5722"/>
 <path fill="none" stroke="rgb(179,179,179)" stroke-linejoin="round" d="M 6045,5872 L 6045,5722"/>
 <path fill="none" stroke="rgb(179,179,179)" stroke-linejoin="round" d="M 6045,5872 L 6045,5722"/>
 <path fill="none" stroke="rgb(179,179,179)" stroke-linejoin="round" d="M 7578,5872 L 7578,5722"/>
 <path fill="none" stroke="rgb(179,179,179)" stroke-linejoin="round" d="M 7578,5872 L 7578,5722"/>
 <path fill="none" stroke="rgb(179,179,179)" stroke-linejoin="round" d="M 9110,5872 L 9110,5722"/>
 <path fill="none" stroke="rgb(179,179,179)" stroke-linejoin="round" d="M 9110,5872 L 9110,5722"/>
 <path fill="none" stroke="rgb(179,179,179)" stroke-linejoin="round" d="M 10643,5872 L 10643,5722"/>
 <path fill="none" stroke="rgb(179,179,179)" stroke-linejoin="round" d="M 10643,5872 L 10643,5722"/>
 <path fill="none" stroke="rgb(179,179,179)" stroke-linejoin="round" d="M 12176,5872 L 12176,5722"/>
 <path fill="none" stroke="rgb(179,179,179)" stroke-linejoin="round" d="M 12176,5872 L 12176,5722"/>
 <path fill="none" stroke="rgb(179,179,179)" stroke-linejoin="round" d="M 13709,5872 L 13709,5722"/>
 <path fill="none" stroke="rgb(179,179,179)" stroke-linejoin="round" d="M 13709,5872 L 13709,5722"/>
 <path fill="none" stroke="rgb(179,179,179)" stroke-linejoin="round" d="M 15242,5872 L 15242,5722"/>
 <path fill="none" stroke="rgb(179,179,179)" stroke-linejoin="round" d="M 15242,5872 L 15242,5722"/>
 <path fill="none" stroke="rgb(179,179,179)" stroke-linejoin="round" d="M 2979,5722 L 15242,5722"/>
 <path fill="rgb(0,138,207)" stroke="none" d="M 2979,2667 L 2979,2308 11931,2308 11931,2667 2979,2667 Z"/>
 <path fill="rgb(0,138,207)" stroke="none" d="M 2979,4104 L 2979,3745 14475,3745 14475,4104 2979,4104 Z"/>
 <path fill="rgb(0,138,207)" stroke="none" d="M 2979,5542 L 2979,5182 12733,5182 12733,5542 2979,5542 Z"/>
 <path fill="rgb(220,53,69)" stroke="none" d="M 2979,2308 L 2979,1949 11827,1949 11827,2308 2979,2308 Z"/>
 <path fill="rgb(220,53,69)" stroke="none" d="M 2979,3745 L 2979,3385 13430,3385 13430,3745 2979,3745 Z"/>
 <path fill="rgb(220,53,69)" stroke="none" d="M 2979,5182 L 2979,4823 12691,4823 12691,5182 2979,5182 Z"/>
 <path fill="rgb(126,0,33)" stroke="none" d="M 2979,1949 L 2979,1589 10643,1589 10643,1949 2979,1949 Z"/>
 <path fill="rgb(126,0,33)" stroke="none" d="M 2979,3385 L 2979,3027 10643,3027 10643,3385 2979,3385 Z"/>
 <path fill="rgb(126,0,33)" stroke="none" d="M 2979,4823 L 2979,4464 10643,4464 10643,4823 2979,4823 Z"/>
 <text class="TextShape"><tspan class="TextParagraph" font-family="Liberation Sans, sans-serif" font-size="353px" font-weight="400"><tspan class="TextPosition" x="1168" y="5124"><tspan fill="rgb(0,0,0)" stroke="none">singletons</tspan></tspan></tspan></text>
 <text class="TextShape"><tspan class="TextParagraph" font-family="Liberation Sans, sans-serif" font-size="353px" font-weight="400"><tspan class="TextPosition" x="321" y="3686"><tspan fill="rgb(0,0,0)" stroke="none">responsiveness</tspan></tspan></tspan></text>
 <text class="TextShape"><tspan class="TextParagraph" font-family="Liberation Sans, sans-serif" font-size="353px" font-weight="400"><tspan class="TextPosition" x="2068" y="2248"><tspan fill="rgb(0,0,0)" stroke="none">tp5o</tspan></tspan></tspan></text>
 <text class="TextShape"><tspan class="TextParagraph" font-family="Liberation Sans, sans-serif" font-size="353px" font-weight="400"><tspan class="TextPosition" x="2727" y="6290"><tspan fill="rgb(0,0,0)" stroke="none">0%</tspan></tspan></tspan></text>
 <text class="TextShape"><tspan class="TextParagraph" font-family="Liberation Sans, sans-serif" font-size="353px" font-weight="400"><tspan class="TextPosition" x="4168" y="6290"><tspan fill="rgb(0,0,0)" stroke="none">20%</tspan></tspan></tspan></text>
 <text class="TextShape"><tspan class="TextParagraph" font-family="Liberation Sans, sans-serif" font-size="353px" font-weight="400"><tspan class="TextPosition" x="5701" y="6290"><tspan fill="rgb(0,0,0)" stroke="none">40%</tspan></tspan></tspan></text>
 <text class="TextShape"><tspan class="TextParagraph" font-family="Liberation Sans, sans-serif" font-size="353px" font-weight="400"><tspan class="TextPosition" x="7234" y="6290"><tspan fill="rgb(0,0,0)" stroke="none">60%</tspan></tspan></tspan></text>
 <text class="TextShape"><tspan class="TextParagraph" font-family="Liberation Sans, sans-serif" font-size="353px" font-weight="400"><tspan class="TextPosition" x="8767" y="6290"><tspan fill="rgb(0,0,0)" stroke="none">80%</tspan></tspan></tspan></text>
 <text class="TextShape"><tspan class="TextParagraph" font-family="Liberation Sans, sans-serif" font-size="353px" font-weight="400"><tspan class="TextPosition" x="10207" y="6290"><tspan fill="rgb(0,0,0)" stroke="none">100%</tspan></tspan></tspan></text>
 <text class="TextShape"><tspan class="TextParagraph" font-family="Liberation Sans, sans-serif" font-size="353px" font-weight="400"><tspan class="TextPosition" x="11740" y="6290"><tspan fill="rgb(0,0,0)" stroke="none">120%</tspan></tspan></tspan></text>
 <text class="TextShape"><tspan class="TextParagraph" font-family="Liberation Sans, sans-serif" font-size="353px" font-weight="400"><tspan class="TextPosition" x="13273" y="6290"><tspan fill="rgb(0,0,0)" stroke="none">140%</tspan></tspan></tspan></text>
 <text class="TextShape"><tspan class="TextParagraph" font-family="Liberation Sans, sans-serif" font-size="353px" font-weight="400"><tspan class="TextPosition" x="14806" y="6290"><tspan fill="rgb(0,0,0)" stroke="none">160%</tspan></tspan></tspan></text>
 <path fill="rgb(0,138,207)" stroke="none" d="M 2993,1087 L 2888,1087 2888,876 3099,876 3099,1087 2993,1087 Z"/>
 <path fill="rgb(220,53,69)" stroke="none" d="M 9147,589 L 9041,589 9041,378 9252,378 9252,589 9147,589 Z"/>
 <path fill="rgb(126,0,33)" stroke="none" d="M 2993,589 L 2888,589 2888,378 3099,378 3099,589 2993,589 Z"/>
 <text class="TextShape"><tspan class="TextParagraph" font-family="Liberation Sans, sans-serif" font-size="353px" font-weight="400"><tspan class="TextPosition" x="3199" y="603"><tspan fill="rgb(0,0,0)" stroke="none">Clang -O3</tspan></tspan></tspan></text>
 <text class="TextShape"><tspan class="TextParagraph" font-family="Liberation Sans, sans-serif" font-size="353px" font-weight="400"><tspan class="TextPosition" x="9352" y="603"><tspan fill="rgb(0,0,0)" stroke="none">Clang default FF options</tspan></tspan></tspan></text>
 <text class="TextShape"><tspan class="TextParagraph" font-family="Liberation Sans, sans-serif" font-size="353px" font-weight="400"><tspan class="TextPosition" x="3199" y="1101"><tspan fill="rgb(0,0,0)" stroke="none">GCC -O3 (LTO+PGO + extra param)</tspan></tspan></tspan></text>
</svg>