<?xml version="1.0" encoding="UTF-8"?>
<!DOCTYPE svg PUBLIC "-//W3C//DTD SVG 1.1//EN" "http://www.w3.org/Graphics/SVG/1.1/DTD/svg11.dtd">
<svg width="160mm" height="117mm" viewBox="0 0 16000 11700" version="1.1" xmlns="http://www.w3.org/2000/svg" xmlns:xlink="http://www.w3.org/1999/xlink" stroke-width="28.222" stroke-linejoin="round" xml:space="preserve">
 <path fill="rgb(255,255,255)" stroke="none" d="M 7987,11687 L -13,11687 -13,-13 15987,-13 15987,11687 7987,11687 Z"/>
 <path fill="none" stroke="rgb(179,179,179)" stroke-linejoin="round" d="M 7947,10807 L 3137,10807 3137,221 12757,221 12757,10807 7947,10807 Z"/>
 <path fill="none" stroke="rgb(179,179,179)" stroke-linejoin="round" d="M 12757,220 L 12757,10806"/>
 <path fill="none" stroke="rgb(179,179,179)" stroke-linejoin="round" d="M 11153,220 L 11153,10806"/>
 <path fill="none" stroke="rgb(179,179,179)" stroke-linejoin="round" d="M 9550,220 L 9550,10806"/>
 <path fill="none" stroke="rgb(179,179,179)" stroke-linejoin="round" d="M 7947,220 L 7947,10806"/>
 <path fill="none" stroke="rgb(179,179,179)" stroke-linejoin="round" d="M 6344,220 L 6344,10806"/>
 <path fill="none" stroke="rgb(179,179,179)" stroke-linejoin="round" d="M 4740,220 L 4740,10806"/>
 <path fill="none" stroke="rgb(179,179,179)" stroke-linejoin="round" d="M 3136,220 L 3136,10806"/>
 <path fill="none" stroke="rgb(179,179,179)" stroke-linejoin="round" d="M 12907,220 L 12757,220"/>
 <path fill="none" stroke="rgb(179,179,179)" stroke-linejoin="round" d="M 12907,220 L 12757,220"/>
 <path fill="none" stroke="rgb(179,179,179)" stroke-linejoin="round" d="M 12907,1278 L 12757,1278"/>
 <path fill="none" stroke="rgb(179,179,179)" stroke-linejoin="round" d="M 12907,1278 L 12757,1278"/>
 <path fill="none" stroke="rgb(179,179,179)" stroke-linejoin="round" d="M 12907,2337 L 12757,2337"/>
 <path fill="none" stroke="rgb(179,179,179)" stroke-linejoin="round" d="M 12907,2337 L 12757,2337"/>
 <path fill="none" stroke="rgb(179,179,179)" stroke-linejoin="round" d="M 12907,3396 L 12757,3396"/>
 <path fill="none" stroke="rgb(179,179,179)" stroke-linejoin="round" d="M 12907,3396 L 12757,3396"/>
 <path fill="none" stroke="rgb(179,179,179)" stroke-linejoin="round" d="M 12907,4454 L 12757,4454"/>
 <path fill="none" stroke="rgb(179,179,179)" stroke-linejoin="round" d="M 12907,4454 L 12757,4454"/>
 <path fill="none" stroke="rgb(179,179,179)" stroke-linejoin="round" d="M 12907,5513 L 12757,5513"/>
 <path fill="none" stroke="rgb(179,179,179)" stroke-linejoin="round" d="M 12907,5513 L 12757,5513"/>
 <path fill="none" stroke="rgb(179,179,179)" stroke-linejoin="round" d="M 12907,6571 L 12757,6571"/>
 <path fill="none" stroke="rgb(179,179,179)" stroke-linejoin="round" d="M 12907,6571 L 12757,6571"/>
 <path fill="none" stroke="rgb(179,179,179)" stroke-linejoin="round" d="M 12907,7629 L 12757,7629"/>
 <path fill="none" stroke="rgb(179,179,179)" stroke-linejoin="round" d="M 12907,7629 L 12757,7629"/>
 <path fill="none" stroke="rgb(179,179,179)" stroke-linejoin="round" d="M 12907,8688 L 12757,8688"/>
 <path fill="none" stroke="rgb(179,179,179)" stroke-linejoin="round" d="M 12907,8688 L 12757,8688"/>
 <path fill="none" stroke="rgb(179,179,179)" stroke-linejoin="round" d="M 12907,9747 L 12757,9747"/>
 <path fill="none" stroke="rgb(179,179,179)" stroke-linejoin="round" d="M 12907,9747 L 12757,9747"/>
 <path fill="none" stroke="rgb(179,179,179)" stroke-linejoin="round" d="M 12907,10806 L 12757,10806"/>
 <path fill="none" stroke="rgb(179,179,179)" stroke-linejoin="round" d="M 12907,10806 L 12757,10806"/>
 <path fill="none" stroke="rgb(179,179,179)" stroke-linejoin="round" d="M 12757,10806 L 12757,220"/>
 <path fill="none" stroke="rgb(179,179,179)" stroke-linejoin="round" d="M 12757,10956 L 12757,10806"/>
 <path fill="none" stroke="rgb(179,179,179)" stroke-linejoin="round" d="M 12757,70 L 12757,220"/>
 <path fill="none" stroke="rgb(179,179,179)" stroke-linejoin="round" d="M 11153,10956 L 11153,10806"/>
 <path fill="none" stroke="rgb(179,179,179)" stroke-linejoin="round" d="M 11153,70 L 11153,220"/>
 <path fill="none" stroke="rgb(179,179,179)" stroke-linejoin="round" d="M 9550,10956 L 9550,10806"/>
 <path fill="none" stroke="rgb(179,179,179)" stroke-linejoin="round" d="M 9550,70 L 9550,220"/>
 <path fill="none" stroke="rgb(179,179,179)" stroke-linejoin="round" d="M 7947,10956 L 7947,10806"/>
 <path fill="none" stroke="rgb(179,179,179)" stroke-linejoin="round" d="M 7947,70 L 7947,220"/>
 <path fill="none" stroke="rgb(179,179,179)" stroke-linejoin="round" d="M 6343,10956 L 6343,10806"/>
 <path fill="none" stroke="rgb(179,179,179)" stroke-linejoin="round" d="M 6343,70 L 6343,220"/>
 <path fill="none" stroke="rgb(179,179,179)" stroke-linejoin="round" d="M 4740,10956 L 4740,10806"/>
 <path fill="none" stroke="rgb(179,179,179)" stroke-linejoin="round" d="M 4740,70 L 4740,220"/>
 <path fill="none" stroke="rgb(179,179,179)" stroke-linejoin="round" d="M 3136,10956 L 3136,10806"/>
 <path fill="none" stroke="rgb(179,179,179)" stroke-linejoin="round" d="M 3136,70 L 3136,220"/>
 <path fill="none" stroke="rgb(179,179,179)" stroke-linejoin="round" d="M 3137,220 L 12757,220"/>
 <path fill="rgb(12,50,44)" stroke="none" d="M 12757,325 L 12757,537 4740,537 4740,325 12757,325 Z"/>
 <path fill="rgb(12,50,44)" stroke="none" d="M 12757,1384 L 12757,1596 4740,1596 4740,1384 12757,1384 Z"/>
 <path fill="rgb(12,50,44)" stroke="none" d="M 12757,2443 L 12757,2655 4740,2655 4740,2443 12757,2443 Z"/>
 <path fill="rgb(12,50,44)" stroke="none" d="M 12757,3501 L 12757,3713 4740,3713 4740,3501 12757,3501 Z"/>
 <path fill="rgb(12,50,44)" stroke="none" d="M 12757,4560 L 12757,4772 4740,4772 4740,4560 12757,4560 Z"/>
 <path fill="rgb(12,50,44)" stroke="none" d="M 12757,5619 L 12757,5831 4740,5831 4740,5619 12757,5619 Z"/>
 <path fill="rgb(12,50,44)" stroke="none" d="M 12757,6677 L 12757,6888 4740,6888 4740,6677 12757,6677 Z"/>
 <path fill="rgb(12,50,44)" stroke="none" d="M 12757,7735 L 12757,7947 4740,7947 4740,7735 12757,7735 Z"/>
 <path fill="rgb(12,50,44)" stroke="none" d="M 12757,8794 L 12757,9006 4740,9006 4740,8794 12757,8794 Z"/>
 <path fill="rgb(12,50,44)" stroke="none" d="M 12757,9853 L 12757,10064 4740,10064 4740,9853 12757,9853 Z"/>
 <path fill="rgb(19,148,72)" stroke="none" d="M 12757,537 L 12757,749 3856,749 3856,537 12757,537 Z"/>
 <path fill="rgb(19,148,72)" stroke="none" d="M 12757,1596 L 12757,1808 4512,1808 4512,1596 12757,1596 Z"/>
 <path fill="rgb(19,148,72)" stroke="none" d="M 12757,2655 L 12757,2866 6232,2866 6232,2655 12757,2655 Z"/>
 <path fill="rgb(19,148,72)" stroke="none" d="M 12757,3713 L 12757,3925 6048,3925 6048,3713 12757,3713 Z"/>
 <path fill="rgb(19,148,72)" stroke="none" d="M 12757,4772 L 12757,4984 7280,4984 7280,4772 12757,4772 Z"/>
 <path fill="rgb(19,148,72)" stroke="none" d="M 12757,5831 L 12757,6041 4757,6041 4757,5831 12757,5831 Z"/>
 <path fill="rgb(19,148,72)" stroke="none" d="M 12757,6888 L 12757,7100 4812,7100 4812,6888 12757,6888 Z"/>
 <path fill="rgb(19,148,72)" stroke="none" d="M 12757,7947 L 12757,8159 8408,8159 8408,7947 12757,7947 Z"/>
 <path fill="rgb(19,148,72)" stroke="none" d="M 12757,9006 L 12757,9217 5080,9217 5080,9006 12757,9006 Z"/>
 <path fill="rgb(19,148,72)" stroke="none" d="M 12757,10064 L 12757,10276 6960,10276 6960,10064 12757,10064 Z"/>
 <path fill="rgb(255,193,8)" stroke="none" d="M 12757,749 L 12757,961 6408,961 6408,749 12757,749 Z"/>
 <path fill="rgb(255,193,8)" stroke="none" d="M 12757,1808 L 12757,2019 5846,2019 5846,1808 12757,1808 Z"/>
 <path fill="rgb(255,193,8)" stroke="none" d="M 12757,2866 L 12757,3078 7826,3078 7826,2866 12757,2866 Z"/>
 <path fill="rgb(255,193,8)" stroke="none" d="M 12757,3925 L 12757,4137 7113,4137 7113,3925 12757,3925 Z"/>
 <path fill="rgb(255,193,8)" stroke="none" d="M 12757,4984 L 12757,5195 7974,5195 7974,4984 12757,4984 Z"/>
 <path fill="rgb(255,193,8)" stroke="none" d="M 12757,6041 L 12757,6253 5959,6253 5959,6041 12757,6041 Z"/>
 <path fill="rgb(255,193,8)" stroke="none" d="M 12757,7100 L 12757,7312 4753,7312 4753,7100 12757,7100 Z"/>
 <path fill="rgb(255,193,8)" stroke="none" d="M 12757,8159 L 12757,8370 7402,8370 7402,8159 12757,8159 Z"/>
 <path fill="rgb(255,193,8)" stroke="none" d="M 12757,9217 L 12757,9429 5240,9429 5240,9217 12757,9217 Z"/>
 <path fill="rgb(255,193,8)" stroke="none" d="M 12757,10276 L 12757,10488 5894,10488 5894,10276 12757,10276 Z"/>
 <path fill="rgb(0,138,207)" stroke="none" d="M 12757,961 L 12757,1172 6677,1172 6677,961 12757,961 Z"/>
 <path fill="rgb(0,138,207)" stroke="none" d="M 12757,2019 L 12757,2231 5567,2231 5567,2019 12757,2019 Z"/>
 <path fill="rgb(0,138,207)" stroke="none" d="M 12757,3078 L 12757,3290 8652,3290 8652,3078 12757,3078 Z"/>
 <path fill="rgb(0,138,207)" stroke="none" d="M 12757,4137 L 12757,4348 8083,4348 8083,4137 12757,4137 Z"/>
 <path fill="rgb(0,138,207)" stroke="none" d="M 12757,5195 L 12757,5407 8936,5407 8936,5195 12757,5195 Z"/>
 <path fill="rgb(0,138,207)" stroke="none" d="M 12757,6253 L 12757,6465 6054,6465 6054,6253 12757,6253 Z"/>
 <path fill="rgb(0,138,207)" stroke="none" d="M 12757,7312 L 12757,7524 4822,7524 4822,7312 12757,7312 Z"/>
 <path fill="rgb(0,138,207)" stroke="none" d="M 12757,8370 L 12757,8582 9550,8582 9550,8370 12757,8370 Z"/>
 <path fill="rgb(0,138,207)" stroke="none" d="M 12757,9429 L 12757,9641 7824,9641 7824,9429 12757,9429 Z"/>
 <path fill="rgb(0,138,207)" stroke="none" d="M 12757,10488 L 12757,10700 8443,10700 8443,10488 12757,10488 Z"/>
 <text class="SVGTextShape"><tspan class="TextParagraph"><tspan class="TextPosition" x="13007" y="870"><tspan font-family="Liberation Sans, sans-serif" font-size="353px" font-weight="400" fill="rgb(0,0,0)" stroke="none" style="white-space: pre">500.perlbench_r</tspan></tspan></tspan></text>
 <text class="SVGTextShape"><tspan class="TextParagraph"><tspan class="TextPosition" x="13007" y="1929"><tspan font-family="Liberation Sans, sans-serif" font-size="353px" font-weight="400" fill="rgb(0,0,0)" stroke="none" style="white-space: pre">502.gcc_r</tspan></tspan></tspan></text>
 <text class="SVGTextShape"><tspan class="TextParagraph"><tspan class="TextPosition" x="13007" y="2987"><tspan font-family="Liberation Sans, sans-serif" font-size="353px" font-weight="400" fill="rgb(0,0,0)" stroke="none" style="white-space: pre">505.mcf_r</tspan></tspan></tspan></text>
 <text class="SVGTextShape"><tspan class="TextParagraph"><tspan class="TextPosition" x="13007" y="4046"><tspan font-family="Liberation Sans, sans-serif" font-size="353px" font-weight="400" fill="rgb(0,0,0)" stroke="none" style="white-space: pre">520.omnetpp_r</tspan></tspan></tspan></text>
 <text class="SVGTextShape"><tspan class="TextParagraph"><tspan class="TextPosition" x="13007" y="5105"><tspan font-family="Liberation Sans, sans-serif" font-size="353px" font-weight="400" fill="rgb(0,0,0)" stroke="none" style="white-space: pre">523.xalancbmk_r</tspan></tspan></tspan></text>
 <text class="SVGTextShape"><tspan class="TextParagraph"><tspan class="TextPosition" x="13007" y="6162"><tspan font-family="Liberation Sans, sans-serif" font-size="353px" font-weight="400" fill="rgb(0,0,0)" stroke="none" style="white-space: pre">525.x264_r</tspan></tspan></tspan></text>
 <text class="SVGTextShape"><tspan class="TextParagraph"><tspan class="TextPosition" x="13007" y="7221"><tspan font-family="Liberation Sans, sans-serif" font-size="353px" font-weight="400" fill="rgb(0,0,0)" stroke="none" style="white-space: pre">531.deepsjeng_r</tspan></tspan></tspan></text>
 <text class="SVGTextShape"><tspan class="TextParagraph"><tspan class="TextPosition" x="13007" y="8280"><tspan font-family="Liberation Sans, sans-serif" font-size="353px" font-weight="400" fill="rgb(0,0,0)" stroke="none" style="white-space: pre">541.leela_r</tspan></tspan></tspan></text>
 <text class="SVGTextShape"><tspan class="TextParagraph"><tspan class="TextPosition" x="13007" y="9338"><tspan font-family="Liberation Sans, sans-serif" font-size="353px" font-weight="400" fill="rgb(0,0,0)" stroke="none" style="white-space: pre">548.exchange2_r</tspan></tspan></tspan></text>
 <text class="SVGTextShape"><tspan class="TextParagraph"><tspan class="TextPosition" x="13007" y="10397"><tspan font-family="Liberation Sans, sans-serif" font-size="353px" font-weight="400" fill="rgb(0,0,0)" stroke="none" style="white-space: pre">557.xz_r</tspan></tspan></tspan></text>
 <text class="SVGTextShape"><tspan class="TextParagraph"><tspan class="TextPosition" x="12509" y="11374"><tspan font-family="Liberation Sans, sans-serif" font-size="353px" font-weight="400" fill="rgb(0,0,0)" stroke="none" style="white-space: pre">0%</tspan></tspan></tspan></text>
 <text class="SVGTextShape"><tspan class="TextParagraph"><tspan class="TextPosition" x="10810" y="11374"><tspan font-family="Liberation Sans, sans-serif" font-size="353px" font-weight="400" fill="rgb(0,0,0)" stroke="none" style="white-space: pre">20%</tspan></tspan></tspan></text>
 <text class="SVGTextShape"><tspan class="TextParagraph"><tspan class="TextPosition" x="9207" y="11374"><tspan font-family="Liberation Sans, sans-serif" font-size="353px" font-weight="400" fill="rgb(0,0,0)" stroke="none" style="white-space: pre">40%</tspan></tspan></tspan></text>
 <text class="SVGTextShape"><tspan class="TextParagraph"><tspan class="TextPosition" x="7604" y="11374"><tspan font-family="Liberation Sans, sans-serif" font-size="353px" font-weight="400" fill="rgb(0,0,0)" stroke="none" style="white-space: pre">60%</tspan></tspan></tspan></text>
 <text class="SVGTextShape"><tspan class="TextParagraph"><tspan class="TextPosition" x="6000" y="11374"><tspan font-family="Liberation Sans, sans-serif" font-size="353px" font-weight="400" fill="rgb(0,0,0)" stroke="none" style="white-space: pre">80%</tspan></tspan></tspan></text>
 <text class="SVGTextShape"><tspan class="TextParagraph"><tspan class="TextPosition" x="4301" y="11374"><tspan font-family="Liberation Sans, sans-serif" font-size="353px" font-weight="400" fill="rgb(0,0,0)" stroke="none" style="white-space: pre">100%</tspan></tspan></tspan></text>
 <text class="SVGTextShape"><tspan class="TextParagraph"><tspan class="TextPosition" x="2697" y="11374"><tspan font-family="Liberation Sans, sans-serif" font-size="353px" font-weight="400" fill="rgb(0,0,0)" stroke="none" style="white-space: pre">120%</tspan></tspan></tspan></text>
 <path fill="rgb(12,50,44)" stroke="none" d="M 418,6688 L 313,6688 313,6477 524,6477 524,6688 418,6688 Z"/>
 <path fill="rgb(19,148,72)" stroke="none" d="M 418,6190 L 313,6190 313,5979 524,5979 524,6190 418,6190 Z"/>
 <path fill="rgb(255,193,8)" stroke="none" d="M 418,5693 L 313,5693 313,5482 524,5482 524,5693 418,5693 Z"/>
 <path fill="rgb(0,138,207)" stroke="none" d="M 418,5195 L 313,5195 313,4984 524,4984 524,5195 418,5195 Z"/>
 <text class="SVGTextShape"><tspan class="TextParagraph"><tspan class="TextPosition" x="624" y="5209"><tspan font-family="Liberation Sans, sans-serif" font-size="353px" font-weight="400" fill="rgb(0,0,0)" stroke="none" style="white-space: pre">LTO+PGO</tspan></tspan></tspan></text>
 <text class="SVGTextShape"><tspan class="TextParagraph"><tspan class="TextPosition" x="624" y="5707"><tspan font-family="Liberation Sans, sans-serif" font-size="353px" font-weight="400" fill="rgb(0,0,0)" stroke="none" style="white-space: pre">PGO</tspan></tspan></tspan></text>
 <text class="SVGTextShape"><tspan class="TextParagraph"><tspan class="TextPosition" x="624" y="6204"><tspan font-family="Liberation Sans, sans-serif" font-size="353px" font-weight="400" fill="rgb(0,0,0)" stroke="none" style="white-space: pre">LTO</tspan></tspan></tspan></text>
 <text class="SVGTextShape"><tspan class="TextParagraph"><tspan class="TextPosition" x="624" y="6702"><tspan font-family="Liberation Sans, sans-serif" font-size="353px" font-weight="400" fill="rgb(0,0,0)" stroke="none" style="white-space: pre">Normal</tspan></tspan></tspan></text>
</svg>