<?xml version="1.0" encoding="UTF-8"?>
<!DOCTYPE svg PUBLIC "-//W3C//DTD SVG 1.1//EN" "http://www.w3.org/Graphics/SVG/1.1/DTD/svg11.dtd">
<svg width="160mm" height="75mm" viewBox="0 0 16000 7500" version="1.1" xmlns="http://www.w3.org/2000/svg" xmlns:xlink="http://www.w3.org/1999/xlink" stroke-width="28.222" stroke-linejoin="round" xml:space="preserve">
 <path fill="rgb(255,255,255)" stroke="none" d="M 8000,7500 L 0,7500 0,0 16000,0 16000,7500 8000,7500 Z"/>
 <path fill="none" stroke="rgb(179,179,179)" stroke-linejoin="round" d="M 9110,6703 L 2979,6703 2979,1431 15242,1431 15242,6703 9110,6703 Z"/>
 <path fill="none" stroke="rgb(179,179,179)" stroke-linejoin="round" d="M 2979,1429 L 2979,6701"/>
 <path fill="none" stroke="rgb(179,179,179)" stroke-linejoin="round" d="M 4341,1429 L 4341,6701"/>
 <path fill="none" stroke="rgb(179,179,179)" stroke-linejoin="round" d="M 5704,1429 L 5704,6701"/>
 <path fill="none" stroke="rgb(179,179,179)" stroke-linejoin="round" d="M 7067,1429 L 7067,6701"/>
 <path fill="none" stroke="rgb(179,179,179)" stroke-linejoin="round" d="M 8428,1429 L 8428,6701"/>
 <path fill="none" stroke="rgb(179,179,179)" stroke-linejoin="round" d="M 9791,1429 L 9791,6701"/>
 <path fill="none" stroke="rgb(179,179,179)" stroke-linejoin="round" d="M 11154,1429 L 11154,6701"/>
 <path fill="none" stroke="rgb(179,179,179)" stroke-linejoin="round" d="M 12516,1429 L 12516,6701"/>
 <path fill="none" stroke="rgb(179,179,179)" stroke-linejoin="round" d="M 13879,1429 L 13879,6701"/>
 <path fill="none" stroke="rgb(179,179,179)" stroke-linejoin="round" d="M 15242,1429 L 15242,6701"/>
 <path fill="none" stroke="rgb(179,179,179)" stroke-linejoin="round" d="M 2829,6701 L 2979,6701"/>
 <path fill="none" stroke="rgb(179,179,179)" stroke-linejoin="round" d="M 2829,6701 L 2979,6701"/>
 <path fill="none" stroke="rgb(179,179,179)" stroke-linejoin="round" d="M 2829,4944 L 2979,4944"/>
 <path fill="none" stroke="rgb(179,179,179)" stroke-linejoin="round" d="M 2829,4944 L 2979,4944"/>
 <path fill="none" stroke="rgb(179,179,179)" stroke-linejoin="round" d="M 2829,3187 L 2979,3187"/>
 <path fill="none" stroke="rgb(179,179,179)" stroke-linejoin="round" d="M 2829,3187 L 2979,3187"/>
 <path fill="none" stroke="rgb(179,179,179)" stroke-linejoin="round" d="M 2829,1429 L 2979,1429"/>
 <path fill="none" stroke="rgb(179,179,179)" stroke-linejoin="round" d="M 2829,1429 L 2979,1429"/>
 <path fill="none" stroke="rgb(179,179,179)" stroke-linejoin="round" d="M 2979,6701 L 2979,1429"/>
 <path fill="none" stroke="rgb(179,179,179)" stroke-linejoin="round" d="M 2979,6851 L 2979,6701"/>
 <path fill="none" stroke="rgb(179,179,179)" stroke-linejoin="round" d="M 2979,6851 L 2979,6701"/>
 <path fill="none" stroke="rgb(179,179,179)" stroke-linejoin="round" d="M 4341,6851 L 4341,6701"/>
 <path fill="none" stroke="rgb(179,179,179)" stroke-linejoin="round" d="M 4341,6851 L 4341,6701"/>
 <path fill="none" stroke="rgb(179,179,179)" stroke-linejoin="round" d="M 5704,6851 L 5704,6701"/>
 <path fill="none" stroke="rgb(179,179,179)" stroke-linejoin="round" d="M 5704,6851 L 5704,6701"/>
 <path fill="none" stroke="rgb(179,179,179)" stroke-linejoin="round" d="M 7067,6851 L 7067,6701"/>
 <path fill="none" stroke="rgb(179,179,179)" stroke-linejoin="round" d="M 7067,6851 L 7067,6701"/>
 <path fill="none" stroke="rgb(179,179,179)" stroke-linejoin="round" d="M 8428,6851 L 8428,6701"/>
 <path fill="none" stroke="rgb(179,179,179)" stroke-linejoin="round" d="M 8428,6851 L 8428,6701"/>
 <path fill="none" stroke="rgb(179,179,179)" stroke-linejoin="round" d="M 9791,6851 L 9791,6701"/>
 <path fill="none" stroke="rgb(179,179,179)" stroke-linejoin="round" d="M 9791,6851 L 9791,6701"/>
 <path fill="none" stroke="rgb(179,179,179)" stroke-linejoin="round" d="M 11154,6851 L 11154,6701"/>
 <path fill="none" stroke="rgb(179,179,179)" stroke-linejoin="round" d="M 11154,6851 L 11154,6701"/>
 <path fill="none" stroke="rgb(179,179,179)" stroke-linejoin="round" d="M 12516,6851 L 12516,6701"/>
 <path fill="none" stroke="rgb(179,179,179)" stroke-linejoin="round" d="M 12516,6851 L 12516,6701"/>
 <path fill="none" stroke="rgb(179,179,179)" stroke-linejoin="round" d="M 13879,6851 L 13879,6701"/>
 <path fill="none" stroke="rgb(179,179,179)" stroke-linejoin="round" d="M 13879,6851 L 13879,6701"/>
 <path fill="none" stroke="rgb(179,179,179)" stroke-linejoin="round" d="M 15242,6851 L 15242,6701"/>
 <path fill="none" stroke="rgb(179,179,179)" stroke-linejoin="round" d="M 15242,6851 L 15242,6701"/>
 <path fill="none" stroke="rgb(179,179,179)" stroke-linejoin="round" d="M 2979,6701 L 15242,6701"/>
 <path fill="rgb(0,138,207)" stroke="none" d="M 2979,3011 L 2979,2660 11002,2660 11002,3011 2979,3011 Z"/>
 <path fill="rgb(0,138,207)" stroke="none" d="M 2979,4768 L 2979,4417 14420,4417 14420,4768 2979,4768 Z"/>
 <path fill="rgb(0,138,207)" stroke="none" d="M 2979,6526 L 2979,6174 12082,6174 12082,6526 2979,6526 Z"/>
 <path fill="rgb(19,148,72)" stroke="none" d="M 2979,2660 L 2979,2308 9982,2308 9982,2660 2979,2660 Z"/>
 <path fill="rgb(19,148,72)" stroke="none" d="M 2979,4417 L 2979,4065 11018,4065 11018,4417 2979,4417 Z"/>
 <path fill="rgb(19,148,72)" stroke="none" d="M 2979,6174 L 2979,5823 10163,5823 10163,6174 2979,6174 Z"/>
 <path fill="rgb(255,193,8)" stroke="none" d="M 2979,2308 L 2979,1957 10626,1957 10626,2308 2979,2308 Z"/>
 <path fill="rgb(255,193,8)" stroke="none" d="M 2979,4065 L 2979,3714 13603,3714 13603,4065 2979,4065 Z"/>
 <path fill="rgb(255,193,8)" stroke="none" d="M 2979,5823 L 2979,5471 10740,5471 10740,5823 2979,5823 Z"/>
 <path fill="rgb(220,53,69)" stroke="none" d="M 2979,1957 L 2979,1605 9791,1605 9791,1957 2979,1957 Z"/>
 <path fill="rgb(220,53,69)" stroke="none" d="M 2979,3714 L 2979,3363 9791,3363 9791,3714 2979,3714 Z"/>
 <path fill="rgb(220,53,69)" stroke="none" d="M 2979,5471 L 2979,5120 9791,5120 9791,5471 2979,5471 Z"/>
 <text class="TextShape"><tspan class="TextParagraph" font-family="Liberation Sans, sans-serif" font-size="353px" font-weight="400"><tspan class="TextPosition" x="1168" y="5944"><tspan fill="rgb(0,0,0)" stroke="none">singletons</tspan></tspan></tspan></text>
 <text class="TextShape"><tspan class="TextParagraph" font-family="Liberation Sans, sans-serif" font-size="353px" font-weight="400"><tspan class="TextPosition" x="321" y="4186"><tspan fill="rgb(0,0,0)" stroke="none">responsiveness</tspan></tspan></tspan></text>
 <text class="TextShape"><tspan class="TextParagraph" font-family="Liberation Sans, sans-serif" font-size="353px" font-weight="400"><tspan class="TextPosition" x="2068" y="2428"><tspan fill="rgb(0,0,0)" stroke="none">tp5o</tspan></tspan></tspan></text>
 <text class="TextShape"><tspan class="TextParagraph" font-family="Liberation Sans, sans-serif" font-size="353px" font-weight="400"><tspan class="TextPosition" x="2727" y="7269"><tspan fill="rgb(0,0,0)" stroke="none">0%</tspan></tspan></tspan></text>
 <text class="TextShape"><tspan class="TextParagraph" font-family="Liberation Sans, sans-serif" font-size="353px" font-weight="400"><tspan class="TextPosition" x="3997" y="7269"><tspan fill="rgb(0,0,0)" stroke="none">20%</tspan></tspan></tspan></text>
 <text class="TextShape"><tspan class="TextParagraph" font-family="Liberation Sans, sans-serif" font-size="353px" font-weight="400"><tspan class="TextPosition" x="5360" y="7269"><tspan fill="rgb(0,0,0)" stroke="none">40%</tspan></tspan></tspan></text>
 <text class="TextShape"><tspan class="TextParagraph" font-family="Liberation Sans, sans-serif" font-size="353px" font-weight="400"><tspan class="TextPosition" x="6723" y="7269"><tspan fill="rgb(0,0,0)" stroke="none">60%</tspan></tspan></tspan></text>
 <text class="TextShape"><tspan class="TextParagraph" font-family="Liberation Sans, sans-serif" font-size="353px" font-weight="400"><tspan class="TextPosition" x="8085" y="7269"><tspan fill="rgb(0,0,0)" stroke="none">80%</tspan></tspan></tspan></text>
 <text class="TextShape"><tspan class="TextParagraph" font-family="Liberation Sans, sans-serif" font-size="353px" font-weight="400"><tspan class="TextPosition" x="9355" y="7269"><tspan fill="rgb(0,0,0)" stroke="none">100%</tspan></tspan></tspan></text>
 <text class="TextShape"><tspan class="TextParagraph" font-family="Liberation Sans, sans-serif" font-size="353px" font-weight="400"><tspan class="TextPosition" x="10718" y="7269"><tspan fill="rgb(0,0,0)" stroke="none">120%</tspan></tspan></tspan></text>
 <text class="TextShape"><tspan class="TextParagraph" font-family="Liberation Sans, sans-serif" font-size="353px" font-weight="400"><tspan class="TextPosition" x="12080" y="7269"><tspan fill="rgb(0,0,0)" stroke="none">140%</tspan></tspan></tspan></text>
 <text class="TextShape"><tspan class="TextParagraph" font-family="Liberation Sans, sans-serif" font-size="353px" font-weight="400"><tspan class="TextPosition" x="13443" y="7269"><tspan fill="rgb(0,0,0)" stroke="none">160%</tspan></tspan></tspan></text>
 <text class="TextShape"><tspan class="TextParagraph" font-family="Liberation Sans, sans-serif" font-size="353px" font-weight="400"><tspan class="TextPosition" x="14806" y="7269"><tspan fill="rgb(0,0,0)" stroke="none">180%</tspan></tspan></tspan></text>
 <path fill="rgb(0,138,207)" stroke="none" d="M 7242,1087 L 7137,1087 7137,876 7348,876 7348,1087 7242,1087 Z"/>
 <path fill="rgb(19,148,72)" stroke="none" d="M 4818,1087 L 4713,1087 4713,876 4924,876 4924,1087 4818,1087 Z"/>
 <path fill="rgb(255,193,8)" stroke="none" d="M 7242,589 L 7137,589 7137,378 7348,378 7348,589 7242,589 Z"/>
 <path fill="rgb(220,53,69)" stroke="none" d="M 4818,589 L 4713,589 4713,378 4924,378 4924,589 4818,589 Z"/>
 <text class="TextShape"><tspan class="TextParagraph" font-family="Liberation Sans, sans-serif" font-size="353px" font-weight="400"><tspan class="TextPosition" x="5024" y="603"><tspan fill="rgb(0,0,0)" stroke="none">GCC 7 -O2</tspan></tspan></tspan></text>
 <text class="TextShape"><tspan class="TextParagraph" font-family="Liberation Sans, sans-serif" font-size="353px" font-weight="400"><tspan class="TextPosition" x="7448" y="603"><tspan fill="rgb(0,0,0)" stroke="none">GCC 7 -O3 (LTO+PGO)</tspan></tspan></tspan></text>
 <text class="TextShape"><tspan class="TextParagraph" font-family="Liberation Sans, sans-serif" font-size="353px" font-weight="400"><tspan class="TextPosition" x="5024" y="1101"><tspan fill="rgb(0,0,0)" stroke="none">GCC 10 -O2</tspan></tspan></tspan></text>
 <text class="TextShape"><tspan class="TextParagraph" font-family="Liberation Sans, sans-serif" font-size="353px" font-weight="400"><tspan class="TextPosition" x="7448" y="1101"><tspan fill="rgb(0,0,0)" stroke="none">GCC 10 -O3 (LTO+PGO)</tspan></tspan></tspan></text>
</svg>