<?xml version="1.0" encoding="UTF-8"?>
<!DOCTYPE svg PUBLIC "-//W3C//DTD SVG 1.1//EN" "http://www.w3.org/Graphics/SVG/1.1/DTD/svg11.dtd">
<svg width="160mm" height="140mm" viewBox="0 0 16000 14000" version="1.1" xmlns="http://www.w3.org/2000/svg" xmlns:xlink="http://www.w3.org/1999/xlink" stroke-width="28.222" stroke-linejoin="round" xml:space="preserve">
 <path fill="rgb(255,255,255)" stroke="none" d="M 7987,13987 L -13,13987 -13,-13 15987,-13 15987,13987 7987,13987 Z"/>
 <path fill="none" stroke="rgb(179,179,179)" stroke-linejoin="round" d="M 8291,13060 L 3310,13060 3310,267 13272,267 13272,13060 8291,13060 Z"/>
 <path fill="none" stroke="rgb(179,179,179)" stroke-linejoin="round" d="M 3310,265 L 3310,13059"/>
 <path fill="none" stroke="rgb(179,179,179)" stroke-linejoin="round" d="M 4638,265 L 4638,13059"/>
 <path fill="none" stroke="rgb(179,179,179)" stroke-linejoin="round" d="M 5966,265 L 5966,13059"/>
 <path fill="none" stroke="rgb(179,179,179)" stroke-linejoin="round" d="M 7295,265 L 7295,13059"/>
 <path fill="none" stroke="rgb(179,179,179)" stroke-linejoin="round" d="M 8622,265 L 8622,13059"/>
 <path fill="none" stroke="rgb(179,179,179)" stroke-linejoin="round" d="M 9951,265 L 9951,13059"/>
 <path fill="none" stroke="rgb(179,179,179)" stroke-linejoin="round" d="M 11279,265 L 11279,13059"/>
 <path fill="none" stroke="rgb(179,179,179)" stroke-linejoin="round" d="M 12607,265 L 12607,13059"/>
 <path fill="none" stroke="rgb(179,179,179)" stroke-linejoin="round" d="M 3160,265 L 3310,265"/>
 <path fill="none" stroke="rgb(179,179,179)" stroke-linejoin="round" d="M 3160,265 L 3310,265"/>
 <path fill="none" stroke="rgb(179,179,179)" stroke-linejoin="round" d="M 3160,1250 L 3310,1250"/>
 <path fill="none" stroke="rgb(179,179,179)" stroke-linejoin="round" d="M 3160,1250 L 3310,1250"/>
 <path fill="none" stroke="rgb(179,179,179)" stroke-linejoin="round" d="M 3160,2234 L 3310,2234"/>
 <path fill="none" stroke="rgb(179,179,179)" stroke-linejoin="round" d="M 3160,2234 L 3310,2234"/>
 <path fill="none" stroke="rgb(179,179,179)" stroke-linejoin="round" d="M 3160,3218 L 3310,3218"/>
 <path fill="none" stroke="rgb(179,179,179)" stroke-linejoin="round" d="M 3160,3218 L 3310,3218"/>
 <path fill="none" stroke="rgb(179,179,179)" stroke-linejoin="round" d="M 3160,4202 L 3310,4202"/>
 <path fill="none" stroke="rgb(179,179,179)" stroke-linejoin="round" d="M 3160,4202 L 3310,4202"/>
 <path fill="none" stroke="rgb(179,179,179)" stroke-linejoin="round" d="M 3160,5186 L 3310,5186"/>
 <path fill="none" stroke="rgb(179,179,179)" stroke-linejoin="round" d="M 3160,5186 L 3310,5186"/>
 <path fill="none" stroke="rgb(179,179,179)" stroke-linejoin="round" d="M 3160,6170 L 3310,6170"/>
 <path fill="none" stroke="rgb(179,179,179)" stroke-linejoin="round" d="M 3160,6170 L 3310,6170"/>
 <path fill="none" stroke="rgb(179,179,179)" stroke-linejoin="round" d="M 3160,7154 L 3310,7154"/>
 <path fill="none" stroke="rgb(179,179,179)" stroke-linejoin="round" d="M 3160,7154 L 3310,7154"/>
 <path fill="none" stroke="rgb(179,179,179)" stroke-linejoin="round" d="M 3160,8138 L 3310,8138"/>
 <path fill="none" stroke="rgb(179,179,179)" stroke-linejoin="round" d="M 3160,8138 L 3310,8138"/>
 <path fill="none" stroke="rgb(179,179,179)" stroke-linejoin="round" d="M 3160,9122 L 3310,9122"/>
 <path fill="none" stroke="rgb(179,179,179)" stroke-linejoin="round" d="M 3160,9122 L 3310,9122"/>
 <path fill="none" stroke="rgb(179,179,179)" stroke-linejoin="round" d="M 3160,10106 L 3310,10106"/>
 <path fill="none" stroke="rgb(179,179,179)" stroke-linejoin="round" d="M 3160,10106 L 3310,10106"/>
 <path fill="none" stroke="rgb(179,179,179)" stroke-linejoin="round" d="M 3160,11090 L 3310,11090"/>
 <path fill="none" stroke="rgb(179,179,179)" stroke-linejoin="round" d="M 3160,11090 L 3310,11090"/>
 <path fill="none" stroke="rgb(179,179,179)" stroke-linejoin="round" d="M 3160,12074 L 3310,12074"/>
 <path fill="none" stroke="rgb(179,179,179)" stroke-linejoin="round" d="M 3160,12074 L 3310,12074"/>
 <path fill="none" stroke="rgb(179,179,179)" stroke-linejoin="round" d="M 3160,13059 L 3310,13059"/>
 <path fill="none" stroke="rgb(179,179,179)" stroke-linejoin="round" d="M 3160,13059 L 3310,13059"/>
 <path fill="none" stroke="rgb(179,179,179)" stroke-linejoin="round" d="M 3310,13059 L 3310,265"/>
 <path fill="none" stroke="rgb(179,179,179)" stroke-linejoin="round" d="M 3310,13209 L 3310,13059"/>
 <path fill="none" stroke="rgb(179,179,179)" stroke-linejoin="round" d="M 3310,115 L 3310,265"/>
 <path fill="none" stroke="rgb(179,179,179)" stroke-linejoin="round" d="M 4638,13209 L 4638,13059"/>
 <path fill="none" stroke="rgb(179,179,179)" stroke-linejoin="round" d="M 4638,115 L 4638,265"/>
 <path fill="none" stroke="rgb(179,179,179)" stroke-linejoin="round" d="M 5966,13209 L 5966,13059"/>
 <path fill="none" stroke="rgb(179,179,179)" stroke-linejoin="round" d="M 5966,115 L 5966,265"/>
 <path fill="none" stroke="rgb(179,179,179)" stroke-linejoin="round" d="M 7295,13209 L 7295,13059"/>
 <path fill="none" stroke="rgb(179,179,179)" stroke-linejoin="round" d="M 7295,115 L 7295,265"/>
 <path fill="none" stroke="rgb(179,179,179)" stroke-linejoin="round" d="M 8622,13209 L 8622,13059"/>
 <path fill="none" stroke="rgb(179,179,179)" stroke-linejoin="round" d="M 8622,115 L 8622,265"/>
 <path fill="none" stroke="rgb(179,179,179)" stroke-linejoin="round" d="M 9951,13209 L 9951,13059"/>
 <path fill="none" stroke="rgb(179,179,179)" stroke-linejoin="round" d="M 9951,115 L 9951,265"/>
 <path fill="none" stroke="rgb(179,179,179)" stroke-linejoin="round" d="M 11279,13209 L 11279,13059"/>
 <path fill="none" stroke="rgb(179,179,179)" stroke-linejoin="round" d="M 11279,115 L 11279,265"/>
 <path fill="none" stroke="rgb(179,179,179)" stroke-linejoin="round" d="M 12607,13209 L 12607,13059"/>
 <path fill="none" stroke="rgb(179,179,179)" stroke-linejoin="round" d="M 12607,115 L 12607,265"/>
 <path fill="none" stroke="rgb(179,179,179)" stroke-linejoin="round" d="M 3310,265 L 13272,265"/>
 <path fill="rgb(12,50,44)" stroke="none" d="M 3310,364 L 3310,561 9951,561 9951,364 3310,364 Z"/>
 <path fill="rgb(12,50,44)" stroke="none" d="M 3310,1348 L 3310,1545 9951,1545 9951,1348 3310,1348 Z"/>
 <path fill="rgb(12,50,44)" stroke="none" d="M 3310,2332 L 3310,2529 9951,2529 9951,2332 3310,2332 Z"/>
 <path fill="rgb(12,50,44)" stroke="none" d="M 3310,3316 L 3310,3513 9951,3513 9951,3316 3310,3316 Z"/>
 <path fill="rgb(12,50,44)" stroke="none" d="M 3310,4301 L 3310,4497 9951,4497 9951,4301 3310,4301 Z"/>
 <path fill="rgb(12,50,44)" stroke="none" d="M 3310,5285 L 3310,5482 9951,5482 9951,5285 3310,5285 Z"/>
 <path fill="rgb(12,50,44)" stroke="none" d="M 3310,6269 L 3310,6466 9951,6466 9951,6269 3310,6269 Z"/>
 <path fill="rgb(12,50,44)" stroke="none" d="M 3310,7252 L 3310,7449 9951,7449 9951,7252 3310,7252 Z"/>
 <path fill="rgb(12,50,44)" stroke="none" d="M 3310,8236 L 3310,8433 9951,8433 9951,8236 3310,8236 Z"/>
 <path fill="rgb(12,50,44)" stroke="none" d="M 3310,9220 L 3310,9417 9951,9417 9951,9220 3310,9220 Z"/>
 <path fill="rgb(12,50,44)" stroke="none" d="M 3310,10204 L 3310,10401 9951,10401 9951,10204 3310,10204 Z"/>
 <path fill="rgb(12,50,44)" stroke="none" d="M 3310,11189 L 3310,11385 9951,11385 9951,11189 3310,11189 Z"/>
 <path fill="rgb(12,50,44)" stroke="none" d="M 3310,12173 L 3310,12370 9951,12370 9951,12173 3310,12173 Z"/>
 <path fill="rgb(19,148,72)" stroke="none" d="M 3310,561 L 3310,758 10114,758 10114,561 3310,561 Z"/>
 <path fill="rgb(19,148,72)" stroke="none" d="M 3310,1545 L 3310,1742 9895,1742 9895,1545 3310,1545 Z"/>
 <path fill="rgb(19,148,72)" stroke="none" d="M 3310,2529 L 3310,2726 9951,2726 9951,2529 3310,2529 Z"/>
 <path fill="rgb(19,148,72)" stroke="none" d="M 3310,3513 L 3310,3710 10213,3710 10213,3513 3310,3513 Z"/>
 <path fill="rgb(19,148,72)" stroke="none" d="M 3310,4497 L 3310,4694 10758,4694 10758,4497 3310,4497 Z"/>
 <path fill="rgb(19,148,72)" stroke="none" d="M 3310,5482 L 3310,5678 9945,5678 9945,5482 3310,5482 Z"/>
 <path fill="rgb(19,148,72)" stroke="none" d="M 3310,6466 L 3310,6662 10054,6662 10054,6466 3310,6466 Z"/>
 <path fill="rgb(19,148,72)" stroke="none" d="M 3310,7449 L 3310,7646 10052,7646 10052,7449 3310,7449 Z"/>
 <path fill="rgb(19,148,72)" stroke="none" d="M 3310,8433 L 3310,8630 10173,8630 10173,8433 3310,8433 Z"/>
 <path fill="rgb(19,148,72)" stroke="none" d="M 3310,9417 L 3310,9614 10279,9614 10279,9417 3310,9417 Z"/>
 <path fill="rgb(19,148,72)" stroke="none" d="M 3310,10401 L 3310,10598 10008,10598 10008,10401 3310,10401 Z"/>
 <path fill="rgb(19,148,72)" stroke="none" d="M 3310,11385 L 3310,11582 9657,11582 9657,11385 3310,11385 Z"/>
 <path fill="rgb(19,148,72)" stroke="none" d="M 3310,12370 L 3310,12566 10026,12566 10026,12370 3310,12370 Z"/>
 <path fill="rgb(255,193,8)" stroke="none" d="M 3310,758 L 3310,954 9980,954 9980,758 3310,758 Z"/>
 <path fill="rgb(255,193,8)" stroke="none" d="M 3310,1742 L 3310,1939 9877,1939 9877,1742 3310,1742 Z"/>
 <path fill="rgb(255,193,8)" stroke="none" d="M 3310,2726 L 3310,2923 10018,2923 10018,2726 3310,2726 Z"/>
 <path fill="rgb(255,193,8)" stroke="none" d="M 3310,3710 L 3310,3907 9965,3907 9965,3710 3310,3710 Z"/>
 <path fill="rgb(255,193,8)" stroke="none" d="M 3310,4694 L 3310,4891 10550,4891 10550,4694 3310,4694 Z"/>
 <path fill="rgb(255,193,8)" stroke="none" d="M 3310,5678 L 3310,5875 10040,5875 10040,5678 3310,5678 Z"/>
 <path fill="rgb(255,193,8)" stroke="none" d="M 3310,6663 L 3310,6859 10049,6859 10049,6663 3310,6663 Z"/>
 <path fill="rgb(255,193,8)" stroke="none" d="M 3310,7646 L 3310,7842 9781,7842 9781,7646 3310,7646 Z"/>
 <path fill="rgb(255,193,8)" stroke="none" d="M 3310,8630 L 3310,8827 10216,8827 10216,8630 3310,8630 Z"/>
 <path fill="rgb(255,193,8)" stroke="none" d="M 3310,9614 L 3310,9811 12615,9811 12615,9614 3310,9614 Z"/>
 <path fill="rgb(255,193,8)" stroke="none" d="M 3310,10598 L 3310,10795 10179,10795 10179,10598 3310,10598 Z"/>
 <path fill="rgb(255,193,8)" stroke="none" d="M 3310,11582 L 3310,11779 9715,11779 9715,11582 3310,11582 Z"/>
 <path fill="rgb(255,193,8)" stroke="none" d="M 3310,12566 L 3310,12763 10102,12763 10102,12566 3310,12566 Z"/>
 <path fill="rgb(0,138,207)" stroke="none" d="M 3310,954 L 3310,1151 10108,1151 10108,954 3310,954 Z"/>
 <path fill="rgb(0,138,207)" stroke="none" d="M 3310,1939 L 3310,2135 10006,2135 10006,1939 3310,1939 Z"/>
 <path fill="rgb(0,138,207)" stroke="none" d="M 3310,2923 L 3310,3120 9970,3120 9970,2923 3310,2923 Z"/>
 <path fill="rgb(0,138,207)" stroke="none" d="M 3310,3907 L 3310,4104 10132,4104 10132,3907 3310,3907 Z"/>
 <path fill="rgb(0,138,207)" stroke="none" d="M 3310,4891 L 3310,5088 11526,5088 11526,4891 3310,4891 Z"/>
 <path fill="rgb(0,138,207)" stroke="none" d="M 3310,5875 L 3310,6072 10422,6072 10422,5875 3310,5875 Z"/>
 <path fill="rgb(0,138,207)" stroke="none" d="M 3310,6859 L 3310,7055 10306,7055 10306,6859 3310,6859 Z"/>
 <path fill="rgb(0,138,207)" stroke="none" d="M 3310,7842 L 3310,8039 9772,8039 9772,7842 3310,7842 Z"/>
 <path fill="rgb(0,138,207)" stroke="none" d="M 3310,8827 L 3310,9023 10476,9023 10476,8827 3310,8827 Z"/>
 <path fill="rgb(0,138,207)" stroke="none" d="M 3310,9811 L 3310,10008 12287,10008 12287,9811 3310,9811 Z"/>
 <path fill="rgb(0,138,207)" stroke="none" d="M 3310,10795 L 3310,10992 10186,10992 10186,10795 3310,10795 Z"/>
 <path fill="rgb(0,138,207)" stroke="none" d="M 3310,11779 L 3310,11976 9103,11976 9103,11779 3310,11779 Z"/>
 <path fill="rgb(0,138,207)" stroke="none" d="M 3310,12763 L 3310,12960 9951,12960 9951,12763 3310,12763 Z"/>
 <text class="SVGTextShape"><tspan class="TextParagraph" font-family="Liberation Sans, sans-serif" font-size="353px" font-weight="400"><tspan class="TextPosition" x="943" y="878"><tspan fill="rgb(0,0,0)" stroke="none" style="white-space: pre">503.bwaves_r</tspan></tspan></tspan></text>
 <text class="SVGTextShape"><tspan class="TextParagraph" font-family="Liberation Sans, sans-serif" font-size="353px" font-weight="400"><tspan class="TextPosition" x="308" y="1862"><tspan fill="rgb(0,0,0)" stroke="none" style="white-space: pre">507.cactuBSSN_r</tspan></tspan></tspan></text>
 <text class="SVGTextShape"><tspan class="TextParagraph" font-family="Liberation Sans, sans-serif" font-size="353px" font-weight="400"><tspan class="TextPosition" x="1261" y="2846"><tspan fill="rgb(0,0,0)" stroke="none" style="white-space: pre">508.namd_r</tspan></tspan></tspan></text>
 <text class="SVGTextShape"><tspan class="TextParagraph" font-family="Liberation Sans, sans-serif" font-size="353px" font-weight="400"><tspan class="TextPosition" x="1155" y="3830"><tspan fill="rgb(0,0,0)" stroke="none" style="white-space: pre">510.parest_r</tspan></tspan></tspan></text>
 <text class="SVGTextShape"><tspan class="TextParagraph" font-family="Liberation Sans, sans-serif" font-size="353px" font-weight="400"><tspan class="TextPosition" x="1076" y="4814"><tspan fill="rgb(0,0,0)" stroke="none" style="white-space: pre">511.povray_r</tspan></tspan></tspan></text>
 <text class="SVGTextShape"><tspan class="TextParagraph" font-family="Liberation Sans, sans-serif" font-size="353px" font-weight="400"><tspan class="TextPosition" x="1552" y="5798"><tspan fill="rgb(0,0,0)" stroke="none" style="white-space: pre">519.lbm_r</tspan></tspan></tspan></text>
 <text class="SVGTextShape"><tspan class="TextParagraph" font-family="Liberation Sans, sans-serif" font-size="353px" font-weight="400"><tspan class="TextPosition" x="1658" y="6782"><tspan fill="rgb(0,0,0)" stroke="none" style="white-space: pre">521.wrf_r</tspan></tspan></tspan></text>
 <text class="SVGTextShape"><tspan class="TextParagraph" font-family="Liberation Sans, sans-serif" font-size="353px" font-weight="400"><tspan class="TextPosition" x="996" y="7766"><tspan fill="rgb(0,0,0)" stroke="none" style="white-space: pre">526.blender_r</tspan></tspan></tspan></text>
 <text class="SVGTextShape"><tspan class="TextParagraph" font-family="Liberation Sans, sans-serif" font-size="353px" font-weight="400"><tspan class="TextPosition" x="1261" y="8750"><tspan fill="rgb(0,0,0)" stroke="none" style="white-space: pre">527.cam4_r</tspan></tspan></tspan></text>
 <text class="SVGTextShape"><tspan class="TextParagraph" font-family="Liberation Sans, sans-serif" font-size="353px" font-weight="400"><tspan class="TextPosition" x="917" y="9734"><tspan fill="rgb(0,0,0)" stroke="none" style="white-space: pre">538.imagick_r</tspan></tspan></tspan></text>
 <text class="SVGTextShape"><tspan class="TextParagraph" font-family="Liberation Sans, sans-serif" font-size="353px" font-weight="400"><tspan class="TextPosition" x="1552" y="10718"><tspan fill="rgb(0,0,0)" stroke="none" style="white-space: pre">544.nab_r</tspan></tspan></tspan></text>
 <text class="SVGTextShape"><tspan class="TextParagraph" font-family="Liberation Sans, sans-serif" font-size="353px" font-weight="400"><tspan class="TextPosition" x="705" y="11702"><tspan fill="rgb(0,0,0)" stroke="none" style="white-space: pre">549.fotonik3d_r</tspan></tspan></tspan></text>
 <text class="SVGTextShape"><tspan class="TextParagraph" font-family="Liberation Sans, sans-serif" font-size="353px" font-weight="400"><tspan class="TextPosition" x="1340" y="12686"><tspan fill="rgb(0,0,0)" stroke="none" style="white-space: pre">554.roms_r</tspan></tspan></tspan></text>
 <text class="SVGTextShape"><tspan class="TextParagraph" font-family="Liberation Sans, sans-serif" font-size="353px" font-weight="400"><tspan class="TextPosition" x="3058" y="13627"><tspan fill="rgb(0,0,0)" stroke="none" style="white-space: pre">0%</tspan></tspan></tspan></text>
 <text class="SVGTextShape"><tspan class="TextParagraph" font-family="Liberation Sans, sans-serif" font-size="353px" font-weight="400"><tspan class="TextPosition" x="4294" y="13627"><tspan fill="rgb(0,0,0)" stroke="none" style="white-space: pre">20%</tspan></tspan></tspan></text>
 <text class="SVGTextShape"><tspan class="TextParagraph" font-family="Liberation Sans, sans-serif" font-size="353px" font-weight="400"><tspan class="TextPosition" x="5622" y="13627"><tspan fill="rgb(0,0,0)" stroke="none" style="white-space: pre">40%</tspan></tspan></tspan></text>
 <text class="SVGTextShape"><tspan class="TextParagraph" font-family="Liberation Sans, sans-serif" font-size="353px" font-weight="400"><tspan class="TextPosition" x="6951" y="13627"><tspan fill="rgb(0,0,0)" stroke="none" style="white-space: pre">60%</tspan></tspan></tspan></text>
 <text class="SVGTextShape"><tspan class="TextParagraph" font-family="Liberation Sans, sans-serif" font-size="353px" font-weight="400"><tspan class="TextPosition" x="8278" y="13627"><tspan fill="rgb(0,0,0)" stroke="none" style="white-space: pre">80%</tspan></tspan></tspan></text>
 <text class="SVGTextShape"><tspan class="TextParagraph" font-family="Liberation Sans, sans-serif" font-size="353px" font-weight="400"><tspan class="TextPosition" x="9514" y="13627"><tspan fill="rgb(0,0,0)" stroke="none" style="white-space: pre">100%</tspan></tspan></tspan></text>
 <text class="SVGTextShape"><tspan class="TextParagraph" font-family="Liberation Sans, sans-serif" font-size="353px" font-weight="400"><tspan class="TextPosition" x="10842" y="13627"><tspan fill="rgb(0,0,0)" stroke="none" style="white-space: pre">120%</tspan></tspan></tspan></text>
 <text class="SVGTextShape"><tspan class="TextParagraph" font-family="Liberation Sans, sans-serif" font-size="353px" font-weight="400"><tspan class="TextPosition" x="12170" y="13627"><tspan fill="rgb(0,0,0)" stroke="none" style="white-space: pre">140%</tspan></tspan></tspan></text>
 <path fill="rgb(12,50,44)" stroke="none" d="M 13814,7838 L 13708,7838 13708,7627 13919,7627 13919,7838 13814,7838 Z"/>
 <path fill="rgb(19,148,72)" stroke="none" d="M 13814,7340 L 13708,7340 13708,7129 13919,7129 13919,7340 13814,7340 Z"/>
 <path fill="rgb(255,193,8)" stroke="none" d="M 13814,6843 L 13708,6843 13708,6632 13919,6632 13919,6843 13814,6843 Z"/>
 <path fill="rgb(0,138,207)" stroke="none" d="M 13814,6345 L 13708,6345 13708,6134 13919,6134 13919,6345 13814,6345 Z"/>
 <text class="SVGTextShape"><tspan class="TextParagraph" font-family="Liberation Sans, sans-serif" font-size="353px" font-weight="400"><tspan class="TextPosition" x="14019" y="6359"><tspan fill="rgb(0,0,0)" stroke="none" style="white-space: pre">LTO+PGO</tspan></tspan></tspan></text>
 <text class="SVGTextShape"><tspan class="TextParagraph" font-family="Liberation Sans, sans-serif" font-size="353px" font-weight="400"><tspan class="TextPosition" x="14019" y="6857"><tspan fill="rgb(0,0,0)" stroke="none" style="white-space: pre">PGO</tspan></tspan></tspan></text>
 <text class="SVGTextShape"><tspan class="TextParagraph" font-family="Liberation Sans, sans-serif" font-size="353px" font-weight="400"><tspan class="TextPosition" x="14019" y="7354"><tspan fill="rgb(0,0,0)" stroke="none" style="white-space: pre">LTO</tspan></tspan></tspan></text>
 <text class="SVGTextShape"><tspan class="TextParagraph" font-family="Liberation Sans, sans-serif" font-size="353px" font-weight="400"><tspan class="TextPosition" x="14019" y="7852"><tspan fill="rgb(0,0,0)" stroke="none" style="white-space: pre">Normal</tspan></tspan></tspan></text>
</svg>