<?xml version="1.0" encoding="UTF-8"?>
<!DOCTYPE svg PUBLIC "-//W3C//DTD SVG 1.1//EN" "http://www.w3.org/Graphics/SVG/1.1/DTD/svg11.dtd">
<svg width="160mm" height="43mm" viewBox="0 0 16000 4300" version="1.1" xmlns="http://www.w3.org/2000/svg" xmlns:xlink="http://www.w3.org/1999/xlink" stroke-width="28.222" stroke-linejoin="round" xml:space="preserve">
 <path fill="rgb(255,255,255)" stroke="none" d="M 8000,4346 L 0,4346 0,0 16000,0 16000,4346 8000,4346 Z"/>
 <path fill="none" stroke="rgb(179,179,179)" stroke-linejoin="round" d="M 9190,3613 L 3137,3613 3137,1367 15243,1367 15243,3613 9190,3613 Z"/>
 <path fill="none" stroke="rgb(179,179,179)" stroke-linejoin="round" d="M 3137,1366 L 3137,3612"/>
 <path fill="none" stroke="rgb(179,179,179)" stroke-linejoin="round" d="M 4866,1366 L 4866,3612"/>
 <path fill="none" stroke="rgb(179,179,179)" stroke-linejoin="round" d="M 6596,1366 L 6596,3612"/>
 <path fill="none" stroke="rgb(179,179,179)" stroke-linejoin="round" d="M 8324,1366 L 8324,3612"/>
 <path fill="none" stroke="rgb(179,179,179)" stroke-linejoin="round" d="M 10054,1366 L 10054,3612"/>
 <path fill="none" stroke="rgb(179,179,179)" stroke-linejoin="round" d="M 11783,1366 L 11783,3612"/>
 <path fill="none" stroke="rgb(179,179,179)" stroke-linejoin="round" d="M 13513,1366 L 13513,3612"/>
 <path fill="none" stroke="rgb(179,179,179)" stroke-linejoin="round" d="M 15243,1366 L 15243,3612"/>
 <path fill="none" stroke="rgb(179,179,179)" stroke-linejoin="round" d="M 2987,3612 L 3137,3612"/>
 <path fill="none" stroke="rgb(179,179,179)" stroke-linejoin="round" d="M 2987,3612 L 3137,3612"/>
 <path fill="none" stroke="rgb(179,179,179)" stroke-linejoin="round" d="M 2987,1366 L 3137,1366"/>
 <path fill="none" stroke="rgb(179,179,179)" stroke-linejoin="round" d="M 2987,1366 L 3137,1366"/>
 <path fill="none" stroke="rgb(179,179,179)" stroke-linejoin="round" d="M 3137,3612 L 3137,1366"/>
 <path fill="none" stroke="rgb(179,179,179)" stroke-linejoin="round" d="M 3137,3762 L 3137,3612"/>
 <path fill="none" stroke="rgb(179,179,179)" stroke-linejoin="round" d="M 3137,3762 L 3137,3612"/>
 <path fill="none" stroke="rgb(179,179,179)" stroke-linejoin="round" d="M 4866,3762 L 4866,3612"/>
 <path fill="none" stroke="rgb(179,179,179)" stroke-linejoin="round" d="M 4866,3762 L 4866,3612"/>
 <path fill="none" stroke="rgb(179,179,179)" stroke-linejoin="round" d="M 6596,3762 L 6596,3612"/>
 <path fill="none" stroke="rgb(179,179,179)" stroke-linejoin="round" d="M 6596,3762 L 6596,3612"/>
 <path fill="none" stroke="rgb(179,179,179)" stroke-linejoin="round" d="M 8324,3762 L 8324,3612"/>
 <path fill="none" stroke="rgb(179,179,179)" stroke-linejoin="round" d="M 8324,3762 L 8324,3612"/>
 <path fill="none" stroke="rgb(179,179,179)" stroke-linejoin="round" d="M 10054,3762 L 10054,3612"/>
 <path fill="none" stroke="rgb(179,179,179)" stroke-linejoin="round" d="M 10054,3762 L 10054,3612"/>
 <path fill="none" stroke="rgb(179,179,179)" stroke-linejoin="round" d="M 11783,3762 L 11783,3612"/>
 <path fill="none" stroke="rgb(179,179,179)" stroke-linejoin="round" d="M 11783,3762 L 11783,3612"/>
 <path fill="none" stroke="rgb(179,179,179)" stroke-linejoin="round" d="M 13513,3762 L 13513,3612"/>
 <path fill="none" stroke="rgb(179,179,179)" stroke-linejoin="round" d="M 13513,3762 L 13513,3612"/>
 <path fill="none" stroke="rgb(179,179,179)" stroke-linejoin="round" d="M 15243,3762 L 15243,3612"/>
 <path fill="none" stroke="rgb(179,179,179)" stroke-linejoin="round" d="M 15243,3762 L 15243,3612"/>
 <path fill="none" stroke="rgb(179,179,179)" stroke-linejoin="round" d="M 3137,3612 L 15243,3612"/>
 <path fill="rgb(0,138,207)" stroke="none" d="M 3137,3451 L 3137,3130 14025,3130 14025,3451 3137,3451 Z"/>
 <path fill="rgb(12,50,44)" stroke="none" d="M 3137,3130 L 3137,2809 11976,2809 11976,3130 3137,3130 Z"/>
 <path fill="rgb(19,148,72)" stroke="none" d="M 3137,2809 L 3137,2488 11783,2488 11783,2809 3137,2809 Z"/>
 <path fill="rgb(220,53,69)" stroke="none" d="M 3137,2488 L 3137,2168 13865,2168 13865,2488 3137,2488 Z"/>
 <path fill="rgb(255,193,8)" stroke="none" d="M 3137,2168 L 3137,1847 12184,1847 12184,2168 3137,2168 Z"/>
 <path fill="rgb(126,0,33)" stroke="none" d="M 3137,1847 L 3137,1526 11783,1526 11783,1847 3137,1847 Z"/>
 <text class="TextShape"><tspan class="TextParagraph" font-family="Liberation Sans, sans-serif" font-size="353px" font-weight="400"><tspan class="TextPosition" x="321" y="2609"><tspan fill="rgb(0,0,0)" stroke="none">speedometer 2.0</tspan></tspan></tspan></text>
 <text class="TextShape"><tspan class="TextParagraph" font-family="Liberation Sans, sans-serif" font-size="353px" font-weight="400"><tspan class="TextPosition" x="2885" y="4180"><tspan fill="rgb(0,0,0)" stroke="none">0%</tspan></tspan></tspan></text>
 <text class="TextShape"><tspan class="TextParagraph" font-family="Liberation Sans, sans-serif" font-size="353px" font-weight="400"><tspan class="TextPosition" x="4522" y="4180"><tspan fill="rgb(0,0,0)" stroke="none">20%</tspan></tspan></tspan></text>
 <text class="TextShape"><tspan class="TextParagraph" font-family="Liberation Sans, sans-serif" font-size="353px" font-weight="400"><tspan class="TextPosition" x="6252" y="4180"><tspan fill="rgb(0,0,0)" stroke="none">40%</tspan></tspan></tspan></text>
 <text class="TextShape"><tspan class="TextParagraph" font-family="Liberation Sans, sans-serif" font-size="353px" font-weight="400"><tspan class="TextPosition" x="7981" y="4180"><tspan fill="rgb(0,0,0)" stroke="none">60%</tspan></tspan></tspan></text>
 <text class="TextShape"><tspan class="TextParagraph" font-family="Liberation Sans, sans-serif" font-size="353px" font-weight="400"><tspan class="TextPosition" x="9711" y="4180"><tspan fill="rgb(0,0,0)" stroke="none">80%</tspan></tspan></tspan></text>
 <text class="TextShape"><tspan class="TextParagraph" font-family="Liberation Sans, sans-serif" font-size="353px" font-weight="400"><tspan class="TextPosition" x="11347" y="4180"><tspan fill="rgb(0,0,0)" stroke="none">100%</tspan></tspan></tspan></text>
 <text class="TextShape"><tspan class="TextParagraph" font-family="Liberation Sans, sans-serif" font-size="353px" font-weight="400"><tspan class="TextPosition" x="13077" y="4180"><tspan fill="rgb(0,0,0)" stroke="none">120%</tspan></tspan></tspan></text>
 <text class="TextShape"><tspan class="TextParagraph" font-family="Liberation Sans, sans-serif" font-size="353px" font-weight="400"><tspan class="TextPosition" x="14807" y="4180"><tspan fill="rgb(0,0,0)" stroke="none">140%</tspan></tspan></tspan></text>
 <path fill="rgb(0,138,207)" stroke="none" d="M 8771,1087 L 8665,1087 8665,876 8876,876 8876,1087 8771,1087 Z"/>
 <path fill="rgb(12,50,44)" stroke="none" d="M 5712,1087 L 5607,1087 5607,876 5818,876 5818,1087 5712,1087 Z"/>
 <path fill="rgb(19,148,72)" stroke="none" d="M 3632,1087 L 3527,1087 3527,876 3738,876 3738,1087 3632,1087 Z"/>
 <path fill="rgb(220,53,69)" stroke="none" d="M 8771,589 L 8665,589 8665,378 8876,378 8876,589 8771,589 Z"/>
 <path fill="rgb(255,193,8)" stroke="none" d="M 5712,589 L 5607,589 5607,378 5818,378 5818,589 5712,589 Z"/>
 <path fill="rgb(126,0,33)" stroke="none" d="M 3632,589 L 3527,589 3527,378 3738,378 3738,589 3632,589 Z"/>
 <text class="TextShape"><tspan class="TextParagraph" font-family="Liberation Sans, sans-serif" font-size="353px" font-weight="400"><tspan class="TextPosition" x="3838" y="603"><tspan fill="rgb(0,0,0)" stroke="none">Clang -O3</tspan></tspan></tspan></text>
 <text class="TextShape"><tspan class="TextParagraph" font-family="Liberation Sans, sans-serif" font-size="353px" font-weight="400"><tspan class="TextPosition" x="5918" y="603"><tspan fill="rgb(0,0,0)" stroke="none">Clang -O3 (LTO)</tspan></tspan></tspan></text>
 <text class="TextShape"><tspan class="TextParagraph" font-family="Liberation Sans, sans-serif" font-size="353px" font-weight="400"><tspan class="TextPosition" x="8976" y="603"><tspan fill="rgb(0,0,0)" stroke="none">Clang -O3 (LTO+PGO)</tspan></tspan></tspan></text>
 <text class="TextShape"><tspan class="TextParagraph" font-family="Liberation Sans, sans-serif" font-size="353px" font-weight="400"><tspan class="TextPosition" x="3838" y="1101"><tspan fill="rgb(0,0,0)" stroke="none">GCC -O3</tspan></tspan></tspan></text>
 <text class="TextShape"><tspan class="TextParagraph" font-family="Liberation Sans, sans-serif" font-size="353px" font-weight="400"><tspan class="TextPosition" x="5918" y="1101"><tspan fill="rgb(0,0,0)" stroke="none">GCC -O3 (LTO)</tspan></tspan></tspan></text>
 <text class="TextShape"><tspan class="TextParagraph" font-family="Liberation Sans, sans-serif" font-size="353px" font-weight="400"><tspan class="TextPosition" x="8976" y="1101"><tspan fill="rgb(0,0,0)" stroke="none">GCC -O3 (LTO+PGO)</tspan></tspan></tspan></text>
</svg>