<?xml version="1.0" encoding="UTF-8"?>
<!DOCTYPE svg PUBLIC "-//W3C//DTD SVG 1.1//EN" "http://www.w3.org/Graphics/SVG/1.1/DTD/svg11.dtd">
<svg width="160mm" height="70mm" viewBox="0 0 16000 7000" version="1.1" xmlns="http://www.w3.org/2000/svg" xmlns:xlink="http://www.w3.org/1999/xlink" stroke-width="28.222" stroke-linejoin="round" xml:space="preserve">
 <path fill="rgb(255,255,255)" stroke="none" d="M 8000,7000 L 0,7000 0,0 16000,0 16000,7000 8000,7000 Z"/>
 <path fill="none" stroke="rgb(179,179,179)" stroke-linejoin="round" d="M 7021,6661 L 1444,6661 1444,339 12597,339 12597,6661 7021,6661 Z"/>
 <path fill="none" stroke="rgb(179,179,179)" stroke-linejoin="round" d="M 12597,6659 L 1444,6659"/>
 <path fill="none" stroke="rgb(179,179,179)" stroke-linejoin="round" d="M 12597,5395 L 1444,5395"/>
 <path fill="none" stroke="rgb(179,179,179)" stroke-linejoin="round" d="M 12597,4130 L 1444,4130"/>
 <path fill="none" stroke="rgb(179,179,179)" stroke-linejoin="round" d="M 12597,2867 L 1444,2867"/>
 <path fill="none" stroke="rgb(179,179,179)" stroke-linejoin="round" d="M 12597,1602 L 1444,1602"/>
 <path fill="none" stroke="rgb(179,179,179)" stroke-linejoin="round" d="M 12597,338 L 1444,338"/>
 <path fill="none" stroke="rgb(179,179,179)" stroke-linejoin="round" d="M 1444,6809 L 1444,6659"/>
 <path fill="none" stroke="rgb(179,179,179)" stroke-linejoin="round" d="M 1444,6809 L 1444,6659"/>
 <path fill="none" stroke="rgb(179,179,179)" stroke-linejoin="round" d="M 12597,6809 L 12597,6659"/>
 <path fill="none" stroke="rgb(179,179,179)" stroke-linejoin="round" d="M 12597,6809 L 12597,6659"/>
 <path fill="none" stroke="rgb(179,179,179)" stroke-linejoin="round" d="M 1444,6659 L 12597,6659"/>
 <path fill="none" stroke="rgb(179,179,179)" stroke-linejoin="round" d="M 1294,6659 L 1444,6659"/>
 <path fill="none" stroke="rgb(179,179,179)" stroke-linejoin="round" d="M 1294,6659 L 1444,6659"/>
 <path fill="none" stroke="rgb(179,179,179)" stroke-linejoin="round" d="M 1294,5395 L 1444,5395"/>
 <path fill="none" stroke="rgb(179,179,179)" stroke-linejoin="round" d="M 1294,5395 L 1444,5395"/>
 <path fill="none" stroke="rgb(179,179,179)" stroke-linejoin="round" d="M 1294,4130 L 1444,4130"/>
 <path fill="none" stroke="rgb(179,179,179)" stroke-linejoin="round" d="M 1294,4130 L 1444,4130"/>
 <path fill="none" stroke="rgb(179,179,179)" stroke-linejoin="round" d="M 1294,2867 L 1444,2867"/>
 <path fill="none" stroke="rgb(179,179,179)" stroke-linejoin="round" d="M 1294,2867 L 1444,2867"/>
 <path fill="none" stroke="rgb(179,179,179)" stroke-linejoin="round" d="M 1294,1602 L 1444,1602"/>
 <path fill="none" stroke="rgb(179,179,179)" stroke-linejoin="round" d="M 1294,1602 L 1444,1602"/>
 <path fill="none" stroke="rgb(179,179,179)" stroke-linejoin="round" d="M 1294,338 L 1444,338"/>
 <path fill="none" stroke="rgb(179,179,179)" stroke-linejoin="round" d="M 1294,338 L 1444,338"/>
 <path fill="none" stroke="rgb(179,179,179)" stroke-linejoin="round" d="M 1444,6659 L 1444,338"/>
 <path fill="rgb(220,53,69)" stroke="none" d="M 3303,6659 L 7021,6659 7021,4130 3303,4130 3303,6659 Z"/>
 <path fill="rgb(12,50,44)" stroke="none" d="M 7021,6659 L 10738,6659 10738,3150 7021,3150 7021,6659 Z"/>
 <text class="SVGTextShape"><tspan class="TextParagraph" font-family="Liberation Sans, sans-serif" font-size="353px" font-weight="400"><tspan class="TextPosition" x="506" y="6780"><tspan fill="rgb(0,0,0)" stroke="none">80%</tspan></tspan></tspan></text>
 <text class="SVGTextShape"><tspan class="TextParagraph" font-family="Liberation Sans, sans-serif" font-size="353px" font-weight="400"><tspan class="TextPosition" x="506" y="5516"><tspan fill="rgb(0,0,0)" stroke="none">90%</tspan></tspan></tspan></text>
 <text class="SVGTextShape"><tspan class="TextParagraph" font-family="Liberation Sans, sans-serif" font-size="353px" font-weight="400"><tspan class="TextPosition" x="321" y="4251"><tspan fill="rgb(0,0,0)" stroke="none">100%</tspan></tspan></tspan></text>
 <text class="SVGTextShape"><tspan class="TextParagraph" font-family="Liberation Sans, sans-serif" font-size="353px" font-weight="400"><tspan class="TextPosition" x="321" y="2987"><tspan fill="rgb(0,0,0)" stroke="none">110%</tspan></tspan></tspan></text>
 <text class="SVGTextShape"><tspan class="TextParagraph" font-family="Liberation Sans, sans-serif" font-size="353px" font-weight="400"><tspan class="TextPosition" x="321" y="1722"><tspan fill="rgb(0,0,0)" stroke="none">120%</tspan></tspan></tspan></text>
 <text class="SVGTextShape"><tspan class="TextParagraph" font-family="Liberation Sans, sans-serif" font-size="353px" font-weight="400"><tspan class="TextPosition" x="321" y="458"><tspan fill="rgb(0,0,0)" stroke="none">130%</tspan></tspan></tspan></text>
 <path fill="rgb(220,53,69)" stroke="none" d="M 13139,3356 L 13033,3356 13033,3145 13244,3145 13244,3356 13139,3356 Z"/>
 <path fill="rgb(12,50,44)" stroke="none" d="M 13139,3853 L 13033,3853 13033,3642 13244,3642 13244,3853 13139,3853 Z"/>
 <text class="SVGTextShape"><tspan class="TextParagraph" font-family="Liberation Sans, sans-serif" font-size="353px" font-weight="400"><tspan class="TextPosition" x="13344" y="3370"><tspan fill="rgb(0,0,0)" stroke="none">Plain -O3</tspan></tspan></tspan></text>
 <text class="SVGTextShape"><tspan class="TextParagraph" font-family="Liberation Sans, sans-serif" font-size="353px" font-weight="400"><tspan class="TextPosition" x="13344" y="3867"><tspan fill="rgb(0,0,0)" stroke="none">-O3 -ffast-math</tspan></tspan></tspan></text>
</svg>