<?xml version="1.0" encoding="UTF-8"?>
<!DOCTYPE svg PUBLIC "-//W3C//DTD SVG 1.1//EN" "http://www.w3.org/Graphics/SVG/1.1/DTD/svg11.dtd">
<svg width="160mm" height="70mm" viewBox="0 0 16000 7000" version="1.1" xmlns="http://www.w3.org/2000/svg" xmlns:xlink="http://www.w3.org/1999/xlink" stroke-width="28.222" stroke-linejoin="round" xml:space="preserve">
 <path fill="rgb(255,255,255)" stroke="none" d="M 8000,6992 L 0,6992 0,12 15999,12 15999,6992 8000,6992 Z"/>
 <path fill="none" stroke="rgb(179,179,179)" stroke-linejoin="round" d="M 7793,6208 L 3005,6208 3005,151 12581,151 12581,6208 7793,6208 Z"/>
 <path fill="none" stroke="rgb(179,179,179)" stroke-linejoin="round" d="M 3005,149 L 3005,6206"/>
 <path fill="none" stroke="rgb(179,179,179)" stroke-linejoin="round" d="M 4373,149 L 4373,6206"/>
 <path fill="none" stroke="rgb(179,179,179)" stroke-linejoin="round" d="M 5741,149 L 5741,6206"/>
 <path fill="none" stroke="rgb(179,179,179)" stroke-linejoin="round" d="M 7109,149 L 7109,6206"/>
 <path fill="none" stroke="rgb(179,179,179)" stroke-linejoin="round" d="M 8476,149 L 8476,6206"/>
 <path fill="none" stroke="rgb(179,179,179)" stroke-linejoin="round" d="M 9844,149 L 9844,6206"/>
 <path fill="none" stroke="rgb(179,179,179)" stroke-linejoin="round" d="M 11212,149 L 11212,6206"/>
 <path fill="none" stroke="rgb(179,179,179)" stroke-linejoin="round" d="M 12581,149 L 12581,6206"/>
 <path fill="none" stroke="rgb(179,179,179)" stroke-linejoin="round" d="M 2855,149 L 3005,149"/>
 <path fill="none" stroke="rgb(179,179,179)" stroke-linejoin="round" d="M 2855,149 L 3005,149"/>
 <path fill="none" stroke="rgb(179,179,179)" stroke-linejoin="round" d="M 2855,1361 L 3005,1361"/>
 <path fill="none" stroke="rgb(179,179,179)" stroke-linejoin="round" d="M 2855,1361 L 3005,1361"/>
 <path fill="none" stroke="rgb(179,179,179)" stroke-linejoin="round" d="M 2855,2573 L 3005,2573"/>
 <path fill="none" stroke="rgb(179,179,179)" stroke-linejoin="round" d="M 2855,2573 L 3005,2573"/>
 <path fill="none" stroke="rgb(179,179,179)" stroke-linejoin="round" d="M 2855,3783 L 3005,3783"/>
 <path fill="none" stroke="rgb(179,179,179)" stroke-linejoin="round" d="M 2855,3783 L 3005,3783"/>
 <path fill="none" stroke="rgb(179,179,179)" stroke-linejoin="round" d="M 2855,4995 L 3005,4995"/>
 <path fill="none" stroke="rgb(179,179,179)" stroke-linejoin="round" d="M 2855,4995 L 3005,4995"/>
 <path fill="none" stroke="rgb(179,179,179)" stroke-linejoin="round" d="M 2855,6206 L 3005,6206"/>
 <path fill="none" stroke="rgb(179,179,179)" stroke-linejoin="round" d="M 2855,6206 L 3005,6206"/>
 <path fill="none" stroke="rgb(179,179,179)" stroke-linejoin="round" d="M 3005,6206 L 3005,149"/>
 <path fill="none" stroke="rgb(179,179,179)" stroke-linejoin="round" d="M 3005,6356 L 3005,6207"/>
 <path fill="none" stroke="rgb(179,179,179)" stroke-linejoin="round" d="M 3005,0 L 3005,149"/>
 <path fill="none" stroke="rgb(179,179,179)" stroke-linejoin="round" d="M 4373,6356 L 4373,6207"/>
 <path fill="none" stroke="rgb(179,179,179)" stroke-linejoin="round" d="M 4373,0 L 4373,149"/>
 <path fill="none" stroke="rgb(179,179,179)" stroke-linejoin="round" d="M 5741,6356 L 5741,6207"/>
 <path fill="none" stroke="rgb(179,179,179)" stroke-linejoin="round" d="M 5741,0 L 5741,149"/>
 <path fill="none" stroke="rgb(179,179,179)" stroke-linejoin="round" d="M 7109,6356 L 7109,6207"/>
 <path fill="none" stroke="rgb(179,179,179)" stroke-linejoin="round" d="M 7109,0 L 7109,149"/>
 <path fill="none" stroke="rgb(179,179,179)" stroke-linejoin="round" d="M 8476,6356 L 8476,6207"/>
 <path fill="none" stroke="rgb(179,179,179)" stroke-linejoin="round" d="M 8476,0 L 8476,149"/>
 <path fill="none" stroke="rgb(179,179,179)" stroke-linejoin="round" d="M 9844,6356 L 9844,6207"/>
 <path fill="none" stroke="rgb(179,179,179)" stroke-linejoin="round" d="M 9844,0 L 9844,149"/>
 <path fill="none" stroke="rgb(179,179,179)" stroke-linejoin="round" d="M 11212,6356 L 11212,6207"/>
 <path fill="none" stroke="rgb(179,179,179)" stroke-linejoin="round" d="M 11212,0 L 11212,149"/>
 <path fill="none" stroke="rgb(179,179,179)" stroke-linejoin="round" d="M 12581,6356 L 12581,6207"/>
 <path fill="none" stroke="rgb(179,179,179)" stroke-linejoin="round" d="M 12581,0 L 12581,149"/>
 <path fill="none" stroke="rgb(179,179,179)" stroke-linejoin="round" d="M 3005,149 L 12581,149"/>
 <path fill="rgb(222,0,128)" stroke="none" d="M 3005,5116 L 3005,5358 9844,5358 9844,5116 3005,5116 Z"/>
 <path fill="rgb(222,0,128)" stroke="none" d="M 3005,3905 L 3005,4146 9844,4146 9844,3905 3005,3905 Z"/>
 <path fill="rgb(222,0,128)" stroke="none" d="M 3005,2693 L 3005,2936 9844,2936 9844,2693 3005,2693 Z"/>
 <path fill="rgb(222,0,128)" stroke="none" d="M 3005,1482 L 3005,1724 9844,1724 9844,1482 3005,1482 Z"/>
 <path fill="rgb(222,0,128)" stroke="none" d="M 3005,271 L 3005,514 9844,514 9844,271 3005,271 Z"/>
 <path fill="rgb(112,23,108)" stroke="none" d="M 3005,5358 L 3005,5601 10085,5601 10085,5358 3005,5358 Z"/>
 <path fill="rgb(112,23,108)" stroke="none" d="M 3005,4146 L 3005,4389 10084,4389 10084,4146 3005,4146 Z"/>
 <path fill="rgb(112,23,108)" stroke="none" d="M 3005,2936 L 3005,3177 11725,3177 11725,2936 3005,2936 Z"/>
 <path fill="rgb(112,23,108)" stroke="none" d="M 3005,1724 L 3005,1967 9945,1967 9945,1724 3005,1724 Z"/>
 <path fill="rgb(112,23,108)" stroke="none" d="M 3005,514 L 3005,755 9990,755 9990,514 3005,514 Z"/>
 <path fill="rgb(19,148,72)" stroke="none" d="M 3005,5601 L 3005,5842 9303,5842 9303,5601 3005,5601 Z"/>
 <path fill="rgb(19,148,72)" stroke="none" d="M 3005,4389 L 3005,4632 10294,4632 10294,4389 3005,4389 Z"/>
 <path fill="rgb(19,148,72)" stroke="none" d="M 3005,3177 L 3005,3420 9918,3420 9918,3177 3005,3177 Z"/>
 <path fill="rgb(19,148,72)" stroke="none" d="M 3005,1967 L 3005,2209 10317,2209 10317,1967 3005,1967 Z"/>
 <path fill="rgb(19,148,72)" stroke="none" d="M 3005,755 L 3005,998 11012,998 11012,755 3005,755 Z"/>
 <path fill="rgb(12,50,44)" stroke="none" d="M 3005,5842 L 3005,6085 9709,6085 9709,5842 3005,5842 Z"/>
 <path fill="rgb(12,50,44)" stroke="none" d="M 3005,4632 L 3005,4874 10444,4874 10444,4632 3005,4632 Z"/>
 <path fill="rgb(12,50,44)" stroke="none" d="M 3005,3420 L 3005,3662 11118,3662 11118,3420 3005,3420 Z"/>
 <path fill="rgb(12,50,44)" stroke="none" d="M 3005,2209 L 3005,2451 10561,2451 10561,2209 3005,2209 Z"/>
 <path fill="rgb(12,50,44)" stroke="none" d="M 3005,998 L 3005,1240 11176,1240 11176,998 3005,998 Z"/>
 <text class="TextShape"><tspan class="TextParagraph" font-family="Liberation Sans, sans-serif" font-size="352px" font-weight="400"><tspan class="TextPosition" x="321" y="875"><tspan fill="rgb(0,0,0)" stroke="none">500.perlbench_r</tspan></tspan></tspan></text>
 <text class="TextShape"><tspan class="TextParagraph" font-family="Liberation Sans, sans-serif" font-size="352px" font-weight="400"><tspan class="TextPosition" x="1247" y="2087"><tspan fill="rgb(0,0,0)" stroke="none">502.gcc_r</tspan></tspan></tspan></text>
 <text class="TextShape"><tspan class="TextParagraph" font-family="Liberation Sans, sans-serif" font-size="352px" font-weight="400"><tspan class="TextPosition" x="1220" y="3298"><tspan fill="rgb(0,0,0)" stroke="none">505.mcf_r</tspan></tspan></tspan></text>
 <text class="TextShape"><tspan class="TextParagraph" font-family="Liberation Sans, sans-serif" font-size="352px" font-weight="400"><tspan class="TextPosition" x="480" y="4509"><tspan fill="rgb(0,0,0)" stroke="none">520.omnetpp_r</tspan></tspan></tspan></text>
 <text class="TextShape"><tspan class="TextParagraph" font-family="Liberation Sans, sans-serif" font-size="352px" font-weight="400"><tspan class="TextPosition" x="136" y="5721"><tspan fill="rgb(0,0,0)" stroke="none">523.xalancbmk_r</tspan></tspan></tspan></text>
 <text class="TextShape"><tspan class="TextParagraph" font-family="Liberation Sans, sans-serif" font-size="352px" font-weight="400"><tspan class="TextPosition" x="2753" y="6773"><tspan fill="rgb(0,0,0)" stroke="none">0%</tspan></tspan></tspan></text>
 <text class="TextShape"><tspan class="TextParagraph" font-family="Liberation Sans, sans-serif" font-size="352px" font-weight="400"><tspan class="TextPosition" x="4029" y="6773"><tspan fill="rgb(0,0,0)" stroke="none">20%</tspan></tspan></tspan></text>
 <text class="TextShape"><tspan class="TextParagraph" font-family="Liberation Sans, sans-serif" font-size="352px" font-weight="400"><tspan class="TextPosition" x="5397" y="6773"><tspan fill="rgb(0,0,0)" stroke="none">40%</tspan></tspan></tspan></text>
 <text class="TextShape"><tspan class="TextParagraph" font-family="Liberation Sans, sans-serif" font-size="352px" font-weight="400"><tspan class="TextPosition" x="6765" y="6773"><tspan fill="rgb(0,0,0)" stroke="none">60%</tspan></tspan></tspan></text>
 <text class="TextShape"><tspan class="TextParagraph" font-family="Liberation Sans, sans-serif" font-size="352px" font-weight="400"><tspan class="TextPosition" x="8133" y="6773"><tspan fill="rgb(0,0,0)" stroke="none">80%</tspan></tspan></tspan></text>
 <text class="TextShape"><tspan class="TextParagraph" font-family="Liberation Sans, sans-serif" font-size="352px" font-weight="400"><tspan class="TextPosition" x="9408" y="6773"><tspan fill="rgb(0,0,0)" stroke="none">100%</tspan></tspan></tspan></text>
 <text class="TextShape"><tspan class="TextParagraph" font-family="Liberation Sans, sans-serif" font-size="352px" font-weight="400"><tspan class="TextPosition" x="10776" y="6773"><tspan fill="rgb(0,0,0)" stroke="none">120%</tspan></tspan></tspan></text>
 <text class="TextShape"><tspan class="TextParagraph" font-family="Liberation Sans, sans-serif" font-size="352px" font-weight="400"><tspan class="TextPosition" x="12145" y="6773"><tspan fill="rgb(0,0,0)" stroke="none">140%</tspan></tspan></tspan></text>
 <path fill="rgb(222,0,128)" stroke="none" d="M 13746,4352 L 13640,4352 13640,4142 13851,4142 13851,4352 13746,4352 Z"/>
 <path fill="rgb(112,23,108)" stroke="none" d="M 13746,3855 L 13640,3855 13640,3644 13851,3644 13851,3855 13746,3855 Z"/>
 <path fill="rgb(19,148,72)" stroke="none" d="M 13746,3358 L 13640,3358 13640,3147 13851,3147 13851,3358 13746,3358 Z"/>
 <path fill="rgb(12,50,44)" stroke="none" d="M 13746,2861 L 13640,2861 13640,2650 13851,2650 13851,2861 13746,2861 Z"/>
 <text class="TextShape"><tspan class="TextParagraph" font-family="Liberation Sans, sans-serif" font-size="352px" font-weight="400"><tspan class="TextPosition" x="13951" y="2875"><tspan fill="rgb(0,0,0)" stroke="none">GCC (LTO)</tspan></tspan></tspan></text>
 <text class="TextShape"><tspan class="TextParagraph" font-family="Liberation Sans, sans-serif" font-size="352px" font-weight="400"><tspan class="TextPosition" x="13951" y="3372"><tspan fill="rgb(0,0,0)" stroke="none">GCC</tspan></tspan></tspan></text>
 <text class="TextShape"><tspan class="TextParagraph" font-family="Liberation Sans, sans-serif" font-size="352px" font-weight="400"><tspan class="TextPosition" x="13951" y="3869"><tspan fill="rgb(0,0,0)" stroke="none">ICC (LTO)</tspan></tspan></tspan></text>
 <text class="TextShape"><tspan class="TextParagraph" font-family="Liberation Sans, sans-serif" font-size="352px" font-weight="400"><tspan class="TextPosition" x="13951" y="4366"><tspan fill="rgb(0,0,0)" stroke="none">ICC</tspan></tspan></tspan></text>
</svg>