<?xml version="1.0" encoding="UTF-8"?>
<!DOCTYPE svg PUBLIC "-//W3C//DTD SVG 1.1//EN" "http://www.w3.org/Graphics/SVG/1.1/DTD/svg11.dtd">
<svg width="160mm" height="107mm" viewBox="0 0 16000 10700" version="1.1" xmlns="http://www.w3.org/2000/svg" xmlns:xlink="http://www.w3.org/1999/xlink" stroke-width="28.222" stroke-linejoin="round" xml:space="preserve">
 <path fill="rgb(255,255,255)" stroke="none" d="M 7987,10687 L -13,10687 -13,-13 15986,-13 15986,10687 7987,10687 Z"/>
 <path fill="none" stroke="rgb(179,179,179)" stroke-linejoin="round" d="M 8184,9826 L 3177,9826 3177,201 13191,201 13191,9826 8184,9826 Z"/>
 <path fill="none" stroke="rgb(179,179,179)" stroke-linejoin="round" d="M 3177,199 L 3177,9825"/>
 <path fill="none" stroke="rgb(179,179,179)" stroke-linejoin="round" d="M 5453,199 L 5453,9825"/>
 <path fill="none" stroke="rgb(179,179,179)" stroke-linejoin="round" d="M 7729,199 L 7729,9825"/>
 <path fill="none" stroke="rgb(179,179,179)" stroke-linejoin="round" d="M 10004,199 L 10004,9825"/>
 <path fill="none" stroke="rgb(179,179,179)" stroke-linejoin="round" d="M 12280,199 L 12280,9825"/>
 <path fill="none" stroke="rgb(179,179,179)" stroke-linejoin="round" d="M 3027,200 L 3177,200"/>
 <path fill="none" stroke="rgb(179,179,179)" stroke-linejoin="round" d="M 3027,200 L 3177,200"/>
 <path fill="none" stroke="rgb(179,179,179)" stroke-linejoin="round" d="M 3027,1162 L 3177,1162"/>
 <path fill="none" stroke="rgb(179,179,179)" stroke-linejoin="round" d="M 3027,1162 L 3177,1162"/>
 <path fill="none" stroke="rgb(179,179,179)" stroke-linejoin="round" d="M 3027,2125 L 3177,2125"/>
 <path fill="none" stroke="rgb(179,179,179)" stroke-linejoin="round" d="M 3027,2125 L 3177,2125"/>
 <path fill="none" stroke="rgb(179,179,179)" stroke-linejoin="round" d="M 3027,3087 L 3177,3087"/>
 <path fill="none" stroke="rgb(179,179,179)" stroke-linejoin="round" d="M 3027,3087 L 3177,3087"/>
 <path fill="none" stroke="rgb(179,179,179)" stroke-linejoin="round" d="M 3027,4050 L 3177,4050"/>
 <path fill="none" stroke="rgb(179,179,179)" stroke-linejoin="round" d="M 3027,4050 L 3177,4050"/>
 <path fill="none" stroke="rgb(179,179,179)" stroke-linejoin="round" d="M 3027,5013 L 3177,5013"/>
 <path fill="none" stroke="rgb(179,179,179)" stroke-linejoin="round" d="M 3027,5013 L 3177,5013"/>
 <path fill="none" stroke="rgb(179,179,179)" stroke-linejoin="round" d="M 3027,5974 L 3177,5974"/>
 <path fill="none" stroke="rgb(179,179,179)" stroke-linejoin="round" d="M 3027,5974 L 3177,5974"/>
 <path fill="none" stroke="rgb(179,179,179)" stroke-linejoin="round" d="M 3027,6937 L 3177,6937"/>
 <path fill="none" stroke="rgb(179,179,179)" stroke-linejoin="round" d="M 3027,6937 L 3177,6937"/>
 <path fill="none" stroke="rgb(179,179,179)" stroke-linejoin="round" d="M 3027,7899 L 3177,7899"/>
 <path fill="none" stroke="rgb(179,179,179)" stroke-linejoin="round" d="M 3027,7899 L 3177,7899"/>
 <path fill="none" stroke="rgb(179,179,179)" stroke-linejoin="round" d="M 3027,8862 L 3177,8862"/>
 <path fill="none" stroke="rgb(179,179,179)" stroke-linejoin="round" d="M 3027,8862 L 3177,8862"/>
 <path fill="none" stroke="rgb(179,179,179)" stroke-linejoin="round" d="M 3027,9825 L 3177,9825"/>
 <path fill="none" stroke="rgb(179,179,179)" stroke-linejoin="round" d="M 3027,9825 L 3177,9825"/>
 <path fill="none" stroke="rgb(179,179,179)" stroke-linejoin="round" d="M 3177,9825 L 3177,199"/>
 <path fill="none" stroke="rgb(179,179,179)" stroke-linejoin="round" d="M 3177,9975 L 3177,9825"/>
 <path fill="none" stroke="rgb(179,179,179)" stroke-linejoin="round" d="M 3177,49 L 3177,199"/>
 <path fill="none" stroke="rgb(179,179,179)" stroke-linejoin="round" d="M 5453,9975 L 5453,9825"/>
 <path fill="none" stroke="rgb(179,179,179)" stroke-linejoin="round" d="M 5453,49 L 5453,199"/>
 <path fill="none" stroke="rgb(179,179,179)" stroke-linejoin="round" d="M 7729,9975 L 7729,9825"/>
 <path fill="none" stroke="rgb(179,179,179)" stroke-linejoin="round" d="M 7729,49 L 7729,199"/>
 <path fill="none" stroke="rgb(179,179,179)" stroke-linejoin="round" d="M 10004,9975 L 10004,9825"/>
 <path fill="none" stroke="rgb(179,179,179)" stroke-linejoin="round" d="M 10004,49 L 10004,199"/>
 <path fill="none" stroke="rgb(179,179,179)" stroke-linejoin="round" d="M 12280,9975 L 12280,9825"/>
 <path fill="none" stroke="rgb(179,179,179)" stroke-linejoin="round" d="M 12280,49 L 12280,199"/>
 <path fill="none" stroke="rgb(179,179,179)" stroke-linejoin="round" d="M 3177,199 L 13191,199"/>
 <path fill="rgb(222,0,128)" stroke="none" d="M 3177,320 L 3177,560 7729,560 7729,320 3177,320 Z"/>
 <path fill="rgb(222,0,128)" stroke="none" d="M 3177,1282 L 3177,1523 7729,1523 7729,1282 3177,1282 Z"/>
 <path fill="rgb(222,0,128)" stroke="none" d="M 3177,2245 L 3177,2486 7729,2486 7729,2245 3177,2245 Z"/>
 <path fill="rgb(222,0,128)" stroke="none" d="M 3177,3208 L 3177,3448 7729,3448 7729,3208 3177,3208 Z"/>
 <path fill="rgb(222,0,128)" stroke="none" d="M 3177,4170 L 3177,4411 7729,4411 7729,4170 3177,4170 Z"/>
 <path fill="rgb(222,0,128)" stroke="none" d="M 3177,5133 L 3177,5372 7729,5372 7729,5133 3177,5133 Z"/>
 <path fill="rgb(222,0,128)" stroke="none" d="M 3177,6094 L 3177,6335 7729,6335 7729,6094 3177,6094 Z"/>
 <path fill="rgb(222,0,128)" stroke="none" d="M 3177,7057 L 3177,7298 7729,7298 7729,7057 3177,7057 Z"/>
 <path fill="rgb(222,0,128)" stroke="none" d="M 3177,8020 L 3177,8260 7729,8260 7729,8020 3177,8020 Z"/>
 <path fill="rgb(222,0,128)" stroke="none" d="M 3177,8982 L 3177,9223 7729,9223 7729,8982 3177,8982 Z"/>
 <path fill="rgb(112,23,108)" stroke="none" d="M 3177,560 L 3177,801 8102,801 8102,560 3177,560 Z"/>
 <path fill="rgb(112,23,108)" stroke="none" d="M 3177,1523 L 3177,1764 8053,1764 8053,1523 3177,1523 Z"/>
 <path fill="rgb(112,23,108)" stroke="none" d="M 3177,2486 L 3177,2726 7729,2726 7729,2486 3177,2486 Z"/>
 <path fill="rgb(112,23,108)" stroke="none" d="M 3177,3448 L 3177,3689 8695,3689 8695,3448 3177,3448 Z"/>
 <path fill="rgb(112,23,108)" stroke="none" d="M 3177,4411 L 3177,4652 8323,4652 8323,4411 3177,4411 Z"/>
 <path fill="rgb(112,23,108)" stroke="none" d="M 3177,5372 L 3177,5613 12660,5613 12660,5372 3177,5372 Z"/>
 <path fill="rgb(112,23,108)" stroke="none" d="M 3177,6335 L 3177,6576 8080,6576 8080,6335 3177,6335 Z"/>
 <path fill="rgb(112,23,108)" stroke="none" d="M 3177,7298 L 3177,7538 7771,7538 7771,7298 3177,7298 Z"/>
 <path fill="rgb(112,23,108)" stroke="none" d="M 3177,8260 L 3177,8501 10447,8501 10447,8260 3177,8260 Z"/>
 <path fill="rgb(112,23,108)" stroke="none" d="M 3177,9223 L 3177,9464 7963,9464 7963,9223 3177,9223 Z"/>
 <path fill="rgb(19,148,72)" stroke="none" d="M 3177,801 L 3177,1042 8165,1042 8165,801 3177,801 Z"/>
 <path fill="rgb(19,148,72)" stroke="none" d="M 3177,1764 L 3177,2004 8181,2004 8181,1764 3177,1764 Z"/>
 <path fill="rgb(19,148,72)" stroke="none" d="M 3177,2726 L 3177,2967 7688,2967 7688,2726 3177,2726 Z"/>
 <path fill="rgb(19,148,72)" stroke="none" d="M 3177,3689 L 3177,3930 8614,3930 8614,3689 3177,3689 Z"/>
 <path fill="rgb(19,148,72)" stroke="none" d="M 3177,4652 L 3177,4892 7892,4892 7892,4652 3177,4652 Z"/>
 <path fill="rgb(19,148,72)" stroke="none" d="M 3177,5613 L 3177,5854 8938,5854 8938,5613 3177,5613 Z"/>
 <path fill="rgb(19,148,72)" stroke="none" d="M 3177,6576 L 3177,6816 8335,6816 8335,6576 3177,6576 Z"/>
 <path fill="rgb(19,148,72)" stroke="none" d="M 3177,7538 L 3177,7779 7712,7779 7712,7538 3177,7538 Z"/>
 <path fill="rgb(19,148,72)" stroke="none" d="M 3177,8501 L 3177,8742 10750,8742 10750,8501 3177,8501 Z"/>
 <path fill="rgb(19,148,72)" stroke="none" d="M 3177,9464 L 3177,9704 7776,9704 7776,9464 3177,9464 Z"/>
 <text class="SVGTextShape"><tspan class="TextParagraph" font-family="Liberation Sans, sans-serif" font-size="353px" font-weight="400"><tspan class="TextPosition" x="493" y="801"><tspan fill="rgb(0,0,0)" stroke="none" style="white-space: pre">500.perlbench_r</tspan></tspan></tspan></text>
 <text class="SVGTextShape"><tspan class="TextParagraph" font-family="Liberation Sans, sans-serif" font-size="353px" font-weight="400"><tspan class="TextPosition" x="1419" y="1763"><tspan fill="rgb(0,0,0)" stroke="none" style="white-space: pre">502.gcc_r</tspan></tspan></tspan></text>
 <text class="SVGTextShape"><tspan class="TextParagraph" font-family="Liberation Sans, sans-serif" font-size="353px" font-weight="400"><tspan class="TextPosition" x="1392" y="2726"><tspan fill="rgb(0,0,0)" stroke="none" style="white-space: pre">505.mcf_r</tspan></tspan></tspan></text>
 <text class="SVGTextShape"><tspan class="TextParagraph" font-family="Liberation Sans, sans-serif" font-size="353px" font-weight="400"><tspan class="TextPosition" x="652" y="3689"><tspan fill="rgb(0,0,0)" stroke="none" style="white-space: pre">520.omnetpp_r</tspan></tspan></tspan></text>
 <text class="SVGTextShape"><tspan class="TextParagraph" font-family="Liberation Sans, sans-serif" font-size="353px" font-weight="400"><tspan class="TextPosition" x="308" y="4651"><tspan fill="rgb(0,0,0)" stroke="none" style="white-space: pre">523.xalancbmk_r</tspan></tspan></tspan></text>
 <text class="SVGTextShape"><tspan class="TextParagraph" font-family="Liberation Sans, sans-serif" font-size="353px" font-weight="400"><tspan class="TextPosition" x="1234" y="5613"><tspan fill="rgb(0,0,0)" stroke="none" style="white-space: pre">525.x264_r</tspan></tspan></tspan></text>
 <text class="SVGTextShape"><tspan class="TextParagraph" font-family="Liberation Sans, sans-serif" font-size="353px" font-weight="400"><tspan class="TextPosition" x="413" y="6575"><tspan fill="rgb(0,0,0)" stroke="none" style="white-space: pre">531.deepsjeng_r</tspan></tspan></tspan></text>
 <text class="SVGTextShape"><tspan class="TextParagraph" font-family="Liberation Sans, sans-serif" font-size="353px" font-weight="400"><tspan class="TextPosition" x="1260" y="7538"><tspan fill="rgb(0,0,0)" stroke="none" style="white-space: pre">541.leela_r</tspan></tspan></tspan></text>
 <text class="SVGTextShape"><tspan class="TextParagraph" font-family="Liberation Sans, sans-serif" font-size="353px" font-weight="400"><tspan class="TextPosition" x="308" y="8501"><tspan fill="rgb(0,0,0)" stroke="none" style="white-space: pre">548.exchange2_r</tspan></tspan></tspan></text>
 <text class="SVGTextShape"><tspan class="TextParagraph" font-family="Liberation Sans, sans-serif" font-size="353px" font-weight="400"><tspan class="TextPosition" x="1604" y="9463"><tspan fill="rgb(0,0,0)" stroke="none" style="white-space: pre">557.xz_r</tspan></tspan></tspan></text>
 <text class="SVGTextShape"><tspan class="TextParagraph" font-family="Liberation Sans, sans-serif" font-size="353px" font-weight="400"><tspan class="TextPosition" x="2925" y="10393"><tspan fill="rgb(0,0,0)" stroke="none" style="white-space: pre">0%</tspan></tspan></tspan></text>
 <text class="SVGTextShape"><tspan class="TextParagraph" font-family="Liberation Sans, sans-serif" font-size="353px" font-weight="400"><tspan class="TextPosition" x="5109" y="10393"><tspan fill="rgb(0,0,0)" stroke="none" style="white-space: pre">50%</tspan></tspan></tspan></text>
 <text class="SVGTextShape"><tspan class="TextParagraph" font-family="Liberation Sans, sans-serif" font-size="353px" font-weight="400"><tspan class="TextPosition" x="7292" y="10393"><tspan fill="rgb(0,0,0)" stroke="none" style="white-space: pre">100%</tspan></tspan></tspan></text>
 <text class="SVGTextShape"><tspan class="TextParagraph" font-family="Liberation Sans, sans-serif" font-size="353px" font-weight="400"><tspan class="TextPosition" x="9567" y="10393"><tspan fill="rgb(0,0,0)" stroke="none" style="white-space: pre">150%</tspan></tspan></tspan></text>
 <text class="SVGTextShape"><tspan class="TextParagraph" font-family="Liberation Sans, sans-serif" font-size="353px" font-weight="400"><tspan class="TextPosition" x="11843" y="10393"><tspan fill="rgb(0,0,0)" stroke="none" style="white-space: pre">200%</tspan></tspan></tspan></text>
 <path fill="rgb(222,0,128)" stroke="none" d="M 13733,5939 L 13627,5939 13627,5728 13838,5728 13838,5939 13733,5939 Z"/>
 <path fill="rgb(112,23,108)" stroke="none" d="M 13733,5441 L 13627,5441 13627,5231 13838,5231 13838,5441 13733,5441 Z"/>
 <path fill="rgb(19,148,72)" stroke="none" d="M 13733,4944 L 13627,4944 13627,4733 13838,4733 13838,4944 13733,4944 Z"/>
 <text class="SVGTextShape"><tspan class="TextParagraph" font-family="Liberation Sans, sans-serif" font-size="353px" font-weight="400"><tspan class="TextPosition" x="13938" y="4958"><tspan fill="rgb(0,0,0)" stroke="none" style="white-space: pre">GCC (LTO)</tspan></tspan></tspan></text>
 <text class="SVGTextShape"><tspan class="TextParagraph" font-family="Liberation Sans, sans-serif" font-size="353px" font-weight="400"><tspan class="TextPosition" x="13938" y="5455"><tspan fill="rgb(0,0,0)" stroke="none" style="white-space: pre">ICX (LTO)</tspan></tspan></tspan></text>
 <text class="SVGTextShape"><tspan class="TextParagraph" font-family="Liberation Sans, sans-serif" font-size="353px" font-weight="400"><tspan class="TextPosition" x="13938" y="5953"><tspan fill="rgb(0,0,0)" stroke="none" style="white-space: pre">ICC (LTO)</tspan></tspan></tspan></text>
</svg>