<?xml version="1.0" encoding="UTF-8"?>
<!DOCTYPE svg PUBLIC "-//W3C//DTD SVG 1.1//EN" "http://www.w3.org/Graphics/SVG/1.1/DTD/svg11.dtd">
<svg width="160mm" height="107mm" viewBox="0 0 16000 10700" version="1.1" xmlns="http://www.w3.org/2000/svg" xmlns:xlink="http://www.w3.org/1999/xlink" stroke-width="28.222" stroke-linejoin="round" xml:space="preserve">
 <path fill="rgb(255,255,255)" stroke="none" d="M 8000,10700 L 0,10700 0,0 16000,0 16000,10700 8000,10700 Z"/>
 <path fill="none" stroke="rgb(179,179,179)" stroke-linejoin="round" d="M 7834,9839 L 3005,9839 3005,214 12662,214 12662,9839 7834,9839 Z"/>
 <path fill="none" stroke="rgb(179,179,179)" stroke-linejoin="round" d="M 3005,212 L 3005,9838"/>
 <path fill="none" stroke="rgb(179,179,179)" stroke-linejoin="round" d="M 4384,212 L 4384,9838"/>
 <path fill="none" stroke="rgb(179,179,179)" stroke-linejoin="round" d="M 5764,212 L 5764,9838"/>
 <path fill="none" stroke="rgb(179,179,179)" stroke-linejoin="round" d="M 7144,212 L 7144,9838"/>
 <path fill="none" stroke="rgb(179,179,179)" stroke-linejoin="round" d="M 8522,212 L 8522,9838"/>
 <path fill="none" stroke="rgb(179,179,179)" stroke-linejoin="round" d="M 9902,212 L 9902,9838"/>
 <path fill="none" stroke="rgb(179,179,179)" stroke-linejoin="round" d="M 11282,212 L 11282,9838"/>
 <path fill="none" stroke="rgb(179,179,179)" stroke-linejoin="round" d="M 12662,212 L 12662,9838"/>
 <path fill="none" stroke="rgb(179,179,179)" stroke-linejoin="round" d="M 2855,213 L 3005,213"/>
 <path fill="none" stroke="rgb(179,179,179)" stroke-linejoin="round" d="M 2855,213 L 3005,213"/>
 <path fill="none" stroke="rgb(179,179,179)" stroke-linejoin="round" d="M 2855,1282 L 3005,1282"/>
 <path fill="none" stroke="rgb(179,179,179)" stroke-linejoin="round" d="M 2855,1282 L 3005,1282"/>
 <path fill="none" stroke="rgb(179,179,179)" stroke-linejoin="round" d="M 2855,2352 L 3005,2352"/>
 <path fill="none" stroke="rgb(179,179,179)" stroke-linejoin="round" d="M 2855,2352 L 3005,2352"/>
 <path fill="none" stroke="rgb(179,179,179)" stroke-linejoin="round" d="M 2855,3421 L 3005,3421"/>
 <path fill="none" stroke="rgb(179,179,179)" stroke-linejoin="round" d="M 2855,3421 L 3005,3421"/>
 <path fill="none" stroke="rgb(179,179,179)" stroke-linejoin="round" d="M 2855,4491 L 3005,4491"/>
 <path fill="none" stroke="rgb(179,179,179)" stroke-linejoin="round" d="M 2855,4491 L 3005,4491"/>
 <path fill="none" stroke="rgb(179,179,179)" stroke-linejoin="round" d="M 2855,5559 L 3005,5559"/>
 <path fill="none" stroke="rgb(179,179,179)" stroke-linejoin="round" d="M 2855,5559 L 3005,5559"/>
 <path fill="none" stroke="rgb(179,179,179)" stroke-linejoin="round" d="M 2855,6629 L 3005,6629"/>
 <path fill="none" stroke="rgb(179,179,179)" stroke-linejoin="round" d="M 2855,6629 L 3005,6629"/>
 <path fill="none" stroke="rgb(179,179,179)" stroke-linejoin="round" d="M 2855,7698 L 3005,7698"/>
 <path fill="none" stroke="rgb(179,179,179)" stroke-linejoin="round" d="M 2855,7698 L 3005,7698"/>
 <path fill="none" stroke="rgb(179,179,179)" stroke-linejoin="round" d="M 2855,8768 L 3005,8768"/>
 <path fill="none" stroke="rgb(179,179,179)" stroke-linejoin="round" d="M 2855,8768 L 3005,8768"/>
 <path fill="none" stroke="rgb(179,179,179)" stroke-linejoin="round" d="M 2855,9838 L 3005,9838"/>
 <path fill="none" stroke="rgb(179,179,179)" stroke-linejoin="round" d="M 2855,9838 L 3005,9838"/>
 <path fill="none" stroke="rgb(179,179,179)" stroke-linejoin="round" d="M 3005,9838 L 3005,212"/>
 <path fill="none" stroke="rgb(179,179,179)" stroke-linejoin="round" d="M 3005,9988 L 3005,9838"/>
 <path fill="none" stroke="rgb(179,179,179)" stroke-linejoin="round" d="M 3005,62 L 3005,212"/>
 <path fill="none" stroke="rgb(179,179,179)" stroke-linejoin="round" d="M 4384,9988 L 4384,9838"/>
 <path fill="none" stroke="rgb(179,179,179)" stroke-linejoin="round" d="M 4384,62 L 4384,212"/>
 <path fill="none" stroke="rgb(179,179,179)" stroke-linejoin="round" d="M 5764,9988 L 5764,9838"/>
 <path fill="none" stroke="rgb(179,179,179)" stroke-linejoin="round" d="M 5764,62 L 5764,212"/>
 <path fill="none" stroke="rgb(179,179,179)" stroke-linejoin="round" d="M 7144,9988 L 7144,9838"/>
 <path fill="none" stroke="rgb(179,179,179)" stroke-linejoin="round" d="M 7144,62 L 7144,212"/>
 <path fill="none" stroke="rgb(179,179,179)" stroke-linejoin="round" d="M 8522,9988 L 8522,9838"/>
 <path fill="none" stroke="rgb(179,179,179)" stroke-linejoin="round" d="M 8522,62 L 8522,212"/>
 <path fill="none" stroke="rgb(179,179,179)" stroke-linejoin="round" d="M 9902,9988 L 9902,9838"/>
 <path fill="none" stroke="rgb(179,179,179)" stroke-linejoin="round" d="M 9902,62 L 9902,212"/>
 <path fill="none" stroke="rgb(179,179,179)" stroke-linejoin="round" d="M 11282,9988 L 11282,9838"/>
 <path fill="none" stroke="rgb(179,179,179)" stroke-linejoin="round" d="M 11282,62 L 11282,212"/>
 <path fill="none" stroke="rgb(179,179,179)" stroke-linejoin="round" d="M 12662,9988 L 12662,9838"/>
 <path fill="none" stroke="rgb(179,179,179)" stroke-linejoin="round" d="M 12662,62 L 12662,212"/>
 <path fill="none" stroke="rgb(179,179,179)" stroke-linejoin="round" d="M 3005,212 L 12662,212"/>
 <path fill="rgb(19,148,72)" stroke="none" d="M 3005,8875 L 3005,9089 9902,9089 9902,8875 3005,8875 Z"/>
 <path fill="rgb(19,148,72)" stroke="none" d="M 3005,7805 L 3005,8019 9902,8019 9902,7805 3005,7805 Z"/>
 <path fill="rgb(19,148,72)" stroke="none" d="M 3005,6736 L 3005,6950 9902,6950 9902,6736 3005,6736 Z"/>
 <path fill="rgb(19,148,72)" stroke="none" d="M 3005,5666 L 3005,5880 9902,5880 9902,5666 3005,5666 Z"/>
 <path fill="rgb(19,148,72)" stroke="none" d="M 3005,4598 L 3005,4812 9902,4812 9902,4598 3005,4598 Z"/>
 <path fill="rgb(19,148,72)" stroke="none" d="M 3005,3528 L 3005,3742 9902,3742 9902,3528 3005,3528 Z"/>
 <path fill="rgb(19,148,72)" stroke="none" d="M 3005,2459 L 3005,2672 9902,2672 9902,2459 3005,2459 Z"/>
 <path fill="rgb(19,148,72)" stroke="none" d="M 3005,1389 L 3005,1603 9902,1603 9902,1389 3005,1389 Z"/>
 <path fill="rgb(19,148,72)" stroke="none" d="M 3005,319 L 3005,533 9902,533 9902,319 3005,319 Z"/>
 <path fill="rgb(12,50,44)" stroke="none" d="M 3005,9089 L 3005,9303 9940,9303 9940,9089 3005,9089 Z"/>
 <path fill="rgb(12,50,44)" stroke="none" d="M 3005,8019 L 3005,8233 9797,8233 9797,8019 3005,8019 Z"/>
 <path fill="rgb(12,50,44)" stroke="none" d="M 3005,6950 L 3005,7164 10709,7164 10709,6950 3005,6950 Z"/>
 <path fill="rgb(12,50,44)" stroke="none" d="M 3005,5880 L 3005,6094 10489,6094 10489,5880 3005,5880 Z"/>
 <path fill="rgb(12,50,44)" stroke="none" d="M 3005,4812 L 3005,5025 10112,5025 10112,4812 3005,4812 Z"/>
 <path fill="rgb(12,50,44)" stroke="none" d="M 3005,3742 L 3005,3956 10369,3956 10369,3742 3005,3742 Z"/>
 <path fill="rgb(12,50,44)" stroke="none" d="M 3005,2672 L 3005,2886 9953,2886 9953,2672 3005,2672 Z"/>
 <path fill="rgb(12,50,44)" stroke="none" d="M 3005,1603 L 3005,1817 10053,1817 10053,1603 3005,1603 Z"/>
 <path fill="rgb(12,50,44)" stroke="none" d="M 3005,533 L 3005,747 10040,747 10040,533 3005,533 Z"/>
 <path fill="rgb(255,193,8)" stroke="none" d="M 3005,9303 L 3005,9517 10109,9517 10109,9303 3005,9303 Z"/>
 <path fill="rgb(255,193,8)" stroke="none" d="M 3005,8233 L 3005,8447 11677,8447 11677,8233 3005,8233 Z"/>
 <path fill="rgb(255,193,8)" stroke="none" d="M 3005,7164 L 3005,7378 9965,7378 9965,7164 3005,7164 Z"/>
 <path fill="rgb(255,193,8)" stroke="none" d="M 3005,6094 L 3005,6308 10092,6308 10092,6094 3005,6094 Z"/>
 <path fill="rgb(255,193,8)" stroke="none" d="M 3005,5026 L 3005,5239 10239,5239 10239,5026 3005,5026 Z"/>
 <path fill="rgb(255,193,8)" stroke="none" d="M 3005,3956 L 3005,4170 10611,4170 10611,3956 3005,3956 Z"/>
 <path fill="rgb(255,193,8)" stroke="none" d="M 3005,2886 L 3005,3100 10017,3100 10017,2886 3005,2886 Z"/>
 <path fill="rgb(255,193,8)" stroke="none" d="M 3005,1817 L 3005,2031 10335,2031 10335,1817 3005,1817 Z"/>
 <path fill="rgb(255,193,8)" stroke="none" d="M 3005,747 L 3005,961 10487,961 10487,747 3005,747 Z"/>
 <path fill="rgb(0,138,207)" stroke="none" d="M 3005,9517 L 3005,9731 10128,9731 10128,9517 3005,9517 Z"/>
 <path fill="rgb(0,138,207)" stroke="none" d="M 3005,8447 L 3005,8661 11701,8661 11701,8447 3005,8447 Z"/>
 <path fill="rgb(0,138,207)" stroke="none" d="M 3005,7378 L 3005,7591 11279,7591 11279,7378 3005,7378 Z"/>
 <path fill="rgb(0,138,207)" stroke="none" d="M 3005,6308 L 3005,6522 10774,6522 10774,6308 3005,6308 Z"/>
 <path fill="rgb(0,138,207)" stroke="none" d="M 3005,5239 L 3005,5452 10968,5452 10968,5239 3005,5239 Z"/>
 <path fill="rgb(0,138,207)" stroke="none" d="M 3005,4170 L 3005,4384 11514,4384 11514,4170 3005,4170 Z"/>
 <path fill="rgb(0,138,207)" stroke="none" d="M 3005,3100 L 3005,3314 10591,3314 10591,3100 3005,3100 Z"/>
 <path fill="rgb(0,138,207)" stroke="none" d="M 3005,2031 L 3005,2245 10508,2245 10508,2031 3005,2031 Z"/>
 <path fill="rgb(0,138,207)" stroke="none" d="M 3005,961 L 3005,1175 10710,1175 10710,961 3005,961 Z"/>
 <text class="SVGTextShape"><tspan class="TextParagraph" font-family="Liberation Sans, sans-serif" font-size="353px" font-weight="400"><tspan class="TextPosition" x="321" y="867"><tspan fill="rgb(0,0,0)" stroke="none">500.perlbench_r</tspan></tspan></tspan></text>
 <text class="SVGTextShape"><tspan class="TextParagraph" font-family="Liberation Sans, sans-serif" font-size="353px" font-weight="400"><tspan class="TextPosition" x="1247" y="1937"><tspan fill="rgb(0,0,0)" stroke="none">502.gcc_r</tspan></tspan></tspan></text>
 <text class="SVGTextShape"><tspan class="TextParagraph" font-family="Liberation Sans, sans-serif" font-size="353px" font-weight="400"><tspan class="TextPosition" x="1220" y="3006"><tspan fill="rgb(0,0,0)" stroke="none">505.mcf_r</tspan></tspan></tspan></text>
 <text class="SVGTextShape"><tspan class="TextParagraph" font-family="Liberation Sans, sans-serif" font-size="353px" font-weight="400"><tspan class="TextPosition" x="480" y="4076"><tspan fill="rgb(0,0,0)" stroke="none">520.omnetpp_r</tspan></tspan></tspan></text>
 <text class="SVGTextShape"><tspan class="TextParagraph" font-family="Liberation Sans, sans-serif" font-size="353px" font-weight="400"><tspan class="TextPosition" x="136" y="5146"><tspan fill="rgb(0,0,0)" stroke="none">523.xalancbmk_r</tspan></tspan></tspan></text>
 <text class="SVGTextShape"><tspan class="TextParagraph" font-family="Liberation Sans, sans-serif" font-size="353px" font-weight="400"><tspan class="TextPosition" x="241" y="6215"><tspan fill="rgb(0,0,0)" stroke="none">531.deepsjeng_r</tspan></tspan></tspan></text>
 <text class="SVGTextShape"><tspan class="TextParagraph" font-family="Liberation Sans, sans-serif" font-size="353px" font-weight="400"><tspan class="TextPosition" x="1088" y="7285"><tspan fill="rgb(0,0,0)" stroke="none">541.leela_r</tspan></tspan></tspan></text>
 <text class="SVGTextShape"><tspan class="TextParagraph" font-family="Liberation Sans, sans-serif" font-size="353px" font-weight="400"><tspan class="TextPosition" x="136" y="8354"><tspan fill="rgb(0,0,0)" stroke="none">548.exchange2_r</tspan></tspan></tspan></text>
 <text class="SVGTextShape"><tspan class="TextParagraph" font-family="Liberation Sans, sans-serif" font-size="353px" font-weight="400"><tspan class="TextPosition" x="1432" y="9424"><tspan fill="rgb(0,0,0)" stroke="none">557.xz_r</tspan></tspan></tspan></text>
 <text class="SVGTextShape"><tspan class="TextParagraph" font-family="Liberation Sans, sans-serif" font-size="353px" font-weight="400"><tspan class="TextPosition" x="2753" y="10406"><tspan fill="rgb(0,0,0)" stroke="none">0%</tspan></tspan></tspan></text>
 <text class="SVGTextShape"><tspan class="TextParagraph" font-family="Liberation Sans, sans-serif" font-size="353px" font-weight="400"><tspan class="TextPosition" x="4040" y="10406"><tspan fill="rgb(0,0,0)" stroke="none">20%</tspan></tspan></tspan></text>
 <text class="SVGTextShape"><tspan class="TextParagraph" font-family="Liberation Sans, sans-serif" font-size="353px" font-weight="400"><tspan class="TextPosition" x="5420" y="10406"><tspan fill="rgb(0,0,0)" stroke="none">40%</tspan></tspan></tspan></text>
 <text class="SVGTextShape"><tspan class="TextParagraph" font-family="Liberation Sans, sans-serif" font-size="353px" font-weight="400"><tspan class="TextPosition" x="6800" y="10406"><tspan fill="rgb(0,0,0)" stroke="none">60%</tspan></tspan></tspan></text>
 <text class="SVGTextShape"><tspan class="TextParagraph" font-family="Liberation Sans, sans-serif" font-size="353px" font-weight="400"><tspan class="TextPosition" x="8179" y="10406"><tspan fill="rgb(0,0,0)" stroke="none">80%</tspan></tspan></tspan></text>
 <text class="SVGTextShape"><tspan class="TextParagraph" font-family="Liberation Sans, sans-serif" font-size="353px" font-weight="400"><tspan class="TextPosition" x="9466" y="10406"><tspan fill="rgb(0,0,0)" stroke="none">100%</tspan></tspan></tspan></text>
 <text class="SVGTextShape"><tspan class="TextParagraph" font-family="Liberation Sans, sans-serif" font-size="353px" font-weight="400"><tspan class="TextPosition" x="10846" y="10406"><tspan fill="rgb(0,0,0)" stroke="none">120%</tspan></tspan></tspan></text>
 <text class="SVGTextShape"><tspan class="TextParagraph" font-family="Liberation Sans, sans-serif" font-size="353px" font-weight="400"><tspan class="TextPosition" x="12226" y="10406"><tspan fill="rgb(0,0,0)" stroke="none">140%</tspan></tspan></tspan></text>
 <path fill="rgb(19,148,72)" stroke="none" d="M 13827,6201 L 13721,6201 13721,5990 13932,5990 13932,6201 13827,6201 Z"/>
 <path fill="rgb(12,50,44)" stroke="none" d="M 13827,5703 L 13721,5703 13721,5492 13932,5492 13932,5703 13827,5703 Z"/>
 <path fill="rgb(255,193,8)" stroke="none" d="M 13827,5206 L 13721,5206 13721,4995 13932,4995 13932,5206 13827,5206 Z"/>
 <path fill="rgb(0,138,207)" stroke="none" d="M 13827,4708 L 13721,4708 13721,4497 13932,4497 13932,4708 13827,4708 Z"/>
 <text class="SVGTextShape"><tspan class="TextParagraph" font-family="Liberation Sans, sans-serif" font-size="353px" font-weight="400"><tspan class="TextPosition" x="14032" y="4722"><tspan fill="rgb(0,0,0)" stroke="none">LTO+PGO</tspan></tspan></tspan></text>
 <text class="SVGTextShape"><tspan class="TextParagraph" font-family="Liberation Sans, sans-serif" font-size="353px" font-weight="400"><tspan class="TextPosition" x="14032" y="5220"><tspan fill="rgb(0,0,0)" stroke="none">PGO</tspan></tspan></tspan></text>
 <text class="SVGTextShape"><tspan class="TextParagraph" font-family="Liberation Sans, sans-serif" font-size="353px" font-weight="400"><tspan class="TextPosition" x="14032" y="5717"><tspan fill="rgb(0,0,0)" stroke="none">LTO</tspan></tspan></tspan></text>
 <text class="SVGTextShape"><tspan class="TextParagraph" font-family="Liberation Sans, sans-serif" font-size="353px" font-weight="400"><tspan class="TextPosition" x="14032" y="6215"><tspan fill="rgb(0,0,0)" stroke="none">Standard</tspan></tspan></tspan></text>
</svg>