<?xml version="1.0" encoding="UTF-8"?>
<!DOCTYPE svg PUBLIC "-//W3C//DTD SVG 1.1//EN" "http://www.w3.org/Graphics/SVG/1.1/DTD/svg11.dtd">
<svg width="160mm" height="66mm" viewBox="0 0 16000 6600" version="1.1" xmlns="http://www.w3.org/2000/svg" xmlns:xlink="http://www.w3.org/1999/xlink" stroke-width="28.222" stroke-linejoin="round" xml:space="preserve">
 <path fill="rgb(255,255,255)" stroke="none" d="M 7987,6587 L -13,6587 -13,5 15987,5 15987,6587 7987,6587 Z"/>
 <path fill="none" stroke="rgb(179,179,179)" stroke-linejoin="round" d="M 7725,5810 L 3216,5810 3216,137 12234,137 12234,5810 7725,5810 Z"/>
 <path fill="none" stroke="rgb(179,179,179)" stroke-linejoin="round" d="M 3216,136 L 3216,5809"/>
 <path fill="none" stroke="rgb(179,179,179)" stroke-linejoin="round" d="M 4117,136 L 4117,5809"/>
 <path fill="none" stroke="rgb(179,179,179)" stroke-linejoin="round" d="M 5019,136 L 5019,5809"/>
 <path fill="none" stroke="rgb(179,179,179)" stroke-linejoin="round" d="M 5921,136 L 5921,5809"/>
 <path fill="none" stroke="rgb(179,179,179)" stroke-linejoin="round" d="M 6823,136 L 6823,5809"/>
 <path fill="none" stroke="rgb(179,179,179)" stroke-linejoin="round" d="M 7725,136 L 7725,5809"/>
 <path fill="none" stroke="rgb(179,179,179)" stroke-linejoin="round" d="M 8626,136 L 8626,5809"/>
 <path fill="none" stroke="rgb(179,179,179)" stroke-linejoin="round" d="M 9528,136 L 9528,5809"/>
 <path fill="none" stroke="rgb(179,179,179)" stroke-linejoin="round" d="M 10430,136 L 10430,5809"/>
 <path fill="none" stroke="rgb(179,179,179)" stroke-linejoin="round" d="M 11332,136 L 11332,5809"/>
 <path fill="none" stroke="rgb(179,179,179)" stroke-linejoin="round" d="M 12234,136 L 12234,5809"/>
 <path fill="none" stroke="rgb(179,179,179)" stroke-linejoin="round" d="M 3066,136 L 3216,136"/>
 <path fill="none" stroke="rgb(179,179,179)" stroke-linejoin="round" d="M 3066,136 L 3216,136"/>
 <path fill="none" stroke="rgb(179,179,179)" stroke-linejoin="round" d="M 3066,1271 L 3216,1271"/>
 <path fill="none" stroke="rgb(179,179,179)" stroke-linejoin="round" d="M 3066,1271 L 3216,1271"/>
 <path fill="none" stroke="rgb(179,179,179)" stroke-linejoin="round" d="M 3066,2405 L 3216,2405"/>
 <path fill="none" stroke="rgb(179,179,179)" stroke-linejoin="round" d="M 3066,2405 L 3216,2405"/>
 <path fill="none" stroke="rgb(179,179,179)" stroke-linejoin="round" d="M 3066,3540 L 3216,3540"/>
 <path fill="none" stroke="rgb(179,179,179)" stroke-linejoin="round" d="M 3066,3540 L 3216,3540"/>
 <path fill="none" stroke="rgb(179,179,179)" stroke-linejoin="round" d="M 3066,4675 L 3216,4675"/>
 <path fill="none" stroke="rgb(179,179,179)" stroke-linejoin="round" d="M 3066,4675 L 3216,4675"/>
 <path fill="none" stroke="rgb(179,179,179)" stroke-linejoin="round" d="M 3066,5809 L 3216,5809"/>
 <path fill="none" stroke="rgb(179,179,179)" stroke-linejoin="round" d="M 3066,5809 L 3216,5809"/>
 <path fill="none" stroke="rgb(179,179,179)" stroke-linejoin="round" d="M 3216,5809 L 3216,136"/>
 <path fill="none" stroke="rgb(179,179,179)" stroke-linejoin="round" d="M 3216,5959 L 3216,5809"/>
 <path fill="none" stroke="rgb(179,179,179)" stroke-linejoin="round" d="M 3216,-13 L 3216,136"/>
 <path fill="none" stroke="rgb(179,179,179)" stroke-linejoin="round" d="M 4117,5959 L 4117,5809"/>
 <path fill="none" stroke="rgb(179,179,179)" stroke-linejoin="round" d="M 4117,-13 L 4117,136"/>
 <path fill="none" stroke="rgb(179,179,179)" stroke-linejoin="round" d="M 5019,5959 L 5019,5809"/>
 <path fill="none" stroke="rgb(179,179,179)" stroke-linejoin="round" d="M 5019,-13 L 5019,136"/>
 <path fill="none" stroke="rgb(179,179,179)" stroke-linejoin="round" d="M 5921,5959 L 5921,5809"/>
 <path fill="none" stroke="rgb(179,179,179)" stroke-linejoin="round" d="M 5921,-13 L 5921,136"/>
 <path fill="none" stroke="rgb(179,179,179)" stroke-linejoin="round" d="M 6823,5959 L 6823,5809"/>
 <path fill="none" stroke="rgb(179,179,179)" stroke-linejoin="round" d="M 6823,-13 L 6823,136"/>
 <path fill="none" stroke="rgb(179,179,179)" stroke-linejoin="round" d="M 7725,5959 L 7725,5809"/>
 <path fill="none" stroke="rgb(179,179,179)" stroke-linejoin="round" d="M 7725,-13 L 7725,136"/>
 <path fill="none" stroke="rgb(179,179,179)" stroke-linejoin="round" d="M 8626,5959 L 8626,5809"/>
 <path fill="none" stroke="rgb(179,179,179)" stroke-linejoin="round" d="M 8626,-13 L 8626,136"/>
 <path fill="none" stroke="rgb(179,179,179)" stroke-linejoin="round" d="M 9528,5959 L 9528,5809"/>
 <path fill="none" stroke="rgb(179,179,179)" stroke-linejoin="round" d="M 9528,-13 L 9528,136"/>
 <path fill="none" stroke="rgb(179,179,179)" stroke-linejoin="round" d="M 10430,5959 L 10430,5809"/>
 <path fill="none" stroke="rgb(179,179,179)" stroke-linejoin="round" d="M 10430,-13 L 10430,136"/>
 <path fill="none" stroke="rgb(179,179,179)" stroke-linejoin="round" d="M 11332,5959 L 11332,5809"/>
 <path fill="none" stroke="rgb(179,179,179)" stroke-linejoin="round" d="M 11332,-13 L 11332,136"/>
 <path fill="none" stroke="rgb(179,179,179)" stroke-linejoin="round" d="M 12234,5959 L 12234,5809"/>
 <path fill="none" stroke="rgb(179,179,179)" stroke-linejoin="round" d="M 12234,-13 L 12234,136"/>
 <path fill="none" stroke="rgb(179,179,179)" stroke-linejoin="round" d="M 3216,136 L 12234,136"/>
 <path fill="rgb(220,53,69)" stroke="none" d="M 3216,249 L 3216,476 7725,476 7725,249 3216,249 Z"/>
 <path fill="rgb(220,53,69)" stroke="none" d="M 3216,1383 L 3216,1611 7725,1611 7725,1383 3216,1383 Z"/>
 <path fill="rgb(220,53,69)" stroke="none" d="M 3216,2518 L 3216,2745 7725,2745 7725,2518 3216,2518 Z"/>
 <path fill="rgb(220,53,69)" stroke="none" d="M 3216,3653 L 3216,3880 7725,3880 7725,3653 3216,3653 Z"/>
 <path fill="rgb(220,53,69)" stroke="none" d="M 3216,4787 L 3216,5015 7725,5015 7725,4787 3216,4787 Z"/>
 <path fill="rgb(255,158,2)" stroke="none" d="M 3216,476 L 3216,703 7733,703 7733,476 3216,476 Z"/>
 <path fill="rgb(255,158,2)" stroke="none" d="M 3216,1611 L 3216,1838 7659,1838 7659,1611 3216,1611 Z"/>
 <path fill="rgb(255,158,2)" stroke="none" d="M 3216,2745 L 3216,2973 8238,2973 8238,2745 3216,2745 Z"/>
 <path fill="rgb(255,158,2)" stroke="none" d="M 3216,3880 L 3216,4107 8241,4107 8241,3880 3216,3880 Z"/>
 <path fill="rgb(255,158,2)" stroke="none" d="M 3216,5015 L 3216,5242 7633,5242 7633,5015 3216,5015 Z"/>
 <path fill="rgb(12,50,44)" stroke="none" d="M 3216,703 L 3216,930 8309,930 8309,703 3216,703 Z"/>
 <path fill="rgb(12,50,44)" stroke="none" d="M 3216,1838 L 3216,2064 10440,2064 10440,1838 3216,1838 Z"/>
 <path fill="rgb(12,50,44)" stroke="none" d="M 3216,2973 L 3216,3199 8120,3199 8120,2973 3216,2973 Z"/>
 <path fill="rgb(12,50,44)" stroke="none" d="M 3216,4107 L 3216,4334 8048,4334 8048,4107 3216,4107 Z"/>
 <path fill="rgb(12,50,44)" stroke="none" d="M 3216,5242 L 3216,5468 11133,5468 11133,5242 3216,5242 Z"/>
 <path fill="rgb(19,148,72)" stroke="none" d="M 3216,930 L 3216,1157 8424,1157 8424,930 3216,930 Z"/>
 <path fill="rgb(19,148,72)" stroke="none" d="M 3216,2064 L 3216,2292 10506,2292 10506,2064 3216,2064 Z"/>
 <path fill="rgb(19,148,72)" stroke="none" d="M 3216,3199 L 3216,3426 9165,3426 9165,3199 3216,3199 Z"/>
 <path fill="rgb(19,148,72)" stroke="none" d="M 3216,4334 L 3216,4561 8556,4561 8556,4334 3216,4334 Z"/>
 <path fill="rgb(19,148,72)" stroke="none" d="M 3216,5468 L 3216,5696 11000,5696 11000,5468 3216,5468 Z"/>
 <text class="SVGTextShape"><tspan class="TextParagraph"><tspan class="TextPosition" x="652" y="824"><tspan font-family="Liberation Sans, sans-serif" font-size="352px" font-weight="400" fill="rgb(0,0,0)" stroke="none" style="white-space: pre">520.omnetpp_r</tspan></tspan></tspan></text>
 <text class="SVGTextShape"><tspan class="TextParagraph"><tspan class="TextPosition" x="1245" y="1958"><tspan font-family="Liberation Sans, sans-serif" font-size="352px" font-weight="400" fill="rgb(0,0,0)" stroke="none" style="white-space: pre">525.x264_r</tspan></tspan></tspan></text>
 <text class="SVGTextShape"><tspan class="TextParagraph"><tspan class="TextPosition" x="403" y="3093"><tspan font-family="Liberation Sans, sans-serif" font-size="352px" font-weight="400" fill="rgb(0,0,0)" stroke="none" style="white-space: pre">531.deepsjeng_r</tspan></tspan></tspan></text>
 <text class="SVGTextShape"><tspan class="TextParagraph"><tspan class="TextPosition" x="1264" y="4228"><tspan font-family="Liberation Sans, sans-serif" font-size="352px" font-weight="400" fill="rgb(0,0,0)" stroke="none" style="white-space: pre">541.leela_r</tspan></tspan></tspan></text>
 <text class="SVGTextShape"><tspan class="TextParagraph"><tspan class="TextPosition" x="308" y="5362"><tspan font-family="Liberation Sans, sans-serif" font-size="352px" font-weight="400" fill="rgb(0,0,0)" stroke="none" style="white-space: pre">548.exchange2_r</tspan></tspan></tspan></text>
 <text class="SVGTextShape"><tspan class="TextParagraph"><tspan class="TextPosition" x="2968" y="6375"><tspan font-family="Liberation Sans, sans-serif" font-size="352px" font-weight="400" fill="rgb(0,0,0)" stroke="none" style="white-space: pre">0%</tspan></tspan></tspan></text>
 <text class="SVGTextShape"><tspan class="TextParagraph"><tspan class="TextPosition" x="3774" y="6375"><tspan font-family="Liberation Sans, sans-serif" font-size="352px" font-weight="400" fill="rgb(0,0,0)" stroke="none" style="white-space: pre">20%</tspan></tspan></tspan></text>
 <text class="SVGTextShape"><tspan class="TextParagraph"><tspan class="TextPosition" x="4676" y="6375"><tspan font-family="Liberation Sans, sans-serif" font-size="352px" font-weight="400" fill="rgb(0,0,0)" stroke="none" style="white-space: pre">40%</tspan></tspan></tspan></text>
 <text class="SVGTextShape"><tspan class="TextParagraph"><tspan class="TextPosition" x="5578" y="6375"><tspan font-family="Liberation Sans, sans-serif" font-size="352px" font-weight="400" fill="rgb(0,0,0)" stroke="none" style="white-space: pre">60%</tspan></tspan></tspan></text>
 <text class="SVGTextShape"><tspan class="TextParagraph"><tspan class="TextPosition" x="6480" y="6375"><tspan font-family="Liberation Sans, sans-serif" font-size="352px" font-weight="400" fill="rgb(0,0,0)" stroke="none" style="white-space: pre">80%</tspan></tspan></tspan></text>
 <text class="SVGTextShape"><tspan class="TextParagraph"><tspan class="TextPosition" x="7286" y="6375"><tspan font-family="Liberation Sans, sans-serif" font-size="352px" font-weight="400" fill="rgb(0,0,0)" stroke="none" style="white-space: pre">100%</tspan></tspan></tspan></text>
 <text class="SVGTextShape"><tspan class="TextParagraph"><tspan class="TextPosition" x="8187" y="6375"><tspan font-family="Liberation Sans, sans-serif" font-size="352px" font-weight="400" fill="rgb(0,0,0)" stroke="none" style="white-space: pre">120%</tspan></tspan></tspan></text>
 <text class="SVGTextShape"><tspan class="TextParagraph"><tspan class="TextPosition" x="9089" y="6375"><tspan font-family="Liberation Sans, sans-serif" font-size="352px" font-weight="400" fill="rgb(0,0,0)" stroke="none" style="white-space: pre">140%</tspan></tspan></tspan></text>
 <text class="SVGTextShape"><tspan class="TextParagraph"><tspan class="TextPosition" x="9991" y="6375"><tspan font-family="Liberation Sans, sans-serif" font-size="352px" font-weight="400" fill="rgb(0,0,0)" stroke="none" style="white-space: pre">160%</tspan></tspan></tspan></text>
 <text class="SVGTextShape"><tspan class="TextParagraph"><tspan class="TextPosition" x="10893" y="6375"><tspan font-family="Liberation Sans, sans-serif" font-size="352px" font-weight="400" fill="rgb(0,0,0)" stroke="none" style="white-space: pre">180%</tspan></tspan></tspan></text>
 <text class="SVGTextShape"><tspan class="TextParagraph"><tspan class="TextPosition" x="11795" y="6375"><tspan font-family="Liberation Sans, sans-serif" font-size="352px" font-weight="400" fill="rgb(0,0,0)" stroke="none" style="white-space: pre">200%</tspan></tspan></tspan></text>
 <path fill="rgb(220,53,69)" stroke="none" d="M 13218,4145 L 13112,4145 13112,3935 13323,3935 13323,4145 13218,4145 Z"/>
 <path fill="rgb(255,158,2)" stroke="none" d="M 13218,3649 L 13112,3649 13112,3438 13323,3438 13323,3649 13218,3649 Z"/>
 <path fill="rgb(12,50,44)" stroke="none" d="M 13218,3152 L 13112,3152 13112,2942 13323,2942 13323,3152 13218,3152 Z"/>
 <path fill="rgb(19,148,72)" stroke="none" d="M 13218,2656 L 13112,2656 13112,2445 13323,2445 13323,2656 13218,2656 Z"/>
 <text class="SVGTextShape"><tspan class="TextParagraph"><tspan class="TextPosition" x="13423" y="2669"><tspan font-family="Liberation Sans, sans-serif" font-size="352px" font-weight="400" fill="rgb(0,0,0)" stroke="none" style="white-space: pre">GCC 14 (LTO)</tspan></tspan></tspan></text>
 <text class="SVGTextShape"><tspan class="TextParagraph"><tspan class="TextPosition" x="13423" y="3166"><tspan font-family="Liberation Sans, sans-serif" font-size="352px" font-weight="400" fill="rgb(0,0,0)" stroke="none" style="white-space: pre">GCC 14</tspan></tspan></tspan></text>
 <text class="SVGTextShape"><tspan class="TextParagraph"><tspan class="TextPosition" x="13423" y="3662"><tspan font-family="Liberation Sans, sans-serif" font-size="352px" font-weight="400" fill="rgb(0,0,0)" stroke="none" style="white-space: pre">GCC 7 (LTO)</tspan></tspan></tspan></text>
 <text class="SVGTextShape"><tspan class="TextParagraph"><tspan class="TextPosition" x="13423" y="4159"><tspan font-family="Liberation Sans, sans-serif" font-size="352px" font-weight="400" fill="rgb(0,0,0)" stroke="none" style="white-space: pre">GCC 7</tspan></tspan></tspan></text>
</svg>