<?xml version="1.0" encoding="UTF-8"?>
<!DOCTYPE svg PUBLIC "-//W3C//DTD SVG 1.1//EN" "http://www.w3.org/Graphics/SVG/1.1/DTD/svg11.dtd">
<svg width="160mm" height="55mm" viewBox="0 0 16000 5500" version="1.1" xmlns="http://www.w3.org/2000/svg" xmlns:xlink="http://www.w3.org/1999/xlink" stroke-width="28.222" stroke-linejoin="round" xml:space="preserve">
 <path fill="rgb(255,255,255)" stroke="none" d="M 7987,5438 L -13,5438 -13,29 15987,29 15987,5438 7987,5438 Z"/>
 <path fill="none" stroke="rgb(179,179,179)" stroke-linejoin="round" d="M 7411,4689 L 2675,4689 2675,137 12146,137 12146,4689 7411,4689 Z"/>
 <path fill="none" stroke="rgb(179,179,179)" stroke-linejoin="round" d="M 2675,135 L 2675,4687"/>
 <path fill="none" stroke="rgb(179,179,179)" stroke-linejoin="round" d="M 3622,135 L 3622,4687"/>
 <path fill="none" stroke="rgb(179,179,179)" stroke-linejoin="round" d="M 4569,135 L 4569,4687"/>
 <path fill="none" stroke="rgb(179,179,179)" stroke-linejoin="round" d="M 5516,135 L 5516,4687"/>
 <path fill="none" stroke="rgb(179,179,179)" stroke-linejoin="round" d="M 6463,135 L 6463,4687"/>
 <path fill="none" stroke="rgb(179,179,179)" stroke-linejoin="round" d="M 7411,135 L 7411,4687"/>
 <path fill="none" stroke="rgb(179,179,179)" stroke-linejoin="round" d="M 8357,135 L 8357,4687"/>
 <path fill="none" stroke="rgb(179,179,179)" stroke-linejoin="round" d="M 9304,135 L 9304,4687"/>
 <path fill="none" stroke="rgb(179,179,179)" stroke-linejoin="round" d="M 10251,135 L 10251,4687"/>
 <path fill="none" stroke="rgb(179,179,179)" stroke-linejoin="round" d="M 11198,135 L 11198,4687"/>
 <path fill="none" stroke="rgb(179,179,179)" stroke-linejoin="round" d="M 12146,135 L 12146,4687"/>
 <path fill="none" stroke="rgb(179,179,179)" stroke-linejoin="round" d="M 2525,136 L 2675,136"/>
 <path fill="none" stroke="rgb(179,179,179)" stroke-linejoin="round" d="M 2525,136 L 2675,136"/>
 <path fill="none" stroke="rgb(179,179,179)" stroke-linejoin="round" d="M 2525,894 L 2675,894"/>
 <path fill="none" stroke="rgb(179,179,179)" stroke-linejoin="round" d="M 2525,894 L 2675,894"/>
 <path fill="none" stroke="rgb(179,179,179)" stroke-linejoin="round" d="M 2525,1653 L 2675,1653"/>
 <path fill="none" stroke="rgb(179,179,179)" stroke-linejoin="round" d="M 2525,1653 L 2675,1653"/>
 <path fill="none" stroke="rgb(179,179,179)" stroke-linejoin="round" d="M 2525,2411 L 2675,2411"/>
 <path fill="none" stroke="rgb(179,179,179)" stroke-linejoin="round" d="M 2525,2411 L 2675,2411"/>
 <path fill="none" stroke="rgb(179,179,179)" stroke-linejoin="round" d="M 2525,3170 L 2675,3170"/>
 <path fill="none" stroke="rgb(179,179,179)" stroke-linejoin="round" d="M 2525,3170 L 2675,3170"/>
 <path fill="none" stroke="rgb(179,179,179)" stroke-linejoin="round" d="M 2525,3929 L 2675,3929"/>
 <path fill="none" stroke="rgb(179,179,179)" stroke-linejoin="round" d="M 2525,3929 L 2675,3929"/>
 <path fill="none" stroke="rgb(179,179,179)" stroke-linejoin="round" d="M 2525,4687 L 2675,4687"/>
 <path fill="none" stroke="rgb(179,179,179)" stroke-linejoin="round" d="M 2525,4687 L 2675,4687"/>
 <path fill="none" stroke="rgb(179,179,179)" stroke-linejoin="round" d="M 2675,4687 L 2675,135"/>
 <path fill="none" stroke="rgb(179,179,179)" stroke-linejoin="round" d="M 2675,4836 L 2675,4687"/>
 <path fill="none" stroke="rgb(179,179,179)" stroke-linejoin="round" d="M 2675,-13 L 2675,135"/>
 <path fill="none" stroke="rgb(179,179,179)" stroke-linejoin="round" d="M 3622,4836 L 3622,4687"/>
 <path fill="none" stroke="rgb(179,179,179)" stroke-linejoin="round" d="M 3622,-13 L 3622,135"/>
 <path fill="none" stroke="rgb(179,179,179)" stroke-linejoin="round" d="M 4569,4836 L 4569,4687"/>
 <path fill="none" stroke="rgb(179,179,179)" stroke-linejoin="round" d="M 4569,-13 L 4569,135"/>
 <path fill="none" stroke="rgb(179,179,179)" stroke-linejoin="round" d="M 5516,4836 L 5516,4687"/>
 <path fill="none" stroke="rgb(179,179,179)" stroke-linejoin="round" d="M 5516,-13 L 5516,135"/>
 <path fill="none" stroke="rgb(179,179,179)" stroke-linejoin="round" d="M 6463,4836 L 6463,4687"/>
 <path fill="none" stroke="rgb(179,179,179)" stroke-linejoin="round" d="M 6463,-13 L 6463,135"/>
 <path fill="none" stroke="rgb(179,179,179)" stroke-linejoin="round" d="M 7411,4836 L 7411,4687"/>
 <path fill="none" stroke="rgb(179,179,179)" stroke-linejoin="round" d="M 7411,-13 L 7411,135"/>
 <path fill="none" stroke="rgb(179,179,179)" stroke-linejoin="round" d="M 8357,4836 L 8357,4687"/>
 <path fill="none" stroke="rgb(179,179,179)" stroke-linejoin="round" d="M 8357,-13 L 8357,135"/>
 <path fill="none" stroke="rgb(179,179,179)" stroke-linejoin="round" d="M 9304,4836 L 9304,4687"/>
 <path fill="none" stroke="rgb(179,179,179)" stroke-linejoin="round" d="M 9304,-13 L 9304,135"/>
 <path fill="none" stroke="rgb(179,179,179)" stroke-linejoin="round" d="M 10251,4836 L 10251,4687"/>
 <path fill="none" stroke="rgb(179,179,179)" stroke-linejoin="round" d="M 10251,-13 L 10251,135"/>
 <path fill="none" stroke="rgb(179,179,179)" stroke-linejoin="round" d="M 11198,4836 L 11198,4687"/>
 <path fill="none" stroke="rgb(179,179,179)" stroke-linejoin="round" d="M 11198,-13 L 11198,135"/>
 <path fill="none" stroke="rgb(179,179,179)" stroke-linejoin="round" d="M 12146,4836 L 12146,4687"/>
 <path fill="none" stroke="rgb(179,179,179)" stroke-linejoin="round" d="M 12146,-13 L 12146,135"/>
 <path fill="none" stroke="rgb(179,179,179)" stroke-linejoin="round" d="M 2675,135 L 12146,135"/>
 <path fill="rgb(220,53,69)" stroke="none" d="M 2675,262 L 2675,515 7411,515 7411,262 2675,262 Z"/>
 <path fill="rgb(220,53,69)" stroke="none" d="M 2675,1021 L 2675,1273 7411,1273 7411,1021 2675,1021 Z"/>
 <path fill="rgb(220,53,69)" stroke="none" d="M 2675,1779 L 2675,2032 7411,2032 7411,1779 2675,1779 Z"/>
 <path fill="rgb(220,53,69)" stroke="none" d="M 2675,2538 L 2675,2791 7411,2791 7411,2538 2675,2538 Z"/>
 <path fill="rgb(220,53,69)" stroke="none" d="M 2675,3297 L 2675,3550 7411,3550 7411,3297 2675,3297 Z"/>
 <path fill="rgb(220,53,69)" stroke="none" d="M 2675,4055 L 2675,4308 7411,4308 7411,4055 2675,4055 Z"/>
 <path fill="rgb(13,99,48)" stroke="none" d="M 2675,515 L 2675,768 8440,768 8440,515 2675,515 Z"/>
 <path fill="rgb(13,99,48)" stroke="none" d="M 2675,1273 L 2675,1526 11023,1526 11023,1273 2675,1273 Z"/>
 <path fill="rgb(13,99,48)" stroke="none" d="M 2675,2032 L 2675,2285 8929,2285 8929,2032 2675,2032 Z"/>
 <path fill="rgb(13,99,48)" stroke="none" d="M 2675,2791 L 2675,3044 8110,3044 8110,2791 2675,2791 Z"/>
 <path fill="rgb(13,99,48)" stroke="none" d="M 2675,3549 L 2675,3802 8463,3802 8463,3549 2675,3549 Z"/>
 <path fill="rgb(13,99,48)" stroke="none" d="M 2675,4308 L 2675,4561 7812,4561 7812,4308 2675,4308 Z"/>
 <text class="SVGTextShape"><tspan class="TextParagraph" font-family="Liberation Sans, sans-serif" font-size="353px" font-weight="400"><tspan class="TextPosition" x="308" y="634"><tspan font-size="350px" fill="rgb(0,0,0)" stroke="none" style="white-space: pre">503.bwaves_r</tspan></tspan></tspan></text>
 <text class="SVGTextShape"><tspan class="TextParagraph" font-family="Liberation Sans, sans-serif" font-size="353px" font-weight="400"><tspan class="TextPosition" x="520" y="1393"><tspan font-size="350px" fill="rgb(0,0,0)" stroke="none" style="white-space: pre">510.parest_r</tspan></tspan></tspan></text>
 <text class="SVGTextShape"><tspan class="TextParagraph" font-family="Liberation Sans, sans-serif" font-size="353px" font-weight="400"><tspan class="TextPosition" x="917" y="2151"><tspan font-size="350px" fill="rgb(0,0,0)" stroke="none" style="white-space: pre">519.lbm_r</tspan></tspan></tspan></text>
 <text class="SVGTextShape"><tspan class="TextParagraph" font-family="Liberation Sans, sans-serif" font-size="353px" font-weight="400"><tspan class="TextPosition" x="1023" y="2910"><tspan font-size="350px" fill="rgb(0,0,0)" stroke="none" style="white-space: pre">521.wrf_r</tspan></tspan></tspan></text>
 <text class="SVGTextShape"><tspan class="TextParagraph" font-family="Liberation Sans, sans-serif" font-size="353px" font-weight="400"><tspan class="TextPosition" x="917" y="3668"><tspan font-size="350px" fill="rgb(0,0,0)" stroke="none" style="white-space: pre">544.nab_r</tspan></tspan></tspan></text>
 <text class="SVGTextShape"><tspan class="TextParagraph" font-family="Liberation Sans, sans-serif" font-size="353px" font-weight="400"><tspan class="TextPosition" x="705" y="4427"><tspan font-size="350px" fill="rgb(0,0,0)" stroke="none" style="white-space: pre">554.roms_r</tspan></tspan></tspan></text>
 <text class="SVGTextShape"><tspan class="TextParagraph" font-family="Liberation Sans, sans-serif" font-size="353px" font-weight="400"><tspan class="TextPosition" x="2423" y="5250"><tspan font-size="350px" fill="rgb(0,0,0)" stroke="none" style="white-space: pre">0%</tspan></tspan></tspan></text>
 <text class="SVGTextShape"><tspan class="TextParagraph" font-family="Liberation Sans, sans-serif" font-size="353px" font-weight="400"><tspan class="TextPosition" x="3278" y="5250"><tspan font-size="350px" fill="rgb(0,0,0)" stroke="none" style="white-space: pre">20%</tspan></tspan></tspan></text>
 <text class="SVGTextShape"><tspan class="TextParagraph" font-family="Liberation Sans, sans-serif" font-size="353px" font-weight="400"><tspan class="TextPosition" x="4225" y="5250"><tspan font-size="350px" fill="rgb(0,0,0)" stroke="none" style="white-space: pre">40%</tspan></tspan></tspan></text>
 <text class="SVGTextShape"><tspan class="TextParagraph" font-family="Liberation Sans, sans-serif" font-size="353px" font-weight="400"><tspan class="TextPosition" x="5172" y="5250"><tspan font-size="350px" fill="rgb(0,0,0)" stroke="none" style="white-space: pre">60%</tspan></tspan></tspan></text>
 <text class="SVGTextShape"><tspan class="TextParagraph" font-family="Liberation Sans, sans-serif" font-size="353px" font-weight="400"><tspan class="TextPosition" x="6119" y="5250"><tspan font-size="350px" fill="rgb(0,0,0)" stroke="none" style="white-space: pre">80%</tspan></tspan></tspan></text>
 <text class="SVGTextShape"><tspan class="TextParagraph" font-family="Liberation Sans, sans-serif" font-size="353px" font-weight="400"><tspan class="TextPosition" x="6974" y="5250"><tspan font-size="350px" fill="rgb(0,0,0)" stroke="none" style="white-space: pre">100%</tspan></tspan></tspan></text>
 <text class="SVGTextShape"><tspan class="TextParagraph" font-family="Liberation Sans, sans-serif" font-size="353px" font-weight="400"><tspan class="TextPosition" x="7921" y="5250"><tspan font-size="350px" fill="rgb(0,0,0)" stroke="none" style="white-space: pre">120%</tspan></tspan></tspan></text>
 <text class="SVGTextShape"><tspan class="TextParagraph" font-family="Liberation Sans, sans-serif" font-size="353px" font-weight="400"><tspan class="TextPosition" x="8867" y="5250"><tspan font-size="350px" fill="rgb(0,0,0)" stroke="none" style="white-space: pre">140%</tspan></tspan></tspan></text>
 <text class="SVGTextShape"><tspan class="TextParagraph" font-family="Liberation Sans, sans-serif" font-size="353px" font-weight="400"><tspan class="TextPosition" x="9814" y="5250"><tspan font-size="350px" fill="rgb(0,0,0)" stroke="none" style="white-space: pre">160%</tspan></tspan></tspan></text>
 <text class="SVGTextShape"><tspan class="TextParagraph" font-family="Liberation Sans, sans-serif" font-size="353px" font-weight="400"><tspan class="TextPosition" x="10761" y="5250"><tspan font-size="350px" fill="rgb(0,0,0)" stroke="none" style="white-space: pre">180%</tspan></tspan></tspan></text>
 <text class="SVGTextShape"><tspan class="TextParagraph" font-family="Liberation Sans, sans-serif" font-size="353px" font-weight="400"><tspan class="TextPosition" x="11709" y="5250"><tspan font-size="350px" fill="rgb(0,0,0)" stroke="none" style="white-space: pre">200%</tspan></tspan></tspan></text>
 <path fill="rgb(220,53,69)" stroke="none" d="M 13126,3085 L 13020,3085 13020,2875 13231,2875 13231,3085 13126,3085 Z"/>
 <path fill="rgb(13,99,48)" stroke="none" d="M 13126,2591 L 13020,2591 13020,2381 13231,2381 13231,2591 13126,2591 Z"/>
 <text class="SVGTextShape"><tspan class="TextParagraph" font-family="Liberation Sans, sans-serif" font-size="353px" font-weight="400"><tspan class="TextPosition" x="13331" y="2604"><tspan font-size="350px" fill="rgb(0,0,0)" stroke="none" style="white-space: pre">-O3 -ffast-math</tspan></tspan></tspan></text>
 <text class="SVGTextShape"><tspan class="TextParagraph" font-family="Liberation Sans, sans-serif" font-size="353px" font-weight="400"><tspan class="TextPosition" x="13331" y="3098"><tspan font-size="350px" fill="rgb(0,0,0)" stroke="none" style="white-space: pre">Plain -O3</tspan></tspan></tspan></text>
</svg>