<?xml version="1.0" encoding="UTF-8"?>
<!DOCTYPE svg PUBLIC "-//W3C//DTD SVG 1.1//EN" "http://www.w3.org/Graphics/SVG/1.1/DTD/svg11.dtd">
<svg width="160mm" height="107mm" viewBox="0 0 16000 10700" version="1.1" xmlns="http://www.w3.org/2000/svg" xmlns:xlink="http://www.w3.org/1999/xlink" stroke-width="28.222" stroke-linejoin="round" xml:space="preserve">
 <path fill="rgb(255,255,255)" stroke="none" d="M 7987,10687 L -13,10687 -13,-13 15987,-13 15987,10687 7987,10687 Z"/>
 <path fill="none" stroke="rgb(179,179,179)" stroke-linejoin="round" d="M 7968,9826 L 3140,9826 3140,201 12796,201 12796,9826 7968,9826 Z"/>
 <path fill="none" stroke="rgb(179,179,179)" stroke-linejoin="round" d="M 12796,199 L 12796,9825"/>
 <path fill="none" stroke="rgb(179,179,179)" stroke-linejoin="round" d="M 11416,199 L 11416,9825"/>
 <path fill="none" stroke="rgb(179,179,179)" stroke-linejoin="round" d="M 10036,199 L 10036,9825"/>
 <path fill="none" stroke="rgb(179,179,179)" stroke-linejoin="round" d="M 8657,199 L 8657,9825"/>
 <path fill="none" stroke="rgb(179,179,179)" stroke-linejoin="round" d="M 7278,199 L 7278,9825"/>
 <path fill="none" stroke="rgb(179,179,179)" stroke-linejoin="round" d="M 5899,199 L 5899,9825"/>
 <path fill="none" stroke="rgb(179,179,179)" stroke-linejoin="round" d="M 4519,199 L 4519,9825"/>
 <path fill="none" stroke="rgb(179,179,179)" stroke-linejoin="round" d="M 3139,199 L 3139,9825"/>
 <path fill="none" stroke="rgb(179,179,179)" stroke-linejoin="round" d="M 12946,200 L 12796,200"/>
 <path fill="none" stroke="rgb(179,179,179)" stroke-linejoin="round" d="M 12946,200 L 12796,200"/>
 <path fill="none" stroke="rgb(179,179,179)" stroke-linejoin="round" d="M 12946,1269 L 12796,1269"/>
 <path fill="none" stroke="rgb(179,179,179)" stroke-linejoin="round" d="M 12946,1269 L 12796,1269"/>
 <path fill="none" stroke="rgb(179,179,179)" stroke-linejoin="round" d="M 12946,2339 L 12796,2339"/>
 <path fill="none" stroke="rgb(179,179,179)" stroke-linejoin="round" d="M 12946,2339 L 12796,2339"/>
 <path fill="none" stroke="rgb(179,179,179)" stroke-linejoin="round" d="M 12946,3408 L 12796,3408"/>
 <path fill="none" stroke="rgb(179,179,179)" stroke-linejoin="round" d="M 12946,3408 L 12796,3408"/>
 <path fill="none" stroke="rgb(179,179,179)" stroke-linejoin="round" d="M 12946,4478 L 12796,4478"/>
 <path fill="none" stroke="rgb(179,179,179)" stroke-linejoin="round" d="M 12946,4478 L 12796,4478"/>
 <path fill="none" stroke="rgb(179,179,179)" stroke-linejoin="round" d="M 12946,5546 L 12796,5546"/>
 <path fill="none" stroke="rgb(179,179,179)" stroke-linejoin="round" d="M 12946,5546 L 12796,5546"/>
 <path fill="none" stroke="rgb(179,179,179)" stroke-linejoin="round" d="M 12946,6616 L 12796,6616"/>
 <path fill="none" stroke="rgb(179,179,179)" stroke-linejoin="round" d="M 12946,6616 L 12796,6616"/>
 <path fill="none" stroke="rgb(179,179,179)" stroke-linejoin="round" d="M 12946,7685 L 12796,7685"/>
 <path fill="none" stroke="rgb(179,179,179)" stroke-linejoin="round" d="M 12946,7685 L 12796,7685"/>
 <path fill="none" stroke="rgb(179,179,179)" stroke-linejoin="round" d="M 12946,8755 L 12796,8755"/>
 <path fill="none" stroke="rgb(179,179,179)" stroke-linejoin="round" d="M 12946,8755 L 12796,8755"/>
 <path fill="none" stroke="rgb(179,179,179)" stroke-linejoin="round" d="M 12946,9825 L 12796,9825"/>
 <path fill="none" stroke="rgb(179,179,179)" stroke-linejoin="round" d="M 12946,9825 L 12796,9825"/>
 <path fill="none" stroke="rgb(179,179,179)" stroke-linejoin="round" d="M 12796,9825 L 12796,199"/>
 <path fill="none" stroke="rgb(179,179,179)" stroke-linejoin="round" d="M 12796,9975 L 12796,9825"/>
 <path fill="none" stroke="rgb(179,179,179)" stroke-linejoin="round" d="M 12796,49 L 12796,199"/>
 <path fill="none" stroke="rgb(179,179,179)" stroke-linejoin="round" d="M 11416,9975 L 11416,9825"/>
 <path fill="none" stroke="rgb(179,179,179)" stroke-linejoin="round" d="M 11416,49 L 11416,199"/>
 <path fill="none" stroke="rgb(179,179,179)" stroke-linejoin="round" d="M 10036,9975 L 10036,9825"/>
 <path fill="none" stroke="rgb(179,179,179)" stroke-linejoin="round" d="M 10036,49 L 10036,199"/>
 <path fill="none" stroke="rgb(179,179,179)" stroke-linejoin="round" d="M 8657,9975 L 8657,9825"/>
 <path fill="none" stroke="rgb(179,179,179)" stroke-linejoin="round" d="M 8657,49 L 8657,199"/>
 <path fill="none" stroke="rgb(179,179,179)" stroke-linejoin="round" d="M 7278,9975 L 7278,9825"/>
 <path fill="none" stroke="rgb(179,179,179)" stroke-linejoin="round" d="M 7278,49 L 7278,199"/>
 <path fill="none" stroke="rgb(179,179,179)" stroke-linejoin="round" d="M 5899,9975 L 5899,9825"/>
 <path fill="none" stroke="rgb(179,179,179)" stroke-linejoin="round" d="M 5899,49 L 5899,199"/>
 <path fill="none" stroke="rgb(179,179,179)" stroke-linejoin="round" d="M 4519,9975 L 4519,9825"/>
 <path fill="none" stroke="rgb(179,179,179)" stroke-linejoin="round" d="M 4519,49 L 4519,199"/>
 <path fill="none" stroke="rgb(179,179,179)" stroke-linejoin="round" d="M 3139,9975 L 3139,9825"/>
 <path fill="none" stroke="rgb(179,179,179)" stroke-linejoin="round" d="M 3139,49 L 3139,199"/>
 <path fill="none" stroke="rgb(179,179,179)" stroke-linejoin="round" d="M 3140,199 L 12796,199"/>
 <path fill="rgb(12,50,44)" stroke="none" d="M 12796,306 L 12796,520 5899,520 5899,306 12796,306 Z"/>
 <path fill="rgb(12,50,44)" stroke="none" d="M 12796,1376 L 12796,1590 5899,1590 5899,1376 12796,1376 Z"/>
 <path fill="rgb(12,50,44)" stroke="none" d="M 12796,2446 L 12796,2659 5899,2659 5899,2446 12796,2446 Z"/>
 <path fill="rgb(12,50,44)" stroke="none" d="M 12796,3515 L 12796,3729 5899,3729 5899,3515 12796,3515 Z"/>
 <path fill="rgb(12,50,44)" stroke="none" d="M 12796,4585 L 12796,4799 5899,4799 5899,4585 12796,4585 Z"/>
 <path fill="rgb(12,50,44)" stroke="none" d="M 12796,5653 L 12796,5867 5899,5867 5899,5653 12796,5653 Z"/>
 <path fill="rgb(12,50,44)" stroke="none" d="M 12796,6723 L 12796,6937 5899,6937 5899,6723 12796,6723 Z"/>
 <path fill="rgb(12,50,44)" stroke="none" d="M 12796,7792 L 12796,8006 5899,8006 5899,7792 12796,7792 Z"/>
 <path fill="rgb(12,50,44)" stroke="none" d="M 12796,8862 L 12796,9076 5899,9076 5899,8862 12796,8862 Z"/>
 <path fill="rgb(19,148,72)" stroke="none" d="M 12796,520 L 12796,734 5756,734 5756,520 12796,520 Z"/>
 <path fill="rgb(19,148,72)" stroke="none" d="M 12796,1590 L 12796,1804 5907,1804 5907,1590 12796,1590 Z"/>
 <path fill="rgb(19,148,72)" stroke="none" d="M 12796,2659 L 12796,2873 7480,2873 7480,2659 12796,2659 Z"/>
 <path fill="rgb(19,148,72)" stroke="none" d="M 12796,3729 L 12796,3943 6960,3943 6960,3729 12796,3729 Z"/>
 <path fill="rgb(19,148,72)" stroke="none" d="M 12796,4799 L 12796,5012 7325,5012 7325,4799 12796,4799 Z"/>
 <path fill="rgb(19,148,72)" stroke="none" d="M 12796,5867 L 12796,6081 5998,6081 5998,5867 12796,5867 Z"/>
 <path fill="rgb(19,148,72)" stroke="none" d="M 12796,6937 L 12796,7151 5960,7151 5960,6937 12796,6937 Z"/>
 <path fill="rgb(19,148,72)" stroke="none" d="M 12796,8006 L 12796,8220 8681,8220 8681,8006 12796,8006 Z"/>
 <path fill="rgb(19,148,72)" stroke="none" d="M 12796,9076 L 12796,9290 8132,9290 8132,9076 12796,9076 Z"/>
 <path fill="rgb(255,211,32)" stroke="none" d="M 12796,734 L 12796,948 6468,948 6468,734 12796,734 Z"/>
 <path fill="rgb(255,211,32)" stroke="none" d="M 12796,1804 L 12796,2018 6296,2018 6296,1804 12796,1804 Z"/>
 <path fill="rgb(255,211,32)" stroke="none" d="M 12796,2873 L 12796,3087 4548,3087 4548,2873 12796,2873 Z"/>
 <path fill="rgb(255,211,32)" stroke="none" d="M 12796,3943 L 12796,4157 7517,4157 7517,3943 12796,3943 Z"/>
 <path fill="rgb(255,211,32)" stroke="none" d="M 12796,5013 L 12796,5226 7536,5226 7536,5013 12796,5013 Z"/>
 <path fill="rgb(255,211,32)" stroke="none" d="M 12796,6081 L 12796,6295 5272,6295 5272,6081 12796,6081 Z"/>
 <path fill="rgb(255,211,32)" stroke="none" d="M 12796,7151 L 12796,7365 5893,7365 5893,7151 12796,7151 Z"/>
 <path fill="rgb(255,211,32)" stroke="none" d="M 12796,8220 L 12796,8434 7038,8434 7038,8220 12796,8220 Z"/>
 <path fill="rgb(255,211,32)" stroke="none" d="M 12796,9290 L 12796,9504 6282,9504 6282,9290 12796,9290 Z"/>
 <path fill="rgb(0,138,207)" stroke="none" d="M 12796,948 L 12796,1162 6759,1162 6759,948 12796,948 Z"/>
 <path fill="rgb(0,138,207)" stroke="none" d="M 12796,2018 L 12796,2232 6575,2232 6575,2018 12796,2018 Z"/>
 <path fill="rgb(0,138,207)" stroke="none" d="M 12796,3087 L 12796,3301 7018,3301 7018,3087 12796,3087 Z"/>
 <path fill="rgb(0,138,207)" stroke="none" d="M 12796,4157 L 12796,4371 8437,4371 8437,4157 12796,4157 Z"/>
 <path fill="rgb(0,138,207)" stroke="none" d="M 12796,5226 L 12796,5439 8667,5439 8667,5226 12796,5226 Z"/>
 <path fill="rgb(0,138,207)" stroke="none" d="M 12796,6295 L 12796,6509 5614,6509 5614,6295 12796,6295 Z"/>
 <path fill="rgb(0,138,207)" stroke="none" d="M 12796,7365 L 12796,7578 5955,7578 5955,7365 12796,7365 Z"/>
 <path fill="rgb(0,138,207)" stroke="none" d="M 12796,8434 L 12796,8648 9308,8648 9308,8434 12796,8434 Z"/>
 <path fill="rgb(0,138,207)" stroke="none" d="M 12796,9504 L 12796,9718 8765,9718 8765,9504 12796,9504 Z"/>
 <text class="SVGTextShape"><tspan class="TextParagraph" font-family="Liberation Sans, sans-serif" font-size="353px" font-weight="400"><tspan class="TextPosition" x="13046" y="854"><tspan fill="rgb(0,0,0)" stroke="none" style="white-space: pre">500.perlbench_r</tspan></tspan></tspan></text>
 <text class="SVGTextShape"><tspan class="TextParagraph" font-family="Liberation Sans, sans-serif" font-size="353px" font-weight="400"><tspan class="TextPosition" x="13046" y="1924"><tspan fill="rgb(0,0,0)" stroke="none" style="white-space: pre">502.gcc_r</tspan></tspan></tspan></text>
 <text class="SVGTextShape"><tspan class="TextParagraph" font-family="Liberation Sans, sans-serif" font-size="353px" font-weight="400"><tspan class="TextPosition" x="13046" y="2993"><tspan fill="rgb(0,0,0)" stroke="none" style="white-space: pre">505.mcf_r</tspan></tspan></tspan></text>
 <text class="SVGTextShape"><tspan class="TextParagraph" font-family="Liberation Sans, sans-serif" font-size="353px" font-weight="400"><tspan class="TextPosition" x="13046" y="4063"><tspan fill="rgb(0,0,0)" stroke="none" style="white-space: pre">520.omnetpp_r</tspan></tspan></tspan></text>
 <text class="SVGTextShape"><tspan class="TextParagraph" font-family="Liberation Sans, sans-serif" font-size="353px" font-weight="400"><tspan class="TextPosition" x="13046" y="5133"><tspan fill="rgb(0,0,0)" stroke="none" style="white-space: pre">523.xalancbmk_r</tspan></tspan></tspan></text>
 <text class="SVGTextShape"><tspan class="TextParagraph" font-family="Liberation Sans, sans-serif" font-size="353px" font-weight="400"><tspan class="TextPosition" x="13046" y="6201"><tspan fill="rgb(0,0,0)" stroke="none" style="white-space: pre">525.x264_r</tspan></tspan></tspan></text>
 <text class="SVGTextShape"><tspan class="TextParagraph" font-family="Liberation Sans, sans-serif" font-size="353px" font-weight="400"><tspan class="TextPosition" x="13046" y="7271"><tspan fill="rgb(0,0,0)" stroke="none" style="white-space: pre">531.deepsjeng_r</tspan></tspan></tspan></text>
 <text class="SVGTextShape"><tspan class="TextParagraph" font-family="Liberation Sans, sans-serif" font-size="353px" font-weight="400"><tspan class="TextPosition" x="13046" y="8340"><tspan fill="rgb(0,0,0)" stroke="none" style="white-space: pre">541.leela_r</tspan></tspan></tspan></text>
 <text class="SVGTextShape"><tspan class="TextParagraph" font-family="Liberation Sans, sans-serif" font-size="353px" font-weight="400"><tspan class="TextPosition" x="13046" y="9410"><tspan fill="rgb(0,0,0)" stroke="none" style="white-space: pre">557.xz_r</tspan></tspan></tspan></text>
 <text class="SVGTextShape"><tspan class="TextParagraph" font-family="Liberation Sans, sans-serif" font-size="353px" font-weight="400"><tspan class="TextPosition" x="12544" y="10393"><tspan fill="rgb(0,0,0)" stroke="none" style="white-space: pre">0%</tspan></tspan></tspan></text>
 <text class="SVGTextShape"><tspan class="TextParagraph" font-family="Liberation Sans, sans-serif" font-size="353px" font-weight="400"><tspan class="TextPosition" x="11072" y="10393"><tspan fill="rgb(0,0,0)" stroke="none" style="white-space: pre">20%</tspan></tspan></tspan></text>
 <text class="SVGTextShape"><tspan class="TextParagraph" font-family="Liberation Sans, sans-serif" font-size="353px" font-weight="400"><tspan class="TextPosition" x="9692" y="10393"><tspan fill="rgb(0,0,0)" stroke="none" style="white-space: pre">40%</tspan></tspan></tspan></text>
 <text class="SVGTextShape"><tspan class="TextParagraph" font-family="Liberation Sans, sans-serif" font-size="353px" font-weight="400"><tspan class="TextPosition" x="8313" y="10393"><tspan fill="rgb(0,0,0)" stroke="none" style="white-space: pre">60%</tspan></tspan></tspan></text>
 <text class="SVGTextShape"><tspan class="TextParagraph" font-family="Liberation Sans, sans-serif" font-size="353px" font-weight="400"><tspan class="TextPosition" x="6934" y="10393"><tspan fill="rgb(0,0,0)" stroke="none" style="white-space: pre">80%</tspan></tspan></tspan></text>
 <text class="SVGTextShape"><tspan class="TextParagraph" font-family="Liberation Sans, sans-serif" font-size="353px" font-weight="400"><tspan class="TextPosition" x="5462" y="10393"><tspan fill="rgb(0,0,0)" stroke="none" style="white-space: pre">100%</tspan></tspan></tspan></text>
 <text class="SVGTextShape"><tspan class="TextParagraph" font-family="Liberation Sans, sans-serif" font-size="353px" font-weight="400"><tspan class="TextPosition" x="4082" y="10393"><tspan fill="rgb(0,0,0)" stroke="none" style="white-space: pre">120%</tspan></tspan></tspan></text>
 <text class="SVGTextShape"><tspan class="TextParagraph" font-family="Liberation Sans, sans-serif" font-size="353px" font-weight="400"><tspan class="TextPosition" x="2702" y="10393"><tspan fill="rgb(0,0,0)" stroke="none" style="white-space: pre">140%</tspan></tspan></tspan></text>
 <path fill="rgb(12,50,44)" stroke="none" d="M 418,6188 L 313,6188 313,5977 524,5977 524,6188 418,6188 Z"/>
 <path fill="rgb(19,148,72)" stroke="none" d="M 418,5690 L 313,5690 313,5479 524,5479 524,5690 418,5690 Z"/>
 <path fill="rgb(255,211,32)" stroke="none" d="M 418,5193 L 313,5193 313,4982 524,4982 524,5193 418,5193 Z"/>
 <path fill="rgb(0,138,207)" stroke="none" d="M 418,4695 L 313,4695 313,4484 524,4484 524,4695 418,4695 Z"/>
 <text class="SVGTextShape"><tspan class="TextParagraph" font-family="Liberation Sans, sans-serif" font-size="353px" font-weight="400"><tspan class="TextPosition" x="624" y="4709"><tspan fill="rgb(0,0,0)" stroke="none" style="white-space: pre">LTO+PGO</tspan></tspan></tspan></text>
 <text class="SVGTextShape"><tspan class="TextParagraph" font-family="Liberation Sans, sans-serif" font-size="353px" font-weight="400"><tspan class="TextPosition" x="624" y="5207"><tspan fill="rgb(0,0,0)" stroke="none" style="white-space: pre">PGO</tspan></tspan></tspan></text>
 <text class="SVGTextShape"><tspan class="TextParagraph" font-family="Liberation Sans, sans-serif" font-size="353px" font-weight="400"><tspan class="TextPosition" x="624" y="5704"><tspan fill="rgb(0,0,0)" stroke="none" style="white-space: pre">LTO</tspan></tspan></tspan></text>
 <text class="SVGTextShape"><tspan class="TextParagraph" font-family="Liberation Sans, sans-serif" font-size="353px" font-weight="400"><tspan class="TextPosition" x="624" y="6202"><tspan fill="rgb(0,0,0)" stroke="none" style="white-space: pre">Normal</tspan></tspan></tspan></text>
</svg>