<?xml version="1.0" encoding="UTF-8"?>
<!DOCTYPE svg PUBLIC "-//W3C//DTD SVG 1.1//EN" "http://www.w3.org/Graphics/SVG/1.1/DTD/svg11.dtd">
<svg width="160mm" height="117mm" viewBox="0 0 16000 11700" version="1.1" xmlns="http://www.w3.org/2000/svg" xmlns:xlink="http://www.w3.org/1999/xlink" stroke-width="28.222" stroke-linejoin="round" xml:space="preserve">
 <path fill="rgb(255,255,255)" stroke="none" d="M 7998,11700 L 0,11700 0,0 15996,0 15996,11700 7998,11700 Z"/>
 <path fill="none" stroke="rgb(179,179,179)" stroke-linejoin="round" d="M 7709,10616 L 3002,10616 3002,223 12415,223 12415,10616 7709,10616 Z"/>
 <path fill="none" stroke="rgb(179,179,179)" stroke-linejoin="round" d="M 3002,221 L 3002,10615"/>
 <path fill="none" stroke="rgb(179,179,179)" stroke-linejoin="round" d="M 4346,221 L 4346,10615"/>
 <path fill="none" stroke="rgb(179,179,179)" stroke-linejoin="round" d="M 5691,221 L 5691,10615"/>
 <path fill="none" stroke="rgb(179,179,179)" stroke-linejoin="round" d="M 7036,221 L 7036,10615"/>
 <path fill="none" stroke="rgb(179,179,179)" stroke-linejoin="round" d="M 8380,221 L 8380,10615"/>
 <path fill="none" stroke="rgb(179,179,179)" stroke-linejoin="round" d="M 9725,221 L 9725,10615"/>
 <path fill="none" stroke="rgb(179,179,179)" stroke-linejoin="round" d="M 11070,221 L 11070,10615"/>
 <path fill="none" stroke="rgb(179,179,179)" stroke-linejoin="round" d="M 12415,221 L 12415,10615"/>
 <path fill="none" stroke="rgb(179,179,179)" stroke-linejoin="round" d="M 2852,221 L 3002,221"/>
 <path fill="none" stroke="rgb(179,179,179)" stroke-linejoin="round" d="M 2852,221 L 3002,221"/>
 <path fill="none" stroke="rgb(179,179,179)" stroke-linejoin="round" d="M 2852,1261 L 3002,1261"/>
 <path fill="none" stroke="rgb(179,179,179)" stroke-linejoin="round" d="M 2852,1261 L 3002,1261"/>
 <path fill="none" stroke="rgb(179,179,179)" stroke-linejoin="round" d="M 2852,2300 L 3002,2300"/>
 <path fill="none" stroke="rgb(179,179,179)" stroke-linejoin="round" d="M 2852,2300 L 3002,2300"/>
 <path fill="none" stroke="rgb(179,179,179)" stroke-linejoin="round" d="M 2852,3340 L 3002,3340"/>
 <path fill="none" stroke="rgb(179,179,179)" stroke-linejoin="round" d="M 2852,3340 L 3002,3340"/>
 <path fill="none" stroke="rgb(179,179,179)" stroke-linejoin="round" d="M 2852,4379 L 3002,4379"/>
 <path fill="none" stroke="rgb(179,179,179)" stroke-linejoin="round" d="M 2852,4379 L 3002,4379"/>
 <path fill="none" stroke="rgb(179,179,179)" stroke-linejoin="round" d="M 2852,5418 L 3002,5418"/>
 <path fill="none" stroke="rgb(179,179,179)" stroke-linejoin="round" d="M 2852,5418 L 3002,5418"/>
 <path fill="none" stroke="rgb(179,179,179)" stroke-linejoin="round" d="M 2852,6457 L 3002,6457"/>
 <path fill="none" stroke="rgb(179,179,179)" stroke-linejoin="round" d="M 2852,6457 L 3002,6457"/>
 <path fill="none" stroke="rgb(179,179,179)" stroke-linejoin="round" d="M 2852,7496 L 3002,7496"/>
 <path fill="none" stroke="rgb(179,179,179)" stroke-linejoin="round" d="M 2852,7496 L 3002,7496"/>
 <path fill="none" stroke="rgb(179,179,179)" stroke-linejoin="round" d="M 2852,8536 L 3002,8536"/>
 <path fill="none" stroke="rgb(179,179,179)" stroke-linejoin="round" d="M 2852,8536 L 3002,8536"/>
 <path fill="none" stroke="rgb(179,179,179)" stroke-linejoin="round" d="M 2852,9575 L 3002,9575"/>
 <path fill="none" stroke="rgb(179,179,179)" stroke-linejoin="round" d="M 2852,9575 L 3002,9575"/>
 <path fill="none" stroke="rgb(179,179,179)" stroke-linejoin="round" d="M 2852,10615 L 3002,10615"/>
 <path fill="none" stroke="rgb(179,179,179)" stroke-linejoin="round" d="M 2852,10615 L 3002,10615"/>
 <path fill="none" stroke="rgb(179,179,179)" stroke-linejoin="round" d="M 3002,10615 L 3002,221"/>
 <path fill="none" stroke="rgb(179,179,179)" stroke-linejoin="round" d="M 3002,10765 L 3002,10615"/>
 <path fill="none" stroke="rgb(179,179,179)" stroke-linejoin="round" d="M 3002,71 L 3002,221"/>
 <path fill="none" stroke="rgb(179,179,179)" stroke-linejoin="round" d="M 4346,10765 L 4346,10615"/>
 <path fill="none" stroke="rgb(179,179,179)" stroke-linejoin="round" d="M 4346,71 L 4346,221"/>
 <path fill="none" stroke="rgb(179,179,179)" stroke-linejoin="round" d="M 5691,10765 L 5691,10615"/>
 <path fill="none" stroke="rgb(179,179,179)" stroke-linejoin="round" d="M 5691,71 L 5691,221"/>
 <path fill="none" stroke="rgb(179,179,179)" stroke-linejoin="round" d="M 7036,10765 L 7036,10615"/>
 <path fill="none" stroke="rgb(179,179,179)" stroke-linejoin="round" d="M 7036,71 L 7036,221"/>
 <path fill="none" stroke="rgb(179,179,179)" stroke-linejoin="round" d="M 8380,10765 L 8380,10615"/>
 <path fill="none" stroke="rgb(179,179,179)" stroke-linejoin="round" d="M 8380,71 L 8380,221"/>
 <path fill="none" stroke="rgb(179,179,179)" stroke-linejoin="round" d="M 9725,10765 L 9725,10615"/>
 <path fill="none" stroke="rgb(179,179,179)" stroke-linejoin="round" d="M 9725,71 L 9725,221"/>
 <path fill="none" stroke="rgb(179,179,179)" stroke-linejoin="round" d="M 11070,10765 L 11070,10615"/>
 <path fill="none" stroke="rgb(179,179,179)" stroke-linejoin="round" d="M 11070,71 L 11070,221"/>
 <path fill="none" stroke="rgb(179,179,179)" stroke-linejoin="round" d="M 12415,10765 L 12415,10615"/>
 <path fill="none" stroke="rgb(179,179,179)" stroke-linejoin="round" d="M 12415,71 L 12415,221"/>
 <path fill="none" stroke="rgb(179,179,179)" stroke-linejoin="round" d="M 3002,221 L 12415,221"/>
 <path fill="rgb(19,148,72)" stroke="none" d="M 3002,9679 L 3002,9887 9725,9887 9725,9679 3002,9679 Z"/>
 <path fill="rgb(19,148,72)" stroke="none" d="M 3002,8640 L 3002,8848 9725,8848 9725,8640 3002,8640 Z"/>
 <path fill="rgb(19,148,72)" stroke="none" d="M 3002,7600 L 3002,7808 9725,7808 9725,7600 3002,7600 Z"/>
 <path fill="rgb(19,148,72)" stroke="none" d="M 3002,6561 L 3002,6769 9725,6769 9725,6561 3002,6561 Z"/>
 <path fill="rgb(19,148,72)" stroke="none" d="M 3002,5522 L 3002,5730 9725,5730 9725,5522 3002,5522 Z"/>
 <path fill="rgb(19,148,72)" stroke="none" d="M 3002,4483 L 3002,4691 9725,4691 9725,4483 3002,4483 Z"/>
 <path fill="rgb(19,148,72)" stroke="none" d="M 3002,3444 L 3002,3652 9725,3652 9725,3444 3002,3444 Z"/>
 <path fill="rgb(19,148,72)" stroke="none" d="M 3002,2404 L 3002,2612 9725,2612 9725,2404 3002,2404 Z"/>
 <path fill="rgb(19,148,72)" stroke="none" d="M 3002,1365 L 3002,1573 9725,1573 9725,1365 3002,1365 Z"/>
 <path fill="rgb(19,148,72)" stroke="none" d="M 3002,325 L 3002,533 9725,533 9725,325 3002,325 Z"/>
 <path fill="rgb(12,50,44)" stroke="none" d="M 3002,9887 L 3002,10095 9725,10095 9725,9887 3002,9887 Z"/>
 <path fill="rgb(12,50,44)" stroke="none" d="M 3002,8848 L 3002,9055 10421,9055 10421,8848 3002,8848 Z"/>
 <path fill="rgb(12,50,44)" stroke="none" d="M 3002,7808 L 3002,8016 10610,8016 10610,7808 3002,7808 Z"/>
 <path fill="rgb(12,50,44)" stroke="none" d="M 3002,6769 L 3002,6977 10418,6977 10418,6769 3002,6769 Z"/>
 <path fill="rgb(12,50,44)" stroke="none" d="M 3002,5730 L 3002,5937 9737,5937 9737,5730 3002,5730 Z"/>
 <path fill="rgb(12,50,44)" stroke="none" d="M 3002,4691 L 3002,4899 10086,4899 10086,4691 3002,4691 Z"/>
 <path fill="rgb(12,50,44)" stroke="none" d="M 3002,3652 L 3002,3859 10181,3859 10181,3652 3002,3652 Z"/>
 <path fill="rgb(12,50,44)" stroke="none" d="M 3002,2612 L 3002,2820 10852,2820 10852,2612 3002,2612 Z"/>
 <path fill="rgb(12,50,44)" stroke="none" d="M 3002,1573 L 3002,1781 9961,1781 9961,1573 3002,1573 Z"/>
 <path fill="rgb(12,50,44)" stroke="none" d="M 3002,533 L 3002,741 9922,741 9922,533 3002,533 Z"/>
 <path fill="rgb(255,193,8)" stroke="none" d="M 3002,10095 L 3002,10303 9870,10303 9870,10095 3002,10095 Z"/>
 <path fill="rgb(255,193,8)" stroke="none" d="M 3002,9055 L 3002,9263 8401,9263 8401,9055 3002,9055 Z"/>
 <path fill="rgb(255,193,8)" stroke="none" d="M 3002,8016 L 3002,8224 9268,8224 9268,8016 3002,8016 Z"/>
 <path fill="rgb(255,193,8)" stroke="none" d="M 3002,6977 L 3002,7184 9872,7184 9872,6977 3002,6977 Z"/>
 <path fill="rgb(255,193,8)" stroke="none" d="M 3002,5937 L 3002,6145 10450,6145 10450,5937 3002,5937 Z"/>
 <path fill="rgb(255,193,8)" stroke="none" d="M 3002,4899 L 3002,5107 9501,5107 9501,4899 3002,4899 Z"/>
 <path fill="rgb(255,193,8)" stroke="none" d="M 3002,3859 L 3002,4067 10038,4067 10038,3859 3002,3859 Z"/>
 <path fill="rgb(255,193,8)" stroke="none" d="M 3002,2820 L 3002,3028 9927,3028 9927,2820 3002,2820 Z"/>
 <path fill="rgb(255,193,8)" stroke="none" d="M 3002,1781 L 3002,1988 10115,1988 10115,1781 3002,1781 Z"/>
 <path fill="rgb(255,193,8)" stroke="none" d="M 3002,741 L 3002,949 10307,949 10307,741 3002,741 Z"/>
 <path fill="rgb(0,138,207)" stroke="none" d="M 3002,10303 L 3002,10511 9960,10511 9960,10303 3002,10303 Z"/>
 <path fill="rgb(0,138,207)" stroke="none" d="M 3002,9263 L 3002,9471 8474,9471 8474,9263 3002,9263 Z"/>
 <path fill="rgb(0,138,207)" stroke="none" d="M 3002,8224 L 3002,8432 10510,8432 10510,8224 3002,8224 Z"/>
 <path fill="rgb(0,138,207)" stroke="none" d="M 3002,7184 L 3002,7392 10816,7392 10816,7184 3002,7184 Z"/>
 <path fill="rgb(0,138,207)" stroke="none" d="M 3002,6145 L 3002,6353 10137,6353 10137,6145 3002,6145 Z"/>
 <path fill="rgb(0,138,207)" stroke="none" d="M 3002,5107 L 3002,5315 10173,5315 10173,5107 3002,5107 Z"/>
 <path fill="rgb(0,138,207)" stroke="none" d="M 3002,4067 L 3002,4275 10864,4275 10864,4067 3002,4067 Z"/>
 <path fill="rgb(0,138,207)" stroke="none" d="M 3002,3028 L 3002,3236 10573,3236 10573,3028 3002,3028 Z"/>
 <path fill="rgb(0,138,207)" stroke="none" d="M 3002,1988 L 3002,2196 10536,2196 10536,1988 3002,1988 Z"/>
 <path fill="rgb(0,138,207)" stroke="none" d="M 3002,949 L 3002,1157 10483,1157 10483,949 3002,949 Z"/>
 <text class="SVGTextShape"><tspan class="TextParagraph" font-family="Liberation Sans, sans-serif" font-size="353px" font-weight="400"><tspan class="TextPosition" x="318" y="861"><tspan fill="rgb(0,0,0)" stroke="none">500.perlbench_r</tspan></tspan></tspan></text>
 <text class="SVGTextShape"><tspan class="TextParagraph" font-family="Liberation Sans, sans-serif" font-size="353px" font-weight="400"><tspan class="TextPosition" x="1244" y="1901"><tspan fill="rgb(0,0,0)" stroke="none">502.gcc_r</tspan></tspan></tspan></text>
 <text class="SVGTextShape"><tspan class="TextParagraph" font-family="Liberation Sans, sans-serif" font-size="353px" font-weight="400"><tspan class="TextPosition" x="1217" y="2940"><tspan fill="rgb(0,0,0)" stroke="none">505.mcf_r</tspan></tspan></tspan></text>
 <text class="SVGTextShape"><tspan class="TextParagraph" font-family="Liberation Sans, sans-serif" font-size="353px" font-weight="400"><tspan class="TextPosition" x="477" y="3979"><tspan fill="rgb(0,0,0)" stroke="none">520.omnetpp_r</tspan></tspan></tspan></text>
 <text class="SVGTextShape"><tspan class="TextParagraph" font-family="Liberation Sans, sans-serif" font-size="353px" font-weight="400"><tspan class="TextPosition" x="133" y="5019"><tspan fill="rgb(0,0,0)" stroke="none">523.xalancbmk_r</tspan></tspan></tspan></text>
 <text class="SVGTextShape"><tspan class="TextParagraph" font-family="Liberation Sans, sans-serif" font-size="353px" font-weight="400"><tspan class="TextPosition" x="1059" y="6058"><tspan fill="rgb(0,0,0)" stroke="none">525.x264_r</tspan></tspan></tspan></text>
 <text class="SVGTextShape"><tspan class="TextParagraph" font-family="Liberation Sans, sans-serif" font-size="353px" font-weight="400"><tspan class="TextPosition" x="238" y="7098"><tspan fill="rgb(0,0,0)" stroke="none">531.deepsjeng_r</tspan></tspan></tspan></text>
 <text class="SVGTextShape"><tspan class="TextParagraph" font-family="Liberation Sans, sans-serif" font-size="353px" font-weight="400"><tspan class="TextPosition" x="1085" y="8137"><tspan fill="rgb(0,0,0)" stroke="none">541.leela_r</tspan></tspan></tspan></text>
 <text class="SVGTextShape"><tspan class="TextParagraph" font-family="Liberation Sans, sans-serif" font-size="353px" font-weight="400"><tspan class="TextPosition" x="133" y="9176"><tspan fill="rgb(0,0,0)" stroke="none">548.exchange2_r</tspan></tspan></tspan></text>
 <text class="SVGTextShape"><tspan class="TextParagraph" font-family="Liberation Sans, sans-serif" font-size="353px" font-weight="400"><tspan class="TextPosition" x="1429" y="10216"><tspan fill="rgb(0,0,0)" stroke="none">557.xz_r</tspan></tspan></tspan></text>
 <text class="SVGTextShape"><tspan class="TextParagraph" font-family="Liberation Sans, sans-serif" font-size="353px" font-weight="400"><tspan class="TextPosition" x="2750" y="11183"><tspan fill="rgb(0,0,0)" stroke="none">0%</tspan></tspan></tspan></text>
 <text class="SVGTextShape"><tspan class="TextParagraph" font-family="Liberation Sans, sans-serif" font-size="353px" font-weight="400"><tspan class="TextPosition" x="4002" y="11183"><tspan fill="rgb(0,0,0)" stroke="none">20%</tspan></tspan></tspan></text>
 <text class="SVGTextShape"><tspan class="TextParagraph" font-family="Liberation Sans, sans-serif" font-size="353px" font-weight="400"><tspan class="TextPosition" x="5347" y="11183"><tspan fill="rgb(0,0,0)" stroke="none">40%</tspan></tspan></tspan></text>
 <text class="SVGTextShape"><tspan class="TextParagraph" font-family="Liberation Sans, sans-serif" font-size="353px" font-weight="400"><tspan class="TextPosition" x="6692" y="11183"><tspan fill="rgb(0,0,0)" stroke="none">60%</tspan></tspan></tspan></text>
 <text class="SVGTextShape"><tspan class="TextParagraph" font-family="Liberation Sans, sans-serif" font-size="353px" font-weight="400"><tspan class="TextPosition" x="8037" y="11183"><tspan fill="rgb(0,0,0)" stroke="none">80%</tspan></tspan></tspan></text>
 <text class="SVGTextShape"><tspan class="TextParagraph" font-family="Liberation Sans, sans-serif" font-size="353px" font-weight="400"><tspan class="TextPosition" x="9289" y="11183"><tspan fill="rgb(0,0,0)" stroke="none">100%</tspan></tspan></tspan></text>
 <text class="SVGTextShape"><tspan class="TextParagraph" font-family="Liberation Sans, sans-serif" font-size="353px" font-weight="400"><tspan class="TextPosition" x="10634" y="11183"><tspan fill="rgb(0,0,0)" stroke="none">120%</tspan></tspan></tspan></text>
 <text class="SVGTextShape"><tspan class="TextParagraph" font-family="Liberation Sans, sans-serif" font-size="353px" font-weight="400"><tspan class="TextPosition" x="11979" y="11183"><tspan fill="rgb(0,0,0)" stroke="none">140%</tspan></tspan></tspan></text>
 <path fill="rgb(19,148,72)" stroke="none" d="M 13823,6701 L 13717,6701 13717,6490 13928,6490 13928,6701 13823,6701 Z"/>
 <path fill="rgb(12,50,44)" stroke="none" d="M 13823,6203 L 13717,6203 13717,5992 13928,5992 13928,6203 13823,6203 Z"/>
 <path fill="rgb(255,193,8)" stroke="none" d="M 13823,5706 L 13717,5706 13717,5495 13928,5495 13928,5706 13823,5706 Z"/>
 <path fill="rgb(0,138,207)" stroke="none" d="M 13823,5208 L 13717,5208 13717,4997 13928,4997 13928,5208 13823,5208 Z"/>
 <text class="SVGTextShape"><tspan class="TextParagraph" font-family="Liberation Sans, sans-serif" font-size="353px" font-weight="400"><tspan class="TextPosition" x="14028" y="5222"><tspan fill="rgb(0,0,0)" stroke="none">LTO+PGO</tspan></tspan></tspan></text>
 <text class="SVGTextShape"><tspan class="TextParagraph" font-family="Liberation Sans, sans-serif" font-size="353px" font-weight="400"><tspan class="TextPosition" x="14028" y="5720"><tspan fill="rgb(0,0,0)" stroke="none">PGO</tspan></tspan></tspan></text>
 <text class="SVGTextShape"><tspan class="TextParagraph" font-family="Liberation Sans, sans-serif" font-size="353px" font-weight="400"><tspan class="TextPosition" x="14028" y="6217"><tspan fill="rgb(0,0,0)" stroke="none">LTO</tspan></tspan></tspan></text>
 <text class="SVGTextShape"><tspan class="TextParagraph" font-family="Liberation Sans, sans-serif" font-size="353px" font-weight="400"><tspan class="TextPosition" x="14028" y="6715"><tspan fill="rgb(0,0,0)" stroke="none">Normal</tspan></tspan></tspan></text>
</svg>