<?xml version="1.0" encoding="UTF-8"?>
<!DOCTYPE svg PUBLIC "-//W3C//DTD SVG 1.1//EN" "http://www.w3.org/Graphics/SVG/1.1/DTD/svg11.dtd">
<svg width="160mm" height="70mm" viewBox="0 0 16000 7000" version="1.1" xmlns="http://www.w3.org/2000/svg" xmlns:xlink="http://www.w3.org/1999/xlink" stroke-width="28.222" stroke-linejoin="round" xml:space="preserve">
 <path fill="rgb(255,255,255)" stroke="none" d="M 8000,7000 L 0,7000 0,0 16000,0 16000,7000 8000,7000 Z"/>
 <path fill="none" stroke="rgb(179,179,179)" stroke-linejoin="round" d="M 7365,6661 L 1444,6661 1444,339 13285,339 13285,6661 7365,6661 Z"/>
 <path fill="none" stroke="rgb(179,179,179)" stroke-linejoin="round" d="M 13285,6659 L 1444,6659"/>
 <path fill="none" stroke="rgb(179,179,179)" stroke-linejoin="round" d="M 13285,5395 L 1444,5395"/>
 <path fill="none" stroke="rgb(179,179,179)" stroke-linejoin="round" d="M 13285,4130 L 1444,4130"/>
 <path fill="none" stroke="rgb(179,179,179)" stroke-linejoin="round" d="M 13285,2867 L 1444,2867"/>
 <path fill="none" stroke="rgb(179,179,179)" stroke-linejoin="round" d="M 13285,1602 L 1444,1602"/>
 <path fill="none" stroke="rgb(179,179,179)" stroke-linejoin="round" d="M 13285,338 L 1444,338"/>
 <path fill="none" stroke="rgb(179,179,179)" stroke-linejoin="round" d="M 1444,6809 L 1444,6659"/>
 <path fill="none" stroke="rgb(179,179,179)" stroke-linejoin="round" d="M 1444,6809 L 1444,6659"/>
 <path fill="none" stroke="rgb(179,179,179)" stroke-linejoin="round" d="M 13285,6809 L 13285,6659"/>
 <path fill="none" stroke="rgb(179,179,179)" stroke-linejoin="round" d="M 13285,6809 L 13285,6659"/>
 <path fill="none" stroke="rgb(179,179,179)" stroke-linejoin="round" d="M 1444,6659 L 13285,6659"/>
 <path fill="none" stroke="rgb(179,179,179)" stroke-linejoin="round" d="M 1294,6659 L 1444,6659"/>
 <path fill="none" stroke="rgb(179,179,179)" stroke-linejoin="round" d="M 1294,6659 L 1444,6659"/>
 <path fill="none" stroke="rgb(179,179,179)" stroke-linejoin="round" d="M 1294,5395 L 1444,5395"/>
 <path fill="none" stroke="rgb(179,179,179)" stroke-linejoin="round" d="M 1294,5395 L 1444,5395"/>
 <path fill="none" stroke="rgb(179,179,179)" stroke-linejoin="round" d="M 1294,4130 L 1444,4130"/>
 <path fill="none" stroke="rgb(179,179,179)" stroke-linejoin="round" d="M 1294,4130 L 1444,4130"/>
 <path fill="none" stroke="rgb(179,179,179)" stroke-linejoin="round" d="M 1294,2867 L 1444,2867"/>
 <path fill="none" stroke="rgb(179,179,179)" stroke-linejoin="round" d="M 1294,2867 L 1444,2867"/>
 <path fill="none" stroke="rgb(179,179,179)" stroke-linejoin="round" d="M 1294,1602 L 1444,1602"/>
 <path fill="none" stroke="rgb(179,179,179)" stroke-linejoin="round" d="M 1294,1602 L 1444,1602"/>
 <path fill="none" stroke="rgb(179,179,179)" stroke-linejoin="round" d="M 1294,338 L 1444,338"/>
 <path fill="none" stroke="rgb(179,179,179)" stroke-linejoin="round" d="M 1294,338 L 1444,338"/>
 <path fill="none" stroke="rgb(179,179,179)" stroke-linejoin="round" d="M 1444,6659 L 1444,338"/>
 <path fill="rgb(19,148,72)" stroke="none" d="M 2628,6659 L 4996,6659 4996,4130 2628,4130 2628,6659 Z"/>
 <path fill="rgb(12,50,44)" stroke="none" d="M 4996,6659 L 7365,6659 7365,3630 4996,3630 4996,6659 Z"/>
 <path fill="rgb(255,193,8)" stroke="none" d="M 7365,6659 L 9732,6659 9732,2096 7365,2096 7365,6659 Z"/>
 <path fill="rgb(0,138,207)" stroke="none" d="M 9732,6659 L 12100,6659 12100,1128 9732,1128 9732,6659 Z"/>
 <text class="TextShape"><tspan class="TextParagraph" font-family="Liberation Sans, sans-serif" font-size="353px" font-weight="400"><tspan class="TextPosition" x="506" y="6780"><tspan fill="rgb(0,0,0)" stroke="none">80%</tspan></tspan></tspan></text>
 <text class="TextShape"><tspan class="TextParagraph" font-family="Liberation Sans, sans-serif" font-size="353px" font-weight="400"><tspan class="TextPosition" x="506" y="5516"><tspan fill="rgb(0,0,0)" stroke="none">90%</tspan></tspan></tspan></text>
 <text class="TextShape"><tspan class="TextParagraph" font-family="Liberation Sans, sans-serif" font-size="353px" font-weight="400"><tspan class="TextPosition" x="321" y="4251"><tspan fill="rgb(0,0,0)" stroke="none">100%</tspan></tspan></tspan></text>
 <text class="TextShape"><tspan class="TextParagraph" font-family="Liberation Sans, sans-serif" font-size="353px" font-weight="400"><tspan class="TextPosition" x="321" y="2987"><tspan fill="rgb(0,0,0)" stroke="none">110%</tspan></tspan></tspan></text>
 <text class="TextShape"><tspan class="TextParagraph" font-family="Liberation Sans, sans-serif" font-size="353px" font-weight="400"><tspan class="TextPosition" x="321" y="1722"><tspan fill="rgb(0,0,0)" stroke="none">120%</tspan></tspan></tspan></text>
 <text class="TextShape"><tspan class="TextParagraph" font-family="Liberation Sans, sans-serif" font-size="353px" font-weight="400"><tspan class="TextPosition" x="321" y="458"><tspan fill="rgb(0,0,0)" stroke="none">130%</tspan></tspan></tspan></text>
 <path fill="rgb(19,148,72)" stroke="none" d="M 13827,2858 L 13721,2858 13721,2647 13932,2647 13932,2858 13827,2858 Z"/>
 <path fill="rgb(12,50,44)" stroke="none" d="M 13827,3356 L 13721,3356 13721,3145 13932,3145 13932,3356 13827,3356 Z"/>
 <path fill="rgb(255,193,8)" stroke="none" d="M 13827,3853 L 13721,3853 13721,3642 13932,3642 13932,3853 13827,3853 Z"/>
 <path fill="rgb(0,138,207)" stroke="none" d="M 13827,4351 L 13721,4351 13721,4140 13932,4140 13932,4351 13827,4351 Z"/>
 <text class="TextShape"><tspan class="TextParagraph" font-family="Liberation Sans, sans-serif" font-size="353px" font-weight="400"><tspan class="TextPosition" x="14032" y="2872"><tspan fill="rgb(0,0,0)" stroke="none">Standard</tspan></tspan></tspan></text>
 <text class="TextShape"><tspan class="TextParagraph" font-family="Liberation Sans, sans-serif" font-size="353px" font-weight="400"><tspan class="TextPosition" x="14032" y="3370"><tspan fill="rgb(0,0,0)" stroke="none">LTO</tspan></tspan></tspan></text>
 <text class="TextShape"><tspan class="TextParagraph" font-family="Liberation Sans, sans-serif" font-size="353px" font-weight="400"><tspan class="TextPosition" x="14032" y="3867"><tspan fill="rgb(0,0,0)" stroke="none">PGO</tspan></tspan></tspan></text>
 <text class="TextShape"><tspan class="TextParagraph" font-family="Liberation Sans, sans-serif" font-size="353px" font-weight="400"><tspan class="TextPosition" x="14032" y="4365"><tspan fill="rgb(0,0,0)" stroke="none">LTO+PGO</tspan></tspan></tspan></text>
</svg>