<?xml version="1.0" encoding="UTF-8"?>
<!DOCTYPE svg PUBLIC "-//W3C//DTD SVG 1.1//EN" "http://www.w3.org/Graphics/SVG/1.1/DTD/svg11.dtd">
<svg width="160mm" height="75mm" viewBox="0 0 16000 7500" version="1.1" xmlns="http://www.w3.org/2000/svg" xmlns:xlink="http://www.w3.org/1999/xlink" stroke-width="28.222" stroke-linejoin="round" xml:space="preserve">
 <path fill="rgb(255,255,255)" stroke="none" d="M 8000,7500 L 0,7500 0,1 16000,1 16000,7500 8000,7500 Z"/>
 <path fill="none" stroke="rgb(179,179,179)" stroke-linejoin="round" d="M 7834,6704 L 3005,6704 3005,151 12662,151 12662,6704 7834,6704 Z"/>
 <path fill="none" stroke="rgb(179,179,179)" stroke-linejoin="round" d="M 3005,149 L 3005,6702"/>
 <path fill="none" stroke="rgb(179,179,179)" stroke-linejoin="round" d="M 4384,149 L 4384,6702"/>
 <path fill="none" stroke="rgb(179,179,179)" stroke-linejoin="round" d="M 5764,149 L 5764,6702"/>
 <path fill="none" stroke="rgb(179,179,179)" stroke-linejoin="round" d="M 7144,149 L 7144,6702"/>
 <path fill="none" stroke="rgb(179,179,179)" stroke-linejoin="round" d="M 8522,149 L 8522,6702"/>
 <path fill="none" stroke="rgb(179,179,179)" stroke-linejoin="round" d="M 9902,149 L 9902,6702"/>
 <path fill="none" stroke="rgb(179,179,179)" stroke-linejoin="round" d="M 11282,149 L 11282,6702"/>
 <path fill="none" stroke="rgb(179,179,179)" stroke-linejoin="round" d="M 12662,149 L 12662,6702"/>
 <path fill="none" stroke="rgb(179,179,179)" stroke-linejoin="round" d="M 2855,149 L 3005,149"/>
 <path fill="none" stroke="rgb(179,179,179)" stroke-linejoin="round" d="M 2855,149 L 3005,149"/>
 <path fill="none" stroke="rgb(179,179,179)" stroke-linejoin="round" d="M 2855,1242 L 3005,1242"/>
 <path fill="none" stroke="rgb(179,179,179)" stroke-linejoin="round" d="M 2855,1242 L 3005,1242"/>
 <path fill="none" stroke="rgb(179,179,179)" stroke-linejoin="round" d="M 2855,2334 L 3005,2334"/>
 <path fill="none" stroke="rgb(179,179,179)" stroke-linejoin="round" d="M 2855,2334 L 3005,2334"/>
 <path fill="none" stroke="rgb(179,179,179)" stroke-linejoin="round" d="M 2855,3426 L 3005,3426"/>
 <path fill="none" stroke="rgb(179,179,179)" stroke-linejoin="round" d="M 2855,3426 L 3005,3426"/>
 <path fill="none" stroke="rgb(179,179,179)" stroke-linejoin="round" d="M 2855,4518 L 3005,4518"/>
 <path fill="none" stroke="rgb(179,179,179)" stroke-linejoin="round" d="M 2855,4518 L 3005,4518"/>
 <path fill="none" stroke="rgb(179,179,179)" stroke-linejoin="round" d="M 2855,5611 L 3005,5611"/>
 <path fill="none" stroke="rgb(179,179,179)" stroke-linejoin="round" d="M 2855,5611 L 3005,5611"/>
 <path fill="none" stroke="rgb(179,179,179)" stroke-linejoin="round" d="M 2855,6702 L 3005,6702"/>
 <path fill="none" stroke="rgb(179,179,179)" stroke-linejoin="round" d="M 2855,6702 L 3005,6702"/>
 <path fill="none" stroke="rgb(179,179,179)" stroke-linejoin="round" d="M 3005,6702 L 3005,149"/>
 <path fill="none" stroke="rgb(179,179,179)" stroke-linejoin="round" d="M 3005,6852 L 3005,6702"/>
 <path fill="none" stroke="rgb(179,179,179)" stroke-linejoin="round" d="M 3005,0 L 3005,149"/>
 <path fill="none" stroke="rgb(179,179,179)" stroke-linejoin="round" d="M 4384,6852 L 4384,6702"/>
 <path fill="none" stroke="rgb(179,179,179)" stroke-linejoin="round" d="M 4384,0 L 4384,149"/>
 <path fill="none" stroke="rgb(179,179,179)" stroke-linejoin="round" d="M 5764,6852 L 5764,6702"/>
 <path fill="none" stroke="rgb(179,179,179)" stroke-linejoin="round" d="M 5764,0 L 5764,149"/>
 <path fill="none" stroke="rgb(179,179,179)" stroke-linejoin="round" d="M 7144,6852 L 7144,6702"/>
 <path fill="none" stroke="rgb(179,179,179)" stroke-linejoin="round" d="M 7144,0 L 7144,149"/>
 <path fill="none" stroke="rgb(179,179,179)" stroke-linejoin="round" d="M 8522,6852 L 8522,6702"/>
 <path fill="none" stroke="rgb(179,179,179)" stroke-linejoin="round" d="M 8522,0 L 8522,149"/>
 <path fill="none" stroke="rgb(179,179,179)" stroke-linejoin="round" d="M 9902,6852 L 9902,6702"/>
 <path fill="none" stroke="rgb(179,179,179)" stroke-linejoin="round" d="M 9902,0 L 9902,149"/>
 <path fill="none" stroke="rgb(179,179,179)" stroke-linejoin="round" d="M 11282,6852 L 11282,6702"/>
 <path fill="none" stroke="rgb(179,179,179)" stroke-linejoin="round" d="M 11282,0 L 11282,149"/>
 <path fill="none" stroke="rgb(179,179,179)" stroke-linejoin="round" d="M 12662,6852 L 12662,6702"/>
 <path fill="none" stroke="rgb(179,179,179)" stroke-linejoin="round" d="M 12662,0 L 12662,149"/>
 <path fill="none" stroke="rgb(179,179,179)" stroke-linejoin="round" d="M 3005,149 L 12662,149"/>
 <path fill="rgb(19,148,72)" stroke="none" d="M 3005,5720 L 3005,5939 9902,5939 9902,5720 3005,5720 Z"/>
 <path fill="rgb(19,148,72)" stroke="none" d="M 3005,4628 L 3005,4846 9902,4846 9902,4628 3005,4628 Z"/>
 <path fill="rgb(19,148,72)" stroke="none" d="M 3005,3535 L 3005,3754 9902,3754 9902,3535 3005,3535 Z"/>
 <path fill="rgb(19,148,72)" stroke="none" d="M 3005,2444 L 3005,2662 9902,2662 9902,2444 3005,2444 Z"/>
 <path fill="rgb(19,148,72)" stroke="none" d="M 3005,1351 L 3005,1570 9902,1570 9902,1351 3005,1351 Z"/>
 <path fill="rgb(19,148,72)" stroke="none" d="M 3005,259 L 3005,477 9902,477 9902,259 3005,259 Z"/>
 <path fill="rgb(12,50,44)" stroke="none" d="M 3005,5939 L 3005,6156 10750,6156 10750,5939 3005,5939 Z"/>
 <path fill="rgb(12,50,44)" stroke="none" d="M 3005,4846 L 3005,5065 11221,5065 11221,4846 3005,4846 Z"/>
 <path fill="rgb(12,50,44)" stroke="none" d="M 3005,3754 L 3005,3972 10347,3972 10347,3754 3005,3754 Z"/>
 <path fill="rgb(12,50,44)" stroke="none" d="M 3005,2662 L 3005,2881 11099,2881 11099,2662 3005,2662 Z"/>
 <path fill="rgb(12,50,44)" stroke="none" d="M 3005,1570 L 3005,1788 10132,1788 10132,1570 3005,1570 Z"/>
 <path fill="rgb(12,50,44)" stroke="none" d="M 3005,477 L 3005,696 10043,696 10043,477 3005,477 Z"/>
 <path fill="rgb(255,193,8)" stroke="none" d="M 3005,6156 L 3005,6375 9941,6375 9941,6156 3005,6156 Z"/>
 <path fill="rgb(255,193,8)" stroke="none" d="M 3005,5065 L 3005,5283 9983,5283 9983,5065 3005,5065 Z"/>
 <path fill="rgb(255,193,8)" stroke="none" d="M 3005,3972 L 3005,4191 9540,4191 9540,3972 3005,3972 Z"/>
 <path fill="rgb(255,193,8)" stroke="none" d="M 3005,2881 L 3005,3098 10212,3098 10212,2881 3005,2881 Z"/>
 <path fill="rgb(255,193,8)" stroke="none" d="M 3005,1788 L 3005,2007 10376,2007 10376,1788 3005,1788 Z"/>
 <path fill="rgb(255,193,8)" stroke="none" d="M 3005,696 L 3005,914 10766,914 10766,696 3005,696 Z"/>
 <path fill="rgb(0,138,207)" stroke="none" d="M 3005,6375 L 3005,6593 10986,6593 10986,6375 3005,6375 Z"/>
 <path fill="rgb(0,138,207)" stroke="none" d="M 3005,5283 L 3005,5502 11606,5502 11606,5283 3005,5283 Z"/>
 <path fill="rgb(0,138,207)" stroke="none" d="M 3005,4191 L 3005,4409 10643,4409 10643,4191 3005,4191 Z"/>
 <path fill="rgb(0,138,207)" stroke="none" d="M 3005,3098 L 3005,3317 10715,3317 10715,3098 3005,3098 Z"/>
 <path fill="rgb(0,138,207)" stroke="none" d="M 3005,2007 L 3005,2225 10795,2225 10795,2007 3005,2007 Z"/>
 <path fill="rgb(0,138,207)" stroke="none" d="M 3005,914 L 3005,1133 11049,1133 11049,914 3005,914 Z"/>
 <text class="TextShape"><tspan class="TextParagraph" font-family="Liberation Sans, sans-serif" font-size="353px" font-weight="400"><tspan class="TextPosition" x="321" y="817"><tspan fill="rgb(0,0,0)" stroke="none">500.perlbench_r</tspan></tspan></tspan></text>
 <text class="TextShape"><tspan class="TextParagraph" font-family="Liberation Sans, sans-serif" font-size="353px" font-weight="400"><tspan class="TextPosition" x="1247" y="1908"><tspan fill="rgb(0,0,0)" stroke="none">502.gcc_r</tspan></tspan></tspan></text>
 <text class="TextShape"><tspan class="TextParagraph" font-family="Liberation Sans, sans-serif" font-size="353px" font-weight="400"><tspan class="TextPosition" x="1220" y="3001"><tspan fill="rgb(0,0,0)" stroke="none">505.mcf_r</tspan></tspan></tspan></text>
 <text class="TextShape"><tspan class="TextParagraph" font-family="Liberation Sans, sans-serif" font-size="353px" font-weight="400"><tspan class="TextPosition" x="136" y="4093"><tspan fill="rgb(0,0,0)" stroke="none">523.xalancbmk_r</tspan></tspan></tspan></text>
 <text class="TextShape"><tspan class="TextParagraph" font-family="Liberation Sans, sans-serif" font-size="353px" font-weight="400"><tspan class="TextPosition" x="241" y="5185"><tspan fill="rgb(0,0,0)" stroke="none">531.deepsjeng_r</tspan></tspan></tspan></text>
 <text class="TextShape"><tspan class="TextParagraph" font-family="Liberation Sans, sans-serif" font-size="353px" font-weight="400"><tspan class="TextPosition" x="1088" y="6277"><tspan fill="rgb(0,0,0)" stroke="none">541.leela_r</tspan></tspan></tspan></text>
 <text class="TextShape"><tspan class="TextParagraph" font-family="Liberation Sans, sans-serif" font-size="353px" font-weight="400"><tspan class="TextPosition" x="2753" y="7270"><tspan fill="rgb(0,0,0)" stroke="none">0%</tspan></tspan></tspan></text>
 <text class="TextShape"><tspan class="TextParagraph" font-family="Liberation Sans, sans-serif" font-size="353px" font-weight="400"><tspan class="TextPosition" x="4040" y="7270"><tspan fill="rgb(0,0,0)" stroke="none">20%</tspan></tspan></tspan></text>
 <text class="TextShape"><tspan class="TextParagraph" font-family="Liberation Sans, sans-serif" font-size="353px" font-weight="400"><tspan class="TextPosition" x="5420" y="7270"><tspan fill="rgb(0,0,0)" stroke="none">40%</tspan></tspan></tspan></text>
 <text class="TextShape"><tspan class="TextParagraph" font-family="Liberation Sans, sans-serif" font-size="353px" font-weight="400"><tspan class="TextPosition" x="6800" y="7270"><tspan fill="rgb(0,0,0)" stroke="none">60%</tspan></tspan></tspan></text>
 <text class="TextShape"><tspan class="TextParagraph" font-family="Liberation Sans, sans-serif" font-size="353px" font-weight="400"><tspan class="TextPosition" x="8179" y="7270"><tspan fill="rgb(0,0,0)" stroke="none">80%</tspan></tspan></tspan></text>
 <text class="TextShape"><tspan class="TextParagraph" font-family="Liberation Sans, sans-serif" font-size="353px" font-weight="400"><tspan class="TextPosition" x="9466" y="7270"><tspan fill="rgb(0,0,0)" stroke="none">100%</tspan></tspan></tspan></text>
 <text class="TextShape"><tspan class="TextParagraph" font-family="Liberation Sans, sans-serif" font-size="353px" font-weight="400"><tspan class="TextPosition" x="10846" y="7270"><tspan fill="rgb(0,0,0)" stroke="none">120%</tspan></tspan></tspan></text>
 <text class="TextShape"><tspan class="TextParagraph" font-family="Liberation Sans, sans-serif" font-size="353px" font-weight="400"><tspan class="TextPosition" x="12226" y="7270"><tspan fill="rgb(0,0,0)" stroke="none">140%</tspan></tspan></tspan></text>
 <path fill="rgb(19,148,72)" stroke="none" d="M 13827,4602 L 13721,4602 13721,4391 13932,4391 13932,4602 13827,4602 Z"/>
 <path fill="rgb(12,50,44)" stroke="none" d="M 13827,4104 L 13721,4104 13721,3893 13932,3893 13932,4104 13827,4104 Z"/>
 <path fill="rgb(255,193,8)" stroke="none" d="M 13827,3606 L 13721,3606 13721,3395 13932,3395 13932,3606 13827,3606 Z"/>
 <path fill="rgb(0,138,207)" stroke="none" d="M 13827,3108 L 13721,3108 13721,2898 13932,2898 13932,3108 13827,3108 Z"/>
 <text class="TextShape"><tspan class="TextParagraph" font-family="Liberation Sans, sans-serif" font-size="353px" font-weight="400"><tspan class="TextPosition" x="14032" y="3122"><tspan fill="rgb(0,0,0)" stroke="none">LTO+PGO</tspan></tspan></tspan></text>
 <text class="TextShape"><tspan class="TextParagraph" font-family="Liberation Sans, sans-serif" font-size="353px" font-weight="400"><tspan class="TextPosition" x="14032" y="3620"><tspan fill="rgb(0,0,0)" stroke="none">PGO</tspan></tspan></tspan></text>
 <text class="TextShape"><tspan class="TextParagraph" font-family="Liberation Sans, sans-serif" font-size="353px" font-weight="400"><tspan class="TextPosition" x="14032" y="4118"><tspan fill="rgb(0,0,0)" stroke="none">LTO</tspan></tspan></tspan></text>
 <text class="TextShape"><tspan class="TextParagraph" font-family="Liberation Sans, sans-serif" font-size="353px" font-weight="400"><tspan class="TextPosition" x="14032" y="4616"><tspan fill="rgb(0,0,0)" stroke="none">Normal</tspan></tspan></tspan></text>
</svg>