<?xml version="1.0" encoding="UTF-8"?>
<!DOCTYPE svg PUBLIC "-//W3C//DTD SVG 1.1//EN" "http://www.w3.org/Graphics/SVG/1.1/DTD/svg11.dtd">
<svg width="160mm" height="140mm" viewBox="0 0 16000 14000" version="1.1" xmlns="http://www.w3.org/2000/svg" xmlns:xlink="http://www.w3.org/1999/xlink" stroke-width="28.222" stroke-linejoin="round" xml:space="preserve">
 <path fill="rgb(255,255,255)" stroke="none" d="M 7987,13987 L -13,13987 -13,-13 15987,-13 15987,13987 7987,13987 Z"/>
 <path fill="none" stroke="rgb(179,179,179)" stroke-linejoin="round" d="M 8285,13060 L 3292,13060 3292,267 13278,267 13278,13060 8285,13060 Z"/>
 <path fill="none" stroke="rgb(179,179,179)" stroke-linejoin="round" d="M 3292,265 L 3292,13059"/>
 <path fill="none" stroke="rgb(179,179,179)" stroke-linejoin="round" d="M 4623,265 L 4623,13059"/>
 <path fill="none" stroke="rgb(179,179,179)" stroke-linejoin="round" d="M 5955,265 L 5955,13059"/>
 <path fill="none" stroke="rgb(179,179,179)" stroke-linejoin="round" d="M 7286,265 L 7286,13059"/>
 <path fill="none" stroke="rgb(179,179,179)" stroke-linejoin="round" d="M 8617,265 L 8617,13059"/>
 <path fill="none" stroke="rgb(179,179,179)" stroke-linejoin="round" d="M 9949,265 L 9949,13059"/>
 <path fill="none" stroke="rgb(179,179,179)" stroke-linejoin="round" d="M 11280,265 L 11280,13059"/>
 <path fill="none" stroke="rgb(179,179,179)" stroke-linejoin="round" d="M 12612,265 L 12612,13059"/>
 <path fill="none" stroke="rgb(179,179,179)" stroke-linejoin="round" d="M 3142,265 L 3292,265"/>
 <path fill="none" stroke="rgb(179,179,179)" stroke-linejoin="round" d="M 3142,265 L 3292,265"/>
 <path fill="none" stroke="rgb(179,179,179)" stroke-linejoin="round" d="M 3142,1250 L 3292,1250"/>
 <path fill="none" stroke="rgb(179,179,179)" stroke-linejoin="round" d="M 3142,1250 L 3292,1250"/>
 <path fill="none" stroke="rgb(179,179,179)" stroke-linejoin="round" d="M 3142,2234 L 3292,2234"/>
 <path fill="none" stroke="rgb(179,179,179)" stroke-linejoin="round" d="M 3142,2234 L 3292,2234"/>
 <path fill="none" stroke="rgb(179,179,179)" stroke-linejoin="round" d="M 3142,3218 L 3292,3218"/>
 <path fill="none" stroke="rgb(179,179,179)" stroke-linejoin="round" d="M 3142,3218 L 3292,3218"/>
 <path fill="none" stroke="rgb(179,179,179)" stroke-linejoin="round" d="M 3142,4202 L 3292,4202"/>
 <path fill="none" stroke="rgb(179,179,179)" stroke-linejoin="round" d="M 3142,4202 L 3292,4202"/>
 <path fill="none" stroke="rgb(179,179,179)" stroke-linejoin="round" d="M 3142,5186 L 3292,5186"/>
 <path fill="none" stroke="rgb(179,179,179)" stroke-linejoin="round" d="M 3142,5186 L 3292,5186"/>
 <path fill="none" stroke="rgb(179,179,179)" stroke-linejoin="round" d="M 3142,6170 L 3292,6170"/>
 <path fill="none" stroke="rgb(179,179,179)" stroke-linejoin="round" d="M 3142,6170 L 3292,6170"/>
 <path fill="none" stroke="rgb(179,179,179)" stroke-linejoin="round" d="M 3142,7154 L 3292,7154"/>
 <path fill="none" stroke="rgb(179,179,179)" stroke-linejoin="round" d="M 3142,7154 L 3292,7154"/>
 <path fill="none" stroke="rgb(179,179,179)" stroke-linejoin="round" d="M 3142,8138 L 3292,8138"/>
 <path fill="none" stroke="rgb(179,179,179)" stroke-linejoin="round" d="M 3142,8138 L 3292,8138"/>
 <path fill="none" stroke="rgb(179,179,179)" stroke-linejoin="round" d="M 3142,9122 L 3292,9122"/>
 <path fill="none" stroke="rgb(179,179,179)" stroke-linejoin="round" d="M 3142,9122 L 3292,9122"/>
 <path fill="none" stroke="rgb(179,179,179)" stroke-linejoin="round" d="M 3142,10106 L 3292,10106"/>
 <path fill="none" stroke="rgb(179,179,179)" stroke-linejoin="round" d="M 3142,10106 L 3292,10106"/>
 <path fill="none" stroke="rgb(179,179,179)" stroke-linejoin="round" d="M 3142,11090 L 3292,11090"/>
 <path fill="none" stroke="rgb(179,179,179)" stroke-linejoin="round" d="M 3142,11090 L 3292,11090"/>
 <path fill="none" stroke="rgb(179,179,179)" stroke-linejoin="round" d="M 3142,12074 L 3292,12074"/>
 <path fill="none" stroke="rgb(179,179,179)" stroke-linejoin="round" d="M 3142,12074 L 3292,12074"/>
 <path fill="none" stroke="rgb(179,179,179)" stroke-linejoin="round" d="M 3142,13059 L 3292,13059"/>
 <path fill="none" stroke="rgb(179,179,179)" stroke-linejoin="round" d="M 3142,13059 L 3292,13059"/>
 <path fill="none" stroke="rgb(179,179,179)" stroke-linejoin="round" d="M 3292,13059 L 3292,265"/>
 <path fill="none" stroke="rgb(179,179,179)" stroke-linejoin="round" d="M 3292,13209 L 3292,13059"/>
 <path fill="none" stroke="rgb(179,179,179)" stroke-linejoin="round" d="M 3292,115 L 3292,265"/>
 <path fill="none" stroke="rgb(179,179,179)" stroke-linejoin="round" d="M 4623,13209 L 4623,13059"/>
 <path fill="none" stroke="rgb(179,179,179)" stroke-linejoin="round" d="M 4623,115 L 4623,265"/>
 <path fill="none" stroke="rgb(179,179,179)" stroke-linejoin="round" d="M 5955,13209 L 5955,13059"/>
 <path fill="none" stroke="rgb(179,179,179)" stroke-linejoin="round" d="M 5955,115 L 5955,265"/>
 <path fill="none" stroke="rgb(179,179,179)" stroke-linejoin="round" d="M 7286,13209 L 7286,13059"/>
 <path fill="none" stroke="rgb(179,179,179)" stroke-linejoin="round" d="M 7286,115 L 7286,265"/>
 <path fill="none" stroke="rgb(179,179,179)" stroke-linejoin="round" d="M 8617,13209 L 8617,13059"/>
 <path fill="none" stroke="rgb(179,179,179)" stroke-linejoin="round" d="M 8617,115 L 8617,265"/>
 <path fill="none" stroke="rgb(179,179,179)" stroke-linejoin="round" d="M 9949,13209 L 9949,13059"/>
 <path fill="none" stroke="rgb(179,179,179)" stroke-linejoin="round" d="M 9949,115 L 9949,265"/>
 <path fill="none" stroke="rgb(179,179,179)" stroke-linejoin="round" d="M 11280,13209 L 11280,13059"/>
 <path fill="none" stroke="rgb(179,179,179)" stroke-linejoin="round" d="M 11280,115 L 11280,265"/>
 <path fill="none" stroke="rgb(179,179,179)" stroke-linejoin="round" d="M 12612,13209 L 12612,13059"/>
 <path fill="none" stroke="rgb(179,179,179)" stroke-linejoin="round" d="M 12612,115 L 12612,265"/>
 <path fill="none" stroke="rgb(179,179,179)" stroke-linejoin="round" d="M 3292,265 L 13278,265"/>
 <path fill="rgb(12,50,44)" stroke="none" d="M 3292,364 L 3292,561 9949,561 9949,364 3292,364 Z"/>
 <path fill="rgb(12,50,44)" stroke="none" d="M 3292,1348 L 3292,1545 9949,1545 9949,1348 3292,1348 Z"/>
 <path fill="rgb(12,50,44)" stroke="none" d="M 3292,2332 L 3292,2529 9949,2529 9949,2332 3292,2332 Z"/>
 <path fill="rgb(12,50,44)" stroke="none" d="M 3292,3316 L 3292,3513 9949,3513 9949,3316 3292,3316 Z"/>
 <path fill="rgb(12,50,44)" stroke="none" d="M 3292,4301 L 3292,4497 9949,4497 9949,4301 3292,4301 Z"/>
 <path fill="rgb(12,50,44)" stroke="none" d="M 3292,5285 L 3292,5482 9949,5482 9949,5285 3292,5285 Z"/>
 <path fill="rgb(12,50,44)" stroke="none" d="M 3292,6269 L 3292,6466 9949,6466 9949,6269 3292,6269 Z"/>
 <path fill="rgb(12,50,44)" stroke="none" d="M 3292,7252 L 3292,7449 9949,7449 9949,7252 3292,7252 Z"/>
 <path fill="rgb(12,50,44)" stroke="none" d="M 3292,8236 L 3292,8433 9949,8433 9949,8236 3292,8236 Z"/>
 <path fill="rgb(12,50,44)" stroke="none" d="M 3292,9220 L 3292,9417 9949,9417 9949,9220 3292,9220 Z"/>
 <path fill="rgb(12,50,44)" stroke="none" d="M 3292,10204 L 3292,10401 9949,10401 9949,10204 3292,10204 Z"/>
 <path fill="rgb(12,50,44)" stroke="none" d="M 3292,11189 L 3292,11385 9949,11385 9949,11189 3292,11189 Z"/>
 <path fill="rgb(12,50,44)" stroke="none" d="M 3292,12173 L 3292,12370 9949,12370 9949,12173 3292,12173 Z"/>
 <path fill="rgb(19,148,72)" stroke="none" d="M 3292,561 L 3292,758 10050,758 10050,561 3292,561 Z"/>
 <path fill="rgb(19,148,72)" stroke="none" d="M 3292,1545 L 3292,1742 9992,1742 9992,1545 3292,1545 Z"/>
 <path fill="rgb(19,148,72)" stroke="none" d="M 3292,2529 L 3292,2726 9949,2726 9949,2529 3292,2529 Z"/>
 <path fill="rgb(19,148,72)" stroke="none" d="M 3292,3513 L 3292,3710 10126,3710 10126,3513 3292,3513 Z"/>
 <path fill="rgb(19,148,72)" stroke="none" d="M 3292,4497 L 3292,4694 10573,4694 10573,4497 3292,4497 Z"/>
 <path fill="rgb(19,148,72)" stroke="none" d="M 3292,5482 L 3292,5678 9696,5678 9696,5482 3292,5482 Z"/>
 <path fill="rgb(19,148,72)" stroke="none" d="M 3292,6466 L 3292,6662 10094,6662 10094,6466 3292,6466 Z"/>
 <path fill="rgb(19,148,72)" stroke="none" d="M 3292,7449 L 3292,7646 10061,7646 10061,7449 3292,7449 Z"/>
 <path fill="rgb(19,148,72)" stroke="none" d="M 3292,8433 L 3292,8630 10164,8630 10164,8433 3292,8433 Z"/>
 <path fill="rgb(19,148,72)" stroke="none" d="M 3292,9417 L 3292,9614 10366,9614 10366,9417 3292,9417 Z"/>
 <path fill="rgb(19,148,72)" stroke="none" d="M 3292,10401 L 3292,10598 9784,10598 9784,10401 3292,10401 Z"/>
 <path fill="rgb(19,148,72)" stroke="none" d="M 3292,11385 L 3292,11582 9933,11582 9933,11385 3292,11385 Z"/>
 <path fill="rgb(19,148,72)" stroke="none" d="M 3292,12370 L 3292,12566 10083,12566 10083,12370 3292,12370 Z"/>
 <path fill="rgb(255,193,8)" stroke="none" d="M 3292,758 L 3292,954 9962,954 9962,758 3292,758 Z"/>
 <path fill="rgb(255,193,8)" stroke="none" d="M 3292,1742 L 3292,1939 10133,1939 10133,1742 3292,1742 Z"/>
 <path fill="rgb(255,193,8)" stroke="none" d="M 3292,2726 L 3292,2923 10025,2923 10025,2726 3292,2726 Z"/>
 <path fill="rgb(255,193,8)" stroke="none" d="M 3292,3710 L 3292,3907 9680,3907 9680,3710 3292,3710 Z"/>
 <path fill="rgb(255,193,8)" stroke="none" d="M 3292,4694 L 3292,4891 10405,4891 10405,4694 3292,4694 Z"/>
 <path fill="rgb(255,193,8)" stroke="none" d="M 3292,5678 L 3292,5875 9840,5875 9840,5678 3292,5678 Z"/>
 <path fill="rgb(255,193,8)" stroke="none" d="M 3292,6663 L 3292,6859 9958,6859 9958,6663 3292,6663 Z"/>
 <path fill="rgb(255,193,8)" stroke="none" d="M 3292,7646 L 3292,7842 9683,7842 9683,7646 3292,7646 Z"/>
 <path fill="rgb(255,193,8)" stroke="none" d="M 3292,8630 L 3292,8827 10482,8827 10482,8630 3292,8630 Z"/>
 <path fill="rgb(255,193,8)" stroke="none" d="M 3292,9614 L 3292,9811 7510,9811 7510,9614 3292,9614 Z"/>
 <path fill="rgb(255,193,8)" stroke="none" d="M 3292,10598 L 3292,10795 10073,10795 10073,10598 3292,10598 Z"/>
 <path fill="rgb(255,193,8)" stroke="none" d="M 3292,11582 L 3292,11779 9667,11779 9667,11582 3292,11582 Z"/>
 <path fill="rgb(255,193,8)" stroke="none" d="M 3292,12566 L 3292,12763 10042,12763 10042,12566 3292,12566 Z"/>
 <path fill="rgb(0,138,207)" stroke="none" d="M 3292,954 L 3292,1151 10043,1151 10043,954 3292,954 Z"/>
 <path fill="rgb(0,138,207)" stroke="none" d="M 3292,1939 L 3292,2135 10079,2135 10079,1939 3292,1939 Z"/>
 <path fill="rgb(0,138,207)" stroke="none" d="M 3292,2923 L 3292,3120 10056,3120 10056,2923 3292,2923 Z"/>
 <path fill="rgb(0,138,207)" stroke="none" d="M 3292,3907 L 3292,4104 9845,4104 9845,3907 3292,3907 Z"/>
 <path fill="rgb(0,138,207)" stroke="none" d="M 3292,4891 L 3292,5088 12372,5088 12372,4891 3292,4891 Z"/>
 <path fill="rgb(0,138,207)" stroke="none" d="M 3292,5875 L 3292,6072 9927,6072 9927,5875 3292,5875 Z"/>
 <path fill="rgb(0,138,207)" stroke="none" d="M 3292,6859 L 3292,7055 10164,7055 10164,6859 3292,6859 Z"/>
 <path fill="rgb(0,138,207)" stroke="none" d="M 3292,7842 L 3292,8039 9616,8039 9616,7842 3292,7842 Z"/>
 <path fill="rgb(0,138,207)" stroke="none" d="M 3292,8827 L 3292,9023 10643,9023 10643,8827 3292,8827 Z"/>
 <path fill="rgb(0,138,207)" stroke="none" d="M 3292,9811 L 3292,10008 7389,10008 7389,9811 3292,9811 Z"/>
 <path fill="rgb(0,138,207)" stroke="none" d="M 3292,10795 L 3292,10992 10073,10992 10073,10795 3292,10795 Z"/>
 <path fill="rgb(0,138,207)" stroke="none" d="M 3292,11779 L 3292,11976 9481,11976 9481,11779 3292,11779 Z"/>
 <path fill="rgb(0,138,207)" stroke="none" d="M 3292,12763 L 3292,12960 9919,12960 9919,12763 3292,12763 Z"/>
 <text class="SVGTextShape"><tspan class="TextParagraph"><tspan class="TextPosition" x="900" y="879"><tspan font-family="Liberation Sans, sans-serif" font-size="353px" font-weight="400" fill="rgb(0,0,0)" stroke="none" style="white-space: pre">503.bwaves_r</tspan></tspan></tspan></text>
 <text class="SVGTextShape"><tspan class="TextParagraph"><tspan class="TextPosition" x="308" y="1863"><tspan font-family="Liberation Sans, sans-serif" font-size="353px" font-weight="400" fill="rgb(0,0,0)" stroke="none" style="white-space: pre">507.cactuBSSN_r</tspan></tspan></tspan></text>
 <text class="SVGTextShape"><tspan class="TextParagraph"><tspan class="TextPosition" x="1206" y="2847"><tspan font-family="Liberation Sans, sans-serif" font-size="353px" font-weight="400" fill="rgb(0,0,0)" stroke="none" style="white-space: pre">508.namd_r</tspan></tspan></tspan></text>
 <text class="SVGTextShape"><tspan class="TextParagraph"><tspan class="TextPosition" x="1111" y="3831"><tspan font-family="Liberation Sans, sans-serif" font-size="353px" font-weight="400" fill="rgb(0,0,0)" stroke="none" style="white-space: pre">510.parest_r</tspan></tspan></tspan></text>
 <text class="SVGTextShape"><tspan class="TextParagraph"><tspan class="TextPosition" x="1034" y="4815"><tspan font-family="Liberation Sans, sans-serif" font-size="353px" font-weight="400" fill="rgb(0,0,0)" stroke="none" style="white-space: pre">511.povray_r</tspan></tspan></tspan></text>
 <text class="SVGTextShape"><tspan class="TextParagraph"><tspan class="TextPosition" x="1512" y="5799"><tspan font-family="Liberation Sans, sans-serif" font-size="353px" font-weight="400" fill="rgb(0,0,0)" stroke="none" style="white-space: pre">519.lbm_r</tspan></tspan></tspan></text>
 <text class="SVGTextShape"><tspan class="TextParagraph"><tspan class="TextPosition" x="1608" y="6783"><tspan font-family="Liberation Sans, sans-serif" font-size="353px" font-weight="400" fill="rgb(0,0,0)" stroke="none" style="white-space: pre">521.wrf_r</tspan></tspan></tspan></text>
 <text class="SVGTextShape"><tspan class="TextParagraph"><tspan class="TextPosition" x="919" y="7767"><tspan font-family="Liberation Sans, sans-serif" font-size="353px" font-weight="400" fill="rgb(0,0,0)" stroke="none" style="white-space: pre">526.blender_r</tspan></tspan></tspan></text>
 <text class="SVGTextShape"><tspan class="TextParagraph"><tspan class="TextPosition" x="1226" y="8751"><tspan font-family="Liberation Sans, sans-serif" font-size="353px" font-weight="400" fill="rgb(0,0,0)" stroke="none" style="white-space: pre">527.cam4_r</tspan></tspan></tspan></text>
 <text class="SVGTextShape"><tspan class="TextParagraph"><tspan class="TextPosition" x="901" y="9735"><tspan font-family="Liberation Sans, sans-serif" font-size="353px" font-weight="400" fill="rgb(0,0,0)" stroke="none" style="white-space: pre">538.imagick_r</tspan></tspan></tspan></text>
 <text class="SVGTextShape"><tspan class="TextParagraph"><tspan class="TextPosition" x="1493" y="10719"><tspan font-family="Liberation Sans, sans-serif" font-size="353px" font-weight="400" fill="rgb(0,0,0)" stroke="none" style="white-space: pre">544.nab_r</tspan></tspan></tspan></text>
 <text class="SVGTextShape"><tspan class="TextParagraph"><tspan class="TextPosition" x="671" y="11703"><tspan font-family="Liberation Sans, sans-serif" font-size="353px" font-weight="400" fill="rgb(0,0,0)" stroke="none" style="white-space: pre">549.fotonik3d_r</tspan></tspan></tspan></text>
 <text class="SVGTextShape"><tspan class="TextParagraph"><tspan class="TextPosition" x="1302" y="12687"><tspan font-family="Liberation Sans, sans-serif" font-size="353px" font-weight="400" fill="rgb(0,0,0)" stroke="none" style="white-space: pre">554.roms_r</tspan></tspan></tspan></text>
 <text class="SVGTextShape"><tspan class="TextParagraph"><tspan class="TextPosition" x="3044" y="13627"><tspan font-family="Liberation Sans, sans-serif" font-size="353px" font-weight="400" fill="rgb(0,0,0)" stroke="none" style="white-space: pre">0%</tspan></tspan></tspan></text>
 <text class="SVGTextShape"><tspan class="TextParagraph"><tspan class="TextPosition" x="4280" y="13627"><tspan font-family="Liberation Sans, sans-serif" font-size="353px" font-weight="400" fill="rgb(0,0,0)" stroke="none" style="white-space: pre">20%</tspan></tspan></tspan></text>
 <text class="SVGTextShape"><tspan class="TextParagraph"><tspan class="TextPosition" x="5612" y="13627"><tspan font-family="Liberation Sans, sans-serif" font-size="353px" font-weight="400" fill="rgb(0,0,0)" stroke="none" style="white-space: pre">40%</tspan></tspan></tspan></text>
 <text class="SVGTextShape"><tspan class="TextParagraph"><tspan class="TextPosition" x="6943" y="13627"><tspan font-family="Liberation Sans, sans-serif" font-size="353px" font-weight="400" fill="rgb(0,0,0)" stroke="none" style="white-space: pre">60%</tspan></tspan></tspan></text>
 <text class="SVGTextShape"><tspan class="TextParagraph"><tspan class="TextPosition" x="8274" y="13627"><tspan font-family="Liberation Sans, sans-serif" font-size="353px" font-weight="400" fill="rgb(0,0,0)" stroke="none" style="white-space: pre">80%</tspan></tspan></tspan></text>
 <text class="SVGTextShape"><tspan class="TextParagraph"><tspan class="TextPosition" x="9510" y="13627"><tspan font-family="Liberation Sans, sans-serif" font-size="353px" font-weight="400" fill="rgb(0,0,0)" stroke="none" style="white-space: pre">100%</tspan></tspan></tspan></text>
 <text class="SVGTextShape"><tspan class="TextParagraph"><tspan class="TextPosition" x="10841" y="13627"><tspan font-family="Liberation Sans, sans-serif" font-size="353px" font-weight="400" fill="rgb(0,0,0)" stroke="none" style="white-space: pre">120%</tspan></tspan></tspan></text>
 <text class="SVGTextShape"><tspan class="TextParagraph"><tspan class="TextPosition" x="12173" y="13627"><tspan font-family="Liberation Sans, sans-serif" font-size="353px" font-weight="400" fill="rgb(0,0,0)" stroke="none" style="white-space: pre">140%</tspan></tspan></tspan></text>
 <path fill="rgb(12,50,44)" stroke="none" d="M 13820,7838 L 13714,7838 13714,7627 13925,7627 13925,7838 13820,7838 Z"/>
 <path fill="rgb(19,148,72)" stroke="none" d="M 13820,7340 L 13714,7340 13714,7129 13925,7129 13925,7340 13820,7340 Z"/>
 <path fill="rgb(255,193,8)" stroke="none" d="M 13820,6843 L 13714,6843 13714,6632 13925,6632 13925,6843 13820,6843 Z"/>
 <path fill="rgb(0,138,207)" stroke="none" d="M 13820,6345 L 13714,6345 13714,6134 13925,6134 13925,6345 13820,6345 Z"/>
 <text class="SVGTextShape"><tspan class="TextParagraph"><tspan class="TextPosition" x="14025" y="6359"><tspan font-family="Liberation Sans, sans-serif" font-size="353px" font-weight="400" fill="rgb(0,0,0)" stroke="none" style="white-space: pre">LTO+PGO</tspan></tspan></tspan></text>
 <text class="SVGTextShape"><tspan class="TextParagraph"><tspan class="TextPosition" x="14025" y="6857"><tspan font-family="Liberation Sans, sans-serif" font-size="353px" font-weight="400" fill="rgb(0,0,0)" stroke="none" style="white-space: pre">PGO</tspan></tspan></tspan></text>
 <text class="SVGTextShape"><tspan class="TextParagraph"><tspan class="TextPosition" x="14025" y="7354"><tspan font-family="Liberation Sans, sans-serif" font-size="353px" font-weight="400" fill="rgb(0,0,0)" stroke="none" style="white-space: pre">LTO</tspan></tspan></tspan></text>
 <text class="SVGTextShape"><tspan class="TextParagraph"><tspan class="TextPosition" x="14025" y="7852"><tspan font-family="Liberation Sans, sans-serif" font-size="353px" font-weight="400" fill="rgb(0,0,0)" stroke="none" style="white-space: pre">Normal</tspan></tspan></tspan></text>
</svg>