<?xml version="1.0" encoding="UTF-8"?>
<!DOCTYPE svg PUBLIC "-//W3C//DTD SVG 1.1//EN" "http://www.w3.org/Graphics/SVG/1.1/DTD/svg11.dtd">
<svg width="160mm" height="140mm" viewBox="0 0 16000 14000" version="1.1" xmlns="http://www.w3.org/2000/svg" xmlns:xlink="http://www.w3.org/1999/xlink" stroke-width="28.222" stroke-linejoin="round" xml:space="preserve">
 <path fill="rgb(255,255,255)" stroke="none" d="M 8000,14000 L 0,14000 0,0 16000,0 16000,14000 8000,14000 Z"/>
 <path fill="none" stroke="rgb(179,179,179)" stroke-linejoin="round" d="M 7915,13073 L 3153,13073 3153,280 12676,280 12676,13073 7915,13073 Z"/>
 <path fill="none" stroke="rgb(179,179,179)" stroke-linejoin="round" d="M 12676,278 L 12676,13072"/>
 <path fill="none" stroke="rgb(179,179,179)" stroke-linejoin="round" d="M 11088,278 L 11088,13072"/>
 <path fill="none" stroke="rgb(179,179,179)" stroke-linejoin="round" d="M 9501,278 L 9501,13072"/>
 <path fill="none" stroke="rgb(179,179,179)" stroke-linejoin="round" d="M 7914,278 L 7914,13072"/>
 <path fill="none" stroke="rgb(179,179,179)" stroke-linejoin="round" d="M 6327,278 L 6327,13072"/>
 <path fill="none" stroke="rgb(179,179,179)" stroke-linejoin="round" d="M 4740,278 L 4740,13072"/>
 <path fill="none" stroke="rgb(179,179,179)" stroke-linejoin="round" d="M 3152,278 L 3152,13072"/>
 <path fill="none" stroke="rgb(179,179,179)" stroke-linejoin="round" d="M 12826,278 L 12676,278"/>
 <path fill="none" stroke="rgb(179,179,179)" stroke-linejoin="round" d="M 12826,278 L 12676,278"/>
 <path fill="none" stroke="rgb(179,179,179)" stroke-linejoin="round" d="M 12826,1263 L 12676,1263"/>
 <path fill="none" stroke="rgb(179,179,179)" stroke-linejoin="round" d="M 12826,1263 L 12676,1263"/>
 <path fill="none" stroke="rgb(179,179,179)" stroke-linejoin="round" d="M 12826,2247 L 12676,2247"/>
 <path fill="none" stroke="rgb(179,179,179)" stroke-linejoin="round" d="M 12826,2247 L 12676,2247"/>
 <path fill="none" stroke="rgb(179,179,179)" stroke-linejoin="round" d="M 12826,3231 L 12676,3231"/>
 <path fill="none" stroke="rgb(179,179,179)" stroke-linejoin="round" d="M 12826,3231 L 12676,3231"/>
 <path fill="none" stroke="rgb(179,179,179)" stroke-linejoin="round" d="M 12826,4215 L 12676,4215"/>
 <path fill="none" stroke="rgb(179,179,179)" stroke-linejoin="round" d="M 12826,4215 L 12676,4215"/>
 <path fill="none" stroke="rgb(179,179,179)" stroke-linejoin="round" d="M 12826,5199 L 12676,5199"/>
 <path fill="none" stroke="rgb(179,179,179)" stroke-linejoin="round" d="M 12826,5199 L 12676,5199"/>
 <path fill="none" stroke="rgb(179,179,179)" stroke-linejoin="round" d="M 12826,6183 L 12676,6183"/>
 <path fill="none" stroke="rgb(179,179,179)" stroke-linejoin="round" d="M 12826,6183 L 12676,6183"/>
 <path fill="none" stroke="rgb(179,179,179)" stroke-linejoin="round" d="M 12826,7167 L 12676,7167"/>
 <path fill="none" stroke="rgb(179,179,179)" stroke-linejoin="round" d="M 12826,7167 L 12676,7167"/>
 <path fill="none" stroke="rgb(179,179,179)" stroke-linejoin="round" d="M 12826,8151 L 12676,8151"/>
 <path fill="none" stroke="rgb(179,179,179)" stroke-linejoin="round" d="M 12826,8151 L 12676,8151"/>
 <path fill="none" stroke="rgb(179,179,179)" stroke-linejoin="round" d="M 12826,9135 L 12676,9135"/>
 <path fill="none" stroke="rgb(179,179,179)" stroke-linejoin="round" d="M 12826,9135 L 12676,9135"/>
 <path fill="none" stroke="rgb(179,179,179)" stroke-linejoin="round" d="M 12826,10119 L 12676,10119"/>
 <path fill="none" stroke="rgb(179,179,179)" stroke-linejoin="round" d="M 12826,10119 L 12676,10119"/>
 <path fill="none" stroke="rgb(179,179,179)" stroke-linejoin="round" d="M 12826,11103 L 12676,11103"/>
 <path fill="none" stroke="rgb(179,179,179)" stroke-linejoin="round" d="M 12826,11103 L 12676,11103"/>
 <path fill="none" stroke="rgb(179,179,179)" stroke-linejoin="round" d="M 12826,12087 L 12676,12087"/>
 <path fill="none" stroke="rgb(179,179,179)" stroke-linejoin="round" d="M 12826,12087 L 12676,12087"/>
 <path fill="none" stroke="rgb(179,179,179)" stroke-linejoin="round" d="M 12826,13072 L 12676,13072"/>
 <path fill="none" stroke="rgb(179,179,179)" stroke-linejoin="round" d="M 12826,13072 L 12676,13072"/>
 <path fill="none" stroke="rgb(179,179,179)" stroke-linejoin="round" d="M 12676,13072 L 12676,278"/>
 <path fill="none" stroke="rgb(179,179,179)" stroke-linejoin="round" d="M 12676,13222 L 12676,13072"/>
 <path fill="none" stroke="rgb(179,179,179)" stroke-linejoin="round" d="M 12676,128 L 12676,278"/>
 <path fill="none" stroke="rgb(179,179,179)" stroke-linejoin="round" d="M 11088,13222 L 11088,13072"/>
 <path fill="none" stroke="rgb(179,179,179)" stroke-linejoin="round" d="M 11088,128 L 11088,278"/>
 <path fill="none" stroke="rgb(179,179,179)" stroke-linejoin="round" d="M 9501,13222 L 9501,13072"/>
 <path fill="none" stroke="rgb(179,179,179)" stroke-linejoin="round" d="M 9501,128 L 9501,278"/>
 <path fill="none" stroke="rgb(179,179,179)" stroke-linejoin="round" d="M 7914,13222 L 7914,13072"/>
 <path fill="none" stroke="rgb(179,179,179)" stroke-linejoin="round" d="M 7914,128 L 7914,278"/>
 <path fill="none" stroke="rgb(179,179,179)" stroke-linejoin="round" d="M 6327,13222 L 6327,13072"/>
 <path fill="none" stroke="rgb(179,179,179)" stroke-linejoin="round" d="M 6327,128 L 6327,278"/>
 <path fill="none" stroke="rgb(179,179,179)" stroke-linejoin="round" d="M 4740,13222 L 4740,13072"/>
 <path fill="none" stroke="rgb(179,179,179)" stroke-linejoin="round" d="M 4740,128 L 4740,278"/>
 <path fill="none" stroke="rgb(179,179,179)" stroke-linejoin="round" d="M 3152,13222 L 3152,13072"/>
 <path fill="none" stroke="rgb(179,179,179)" stroke-linejoin="round" d="M 3152,128 L 3152,278"/>
 <path fill="none" stroke="rgb(179,179,179)" stroke-linejoin="round" d="M 3152,278 L 12676,278"/>
 <path fill="rgb(19,148,72)" stroke="none" d="M 12676,12186 L 12676,12383 4740,12383 4740,12186 12676,12186 Z"/>
 <path fill="rgb(19,148,72)" stroke="none" d="M 12676,11202 L 12676,11398 4740,11398 4740,11202 12676,11202 Z"/>
 <path fill="rgb(19,148,72)" stroke="none" d="M 12676,10217 L 12676,10414 4740,10414 4740,10217 12676,10217 Z"/>
 <path fill="rgb(19,148,72)" stroke="none" d="M 12676,9233 L 12676,9430 4740,9430 4740,9233 12676,9233 Z"/>
 <path fill="rgb(19,148,72)" stroke="none" d="M 12676,8249 L 12676,8446 4740,8446 4740,8249 12676,8249 Z"/>
 <path fill="rgb(19,148,72)" stroke="none" d="M 12676,7265 L 12676,7462 4740,7462 4740,7265 12676,7265 Z"/>
 <path fill="rgb(19,148,72)" stroke="none" d="M 12676,6282 L 12676,6479 4740,6479 4740,6282 12676,6282 Z"/>
 <path fill="rgb(19,148,72)" stroke="none" d="M 12676,5298 L 12676,5495 4740,5495 4740,5298 12676,5298 Z"/>
 <path fill="rgb(19,148,72)" stroke="none" d="M 12676,4314 L 12676,4510 4740,4510 4740,4314 12676,4314 Z"/>
 <path fill="rgb(19,148,72)" stroke="none" d="M 12676,3329 L 12676,3526 4740,3526 4740,3329 12676,3329 Z"/>
 <path fill="rgb(19,148,72)" stroke="none" d="M 12676,2345 L 12676,2542 4740,2542 4740,2345 12676,2345 Z"/>
 <path fill="rgb(19,148,72)" stroke="none" d="M 12676,1361 L 12676,1558 4740,1558 4740,1361 12676,1361 Z"/>
 <path fill="rgb(19,148,72)" stroke="none" d="M 12676,377 L 12676,574 4740,574 4740,377 12676,377 Z"/>
 <path fill="rgb(12,50,44)" stroke="none" d="M 12676,12383 L 12676,12579 6666,12579 6666,12383 12676,12383 Z"/>
 <path fill="rgb(12,50,44)" stroke="none" d="M 12676,11398 L 12676,11595 4976,11595 4976,11398 12676,11398 Z"/>
 <path fill="rgb(12,50,44)" stroke="none" d="M 12676,10414 L 12676,10611 8861,10611 8861,10414 12676,10414 Z"/>
 <path fill="rgb(12,50,44)" stroke="none" d="M 12676,9430 L 12676,9627 6859,9627 6859,9430 12676,9430 Z"/>
 <path fill="rgb(12,50,44)" stroke="none" d="M 12676,8446 L 12676,8643 9654,8643 9654,8446 12676,8446 Z"/>
 <path fill="rgb(12,50,44)" stroke="none" d="M 12676,7462 L 12676,7659 4504,7659 4504,7462 12676,7462 Z"/>
 <path fill="rgb(12,50,44)" stroke="none" d="M 12676,6479 L 12676,6675 6531,6675 6531,6479 12676,6479 Z"/>
 <path fill="rgb(12,50,44)" stroke="none" d="M 12676,5495 L 12676,5691 5824,5691 5824,5495 12676,5495 Z"/>
 <path fill="rgb(12,50,44)" stroke="none" d="M 12676,4510 L 12676,4707 4319,4707 4319,4510 12676,4510 Z"/>
 <path fill="rgb(12,50,44)" stroke="none" d="M 12676,3526 L 12676,3723 10876,3723 10876,3526 12676,3526 Z"/>
 <path fill="rgb(12,50,44)" stroke="none" d="M 12676,2542 L 12676,2739 4794,2739 4794,2542 12676,2542 Z"/>
 <path fill="rgb(12,50,44)" stroke="none" d="M 12676,1558 L 12676,1755 5592,1755 5592,1558 12676,1558 Z"/>
 <path fill="rgb(12,50,44)" stroke="none" d="M 12676,574 L 12676,771 5047,771 5047,574 12676,574 Z"/>
 <path fill="rgb(255,193,8)" stroke="none" d="M 12676,12579 L 12676,12776 3938,12776 3938,12579 12676,12579 Z"/>
 <path fill="rgb(255,193,8)" stroke="none" d="M 12676,11595 L 12676,11792 7247,11792 7247,11595 12676,11595 Z"/>
 <path fill="rgb(255,193,8)" stroke="none" d="M 12676,10611 L 12676,10808 5536,10808 5536,10611 12676,10611 Z"/>
 <path fill="rgb(255,193,8)" stroke="none" d="M 12676,9627 L 12676,9824 8131,9824 8131,9627 12676,9627 Z"/>
 <path fill="rgb(255,193,8)" stroke="none" d="M 12676,8643 L 12676,8840 4875,8840 4875,8643 12676,8643 Z"/>
 <path fill="rgb(255,193,8)" stroke="none" d="M 12676,7659 L 12676,7855 6294,7855 6294,7659 12676,7659 Z"/>
 <path fill="rgb(255,193,8)" stroke="none" d="M 12676,6676 L 12676,6872 6175,6872 6175,6676 12676,6676 Z"/>
 <path fill="rgb(255,193,8)" stroke="none" d="M 12676,5691 L 12676,5888 4306,5888 4306,5691 12676,5691 Z"/>
 <path fill="rgb(255,193,8)" stroke="none" d="M 12676,4707 L 12676,4904 6355,4904 6355,4707 12676,4707 Z"/>
 <path fill="rgb(255,193,8)" stroke="none" d="M 12676,3723 L 12676,3920 7633,3920 7633,3723 12676,3723 Z"/>
 <path fill="rgb(255,193,8)" stroke="none" d="M 12676,2739 L 12676,2936 8043,2936 8043,2739 12676,2739 Z"/>
 <path fill="rgb(255,193,8)" stroke="none" d="M 12676,1755 L 12676,1952 7685,1952 7685,1755 12676,1755 Z"/>
 <path fill="rgb(255,193,8)" stroke="none" d="M 12676,771 L 12676,967 3921,967 3921,771 12676,771 Z"/>
 <path fill="rgb(0,138,207)" stroke="none" d="M 12676,12776 L 12676,12973 7354,12973 7354,12776 12676,12776 Z"/>
 <path fill="rgb(0,138,207)" stroke="none" d="M 12676,11792 L 12676,11989 7882,11989 7882,11792 12676,11792 Z"/>
 <path fill="rgb(0,138,207)" stroke="none" d="M 12676,10808 L 12676,11005 9122,11005 9122,10808 12676,10808 Z"/>
 <path fill="rgb(0,138,207)" stroke="none" d="M 12676,9824 L 12676,10021 9593,10021 9593,9824 12676,9824 Z"/>
 <path fill="rgb(0,138,207)" stroke="none" d="M 12676,8840 L 12676,9036 9711,9036 9711,8840 12676,8840 Z"/>
 <path fill="rgb(0,138,207)" stroke="none" d="M 12676,7855 L 12676,8052 6867,8052 6867,7855 12676,7855 Z"/>
 <path fill="rgb(0,138,207)" stroke="none" d="M 12676,6872 L 12676,7068 7673,7068 7673,6872 12676,6872 Z"/>
 <path fill="rgb(0,138,207)" stroke="none" d="M 12676,5888 L 12676,6085 5816,6085 5816,5888 12676,5888 Z"/>
 <path fill="rgb(0,138,207)" stroke="none" d="M 12676,4904 L 12676,5101 6678,5101 6678,4904 12676,4904 Z"/>
 <path fill="rgb(0,138,207)" stroke="none" d="M 12676,3920 L 12676,4117 11412,4117 11412,3920 12676,3920 Z"/>
 <path fill="rgb(0,138,207)" stroke="none" d="M 12676,2936 L 12676,3133 8516,3133 8516,2936 12676,2936 Z"/>
 <path fill="rgb(0,138,207)" stroke="none" d="M 12676,1952 L 12676,2148 8464,2148 8464,1952 12676,1952 Z"/>
 <path fill="rgb(0,138,207)" stroke="none" d="M 12676,967 L 12676,1164 4837,1164 4837,967 12676,967 Z"/>
 <text class="SVGTextShape"><tspan class="TextParagraph" font-family="Liberation Sans, sans-serif" font-size="353px" font-weight="400"><tspan class="TextPosition" x="12926" y="891"><tspan fill="rgb(0,0,0)" stroke="none">503.bwaves_r</tspan></tspan></tspan></text>
 <text class="SVGTextShape"><tspan class="TextParagraph" font-family="Liberation Sans, sans-serif" font-size="353px" font-weight="400"><tspan class="TextPosition" x="12926" y="1875"><tspan fill="rgb(0,0,0)" stroke="none">507.cactuBSSN_r</tspan></tspan></tspan></text>
 <text class="SVGTextShape"><tspan class="TextParagraph" font-family="Liberation Sans, sans-serif" font-size="353px" font-weight="400"><tspan class="TextPosition" x="12926" y="2859"><tspan fill="rgb(0,0,0)" stroke="none">508.namd_r</tspan></tspan></tspan></text>
 <text class="SVGTextShape"><tspan class="TextParagraph" font-family="Liberation Sans, sans-serif" font-size="353px" font-weight="400"><tspan class="TextPosition" x="12926" y="3843"><tspan fill="rgb(0,0,0)" stroke="none">510.parest_r</tspan></tspan></tspan></text>
 <text class="SVGTextShape"><tspan class="TextParagraph" font-family="Liberation Sans, sans-serif" font-size="353px" font-weight="400"><tspan class="TextPosition" x="12926" y="4827"><tspan fill="rgb(0,0,0)" stroke="none">511.povray_r</tspan></tspan></tspan></text>
 <text class="SVGTextShape"><tspan class="TextParagraph" font-family="Liberation Sans, sans-serif" font-size="353px" font-weight="400"><tspan class="TextPosition" x="12926" y="5811"><tspan fill="rgb(0,0,0)" stroke="none">519.lbm_r</tspan></tspan></tspan></text>
 <text class="SVGTextShape"><tspan class="TextParagraph" font-family="Liberation Sans, sans-serif" font-size="353px" font-weight="400"><tspan class="TextPosition" x="12926" y="6795"><tspan fill="rgb(0,0,0)" stroke="none">521.wrf_r</tspan></tspan></tspan></text>
 <text class="SVGTextShape"><tspan class="TextParagraph" font-family="Liberation Sans, sans-serif" font-size="353px" font-weight="400"><tspan class="TextPosition" x="12926" y="7780"><tspan fill="rgb(0,0,0)" stroke="none">526.blender_r</tspan></tspan></tspan></text>
 <text class="SVGTextShape"><tspan class="TextParagraph" font-family="Liberation Sans, sans-serif" font-size="353px" font-weight="400"><tspan class="TextPosition" x="12926" y="8764"><tspan fill="rgb(0,0,0)" stroke="none">527.cam4_r</tspan></tspan></tspan></text>
 <text class="SVGTextShape"><tspan class="TextParagraph" font-family="Liberation Sans, sans-serif" font-size="353px" font-weight="400"><tspan class="TextPosition" x="12926" y="9748"><tspan fill="rgb(0,0,0)" stroke="none">538.imagick_r</tspan></tspan></tspan></text>
 <text class="SVGTextShape"><tspan class="TextParagraph" font-family="Liberation Sans, sans-serif" font-size="353px" font-weight="400"><tspan class="TextPosition" x="12926" y="10732"><tspan fill="rgb(0,0,0)" stroke="none">544.nab_r</tspan></tspan></tspan></text>
 <text class="SVGTextShape"><tspan class="TextParagraph" font-family="Liberation Sans, sans-serif" font-size="353px" font-weight="400"><tspan class="TextPosition" x="12926" y="11716"><tspan fill="rgb(0,0,0)" stroke="none">549.fotonik3d_r</tspan></tspan></tspan></text>
 <text class="SVGTextShape"><tspan class="TextParagraph" font-family="Liberation Sans, sans-serif" font-size="353px" font-weight="400"><tspan class="TextPosition" x="12926" y="12700"><tspan fill="rgb(0,0,0)" stroke="none">554.roms_r</tspan></tspan></tspan></text>
 <text class="SVGTextShape"><tspan class="TextParagraph" font-family="Liberation Sans, sans-serif" font-size="353px" font-weight="400"><tspan class="TextPosition" x="12425" y="13640"><tspan fill="rgb(0,0,0)" stroke="none">0%</tspan></tspan></tspan></text>
 <text class="SVGTextShape"><tspan class="TextParagraph" font-family="Liberation Sans, sans-serif" font-size="353px" font-weight="400"><tspan class="TextPosition" x="10745" y="13640"><tspan fill="rgb(0,0,0)" stroke="none">20%</tspan></tspan></tspan></text>
 <text class="SVGTextShape"><tspan class="TextParagraph" font-family="Liberation Sans, sans-serif" font-size="353px" font-weight="400"><tspan class="TextPosition" x="9158" y="13640"><tspan fill="rgb(0,0,0)" stroke="none">40%</tspan></tspan></tspan></text>
 <text class="SVGTextShape"><tspan class="TextParagraph" font-family="Liberation Sans, sans-serif" font-size="353px" font-weight="400"><tspan class="TextPosition" x="7570" y="13640"><tspan fill="rgb(0,0,0)" stroke="none">60%</tspan></tspan></tspan></text>
 <text class="SVGTextShape"><tspan class="TextParagraph" font-family="Liberation Sans, sans-serif" font-size="353px" font-weight="400"><tspan class="TextPosition" x="5983" y="13640"><tspan fill="rgb(0,0,0)" stroke="none">80%</tspan></tspan></tspan></text>
 <text class="SVGTextShape"><tspan class="TextParagraph" font-family="Liberation Sans, sans-serif" font-size="353px" font-weight="400"><tspan class="TextPosition" x="4303" y="13640"><tspan fill="rgb(0,0,0)" stroke="none">100%</tspan></tspan></tspan></text>
 <text class="SVGTextShape"><tspan class="TextParagraph" font-family="Liberation Sans, sans-serif" font-size="353px" font-weight="400"><tspan class="TextPosition" x="2715" y="13640"><tspan fill="rgb(0,0,0)" stroke="none">120%</tspan></tspan></tspan></text>
 <path fill="rgb(19,148,72)" stroke="none" d="M 431,7851 L 326,7851 326,7640 537,7640 537,7851 431,7851 Z"/>
 <path fill="rgb(12,50,44)" stroke="none" d="M 431,7353 L 326,7353 326,7142 537,7142 537,7353 431,7353 Z"/>
 <path fill="rgb(255,193,8)" stroke="none" d="M 431,6856 L 326,6856 326,6645 537,6645 537,6856 431,6856 Z"/>
 <path fill="rgb(0,138,207)" stroke="none" d="M 431,6358 L 326,6358 326,6147 537,6147 537,6358 431,6358 Z"/>
 <text class="SVGTextShape"><tspan class="TextParagraph" font-family="Liberation Sans, sans-serif" font-size="353px" font-weight="400"><tspan class="TextPosition" x="637" y="6372"><tspan fill="rgb(0,0,0)" stroke="none">LTO+PGO</tspan></tspan></tspan></text>
 <text class="SVGTextShape"><tspan class="TextParagraph" font-family="Liberation Sans, sans-serif" font-size="353px" font-weight="400"><tspan class="TextPosition" x="637" y="6870"><tspan fill="rgb(0,0,0)" stroke="none">PGO</tspan></tspan></tspan></text>
 <text class="SVGTextShape"><tspan class="TextParagraph" font-family="Liberation Sans, sans-serif" font-size="353px" font-weight="400"><tspan class="TextPosition" x="637" y="7367"><tspan fill="rgb(0,0,0)" stroke="none">LTO</tspan></tspan></tspan></text>
 <text class="SVGTextShape"><tspan class="TextParagraph" font-family="Liberation Sans, sans-serif" font-size="353px" font-weight="400"><tspan class="TextPosition" x="637" y="7865"><tspan fill="rgb(0,0,0)" stroke="none">Normal</tspan></tspan></tspan></text>
</svg>