<?xml version="1.0" encoding="UTF-8"?>
<!DOCTYPE svg PUBLIC "-//W3C//DTD SVG 1.1//EN" "http://www.w3.org/Graphics/SVG/1.1/DTD/svg11.dtd">
<svg width="160mm" height="140mm" viewBox="0 0 16000 14000" version="1.1" xmlns="http://www.w3.org/2000/svg" xmlns:xlink="http://www.w3.org/1999/xlink" stroke-width="28.222" stroke-linejoin="round" xml:space="preserve">
 <path fill="rgb(255,255,255)" stroke="none" d="M 7987,13987 L -13,13987 -13,-13 15987,-13 15987,13987 7987,13987 Z"/>
 <path fill="none" stroke="rgb(179,179,179)" stroke-linejoin="round" d="M 7902,13060 L 3140,13060 3140,267 12663,267 12663,13060 7902,13060 Z"/>
 <path fill="none" stroke="rgb(179,179,179)" stroke-linejoin="round" d="M 12663,265 L 12663,13059"/>
 <path fill="none" stroke="rgb(179,179,179)" stroke-linejoin="round" d="M 11075,265 L 11075,13059"/>
 <path fill="none" stroke="rgb(179,179,179)" stroke-linejoin="round" d="M 9488,265 L 9488,13059"/>
 <path fill="none" stroke="rgb(179,179,179)" stroke-linejoin="round" d="M 7901,265 L 7901,13059"/>
 <path fill="none" stroke="rgb(179,179,179)" stroke-linejoin="round" d="M 6314,265 L 6314,13059"/>
 <path fill="none" stroke="rgb(179,179,179)" stroke-linejoin="round" d="M 4727,265 L 4727,13059"/>
 <path fill="none" stroke="rgb(179,179,179)" stroke-linejoin="round" d="M 3139,265 L 3139,13059"/>
 <path fill="none" stroke="rgb(179,179,179)" stroke-linejoin="round" d="M 12813,265 L 12663,265"/>
 <path fill="none" stroke="rgb(179,179,179)" stroke-linejoin="round" d="M 12813,265 L 12663,265"/>
 <path fill="none" stroke="rgb(179,179,179)" stroke-linejoin="round" d="M 12813,1250 L 12663,1250"/>
 <path fill="none" stroke="rgb(179,179,179)" stroke-linejoin="round" d="M 12813,1250 L 12663,1250"/>
 <path fill="none" stroke="rgb(179,179,179)" stroke-linejoin="round" d="M 12813,2234 L 12663,2234"/>
 <path fill="none" stroke="rgb(179,179,179)" stroke-linejoin="round" d="M 12813,2234 L 12663,2234"/>
 <path fill="none" stroke="rgb(179,179,179)" stroke-linejoin="round" d="M 12813,3218 L 12663,3218"/>
 <path fill="none" stroke="rgb(179,179,179)" stroke-linejoin="round" d="M 12813,3218 L 12663,3218"/>
 <path fill="none" stroke="rgb(179,179,179)" stroke-linejoin="round" d="M 12813,4202 L 12663,4202"/>
 <path fill="none" stroke="rgb(179,179,179)" stroke-linejoin="round" d="M 12813,4202 L 12663,4202"/>
 <path fill="none" stroke="rgb(179,179,179)" stroke-linejoin="round" d="M 12813,5186 L 12663,5186"/>
 <path fill="none" stroke="rgb(179,179,179)" stroke-linejoin="round" d="M 12813,5186 L 12663,5186"/>
 <path fill="none" stroke="rgb(179,179,179)" stroke-linejoin="round" d="M 12813,6170 L 12663,6170"/>
 <path fill="none" stroke="rgb(179,179,179)" stroke-linejoin="round" d="M 12813,6170 L 12663,6170"/>
 <path fill="none" stroke="rgb(179,179,179)" stroke-linejoin="round" d="M 12813,7154 L 12663,7154"/>
 <path fill="none" stroke="rgb(179,179,179)" stroke-linejoin="round" d="M 12813,7154 L 12663,7154"/>
 <path fill="none" stroke="rgb(179,179,179)" stroke-linejoin="round" d="M 12813,8138 L 12663,8138"/>
 <path fill="none" stroke="rgb(179,179,179)" stroke-linejoin="round" d="M 12813,8138 L 12663,8138"/>
 <path fill="none" stroke="rgb(179,179,179)" stroke-linejoin="round" d="M 12813,9122 L 12663,9122"/>
 <path fill="none" stroke="rgb(179,179,179)" stroke-linejoin="round" d="M 12813,9122 L 12663,9122"/>
 <path fill="none" stroke="rgb(179,179,179)" stroke-linejoin="round" d="M 12813,10106 L 12663,10106"/>
 <path fill="none" stroke="rgb(179,179,179)" stroke-linejoin="round" d="M 12813,10106 L 12663,10106"/>
 <path fill="none" stroke="rgb(179,179,179)" stroke-linejoin="round" d="M 12813,11090 L 12663,11090"/>
 <path fill="none" stroke="rgb(179,179,179)" stroke-linejoin="round" d="M 12813,11090 L 12663,11090"/>
 <path fill="none" stroke="rgb(179,179,179)" stroke-linejoin="round" d="M 12813,12074 L 12663,12074"/>
 <path fill="none" stroke="rgb(179,179,179)" stroke-linejoin="round" d="M 12813,12074 L 12663,12074"/>
 <path fill="none" stroke="rgb(179,179,179)" stroke-linejoin="round" d="M 12813,13059 L 12663,13059"/>
 <path fill="none" stroke="rgb(179,179,179)" stroke-linejoin="round" d="M 12813,13059 L 12663,13059"/>
 <path fill="none" stroke="rgb(179,179,179)" stroke-linejoin="round" d="M 12663,13059 L 12663,265"/>
 <path fill="none" stroke="rgb(179,179,179)" stroke-linejoin="round" d="M 12663,13209 L 12663,13059"/>
 <path fill="none" stroke="rgb(179,179,179)" stroke-linejoin="round" d="M 12663,115 L 12663,265"/>
 <path fill="none" stroke="rgb(179,179,179)" stroke-linejoin="round" d="M 11075,13209 L 11075,13059"/>
 <path fill="none" stroke="rgb(179,179,179)" stroke-linejoin="round" d="M 11075,115 L 11075,265"/>
 <path fill="none" stroke="rgb(179,179,179)" stroke-linejoin="round" d="M 9488,13209 L 9488,13059"/>
 <path fill="none" stroke="rgb(179,179,179)" stroke-linejoin="round" d="M 9488,115 L 9488,265"/>
 <path fill="none" stroke="rgb(179,179,179)" stroke-linejoin="round" d="M 7901,13209 L 7901,13059"/>
 <path fill="none" stroke="rgb(179,179,179)" stroke-linejoin="round" d="M 7901,115 L 7901,265"/>
 <path fill="none" stroke="rgb(179,179,179)" stroke-linejoin="round" d="M 6314,13209 L 6314,13059"/>
 <path fill="none" stroke="rgb(179,179,179)" stroke-linejoin="round" d="M 6314,115 L 6314,265"/>
 <path fill="none" stroke="rgb(179,179,179)" stroke-linejoin="round" d="M 4727,13209 L 4727,13059"/>
 <path fill="none" stroke="rgb(179,179,179)" stroke-linejoin="round" d="M 4727,115 L 4727,265"/>
 <path fill="none" stroke="rgb(179,179,179)" stroke-linejoin="round" d="M 3139,13209 L 3139,13059"/>
 <path fill="none" stroke="rgb(179,179,179)" stroke-linejoin="round" d="M 3139,115 L 3139,265"/>
 <path fill="none" stroke="rgb(179,179,179)" stroke-linejoin="round" d="M 3139,265 L 12663,265"/>
 <path fill="rgb(19,148,72)" stroke="none" d="M 12663,364 L 12663,561 4727,561 4727,364 12663,364 Z"/>
 <path fill="rgb(19,148,72)" stroke="none" d="M 12663,1348 L 12663,1545 4727,1545 4727,1348 12663,1348 Z"/>
 <path fill="rgb(19,148,72)" stroke="none" d="M 12663,2332 L 12663,2529 4727,2529 4727,2332 12663,2332 Z"/>
 <path fill="rgb(19,148,72)" stroke="none" d="M 12663,3316 L 12663,3513 4727,3513 4727,3316 12663,3316 Z"/>
 <path fill="rgb(19,148,72)" stroke="none" d="M 12663,4301 L 12663,4497 4727,4497 4727,4301 12663,4301 Z"/>
 <path fill="rgb(19,148,72)" stroke="none" d="M 12663,5285 L 12663,5482 4727,5482 4727,5285 12663,5285 Z"/>
 <path fill="rgb(19,148,72)" stroke="none" d="M 12663,6269 L 12663,6466 4727,6466 4727,6269 12663,6269 Z"/>
 <path fill="rgb(19,148,72)" stroke="none" d="M 12663,7252 L 12663,7449 4727,7449 4727,7252 12663,7252 Z"/>
 <path fill="rgb(19,148,72)" stroke="none" d="M 12663,8236 L 12663,8433 4727,8433 4727,8236 12663,8236 Z"/>
 <path fill="rgb(19,148,72)" stroke="none" d="M 12663,9220 L 12663,9417 4727,9417 4727,9220 12663,9220 Z"/>
 <path fill="rgb(19,148,72)" stroke="none" d="M 12663,10204 L 12663,10401 4727,10401 4727,10204 12663,10204 Z"/>
 <path fill="rgb(19,148,72)" stroke="none" d="M 12663,11189 L 12663,11385 4727,11385 4727,11189 12663,11189 Z"/>
 <path fill="rgb(19,148,72)" stroke="none" d="M 12663,12173 L 12663,12370 4727,12370 4727,12173 12663,12173 Z"/>
 <path fill="rgb(12,50,44)" stroke="none" d="M 12663,561 L 12663,758 5034,758 5034,561 12663,561 Z"/>
 <path fill="rgb(12,50,44)" stroke="none" d="M 12663,1545 L 12663,1742 5579,1742 5579,1545 12663,1545 Z"/>
 <path fill="rgb(12,50,44)" stroke="none" d="M 12663,2529 L 12663,2726 4781,2726 4781,2529 12663,2529 Z"/>
 <path fill="rgb(12,50,44)" stroke="none" d="M 12663,3513 L 12663,3710 10863,3710 10863,3513 12663,3513 Z"/>
 <path fill="rgb(12,50,44)" stroke="none" d="M 12663,4497 L 12663,4694 4306,4694 4306,4497 12663,4497 Z"/>
 <path fill="rgb(12,50,44)" stroke="none" d="M 12663,5482 L 12663,5678 5811,5678 5811,5482 12663,5482 Z"/>
 <path fill="rgb(12,50,44)" stroke="none" d="M 12663,6466 L 12663,6662 6518,6662 6518,6466 12663,6466 Z"/>
 <path fill="rgb(12,50,44)" stroke="none" d="M 12663,7449 L 12663,7646 4491,7646 4491,7449 12663,7449 Z"/>
 <path fill="rgb(12,50,44)" stroke="none" d="M 12663,8433 L 12663,8630 9641,8630 9641,8433 12663,8433 Z"/>
 <path fill="rgb(12,50,44)" stroke="none" d="M 12663,9417 L 12663,9614 6846,9614 6846,9417 12663,9417 Z"/>
 <path fill="rgb(12,50,44)" stroke="none" d="M 12663,10401 L 12663,10598 8848,10598 8848,10401 12663,10401 Z"/>
 <path fill="rgb(12,50,44)" stroke="none" d="M 12663,11385 L 12663,11582 4963,11582 4963,11385 12663,11385 Z"/>
 <path fill="rgb(12,50,44)" stroke="none" d="M 12663,12370 L 12663,12566 6653,12566 6653,12370 12663,12370 Z"/>
 <path fill="rgb(255,193,8)" stroke="none" d="M 12663,758 L 12663,954 3908,954 3908,758 12663,758 Z"/>
 <path fill="rgb(255,193,8)" stroke="none" d="M 12663,1742 L 12663,1939 7672,1939 7672,1742 12663,1742 Z"/>
 <path fill="rgb(255,193,8)" stroke="none" d="M 12663,2726 L 12663,2923 8030,2923 8030,2726 12663,2726 Z"/>
 <path fill="rgb(255,193,8)" stroke="none" d="M 12663,3710 L 12663,3907 7620,3907 7620,3710 12663,3710 Z"/>
 <path fill="rgb(255,193,8)" stroke="none" d="M 12663,4694 L 12663,4891 6342,4891 6342,4694 12663,4694 Z"/>
 <path fill="rgb(255,193,8)" stroke="none" d="M 12663,5678 L 12663,5875 4293,5875 4293,5678 12663,5678 Z"/>
 <path fill="rgb(255,193,8)" stroke="none" d="M 12663,6663 L 12663,6859 6162,6859 6162,6663 12663,6663 Z"/>
 <path fill="rgb(255,193,8)" stroke="none" d="M 12663,7646 L 12663,7842 6281,7842 6281,7646 12663,7646 Z"/>
 <path fill="rgb(255,193,8)" stroke="none" d="M 12663,8630 L 12663,8827 4862,8827 4862,8630 12663,8630 Z"/>
 <path fill="rgb(255,193,8)" stroke="none" d="M 12663,9614 L 12663,9811 8118,9811 8118,9614 12663,9614 Z"/>
 <path fill="rgb(255,193,8)" stroke="none" d="M 12663,10598 L 12663,10795 5523,10795 5523,10598 12663,10598 Z"/>
 <path fill="rgb(255,193,8)" stroke="none" d="M 12663,11582 L 12663,11779 7234,11779 7234,11582 12663,11582 Z"/>
 <path fill="rgb(255,193,8)" stroke="none" d="M 12663,12566 L 12663,12763 3925,12763 3925,12566 12663,12566 Z"/>
 <path fill="rgb(0,138,207)" stroke="none" d="M 12663,954 L 12663,1151 4824,1151 4824,954 12663,954 Z"/>
 <path fill="rgb(0,138,207)" stroke="none" d="M 12663,1939 L 12663,2135 8451,2135 8451,1939 12663,1939 Z"/>
 <path fill="rgb(0,138,207)" stroke="none" d="M 12663,2923 L 12663,3120 8503,3120 8503,2923 12663,2923 Z"/>
 <path fill="rgb(0,138,207)" stroke="none" d="M 12663,3907 L 12663,4104 11399,4104 11399,3907 12663,3907 Z"/>
 <path fill="rgb(0,138,207)" stroke="none" d="M 12663,4891 L 12663,5088 6665,5088 6665,4891 12663,4891 Z"/>
 <path fill="rgb(0,138,207)" stroke="none" d="M 12663,5875 L 12663,6072 5803,6072 5803,5875 12663,5875 Z"/>
 <path fill="rgb(0,138,207)" stroke="none" d="M 12663,6859 L 12663,7055 7660,7055 7660,6859 12663,6859 Z"/>
 <path fill="rgb(0,138,207)" stroke="none" d="M 12663,7842 L 12663,8039 6854,8039 6854,7842 12663,7842 Z"/>
 <path fill="rgb(0,138,207)" stroke="none" d="M 12663,8827 L 12663,9023 9698,9023 9698,8827 12663,8827 Z"/>
 <path fill="rgb(0,138,207)" stroke="none" d="M 12663,9811 L 12663,10008 9580,10008 9580,9811 12663,9811 Z"/>
 <path fill="rgb(0,138,207)" stroke="none" d="M 12663,10795 L 12663,10992 9109,10992 9109,10795 12663,10795 Z"/>
 <path fill="rgb(0,138,207)" stroke="none" d="M 12663,11779 L 12663,11976 7869,11976 7869,11779 12663,11779 Z"/>
 <path fill="rgb(0,138,207)" stroke="none" d="M 12663,12763 L 12663,12960 7341,12960 7341,12763 12663,12763 Z"/>
 <text class="SVGTextShape"><tspan class="TextParagraph" font-family="Liberation Sans, sans-serif" font-size="353px" font-weight="400"><tspan class="TextPosition" x="12913" y="878"><tspan fill="rgb(0,0,0)" stroke="none" style="white-space: pre">503.bwaves_r</tspan></tspan></tspan></text>
 <text class="SVGTextShape"><tspan class="TextParagraph" font-family="Liberation Sans, sans-serif" font-size="353px" font-weight="400"><tspan class="TextPosition" x="12913" y="1862"><tspan fill="rgb(0,0,0)" stroke="none" style="white-space: pre">507.cactuBSSN_r</tspan></tspan></tspan></text>
 <text class="SVGTextShape"><tspan class="TextParagraph" font-family="Liberation Sans, sans-serif" font-size="353px" font-weight="400"><tspan class="TextPosition" x="12913" y="2846"><tspan fill="rgb(0,0,0)" stroke="none" style="white-space: pre">508.namd_r</tspan></tspan></tspan></text>
 <text class="SVGTextShape"><tspan class="TextParagraph" font-family="Liberation Sans, sans-serif" font-size="353px" font-weight="400"><tspan class="TextPosition" x="12913" y="3830"><tspan fill="rgb(0,0,0)" stroke="none" style="white-space: pre">510.parest_r</tspan></tspan></tspan></text>
 <text class="SVGTextShape"><tspan class="TextParagraph" font-family="Liberation Sans, sans-serif" font-size="353px" font-weight="400"><tspan class="TextPosition" x="12913" y="4814"><tspan fill="rgb(0,0,0)" stroke="none" style="white-space: pre">511.povray_r</tspan></tspan></tspan></text>
 <text class="SVGTextShape"><tspan class="TextParagraph" font-family="Liberation Sans, sans-serif" font-size="353px" font-weight="400"><tspan class="TextPosition" x="12913" y="5798"><tspan fill="rgb(0,0,0)" stroke="none" style="white-space: pre">519.lbm_r</tspan></tspan></tspan></text>
 <text class="SVGTextShape"><tspan class="TextParagraph" font-family="Liberation Sans, sans-serif" font-size="353px" font-weight="400"><tspan class="TextPosition" x="12913" y="6782"><tspan fill="rgb(0,0,0)" stroke="none" style="white-space: pre">521.wrf_r</tspan></tspan></tspan></text>
 <text class="SVGTextShape"><tspan class="TextParagraph" font-family="Liberation Sans, sans-serif" font-size="353px" font-weight="400"><tspan class="TextPosition" x="12913" y="7766"><tspan fill="rgb(0,0,0)" stroke="none" style="white-space: pre">526.blender_r</tspan></tspan></tspan></text>
 <text class="SVGTextShape"><tspan class="TextParagraph" font-family="Liberation Sans, sans-serif" font-size="353px" font-weight="400"><tspan class="TextPosition" x="12913" y="8750"><tspan fill="rgb(0,0,0)" stroke="none" style="white-space: pre">527.cam4_r</tspan></tspan></tspan></text>
 <text class="SVGTextShape"><tspan class="TextParagraph" font-family="Liberation Sans, sans-serif" font-size="353px" font-weight="400"><tspan class="TextPosition" x="12913" y="9734"><tspan fill="rgb(0,0,0)" stroke="none" style="white-space: pre">538.imagick_r</tspan></tspan></tspan></text>
 <text class="SVGTextShape"><tspan class="TextParagraph" font-family="Liberation Sans, sans-serif" font-size="353px" font-weight="400"><tspan class="TextPosition" x="12913" y="10718"><tspan fill="rgb(0,0,0)" stroke="none" style="white-space: pre">544.nab_r</tspan></tspan></tspan></text>
 <text class="SVGTextShape"><tspan class="TextParagraph" font-family="Liberation Sans, sans-serif" font-size="353px" font-weight="400"><tspan class="TextPosition" x="12913" y="11702"><tspan fill="rgb(0,0,0)" stroke="none" style="white-space: pre">549.fotonik3d_r</tspan></tspan></tspan></text>
 <text class="SVGTextShape"><tspan class="TextParagraph" font-family="Liberation Sans, sans-serif" font-size="353px" font-weight="400"><tspan class="TextPosition" x="12913" y="12686"><tspan fill="rgb(0,0,0)" stroke="none" style="white-space: pre">554.roms_r</tspan></tspan></tspan></text>
 <text class="SVGTextShape"><tspan class="TextParagraph" font-family="Liberation Sans, sans-serif" font-size="353px" font-weight="400"><tspan class="TextPosition" x="12411" y="13627"><tspan fill="rgb(0,0,0)" stroke="none" style="white-space: pre">0%</tspan></tspan></tspan></text>
 <text class="SVGTextShape"><tspan class="TextParagraph" font-family="Liberation Sans, sans-serif" font-size="353px" font-weight="400"><tspan class="TextPosition" x="10731" y="13627"><tspan fill="rgb(0,0,0)" stroke="none" style="white-space: pre">20%</tspan></tspan></tspan></text>
 <text class="SVGTextShape"><tspan class="TextParagraph" font-family="Liberation Sans, sans-serif" font-size="353px" font-weight="400"><tspan class="TextPosition" x="9144" y="13627"><tspan fill="rgb(0,0,0)" stroke="none" style="white-space: pre">40%</tspan></tspan></tspan></text>
 <text class="SVGTextShape"><tspan class="TextParagraph" font-family="Liberation Sans, sans-serif" font-size="353px" font-weight="400"><tspan class="TextPosition" x="7557" y="13627"><tspan fill="rgb(0,0,0)" stroke="none" style="white-space: pre">60%</tspan></tspan></tspan></text>
 <text class="SVGTextShape"><tspan class="TextParagraph" font-family="Liberation Sans, sans-serif" font-size="353px" font-weight="400"><tspan class="TextPosition" x="5970" y="13627"><tspan fill="rgb(0,0,0)" stroke="none" style="white-space: pre">80%</tspan></tspan></tspan></text>
 <text class="SVGTextShape"><tspan class="TextParagraph" font-family="Liberation Sans, sans-serif" font-size="353px" font-weight="400"><tspan class="TextPosition" x="4290" y="13627"><tspan fill="rgb(0,0,0)" stroke="none" style="white-space: pre">100%</tspan></tspan></tspan></text>
 <text class="SVGTextShape"><tspan class="TextParagraph" font-family="Liberation Sans, sans-serif" font-size="353px" font-weight="400"><tspan class="TextPosition" x="2702" y="13627"><tspan fill="rgb(0,0,0)" stroke="none" style="white-space: pre">120%</tspan></tspan></tspan></text>
 <path fill="rgb(19,148,72)" stroke="none" d="M 418,7838 L 313,7838 313,7627 524,7627 524,7838 418,7838 Z"/>
 <path fill="rgb(12,50,44)" stroke="none" d="M 418,7340 L 313,7340 313,7129 524,7129 524,7340 418,7340 Z"/>
 <path fill="rgb(255,193,8)" stroke="none" d="M 418,6843 L 313,6843 313,6632 524,6632 524,6843 418,6843 Z"/>
 <path fill="rgb(0,138,207)" stroke="none" d="M 418,6345 L 313,6345 313,6134 524,6134 524,6345 418,6345 Z"/>
 <text class="SVGTextShape"><tspan class="TextParagraph" font-family="Liberation Sans, sans-serif" font-size="353px" font-weight="400"><tspan class="TextPosition" x="624" y="6359"><tspan fill="rgb(0,0,0)" stroke="none" style="white-space: pre">LTO+PGO</tspan></tspan></tspan></text>
 <text class="SVGTextShape"><tspan class="TextParagraph" font-family="Liberation Sans, sans-serif" font-size="353px" font-weight="400"><tspan class="TextPosition" x="624" y="6857"><tspan fill="rgb(0,0,0)" stroke="none" style="white-space: pre">PGO</tspan></tspan></tspan></text>
 <text class="SVGTextShape"><tspan class="TextParagraph" font-family="Liberation Sans, sans-serif" font-size="353px" font-weight="400"><tspan class="TextPosition" x="624" y="7354"><tspan fill="rgb(0,0,0)" stroke="none" style="white-space: pre">LTO</tspan></tspan></tspan></text>
 <text class="SVGTextShape"><tspan class="TextParagraph" font-family="Liberation Sans, sans-serif" font-size="353px" font-weight="400"><tspan class="TextPosition" x="624" y="7852"><tspan fill="rgb(0,0,0)" stroke="none" style="white-space: pre">Normal</tspan></tspan></tspan></text>
</svg>