<?xml version="1.0" encoding="UTF-8"?>
<!DOCTYPE svg PUBLIC "-//W3C//DTD SVG 1.1//EN" "http://www.w3.org/Graphics/SVG/1.1/DTD/svg11.dtd">
<svg width="160mm" height="90mm" viewBox="0 0 16000 9000" version="1.1" xmlns="http://www.w3.org/2000/svg" xmlns:xlink="http://www.w3.org/1999/xlink" stroke-width="28.222" stroke-linejoin="round" xml:space="preserve">
 <path fill="rgb(255,255,255)" stroke="none" d="M 8000,8999 L 0,8999 0,0 15999,0 15999,8999 8000,8999 Z"/>
 <path fill="none" stroke="rgb(179,179,179)" stroke-linejoin="round" d="M 9110,8172 L 2979,8172 2979,1461 15241,1461 15241,8172 9110,8172 Z"/>
 <path fill="none" stroke="rgb(179,179,179)" stroke-linejoin="round" d="M 2979,1460 L 2979,8171"/>
 <path fill="none" stroke="rgb(179,179,179)" stroke-linejoin="round" d="M 4511,1460 L 4511,8171"/>
 <path fill="none" stroke="rgb(179,179,179)" stroke-linejoin="round" d="M 6044,1460 L 6044,8171"/>
 <path fill="none" stroke="rgb(179,179,179)" stroke-linejoin="round" d="M 7577,1460 L 7577,8171"/>
 <path fill="none" stroke="rgb(179,179,179)" stroke-linejoin="round" d="M 9109,1460 L 9109,8171"/>
 <path fill="none" stroke="rgb(179,179,179)" stroke-linejoin="round" d="M 10642,1460 L 10642,8171"/>
 <path fill="none" stroke="rgb(179,179,179)" stroke-linejoin="round" d="M 12175,1460 L 12175,8171"/>
 <path fill="none" stroke="rgb(179,179,179)" stroke-linejoin="round" d="M 13708,1460 L 13708,8171"/>
 <path fill="none" stroke="rgb(179,179,179)" stroke-linejoin="round" d="M 15241,1460 L 15241,8171"/>
 <path fill="none" stroke="rgb(179,179,179)" stroke-linejoin="round" d="M 2829,8171 L 2979,8171"/>
 <path fill="none" stroke="rgb(179,179,179)" stroke-linejoin="round" d="M 2829,8171 L 2979,8171"/>
 <path fill="none" stroke="rgb(179,179,179)" stroke-linejoin="round" d="M 2829,5933 L 2979,5933"/>
 <path fill="none" stroke="rgb(179,179,179)" stroke-linejoin="round" d="M 2829,5933 L 2979,5933"/>
 <path fill="none" stroke="rgb(179,179,179)" stroke-linejoin="round" d="M 2829,3697 L 2979,3697"/>
 <path fill="none" stroke="rgb(179,179,179)" stroke-linejoin="round" d="M 2829,3697 L 2979,3697"/>
 <path fill="none" stroke="rgb(179,179,179)" stroke-linejoin="round" d="M 2829,1460 L 2979,1460"/>
 <path fill="none" stroke="rgb(179,179,179)" stroke-linejoin="round" d="M 2829,1460 L 2979,1460"/>
 <path fill="none" stroke="rgb(179,179,179)" stroke-linejoin="round" d="M 2979,8171 L 2979,1460"/>
 <path fill="none" stroke="rgb(179,179,179)" stroke-linejoin="round" d="M 2979,8321 L 2979,8171"/>
 <path fill="none" stroke="rgb(179,179,179)" stroke-linejoin="round" d="M 2979,8321 L 2979,8171"/>
 <path fill="none" stroke="rgb(179,179,179)" stroke-linejoin="round" d="M 4511,8321 L 4511,8171"/>
 <path fill="none" stroke="rgb(179,179,179)" stroke-linejoin="round" d="M 4511,8321 L 4511,8171"/>
 <path fill="none" stroke="rgb(179,179,179)" stroke-linejoin="round" d="M 6044,8321 L 6044,8171"/>
 <path fill="none" stroke="rgb(179,179,179)" stroke-linejoin="round" d="M 6044,8321 L 6044,8171"/>
 <path fill="none" stroke="rgb(179,179,179)" stroke-linejoin="round" d="M 7577,8321 L 7577,8171"/>
 <path fill="none" stroke="rgb(179,179,179)" stroke-linejoin="round" d="M 7577,8321 L 7577,8171"/>
 <path fill="none" stroke="rgb(179,179,179)" stroke-linejoin="round" d="M 9109,8321 L 9109,8171"/>
 <path fill="none" stroke="rgb(179,179,179)" stroke-linejoin="round" d="M 9109,8321 L 9109,8171"/>
 <path fill="none" stroke="rgb(179,179,179)" stroke-linejoin="round" d="M 10642,8321 L 10642,8171"/>
 <path fill="none" stroke="rgb(179,179,179)" stroke-linejoin="round" d="M 10642,8321 L 10642,8171"/>
 <path fill="none" stroke="rgb(179,179,179)" stroke-linejoin="round" d="M 12175,8321 L 12175,8171"/>
 <path fill="none" stroke="rgb(179,179,179)" stroke-linejoin="round" d="M 12175,8321 L 12175,8171"/>
 <path fill="none" stroke="rgb(179,179,179)" stroke-linejoin="round" d="M 13708,8321 L 13708,8171"/>
 <path fill="none" stroke="rgb(179,179,179)" stroke-linejoin="round" d="M 13708,8321 L 13708,8171"/>
 <path fill="none" stroke="rgb(179,179,179)" stroke-linejoin="round" d="M 15241,8321 L 15241,8171"/>
 <path fill="none" stroke="rgb(179,179,179)" stroke-linejoin="round" d="M 15241,8321 L 15241,8171"/>
 <path fill="none" stroke="rgb(179,179,179)" stroke-linejoin="round" d="M 2979,8171 L 15241,8171"/>
 <path fill="rgb(0,138,207)" stroke="none" d="M 2979,3537 L 2979,3217 11723,3217 11723,3537 2979,3537 Z"/>
 <path fill="rgb(0,138,207)" stroke="none" d="M 2979,5773 L 2979,5454 13295,5454 13295,5773 2979,5773 Z"/>
 <path fill="rgb(0,138,207)" stroke="none" d="M 2979,8011 L 2979,7691 12880,7691 12880,8011 2979,8011 Z"/>
 <path fill="rgb(13,44,64)" stroke="none" d="M 2979,3217 L 2979,2898 10930,2898 10930,3217 2979,3217 Z"/>
 <path fill="rgb(13,44,64)" stroke="none" d="M 2979,5454 L 2979,5134 10361,5134 10361,5454 2979,5454 Z"/>
 <path fill="rgb(13,44,64)" stroke="none" d="M 2979,7691 L 2979,7371 11292,7371 11292,7691 2979,7691 Z"/>
 <path fill="rgb(19,148,72)" stroke="none" d="M 2979,2898 L 2979,2578 10667,2578 10667,2898 2979,2898 Z"/>
 <path fill="rgb(19,148,72)" stroke="none" d="M 2979,5134 L 2979,4814 10361,4814 10361,5134 2979,5134 Z"/>
 <path fill="rgb(19,148,72)" stroke="none" d="M 2979,7371 L 2979,7052 10917,7052 10917,7371 2979,7371 Z"/>
 <path fill="rgb(220,53,69)" stroke="none" d="M 2979,2578 L 2979,2259 11815,2259 11815,2578 2979,2578 Z"/>
 <path fill="rgb(220,53,69)" stroke="none" d="M 2979,4815 L 2979,4496 12792,4496 12792,4815 2979,4815 Z"/>
 <path fill="rgb(220,53,69)" stroke="none" d="M 2979,7052 L 2979,6732 12286,6732 12286,7052 2979,7052 Z"/>
 <path fill="rgb(255,193,8)" stroke="none" d="M 2979,2259 L 2979,1939 11116,1939 11116,2259 2979,2259 Z"/>
 <path fill="rgb(255,193,8)" stroke="none" d="M 2979,4496 L 2979,4176 10945,4176 10945,4496 2979,4496 Z"/>
 <path fill="rgb(255,193,8)" stroke="none" d="M 2979,6732 L 2979,6413 11540,6413 11540,6732 2979,6732 Z"/>
 <path fill="rgb(126,0,33)" stroke="none" d="M 2979,1939 L 2979,1619 10642,1619 10642,1939 2979,1939 Z"/>
 <path fill="rgb(126,0,33)" stroke="none" d="M 2979,4176 L 2979,3857 10642,3857 10642,4176 2979,4176 Z"/>
 <path fill="rgb(126,0,33)" stroke="none" d="M 2979,6413 L 2979,6093 10642,6093 10642,6413 2979,6413 Z"/>
 <text class="TextShape"><tspan class="TextParagraph" font-family="Liberation Sans, sans-serif" font-size="353px" font-weight="400"><tspan class="TextPosition" x="1168" y="7173"><tspan fill="rgb(0,0,0)" stroke="none">singletons</tspan></tspan></tspan></text>
 <text class="TextShape"><tspan class="TextParagraph" font-family="Liberation Sans, sans-serif" font-size="353px" font-weight="400"><tspan class="TextPosition" x="321" y="4936"><tspan fill="rgb(0,0,0)" stroke="none">responsiveness</tspan></tspan></tspan></text>
 <text class="TextShape"><tspan class="TextParagraph" font-family="Liberation Sans, sans-serif" font-size="353px" font-weight="400"><tspan class="TextPosition" x="2068" y="2698"><tspan fill="rgb(0,0,0)" stroke="none">tp5o</tspan></tspan></tspan></text>
 <text class="TextShape"><tspan class="TextParagraph" font-family="Liberation Sans, sans-serif" font-size="353px" font-weight="400"><tspan class="TextPosition" x="2727" y="8739"><tspan fill="rgb(0,0,0)" stroke="none">0%</tspan></tspan></tspan></text>
 <text class="TextShape"><tspan class="TextParagraph" font-family="Liberation Sans, sans-serif" font-size="353px" font-weight="400"><tspan class="TextPosition" x="4167" y="8739"><tspan fill="rgb(0,0,0)" stroke="none">20%</tspan></tspan></tspan></text>
 <text class="TextShape"><tspan class="TextParagraph" font-family="Liberation Sans, sans-serif" font-size="353px" font-weight="400"><tspan class="TextPosition" x="5700" y="8739"><tspan fill="rgb(0,0,0)" stroke="none">40%</tspan></tspan></tspan></text>
 <text class="TextShape"><tspan class="TextParagraph" font-family="Liberation Sans, sans-serif" font-size="353px" font-weight="400"><tspan class="TextPosition" x="7233" y="8739"><tspan fill="rgb(0,0,0)" stroke="none">60%</tspan></tspan></tspan></text>
 <text class="TextShape"><tspan class="TextParagraph" font-family="Liberation Sans, sans-serif" font-size="353px" font-weight="400"><tspan class="TextPosition" x="8766" y="8739"><tspan fill="rgb(0,0,0)" stroke="none">80%</tspan></tspan></tspan></text>
 <text class="TextShape"><tspan class="TextParagraph" font-family="Liberation Sans, sans-serif" font-size="353px" font-weight="400"><tspan class="TextPosition" x="10206" y="8739"><tspan fill="rgb(0,0,0)" stroke="none">100%</tspan></tspan></tspan></text>
 <text class="TextShape"><tspan class="TextParagraph" font-family="Liberation Sans, sans-serif" font-size="353px" font-weight="400"><tspan class="TextPosition" x="11739" y="8739"><tspan fill="rgb(0,0,0)" stroke="none">120%</tspan></tspan></tspan></text>
 <text class="TextShape"><tspan class="TextParagraph" font-family="Liberation Sans, sans-serif" font-size="353px" font-weight="400"><tspan class="TextPosition" x="13272" y="8739"><tspan fill="rgb(0,0,0)" stroke="none">140%</tspan></tspan></tspan></text>
 <text class="TextShape"><tspan class="TextParagraph" font-family="Liberation Sans, sans-serif" font-size="353px" font-weight="400"><tspan class="TextPosition" x="14805" y="8739"><tspan fill="rgb(0,0,0)" stroke="none">160%</tspan></tspan></tspan></text>
 <path fill="rgb(0,138,207)" stroke="none" d="M 8771,1087 L 8665,1087 8665,876 8876,876 8876,1087 8771,1087 Z"/>
 <path fill="rgb(13,44,64)" stroke="none" d="M 5712,1087 L 5607,1087 5607,876 5818,876 5818,1087 5712,1087 Z"/>
 <path fill="rgb(19,148,72)" stroke="none" d="M 3632,1087 L 3527,1087 3527,876 3738,876 3738,1087 3632,1087 Z"/>
 <path fill="rgb(220,53,69)" stroke="none" d="M 8771,589 L 8665,589 8665,378 8876,378 8876,589 8771,589 Z"/>
 <path fill="rgb(255,193,8)" stroke="none" d="M 5712,589 L 5607,589 5607,378 5818,378 5818,589 5712,589 Z"/>
 <path fill="rgb(126,0,33)" stroke="none" d="M 3632,589 L 3527,589 3527,378 3738,378 3738,589 3632,589 Z"/>
 <text class="TextShape"><tspan class="TextParagraph" font-family="Liberation Sans, sans-serif" font-size="353px" font-weight="400"><tspan class="TextPosition" x="3838" y="603"><tspan fill="rgb(0,0,0)" stroke="none">Clang -O3</tspan></tspan></tspan></text>
 <text class="TextShape"><tspan class="TextParagraph" font-family="Liberation Sans, sans-serif" font-size="353px" font-weight="400"><tspan class="TextPosition" x="5918" y="603"><tspan fill="rgb(0,0,0)" stroke="none">Clang -O3 (LTO)</tspan></tspan></tspan></text>
 <text class="TextShape"><tspan class="TextParagraph" font-family="Liberation Sans, sans-serif" font-size="353px" font-weight="400"><tspan class="TextPosition" x="8976" y="603"><tspan fill="rgb(0,0,0)" stroke="none">Clang -O3 (LTO+PGO)</tspan></tspan></tspan></text>
 <text class="TextShape"><tspan class="TextParagraph" font-family="Liberation Sans, sans-serif" font-size="353px" font-weight="400"><tspan class="TextPosition" x="3838" y="1101"><tspan fill="rgb(0,0,0)" stroke="none">GCC -O3</tspan></tspan></tspan></text>
 <text class="TextShape"><tspan class="TextParagraph" font-family="Liberation Sans, sans-serif" font-size="353px" font-weight="400"><tspan class="TextPosition" x="5918" y="1101"><tspan fill="rgb(0,0,0)" stroke="none">GCC -O3 LTO</tspan></tspan></tspan></text>
 <text class="TextShape"><tspan class="TextParagraph" font-family="Liberation Sans, sans-serif" font-size="353px" font-weight="400"><tspan class="TextPosition" x="8976" y="1101"><tspan fill="rgb(0,0,0)" stroke="none">GCC -O3 (LTO+PGO)</tspan></tspan></tspan></text>
</svg>