<?xml version="1.0" encoding="UTF-8"?>
<!DOCTYPE svg PUBLIC "-//W3C//DTD SVG 1.1//EN" "http://www.w3.org/Graphics/SVG/1.1/DTD/svg11.dtd">
<svg width="160mm" height="92mm" viewBox="0 0 16000 9200" version="1.1" xmlns="http://www.w3.org/2000/svg" xmlns:xlink="http://www.w3.org/1999/xlink" stroke-width="28.222" stroke-linejoin="round" xml:space="preserve">
 <path fill="rgb(255,255,255)" stroke="none" d="M 8000,9200 L 0,9200 0,0 15999,0 15999,9200 8000,9200 Z"/>
 <path fill="none" stroke="rgb(179,179,179)" stroke-linejoin="round" d="M 7370,8369 L 2688,8369 2688,184 12052,184 12052,8369 7370,8369 Z"/>
 <path fill="none" stroke="rgb(179,179,179)" stroke-linejoin="round" d="M 2688,183 L 2688,8368"/>
 <path fill="none" stroke="rgb(179,179,179)" stroke-linejoin="round" d="M 3858,183 L 3858,8368"/>
 <path fill="none" stroke="rgb(179,179,179)" stroke-linejoin="round" d="M 5029,183 L 5029,8368"/>
 <path fill="none" stroke="rgb(179,179,179)" stroke-linejoin="round" d="M 6199,183 L 6199,8368"/>
 <path fill="none" stroke="rgb(179,179,179)" stroke-linejoin="round" d="M 7370,183 L 7370,8368"/>
 <path fill="none" stroke="rgb(179,179,179)" stroke-linejoin="round" d="M 8540,183 L 8540,8368"/>
 <path fill="none" stroke="rgb(179,179,179)" stroke-linejoin="round" d="M 9710,183 L 9710,8368"/>
 <path fill="none" stroke="rgb(179,179,179)" stroke-linejoin="round" d="M 10881,183 L 10881,8368"/>
 <path fill="none" stroke="rgb(179,179,179)" stroke-linejoin="round" d="M 12052,183 L 12052,8368"/>
 <path fill="none" stroke="rgb(179,179,179)" stroke-linejoin="round" d="M 2538,183 L 2688,183"/>
 <path fill="none" stroke="rgb(179,179,179)" stroke-linejoin="round" d="M 2538,183 L 2688,183"/>
 <path fill="none" stroke="rgb(179,179,179)" stroke-linejoin="round" d="M 2538,1206 L 2688,1206"/>
 <path fill="none" stroke="rgb(179,179,179)" stroke-linejoin="round" d="M 2538,1206 L 2688,1206"/>
 <path fill="none" stroke="rgb(179,179,179)" stroke-linejoin="round" d="M 2538,2229 L 2688,2229"/>
 <path fill="none" stroke="rgb(179,179,179)" stroke-linejoin="round" d="M 2538,2229 L 2688,2229"/>
 <path fill="none" stroke="rgb(179,179,179)" stroke-linejoin="round" d="M 2538,3252 L 2688,3252"/>
 <path fill="none" stroke="rgb(179,179,179)" stroke-linejoin="round" d="M 2538,3252 L 2688,3252"/>
 <path fill="none" stroke="rgb(179,179,179)" stroke-linejoin="round" d="M 2538,4276 L 2688,4276"/>
 <path fill="none" stroke="rgb(179,179,179)" stroke-linejoin="round" d="M 2538,4276 L 2688,4276"/>
 <path fill="none" stroke="rgb(179,179,179)" stroke-linejoin="round" d="M 2538,5298 L 2688,5298"/>
 <path fill="none" stroke="rgb(179,179,179)" stroke-linejoin="round" d="M 2538,5298 L 2688,5298"/>
 <path fill="none" stroke="rgb(179,179,179)" stroke-linejoin="round" d="M 2538,6321 L 2688,6321"/>
 <path fill="none" stroke="rgb(179,179,179)" stroke-linejoin="round" d="M 2538,6321 L 2688,6321"/>
 <path fill="none" stroke="rgb(179,179,179)" stroke-linejoin="round" d="M 2538,7344 L 2688,7344"/>
 <path fill="none" stroke="rgb(179,179,179)" stroke-linejoin="round" d="M 2538,7344 L 2688,7344"/>
 <path fill="none" stroke="rgb(179,179,179)" stroke-linejoin="round" d="M 2538,8368 L 2688,8368"/>
 <path fill="none" stroke="rgb(179,179,179)" stroke-linejoin="round" d="M 2538,8368 L 2688,8368"/>
 <path fill="none" stroke="rgb(179,179,179)" stroke-linejoin="round" d="M 2688,8368 L 2688,183"/>
 <path fill="none" stroke="rgb(179,179,179)" stroke-linejoin="round" d="M 2688,8518 L 2688,8368"/>
 <path fill="none" stroke="rgb(179,179,179)" stroke-linejoin="round" d="M 2688,33 L 2688,183"/>
 <path fill="none" stroke="rgb(179,179,179)" stroke-linejoin="round" d="M 3858,8518 L 3858,8368"/>
 <path fill="none" stroke="rgb(179,179,179)" stroke-linejoin="round" d="M 3858,33 L 3858,183"/>
 <path fill="none" stroke="rgb(179,179,179)" stroke-linejoin="round" d="M 5029,8518 L 5029,8368"/>
 <path fill="none" stroke="rgb(179,179,179)" stroke-linejoin="round" d="M 5029,33 L 5029,183"/>
 <path fill="none" stroke="rgb(179,179,179)" stroke-linejoin="round" d="M 6199,8518 L 6199,8368"/>
 <path fill="none" stroke="rgb(179,179,179)" stroke-linejoin="round" d="M 6199,33 L 6199,183"/>
 <path fill="none" stroke="rgb(179,179,179)" stroke-linejoin="round" d="M 7370,8518 L 7370,8368"/>
 <path fill="none" stroke="rgb(179,179,179)" stroke-linejoin="round" d="M 7370,33 L 7370,183"/>
 <path fill="none" stroke="rgb(179,179,179)" stroke-linejoin="round" d="M 8540,8518 L 8540,8368"/>
 <path fill="none" stroke="rgb(179,179,179)" stroke-linejoin="round" d="M 8540,33 L 8540,183"/>
 <path fill="none" stroke="rgb(179,179,179)" stroke-linejoin="round" d="M 9710,8518 L 9710,8368"/>
 <path fill="none" stroke="rgb(179,179,179)" stroke-linejoin="round" d="M 9710,33 L 9710,183"/>
 <path fill="none" stroke="rgb(179,179,179)" stroke-linejoin="round" d="M 10881,8518 L 10881,8368"/>
 <path fill="none" stroke="rgb(179,179,179)" stroke-linejoin="round" d="M 10881,33 L 10881,183"/>
 <path fill="none" stroke="rgb(179,179,179)" stroke-linejoin="round" d="M 12052,8518 L 12052,8368"/>
 <path fill="none" stroke="rgb(179,179,179)" stroke-linejoin="round" d="M 12052,33 L 12052,183"/>
 <path fill="none" stroke="rgb(179,179,179)" stroke-linejoin="round" d="M 2688,183 L 12052,183"/>
 <path fill="rgb(220,53,69)" stroke="none" d="M 2688,7447 L 2688,7651 8540,7651 8540,7447 2688,7447 Z"/>
 <path fill="rgb(220,53,69)" stroke="none" d="M 2688,6423 L 2688,6628 8540,6628 8540,6423 2688,6423 Z"/>
 <path fill="rgb(220,53,69)" stroke="none" d="M 2688,5400 L 2688,5605 8540,5605 8540,5400 2688,5400 Z"/>
 <path fill="rgb(220,53,69)" stroke="none" d="M 2688,4378 L 2688,4582 8540,4582 8540,4378 2688,4378 Z"/>
 <path fill="rgb(220,53,69)" stroke="none" d="M 2688,3355 L 2688,3559 8540,3559 8540,3355 2688,3355 Z"/>
 <path fill="rgb(220,53,69)" stroke="none" d="M 2688,2331 L 2688,2536 8540,2536 8540,2331 2688,2331 Z"/>
 <path fill="rgb(220,53,69)" stroke="none" d="M 2688,1308 L 2688,1513 8540,1513 8540,1308 2688,1308 Z"/>
 <path fill="rgb(220,53,69)" stroke="none" d="M 2688,285 L 2688,489 8540,489 8540,285 2688,285 Z"/>
 <path fill="rgb(255,158,2)" stroke="none" d="M 2688,7651 L 2688,7856 8560,7856 8560,7651 2688,7651 Z"/>
 <path fill="rgb(255,158,2)" stroke="none" d="M 2688,6628 L 2688,6833 8736,6833 8736,6628 2688,6628 Z"/>
 <path fill="rgb(255,158,2)" stroke="none" d="M 2688,5605 L 2688,5809 8787,5809 8787,5605 2688,5605 Z"/>
 <path fill="rgb(255,158,2)" stroke="none" d="M 2688,4582 L 2688,4786 8559,4786 8559,4582 2688,4582 Z"/>
 <path fill="rgb(255,158,2)" stroke="none" d="M 2688,3559 L 2688,3764 8117,3764 8117,3559 2688,3559 Z"/>
 <path fill="rgb(255,158,2)" stroke="none" d="M 2688,2536 L 2688,2741 8478,2741 8478,2536 2688,2536 Z"/>
 <path fill="rgb(255,158,2)" stroke="none" d="M 2688,1513 L 2688,1717 8675,1717 8675,1513 2688,1513 Z"/>
 <path fill="rgb(255,158,2)" stroke="none" d="M 2688,489 L 2688,694 9390,694 9390,489 2688,489 Z"/>
 <path fill="rgb(19,148,72)" stroke="none" d="M 2688,7856 L 2688,8061 10557,8061 10557,7856 2688,7856 Z"/>
 <path fill="rgb(19,148,72)" stroke="none" d="M 2688,6833 L 2688,7037 9255,7037 9255,6833 2688,6833 Z"/>
 <path fill="rgb(19,148,72)" stroke="none" d="M 2688,5809 L 2688,6014 9365,6014 9365,5809 2688,5809 Z"/>
 <path fill="rgb(19,148,72)" stroke="none" d="M 2688,4786 L 2688,4991 9163,4991 9163,4786 2688,4786 Z"/>
 <path fill="rgb(19,148,72)" stroke="none" d="M 2688,3764 L 2688,3969 9493,3969 9493,3764 2688,3764 Z"/>
 <path fill="rgb(19,148,72)" stroke="none" d="M 2688,2741 L 2688,2945 8493,2945 8493,2741 2688,2741 Z"/>
 <path fill="rgb(19,148,72)" stroke="none" d="M 2688,1717 L 2688,1922 9075,1922 9075,1717 2688,1717 Z"/>
 <path fill="rgb(19,148,72)" stroke="none" d="M 2688,694 L 2688,899 9925,899 9925,694 2688,694 Z"/>
 <path fill="rgb(12,50,44)" stroke="none" d="M 2688,8061 L 2688,8265 10702,8265 10702,8061 2688,8061 Z"/>
 <path fill="rgb(12,50,44)" stroke="none" d="M 2688,7037 L 2688,7242 9282,7242 9282,7037 2688,7037 Z"/>
 <path fill="rgb(12,50,44)" stroke="none" d="M 2688,6014 L 2688,6219 9332,6219 9332,6014 2688,6014 Z"/>
 <path fill="rgb(12,50,44)" stroke="none" d="M 2688,4991 L 2688,5195 9347,5195 9347,4991 2688,4991 Z"/>
 <path fill="rgb(12,50,44)" stroke="none" d="M 2688,3969 L 2688,4173 9728,4173 9728,3969 2688,3969 Z"/>
 <path fill="rgb(12,50,44)" stroke="none" d="M 2688,2945 L 2688,3150 8074,3150 8074,2945 2688,2945 Z"/>
 <path fill="rgb(12,50,44)" stroke="none" d="M 2688,1922 L 2688,2127 9985,2127 9985,1922 2688,1922 Z"/>
 <path fill="rgb(12,50,44)" stroke="none" d="M 2688,899 L 2688,1103 10274,1103 10274,899 2688,899 Z"/>
 <text class="SVGTextShape"><tspan class="TextParagraph" font-family="Liberation Sans, sans-serif" font-size="353px" font-weight="400"><tspan class="TextPosition" x="321" y="814"><tspan fill="rgb(0,0,0)" stroke="none">503.bwaves_r</tspan></tspan></tspan></text>
 <text class="SVGTextShape"><tspan class="TextParagraph" font-family="Liberation Sans, sans-serif" font-size="353px" font-weight="400"><tspan class="TextPosition" x="533" y="1837"><tspan fill="rgb(0,0,0)" stroke="none">510.parest_r</tspan></tspan></tspan></text>
 <text class="SVGTextShape"><tspan class="TextParagraph" font-family="Liberation Sans, sans-serif" font-size="353px" font-weight="400"><tspan class="TextPosition" x="930" y="2861"><tspan fill="rgb(0,0,0)" stroke="none">519.lbm_r</tspan></tspan></tspan></text>
 <text class="SVGTextShape"><tspan class="TextParagraph" font-family="Liberation Sans, sans-serif" font-size="353px" font-weight="400"><tspan class="TextPosition" x="1036" y="3884"><tspan fill="rgb(0,0,0)" stroke="none">521.wrf_r</tspan></tspan></tspan></text>
 <text class="SVGTextShape"><tspan class="TextParagraph" font-family="Liberation Sans, sans-serif" font-size="353px" font-weight="400"><tspan class="TextPosition" x="639" y="4907"><tspan fill="rgb(0,0,0)" stroke="none">527.cam4_r</tspan></tspan></tspan></text>
 <text class="SVGTextShape"><tspan class="TextParagraph" font-family="Liberation Sans, sans-serif" font-size="353px" font-weight="400"><tspan class="TextPosition" x="295" y="5930"><tspan fill="rgb(0,0,0)" stroke="none">538.imagick_r</tspan></tspan></tspan></text>
 <text class="SVGTextShape"><tspan class="TextParagraph" font-family="Liberation Sans, sans-serif" font-size="353px" font-weight="400"><tspan class="TextPosition" x="83" y="6954"><tspan fill="rgb(0,0,0)" stroke="none">549.fotonik3d_r</tspan></tspan></tspan></text>
 <text class="SVGTextShape"><tspan class="TextParagraph" font-family="Liberation Sans, sans-serif" font-size="353px" font-weight="400"><tspan class="TextPosition" x="718" y="7977"><tspan fill="rgb(0,0,0)" stroke="none">554.roms_r</tspan></tspan></tspan></text>
 <text class="SVGTextShape"><tspan class="TextParagraph" font-family="Liberation Sans, sans-serif" font-size="353px" font-weight="400"><tspan class="TextPosition" x="2436" y="8936"><tspan fill="rgb(0,0,0)" stroke="none">0%</tspan></tspan></tspan></text>
 <text class="SVGTextShape"><tspan class="TextParagraph" font-family="Liberation Sans, sans-serif" font-size="353px" font-weight="400"><tspan class="TextPosition" x="3514" y="8936"><tspan fill="rgb(0,0,0)" stroke="none">20%</tspan></tspan></tspan></text>
 <text class="SVGTextShape"><tspan class="TextParagraph" font-family="Liberation Sans, sans-serif" font-size="353px" font-weight="400"><tspan class="TextPosition" x="4685" y="8936"><tspan fill="rgb(0,0,0)" stroke="none">40%</tspan></tspan></tspan></text>
 <text class="SVGTextShape"><tspan class="TextParagraph" font-family="Liberation Sans, sans-serif" font-size="353px" font-weight="400"><tspan class="TextPosition" x="5855" y="8936"><tspan fill="rgb(0,0,0)" stroke="none">60%</tspan></tspan></tspan></text>
 <text class="SVGTextShape"><tspan class="TextParagraph" font-family="Liberation Sans, sans-serif" font-size="353px" font-weight="400"><tspan class="TextPosition" x="7026" y="8936"><tspan fill="rgb(0,0,0)" stroke="none">80%</tspan></tspan></tspan></text>
 <text class="SVGTextShape"><tspan class="TextParagraph" font-family="Liberation Sans, sans-serif" font-size="353px" font-weight="400"><tspan class="TextPosition" x="8104" y="8936"><tspan fill="rgb(0,0,0)" stroke="none">100%</tspan></tspan></tspan></text>
 <text class="SVGTextShape"><tspan class="TextParagraph" font-family="Liberation Sans, sans-serif" font-size="353px" font-weight="400"><tspan class="TextPosition" x="9274" y="8936"><tspan fill="rgb(0,0,0)" stroke="none">120%</tspan></tspan></tspan></text>
 <text class="SVGTextShape"><tspan class="TextParagraph" font-family="Liberation Sans, sans-serif" font-size="353px" font-weight="400"><tspan class="TextPosition" x="10445" y="8936"><tspan fill="rgb(0,0,0)" stroke="none">140%</tspan></tspan></tspan></text>
 <text class="SVGTextShape"><tspan class="TextParagraph" font-family="Liberation Sans, sans-serif" font-size="353px" font-weight="400"><tspan class="TextPosition" x="11616" y="8936"><tspan fill="rgb(0,0,0)" stroke="none">160%</tspan></tspan></tspan></text>
 <path fill="rgb(220,53,69)" stroke="none" d="M 13270,5451 L 13164,5451 13164,5240 13375,5240 13375,5451 13270,5451 Z"/>
 <path fill="rgb(255,158,2)" stroke="none" d="M 13270,4953 L 13164,4953 13164,4742 13375,4742 13375,4953 13270,4953 Z"/>
 <path fill="rgb(19,148,72)" stroke="none" d="M 13270,4456 L 13164,4456 13164,4245 13375,4245 13375,4456 13270,4456 Z"/>
 <path fill="rgb(12,50,44)" stroke="none" d="M 13270,3958 L 13164,3958 13164,3747 13375,3747 13375,3958 13270,3958 Z"/>
 <text class="SVGTextShape"><tspan class="TextParagraph" font-family="Liberation Sans, sans-serif" font-size="353px" font-weight="400"><tspan class="TextPosition" x="13475" y="3972"><tspan fill="rgb(0,0,0)" stroke="none">GCC 11 (LTO)</tspan></tspan></tspan></text>
 <text class="SVGTextShape"><tspan class="TextParagraph" font-family="Liberation Sans, sans-serif" font-size="353px" font-weight="400"><tspan class="TextPosition" x="13475" y="4470"><tspan fill="rgb(0,0,0)" stroke="none">GCC 11</tspan></tspan></tspan></text>
 <text class="SVGTextShape"><tspan class="TextParagraph" font-family="Liberation Sans, sans-serif" font-size="353px" font-weight="400"><tspan class="TextPosition" x="13475" y="4967"><tspan fill="rgb(0,0,0)" stroke="none">GCC 7 (LTO)</tspan></tspan></tspan></text>
 <text class="SVGTextShape"><tspan class="TextParagraph" font-family="Liberation Sans, sans-serif" font-size="353px" font-weight="400"><tspan class="TextPosition" x="13475" y="5465"><tspan fill="rgb(0,0,0)" stroke="none">GCC 7</tspan></tspan></tspan></text>
</svg>