<?xml version="1.0" encoding="UTF-8"?>
<!DOCTYPE svg PUBLIC "-//W3C//DTD SVG 1.1//EN" "http://www.w3.org/Graphics/SVG/1.1/DTD/svg11.dtd">
<svg width="160mm" height="70mm" viewBox="0 0 16000 7000" version="1.1" xmlns="http://www.w3.org/2000/svg" xmlns:xlink="http://www.w3.org/1999/xlink" stroke-width="28.222" stroke-linejoin="round" xml:space="preserve">
 <path fill="rgb(255,255,255)" stroke="none" d="M 8000,7000 L 0,7000 0,0 16000,0 16000,7000 8000,7000 Z"/>
 <path fill="none" stroke="rgb(179,179,179)" stroke-linejoin="round" d="M 6584,6661 L 1444,6661 1444,339 11724,339 11724,6661 6584,6661 Z"/>
 <path fill="none" stroke="rgb(179,179,179)" stroke-linejoin="round" d="M 11724,6659 L 1444,6659"/>
 <path fill="none" stroke="rgb(179,179,179)" stroke-linejoin="round" d="M 11724,5395 L 1444,5395"/>
 <path fill="none" stroke="rgb(179,179,179)" stroke-linejoin="round" d="M 11724,4130 L 1444,4130"/>
 <path fill="none" stroke="rgb(179,179,179)" stroke-linejoin="round" d="M 11724,2867 L 1444,2867"/>
 <path fill="none" stroke="rgb(179,179,179)" stroke-linejoin="round" d="M 11724,1602 L 1444,1602"/>
 <path fill="none" stroke="rgb(179,179,179)" stroke-linejoin="round" d="M 11724,338 L 1444,338"/>
 <path fill="none" stroke="rgb(179,179,179)" stroke-linejoin="round" d="M 1444,6809 L 1444,6659"/>
 <path fill="none" stroke="rgb(179,179,179)" stroke-linejoin="round" d="M 1444,6809 L 1444,6659"/>
 <path fill="none" stroke="rgb(179,179,179)" stroke-linejoin="round" d="M 11724,6809 L 11724,6659"/>
 <path fill="none" stroke="rgb(179,179,179)" stroke-linejoin="round" d="M 11724,6809 L 11724,6659"/>
 <path fill="none" stroke="rgb(179,179,179)" stroke-linejoin="round" d="M 1444,6659 L 11724,6659"/>
 <path fill="none" stroke="rgb(179,179,179)" stroke-linejoin="round" d="M 1294,6659 L 1444,6659"/>
 <path fill="none" stroke="rgb(179,179,179)" stroke-linejoin="round" d="M 1294,6659 L 1444,6659"/>
 <path fill="none" stroke="rgb(179,179,179)" stroke-linejoin="round" d="M 1294,5395 L 1444,5395"/>
 <path fill="none" stroke="rgb(179,179,179)" stroke-linejoin="round" d="M 1294,5395 L 1444,5395"/>
 <path fill="none" stroke="rgb(179,179,179)" stroke-linejoin="round" d="M 1294,4130 L 1444,4130"/>
 <path fill="none" stroke="rgb(179,179,179)" stroke-linejoin="round" d="M 1294,4130 L 1444,4130"/>
 <path fill="none" stroke="rgb(179,179,179)" stroke-linejoin="round" d="M 1294,2867 L 1444,2867"/>
 <path fill="none" stroke="rgb(179,179,179)" stroke-linejoin="round" d="M 1294,2867 L 1444,2867"/>
 <path fill="none" stroke="rgb(179,179,179)" stroke-linejoin="round" d="M 1294,1602 L 1444,1602"/>
 <path fill="none" stroke="rgb(179,179,179)" stroke-linejoin="round" d="M 1294,1602 L 1444,1602"/>
 <path fill="none" stroke="rgb(179,179,179)" stroke-linejoin="round" d="M 1294,338 L 1444,338"/>
 <path fill="none" stroke="rgb(179,179,179)" stroke-linejoin="round" d="M 1294,338 L 1444,338"/>
 <path fill="none" stroke="rgb(179,179,179)" stroke-linejoin="round" d="M 1444,6659 L 1444,338"/>
 <path fill="rgb(220,53,69)" stroke="none" d="M 3157,6659 L 6584,6659 6584,4130 3157,4130 3157,6659 Z"/>
 <path fill="rgb(12,50,44)" stroke="none" d="M 6584,6659 L 10010,6659 10010,3117 6584,3117 6584,6659 Z"/>
 <text class="TextShape"><tspan class="TextParagraph" font-family="Liberation Sans, sans-serif" font-size="353px" font-weight="400"><tspan class="TextPosition" x="506" y="6780"><tspan fill="rgb(0,0,0)" stroke="none">80%</tspan></tspan></tspan></text>
 <text class="TextShape"><tspan class="TextParagraph" font-family="Liberation Sans, sans-serif" font-size="353px" font-weight="400"><tspan class="TextPosition" x="506" y="5516"><tspan fill="rgb(0,0,0)" stroke="none">90%</tspan></tspan></tspan></text>
 <text class="TextShape"><tspan class="TextParagraph" font-family="Liberation Sans, sans-serif" font-size="353px" font-weight="400"><tspan class="TextPosition" x="321" y="4251"><tspan fill="rgb(0,0,0)" stroke="none">100%</tspan></tspan></tspan></text>
 <text class="TextShape"><tspan class="TextParagraph" font-family="Liberation Sans, sans-serif" font-size="353px" font-weight="400"><tspan class="TextPosition" x="321" y="2987"><tspan fill="rgb(0,0,0)" stroke="none">110%</tspan></tspan></tspan></text>
 <text class="TextShape"><tspan class="TextParagraph" font-family="Liberation Sans, sans-serif" font-size="353px" font-weight="400"><tspan class="TextPosition" x="321" y="1722"><tspan fill="rgb(0,0,0)" stroke="none">120%</tspan></tspan></tspan></text>
 <text class="TextShape"><tspan class="TextParagraph" font-family="Liberation Sans, sans-serif" font-size="353px" font-weight="400"><tspan class="TextPosition" x="321" y="458"><tspan fill="rgb(0,0,0)" stroke="none">130%</tspan></tspan></tspan></text>
 <path fill="rgb(220,53,69)" stroke="none" d="M 12266,3356 L 12160,3356 12160,3145 12371,3145 12371,3356 12266,3356 Z"/>
 <path fill="rgb(12,50,44)" stroke="none" d="M 12266,3853 L 12160,3853 12160,3642 12371,3642 12371,3853 12266,3853 Z"/>
 <text class="TextShape"><tspan class="TextParagraph" font-family="Liberation Sans, sans-serif" font-size="353px" font-weight="400"><tspan class="TextPosition" x="12471" y="3370"><tspan fill="rgb(0,0,0)" stroke="none">Plain -O3 (LTO)</tspan></tspan></tspan></text>
 <text class="TextShape"><tspan class="TextParagraph" font-family="Liberation Sans, sans-serif" font-size="353px" font-weight="400"><tspan class="TextPosition" x="12471" y="3867"><tspan fill="rgb(0,0,0)" stroke="none">-O3 -ffastmath (LTO)</tspan></tspan></tspan></text>
</svg>