<?xml version="1.0" encoding="UTF-8"?>
<!DOCTYPE svg PUBLIC "-//W3C//DTD SVG 1.1//EN" "http://www.w3.org/Graphics/SVG/1.1/DTD/svg11.dtd">
<svg width="160mm" height="140mm" viewBox="0 0 16000 14000" version="1.1" xmlns="http://www.w3.org/2000/svg" xmlns:xlink="http://www.w3.org/1999/xlink" stroke-width="28.222" stroke-linejoin="round" xml:space="preserve">
 <path fill="rgb(255,255,255)" stroke="none" d="M 8000,14000 L 0,14000 0,0 16000,0 16000,14000 8000,14000 Z"/>
 <path fill="none" stroke="rgb(179,179,179)" stroke-linejoin="round" d="M 8304,13073 L 3323,13073 3323,280 13285,280 13285,13073 8304,13073 Z"/>
 <path fill="none" stroke="rgb(179,179,179)" stroke-linejoin="round" d="M 3323,278 L 3323,13072"/>
 <path fill="none" stroke="rgb(179,179,179)" stroke-linejoin="round" d="M 4651,278 L 4651,13072"/>
 <path fill="none" stroke="rgb(179,179,179)" stroke-linejoin="round" d="M 5979,278 L 5979,13072"/>
 <path fill="none" stroke="rgb(179,179,179)" stroke-linejoin="round" d="M 7308,278 L 7308,13072"/>
 <path fill="none" stroke="rgb(179,179,179)" stroke-linejoin="round" d="M 8635,278 L 8635,13072"/>
 <path fill="none" stroke="rgb(179,179,179)" stroke-linejoin="round" d="M 9964,278 L 9964,13072"/>
 <path fill="none" stroke="rgb(179,179,179)" stroke-linejoin="round" d="M 11292,278 L 11292,13072"/>
 <path fill="none" stroke="rgb(179,179,179)" stroke-linejoin="round" d="M 12620,278 L 12620,13072"/>
 <path fill="none" stroke="rgb(179,179,179)" stroke-linejoin="round" d="M 3173,278 L 3323,278"/>
 <path fill="none" stroke="rgb(179,179,179)" stroke-linejoin="round" d="M 3173,278 L 3323,278"/>
 <path fill="none" stroke="rgb(179,179,179)" stroke-linejoin="round" d="M 3173,1263 L 3323,1263"/>
 <path fill="none" stroke="rgb(179,179,179)" stroke-linejoin="round" d="M 3173,1263 L 3323,1263"/>
 <path fill="none" stroke="rgb(179,179,179)" stroke-linejoin="round" d="M 3173,2247 L 3323,2247"/>
 <path fill="none" stroke="rgb(179,179,179)" stroke-linejoin="round" d="M 3173,2247 L 3323,2247"/>
 <path fill="none" stroke="rgb(179,179,179)" stroke-linejoin="round" d="M 3173,3231 L 3323,3231"/>
 <path fill="none" stroke="rgb(179,179,179)" stroke-linejoin="round" d="M 3173,3231 L 3323,3231"/>
 <path fill="none" stroke="rgb(179,179,179)" stroke-linejoin="round" d="M 3173,4215 L 3323,4215"/>
 <path fill="none" stroke="rgb(179,179,179)" stroke-linejoin="round" d="M 3173,4215 L 3323,4215"/>
 <path fill="none" stroke="rgb(179,179,179)" stroke-linejoin="round" d="M 3173,5199 L 3323,5199"/>
 <path fill="none" stroke="rgb(179,179,179)" stroke-linejoin="round" d="M 3173,5199 L 3323,5199"/>
 <path fill="none" stroke="rgb(179,179,179)" stroke-linejoin="round" d="M 3173,6183 L 3323,6183"/>
 <path fill="none" stroke="rgb(179,179,179)" stroke-linejoin="round" d="M 3173,6183 L 3323,6183"/>
 <path fill="none" stroke="rgb(179,179,179)" stroke-linejoin="round" d="M 3173,7167 L 3323,7167"/>
 <path fill="none" stroke="rgb(179,179,179)" stroke-linejoin="round" d="M 3173,7167 L 3323,7167"/>
 <path fill="none" stroke="rgb(179,179,179)" stroke-linejoin="round" d="M 3173,8151 L 3323,8151"/>
 <path fill="none" stroke="rgb(179,179,179)" stroke-linejoin="round" d="M 3173,8151 L 3323,8151"/>
 <path fill="none" stroke="rgb(179,179,179)" stroke-linejoin="round" d="M 3173,9135 L 3323,9135"/>
 <path fill="none" stroke="rgb(179,179,179)" stroke-linejoin="round" d="M 3173,9135 L 3323,9135"/>
 <path fill="none" stroke="rgb(179,179,179)" stroke-linejoin="round" d="M 3173,10119 L 3323,10119"/>
 <path fill="none" stroke="rgb(179,179,179)" stroke-linejoin="round" d="M 3173,10119 L 3323,10119"/>
 <path fill="none" stroke="rgb(179,179,179)" stroke-linejoin="round" d="M 3173,11103 L 3323,11103"/>
 <path fill="none" stroke="rgb(179,179,179)" stroke-linejoin="round" d="M 3173,11103 L 3323,11103"/>
 <path fill="none" stroke="rgb(179,179,179)" stroke-linejoin="round" d="M 3173,12087 L 3323,12087"/>
 <path fill="none" stroke="rgb(179,179,179)" stroke-linejoin="round" d="M 3173,12087 L 3323,12087"/>
 <path fill="none" stroke="rgb(179,179,179)" stroke-linejoin="round" d="M 3173,13072 L 3323,13072"/>
 <path fill="none" stroke="rgb(179,179,179)" stroke-linejoin="round" d="M 3173,13072 L 3323,13072"/>
 <path fill="none" stroke="rgb(179,179,179)" stroke-linejoin="round" d="M 3323,13072 L 3323,278"/>
 <path fill="none" stroke="rgb(179,179,179)" stroke-linejoin="round" d="M 3323,13222 L 3323,13072"/>
 <path fill="none" stroke="rgb(179,179,179)" stroke-linejoin="round" d="M 3323,128 L 3323,278"/>
 <path fill="none" stroke="rgb(179,179,179)" stroke-linejoin="round" d="M 4651,13222 L 4651,13072"/>
 <path fill="none" stroke="rgb(179,179,179)" stroke-linejoin="round" d="M 4651,128 L 4651,278"/>
 <path fill="none" stroke="rgb(179,179,179)" stroke-linejoin="round" d="M 5979,13222 L 5979,13072"/>
 <path fill="none" stroke="rgb(179,179,179)" stroke-linejoin="round" d="M 5979,128 L 5979,278"/>
 <path fill="none" stroke="rgb(179,179,179)" stroke-linejoin="round" d="M 7308,13222 L 7308,13072"/>
 <path fill="none" stroke="rgb(179,179,179)" stroke-linejoin="round" d="M 7308,128 L 7308,278"/>
 <path fill="none" stroke="rgb(179,179,179)" stroke-linejoin="round" d="M 8635,13222 L 8635,13072"/>
 <path fill="none" stroke="rgb(179,179,179)" stroke-linejoin="round" d="M 8635,128 L 8635,278"/>
 <path fill="none" stroke="rgb(179,179,179)" stroke-linejoin="round" d="M 9964,13222 L 9964,13072"/>
 <path fill="none" stroke="rgb(179,179,179)" stroke-linejoin="round" d="M 9964,128 L 9964,278"/>
 <path fill="none" stroke="rgb(179,179,179)" stroke-linejoin="round" d="M 11292,13222 L 11292,13072"/>
 <path fill="none" stroke="rgb(179,179,179)" stroke-linejoin="round" d="M 11292,128 L 11292,278"/>
 <path fill="none" stroke="rgb(179,179,179)" stroke-linejoin="round" d="M 12620,13222 L 12620,13072"/>
 <path fill="none" stroke="rgb(179,179,179)" stroke-linejoin="round" d="M 12620,128 L 12620,278"/>
 <path fill="none" stroke="rgb(179,179,179)" stroke-linejoin="round" d="M 3323,278 L 13285,278"/>
 <path fill="rgb(19,148,72)" stroke="none" d="M 3323,12186 L 3323,12383 9964,12383 9964,12186 3323,12186 Z"/>
 <path fill="rgb(19,148,72)" stroke="none" d="M 3323,11202 L 3323,11398 9964,11398 9964,11202 3323,11202 Z"/>
 <path fill="rgb(19,148,72)" stroke="none" d="M 3323,10217 L 3323,10414 9964,10414 9964,10217 3323,10217 Z"/>
 <path fill="rgb(19,148,72)" stroke="none" d="M 3323,9233 L 3323,9430 9964,9430 9964,9233 3323,9233 Z"/>
 <path fill="rgb(19,148,72)" stroke="none" d="M 3323,8249 L 3323,8446 9964,8446 9964,8249 3323,8249 Z"/>
 <path fill="rgb(19,148,72)" stroke="none" d="M 3323,7265 L 3323,7462 9964,7462 9964,7265 3323,7265 Z"/>
 <path fill="rgb(19,148,72)" stroke="none" d="M 3323,6282 L 3323,6479 9964,6479 9964,6282 3323,6282 Z"/>
 <path fill="rgb(19,148,72)" stroke="none" d="M 3323,5298 L 3323,5495 9964,5495 9964,5298 3323,5298 Z"/>
 <path fill="rgb(19,148,72)" stroke="none" d="M 3323,4314 L 3323,4510 9964,4510 9964,4314 3323,4314 Z"/>
 <path fill="rgb(19,148,72)" stroke="none" d="M 3323,3329 L 3323,3526 9964,3526 9964,3329 3323,3329 Z"/>
 <path fill="rgb(19,148,72)" stroke="none" d="M 3323,2345 L 3323,2542 9964,2542 9964,2345 3323,2345 Z"/>
 <path fill="rgb(19,148,72)" stroke="none" d="M 3323,1361 L 3323,1558 9964,1558 9964,1361 3323,1361 Z"/>
 <path fill="rgb(19,148,72)" stroke="none" d="M 3323,377 L 3323,574 9964,574 9964,377 3323,377 Z"/>
 <path fill="rgb(12,50,44)" stroke="none" d="M 3323,12383 L 3323,12579 10086,12579 10086,12383 3323,12383 Z"/>
 <path fill="rgb(12,50,44)" stroke="none" d="M 3323,11398 L 3323,11595 9990,11595 9990,11398 3323,11398 Z"/>
 <path fill="rgb(12,50,44)" stroke="none" d="M 3323,10414 L 3323,10611 9835,10611 9835,10414 3323,10414 Z"/>
 <path fill="rgb(12,50,44)" stroke="none" d="M 3323,9430 L 3323,9627 9931,9627 9931,9430 3323,9430 Z"/>
 <path fill="rgb(12,50,44)" stroke="none" d="M 3323,8446 L 3323,8643 10152,8643 10152,8446 3323,8446 Z"/>
 <path fill="rgb(12,50,44)" stroke="none" d="M 3323,7462 L 3323,7659 9982,7659 9982,7462 3323,7462 Z"/>
 <path fill="rgb(12,50,44)" stroke="none" d="M 3323,6479 L 3323,6675 10192,6675 10192,6479 3323,6479 Z"/>
 <path fill="rgb(12,50,44)" stroke="none" d="M 3323,5495 L 3323,5691 9485,5691 9485,5495 3323,5495 Z"/>
 <path fill="rgb(12,50,44)" stroke="none" d="M 3323,4510 L 3323,4707 10337,4707 10337,4510 3323,4510 Z"/>
 <path fill="rgb(12,50,44)" stroke="none" d="M 3323,3526 L 3323,3723 10910,3723 10910,3526 3323,3526 Z"/>
 <path fill="rgb(12,50,44)" stroke="none" d="M 3323,2542 L 3323,2739 9896,2739 9896,2542 3323,2542 Z"/>
 <path fill="rgb(12,50,44)" stroke="none" d="M 3323,1558 L 3323,1755 10054,1755 10054,1558 3323,1558 Z"/>
 <path fill="rgb(12,50,44)" stroke="none" d="M 3323,574 L 3323,771 10283,771 10283,574 3323,574 Z"/>
 <path fill="rgb(255,193,8)" stroke="none" d="M 3323,12579 L 3323,12776 10332,12776 10332,12579 3323,12579 Z"/>
 <path fill="rgb(255,193,8)" stroke="none" d="M 3323,11595 L 3323,11792 9769,11792 9769,11595 3323,11595 Z"/>
 <path fill="rgb(255,193,8)" stroke="none" d="M 3323,10611 L 3323,10808 9852,10808 9852,10611 3323,10611 Z"/>
 <path fill="rgb(255,193,8)" stroke="none" d="M 3323,9627 L 3323,9824 10596,9824 10596,9627 3323,9627 Z"/>
 <path fill="rgb(255,193,8)" stroke="none" d="M 3323,8643 L 3323,8840 10017,8840 10017,8643 3323,8643 Z"/>
 <path fill="rgb(255,193,8)" stroke="none" d="M 3323,7659 L 3323,7855 10224,7855 10224,7659 3323,7659 Z"/>
 <path fill="rgb(255,193,8)" stroke="none" d="M 3323,6676 L 3323,6872 8814,6872 8814,6676 3323,6676 Z"/>
 <path fill="rgb(255,193,8)" stroke="none" d="M 3323,5691 L 3323,5888 10407,5888 10407,5691 3323,5691 Z"/>
 <path fill="rgb(255,193,8)" stroke="none" d="M 3323,4707 L 3323,4904 10561,4904 10561,4707 3323,4707 Z"/>
 <path fill="rgb(255,193,8)" stroke="none" d="M 3323,3723 L 3323,3920 10711,3920 10711,3723 3323,3723 Z"/>
 <path fill="rgb(255,193,8)" stroke="none" d="M 3323,2739 L 3323,2936 9941,2936 9941,2739 3323,2739 Z"/>
 <path fill="rgb(255,193,8)" stroke="none" d="M 3323,1755 L 3323,1952 10144,1952 10144,1755 3323,1755 Z"/>
 <path fill="rgb(255,193,8)" stroke="none" d="M 3323,771 L 3323,967 9767,967 9767,771 3323,771 Z"/>
 <path fill="rgb(0,138,207)" stroke="none" d="M 3323,12776 L 3323,12973 10157,12973 10157,12776 3323,12776 Z"/>
 <path fill="rgb(0,138,207)" stroke="none" d="M 3323,11792 L 3323,11989 9778,11989 9778,11792 3323,11792 Z"/>
 <path fill="rgb(0,138,207)" stroke="none" d="M 3323,10808 L 3323,11005 9775,11005 9775,10808 3323,10808 Z"/>
 <path fill="rgb(0,138,207)" stroke="none" d="M 3323,9824 L 3323,10021 10308,10021 10308,9824 3323,9824 Z"/>
 <path fill="rgb(0,138,207)" stroke="none" d="M 3323,8840 L 3323,9036 10085,9036 10085,8840 3323,8840 Z"/>
 <path fill="rgb(0,138,207)" stroke="none" d="M 3323,7855 L 3323,8052 10187,8052 10187,7855 3323,7855 Z"/>
 <path fill="rgb(0,138,207)" stroke="none" d="M 3323,6872 L 3323,7068 8890,7068 8890,6872 3323,6872 Z"/>
 <path fill="rgb(0,138,207)" stroke="none" d="M 3323,5888 L 3323,6085 10363,6085 10363,5888 3323,5888 Z"/>
 <path fill="rgb(0,138,207)" stroke="none" d="M 3323,4904 L 3323,5101 11989,5101 11989,4904 3323,4904 Z"/>
 <path fill="rgb(0,138,207)" stroke="none" d="M 3323,3920 L 3323,4117 11616,4117 11616,3920 3323,3920 Z"/>
 <path fill="rgb(0,138,207)" stroke="none" d="M 3323,2936 L 3323,3133 9941,3133 9941,2936 3323,2936 Z"/>
 <path fill="rgb(0,138,207)" stroke="none" d="M 3323,1952 L 3323,2148 10131,2148 10131,1952 3323,1952 Z"/>
 <path fill="rgb(0,138,207)" stroke="none" d="M 3323,967 L 3323,1164 10317,1164 10317,967 3323,967 Z"/>
 <text class="SVGTextShape"><tspan class="TextParagraph" font-family="Liberation Sans, sans-serif" font-size="353px" font-weight="400"><tspan class="TextPosition" x="956" y="891"><tspan fill="rgb(0,0,0)" stroke="none">503.bwaves_r</tspan></tspan></tspan></text>
 <text class="SVGTextShape"><tspan class="TextParagraph" font-family="Liberation Sans, sans-serif" font-size="353px" font-weight="400"><tspan class="TextPosition" x="321" y="1875"><tspan fill="rgb(0,0,0)" stroke="none">507.cactuBSSN_r</tspan></tspan></tspan></text>
 <text class="SVGTextShape"><tspan class="TextParagraph" font-family="Liberation Sans, sans-serif" font-size="353px" font-weight="400"><tspan class="TextPosition" x="1274" y="2859"><tspan fill="rgb(0,0,0)" stroke="none">508.namd_r</tspan></tspan></tspan></text>
 <text class="SVGTextShape"><tspan class="TextParagraph" font-family="Liberation Sans, sans-serif" font-size="353px" font-weight="400"><tspan class="TextPosition" x="1168" y="3843"><tspan fill="rgb(0,0,0)" stroke="none">510.parest_r</tspan></tspan></tspan></text>
 <text class="SVGTextShape"><tspan class="TextParagraph" font-family="Liberation Sans, sans-serif" font-size="353px" font-weight="400"><tspan class="TextPosition" x="1089" y="4827"><tspan fill="rgb(0,0,0)" stroke="none">511.povray_r</tspan></tspan></tspan></text>
 <text class="SVGTextShape"><tspan class="TextParagraph" font-family="Liberation Sans, sans-serif" font-size="353px" font-weight="400"><tspan class="TextPosition" x="1565" y="5811"><tspan fill="rgb(0,0,0)" stroke="none">519.lbm_r</tspan></tspan></tspan></text>
 <text class="SVGTextShape"><tspan class="TextParagraph" font-family="Liberation Sans, sans-serif" font-size="353px" font-weight="400"><tspan class="TextPosition" x="1671" y="6795"><tspan fill="rgb(0,0,0)" stroke="none">521.wrf_r</tspan></tspan></tspan></text>
 <text class="SVGTextShape"><tspan class="TextParagraph" font-family="Liberation Sans, sans-serif" font-size="353px" font-weight="400"><tspan class="TextPosition" x="1009" y="7780"><tspan fill="rgb(0,0,0)" stroke="none">526.blender_r</tspan></tspan></tspan></text>
 <text class="SVGTextShape"><tspan class="TextParagraph" font-family="Liberation Sans, sans-serif" font-size="353px" font-weight="400"><tspan class="TextPosition" x="1274" y="8764"><tspan fill="rgb(0,0,0)" stroke="none">527.cam4_r</tspan></tspan></tspan></text>
 <text class="SVGTextShape"><tspan class="TextParagraph" font-family="Liberation Sans, sans-serif" font-size="353px" font-weight="400"><tspan class="TextPosition" x="930" y="9748"><tspan fill="rgb(0,0,0)" stroke="none">538.imagick_r</tspan></tspan></tspan></text>
 <text class="SVGTextShape"><tspan class="TextParagraph" font-family="Liberation Sans, sans-serif" font-size="353px" font-weight="400"><tspan class="TextPosition" x="1565" y="10732"><tspan fill="rgb(0,0,0)" stroke="none">544.nab_r</tspan></tspan></tspan></text>
 <text class="SVGTextShape"><tspan class="TextParagraph" font-family="Liberation Sans, sans-serif" font-size="353px" font-weight="400"><tspan class="TextPosition" x="718" y="11716"><tspan fill="rgb(0,0,0)" stroke="none">549.fotonik3d_r</tspan></tspan></tspan></text>
 <text class="SVGTextShape"><tspan class="TextParagraph" font-family="Liberation Sans, sans-serif" font-size="353px" font-weight="400"><tspan class="TextPosition" x="1353" y="12700"><tspan fill="rgb(0,0,0)" stroke="none">554.roms_r</tspan></tspan></tspan></text>
 <text class="SVGTextShape"><tspan class="TextParagraph" font-family="Liberation Sans, sans-serif" font-size="353px" font-weight="400"><tspan class="TextPosition" x="3071" y="13640"><tspan fill="rgb(0,0,0)" stroke="none">0%</tspan></tspan></tspan></text>
 <text class="SVGTextShape"><tspan class="TextParagraph" font-family="Liberation Sans, sans-serif" font-size="353px" font-weight="400"><tspan class="TextPosition" x="4307" y="13640"><tspan fill="rgb(0,0,0)" stroke="none">20%</tspan></tspan></tspan></text>
 <text class="SVGTextShape"><tspan class="TextParagraph" font-family="Liberation Sans, sans-serif" font-size="353px" font-weight="400"><tspan class="TextPosition" x="5635" y="13640"><tspan fill="rgb(0,0,0)" stroke="none">40%</tspan></tspan></tspan></text>
 <text class="SVGTextShape"><tspan class="TextParagraph" font-family="Liberation Sans, sans-serif" font-size="353px" font-weight="400"><tspan class="TextPosition" x="6964" y="13640"><tspan fill="rgb(0,0,0)" stroke="none">60%</tspan></tspan></tspan></text>
 <text class="SVGTextShape"><tspan class="TextParagraph" font-family="Liberation Sans, sans-serif" font-size="353px" font-weight="400"><tspan class="TextPosition" x="8292" y="13640"><tspan fill="rgb(0,0,0)" stroke="none">80%</tspan></tspan></tspan></text>
 <text class="SVGTextShape"><tspan class="TextParagraph" font-family="Liberation Sans, sans-serif" font-size="353px" font-weight="400"><tspan class="TextPosition" x="9528" y="13640"><tspan fill="rgb(0,0,0)" stroke="none">100%</tspan></tspan></tspan></text>
 <text class="SVGTextShape"><tspan class="TextParagraph" font-family="Liberation Sans, sans-serif" font-size="353px" font-weight="400"><tspan class="TextPosition" x="10856" y="13640"><tspan fill="rgb(0,0,0)" stroke="none">120%</tspan></tspan></tspan></text>
 <text class="SVGTextShape"><tspan class="TextParagraph" font-family="Liberation Sans, sans-serif" font-size="353px" font-weight="400"><tspan class="TextPosition" x="12184" y="13640"><tspan fill="rgb(0,0,0)" stroke="none">140%</tspan></tspan></tspan></text>
 <path fill="rgb(19,148,72)" stroke="none" d="M 13827,7851 L 13721,7851 13721,7640 13932,7640 13932,7851 13827,7851 Z"/>
 <path fill="rgb(12,50,44)" stroke="none" d="M 13827,7353 L 13721,7353 13721,7142 13932,7142 13932,7353 13827,7353 Z"/>
 <path fill="rgb(255,193,8)" stroke="none" d="M 13827,6856 L 13721,6856 13721,6645 13932,6645 13932,6856 13827,6856 Z"/>
 <path fill="rgb(0,138,207)" stroke="none" d="M 13827,6358 L 13721,6358 13721,6147 13932,6147 13932,6358 13827,6358 Z"/>
 <text class="SVGTextShape"><tspan class="TextParagraph" font-family="Liberation Sans, sans-serif" font-size="353px" font-weight="400"><tspan class="TextPosition" x="14032" y="6372"><tspan fill="rgb(0,0,0)" stroke="none">LTO+PGO</tspan></tspan></tspan></text>
 <text class="SVGTextShape"><tspan class="TextParagraph" font-family="Liberation Sans, sans-serif" font-size="353px" font-weight="400"><tspan class="TextPosition" x="14032" y="6870"><tspan fill="rgb(0,0,0)" stroke="none">PGO</tspan></tspan></tspan></text>
 <text class="SVGTextShape"><tspan class="TextParagraph" font-family="Liberation Sans, sans-serif" font-size="353px" font-weight="400"><tspan class="TextPosition" x="14032" y="7367"><tspan fill="rgb(0,0,0)" stroke="none">LTO</tspan></tspan></tspan></text>
 <text class="SVGTextShape"><tspan class="TextParagraph" font-family="Liberation Sans, sans-serif" font-size="353px" font-weight="400"><tspan class="TextPosition" x="14032" y="7865"><tspan fill="rgb(0,0,0)" stroke="none">Normal</tspan></tspan></tspan></text>
</svg>