<?xml version="1.0" encoding="UTF-8"?>
<!DOCTYPE svg PUBLIC "-//W3C//DTD SVG 1.1//EN" "http://www.w3.org/Graphics/SVG/1.1/DTD/svg11.dtd">
<svg width="160mm" height="19mm" viewBox="0 0 16000 1900" version="1.1" xmlns="http://www.w3.org/2000/svg" xmlns:xlink="http://www.w3.org/1999/xlink" stroke-width="28.222" stroke-linejoin="round" xml:space="preserve">
 <path fill="rgb(255,255,255)" stroke="none" d="M 8000,1900 L 0,1900 0,107 16000,107 16000,1900 8000,1900 Z"/>
 <path fill="none" stroke="rgb(179,179,179)" stroke-linejoin="round" d="M 8795,1254 L 4782,1254 4782,143 12809,143 12809,1254 8795,1254 Z"/>
 <path fill="none" stroke="rgb(179,179,179)" stroke-linejoin="round" d="M 12809,142 L 12809,1253"/>
 <path fill="none" stroke="rgb(179,179,179)" stroke-linejoin="round" d="M 11471,142 L 11471,1253"/>
 <path fill="none" stroke="rgb(179,179,179)" stroke-linejoin="round" d="M 10133,142 L 10133,1253"/>
 <path fill="none" stroke="rgb(179,179,179)" stroke-linejoin="round" d="M 8795,142 L 8795,1253"/>
 <path fill="none" stroke="rgb(179,179,179)" stroke-linejoin="round" d="M 7458,142 L 7458,1253"/>
 <path fill="none" stroke="rgb(179,179,179)" stroke-linejoin="round" d="M 6120,142 L 6120,1253"/>
 <path fill="none" stroke="rgb(179,179,179)" stroke-linejoin="round" d="M 4782,142 L 4782,1253"/>
 <path fill="none" stroke="rgb(179,179,179)" stroke-linejoin="round" d="M 12959,142 L 12809,142"/>
 <path fill="none" stroke="rgb(179,179,179)" stroke-linejoin="round" d="M 12959,142 L 12809,142"/>
 <path fill="none" stroke="rgb(179,179,179)" stroke-linejoin="round" d="M 12959,1253 L 12809,1253"/>
 <path fill="none" stroke="rgb(179,179,179)" stroke-linejoin="round" d="M 12959,1253 L 12809,1253"/>
 <path fill="none" stroke="rgb(179,179,179)" stroke-linejoin="round" d="M 12809,1253 L 12809,142"/>
 <path fill="none" stroke="rgb(179,179,179)" stroke-linejoin="round" d="M 12809,1394 L 12809,1253"/>
 <path fill="none" stroke="rgb(179,179,179)" stroke-linejoin="round" d="M 12809,0 L 12809,142"/>
 <path fill="none" stroke="rgb(179,179,179)" stroke-linejoin="round" d="M 11471,1394 L 11471,1253"/>
 <path fill="none" stroke="rgb(179,179,179)" stroke-linejoin="round" d="M 11471,0 L 11471,142"/>
 <path fill="none" stroke="rgb(179,179,179)" stroke-linejoin="round" d="M 10133,1394 L 10133,1253"/>
 <path fill="none" stroke="rgb(179,179,179)" stroke-linejoin="round" d="M 10133,0 L 10133,142"/>
 <path fill="none" stroke="rgb(179,179,179)" stroke-linejoin="round" d="M 8795,1394 L 8795,1253"/>
 <path fill="none" stroke="rgb(179,179,179)" stroke-linejoin="round" d="M 8795,0 L 8795,142"/>
 <path fill="none" stroke="rgb(179,179,179)" stroke-linejoin="round" d="M 7458,1394 L 7458,1253"/>
 <path fill="none" stroke="rgb(179,179,179)" stroke-linejoin="round" d="M 7458,0 L 7458,142"/>
 <path fill="none" stroke="rgb(179,179,179)" stroke-linejoin="round" d="M 6120,1394 L 6120,1253"/>
 <path fill="none" stroke="rgb(179,179,179)" stroke-linejoin="round" d="M 6120,0 L 6120,142"/>
 <path fill="none" stroke="rgb(179,179,179)" stroke-linejoin="round" d="M 4782,1394 L 4782,1253"/>
 <path fill="none" stroke="rgb(179,179,179)" stroke-linejoin="round" d="M 4782,0 L 4782,142"/>
 <path fill="none" stroke="rgb(179,179,179)" stroke-linejoin="round" d="M 4782,142 L 12809,142"/>
 <path fill="rgb(19,148,72)" stroke="none" d="M 12809,252 L 12809,475 10133,475 10133,252 12809,252 Z"/>
 <path fill="rgb(12,50,44)" stroke="none" d="M 12809,475 L 12809,697 10167,697 10167,475 12809,475 Z"/>
 <path fill="rgb(255,211,32)" stroke="none" d="M 12809,697 L 12809,919 6242,919 6242,697 12809,697 Z"/>
 <path fill="rgb(0,138,207)" stroke="none" d="M 12809,919 L 12809,1142 8617,1142 8617,919 12809,919 Z"/>
 <text class="SVGTextShape"><tspan class="TextParagraph" font-family="Liberation Sans, sans-serif" font-size="333px" font-weight="400"><tspan class="TextPosition" x="13059" y="811"><tspan fill="rgb(0,0,0)" stroke="none">548.exchange2_r</tspan></tspan></tspan></text>
 <text class="SVGTextShape"><tspan class="TextParagraph" font-family="Liberation Sans, sans-serif" font-size="333px" font-weight="400"><tspan class="TextPosition" x="12558" y="1789"><tspan fill="rgb(0,0,0)" stroke="none">0%</tspan></tspan></tspan></text>
 <text class="SVGTextShape"><tspan class="TextParagraph" font-family="Liberation Sans, sans-serif" font-size="333px" font-weight="400"><tspan class="TextPosition" x="11128" y="1789"><tspan fill="rgb(0,0,0)" stroke="none">50%</tspan></tspan></tspan></text>
 <text class="SVGTextShape"><tspan class="TextParagraph" font-family="Liberation Sans, sans-serif" font-size="333px" font-weight="400"><tspan class="TextPosition" x="9697" y="1789"><tspan fill="rgb(0,0,0)" stroke="none">100%</tspan></tspan></tspan></text>
 <text class="SVGTextShape"><tspan class="TextParagraph" font-family="Liberation Sans, sans-serif" font-size="333px" font-weight="400"><tspan class="TextPosition" x="8359" y="1789"><tspan fill="rgb(0,0,0)" stroke="none">150%</tspan></tspan></tspan></text>
 <text class="SVGTextShape"><tspan class="TextParagraph" font-family="Liberation Sans, sans-serif" font-size="333px" font-weight="400"><tspan class="TextPosition" x="7021" y="1789"><tspan fill="rgb(0,0,0)" stroke="none">200%</tspan></tspan></tspan></text>
 <text class="SVGTextShape"><tspan class="TextParagraph" font-family="Liberation Sans, sans-serif" font-size="333px" font-weight="400"><tspan class="TextPosition" x="5683" y="1789"><tspan fill="rgb(0,0,0)" stroke="none">250%</tspan></tspan></tspan></text>
 <text class="SVGTextShape"><tspan class="TextParagraph" font-family="Liberation Sans, sans-serif" font-size="333px" font-weight="400"><tspan class="TextPosition" x="4345" y="1789"><tspan fill="rgb(0,0,0)" stroke="none">300%</tspan></tspan></tspan></text>
 <path fill="rgb(19,148,72)" stroke="none" d="M 2616,1337 L 2511,1337 2511,1138 2722,1138 2722,1337 2616,1337 Z"/>
 <path fill="rgb(12,50,44)" stroke="none" d="M 431,1337 L 326,1337 326,1138 537,1138 537,1337 431,1337 Z"/>
 <path fill="rgb(255,211,32)" stroke="none" d="M 2616,867 L 2511,867 2511,668 2722,668 2722,867 2616,867 Z"/>
 <path fill="rgb(0,138,207)" stroke="none" d="M 431,867 L 326,867 326,668 537,668 537,867 431,867 Z"/>
 <text class="SVGTextShape"><tspan class="TextParagraph" font-family="Liberation Sans, sans-serif" font-size="333px" font-weight="400"><tspan class="TextPosition" x="637" y="880"><tspan fill="rgb(0,0,0)" stroke="none">LTO+PGO</tspan></tspan></tspan></text>
 <text class="SVGTextShape"><tspan class="TextParagraph" font-family="Liberation Sans, sans-serif" font-size="333px" font-weight="400"><tspan class="TextPosition" x="2822" y="880"><tspan fill="rgb(0,0,0)" stroke="none">PGO</tspan></tspan></tspan></text>
 <text class="SVGTextShape"><tspan class="TextParagraph" font-family="Liberation Sans, sans-serif" font-size="333px" font-weight="400"><tspan class="TextPosition" x="637" y="1350"><tspan fill="rgb(0,0,0)" stroke="none">LTO</tspan></tspan></tspan></text>
 <text class="SVGTextShape"><tspan class="TextParagraph" font-family="Liberation Sans, sans-serif" font-size="333px" font-weight="400"><tspan class="TextPosition" x="2822" y="1350"><tspan fill="rgb(0,0,0)" stroke="none">Normal</tspan></tspan></tspan></text>
</svg>