<?xml version="1.0" encoding="UTF-8"?>
<!DOCTYPE svg PUBLIC "-//W3C//DTD SVG 1.1//EN" "http://www.w3.org/Graphics/SVG/1.1/DTD/svg11.dtd">
<svg width="160mm" height="19mm" viewBox="0 0 16000 1900" version="1.1" xmlns="http://www.w3.org/2000/svg" xmlns:xlink="http://www.w3.org/1999/xlink" stroke-width="28.222" stroke-linejoin="round" xml:space="preserve">
 <path fill="rgb(255,255,255)" stroke="none" d="M 7987,1887 L -13,1887 -13,94 15987,94 15987,1887 7987,1887 Z"/>
 <path fill="none" stroke="rgb(179,179,179)" stroke-linejoin="round" d="M 7059,1241 L 3177,1241 3177,130 10940,130 10940,1241 7059,1241 Z"/>
 <path fill="none" stroke="rgb(179,179,179)" stroke-linejoin="round" d="M 3177,129 L 3177,1240"/>
 <path fill="none" stroke="rgb(179,179,179)" stroke-linejoin="round" d="M 4286,129 L 4286,1240"/>
 <path fill="none" stroke="rgb(179,179,179)" stroke-linejoin="round" d="M 5395,129 L 5395,1240"/>
 <path fill="none" stroke="rgb(179,179,179)" stroke-linejoin="round" d="M 6504,129 L 6504,1240"/>
 <path fill="none" stroke="rgb(179,179,179)" stroke-linejoin="round" d="M 7613,129 L 7613,1240"/>
 <path fill="none" stroke="rgb(179,179,179)" stroke-linejoin="round" d="M 8721,129 L 8721,1240"/>
 <path fill="none" stroke="rgb(179,179,179)" stroke-linejoin="round" d="M 9830,129 L 9830,1240"/>
 <path fill="none" stroke="rgb(179,179,179)" stroke-linejoin="round" d="M 10940,129 L 10940,1240"/>
 <path fill="none" stroke="rgb(179,179,179)" stroke-linejoin="round" d="M 3027,129 L 3177,129"/>
 <path fill="none" stroke="rgb(179,179,179)" stroke-linejoin="round" d="M 3027,129 L 3177,129"/>
 <path fill="none" stroke="rgb(179,179,179)" stroke-linejoin="round" d="M 3027,1240 L 3177,1240"/>
 <path fill="none" stroke="rgb(179,179,179)" stroke-linejoin="round" d="M 3027,1240 L 3177,1240"/>
 <path fill="none" stroke="rgb(179,179,179)" stroke-linejoin="round" d="M 3177,1240 L 3177,129"/>
 <path fill="none" stroke="rgb(179,179,179)" stroke-linejoin="round" d="M 3177,1381 L 3177,1240"/>
 <path fill="none" stroke="rgb(179,179,179)" stroke-linejoin="round" d="M 3177,-13 L 3177,129"/>
 <path fill="none" stroke="rgb(179,179,179)" stroke-linejoin="round" d="M 4286,1381 L 4286,1240"/>
 <path fill="none" stroke="rgb(179,179,179)" stroke-linejoin="round" d="M 4286,-13 L 4286,129"/>
 <path fill="none" stroke="rgb(179,179,179)" stroke-linejoin="round" d="M 5395,1381 L 5395,1240"/>
 <path fill="none" stroke="rgb(179,179,179)" stroke-linejoin="round" d="M 5395,-13 L 5395,129"/>
 <path fill="none" stroke="rgb(179,179,179)" stroke-linejoin="round" d="M 6504,1381 L 6504,1240"/>
 <path fill="none" stroke="rgb(179,179,179)" stroke-linejoin="round" d="M 6504,-13 L 6504,129"/>
 <path fill="none" stroke="rgb(179,179,179)" stroke-linejoin="round" d="M 7613,1381 L 7613,1240"/>
 <path fill="none" stroke="rgb(179,179,179)" stroke-linejoin="round" d="M 7613,-13 L 7613,129"/>
 <path fill="none" stroke="rgb(179,179,179)" stroke-linejoin="round" d="M 8721,1381 L 8721,1240"/>
 <path fill="none" stroke="rgb(179,179,179)" stroke-linejoin="round" d="M 8721,-13 L 8721,129"/>
 <path fill="none" stroke="rgb(179,179,179)" stroke-linejoin="round" d="M 9830,1381 L 9830,1240"/>
 <path fill="none" stroke="rgb(179,179,179)" stroke-linejoin="round" d="M 9830,-13 L 9830,129"/>
 <path fill="none" stroke="rgb(179,179,179)" stroke-linejoin="round" d="M 10940,1381 L 10940,1240"/>
 <path fill="none" stroke="rgb(179,179,179)" stroke-linejoin="round" d="M 10940,-13 L 10940,129"/>
 <path fill="none" stroke="rgb(179,179,179)" stroke-linejoin="round" d="M 3177,129 L 10940,129"/>
 <path fill="rgb(220,53,69)" stroke="none" d="M 3177,239 L 3177,462 5395,462 5395,239 3177,239 Z"/>
 <path fill="rgb(255,158,2)" stroke="none" d="M 3177,462 L 3177,684 5503,684 5503,462 3177,462 Z"/>
 <path fill="rgb(12,50,44)" stroke="none" d="M 3177,684 L 3177,906 10425,906 10425,684 3177,684 Z"/>
 <path fill="rgb(19,148,72)" stroke="none" d="M 3177,906 L 3177,1129 10286,1129 10286,906 3177,906 Z"/>
 <text class="SVGTextShape"><tspan class="TextParagraph" font-family="Liberation Sans, sans-serif" font-size="353px" font-weight="400"><tspan class="TextPosition" x="308" y="798"><tspan font-size="333px" fill="rgb(0,0,0)" stroke="none" style="white-space: pre">548.exchange2_r</tspan></tspan></tspan></text>
 <text class="SVGTextShape"><tspan class="TextParagraph" font-family="Liberation Sans, sans-serif" font-size="353px" font-weight="400"><tspan class="TextPosition" x="2925" y="1776"><tspan font-size="333px" fill="rgb(0,0,0)" stroke="none" style="white-space: pre">0%</tspan></tspan></tspan></text>
 <text class="SVGTextShape"><tspan class="TextParagraph" font-family="Liberation Sans, sans-serif" font-size="353px" font-weight="400"><tspan class="TextPosition" x="3942" y="1776"><tspan font-size="333px" fill="rgb(0,0,0)" stroke="none" style="white-space: pre">50%</tspan></tspan></tspan></text>
 <text class="SVGTextShape"><tspan class="TextParagraph" font-family="Liberation Sans, sans-serif" font-size="353px" font-weight="400"><tspan class="TextPosition" x="4958" y="1776"><tspan font-size="333px" fill="rgb(0,0,0)" stroke="none" style="white-space: pre">100%</tspan></tspan></tspan></text>
 <text class="SVGTextShape"><tspan class="TextParagraph" font-family="Liberation Sans, sans-serif" font-size="353px" font-weight="400"><tspan class="TextPosition" x="6067" y="1776"><tspan font-size="333px" fill="rgb(0,0,0)" stroke="none" style="white-space: pre">150%</tspan></tspan></tspan></text>
 <text class="SVGTextShape"><tspan class="TextParagraph" font-family="Liberation Sans, sans-serif" font-size="353px" font-weight="400"><tspan class="TextPosition" x="7176" y="1776"><tspan font-size="333px" fill="rgb(0,0,0)" stroke="none" style="white-space: pre">200%</tspan></tspan></tspan></text>
 <text class="SVGTextShape"><tspan class="TextParagraph" font-family="Liberation Sans, sans-serif" font-size="353px" font-weight="400"><tspan class="TextPosition" x="8284" y="1776"><tspan font-size="333px" fill="rgb(0,0,0)" stroke="none" style="white-space: pre">250%</tspan></tspan></tspan></text>
 <text class="SVGTextShape"><tspan class="TextParagraph" font-family="Liberation Sans, sans-serif" font-size="353px" font-weight="400"><tspan class="TextPosition" x="9393" y="1776"><tspan font-size="333px" fill="rgb(0,0,0)" stroke="none" style="white-space: pre">300%</tspan></tspan></tspan></text>
 <text class="SVGTextShape"><tspan class="TextParagraph" font-family="Liberation Sans, sans-serif" font-size="353px" font-weight="400"><tspan class="TextPosition" x="10503" y="1776"><tspan font-size="333px" fill="rgb(0,0,0)" stroke="none" style="white-space: pre">350%</tspan></tspan></tspan></text>
 <path fill="rgb(220,53,69)" stroke="none" d="M 14449,1324 L 14343,1324 14343,1125 14554,1125 14554,1324 14449,1324 Z"/>
 <path fill="rgb(255,158,2)" stroke="none" d="M 11920,1324 L 11814,1324 11814,1125 12025,1125 12025,1324 11920,1324 Z"/>
 <path fill="rgb(12,50,44)" stroke="none" d="M 14449,854 L 14343,854 14343,655 14554,655 14554,854 14449,854 Z"/>
 <path fill="rgb(19,148,72)" stroke="none" d="M 11920,854 L 11814,854 11814,655 12025,655 12025,854 11920,854 Z"/>
 <text class="SVGTextShape"><tspan class="TextParagraph" font-family="Liberation Sans, sans-serif" font-size="353px" font-weight="400"><tspan class="TextPosition" x="12125" y="868"><tspan font-size="333px" fill="rgb(0,0,0)" stroke="none" style="white-space: pre">GCC (LTO)</tspan></tspan></tspan></text>
 <text class="SVGTextShape"><tspan class="TextParagraph" font-family="Liberation Sans, sans-serif" font-size="353px" font-weight="400"><tspan class="TextPosition" x="14654" y="868"><tspan font-size="333px" fill="rgb(0,0,0)" stroke="none" style="white-space: pre">GCC</tspan></tspan></tspan></text>
 <text class="SVGTextShape"><tspan class="TextParagraph" font-family="Liberation Sans, sans-serif" font-size="353px" font-weight="400"><tspan class="TextPosition" x="12125" y="1337"><tspan font-size="333px" fill="rgb(0,0,0)" stroke="none" style="white-space: pre">LLVM  (LTO)</tspan></tspan></tspan></text>
 <text class="SVGTextShape"><tspan class="TextParagraph" font-family="Liberation Sans, sans-serif" font-size="353px" font-weight="400"><tspan class="TextPosition" x="14654" y="1337"><tspan font-size="333px" fill="rgb(0,0,0)" stroke="none" style="white-space: pre">LLVM </tspan></tspan></tspan></text>
</svg>