<?xml version="1.0" encoding="UTF-8"?>
<!DOCTYPE svg PUBLIC "-//W3C//DTD SVG 1.1//EN" "http://www.w3.org/Graphics/SVG/1.1/DTD/svg11.dtd">
<svg width="160mm" height="70mm" viewBox="0 0 16000 7000" version="1.1" xmlns="http://www.w3.org/2000/svg" xmlns:xlink="http://www.w3.org/1999/xlink" stroke-width="28.222" stroke-linejoin="round" xml:space="preserve">
 <path fill="rgb(255,255,255)" stroke="none" d="M 7987,6987 L -13,6987 -13,-13 15987,-13 15987,6987 7987,6987 Z"/>
 <path fill="none" stroke="rgb(179,179,179)" stroke-linejoin="round" d="M 7358,6649 L 1438,6649 1438,326 13278,326 13278,6649 7358,6649 Z"/>
 <path fill="none" stroke="rgb(179,179,179)" stroke-linejoin="round" d="M 13278,6648 L 1438,6648"/>
 <path fill="none" stroke="rgb(179,179,179)" stroke-linejoin="round" d="M 13278,5383 L 1438,5383"/>
 <path fill="none" stroke="rgb(179,179,179)" stroke-linejoin="round" d="M 13278,4118 L 1438,4118"/>
 <path fill="none" stroke="rgb(179,179,179)" stroke-linejoin="round" d="M 13278,2854 L 1438,2854"/>
 <path fill="none" stroke="rgb(179,179,179)" stroke-linejoin="round" d="M 13278,1589 L 1438,1589"/>
 <path fill="none" stroke="rgb(179,179,179)" stroke-linejoin="round" d="M 13278,325 L 1438,325"/>
 <path fill="none" stroke="rgb(179,179,179)" stroke-linejoin="round" d="M 1438,6798 L 1438,6648"/>
 <path fill="none" stroke="rgb(179,179,179)" stroke-linejoin="round" d="M 1438,6798 L 1438,6648"/>
 <path fill="none" stroke="rgb(179,179,179)" stroke-linejoin="round" d="M 13278,6798 L 13278,6648"/>
 <path fill="none" stroke="rgb(179,179,179)" stroke-linejoin="round" d="M 13278,6798 L 13278,6648"/>
 <path fill="none" stroke="rgb(179,179,179)" stroke-linejoin="round" d="M 1438,6648 L 13278,6648"/>
 <path fill="none" stroke="rgb(179,179,179)" stroke-linejoin="round" d="M 1288,6648 L 1438,6648"/>
 <path fill="none" stroke="rgb(179,179,179)" stroke-linejoin="round" d="M 1288,6648 L 1438,6648"/>
 <path fill="none" stroke="rgb(179,179,179)" stroke-linejoin="round" d="M 1288,5383 L 1438,5383"/>
 <path fill="none" stroke="rgb(179,179,179)" stroke-linejoin="round" d="M 1288,5383 L 1438,5383"/>
 <path fill="none" stroke="rgb(179,179,179)" stroke-linejoin="round" d="M 1288,4118 L 1438,4118"/>
 <path fill="none" stroke="rgb(179,179,179)" stroke-linejoin="round" d="M 1288,4118 L 1438,4118"/>
 <path fill="none" stroke="rgb(179,179,179)" stroke-linejoin="round" d="M 1288,2854 L 1438,2854"/>
 <path fill="none" stroke="rgb(179,179,179)" stroke-linejoin="round" d="M 1288,2854 L 1438,2854"/>
 <path fill="none" stroke="rgb(179,179,179)" stroke-linejoin="round" d="M 1288,1589 L 1438,1589"/>
 <path fill="none" stroke="rgb(179,179,179)" stroke-linejoin="round" d="M 1288,1589 L 1438,1589"/>
 <path fill="none" stroke="rgb(179,179,179)" stroke-linejoin="round" d="M 1288,325 L 1438,325"/>
 <path fill="none" stroke="rgb(179,179,179)" stroke-linejoin="round" d="M 1288,325 L 1438,325"/>
 <path fill="none" stroke="rgb(179,179,179)" stroke-linejoin="round" d="M 1438,6648 L 1438,325"/>
 <path fill="rgb(12,50,44)" stroke="none" d="M 2622,6648 L 4990,6648 4990,4118 2622,4118 2622,6648 Z"/>
 <path fill="rgb(19,148,72)" stroke="none" d="M 4990,6648 L 7358,6648 7358,3519 4990,3519 4990,6648 Z"/>
 <path fill="rgb(255,193,8)" stroke="none" d="M 7358,6648 L 9725,6648 9725,2906 7358,2906 7358,6648 Z"/>
 <path fill="rgb(0,138,207)" stroke="none" d="M 9725,6648 L 12093,6648 12093,2032 9725,2032 9725,6648 Z"/>
 <text class="SVGTextShape"><tspan class="TextParagraph"><tspan class="TextPosition" x="500" y="6769"><tspan font-family="Liberation Sans, sans-serif" font-size="353px" font-weight="400" fill="rgb(0,0,0)" stroke="none" style="white-space: pre">80%</tspan></tspan></tspan></text>
 <text class="SVGTextShape"><tspan class="TextParagraph"><tspan class="TextPosition" x="500" y="5504"><tspan font-family="Liberation Sans, sans-serif" font-size="353px" font-weight="400" fill="rgb(0,0,0)" stroke="none" style="white-space: pre">90%</tspan></tspan></tspan></text>
 <text class="SVGTextShape"><tspan class="TextParagraph"><tspan class="TextPosition" x="308" y="4239"><tspan font-family="Liberation Sans, sans-serif" font-size="353px" font-weight="400" fill="rgb(0,0,0)" stroke="none" style="white-space: pre">100%</tspan></tspan></tspan></text>
 <text class="SVGTextShape"><tspan class="TextParagraph"><tspan class="TextPosition" x="308" y="2975"><tspan font-family="Liberation Sans, sans-serif" font-size="353px" font-weight="400" fill="rgb(0,0,0)" stroke="none" style="white-space: pre">110%</tspan></tspan></tspan></text>
 <text class="SVGTextShape"><tspan class="TextParagraph"><tspan class="TextPosition" x="308" y="1710"><tspan font-family="Liberation Sans, sans-serif" font-size="353px" font-weight="400" fill="rgb(0,0,0)" stroke="none" style="white-space: pre">120%</tspan></tspan></tspan></text>
 <text class="SVGTextShape"><tspan class="TextParagraph"><tspan class="TextPosition" x="308" y="446"><tspan font-family="Liberation Sans, sans-serif" font-size="353px" font-weight="400" fill="rgb(0,0,0)" stroke="none" style="white-space: pre">130%</tspan></tspan></tspan></text>
 <path fill="rgb(12,50,44)" stroke="none" d="M 13820,2845 L 13714,2845 13714,2634 13925,2634 13925,2845 13820,2845 Z"/>
 <path fill="rgb(19,148,72)" stroke="none" d="M 13820,3343 L 13714,3343 13714,3132 13925,3132 13925,3343 13820,3343 Z"/>
 <path fill="rgb(255,193,8)" stroke="none" d="M 13820,3840 L 13714,3840 13714,3629 13925,3629 13925,3840 13820,3840 Z"/>
 <path fill="rgb(0,138,207)" stroke="none" d="M 13820,4338 L 13714,4338 13714,4127 13925,4127 13925,4338 13820,4338 Z"/>
 <text class="SVGTextShape"><tspan class="TextParagraph"><tspan class="TextPosition" x="14025" y="2859"><tspan font-family="Liberation Sans, sans-serif" font-size="353px" font-weight="400" fill="rgb(0,0,0)" stroke="none" style="white-space: pre">Standard</tspan></tspan></tspan></text>
 <text class="SVGTextShape"><tspan class="TextParagraph"><tspan class="TextPosition" x="14025" y="3357"><tspan font-family="Liberation Sans, sans-serif" font-size="353px" font-weight="400" fill="rgb(0,0,0)" stroke="none" style="white-space: pre">LTO</tspan></tspan></tspan></text>
 <text class="SVGTextShape"><tspan class="TextParagraph"><tspan class="TextPosition" x="14025" y="3854"><tspan font-family="Liberation Sans, sans-serif" font-size="353px" font-weight="400" fill="rgb(0,0,0)" stroke="none" style="white-space: pre">PGO</tspan></tspan></tspan></text>
 <text class="SVGTextShape"><tspan class="TextParagraph"><tspan class="TextPosition" x="14025" y="4352"><tspan font-family="Liberation Sans, sans-serif" font-size="353px" font-weight="400" fill="rgb(0,0,0)" stroke="none" style="white-space: pre">LTO+PGO</tspan></tspan></tspan></text>
</svg>