<?xml version="1.0" encoding="UTF-8"?>
<!DOCTYPE svg PUBLIC "-//W3C//DTD SVG 1.1//EN" "http://www.w3.org/Graphics/SVG/1.1/DTD/svg11.dtd">
<svg width="160mm" height="107mm" viewBox="0 0 16000 10700" version="1.1" xmlns="http://www.w3.org/2000/svg" xmlns:xlink="http://www.w3.org/1999/xlink" stroke-width="28.222" stroke-linejoin="round" xml:space="preserve">
 <path fill="rgb(255,255,255)" stroke="none" d="M 7987,10687 L -13,10687 -13,-13 15987,-13 15987,10687 7987,10687 Z"/>
 <path fill="none" stroke="rgb(179,179,179)" stroke-linejoin="round" d="M 7830,9826 L 3177,9826 3177,201 12482,201 12482,9826 7830,9826 Z"/>
 <path fill="none" stroke="rgb(179,179,179)" stroke-linejoin="round" d="M 3177,199 L 3177,9825"/>
 <path fill="none" stroke="rgb(179,179,179)" stroke-linejoin="round" d="M 4340,199 L 4340,9825"/>
 <path fill="none" stroke="rgb(179,179,179)" stroke-linejoin="round" d="M 5503,199 L 5503,9825"/>
 <path fill="none" stroke="rgb(179,179,179)" stroke-linejoin="round" d="M 6666,199 L 6666,9825"/>
 <path fill="none" stroke="rgb(179,179,179)" stroke-linejoin="round" d="M 7830,199 L 7830,9825"/>
 <path fill="none" stroke="rgb(179,179,179)" stroke-linejoin="round" d="M 8992,199 L 8992,9825"/>
 <path fill="none" stroke="rgb(179,179,179)" stroke-linejoin="round" d="M 10155,199 L 10155,9825"/>
 <path fill="none" stroke="rgb(179,179,179)" stroke-linejoin="round" d="M 11318,199 L 11318,9825"/>
 <path fill="none" stroke="rgb(179,179,179)" stroke-linejoin="round" d="M 12482,199 L 12482,9825"/>
 <path fill="none" stroke="rgb(179,179,179)" stroke-linejoin="round" d="M 3027,200 L 3177,200"/>
 <path fill="none" stroke="rgb(179,179,179)" stroke-linejoin="round" d="M 3027,200 L 3177,200"/>
 <path fill="none" stroke="rgb(179,179,179)" stroke-linejoin="round" d="M 3027,1269 L 3177,1269"/>
 <path fill="none" stroke="rgb(179,179,179)" stroke-linejoin="round" d="M 3027,1269 L 3177,1269"/>
 <path fill="none" stroke="rgb(179,179,179)" stroke-linejoin="round" d="M 3027,2339 L 3177,2339"/>
 <path fill="none" stroke="rgb(179,179,179)" stroke-linejoin="round" d="M 3027,2339 L 3177,2339"/>
 <path fill="none" stroke="rgb(179,179,179)" stroke-linejoin="round" d="M 3027,3408 L 3177,3408"/>
 <path fill="none" stroke="rgb(179,179,179)" stroke-linejoin="round" d="M 3027,3408 L 3177,3408"/>
 <path fill="none" stroke="rgb(179,179,179)" stroke-linejoin="round" d="M 3027,4478 L 3177,4478"/>
 <path fill="none" stroke="rgb(179,179,179)" stroke-linejoin="round" d="M 3027,4478 L 3177,4478"/>
 <path fill="none" stroke="rgb(179,179,179)" stroke-linejoin="round" d="M 3027,5546 L 3177,5546"/>
 <path fill="none" stroke="rgb(179,179,179)" stroke-linejoin="round" d="M 3027,5546 L 3177,5546"/>
 <path fill="none" stroke="rgb(179,179,179)" stroke-linejoin="round" d="M 3027,6616 L 3177,6616"/>
 <path fill="none" stroke="rgb(179,179,179)" stroke-linejoin="round" d="M 3027,6616 L 3177,6616"/>
 <path fill="none" stroke="rgb(179,179,179)" stroke-linejoin="round" d="M 3027,7685 L 3177,7685"/>
 <path fill="none" stroke="rgb(179,179,179)" stroke-linejoin="round" d="M 3027,7685 L 3177,7685"/>
 <path fill="none" stroke="rgb(179,179,179)" stroke-linejoin="round" d="M 3027,8755 L 3177,8755"/>
 <path fill="none" stroke="rgb(179,179,179)" stroke-linejoin="round" d="M 3027,8755 L 3177,8755"/>
 <path fill="none" stroke="rgb(179,179,179)" stroke-linejoin="round" d="M 3027,9825 L 3177,9825"/>
 <path fill="none" stroke="rgb(179,179,179)" stroke-linejoin="round" d="M 3027,9825 L 3177,9825"/>
 <path fill="none" stroke="rgb(179,179,179)" stroke-linejoin="round" d="M 3177,9825 L 3177,199"/>
 <path fill="none" stroke="rgb(179,179,179)" stroke-linejoin="round" d="M 3177,9975 L 3177,9825"/>
 <path fill="none" stroke="rgb(179,179,179)" stroke-linejoin="round" d="M 3177,49 L 3177,199"/>
 <path fill="none" stroke="rgb(179,179,179)" stroke-linejoin="round" d="M 4340,9975 L 4340,9825"/>
 <path fill="none" stroke="rgb(179,179,179)" stroke-linejoin="round" d="M 4340,49 L 4340,199"/>
 <path fill="none" stroke="rgb(179,179,179)" stroke-linejoin="round" d="M 5503,9975 L 5503,9825"/>
 <path fill="none" stroke="rgb(179,179,179)" stroke-linejoin="round" d="M 5503,49 L 5503,199"/>
 <path fill="none" stroke="rgb(179,179,179)" stroke-linejoin="round" d="M 6666,9975 L 6666,9825"/>
 <path fill="none" stroke="rgb(179,179,179)" stroke-linejoin="round" d="M 6666,49 L 6666,199"/>
 <path fill="none" stroke="rgb(179,179,179)" stroke-linejoin="round" d="M 7830,9975 L 7830,9825"/>
 <path fill="none" stroke="rgb(179,179,179)" stroke-linejoin="round" d="M 7830,49 L 7830,199"/>
 <path fill="none" stroke="rgb(179,179,179)" stroke-linejoin="round" d="M 8992,9975 L 8992,9825"/>
 <path fill="none" stroke="rgb(179,179,179)" stroke-linejoin="round" d="M 8992,49 L 8992,199"/>
 <path fill="none" stroke="rgb(179,179,179)" stroke-linejoin="round" d="M 10155,9975 L 10155,9825"/>
 <path fill="none" stroke="rgb(179,179,179)" stroke-linejoin="round" d="M 10155,49 L 10155,199"/>
 <path fill="none" stroke="rgb(179,179,179)" stroke-linejoin="round" d="M 11318,9975 L 11318,9825"/>
 <path fill="none" stroke="rgb(179,179,179)" stroke-linejoin="round" d="M 11318,49 L 11318,199"/>
 <path fill="none" stroke="rgb(179,179,179)" stroke-linejoin="round" d="M 12482,9975 L 12482,9825"/>
 <path fill="none" stroke="rgb(179,179,179)" stroke-linejoin="round" d="M 12482,49 L 12482,199"/>
 <path fill="none" stroke="rgb(179,179,179)" stroke-linejoin="round" d="M 3177,199 L 12482,199"/>
 <path fill="rgb(220,53,69)" stroke="none" d="M 3177,306 L 3177,520 8992,520 8992,306 3177,306 Z"/>
 <path fill="rgb(220,53,69)" stroke="none" d="M 3177,1376 L 3177,1590 8992,1590 8992,1376 3177,1376 Z"/>
 <path fill="rgb(220,53,69)" stroke="none" d="M 3177,2446 L 3177,2659 8992,2659 8992,2446 3177,2446 Z"/>
 <path fill="rgb(220,53,69)" stroke="none" d="M 3177,3515 L 3177,3729 8992,3729 8992,3515 3177,3515 Z"/>
 <path fill="rgb(220,53,69)" stroke="none" d="M 3177,4585 L 3177,4799 8992,4799 8992,4585 3177,4585 Z"/>
 <path fill="rgb(220,53,69)" stroke="none" d="M 3177,5653 L 3177,5867 8992,5867 8992,5653 3177,5653 Z"/>
 <path fill="rgb(220,53,69)" stroke="none" d="M 3177,6723 L 3177,6937 8992,6937 8992,6723 3177,6723 Z"/>
 <path fill="rgb(220,53,69)" stroke="none" d="M 3177,7792 L 3177,8006 8992,8006 8992,7792 3177,7792 Z"/>
 <path fill="rgb(220,53,69)" stroke="none" d="M 3177,8862 L 3177,9076 8992,9076 8992,8862 3177,8862 Z"/>
 <path fill="rgb(255,158,2)" stroke="none" d="M 3177,520 L 3177,734 9247,734 9247,520 3177,520 Z"/>
 <path fill="rgb(255,158,2)" stroke="none" d="M 3177,1590 L 3177,1804 9287,1804 9287,1590 3177,1590 Z"/>
 <path fill="rgb(255,158,2)" stroke="none" d="M 3177,2659 L 3177,2873 10404,2873 10404,2659 3177,2659 Z"/>
 <path fill="rgb(255,158,2)" stroke="none" d="M 3177,3729 L 3177,3943 9081,3943 9081,3729 3177,3729 Z"/>
 <path fill="rgb(255,158,2)" stroke="none" d="M 3177,4799 L 3177,5012 9131,5012 9131,4799 3177,4799 Z"/>
 <path fill="rgb(255,158,2)" stroke="none" d="M 3177,5867 L 3177,6081 9017,6081 9017,5867 3177,5867 Z"/>
 <path fill="rgb(255,158,2)" stroke="none" d="M 3177,6937 L 3177,7151 10475,7151 10475,6937 3177,6937 Z"/>
 <path fill="rgb(255,158,2)" stroke="none" d="M 3177,8006 L 3177,8220 9584,8220 9584,8006 3177,8006 Z"/>
 <path fill="rgb(255,158,2)" stroke="none" d="M 3177,9076 L 3177,9290 9123,9290 9123,9076 3177,9076 Z"/>
 <path fill="rgb(12,50,44)" stroke="none" d="M 3177,734 L 3177,948 9594,948 9594,734 3177,734 Z"/>
 <path fill="rgb(12,50,44)" stroke="none" d="M 3177,1804 L 3177,2018 9139,2018 9139,1804 3177,1804 Z"/>
 <path fill="rgb(12,50,44)" stroke="none" d="M 3177,2873 L 3177,3087 10023,3087 10023,2873 3177,2873 Z"/>
 <path fill="rgb(12,50,44)" stroke="none" d="M 3177,3943 L 3177,4157 9108,4157 9108,3943 3177,3943 Z"/>
 <path fill="rgb(12,50,44)" stroke="none" d="M 3177,5013 L 3177,5226 8984,5226 8984,5013 3177,5013 Z"/>
 <path fill="rgb(12,50,44)" stroke="none" d="M 3177,6081 L 3177,6295 7511,6295 7511,6081 3177,6081 Z"/>
 <path fill="rgb(12,50,44)" stroke="none" d="M 3177,7151 L 3177,7365 9433,7365 9433,7151 3177,7151 Z"/>
 <path fill="rgb(12,50,44)" stroke="none" d="M 3177,8220 L 3177,8434 8721,8434 8721,8220 3177,8220 Z"/>
 <path fill="rgb(12,50,44)" stroke="none" d="M 3177,9290 L 3177,9504 9040,9504 9040,9290 3177,9290 Z"/>
 <path fill="rgb(19,148,72)" stroke="none" d="M 3177,948 L 3177,1162 9718,1162 9718,948 3177,948 Z"/>
 <path fill="rgb(19,148,72)" stroke="none" d="M 3177,2018 L 3177,2232 9331,2232 9331,2018 3177,2018 Z"/>
 <path fill="rgb(19,148,72)" stroke="none" d="M 3177,3087 L 3177,3301 11361,3301 11361,3087 3177,3087 Z"/>
 <path fill="rgb(19,148,72)" stroke="none" d="M 3177,4157 L 3177,4371 9243,4371 9243,4157 3177,4157 Z"/>
 <path fill="rgb(19,148,72)" stroke="none" d="M 3177,5226 L 3177,5439 9154,5439 9154,5226 3177,5226 Z"/>
 <path fill="rgb(19,148,72)" stroke="none" d="M 3177,6295 L 3177,6509 7551,6509 7551,6295 3177,6295 Z"/>
 <path fill="rgb(19,148,72)" stroke="none" d="M 3177,7365 L 3177,7578 10766,7578 10766,7365 3177,7365 Z"/>
 <path fill="rgb(19,148,72)" stroke="none" d="M 3177,8434 L 3177,8648 9303,8648 9303,8434 3177,8434 Z"/>
 <path fill="rgb(19,148,72)" stroke="none" d="M 3177,9504 L 3177,9718 9052,9718 9052,9504 3177,9504 Z"/>
 <text class="SVGTextShape"><tspan class="TextParagraph"><tspan class="TextPosition" x="441" y="855"><tspan font-family="Liberation Sans, sans-serif" font-size="353px" font-weight="400" fill="rgb(0,0,0)" stroke="none" style="white-space: pre">500.perlbench_r</tspan></tspan></tspan></text>
 <text class="SVGTextShape"><tspan class="TextParagraph"><tspan class="TextPosition" x="1416" y="1925"><tspan font-family="Liberation Sans, sans-serif" font-size="353px" font-weight="400" fill="rgb(0,0,0)" stroke="none" style="white-space: pre">502.gcc_r</tspan></tspan></tspan></text>
 <text class="SVGTextShape"><tspan class="TextParagraph"><tspan class="TextPosition" x="1398" y="2994"><tspan font-family="Liberation Sans, sans-serif" font-size="353px" font-weight="400" fill="rgb(0,0,0)" stroke="none" style="white-space: pre">505.mcf_r</tspan></tspan></tspan></text>
 <text class="SVGTextShape"><tspan class="TextParagraph"><tspan class="TextPosition" x="613" y="4064"><tspan font-family="Liberation Sans, sans-serif" font-size="353px" font-weight="400" fill="rgb(0,0,0)" stroke="none" style="white-space: pre">520.omnetpp_r</tspan></tspan></tspan></text>
 <text class="SVGTextShape"><tspan class="TextParagraph"><tspan class="TextPosition" x="308" y="5134"><tspan font-family="Liberation Sans, sans-serif" font-size="353px" font-weight="400" fill="rgb(0,0,0)" stroke="none" style="white-space: pre">523.xalancbmk_r</tspan></tspan></tspan></text>
 <text class="SVGTextShape"><tspan class="TextParagraph"><tspan class="TextPosition" x="1206" y="6202"><tspan font-family="Liberation Sans, sans-serif" font-size="353px" font-weight="400" fill="rgb(0,0,0)" stroke="none" style="white-space: pre">525.x264_r</tspan></tspan></tspan></text>
 <text class="SVGTextShape"><tspan class="TextParagraph"><tspan class="TextPosition" x="364" y="7272"><tspan font-family="Liberation Sans, sans-serif" font-size="353px" font-weight="400" fill="rgb(0,0,0)" stroke="none" style="white-space: pre">531.deepsjeng_r</tspan></tspan></tspan></text>
 <text class="SVGTextShape"><tspan class="TextParagraph"><tspan class="TextPosition" x="1225" y="8341"><tspan font-family="Liberation Sans, sans-serif" font-size="353px" font-weight="400" fill="rgb(0,0,0)" stroke="none" style="white-space: pre">541.leela_r</tspan></tspan></tspan></text>
 <text class="SVGTextShape"><tspan class="TextParagraph"><tspan class="TextPosition" x="1608" y="9411"><tspan font-family="Liberation Sans, sans-serif" font-size="353px" font-weight="400" fill="rgb(0,0,0)" stroke="none" style="white-space: pre">557.xz_r</tspan></tspan></tspan></text>
 <text class="SVGTextShape"><tspan class="TextParagraph"><tspan class="TextPosition" x="2929" y="10393"><tspan font-family="Liberation Sans, sans-serif" font-size="353px" font-weight="400" fill="rgb(0,0,0)" stroke="none" style="white-space: pre">0%</tspan></tspan></tspan></text>
 <text class="SVGTextShape"><tspan class="TextParagraph"><tspan class="TextPosition" x="3997" y="10393"><tspan font-family="Liberation Sans, sans-serif" font-size="353px" font-weight="400" fill="rgb(0,0,0)" stroke="none" style="white-space: pre">20%</tspan></tspan></tspan></text>
 <text class="SVGTextShape"><tspan class="TextParagraph"><tspan class="TextPosition" x="5160" y="10393"><tspan font-family="Liberation Sans, sans-serif" font-size="353px" font-weight="400" fill="rgb(0,0,0)" stroke="none" style="white-space: pre">40%</tspan></tspan></tspan></text>
 <text class="SVGTextShape"><tspan class="TextParagraph"><tspan class="TextPosition" x="6323" y="10393"><tspan font-family="Liberation Sans, sans-serif" font-size="353px" font-weight="400" fill="rgb(0,0,0)" stroke="none" style="white-space: pre">60%</tspan></tspan></tspan></text>
 <text class="SVGTextShape"><tspan class="TextParagraph"><tspan class="TextPosition" x="7487" y="10393"><tspan font-family="Liberation Sans, sans-serif" font-size="353px" font-weight="400" fill="rgb(0,0,0)" stroke="none" style="white-space: pre">80%</tspan></tspan></tspan></text>
 <text class="SVGTextShape"><tspan class="TextParagraph"><tspan class="TextPosition" x="8553" y="10393"><tspan font-family="Liberation Sans, sans-serif" font-size="353px" font-weight="400" fill="rgb(0,0,0)" stroke="none" style="white-space: pre">100%</tspan></tspan></tspan></text>
 <text class="SVGTextShape"><tspan class="TextParagraph"><tspan class="TextPosition" x="9716" y="10393"><tspan font-family="Liberation Sans, sans-serif" font-size="353px" font-weight="400" fill="rgb(0,0,0)" stroke="none" style="white-space: pre">120%</tspan></tspan></tspan></text>
 <text class="SVGTextShape"><tspan class="TextParagraph"><tspan class="TextPosition" x="10879" y="10393"><tspan font-family="Liberation Sans, sans-serif" font-size="353px" font-weight="400" fill="rgb(0,0,0)" stroke="none" style="white-space: pre">140%</tspan></tspan></tspan></text>
 <text class="SVGTextShape"><tspan class="TextParagraph"><tspan class="TextPosition" x="12043" y="10393"><tspan font-family="Liberation Sans, sans-serif" font-size="353px" font-weight="400" fill="rgb(0,0,0)" stroke="none" style="white-space: pre">160%</tspan></tspan></tspan></text>
 <path fill="rgb(220,53,69)" stroke="none" d="M 13466,6188 L 13360,6188 13360,5977 13571,5977 13571,6188 13466,6188 Z"/>
 <path fill="rgb(255,158,2)" stroke="none" d="M 13466,5690 L 13360,5690 13360,5479 13571,5479 13571,5690 13466,5690 Z"/>
 <path fill="rgb(12,50,44)" stroke="none" d="M 13466,5193 L 13360,5193 13360,4982 13571,4982 13571,5193 13466,5193 Z"/>
 <path fill="rgb(19,148,72)" stroke="none" d="M 13466,4695 L 13360,4695 13360,4484 13571,4484 13571,4695 13466,4695 Z"/>
 <text class="SVGTextShape"><tspan class="TextParagraph"><tspan class="TextPosition" x="13671" y="4709"><tspan font-family="Liberation Sans, sans-serif" font-size="353px" font-weight="400" fill="rgb(0,0,0)" stroke="none" style="white-space: pre">GCC (LTO)</tspan></tspan></tspan></text>
 <text class="SVGTextShape"><tspan class="TextParagraph"><tspan class="TextPosition" x="13671" y="5207"><tspan font-family="Liberation Sans, sans-serif" font-size="353px" font-weight="400" fill="rgb(0,0,0)" stroke="none" style="white-space: pre">GCC</tspan></tspan></tspan></text>
 <text class="SVGTextShape"><tspan class="TextParagraph"><tspan class="TextPosition" x="13671" y="5704"><tspan font-family="Liberation Sans, sans-serif" font-size="353px" font-weight="400" fill="rgb(0,0,0)" stroke="none" style="white-space: pre">LLVM  (LTO)</tspan></tspan></tspan></text>
 <text class="SVGTextShape"><tspan class="TextParagraph"><tspan class="TextPosition" x="13671" y="6202"><tspan font-family="Liberation Sans, sans-serif" font-size="353px" font-weight="400" fill="rgb(0,0,0)" stroke="none" style="white-space: pre">LLVM </tspan></tspan></tspan></text>
</svg>