<?xml version="1.0" encoding="UTF-8"?>
<!DOCTYPE svg PUBLIC "-//W3C//DTD SVG 1.1//EN" "http://www.w3.org/Graphics/SVG/1.1/DTD/svg11.dtd">
<svg width="160mm" height="140mm" viewBox="0 0 16000 14000" version="1.1" xmlns="http://www.w3.org/2000/svg" xmlns:xlink="http://www.w3.org/1999/xlink" stroke-width="28.222" stroke-linejoin="round" xml:space="preserve">
 <path fill="rgb(255,255,255)" stroke="none" d="M 7987,13987 L -13,13987 -13,-13 15987,-13 15987,13987 7987,13987 Z"/>
 <path fill="none" stroke="rgb(179,179,179)" stroke-linejoin="round" d="M 7909,13060 L 3137,13060 3137,267 12681,267 12681,13060 7909,13060 Z"/>
 <path fill="none" stroke="rgb(179,179,179)" stroke-linejoin="round" d="M 12681,265 L 12681,13059"/>
 <path fill="none" stroke="rgb(179,179,179)" stroke-linejoin="round" d="M 11090,265 L 11090,13059"/>
 <path fill="none" stroke="rgb(179,179,179)" stroke-linejoin="round" d="M 9499,265 L 9499,13059"/>
 <path fill="none" stroke="rgb(179,179,179)" stroke-linejoin="round" d="M 7909,265 L 7909,13059"/>
 <path fill="none" stroke="rgb(179,179,179)" stroke-linejoin="round" d="M 6318,265 L 6318,13059"/>
 <path fill="none" stroke="rgb(179,179,179)" stroke-linejoin="round" d="M 4727,265 L 4727,13059"/>
 <path fill="none" stroke="rgb(179,179,179)" stroke-linejoin="round" d="M 3136,265 L 3136,13059"/>
 <path fill="none" stroke="rgb(179,179,179)" stroke-linejoin="round" d="M 12831,265 L 12681,265"/>
 <path fill="none" stroke="rgb(179,179,179)" stroke-linejoin="round" d="M 12831,265 L 12681,265"/>
 <path fill="none" stroke="rgb(179,179,179)" stroke-linejoin="round" d="M 12831,1250 L 12681,1250"/>
 <path fill="none" stroke="rgb(179,179,179)" stroke-linejoin="round" d="M 12831,1250 L 12681,1250"/>
 <path fill="none" stroke="rgb(179,179,179)" stroke-linejoin="round" d="M 12831,2234 L 12681,2234"/>
 <path fill="none" stroke="rgb(179,179,179)" stroke-linejoin="round" d="M 12831,2234 L 12681,2234"/>
 <path fill="none" stroke="rgb(179,179,179)" stroke-linejoin="round" d="M 12831,3218 L 12681,3218"/>
 <path fill="none" stroke="rgb(179,179,179)" stroke-linejoin="round" d="M 12831,3218 L 12681,3218"/>
 <path fill="none" stroke="rgb(179,179,179)" stroke-linejoin="round" d="M 12831,4202 L 12681,4202"/>
 <path fill="none" stroke="rgb(179,179,179)" stroke-linejoin="round" d="M 12831,4202 L 12681,4202"/>
 <path fill="none" stroke="rgb(179,179,179)" stroke-linejoin="round" d="M 12831,5186 L 12681,5186"/>
 <path fill="none" stroke="rgb(179,179,179)" stroke-linejoin="round" d="M 12831,5186 L 12681,5186"/>
 <path fill="none" stroke="rgb(179,179,179)" stroke-linejoin="round" d="M 12831,6170 L 12681,6170"/>
 <path fill="none" stroke="rgb(179,179,179)" stroke-linejoin="round" d="M 12831,6170 L 12681,6170"/>
 <path fill="none" stroke="rgb(179,179,179)" stroke-linejoin="round" d="M 12831,7154 L 12681,7154"/>
 <path fill="none" stroke="rgb(179,179,179)" stroke-linejoin="round" d="M 12831,7154 L 12681,7154"/>
 <path fill="none" stroke="rgb(179,179,179)" stroke-linejoin="round" d="M 12831,8138 L 12681,8138"/>
 <path fill="none" stroke="rgb(179,179,179)" stroke-linejoin="round" d="M 12831,8138 L 12681,8138"/>
 <path fill="none" stroke="rgb(179,179,179)" stroke-linejoin="round" d="M 12831,9122 L 12681,9122"/>
 <path fill="none" stroke="rgb(179,179,179)" stroke-linejoin="round" d="M 12831,9122 L 12681,9122"/>
 <path fill="none" stroke="rgb(179,179,179)" stroke-linejoin="round" d="M 12831,10106 L 12681,10106"/>
 <path fill="none" stroke="rgb(179,179,179)" stroke-linejoin="round" d="M 12831,10106 L 12681,10106"/>
 <path fill="none" stroke="rgb(179,179,179)" stroke-linejoin="round" d="M 12831,11090 L 12681,11090"/>
 <path fill="none" stroke="rgb(179,179,179)" stroke-linejoin="round" d="M 12831,11090 L 12681,11090"/>
 <path fill="none" stroke="rgb(179,179,179)" stroke-linejoin="round" d="M 12831,12074 L 12681,12074"/>
 <path fill="none" stroke="rgb(179,179,179)" stroke-linejoin="round" d="M 12831,12074 L 12681,12074"/>
 <path fill="none" stroke="rgb(179,179,179)" stroke-linejoin="round" d="M 12831,13059 L 12681,13059"/>
 <path fill="none" stroke="rgb(179,179,179)" stroke-linejoin="round" d="M 12831,13059 L 12681,13059"/>
 <path fill="none" stroke="rgb(179,179,179)" stroke-linejoin="round" d="M 12681,13059 L 12681,265"/>
 <path fill="none" stroke="rgb(179,179,179)" stroke-linejoin="round" d="M 12681,13209 L 12681,13059"/>
 <path fill="none" stroke="rgb(179,179,179)" stroke-linejoin="round" d="M 12681,115 L 12681,265"/>
 <path fill="none" stroke="rgb(179,179,179)" stroke-linejoin="round" d="M 11090,13209 L 11090,13059"/>
 <path fill="none" stroke="rgb(179,179,179)" stroke-linejoin="round" d="M 11090,115 L 11090,265"/>
 <path fill="none" stroke="rgb(179,179,179)" stroke-linejoin="round" d="M 9499,13209 L 9499,13059"/>
 <path fill="none" stroke="rgb(179,179,179)" stroke-linejoin="round" d="M 9499,115 L 9499,265"/>
 <path fill="none" stroke="rgb(179,179,179)" stroke-linejoin="round" d="M 7909,13209 L 7909,13059"/>
 <path fill="none" stroke="rgb(179,179,179)" stroke-linejoin="round" d="M 7909,115 L 7909,265"/>
 <path fill="none" stroke="rgb(179,179,179)" stroke-linejoin="round" d="M 6318,13209 L 6318,13059"/>
 <path fill="none" stroke="rgb(179,179,179)" stroke-linejoin="round" d="M 6318,115 L 6318,265"/>
 <path fill="none" stroke="rgb(179,179,179)" stroke-linejoin="round" d="M 4727,13209 L 4727,13059"/>
 <path fill="none" stroke="rgb(179,179,179)" stroke-linejoin="round" d="M 4727,115 L 4727,265"/>
 <path fill="none" stroke="rgb(179,179,179)" stroke-linejoin="round" d="M 3136,13209 L 3136,13059"/>
 <path fill="none" stroke="rgb(179,179,179)" stroke-linejoin="round" d="M 3136,115 L 3136,265"/>
 <path fill="none" stroke="rgb(179,179,179)" stroke-linejoin="round" d="M 3137,265 L 12681,265"/>
 <path fill="rgb(19,148,72)" stroke="none" d="M 12681,364 L 12681,561 4727,561 4727,364 12681,364 Z"/>
 <path fill="rgb(19,148,72)" stroke="none" d="M 12681,1348 L 12681,1545 4727,1545 4727,1348 12681,1348 Z"/>
 <path fill="rgb(19,148,72)" stroke="none" d="M 12681,2332 L 12681,2529 4727,2529 4727,2332 12681,2332 Z"/>
 <path fill="rgb(19,148,72)" stroke="none" d="M 12681,3316 L 12681,3513 4727,3513 4727,3316 12681,3316 Z"/>
 <path fill="rgb(19,148,72)" stroke="none" d="M 12681,4301 L 12681,4497 4727,4497 4727,4301 12681,4301 Z"/>
 <path fill="rgb(19,148,72)" stroke="none" d="M 12681,5285 L 12681,5482 4727,5482 4727,5285 12681,5285 Z"/>
 <path fill="rgb(19,148,72)" stroke="none" d="M 12681,6269 L 12681,6466 4727,6466 4727,6269 12681,6269 Z"/>
 <path fill="rgb(19,148,72)" stroke="none" d="M 12681,7252 L 12681,7449 4727,7449 4727,7252 12681,7252 Z"/>
 <path fill="rgb(19,148,72)" stroke="none" d="M 12681,8236 L 12681,8433 4727,8433 4727,8236 12681,8236 Z"/>
 <path fill="rgb(19,148,72)" stroke="none" d="M 12681,9220 L 12681,9417 4727,9417 4727,9220 12681,9220 Z"/>
 <path fill="rgb(19,148,72)" stroke="none" d="M 12681,10204 L 12681,10401 4727,10401 4727,10204 12681,10204 Z"/>
 <path fill="rgb(19,148,72)" stroke="none" d="M 12681,11189 L 12681,11385 4727,11385 4727,11189 12681,11189 Z"/>
 <path fill="rgb(19,148,72)" stroke="none" d="M 12681,12173 L 12681,12370 4727,12370 4727,12173 12681,12173 Z"/>
 <path fill="rgb(12,50,44)" stroke="none" d="M 12681,561 L 12681,758 5298,758 5298,561 12681,561 Z"/>
 <path fill="rgb(12,50,44)" stroke="none" d="M 12681,1545 L 12681,1742 5426,1742 5426,1545 12681,1545 Z"/>
 <path fill="rgb(12,50,44)" stroke="none" d="M 12681,2529 L 12681,2726 4845,2726 4845,2529 12681,2529 Z"/>
 <path fill="rgb(12,50,44)" stroke="none" d="M 12681,3513 L 12681,3710 10896,3710 10896,3513 12681,3513 Z"/>
 <path fill="rgb(12,50,44)" stroke="none" d="M 12681,4497 L 12681,4694 4368,4694 4368,4497 12681,4497 Z"/>
 <path fill="rgb(12,50,44)" stroke="none" d="M 12681,5482 L 12681,5678 6635,5678 6635,5482 12681,5482 Z"/>
 <path fill="rgb(12,50,44)" stroke="none" d="M 12681,6466 L 12681,6662 6637,6662 6637,6466 12681,6466 Z"/>
 <path fill="rgb(12,50,44)" stroke="none" d="M 12681,7449 L 12681,7646 4325,7646 4325,7449 12681,7449 Z"/>
 <path fill="rgb(12,50,44)" stroke="none" d="M 12681,8433 L 12681,8630 9642,8630 9642,8433 12681,8433 Z"/>
 <path fill="rgb(12,50,44)" stroke="none" d="M 12681,9417 L 12681,9614 7173,9614 7173,9417 12681,9417 Z"/>
 <path fill="rgb(12,50,44)" stroke="none" d="M 12681,10401 L 12681,10598 8818,10598 8818,10401 12681,10401 Z"/>
 <path fill="rgb(12,50,44)" stroke="none" d="M 12681,11385 L 12681,11582 4897,11582 4897,11385 12681,11385 Z"/>
 <path fill="rgb(12,50,44)" stroke="none" d="M 12681,12370 L 12681,12566 6741,12566 6741,12370 12681,12370 Z"/>
 <path fill="rgb(255,193,8)" stroke="none" d="M 12681,758 L 12681,954 5220,954 5220,758 12681,758 Z"/>
 <path fill="rgb(255,193,8)" stroke="none" d="M 12681,1742 L 12681,1939 8464,1939 8464,1742 12681,1742 Z"/>
 <path fill="rgb(255,193,8)" stroke="none" d="M 12681,2726 L 12681,2923 8769,2923 8769,2726 12681,2726 Z"/>
 <path fill="rgb(255,193,8)" stroke="none" d="M 12681,3710 L 12681,3907 8168,3907 8168,3710 12681,3710 Z"/>
 <path fill="rgb(255,193,8)" stroke="none" d="M 12681,4694 L 12681,4891 6955,4891 6955,4694 12681,4694 Z"/>
 <path fill="rgb(255,193,8)" stroke="none" d="M 12681,5678 L 12681,5875 5240,5875 5240,5678 12681,5678 Z"/>
 <path fill="rgb(255,193,8)" stroke="none" d="M 12681,6663 L 12681,6859 6663,6859 6663,6663 12681,6663 Z"/>
 <path fill="rgb(255,193,8)" stroke="none" d="M 12681,7646 L 12681,7842 6623,7842 6623,7646 12681,7646 Z"/>
 <path fill="rgb(255,193,8)" stroke="none" d="M 12681,8630 L 12681,8827 4944,8827 4944,8630 12681,8630 Z"/>
 <path fill="rgb(255,193,8)" stroke="none" d="M 12681,9614 L 12681,9811 8788,9811 8788,9614 12681,9614 Z"/>
 <path fill="rgb(255,193,8)" stroke="none" d="M 12681,10598 L 12681,10795 5831,10795 5831,10598 12681,10598 Z"/>
 <path fill="rgb(255,193,8)" stroke="none" d="M 12681,11582 L 12681,11779 7877,11779 7877,11582 12681,11582 Z"/>
 <path fill="rgb(255,193,8)" stroke="none" d="M 12681,12566 L 12681,12763 5489,12763 5489,12566 12681,12566 Z"/>
 <path fill="rgb(0,138,207)" stroke="none" d="M 12681,954 L 12681,1151 6395,1151 6395,954 12681,954 Z"/>
 <path fill="rgb(0,138,207)" stroke="none" d="M 12681,1939 L 12681,2135 9099,2135 9099,1939 12681,1939 Z"/>
 <path fill="rgb(0,138,207)" stroke="none" d="M 12681,2923 L 12681,3120 9191,3120 9191,2923 12681,2923 Z"/>
 <path fill="rgb(0,138,207)" stroke="none" d="M 12681,3907 L 12681,4104 11586,4104 11586,3907 12681,3907 Z"/>
 <path fill="rgb(0,138,207)" stroke="none" d="M 12681,4891 L 12681,5088 7260,5088 7260,4891 12681,4891 Z"/>
 <path fill="rgb(0,138,207)" stroke="none" d="M 12681,5875 L 12681,6072 6536,6072 6536,5875 12681,5875 Z"/>
 <path fill="rgb(0,138,207)" stroke="none" d="M 12681,6859 L 12681,7055 8063,7055 8063,6859 12681,6859 Z"/>
 <path fill="rgb(0,138,207)" stroke="none" d="M 12681,7842 L 12681,8039 7123,8039 7123,7842 12681,7842 Z"/>
 <path fill="rgb(0,138,207)" stroke="none" d="M 12681,8827 L 12681,9023 9739,9023 9739,8827 12681,8827 Z"/>
 <path fill="rgb(0,138,207)" stroke="none" d="M 12681,9811 L 12681,10008 10086,10008 10086,9811 12681,9811 Z"/>
 <path fill="rgb(0,138,207)" stroke="none" d="M 12681,10795 L 12681,10992 9226,10992 9226,10795 12681,10795 Z"/>
 <path fill="rgb(0,138,207)" stroke="none" d="M 12681,11779 L 12681,11976 8582,11976 8582,11779 12681,11779 Z"/>
 <path fill="rgb(0,138,207)" stroke="none" d="M 12681,12763 L 12681,12960 8436,12960 8436,12763 12681,12763 Z"/>
 <text class="SVGTextShape"><tspan class="TextParagraph"><tspan class="TextPosition" x="12931" y="879"><tspan font-family="Liberation Sans, sans-serif" font-size="353px" font-weight="400" fill="rgb(0,0,0)" stroke="none" style="white-space: pre">503.bwaves_r</tspan></tspan></tspan></text>
 <text class="SVGTextShape"><tspan class="TextParagraph"><tspan class="TextPosition" x="12931" y="1863"><tspan font-family="Liberation Sans, sans-serif" font-size="353px" font-weight="400" fill="rgb(0,0,0)" stroke="none" style="white-space: pre">507.cactuBSSN_r</tspan></tspan></tspan></text>
 <text class="SVGTextShape"><tspan class="TextParagraph"><tspan class="TextPosition" x="12931" y="2847"><tspan font-family="Liberation Sans, sans-serif" font-size="353px" font-weight="400" fill="rgb(0,0,0)" stroke="none" style="white-space: pre">508.namd_r</tspan></tspan></tspan></text>
 <text class="SVGTextShape"><tspan class="TextParagraph"><tspan class="TextPosition" x="12931" y="3831"><tspan font-family="Liberation Sans, sans-serif" font-size="353px" font-weight="400" fill="rgb(0,0,0)" stroke="none" style="white-space: pre">510.parest_r</tspan></tspan></tspan></text>
 <text class="SVGTextShape"><tspan class="TextParagraph"><tspan class="TextPosition" x="12931" y="4815"><tspan font-family="Liberation Sans, sans-serif" font-size="353px" font-weight="400" fill="rgb(0,0,0)" stroke="none" style="white-space: pre">511.povray_r</tspan></tspan></tspan></text>
 <text class="SVGTextShape"><tspan class="TextParagraph"><tspan class="TextPosition" x="12931" y="5799"><tspan font-family="Liberation Sans, sans-serif" font-size="353px" font-weight="400" fill="rgb(0,0,0)" stroke="none" style="white-space: pre">519.lbm_r</tspan></tspan></tspan></text>
 <text class="SVGTextShape"><tspan class="TextParagraph"><tspan class="TextPosition" x="12931" y="6783"><tspan font-family="Liberation Sans, sans-serif" font-size="353px" font-weight="400" fill="rgb(0,0,0)" stroke="none" style="white-space: pre">521.wrf_r</tspan></tspan></tspan></text>
 <text class="SVGTextShape"><tspan class="TextParagraph"><tspan class="TextPosition" x="12931" y="7767"><tspan font-family="Liberation Sans, sans-serif" font-size="353px" font-weight="400" fill="rgb(0,0,0)" stroke="none" style="white-space: pre">526.blender_r</tspan></tspan></tspan></text>
 <text class="SVGTextShape"><tspan class="TextParagraph"><tspan class="TextPosition" x="12931" y="8751"><tspan font-family="Liberation Sans, sans-serif" font-size="353px" font-weight="400" fill="rgb(0,0,0)" stroke="none" style="white-space: pre">527.cam4_r</tspan></tspan></tspan></text>
 <text class="SVGTextShape"><tspan class="TextParagraph"><tspan class="TextPosition" x="12931" y="9735"><tspan font-family="Liberation Sans, sans-serif" font-size="353px" font-weight="400" fill="rgb(0,0,0)" stroke="none" style="white-space: pre">538.imagick_r</tspan></tspan></tspan></text>
 <text class="SVGTextShape"><tspan class="TextParagraph"><tspan class="TextPosition" x="12931" y="10719"><tspan font-family="Liberation Sans, sans-serif" font-size="353px" font-weight="400" fill="rgb(0,0,0)" stroke="none" style="white-space: pre">544.nab_r</tspan></tspan></tspan></text>
 <text class="SVGTextShape"><tspan class="TextParagraph"><tspan class="TextPosition" x="12931" y="11703"><tspan font-family="Liberation Sans, sans-serif" font-size="353px" font-weight="400" fill="rgb(0,0,0)" stroke="none" style="white-space: pre">549.fotonik3d_r</tspan></tspan></tspan></text>
 <text class="SVGTextShape"><tspan class="TextParagraph"><tspan class="TextPosition" x="12931" y="12687"><tspan font-family="Liberation Sans, sans-serif" font-size="353px" font-weight="400" fill="rgb(0,0,0)" stroke="none" style="white-space: pre">554.roms_r</tspan></tspan></tspan></text>
 <text class="SVGTextShape"><tspan class="TextParagraph"><tspan class="TextPosition" x="12433" y="13627"><tspan font-family="Liberation Sans, sans-serif" font-size="353px" font-weight="400" fill="rgb(0,0,0)" stroke="none" style="white-space: pre">0%</tspan></tspan></tspan></text>
 <text class="SVGTextShape"><tspan class="TextParagraph"><tspan class="TextPosition" x="10747" y="13627"><tspan font-family="Liberation Sans, sans-serif" font-size="353px" font-weight="400" fill="rgb(0,0,0)" stroke="none" style="white-space: pre">20%</tspan></tspan></tspan></text>
 <text class="SVGTextShape"><tspan class="TextParagraph"><tspan class="TextPosition" x="9156" y="13627"><tspan font-family="Liberation Sans, sans-serif" font-size="353px" font-weight="400" fill="rgb(0,0,0)" stroke="none" style="white-space: pre">40%</tspan></tspan></tspan></text>
 <text class="SVGTextShape"><tspan class="TextParagraph"><tspan class="TextPosition" x="7566" y="13627"><tspan font-family="Liberation Sans, sans-serif" font-size="353px" font-weight="400" fill="rgb(0,0,0)" stroke="none" style="white-space: pre">60%</tspan></tspan></tspan></text>
 <text class="SVGTextShape"><tspan class="TextParagraph"><tspan class="TextPosition" x="5975" y="13627"><tspan font-family="Liberation Sans, sans-serif" font-size="353px" font-weight="400" fill="rgb(0,0,0)" stroke="none" style="white-space: pre">80%</tspan></tspan></tspan></text>
 <text class="SVGTextShape"><tspan class="TextParagraph"><tspan class="TextPosition" x="4288" y="13627"><tspan font-family="Liberation Sans, sans-serif" font-size="353px" font-weight="400" fill="rgb(0,0,0)" stroke="none" style="white-space: pre">100%</tspan></tspan></tspan></text>
 <text class="SVGTextShape"><tspan class="TextParagraph"><tspan class="TextPosition" x="2697" y="13627"><tspan font-family="Liberation Sans, sans-serif" font-size="353px" font-weight="400" fill="rgb(0,0,0)" stroke="none" style="white-space: pre">120%</tspan></tspan></tspan></text>
 <path fill="rgb(19,148,72)" stroke="none" d="M 418,7838 L 313,7838 313,7627 524,7627 524,7838 418,7838 Z"/>
 <path fill="rgb(12,50,44)" stroke="none" d="M 418,7340 L 313,7340 313,7129 524,7129 524,7340 418,7340 Z"/>
 <path fill="rgb(255,193,8)" stroke="none" d="M 418,6843 L 313,6843 313,6632 524,6632 524,6843 418,6843 Z"/>
 <path fill="rgb(0,138,207)" stroke="none" d="M 418,6345 L 313,6345 313,6134 524,6134 524,6345 418,6345 Z"/>
 <text class="SVGTextShape"><tspan class="TextParagraph"><tspan class="TextPosition" x="624" y="6359"><tspan font-family="Liberation Sans, sans-serif" font-size="353px" font-weight="400" fill="rgb(0,0,0)" stroke="none" style="white-space: pre">LTO+PGO</tspan></tspan></tspan></text>
 <text class="SVGTextShape"><tspan class="TextParagraph"><tspan class="TextPosition" x="624" y="6857"><tspan font-family="Liberation Sans, sans-serif" font-size="353px" font-weight="400" fill="rgb(0,0,0)" stroke="none" style="white-space: pre">PGO</tspan></tspan></tspan></text>
 <text class="SVGTextShape"><tspan class="TextParagraph"><tspan class="TextPosition" x="624" y="7354"><tspan font-family="Liberation Sans, sans-serif" font-size="353px" font-weight="400" fill="rgb(0,0,0)" stroke="none" style="white-space: pre">LTO</tspan></tspan></tspan></text>
 <text class="SVGTextShape"><tspan class="TextParagraph"><tspan class="TextPosition" x="624" y="7852"><tspan font-family="Liberation Sans, sans-serif" font-size="353px" font-weight="400" fill="rgb(0,0,0)" stroke="none" style="white-space: pre">Normal</tspan></tspan></tspan></text>
</svg>