<?xml version="1.0" encoding="UTF-8"?>
<!DOCTYPE svg PUBLIC "-//W3C//DTD SVG 1.1//EN" "http://www.w3.org/Graphics/SVG/1.1/DTD/svg11.dtd">
<svg width="160mm" height="61mm" viewBox="0 0 16000 6100" version="1.1" xmlns="http://www.w3.org/2000/svg" xmlns:xlink="http://www.w3.org/1999/xlink" stroke-width="28.222" stroke-linejoin="round" xml:space="preserve">
 <path fill="rgb(255,255,255)" stroke="none" d="M 8000,6116 L 0,6116 0,28 16000,28 16000,6116 8000,6116 Z"/>
 <path fill="none" stroke="rgb(179,179,179)" stroke-linejoin="round" d="M 7987,5351 L 2688,5351 2688,150 13285,150 13285,5351 7987,5351 Z"/>
 <path fill="none" stroke="rgb(179,179,179)" stroke-linejoin="round" d="M 2688,149 L 2688,5350"/>
 <path fill="none" stroke="rgb(179,179,179)" stroke-linejoin="round" d="M 4101,149 L 4101,5350"/>
 <path fill="none" stroke="rgb(179,179,179)" stroke-linejoin="round" d="M 5514,149 L 5514,5350"/>
 <path fill="none" stroke="rgb(179,179,179)" stroke-linejoin="round" d="M 6927,149 L 6927,5350"/>
 <path fill="none" stroke="rgb(179,179,179)" stroke-linejoin="round" d="M 8339,149 L 8339,5350"/>
 <path fill="none" stroke="rgb(179,179,179)" stroke-linejoin="round" d="M 9752,149 L 9752,5350"/>
 <path fill="none" stroke="rgb(179,179,179)" stroke-linejoin="round" d="M 11165,149 L 11165,5350"/>
 <path fill="none" stroke="rgb(179,179,179)" stroke-linejoin="round" d="M 12578,149 L 12578,5350"/>
 <path fill="none" stroke="rgb(179,179,179)" stroke-linejoin="round" d="M 2538,149 L 2688,149"/>
 <path fill="none" stroke="rgb(179,179,179)" stroke-linejoin="round" d="M 2538,149 L 2688,149"/>
 <path fill="none" stroke="rgb(179,179,179)" stroke-linejoin="round" d="M 2538,1449 L 2688,1449"/>
 <path fill="none" stroke="rgb(179,179,179)" stroke-linejoin="round" d="M 2538,1449 L 2688,1449"/>
 <path fill="none" stroke="rgb(179,179,179)" stroke-linejoin="round" d="M 2538,2749 L 2688,2749"/>
 <path fill="none" stroke="rgb(179,179,179)" stroke-linejoin="round" d="M 2538,2749 L 2688,2749"/>
 <path fill="none" stroke="rgb(179,179,179)" stroke-linejoin="round" d="M 2538,4049 L 2688,4049"/>
 <path fill="none" stroke="rgb(179,179,179)" stroke-linejoin="round" d="M 2538,4049 L 2688,4049"/>
 <path fill="none" stroke="rgb(179,179,179)" stroke-linejoin="round" d="M 2538,5350 L 2688,5350"/>
 <path fill="none" stroke="rgb(179,179,179)" stroke-linejoin="round" d="M 2538,5350 L 2688,5350"/>
 <path fill="none" stroke="rgb(179,179,179)" stroke-linejoin="round" d="M 2688,5350 L 2688,149"/>
 <path fill="none" stroke="rgb(179,179,179)" stroke-linejoin="round" d="M 2688,5499 L 2688,5350"/>
 <path fill="none" stroke="rgb(179,179,179)" stroke-linejoin="round" d="M 2688,0 L 2688,149"/>
 <path fill="none" stroke="rgb(179,179,179)" stroke-linejoin="round" d="M 4101,5499 L 4101,5350"/>
 <path fill="none" stroke="rgb(179,179,179)" stroke-linejoin="round" d="M 4101,0 L 4101,149"/>
 <path fill="none" stroke="rgb(179,179,179)" stroke-linejoin="round" d="M 5514,5499 L 5514,5350"/>
 <path fill="none" stroke="rgb(179,179,179)" stroke-linejoin="round" d="M 5514,0 L 5514,149"/>
 <path fill="none" stroke="rgb(179,179,179)" stroke-linejoin="round" d="M 6927,5499 L 6927,5350"/>
 <path fill="none" stroke="rgb(179,179,179)" stroke-linejoin="round" d="M 6927,0 L 6927,149"/>
 <path fill="none" stroke="rgb(179,179,179)" stroke-linejoin="round" d="M 8339,5499 L 8339,5350"/>
 <path fill="none" stroke="rgb(179,179,179)" stroke-linejoin="round" d="M 8339,0 L 8339,149"/>
 <path fill="none" stroke="rgb(179,179,179)" stroke-linejoin="round" d="M 9752,5499 L 9752,5350"/>
 <path fill="none" stroke="rgb(179,179,179)" stroke-linejoin="round" d="M 9752,0 L 9752,149"/>
 <path fill="none" stroke="rgb(179,179,179)" stroke-linejoin="round" d="M 11165,5499 L 11165,5350"/>
 <path fill="none" stroke="rgb(179,179,179)" stroke-linejoin="round" d="M 11165,0 L 11165,149"/>
 <path fill="none" stroke="rgb(179,179,179)" stroke-linejoin="round" d="M 12578,5499 L 12578,5350"/>
 <path fill="none" stroke="rgb(179,179,179)" stroke-linejoin="round" d="M 12578,0 L 12578,149"/>
 <path fill="none" stroke="rgb(179,179,179)" stroke-linejoin="round" d="M 2688,149 L 13285,149"/>
 <path fill="rgb(19,148,72)" stroke="none" d="M 2688,4179 L 2688,4439 9752,4439 9752,4179 2688,4179 Z"/>
 <path fill="rgb(19,148,72)" stroke="none" d="M 2688,2879 L 2688,3138 9752,3138 9752,2879 2688,2879 Z"/>
 <path fill="rgb(19,148,72)" stroke="none" d="M 2688,1579 L 2688,1839 9752,1839 9752,1579 2688,1579 Z"/>
 <path fill="rgb(19,148,72)" stroke="none" d="M 2688,278 L 2688,538 9752,538 9752,278 2688,278 Z"/>
 <path fill="rgb(12,50,44)" stroke="none" d="M 2688,4439 L 2688,4699 9815,4699 9815,4439 2688,4439 Z"/>
 <path fill="rgb(12,50,44)" stroke="none" d="M 2688,3138 L 2688,3399 10371,3399 10371,3138 2688,3138 Z"/>
 <path fill="rgb(12,50,44)" stroke="none" d="M 2688,1839 L 2688,2098 10172,2098 10172,1839 2688,1839 Z"/>
 <path fill="rgb(12,50,44)" stroke="none" d="M 2688,538 L 2688,799 11795,799 11795,538 2688,538 Z"/>
 <path fill="rgb(255,193,8)" stroke="none" d="M 2688,4699 L 2688,4960 10044,4960 10044,4699 2688,4699 Z"/>
 <path fill="rgb(255,193,8)" stroke="none" d="M 2688,3399 L 2688,3659 10645,3659 10645,3399 2688,3399 Z"/>
 <path fill="rgb(255,193,8)" stroke="none" d="M 2688,2098 L 2688,2359 10651,2359 10651,2098 2688,2098 Z"/>
 <path fill="rgb(255,193,8)" stroke="none" d="M 2688,799 L 2688,1058 10578,1058 10578,799 2688,799 Z"/>
 <path fill="rgb(0,138,207)" stroke="none" d="M 2688,4960 L 2688,5219 9993,5219 9993,4960 2688,4960 Z"/>
 <path fill="rgb(0,138,207)" stroke="none" d="M 2688,3659 L 2688,3919 13040,3919 13040,3659 2688,3659 Z"/>
 <path fill="rgb(0,138,207)" stroke="none" d="M 2688,2359 L 2688,2619 10817,2619 10817,2359 2688,2359 Z"/>
 <path fill="rgb(0,138,207)" stroke="none" d="M 2688,1058 L 2688,1318 11748,1318 11748,1058 2688,1058 Z"/>
 <text class="TextShape"><tspan class="TextParagraph" font-family="Liberation Sans, sans-serif" font-size="351px" font-weight="400"><tspan class="TextPosition" x="321" y="919"><tspan fill="rgb(0,0,0)" stroke="none">503.bwaves_r</tspan></tspan></tspan></text>
 <text class="TextShape"><tspan class="TextParagraph" font-family="Liberation Sans, sans-serif" font-size="351px" font-weight="400"><tspan class="TextPosition" x="533" y="2218"><tspan fill="rgb(0,0,0)" stroke="none">510.parest_r</tspan></tspan></tspan></text>
 <text class="TextShape"><tspan class="TextParagraph" font-family="Liberation Sans, sans-serif" font-size="351px" font-weight="400"><tspan class="TextPosition" x="454" y="3519"><tspan fill="rgb(0,0,0)" stroke="none">511.povray_r</tspan></tspan></tspan></text>
 <text class="TextShape"><tspan class="TextParagraph" font-family="Liberation Sans, sans-serif" font-size="351px" font-weight="400"><tspan class="TextPosition" x="374" y="4819"><tspan fill="rgb(0,0,0)" stroke="none">526.blender_r</tspan></tspan></tspan></text>
 <text class="TextShape"><tspan class="TextParagraph" font-family="Liberation Sans, sans-serif" font-size="351px" font-weight="400"><tspan class="TextPosition" x="2436" y="5915"><tspan fill="rgb(0,0,0)" stroke="none">0%</tspan></tspan></tspan></text>
 <text class="TextShape"><tspan class="TextParagraph" font-family="Liberation Sans, sans-serif" font-size="351px" font-weight="400"><tspan class="TextPosition" x="3757" y="5915"><tspan fill="rgb(0,0,0)" stroke="none">20%</tspan></tspan></tspan></text>
 <text class="TextShape"><tspan class="TextParagraph" font-family="Liberation Sans, sans-serif" font-size="351px" font-weight="400"><tspan class="TextPosition" x="5170" y="5915"><tspan fill="rgb(0,0,0)" stroke="none">40%</tspan></tspan></tspan></text>
 <text class="TextShape"><tspan class="TextParagraph" font-family="Liberation Sans, sans-serif" font-size="351px" font-weight="400"><tspan class="TextPosition" x="6583" y="5915"><tspan fill="rgb(0,0,0)" stroke="none">60%</tspan></tspan></tspan></text>
 <text class="TextShape"><tspan class="TextParagraph" font-family="Liberation Sans, sans-serif" font-size="351px" font-weight="400"><tspan class="TextPosition" x="7996" y="5915"><tspan fill="rgb(0,0,0)" stroke="none">80%</tspan></tspan></tspan></text>
 <text class="TextShape"><tspan class="TextParagraph" font-family="Liberation Sans, sans-serif" font-size="351px" font-weight="400"><tspan class="TextPosition" x="9316" y="5915"><tspan fill="rgb(0,0,0)" stroke="none">100%</tspan></tspan></tspan></text>
 <text class="TextShape"><tspan class="TextParagraph" font-family="Liberation Sans, sans-serif" font-size="351px" font-weight="400"><tspan class="TextPosition" x="10729" y="5915"><tspan fill="rgb(0,0,0)" stroke="none">120%</tspan></tspan></tspan></text>
 <text class="TextShape"><tspan class="TextParagraph" font-family="Liberation Sans, sans-serif" font-size="351px" font-weight="400"><tspan class="TextPosition" x="12142" y="5915"><tspan fill="rgb(0,0,0)" stroke="none">140%</tspan></tspan></tspan></text>
 <path fill="rgb(19,148,72)" stroke="none" d="M 13827,3920 L 13721,3920 13721,3710 13932,3710 13932,3920 13827,3920 Z"/>
 <path fill="rgb(12,50,44)" stroke="none" d="M 13827,3424 L 13721,3424 13721,3214 13932,3214 13932,3424 13827,3424 Z"/>
 <path fill="rgb(255,193,8)" stroke="none" d="M 13827,2928 L 13721,2928 13721,2718 13932,2718 13932,2928 13827,2928 Z"/>
 <path fill="rgb(0,138,207)" stroke="none" d="M 13827,2433 L 13721,2433 13721,2223 13932,2223 13932,2433 13827,2433 Z"/>
 <text class="TextShape"><tspan class="TextParagraph" font-family="Liberation Sans, sans-serif" font-size="351px" font-weight="400"><tspan class="TextPosition" x="14032" y="2447"><tspan fill="rgb(0,0,0)" stroke="none">LTO+PGO</tspan></tspan></tspan></text>
 <text class="TextShape"><tspan class="TextParagraph" font-family="Liberation Sans, sans-serif" font-size="351px" font-weight="400"><tspan class="TextPosition" x="14032" y="2942"><tspan fill="rgb(0,0,0)" stroke="none">PGO</tspan></tspan></tspan></text>
 <text class="TextShape"><tspan class="TextParagraph" font-family="Liberation Sans, sans-serif" font-size="351px" font-weight="400"><tspan class="TextPosition" x="14032" y="3438"><tspan fill="rgb(0,0,0)" stroke="none">LTO</tspan></tspan></tspan></text>
 <text class="TextShape"><tspan class="TextParagraph" font-family="Liberation Sans, sans-serif" font-size="351px" font-weight="400"><tspan class="TextPosition" x="14032" y="3934"><tspan fill="rgb(0,0,0)" stroke="none">Normal</tspan></tspan></tspan></text>
</svg>