<?xml version="1.0" encoding="UTF-8"?>
<!DOCTYPE svg PUBLIC "-//W3C//DTD SVG 1.1//EN" "http://www.w3.org/Graphics/SVG/1.1/DTD/svg11.dtd">
<svg width="160mm" height="107mm" viewBox="0 0 16000 10700" version="1.1" xmlns="http://www.w3.org/2000/svg" xmlns:xlink="http://www.w3.org/1999/xlink" stroke-width="28.222" stroke-linejoin="round" xml:space="preserve">
 <path fill="rgb(255,255,255)" stroke="none" d="M 7987,10687 L -13,10687 -13,-13 15987,-13 15987,10687 7987,10687 Z"/>
 <path fill="none" stroke="rgb(179,179,179)" stroke-linejoin="round" d="M 8032,9826 L 3310,9826 3310,201 12754,201 12754,9826 8032,9826 Z"/>
 <path fill="none" stroke="rgb(179,179,179)" stroke-linejoin="round" d="M 3310,199 L 3310,9825"/>
 <path fill="none" stroke="rgb(179,179,179)" stroke-linejoin="round" d="M 4254,199 L 4254,9825"/>
 <path fill="none" stroke="rgb(179,179,179)" stroke-linejoin="round" d="M 5199,199 L 5199,9825"/>
 <path fill="none" stroke="rgb(179,179,179)" stroke-linejoin="round" d="M 6143,199 L 6143,9825"/>
 <path fill="none" stroke="rgb(179,179,179)" stroke-linejoin="round" d="M 7088,199 L 7088,9825"/>
 <path fill="none" stroke="rgb(179,179,179)" stroke-linejoin="round" d="M 8031,199 L 8031,9825"/>
 <path fill="none" stroke="rgb(179,179,179)" stroke-linejoin="round" d="M 8976,199 L 8976,9825"/>
 <path fill="none" stroke="rgb(179,179,179)" stroke-linejoin="round" d="M 9920,199 L 9920,9825"/>
 <path fill="none" stroke="rgb(179,179,179)" stroke-linejoin="round" d="M 10865,199 L 10865,9825"/>
 <path fill="none" stroke="rgb(179,179,179)" stroke-linejoin="round" d="M 11809,199 L 11809,9825"/>
 <path fill="none" stroke="rgb(179,179,179)" stroke-linejoin="round" d="M 12754,199 L 12754,9825"/>
 <path fill="none" stroke="rgb(179,179,179)" stroke-linejoin="round" d="M 3160,199 L 3310,199"/>
 <path fill="none" stroke="rgb(179,179,179)" stroke-linejoin="round" d="M 3160,199 L 3310,199"/>
 <path fill="none" stroke="rgb(179,179,179)" stroke-linejoin="round" d="M 3160,1002 L 3310,1002"/>
 <path fill="none" stroke="rgb(179,179,179)" stroke-linejoin="round" d="M 3160,1002 L 3310,1002"/>
 <path fill="none" stroke="rgb(179,179,179)" stroke-linejoin="round" d="M 3160,1804 L 3310,1804"/>
 <path fill="none" stroke="rgb(179,179,179)" stroke-linejoin="round" d="M 3160,1804 L 3310,1804"/>
 <path fill="none" stroke="rgb(179,179,179)" stroke-linejoin="round" d="M 3160,2606 L 3310,2606"/>
 <path fill="none" stroke="rgb(179,179,179)" stroke-linejoin="round" d="M 3160,2606 L 3310,2606"/>
 <path fill="none" stroke="rgb(179,179,179)" stroke-linejoin="round" d="M 3160,3408 L 3310,3408"/>
 <path fill="none" stroke="rgb(179,179,179)" stroke-linejoin="round" d="M 3160,3408 L 3310,3408"/>
 <path fill="none" stroke="rgb(179,179,179)" stroke-linejoin="round" d="M 3160,4210 L 3310,4210"/>
 <path fill="none" stroke="rgb(179,179,179)" stroke-linejoin="round" d="M 3160,4210 L 3310,4210"/>
 <path fill="none" stroke="rgb(179,179,179)" stroke-linejoin="round" d="M 3160,5012 L 3310,5012"/>
 <path fill="none" stroke="rgb(179,179,179)" stroke-linejoin="round" d="M 3160,5012 L 3310,5012"/>
 <path fill="none" stroke="rgb(179,179,179)" stroke-linejoin="round" d="M 3160,5814 L 3310,5814"/>
 <path fill="none" stroke="rgb(179,179,179)" stroke-linejoin="round" d="M 3160,5814 L 3310,5814"/>
 <path fill="none" stroke="rgb(179,179,179)" stroke-linejoin="round" d="M 3160,6616 L 3310,6616"/>
 <path fill="none" stroke="rgb(179,179,179)" stroke-linejoin="round" d="M 3160,6616 L 3310,6616"/>
 <path fill="none" stroke="rgb(179,179,179)" stroke-linejoin="round" d="M 3160,7418 L 3310,7418"/>
 <path fill="none" stroke="rgb(179,179,179)" stroke-linejoin="round" d="M 3160,7418 L 3310,7418"/>
 <path fill="none" stroke="rgb(179,179,179)" stroke-linejoin="round" d="M 3160,8220 L 3310,8220"/>
 <path fill="none" stroke="rgb(179,179,179)" stroke-linejoin="round" d="M 3160,8220 L 3310,8220"/>
 <path fill="none" stroke="rgb(179,179,179)" stroke-linejoin="round" d="M 3160,9022 L 3310,9022"/>
 <path fill="none" stroke="rgb(179,179,179)" stroke-linejoin="round" d="M 3160,9022 L 3310,9022"/>
 <path fill="none" stroke="rgb(179,179,179)" stroke-linejoin="round" d="M 3160,9825 L 3310,9825"/>
 <path fill="none" stroke="rgb(179,179,179)" stroke-linejoin="round" d="M 3160,9825 L 3310,9825"/>
 <path fill="none" stroke="rgb(179,179,179)" stroke-linejoin="round" d="M 3310,9825 L 3310,199"/>
 <path fill="none" stroke="rgb(179,179,179)" stroke-linejoin="round" d="M 3310,9975 L 3310,9825"/>
 <path fill="none" stroke="rgb(179,179,179)" stroke-linejoin="round" d="M 3310,49 L 3310,199"/>
 <path fill="none" stroke="rgb(179,179,179)" stroke-linejoin="round" d="M 4254,9975 L 4254,9825"/>
 <path fill="none" stroke="rgb(179,179,179)" stroke-linejoin="round" d="M 4254,49 L 4254,199"/>
 <path fill="none" stroke="rgb(179,179,179)" stroke-linejoin="round" d="M 5199,9975 L 5199,9825"/>
 <path fill="none" stroke="rgb(179,179,179)" stroke-linejoin="round" d="M 5199,49 L 5199,199"/>
 <path fill="none" stroke="rgb(179,179,179)" stroke-linejoin="round" d="M 6143,9975 L 6143,9825"/>
 <path fill="none" stroke="rgb(179,179,179)" stroke-linejoin="round" d="M 6143,49 L 6143,199"/>
 <path fill="none" stroke="rgb(179,179,179)" stroke-linejoin="round" d="M 7088,9975 L 7088,9825"/>
 <path fill="none" stroke="rgb(179,179,179)" stroke-linejoin="round" d="M 7088,49 L 7088,199"/>
 <path fill="none" stroke="rgb(179,179,179)" stroke-linejoin="round" d="M 8031,9975 L 8031,9825"/>
 <path fill="none" stroke="rgb(179,179,179)" stroke-linejoin="round" d="M 8031,49 L 8031,199"/>
 <path fill="none" stroke="rgb(179,179,179)" stroke-linejoin="round" d="M 8976,9975 L 8976,9825"/>
 <path fill="none" stroke="rgb(179,179,179)" stroke-linejoin="round" d="M 8976,49 L 8976,199"/>
 <path fill="none" stroke="rgb(179,179,179)" stroke-linejoin="round" d="M 9920,9975 L 9920,9825"/>
 <path fill="none" stroke="rgb(179,179,179)" stroke-linejoin="round" d="M 9920,49 L 9920,199"/>
 <path fill="none" stroke="rgb(179,179,179)" stroke-linejoin="round" d="M 10865,9975 L 10865,9825"/>
 <path fill="none" stroke="rgb(179,179,179)" stroke-linejoin="round" d="M 10865,49 L 10865,199"/>
 <path fill="none" stroke="rgb(179,179,179)" stroke-linejoin="round" d="M 11809,9975 L 11809,9825"/>
 <path fill="none" stroke="rgb(179,179,179)" stroke-linejoin="round" d="M 11809,49 L 11809,199"/>
 <path fill="none" stroke="rgb(179,179,179)" stroke-linejoin="round" d="M 12754,9975 L 12754,9825"/>
 <path fill="none" stroke="rgb(179,179,179)" stroke-linejoin="round" d="M 12754,49 L 12754,199"/>
 <path fill="none" stroke="rgb(179,179,179)" stroke-linejoin="round" d="M 3310,199 L 12754,199"/>
 <path fill="rgb(222,0,128)" stroke="none" d="M 3310,300 L 3310,500 8031,500 8031,300 3310,300 Z"/>
 <path fill="rgb(222,0,128)" stroke="none" d="M 3310,1102 L 3310,1302 8031,1302 8031,1102 3310,1102 Z"/>
 <path fill="rgb(222,0,128)" stroke="none" d="M 3310,1904 L 3310,2105 8031,2105 8031,1904 3310,1904 Z"/>
 <path fill="rgb(222,0,128)" stroke="none" d="M 3310,2706 L 3310,2907 8031,2907 8031,2706 3310,2706 Z"/>
 <path fill="rgb(222,0,128)" stroke="none" d="M 3310,3508 L 3310,3709 8031,3709 8031,3508 3310,3508 Z"/>
 <path fill="rgb(222,0,128)" stroke="none" d="M 3310,4311 L 3310,4511 8031,4511 8031,4311 3310,4311 Z"/>
 <path fill="rgb(222,0,128)" stroke="none" d="M 3310,5113 L 3310,5313 8031,5313 8031,5113 3310,5113 Z"/>
 <path fill="rgb(222,0,128)" stroke="none" d="M 3310,5914 L 3310,6114 8031,6114 8031,5914 3310,5914 Z"/>
 <path fill="rgb(222,0,128)" stroke="none" d="M 3310,6716 L 3310,6917 8031,6917 8031,6716 3310,6716 Z"/>
 <path fill="rgb(222,0,128)" stroke="none" d="M 3310,7518 L 3310,7719 8031,7719 8031,7518 3310,7518 Z"/>
 <path fill="rgb(222,0,128)" stroke="none" d="M 3310,8320 L 3310,8521 8031,8521 8031,8320 3310,8320 Z"/>
 <path fill="rgb(222,0,128)" stroke="none" d="M 3310,9123 L 3310,9323 8031,9323 8031,9123 3310,9123 Z"/>
 <path fill="rgb(112,23,108)" stroke="none" d="M 3310,500 L 3310,701 8636,701 8636,500 3310,500 Z"/>
 <path fill="rgb(112,23,108)" stroke="none" d="M 3310,1302 L 3310,1503 8900,1503 8900,1302 3310,1302 Z"/>
 <path fill="rgb(112,23,108)" stroke="none" d="M 3310,2105 L 3310,2305 10227,2305 10227,2105 3310,2105 Z"/>
 <path fill="rgb(112,23,108)" stroke="none" d="M 3310,2907 L 3310,3107 7595,3107 7595,2907 3310,2907 Z"/>
 <path fill="rgb(112,23,108)" stroke="none" d="M 3310,3709 L 3310,3910 7897,3910 7897,3709 3310,3709 Z"/>
 <path fill="rgb(112,23,108)" stroke="none" d="M 3310,4511 L 3310,4712 11732,4712 11732,4511 3310,4511 Z"/>
 <path fill="rgb(112,23,108)" stroke="none" d="M 3310,5313 L 3310,5513 8372,5513 8372,5313 3310,5313 Z"/>
 <path fill="rgb(112,23,108)" stroke="none" d="M 3310,6114 L 3310,6315 9891,6315 9891,6114 3310,6114 Z"/>
 <path fill="rgb(112,23,108)" stroke="none" d="M 3310,6917 L 3310,7117 9307,7117 9307,6917 3310,6917 Z"/>
 <path fill="rgb(112,23,108)" stroke="none" d="M 3310,7719 L 3310,7919 9415,7919 9415,7719 3310,7719 Z"/>
 <path fill="rgb(112,23,108)" stroke="none" d="M 3310,8521 L 3310,8722 8416,8722 8416,8521 3310,8521 Z"/>
 <path fill="rgb(112,23,108)" stroke="none" d="M 3310,9323 L 3310,9524 5970,9524 5970,9323 3310,9323 Z"/>
 <path fill="rgb(19,148,72)" stroke="none" d="M 3310,701 L 3310,901 8810,901 8810,701 3310,701 Z"/>
 <path fill="rgb(19,148,72)" stroke="none" d="M 3310,1503 L 3310,1704 8267,1704 8267,1503 3310,1503 Z"/>
 <path fill="rgb(19,148,72)" stroke="none" d="M 3310,2305 L 3310,2506 9791,2506 9791,2305 3310,2305 Z"/>
 <path fill="rgb(19,148,72)" stroke="none" d="M 3310,3107 L 3310,3308 8818,3308 8818,3107 3310,3107 Z"/>
 <path fill="rgb(19,148,72)" stroke="none" d="M 3310,3910 L 3310,4110 7988,4110 7988,3910 3310,3910 Z"/>
 <path fill="rgb(19,148,72)" stroke="none" d="M 3310,4712 L 3310,4912 10832,4912 10832,4712 3310,4712 Z"/>
 <path fill="rgb(19,148,72)" stroke="none" d="M 3310,5513 L 3310,5713 8236,5713 8236,5513 3310,5513 Z"/>
 <path fill="rgb(19,148,72)" stroke="none" d="M 3310,6315 L 3310,6516 8873,6516 8873,6315 3310,6315 Z"/>
 <path fill="rgb(19,148,72)" stroke="none" d="M 3310,7117 L 3310,7318 8250,7318 8250,7117 3310,7117 Z"/>
 <path fill="rgb(19,148,72)" stroke="none" d="M 3310,7919 L 3310,8120 8729,8120 8729,7919 3310,7919 Z"/>
 <path fill="rgb(19,148,72)" stroke="none" d="M 3310,8722 L 3310,8922 8829,8922 8829,8722 3310,8722 Z"/>
 <path fill="rgb(19,148,72)" stroke="none" d="M 3310,9524 L 3310,9724 9296,9724 9296,9524 3310,9524 Z"/>
 <text class="SVGTextShape"><tspan class="TextParagraph" font-family="Liberation Sans, sans-serif" font-size="353px" font-weight="400"><tspan class="TextPosition" x="943" y="721"><tspan fill="rgb(0,0,0)" stroke="none" style="white-space: pre">503.bwaves_r</tspan></tspan></tspan></text>
 <text class="SVGTextShape"><tspan class="TextParagraph" font-family="Liberation Sans, sans-serif" font-size="353px" font-weight="400"><tspan class="TextPosition" x="308" y="1523"><tspan fill="rgb(0,0,0)" stroke="none" style="white-space: pre">507.cactuBSSN_r</tspan></tspan></tspan></text>
 <text class="SVGTextShape"><tspan class="TextParagraph" font-family="Liberation Sans, sans-serif" font-size="353px" font-weight="400"><tspan class="TextPosition" x="1261" y="2325"><tspan fill="rgb(0,0,0)" stroke="none" style="white-space: pre">508.namd_r</tspan></tspan></tspan></text>
 <text class="SVGTextShape"><tspan class="TextParagraph" font-family="Liberation Sans, sans-serif" font-size="353px" font-weight="400"><tspan class="TextPosition" x="1155" y="3127"><tspan fill="rgb(0,0,0)" stroke="none" style="white-space: pre">510.parest_r</tspan></tspan></tspan></text>
 <text class="SVGTextShape"><tspan class="TextParagraph" font-family="Liberation Sans, sans-serif" font-size="353px" font-weight="400"><tspan class="TextPosition" x="1076" y="3929"><tspan fill="rgb(0,0,0)" stroke="none" style="white-space: pre">511.povray_r</tspan></tspan></tspan></text>
 <text class="SVGTextShape"><tspan class="TextParagraph" font-family="Liberation Sans, sans-serif" font-size="353px" font-weight="400"><tspan class="TextPosition" x="1552" y="4731"><tspan fill="rgb(0,0,0)" stroke="none" style="white-space: pre">519.lbm_r</tspan></tspan></tspan></text>
 <text class="SVGTextShape"><tspan class="TextParagraph" font-family="Liberation Sans, sans-serif" font-size="353px" font-weight="400"><tspan class="TextPosition" x="996" y="5533"><tspan fill="rgb(0,0,0)" stroke="none" style="white-space: pre">526.blender_r</tspan></tspan></tspan></text>
 <text class="SVGTextShape"><tspan class="TextParagraph" font-family="Liberation Sans, sans-serif" font-size="353px" font-weight="400"><tspan class="TextPosition" x="1261" y="6335"><tspan fill="rgb(0,0,0)" stroke="none" style="white-space: pre">527.cam4_r</tspan></tspan></tspan></text>
 <text class="SVGTextShape"><tspan class="TextParagraph" font-family="Liberation Sans, sans-serif" font-size="353px" font-weight="400"><tspan class="TextPosition" x="917" y="7137"><tspan fill="rgb(0,0,0)" stroke="none" style="white-space: pre">538.imagick_r</tspan></tspan></tspan></text>
 <text class="SVGTextShape"><tspan class="TextParagraph" font-family="Liberation Sans, sans-serif" font-size="353px" font-weight="400"><tspan class="TextPosition" x="1552" y="7939"><tspan fill="rgb(0,0,0)" stroke="none" style="white-space: pre">544.nab_r</tspan></tspan></tspan></text>
 <text class="SVGTextShape"><tspan class="TextParagraph" font-family="Liberation Sans, sans-serif" font-size="353px" font-weight="400"><tspan class="TextPosition" x="705" y="8741"><tspan fill="rgb(0,0,0)" stroke="none" style="white-space: pre">549.fotonik3d_r</tspan></tspan></tspan></text>
 <text class="SVGTextShape"><tspan class="TextParagraph" font-family="Liberation Sans, sans-serif" font-size="353px" font-weight="400"><tspan class="TextPosition" x="1340" y="9543"><tspan fill="rgb(0,0,0)" stroke="none" style="white-space: pre">554.roms_r</tspan></tspan></tspan></text>
 <text class="SVGTextShape"><tspan class="TextParagraph" font-family="Liberation Sans, sans-serif" font-size="353px" font-weight="400"><tspan class="TextPosition" x="3058" y="10393"><tspan fill="rgb(0,0,0)" stroke="none" style="white-space: pre">0%</tspan></tspan></tspan></text>
 <text class="SVGTextShape"><tspan class="TextParagraph" font-family="Liberation Sans, sans-serif" font-size="353px" font-weight="400"><tspan class="TextPosition" x="3910" y="10393"><tspan fill="rgb(0,0,0)" stroke="none" style="white-space: pre">20%</tspan></tspan></tspan></text>
 <text class="SVGTextShape"><tspan class="TextParagraph" font-family="Liberation Sans, sans-serif" font-size="353px" font-weight="400"><tspan class="TextPosition" x="4855" y="10393"><tspan fill="rgb(0,0,0)" stroke="none" style="white-space: pre">40%</tspan></tspan></tspan></text>
 <text class="SVGTextShape"><tspan class="TextParagraph" font-family="Liberation Sans, sans-serif" font-size="353px" font-weight="400"><tspan class="TextPosition" x="5799" y="10393"><tspan fill="rgb(0,0,0)" stroke="none" style="white-space: pre">60%</tspan></tspan></tspan></text>
 <text class="SVGTextShape"><tspan class="TextParagraph" font-family="Liberation Sans, sans-serif" font-size="353px" font-weight="400"><tspan class="TextPosition" x="6744" y="10393"><tspan fill="rgb(0,0,0)" stroke="none" style="white-space: pre">80%</tspan></tspan></tspan></text>
 <text class="SVGTextShape"><tspan class="TextParagraph" font-family="Liberation Sans, sans-serif" font-size="353px" font-weight="400"><tspan class="TextPosition" x="7595" y="10393"><tspan fill="rgb(0,0,0)" stroke="none" style="white-space: pre">100%</tspan></tspan></tspan></text>
 <text class="SVGTextShape"><tspan class="TextParagraph" font-family="Liberation Sans, sans-serif" font-size="353px" font-weight="400"><tspan class="TextPosition" x="8539" y="10393"><tspan fill="rgb(0,0,0)" stroke="none" style="white-space: pre">120%</tspan></tspan></tspan></text>
 <text class="SVGTextShape"><tspan class="TextParagraph" font-family="Liberation Sans, sans-serif" font-size="353px" font-weight="400"><tspan class="TextPosition" x="9483" y="10393"><tspan fill="rgb(0,0,0)" stroke="none" style="white-space: pre">140%</tspan></tspan></tspan></text>
 <text class="SVGTextShape"><tspan class="TextParagraph" font-family="Liberation Sans, sans-serif" font-size="353px" font-weight="400"><tspan class="TextPosition" x="10428" y="10393"><tspan fill="rgb(0,0,0)" stroke="none" style="white-space: pre">160%</tspan></tspan></tspan></text>
 <text class="SVGTextShape"><tspan class="TextParagraph" font-family="Liberation Sans, sans-serif" font-size="353px" font-weight="400"><tspan class="TextPosition" x="11372" y="10393"><tspan fill="rgb(0,0,0)" stroke="none" style="white-space: pre">180%</tspan></tspan></tspan></text>
 <text class="SVGTextShape"><tspan class="TextParagraph" font-family="Liberation Sans, sans-serif" font-size="353px" font-weight="400"><tspan class="TextPosition" x="12317" y="10393"><tspan fill="rgb(0,0,0)" stroke="none" style="white-space: pre">200%</tspan></tspan></tspan></text>
 <path fill="rgb(222,0,128)" stroke="none" d="M 13734,5939 L 13628,5939 13628,5728 13839,5728 13839,5939 13734,5939 Z"/>
 <path fill="rgb(112,23,108)" stroke="none" d="M 13734,5441 L 13628,5441 13628,5231 13839,5231 13839,5441 13734,5441 Z"/>
 <path fill="rgb(19,148,72)" stroke="none" d="M 13734,4944 L 13628,4944 13628,4733 13839,4733 13839,4944 13734,4944 Z"/>
 <text class="SVGTextShape"><tspan class="TextParagraph" font-family="Liberation Sans, sans-serif" font-size="353px" font-weight="400"><tspan class="TextPosition" x="13939" y="4958"><tspan fill="rgb(0,0,0)" stroke="none" style="white-space: pre">GCC (LTO)</tspan></tspan></tspan></text>
 <text class="SVGTextShape"><tspan class="TextParagraph" font-family="Liberation Sans, sans-serif" font-size="353px" font-weight="400"><tspan class="TextPosition" x="13939" y="5455"><tspan fill="rgb(0,0,0)" stroke="none" style="white-space: pre">ICX (LTO)</tspan></tspan></tspan></text>
 <text class="SVGTextShape"><tspan class="TextParagraph" font-family="Liberation Sans, sans-serif" font-size="353px" font-weight="400"><tspan class="TextPosition" x="13939" y="5953"><tspan fill="rgb(0,0,0)" stroke="none" style="white-space: pre">ICC (LTO)</tspan></tspan></tspan></text>
</svg>