<?xml version="1.0" encoding="UTF-8"?>
<!DOCTYPE svg PUBLIC "-//W3C//DTD SVG 1.1//EN" "http://www.w3.org/Graphics/SVG/1.1/DTD/svg11.dtd">
<svg width="160mm" height="19mm" viewBox="0 0 16000 1900" version="1.1" xmlns="http://www.w3.org/2000/svg" xmlns:xlink="http://www.w3.org/1999/xlink" stroke-width="28.222" stroke-linejoin="round" xml:space="preserve">
 <path fill="rgb(255,255,255)" stroke="none" d="M 8000,1900 L 0,1900 0,107 16000,107 16000,1900 8000,1900 Z"/>
 <path fill="none" stroke="rgb(179,179,179)" stroke-linejoin="round" d="M 6595,1254 L 2264,1254 2264,143 10926,143 10926,1254 6595,1254 Z"/>
 <path fill="none" stroke="rgb(179,179,179)" stroke-linejoin="round" d="M 2264,142 L 2264,1253"/>
 <path fill="none" stroke="rgb(179,179,179)" stroke-linejoin="round" d="M 3996,142 L 3996,1253"/>
 <path fill="none" stroke="rgb(179,179,179)" stroke-linejoin="round" d="M 5729,142 L 5729,1253"/>
 <path fill="none" stroke="rgb(179,179,179)" stroke-linejoin="round" d="M 7461,142 L 7461,1253"/>
 <path fill="none" stroke="rgb(179,179,179)" stroke-linejoin="round" d="M 9193,142 L 9193,1253"/>
 <path fill="none" stroke="rgb(179,179,179)" stroke-linejoin="round" d="M 10926,142 L 10926,1253"/>
 <path fill="none" stroke="rgb(179,179,179)" stroke-linejoin="round" d="M 2114,142 L 2264,142"/>
 <path fill="none" stroke="rgb(179,179,179)" stroke-linejoin="round" d="M 2114,142 L 2264,142"/>
 <path fill="none" stroke="rgb(179,179,179)" stroke-linejoin="round" d="M 2114,1253 L 2264,1253"/>
 <path fill="none" stroke="rgb(179,179,179)" stroke-linejoin="round" d="M 2114,1253 L 2264,1253"/>
 <path fill="none" stroke="rgb(179,179,179)" stroke-linejoin="round" d="M 2264,1253 L 2264,142"/>
 <path fill="none" stroke="rgb(179,179,179)" stroke-linejoin="round" d="M 2264,1394 L 2264,1253"/>
 <path fill="none" stroke="rgb(179,179,179)" stroke-linejoin="round" d="M 2264,0 L 2264,142"/>
 <path fill="none" stroke="rgb(179,179,179)" stroke-linejoin="round" d="M 3996,1394 L 3996,1253"/>
 <path fill="none" stroke="rgb(179,179,179)" stroke-linejoin="round" d="M 3996,0 L 3996,142"/>
 <path fill="none" stroke="rgb(179,179,179)" stroke-linejoin="round" d="M 5729,1394 L 5729,1253"/>
 <path fill="none" stroke="rgb(179,179,179)" stroke-linejoin="round" d="M 5729,0 L 5729,142"/>
 <path fill="none" stroke="rgb(179,179,179)" stroke-linejoin="round" d="M 7461,1394 L 7461,1253"/>
 <path fill="none" stroke="rgb(179,179,179)" stroke-linejoin="round" d="M 7461,0 L 7461,142"/>
 <path fill="none" stroke="rgb(179,179,179)" stroke-linejoin="round" d="M 9193,1394 L 9193,1253"/>
 <path fill="none" stroke="rgb(179,179,179)" stroke-linejoin="round" d="M 9193,0 L 9193,142"/>
 <path fill="none" stroke="rgb(179,179,179)" stroke-linejoin="round" d="M 10926,1394 L 10926,1253"/>
 <path fill="none" stroke="rgb(179,179,179)" stroke-linejoin="round" d="M 10926,0 L 10926,142"/>
 <path fill="none" stroke="rgb(179,179,179)" stroke-linejoin="round" d="M 2264,142 L 10926,142"/>
 <path fill="rgb(19,148,72)" stroke="none" d="M 2264,252 L 2264,475 5729,475 5729,252 2264,252 Z"/>
 <path fill="rgb(12,50,44)" stroke="none" d="M 2264,475 L 2264,697 5729,697 5729,475 2264,475 Z"/>
 <path fill="rgb(255,193,8)" stroke="none" d="M 2264,697 L 2264,919 10075,919 10075,697 2264,697 Z"/>
 <path fill="rgb(0,138,207)" stroke="none" d="M 2264,919 L 2264,1142 9943,1142 9943,919 2264,919 Z"/>
 <text class="SVGTextShape"><tspan class="TextParagraph" font-family="Liberation Sans, sans-serif" font-size="333px" font-weight="400"><tspan class="TextPosition" x="321" y="811"><tspan fill="rgb(0,0,0)" stroke="none">525.x264_r</tspan></tspan></tspan></text>
 <text class="SVGTextShape"><tspan class="TextParagraph" font-family="Liberation Sans, sans-serif" font-size="333px" font-weight="400"><tspan class="TextPosition" x="2012" y="1789"><tspan fill="rgb(0,0,0)" stroke="none">0%</tspan></tspan></tspan></text>
 <text class="SVGTextShape"><tspan class="TextParagraph" font-family="Liberation Sans, sans-serif" font-size="333px" font-weight="400"><tspan class="TextPosition" x="3652" y="1789"><tspan fill="rgb(0,0,0)" stroke="none">50%</tspan></tspan></tspan></text>
 <text class="SVGTextShape"><tspan class="TextParagraph" font-family="Liberation Sans, sans-serif" font-size="333px" font-weight="400"><tspan class="TextPosition" x="5292" y="1789"><tspan fill="rgb(0,0,0)" stroke="none">100%</tspan></tspan></tspan></text>
 <text class="SVGTextShape"><tspan class="TextParagraph" font-family="Liberation Sans, sans-serif" font-size="333px" font-weight="400"><tspan class="TextPosition" x="7024" y="1789"><tspan fill="rgb(0,0,0)" stroke="none">150%</tspan></tspan></tspan></text>
 <text class="SVGTextShape"><tspan class="TextParagraph" font-family="Liberation Sans, sans-serif" font-size="333px" font-weight="400"><tspan class="TextPosition" x="8757" y="1789"><tspan fill="rgb(0,0,0)" stroke="none">200%</tspan></tspan></tspan></text>
 <text class="SVGTextShape"><tspan class="TextParagraph" font-family="Liberation Sans, sans-serif" font-size="333px" font-weight="400"><tspan class="TextPosition" x="10490" y="1789"><tspan fill="rgb(0,0,0)" stroke="none">250%</tspan></tspan></tspan></text>
 <path fill="rgb(19,148,72)" stroke="none" d="M 14091,1337 L 13985,1337 13985,1138 14196,1138 14196,1337 14091,1337 Z"/>
 <path fill="rgb(12,50,44)" stroke="none" d="M 11906,1337 L 11800,1337 11800,1138 12011,1138 12011,1337 11906,1337 Z"/>
 <path fill="rgb(255,193,8)" stroke="none" d="M 14091,867 L 13985,867 13985,668 14196,668 14196,867 14091,867 Z"/>
 <path fill="rgb(0,138,207)" stroke="none" d="M 11906,867 L 11800,867 11800,668 12011,668 12011,867 11906,867 Z"/>
 <text class="SVGTextShape"><tspan class="TextParagraph" font-family="Liberation Sans, sans-serif" font-size="333px" font-weight="400"><tspan class="TextPosition" x="12111" y="880"><tspan fill="rgb(0,0,0)" stroke="none">LTO+PGO</tspan></tspan></tspan></text>
 <text class="SVGTextShape"><tspan class="TextParagraph" font-family="Liberation Sans, sans-serif" font-size="333px" font-weight="400"><tspan class="TextPosition" x="14296" y="880"><tspan fill="rgb(0,0,0)" stroke="none">PGO</tspan></tspan></tspan></text>
 <text class="SVGTextShape"><tspan class="TextParagraph" font-family="Liberation Sans, sans-serif" font-size="333px" font-weight="400"><tspan class="TextPosition" x="12111" y="1350"><tspan fill="rgb(0,0,0)" stroke="none">LTO</tspan></tspan></tspan></text>
 <text class="SVGTextShape"><tspan class="TextParagraph" font-family="Liberation Sans, sans-serif" font-size="333px" font-weight="400"><tspan class="TextPosition" x="14296" y="1350"><tspan fill="rgb(0,0,0)" stroke="none">Standard</tspan></tspan></tspan></text>
</svg>