<?xml version="1.0" encoding="UTF-8"?>
<!DOCTYPE svg PUBLIC "-//W3C//DTD SVG 1.1//EN" "http://www.w3.org/Graphics/SVG/1.1/DTD/svg11.dtd">
<svg width="160mm" height="107mm" viewBox="0 0 16000 10700" version="1.1" xmlns="http://www.w3.org/2000/svg" xmlns:xlink="http://www.w3.org/1999/xlink" stroke-width="28.222" stroke-linejoin="round" xml:space="preserve">
 <path fill="rgb(255,255,255)" stroke="none" d="M 8000,10700 L 0,10700 0,0 15999,0 15999,10700 8000,10700 Z"/>
 <path fill="none" stroke="rgb(179,179,179)" stroke-linejoin="round" d="M 7793,9839 L 3005,9839 3005,214 12581,214 12581,9839 7793,9839 Z"/>
 <path fill="none" stroke="rgb(179,179,179)" stroke-linejoin="round" d="M 3005,212 L 3005,9838"/>
 <path fill="none" stroke="rgb(179,179,179)" stroke-linejoin="round" d="M 4202,212 L 4202,9838"/>
 <path fill="none" stroke="rgb(179,179,179)" stroke-linejoin="round" d="M 5399,212 L 5399,9838"/>
 <path fill="none" stroke="rgb(179,179,179)" stroke-linejoin="round" d="M 6596,212 L 6596,9838"/>
 <path fill="none" stroke="rgb(179,179,179)" stroke-linejoin="round" d="M 7793,212 L 7793,9838"/>
 <path fill="none" stroke="rgb(179,179,179)" stroke-linejoin="round" d="M 8989,212 L 8989,9838"/>
 <path fill="none" stroke="rgb(179,179,179)" stroke-linejoin="round" d="M 10186,212 L 10186,9838"/>
 <path fill="none" stroke="rgb(179,179,179)" stroke-linejoin="round" d="M 11383,212 L 11383,9838"/>
 <path fill="none" stroke="rgb(179,179,179)" stroke-linejoin="round" d="M 12581,212 L 12581,9838"/>
 <path fill="none" stroke="rgb(179,179,179)" stroke-linejoin="round" d="M 2855,213 L 3005,213"/>
 <path fill="none" stroke="rgb(179,179,179)" stroke-linejoin="round" d="M 2855,213 L 3005,213"/>
 <path fill="none" stroke="rgb(179,179,179)" stroke-linejoin="round" d="M 2855,1175 L 3005,1175"/>
 <path fill="none" stroke="rgb(179,179,179)" stroke-linejoin="round" d="M 2855,1175 L 3005,1175"/>
 <path fill="none" stroke="rgb(179,179,179)" stroke-linejoin="round" d="M 2855,2138 L 3005,2138"/>
 <path fill="none" stroke="rgb(179,179,179)" stroke-linejoin="round" d="M 2855,2138 L 3005,2138"/>
 <path fill="none" stroke="rgb(179,179,179)" stroke-linejoin="round" d="M 2855,3100 L 3005,3100"/>
 <path fill="none" stroke="rgb(179,179,179)" stroke-linejoin="round" d="M 2855,3100 L 3005,3100"/>
 <path fill="none" stroke="rgb(179,179,179)" stroke-linejoin="round" d="M 2855,4063 L 3005,4063"/>
 <path fill="none" stroke="rgb(179,179,179)" stroke-linejoin="round" d="M 2855,4063 L 3005,4063"/>
 <path fill="none" stroke="rgb(179,179,179)" stroke-linejoin="round" d="M 2855,5026 L 3005,5026"/>
 <path fill="none" stroke="rgb(179,179,179)" stroke-linejoin="round" d="M 2855,5026 L 3005,5026"/>
 <path fill="none" stroke="rgb(179,179,179)" stroke-linejoin="round" d="M 2855,5987 L 3005,5987"/>
 <path fill="none" stroke="rgb(179,179,179)" stroke-linejoin="round" d="M 2855,5987 L 3005,5987"/>
 <path fill="none" stroke="rgb(179,179,179)" stroke-linejoin="round" d="M 2855,6950 L 3005,6950"/>
 <path fill="none" stroke="rgb(179,179,179)" stroke-linejoin="round" d="M 2855,6950 L 3005,6950"/>
 <path fill="none" stroke="rgb(179,179,179)" stroke-linejoin="round" d="M 2855,7912 L 3005,7912"/>
 <path fill="none" stroke="rgb(179,179,179)" stroke-linejoin="round" d="M 2855,7912 L 3005,7912"/>
 <path fill="none" stroke="rgb(179,179,179)" stroke-linejoin="round" d="M 2855,8875 L 3005,8875"/>
 <path fill="none" stroke="rgb(179,179,179)" stroke-linejoin="round" d="M 2855,8875 L 3005,8875"/>
 <path fill="none" stroke="rgb(179,179,179)" stroke-linejoin="round" d="M 2855,9838 L 3005,9838"/>
 <path fill="none" stroke="rgb(179,179,179)" stroke-linejoin="round" d="M 2855,9838 L 3005,9838"/>
 <path fill="none" stroke="rgb(179,179,179)" stroke-linejoin="round" d="M 3005,9838 L 3005,212"/>
 <path fill="none" stroke="rgb(179,179,179)" stroke-linejoin="round" d="M 3005,9988 L 3005,9838"/>
 <path fill="none" stroke="rgb(179,179,179)" stroke-linejoin="round" d="M 3005,62 L 3005,212"/>
 <path fill="none" stroke="rgb(179,179,179)" stroke-linejoin="round" d="M 4202,9988 L 4202,9838"/>
 <path fill="none" stroke="rgb(179,179,179)" stroke-linejoin="round" d="M 4202,62 L 4202,212"/>
 <path fill="none" stroke="rgb(179,179,179)" stroke-linejoin="round" d="M 5399,9988 L 5399,9838"/>
 <path fill="none" stroke="rgb(179,179,179)" stroke-linejoin="round" d="M 5399,62 L 5399,212"/>
 <path fill="none" stroke="rgb(179,179,179)" stroke-linejoin="round" d="M 6596,9988 L 6596,9838"/>
 <path fill="none" stroke="rgb(179,179,179)" stroke-linejoin="round" d="M 6596,62 L 6596,212"/>
 <path fill="none" stroke="rgb(179,179,179)" stroke-linejoin="round" d="M 7793,9988 L 7793,9838"/>
 <path fill="none" stroke="rgb(179,179,179)" stroke-linejoin="round" d="M 7793,62 L 7793,212"/>
 <path fill="none" stroke="rgb(179,179,179)" stroke-linejoin="round" d="M 8989,9988 L 8989,9838"/>
 <path fill="none" stroke="rgb(179,179,179)" stroke-linejoin="round" d="M 8989,62 L 8989,212"/>
 <path fill="none" stroke="rgb(179,179,179)" stroke-linejoin="round" d="M 10186,9988 L 10186,9838"/>
 <path fill="none" stroke="rgb(179,179,179)" stroke-linejoin="round" d="M 10186,62 L 10186,212"/>
 <path fill="none" stroke="rgb(179,179,179)" stroke-linejoin="round" d="M 11383,9988 L 11383,9838"/>
 <path fill="none" stroke="rgb(179,179,179)" stroke-linejoin="round" d="M 11383,62 L 11383,212"/>
 <path fill="none" stroke="rgb(179,179,179)" stroke-linejoin="round" d="M 12581,9988 L 12581,9838"/>
 <path fill="none" stroke="rgb(179,179,179)" stroke-linejoin="round" d="M 12581,62 L 12581,212"/>
 <path fill="none" stroke="rgb(179,179,179)" stroke-linejoin="round" d="M 3005,212 L 12581,212"/>
 <path fill="rgb(222,0,128)" stroke="none" d="M 3005,8971 L 3005,9164 8989,9164 8989,8971 3005,8971 Z"/>
 <path fill="rgb(222,0,128)" stroke="none" d="M 3005,8009 L 3005,8201 8989,8201 8989,8009 3005,8009 Z"/>
 <path fill="rgb(222,0,128)" stroke="none" d="M 3005,7046 L 3005,7238 8989,7238 8989,7046 3005,7046 Z"/>
 <path fill="rgb(222,0,128)" stroke="none" d="M 3005,6083 L 3005,6276 8989,6276 8989,6083 3005,6083 Z"/>
 <path fill="rgb(222,0,128)" stroke="none" d="M 3005,5122 L 3005,5314 8989,5314 8989,5122 3005,5122 Z"/>
 <path fill="rgb(222,0,128)" stroke="none" d="M 3005,4159 L 3005,4352 8989,4352 8989,4159 3005,4159 Z"/>
 <path fill="rgb(222,0,128)" stroke="none" d="M 3005,3197 L 3005,3389 8989,3389 8989,3197 3005,3197 Z"/>
 <path fill="rgb(222,0,128)" stroke="none" d="M 3005,2234 L 3005,2426 8989,2426 8989,2234 3005,2234 Z"/>
 <path fill="rgb(222,0,128)" stroke="none" d="M 3005,1271 L 3005,1464 8989,1464 8989,1271 3005,1271 Z"/>
 <path fill="rgb(222,0,128)" stroke="none" d="M 3005,309 L 3005,501 8989,501 8989,309 3005,309 Z"/>
 <path fill="rgb(112,23,108)" stroke="none" d="M 3005,9164 L 3005,9356 9005,9356 9005,9164 3005,9164 Z"/>
 <path fill="rgb(112,23,108)" stroke="none" d="M 3005,8201 L 3005,8394 11747,8394 11747,8201 3005,8201 Z"/>
 <path fill="rgb(112,23,108)" stroke="none" d="M 3005,7238 L 3005,7431 9650,7431 9650,7238 3005,7238 Z"/>
 <path fill="rgb(112,23,108)" stroke="none" d="M 3005,6276 L 3005,6468 9808,6468 9808,6276 3005,6276 Z"/>
 <path fill="rgb(112,23,108)" stroke="none" d="M 3005,5314 L 3005,5506 9091,5506 9091,5314 3005,5314 Z"/>
 <path fill="rgb(112,23,108)" stroke="none" d="M 3005,4352 L 3005,4544 9353,4544 9353,4352 3005,4352 Z"/>
 <path fill="rgb(112,23,108)" stroke="none" d="M 3005,3389 L 3005,3582 9210,3582 9210,3389 3005,3389 Z"/>
 <path fill="rgb(112,23,108)" stroke="none" d="M 3005,2426 L 3005,2619 10244,2619 10244,2426 3005,2426 Z"/>
 <path fill="rgb(112,23,108)" stroke="none" d="M 3005,1464 L 3005,1656 9067,1656 9067,1464 3005,1464 Z"/>
 <path fill="rgb(112,23,108)" stroke="none" d="M 3005,501 L 3005,694 9133,694 9133,501 3005,501 Z"/>
 <path fill="rgb(19,148,72)" stroke="none" d="M 3005,9356 L 3005,9549 9038,9549 9038,9356 3005,9356 Z"/>
 <path fill="rgb(19,148,72)" stroke="none" d="M 3005,8394 L 3005,8586 10642,8586 10642,8394 3005,8394 Z"/>
 <path fill="rgb(19,148,72)" stroke="none" d="M 3005,7431 L 3005,7624 8989,7624 8989,7431 3005,7431 Z"/>
 <path fill="rgb(19,148,72)" stroke="none" d="M 3005,6468 L 3005,6661 9029,6661 9029,6468 3005,6468 Z"/>
 <path fill="rgb(19,148,72)" stroke="none" d="M 3005,5506 L 3005,5698 9175,5698 9175,5506 3005,5506 Z"/>
 <path fill="rgb(19,148,72)" stroke="none" d="M 3005,4544 L 3005,4737 9148,4737 9148,4544 3005,4544 Z"/>
 <path fill="rgb(19,148,72)" stroke="none" d="M 3005,3582 L 3005,3774 9962,3774 9962,3582 3005,3582 Z"/>
 <path fill="rgb(19,148,72)" stroke="none" d="M 3005,2619 L 3005,2812 8900,2812 8900,2619 3005,2619 Z"/>
 <path fill="rgb(19,148,72)" stroke="none" d="M 3005,1656 L 3005,1849 9368,1849 9368,1656 3005,1656 Z"/>
 <path fill="rgb(19,148,72)" stroke="none" d="M 3005,694 L 3005,886 9658,886 9658,694 3005,694 Z"/>
 <path fill="rgb(12,50,44)" stroke="none" d="M 3005,9549 L 3005,9741 9038,9741 9038,9549 3005,9549 Z"/>
 <path fill="rgb(12,50,44)" stroke="none" d="M 3005,8586 L 3005,8779 11432,8779 11432,8586 3005,8586 Z"/>
 <path fill="rgb(12,50,44)" stroke="none" d="M 3005,7624 L 3005,7816 9777,7816 9777,7624 3005,7624 Z"/>
 <path fill="rgb(12,50,44)" stroke="none" d="M 3005,6661 L 3005,6853 9650,6853 9650,6661 3005,6661 Z"/>
 <path fill="rgb(12,50,44)" stroke="none" d="M 3005,5698 L 3005,5891 9187,5891 9187,5698 3005,5698 Z"/>
 <path fill="rgb(12,50,44)" stroke="none" d="M 3005,4737 L 3005,4929 9478,4929 9478,4737 3005,4737 Z"/>
 <path fill="rgb(12,50,44)" stroke="none" d="M 3005,3774 L 3005,3967 10434,3967 10434,3774 3005,3774 Z"/>
 <path fill="rgb(12,50,44)" stroke="none" d="M 3005,2812 L 3005,3004 9889,3004 9889,2812 3005,2812 Z"/>
 <path fill="rgb(12,50,44)" stroke="none" d="M 3005,1849 L 3005,2041 9592,2041 9592,1849 3005,1849 Z"/>
 <path fill="rgb(12,50,44)" stroke="none" d="M 3005,886 L 3005,1079 9853,1079 9853,886 3005,886 Z"/>
 <text class="SVGTextShape"><tspan class="TextParagraph" font-family="Liberation Sans, sans-serif" font-size="353px" font-weight="400"><tspan class="TextPosition" x="321" y="814"><tspan fill="rgb(0,0,0)" stroke="none">500.perlbench_r</tspan></tspan></tspan></text>
 <text class="SVGTextShape"><tspan class="TextParagraph" font-family="Liberation Sans, sans-serif" font-size="353px" font-weight="400"><tspan class="TextPosition" x="1247" y="1776"><tspan fill="rgb(0,0,0)" stroke="none">502.gcc_r</tspan></tspan></tspan></text>
 <text class="SVGTextShape"><tspan class="TextParagraph" font-family="Liberation Sans, sans-serif" font-size="353px" font-weight="400"><tspan class="TextPosition" x="1220" y="2739"><tspan fill="rgb(0,0,0)" stroke="none">505.mcf_r</tspan></tspan></tspan></text>
 <text class="SVGTextShape"><tspan class="TextParagraph" font-family="Liberation Sans, sans-serif" font-size="353px" font-weight="400"><tspan class="TextPosition" x="480" y="3702"><tspan fill="rgb(0,0,0)" stroke="none">520.omnetpp_r</tspan></tspan></tspan></text>
 <text class="SVGTextShape"><tspan class="TextParagraph" font-family="Liberation Sans, sans-serif" font-size="353px" font-weight="400"><tspan class="TextPosition" x="136" y="4664"><tspan fill="rgb(0,0,0)" stroke="none">523.xalancbmk_r</tspan></tspan></tspan></text>
 <text class="SVGTextShape"><tspan class="TextParagraph" font-family="Liberation Sans, sans-serif" font-size="353px" font-weight="400"><tspan class="TextPosition" x="1062" y="5627"><tspan fill="rgb(0,0,0)" stroke="none">525.x264_r</tspan></tspan></tspan></text>
 <text class="SVGTextShape"><tspan class="TextParagraph" font-family="Liberation Sans, sans-serif" font-size="353px" font-weight="400"><tspan class="TextPosition" x="241" y="6589"><tspan fill="rgb(0,0,0)" stroke="none">531.deepsjeng_r</tspan></tspan></tspan></text>
 <text class="SVGTextShape"><tspan class="TextParagraph" font-family="Liberation Sans, sans-serif" font-size="353px" font-weight="400"><tspan class="TextPosition" x="1088" y="7552"><tspan fill="rgb(0,0,0)" stroke="none">541.leela_r</tspan></tspan></tspan></text>
 <text class="SVGTextShape"><tspan class="TextParagraph" font-family="Liberation Sans, sans-serif" font-size="353px" font-weight="400"><tspan class="TextPosition" x="136" y="8515"><tspan fill="rgb(0,0,0)" stroke="none">548.exchange2_r</tspan></tspan></tspan></text>
 <text class="SVGTextShape"><tspan class="TextParagraph" font-family="Liberation Sans, sans-serif" font-size="353px" font-weight="400"><tspan class="TextPosition" x="1432" y="9477"><tspan fill="rgb(0,0,0)" stroke="none">557.xz_r</tspan></tspan></tspan></text>
 <text class="SVGTextShape"><tspan class="TextParagraph" font-family="Liberation Sans, sans-serif" font-size="353px" font-weight="400"><tspan class="TextPosition" x="2753" y="10406"><tspan fill="rgb(0,0,0)" stroke="none">0%</tspan></tspan></tspan></text>
 <text class="SVGTextShape"><tspan class="TextParagraph" font-family="Liberation Sans, sans-serif" font-size="353px" font-weight="400"><tspan class="TextPosition" x="3858" y="10406"><tspan fill="rgb(0,0,0)" stroke="none">20%</tspan></tspan></tspan></text>
 <text class="SVGTextShape"><tspan class="TextParagraph" font-family="Liberation Sans, sans-serif" font-size="353px" font-weight="400"><tspan class="TextPosition" x="5055" y="10406"><tspan fill="rgb(0,0,0)" stroke="none">40%</tspan></tspan></tspan></text>
 <text class="SVGTextShape"><tspan class="TextParagraph" font-family="Liberation Sans, sans-serif" font-size="353px" font-weight="400"><tspan class="TextPosition" x="6252" y="10406"><tspan fill="rgb(0,0,0)" stroke="none">60%</tspan></tspan></tspan></text>
 <text class="SVGTextShape"><tspan class="TextParagraph" font-family="Liberation Sans, sans-serif" font-size="353px" font-weight="400"><tspan class="TextPosition" x="7449" y="10406"><tspan fill="rgb(0,0,0)" stroke="none">80%</tspan></tspan></tspan></text>
 <text class="SVGTextShape"><tspan class="TextParagraph" font-family="Liberation Sans, sans-serif" font-size="353px" font-weight="400"><tspan class="TextPosition" x="8553" y="10406"><tspan fill="rgb(0,0,0)" stroke="none">100%</tspan></tspan></tspan></text>
 <text class="SVGTextShape"><tspan class="TextParagraph" font-family="Liberation Sans, sans-serif" font-size="353px" font-weight="400"><tspan class="TextPosition" x="9750" y="10406"><tspan fill="rgb(0,0,0)" stroke="none">120%</tspan></tspan></tspan></text>
 <text class="SVGTextShape"><tspan class="TextParagraph" font-family="Liberation Sans, sans-serif" font-size="353px" font-weight="400"><tspan class="TextPosition" x="10947" y="10406"><tspan fill="rgb(0,0,0)" stroke="none">140%</tspan></tspan></tspan></text>
 <text class="SVGTextShape"><tspan class="TextParagraph" font-family="Liberation Sans, sans-serif" font-size="353px" font-weight="400"><tspan class="TextPosition" x="12145" y="10406"><tspan fill="rgb(0,0,0)" stroke="none">160%</tspan></tspan></tspan></text>
 <path fill="rgb(222,0,128)" stroke="none" d="M 13746,6201 L 13640,6201 13640,5990 13851,5990 13851,6201 13746,6201 Z"/>
 <path fill="rgb(112,23,108)" stroke="none" d="M 13746,5703 L 13640,5703 13640,5492 13851,5492 13851,5703 13746,5703 Z"/>
 <path fill="rgb(19,148,72)" stroke="none" d="M 13746,5206 L 13640,5206 13640,4995 13851,4995 13851,5206 13746,5206 Z"/>
 <path fill="rgb(12,50,44)" stroke="none" d="M 13746,4708 L 13640,4708 13640,4497 13851,4497 13851,4708 13746,4708 Z"/>
 <text class="SVGTextShape"><tspan class="TextParagraph" font-family="Liberation Sans, sans-serif" font-size="353px" font-weight="400"><tspan class="TextPosition" x="13951" y="4722"><tspan fill="rgb(0,0,0)" stroke="none">GCC (LTO)</tspan></tspan></tspan></text>
 <text class="SVGTextShape"><tspan class="TextParagraph" font-family="Liberation Sans, sans-serif" font-size="353px" font-weight="400"><tspan class="TextPosition" x="13951" y="5220"><tspan fill="rgb(0,0,0)" stroke="none">GCC</tspan></tspan></tspan></text>
 <text class="SVGTextShape"><tspan class="TextParagraph" font-family="Liberation Sans, sans-serif" font-size="353px" font-weight="400"><tspan class="TextPosition" x="13951" y="5717"><tspan fill="rgb(0,0,0)" stroke="none">ICC (LTO)</tspan></tspan></tspan></text>
 <text class="SVGTextShape"><tspan class="TextParagraph" font-family="Liberation Sans, sans-serif" font-size="353px" font-weight="400"><tspan class="TextPosition" x="13951" y="6215"><tspan fill="rgb(0,0,0)" stroke="none">ICC</tspan></tspan></tspan></text>
</svg>