<?xml version="1.0" encoding="UTF-8"?>
<!DOCTYPE svg PUBLIC "-//W3C//DTD SVG 1.1//EN" "http://www.w3.org/Graphics/SVG/1.1/DTD/svg11.dtd">
<svg width="160mm" height="19mm" viewBox="0 0 16000 1900" version="1.1" xmlns="http://www.w3.org/2000/svg" xmlns:xlink="http://www.w3.org/1999/xlink" stroke-width="28.222" stroke-linejoin="round" xml:space="preserve">
 <path fill="rgb(255,255,255)" stroke="none" d="M 7987,1887 L -13,1887 -13,94 15987,94 15987,1887 7987,1887 Z"/>
 <path fill="none" stroke="rgb(179,179,179)" stroke-linejoin="round" d="M 6093,1241 L 2251,1241 2251,130 9934,130 9934,1241 6093,1241 Z"/>
 <path fill="none" stroke="rgb(179,179,179)" stroke-linejoin="round" d="M 2251,129 L 2251,1240"/>
 <path fill="none" stroke="rgb(179,179,179)" stroke-linejoin="round" d="M 3531,129 L 3531,1240"/>
 <path fill="none" stroke="rgb(179,179,179)" stroke-linejoin="round" d="M 4812,129 L 4812,1240"/>
 <path fill="none" stroke="rgb(179,179,179)" stroke-linejoin="round" d="M 6093,129 L 6093,1240"/>
 <path fill="none" stroke="rgb(179,179,179)" stroke-linejoin="round" d="M 7373,129 L 7373,1240"/>
 <path fill="none" stroke="rgb(179,179,179)" stroke-linejoin="round" d="M 8653,129 L 8653,1240"/>
 <path fill="none" stroke="rgb(179,179,179)" stroke-linejoin="round" d="M 9934,129 L 9934,1240"/>
 <path fill="none" stroke="rgb(179,179,179)" stroke-linejoin="round" d="M 2101,129 L 2251,129"/>
 <path fill="none" stroke="rgb(179,179,179)" stroke-linejoin="round" d="M 2101,129 L 2251,129"/>
 <path fill="none" stroke="rgb(179,179,179)" stroke-linejoin="round" d="M 2101,1240 L 2251,1240"/>
 <path fill="none" stroke="rgb(179,179,179)" stroke-linejoin="round" d="M 2101,1240 L 2251,1240"/>
 <path fill="none" stroke="rgb(179,179,179)" stroke-linejoin="round" d="M 2251,1240 L 2251,129"/>
 <path fill="none" stroke="rgb(179,179,179)" stroke-linejoin="round" d="M 2251,1381 L 2251,1240"/>
 <path fill="none" stroke="rgb(179,179,179)" stroke-linejoin="round" d="M 2251,-13 L 2251,129"/>
 <path fill="none" stroke="rgb(179,179,179)" stroke-linejoin="round" d="M 3531,1381 L 3531,1240"/>
 <path fill="none" stroke="rgb(179,179,179)" stroke-linejoin="round" d="M 3531,-13 L 3531,129"/>
 <path fill="none" stroke="rgb(179,179,179)" stroke-linejoin="round" d="M 4812,1381 L 4812,1240"/>
 <path fill="none" stroke="rgb(179,179,179)" stroke-linejoin="round" d="M 4812,-13 L 4812,129"/>
 <path fill="none" stroke="rgb(179,179,179)" stroke-linejoin="round" d="M 6093,1381 L 6093,1240"/>
 <path fill="none" stroke="rgb(179,179,179)" stroke-linejoin="round" d="M 6093,-13 L 6093,129"/>
 <path fill="none" stroke="rgb(179,179,179)" stroke-linejoin="round" d="M 7373,1381 L 7373,1240"/>
 <path fill="none" stroke="rgb(179,179,179)" stroke-linejoin="round" d="M 7373,-13 L 7373,129"/>
 <path fill="none" stroke="rgb(179,179,179)" stroke-linejoin="round" d="M 8653,1381 L 8653,1240"/>
 <path fill="none" stroke="rgb(179,179,179)" stroke-linejoin="round" d="M 8653,-13 L 8653,129"/>
 <path fill="none" stroke="rgb(179,179,179)" stroke-linejoin="round" d="M 9934,1381 L 9934,1240"/>
 <path fill="none" stroke="rgb(179,179,179)" stroke-linejoin="round" d="M 9934,-13 L 9934,129"/>
 <path fill="none" stroke="rgb(179,179,179)" stroke-linejoin="round" d="M 2251,129 L 9934,129"/>
 <path fill="rgb(220,53,69)" stroke="none" d="M 2251,239 L 2251,462 8653,462 8653,239 2251,239 Z"/>
 <path fill="rgb(255,158,2)" stroke="none" d="M 2251,462 L 2251,684 9041,684 9041,462 2251,462 Z"/>
 <path fill="rgb(12,50,44)" stroke="none" d="M 2251,684 L 2251,906 9169,906 9169,684 2251,684 Z"/>
 <path fill="rgb(19,148,72)" stroke="none" d="M 2251,906 L 2251,1129 9169,1129 9169,906 2251,906 Z"/>
 <text class="SVGTextShape"><tspan class="TextParagraph" font-family="Liberation Sans, sans-serif" font-size="353px" font-weight="400"><tspan class="TextPosition" x="308" y="798"><tspan font-size="333px" fill="rgb(0,0,0)" stroke="none" style="white-space: pre">525.x264_r</tspan></tspan></tspan></text>
 <text class="SVGTextShape"><tspan class="TextParagraph" font-family="Liberation Sans, sans-serif" font-size="353px" font-weight="400"><tspan class="TextPosition" x="1999" y="1776"><tspan font-size="333px" fill="rgb(0,0,0)" stroke="none" style="white-space: pre">0%</tspan></tspan></tspan></text>
 <text class="SVGTextShape"><tspan class="TextParagraph" font-family="Liberation Sans, sans-serif" font-size="353px" font-weight="400"><tspan class="TextPosition" x="3187" y="1776"><tspan font-size="333px" fill="rgb(0,0,0)" stroke="none" style="white-space: pre">20%</tspan></tspan></tspan></text>
 <text class="SVGTextShape"><tspan class="TextParagraph" font-family="Liberation Sans, sans-serif" font-size="353px" font-weight="400"><tspan class="TextPosition" x="4468" y="1776"><tspan font-size="333px" fill="rgb(0,0,0)" stroke="none" style="white-space: pre">40%</tspan></tspan></tspan></text>
 <text class="SVGTextShape"><tspan class="TextParagraph" font-family="Liberation Sans, sans-serif" font-size="353px" font-weight="400"><tspan class="TextPosition" x="5749" y="1776"><tspan font-size="333px" fill="rgb(0,0,0)" stroke="none" style="white-space: pre">60%</tspan></tspan></tspan></text>
 <text class="SVGTextShape"><tspan class="TextParagraph" font-family="Liberation Sans, sans-serif" font-size="353px" font-weight="400"><tspan class="TextPosition" x="7029" y="1776"><tspan font-size="333px" fill="rgb(0,0,0)" stroke="none" style="white-space: pre">80%</tspan></tspan></tspan></text>
 <text class="SVGTextShape"><tspan class="TextParagraph" font-family="Liberation Sans, sans-serif" font-size="353px" font-weight="400"><tspan class="TextPosition" x="8216" y="1776"><tspan font-size="333px" fill="rgb(0,0,0)" stroke="none" style="white-space: pre">100%</tspan></tspan></tspan></text>
 <text class="SVGTextShape"><tspan class="TextParagraph" font-family="Liberation Sans, sans-serif" font-size="353px" font-weight="400"><tspan class="TextPosition" x="9497" y="1776"><tspan font-size="333px" fill="rgb(0,0,0)" stroke="none" style="white-space: pre">120%</tspan></tspan></tspan></text>
 <path fill="rgb(220,53,69)" stroke="none" d="M 13840,1324 L 13734,1324 13734,1125 13945,1125 13945,1324 13840,1324 Z"/>
 <path fill="rgb(255,158,2)" stroke="none" d="M 10914,1324 L 10808,1324 10808,1125 11019,1125 11019,1324 10914,1324 Z"/>
 <path fill="rgb(12,50,44)" stroke="none" d="M 13840,854 L 13734,854 13734,655 13945,655 13945,854 13840,854 Z"/>
 <path fill="rgb(19,148,72)" stroke="none" d="M 10914,854 L 10808,854 10808,655 11019,655 11019,854 10914,854 Z"/>
 <text class="SVGTextShape"><tspan class="TextParagraph" font-family="Liberation Sans, sans-serif" font-size="353px" font-weight="400"><tspan class="TextPosition" x="11119" y="868"><tspan font-size="333px" fill="rgb(0,0,0)" stroke="none" style="white-space: pre">GCC (LTO-128)</tspan></tspan></tspan></text>
 <text class="SVGTextShape"><tspan class="TextParagraph" font-family="Liberation Sans, sans-serif" font-size="353px" font-weight="400"><tspan class="TextPosition" x="14045" y="868"><tspan font-size="333px" fill="rgb(0,0,0)" stroke="none" style="white-space: pre">GCC (128)</tspan></tspan></tspan></text>
 <text class="SVGTextShape"><tspan class="TextParagraph" font-family="Liberation Sans, sans-serif" font-size="353px" font-weight="400"><tspan class="TextPosition" x="11119" y="1337"><tspan font-size="333px" fill="rgb(0,0,0)" stroke="none" style="white-space: pre">LLVM  (LTO)</tspan></tspan></tspan></text>
 <text class="SVGTextShape"><tspan class="TextParagraph" font-family="Liberation Sans, sans-serif" font-size="353px" font-weight="400"><tspan class="TextPosition" x="14045" y="1337"><tspan font-size="333px" fill="rgb(0,0,0)" stroke="none" style="white-space: pre">LLVM </tspan></tspan></tspan></text>
</svg>