<?xml version="1.0" encoding="UTF-8"?>
<!DOCTYPE svg PUBLIC "-//W3C//DTD SVG 1.1//EN" "http://www.w3.org/Graphics/SVG/1.1/DTD/svg11.dtd">
<svg width="160mm" height="70mm" viewBox="0 0 16000 7000" version="1.1" xmlns="http://www.w3.org/2000/svg" xmlns:xlink="http://www.w3.org/1999/xlink" stroke-width="28.222" stroke-linejoin="round" xml:space="preserve">
 <path fill="rgb(255,255,255)" stroke="none" d="M 7987,6987 L -13,6987 -13,-13 15987,-13 15987,6987 7987,6987 Z"/>
 <path fill="none" stroke="rgb(179,179,179)" stroke-linejoin="round" d="M 7296,6649 L 1438,6649 1438,326 13154,326 13154,6649 7296,6649 Z"/>
 <path fill="none" stroke="rgb(179,179,179)" stroke-linejoin="round" d="M 13154,6648 L 1438,6648"/>
 <path fill="none" stroke="rgb(179,179,179)" stroke-linejoin="round" d="M 13154,5383 L 1438,5383"/>
 <path fill="none" stroke="rgb(179,179,179)" stroke-linejoin="round" d="M 13154,4118 L 1438,4118"/>
 <path fill="none" stroke="rgb(179,179,179)" stroke-linejoin="round" d="M 13154,2854 L 1438,2854"/>
 <path fill="none" stroke="rgb(179,179,179)" stroke-linejoin="round" d="M 13154,1589 L 1438,1589"/>
 <path fill="none" stroke="rgb(179,179,179)" stroke-linejoin="round" d="M 13154,325 L 1438,325"/>
 <path fill="none" stroke="rgb(179,179,179)" stroke-linejoin="round" d="M 1438,6798 L 1438,6648"/>
 <path fill="none" stroke="rgb(179,179,179)" stroke-linejoin="round" d="M 1438,6798 L 1438,6648"/>
 <path fill="none" stroke="rgb(179,179,179)" stroke-linejoin="round" d="M 13154,6798 L 13154,6648"/>
 <path fill="none" stroke="rgb(179,179,179)" stroke-linejoin="round" d="M 13154,6798 L 13154,6648"/>
 <path fill="none" stroke="rgb(179,179,179)" stroke-linejoin="round" d="M 1438,6648 L 13154,6648"/>
 <path fill="none" stroke="rgb(179,179,179)" stroke-linejoin="round" d="M 1288,6648 L 1438,6648"/>
 <path fill="none" stroke="rgb(179,179,179)" stroke-linejoin="round" d="M 1288,6648 L 1438,6648"/>
 <path fill="none" stroke="rgb(179,179,179)" stroke-linejoin="round" d="M 1288,5383 L 1438,5383"/>
 <path fill="none" stroke="rgb(179,179,179)" stroke-linejoin="round" d="M 1288,5383 L 1438,5383"/>
 <path fill="none" stroke="rgb(179,179,179)" stroke-linejoin="round" d="M 1288,4118 L 1438,4118"/>
 <path fill="none" stroke="rgb(179,179,179)" stroke-linejoin="round" d="M 1288,4118 L 1438,4118"/>
 <path fill="none" stroke="rgb(179,179,179)" stroke-linejoin="round" d="M 1288,2854 L 1438,2854"/>
 <path fill="none" stroke="rgb(179,179,179)" stroke-linejoin="round" d="M 1288,2854 L 1438,2854"/>
 <path fill="none" stroke="rgb(179,179,179)" stroke-linejoin="round" d="M 1288,1589 L 1438,1589"/>
 <path fill="none" stroke="rgb(179,179,179)" stroke-linejoin="round" d="M 1288,1589 L 1438,1589"/>
 <path fill="none" stroke="rgb(179,179,179)" stroke-linejoin="round" d="M 1288,325 L 1438,325"/>
 <path fill="none" stroke="rgb(179,179,179)" stroke-linejoin="round" d="M 1288,325 L 1438,325"/>
 <path fill="none" stroke="rgb(179,179,179)" stroke-linejoin="round" d="M 1438,6648 L 1438,325"/>
 <path fill="rgb(222,0,128)" stroke="none" d="M 2609,6648 L 4953,6648 4953,4118 2609,4118 2609,6648 Z"/>
 <path fill="rgb(112,23,108)" stroke="none" d="M 4953,6648 L 7296,6648 7296,3262 4953,3262 4953,6648 Z"/>
 <path fill="rgb(12,50,44)" stroke="none" d="M 7296,6648 L 9638,6648 9638,2260 7296,2260 7296,6648 Z"/>
 <path fill="rgb(19,148,72)" stroke="none" d="M 9638,6648 L 11982,6648 11982,2005 9638,2005 9638,6648 Z"/>
 <text class="SVGTextShape"><tspan class="TextParagraph"><tspan class="TextPosition" x="500" y="6769"><tspan font-family="Liberation Sans, sans-serif" font-size="353px" font-weight="400" fill="rgb(0,0,0)" stroke="none" style="white-space: pre">80%</tspan></tspan></tspan></text>
 <text class="SVGTextShape"><tspan class="TextParagraph"><tspan class="TextPosition" x="500" y="5504"><tspan font-family="Liberation Sans, sans-serif" font-size="353px" font-weight="400" fill="rgb(0,0,0)" stroke="none" style="white-space: pre">90%</tspan></tspan></tspan></text>
 <text class="SVGTextShape"><tspan class="TextParagraph"><tspan class="TextPosition" x="308" y="4239"><tspan font-family="Liberation Sans, sans-serif" font-size="353px" font-weight="400" fill="rgb(0,0,0)" stroke="none" style="white-space: pre">100%</tspan></tspan></tspan></text>
 <text class="SVGTextShape"><tspan class="TextParagraph"><tspan class="TextPosition" x="308" y="2975"><tspan font-family="Liberation Sans, sans-serif" font-size="353px" font-weight="400" fill="rgb(0,0,0)" stroke="none" style="white-space: pre">110%</tspan></tspan></tspan></text>
 <text class="SVGTextShape"><tspan class="TextParagraph"><tspan class="TextPosition" x="308" y="1710"><tspan font-family="Liberation Sans, sans-serif" font-size="353px" font-weight="400" fill="rgb(0,0,0)" stroke="none" style="white-space: pre">120%</tspan></tspan></tspan></text>
 <text class="SVGTextShape"><tspan class="TextParagraph"><tspan class="TextPosition" x="308" y="446"><tspan font-family="Liberation Sans, sans-serif" font-size="353px" font-weight="400" fill="rgb(0,0,0)" stroke="none" style="white-space: pre">130%</tspan></tspan></tspan></text>
 <path fill="rgb(222,0,128)" stroke="none" d="M 13696,2845 L 13590,2845 13590,2634 13801,2634 13801,2845 13696,2845 Z"/>
 <path fill="rgb(112,23,108)" stroke="none" d="M 13696,3343 L 13590,3343 13590,3132 13801,3132 13801,3343 13696,3343 Z"/>
 <path fill="rgb(12,50,44)" stroke="none" d="M 13696,3840 L 13590,3840 13590,3629 13801,3629 13801,3840 13696,3840 Z"/>
 <path fill="rgb(19,148,72)" stroke="none" d="M 13696,4338 L 13590,4338 13590,4127 13801,4127 13801,4338 13696,4338 Z"/>
 <text class="SVGTextShape"><tspan class="TextParagraph"><tspan class="TextPosition" x="13901" y="2859"><tspan font-family="Liberation Sans, sans-serif" font-size="353px" font-weight="400" fill="rgb(0,0,0)" stroke="none" style="white-space: pre">ICX</tspan></tspan></tspan></text>
 <text class="SVGTextShape"><tspan class="TextParagraph"><tspan class="TextPosition" x="13901" y="3357"><tspan font-family="Liberation Sans, sans-serif" font-size="353px" font-weight="400" fill="rgb(0,0,0)" stroke="none" style="white-space: pre">ICX (LTO)</tspan></tspan></tspan></text>
 <text class="SVGTextShape"><tspan class="TextParagraph"><tspan class="TextPosition" x="13901" y="3854"><tspan font-family="Liberation Sans, sans-serif" font-size="353px" font-weight="400" fill="rgb(0,0,0)" stroke="none" style="white-space: pre">GCC</tspan></tspan></tspan></text>
 <text class="SVGTextShape"><tspan class="TextParagraph"><tspan class="TextPosition" x="13901" y="4352"><tspan font-family="Liberation Sans, sans-serif" font-size="353px" font-weight="400" fill="rgb(0,0,0)" stroke="none" style="white-space: pre">GCC (LTO)</tspan></tspan></tspan></text>
</svg>