<?xml version="1.0" encoding="UTF-8"?>
<!DOCTYPE svg PUBLIC "-//W3C//DTD SVG 1.1//EN" "http://www.w3.org/Graphics/SVG/1.1/DTD/svg11.dtd">
<svg width="160mm" height="107mm" viewBox="0 0 16000 10700" version="1.1" xmlns="http://www.w3.org/2000/svg" xmlns:xlink="http://www.w3.org/1999/xlink" stroke-width="28.222" stroke-linejoin="round" xml:space="preserve">
 <path fill="rgb(255,255,255)" stroke="none" d="M 7987,10687 L -13,10687 -13,-13 15987,-13 15987,10687 7987,10687 Z"/>
 <path fill="none" stroke="rgb(179,179,179)" stroke-linejoin="round" d="M 7953,9826 L 3310,9826 3310,201 12595,201 12595,9826 7953,9826 Z"/>
 <path fill="none" stroke="rgb(179,179,179)" stroke-linejoin="round" d="M 3310,199 L 3310,9825"/>
 <path fill="none" stroke="rgb(179,179,179)" stroke-linejoin="round" d="M 5167,199 L 5167,9825"/>
 <path fill="none" stroke="rgb(179,179,179)" stroke-linejoin="round" d="M 7024,199 L 7024,9825"/>
 <path fill="none" stroke="rgb(179,179,179)" stroke-linejoin="round" d="M 8880,199 L 8880,9825"/>
 <path fill="none" stroke="rgb(179,179,179)" stroke-linejoin="round" d="M 10737,199 L 10737,9825"/>
 <path fill="none" stroke="rgb(179,179,179)" stroke-linejoin="round" d="M 12595,199 L 12595,9825"/>
 <path fill="none" stroke="rgb(179,179,179)" stroke-linejoin="round" d="M 3160,199 L 3310,199"/>
 <path fill="none" stroke="rgb(179,179,179)" stroke-linejoin="round" d="M 3160,199 L 3310,199"/>
 <path fill="none" stroke="rgb(179,179,179)" stroke-linejoin="round" d="M 3160,1002 L 3310,1002"/>
 <path fill="none" stroke="rgb(179,179,179)" stroke-linejoin="round" d="M 3160,1002 L 3310,1002"/>
 <path fill="none" stroke="rgb(179,179,179)" stroke-linejoin="round" d="M 3160,1804 L 3310,1804"/>
 <path fill="none" stroke="rgb(179,179,179)" stroke-linejoin="round" d="M 3160,1804 L 3310,1804"/>
 <path fill="none" stroke="rgb(179,179,179)" stroke-linejoin="round" d="M 3160,2606 L 3310,2606"/>
 <path fill="none" stroke="rgb(179,179,179)" stroke-linejoin="round" d="M 3160,2606 L 3310,2606"/>
 <path fill="none" stroke="rgb(179,179,179)" stroke-linejoin="round" d="M 3160,3408 L 3310,3408"/>
 <path fill="none" stroke="rgb(179,179,179)" stroke-linejoin="round" d="M 3160,3408 L 3310,3408"/>
 <path fill="none" stroke="rgb(179,179,179)" stroke-linejoin="round" d="M 3160,4210 L 3310,4210"/>
 <path fill="none" stroke="rgb(179,179,179)" stroke-linejoin="round" d="M 3160,4210 L 3310,4210"/>
 <path fill="none" stroke="rgb(179,179,179)" stroke-linejoin="round" d="M 3160,5012 L 3310,5012"/>
 <path fill="none" stroke="rgb(179,179,179)" stroke-linejoin="round" d="M 3160,5012 L 3310,5012"/>
 <path fill="none" stroke="rgb(179,179,179)" stroke-linejoin="round" d="M 3160,5814 L 3310,5814"/>
 <path fill="none" stroke="rgb(179,179,179)" stroke-linejoin="round" d="M 3160,5814 L 3310,5814"/>
 <path fill="none" stroke="rgb(179,179,179)" stroke-linejoin="round" d="M 3160,6616 L 3310,6616"/>
 <path fill="none" stroke="rgb(179,179,179)" stroke-linejoin="round" d="M 3160,6616 L 3310,6616"/>
 <path fill="none" stroke="rgb(179,179,179)" stroke-linejoin="round" d="M 3160,7418 L 3310,7418"/>
 <path fill="none" stroke="rgb(179,179,179)" stroke-linejoin="round" d="M 3160,7418 L 3310,7418"/>
 <path fill="none" stroke="rgb(179,179,179)" stroke-linejoin="round" d="M 3160,8220 L 3310,8220"/>
 <path fill="none" stroke="rgb(179,179,179)" stroke-linejoin="round" d="M 3160,8220 L 3310,8220"/>
 <path fill="none" stroke="rgb(179,179,179)" stroke-linejoin="round" d="M 3160,9022 L 3310,9022"/>
 <path fill="none" stroke="rgb(179,179,179)" stroke-linejoin="round" d="M 3160,9022 L 3310,9022"/>
 <path fill="none" stroke="rgb(179,179,179)" stroke-linejoin="round" d="M 3160,9825 L 3310,9825"/>
 <path fill="none" stroke="rgb(179,179,179)" stroke-linejoin="round" d="M 3160,9825 L 3310,9825"/>
 <path fill="none" stroke="rgb(179,179,179)" stroke-linejoin="round" d="M 3310,9825 L 3310,199"/>
 <path fill="none" stroke="rgb(179,179,179)" stroke-linejoin="round" d="M 3310,9975 L 3310,9825"/>
 <path fill="none" stroke="rgb(179,179,179)" stroke-linejoin="round" d="M 3310,49 L 3310,199"/>
 <path fill="none" stroke="rgb(179,179,179)" stroke-linejoin="round" d="M 5167,9975 L 5167,9825"/>
 <path fill="none" stroke="rgb(179,179,179)" stroke-linejoin="round" d="M 5167,49 L 5167,199"/>
 <path fill="none" stroke="rgb(179,179,179)" stroke-linejoin="round" d="M 7024,9975 L 7024,9825"/>
 <path fill="none" stroke="rgb(179,179,179)" stroke-linejoin="round" d="M 7024,49 L 7024,199"/>
 <path fill="none" stroke="rgb(179,179,179)" stroke-linejoin="round" d="M 8880,9975 L 8880,9825"/>
 <path fill="none" stroke="rgb(179,179,179)" stroke-linejoin="round" d="M 8880,49 L 8880,199"/>
 <path fill="none" stroke="rgb(179,179,179)" stroke-linejoin="round" d="M 10737,9975 L 10737,9825"/>
 <path fill="none" stroke="rgb(179,179,179)" stroke-linejoin="round" d="M 10737,49 L 10737,199"/>
 <path fill="none" stroke="rgb(179,179,179)" stroke-linejoin="round" d="M 12595,9975 L 12595,9825"/>
 <path fill="none" stroke="rgb(179,179,179)" stroke-linejoin="round" d="M 12595,49 L 12595,199"/>
 <path fill="none" stroke="rgb(179,179,179)" stroke-linejoin="round" d="M 3310,199 L 12595,199"/>
 <path fill="rgb(220,53,69)" stroke="none" d="M 3310,280 L 3310,440 7024,440 7024,280 3310,280 Z"/>
 <path fill="rgb(220,53,69)" stroke="none" d="M 3310,1082 L 3310,1242 7024,1242 7024,1082 3310,1082 Z"/>
 <path fill="rgb(220,53,69)" stroke="none" d="M 3310,1884 L 3310,2044 7024,2044 7024,1884 3310,1884 Z"/>
 <path fill="rgb(220,53,69)" stroke="none" d="M 3310,2686 L 3310,2847 7024,2847 7024,2686 3310,2686 Z"/>
 <path fill="rgb(220,53,69)" stroke="none" d="M 3310,3488 L 3310,3649 7024,3649 7024,3488 3310,3488 Z"/>
 <path fill="rgb(220,53,69)" stroke="none" d="M 3310,4291 L 3310,4451 7024,4451 7024,4291 3310,4291 Z"/>
 <path fill="rgb(220,53,69)" stroke="none" d="M 3310,5093 L 3310,5253 7024,5253 7024,5093 3310,5093 Z"/>
 <path fill="rgb(220,53,69)" stroke="none" d="M 3310,5894 L 3310,6054 7024,6054 7024,5894 3310,5894 Z"/>
 <path fill="rgb(220,53,69)" stroke="none" d="M 3310,6696 L 3310,6856 7024,6856 7024,6696 3310,6696 Z"/>
 <path fill="rgb(220,53,69)" stroke="none" d="M 3310,7498 L 3310,7659 7024,7659 7024,7498 3310,7498 Z"/>
 <path fill="rgb(220,53,69)" stroke="none" d="M 3310,8300 L 3310,8461 7024,8461 7024,8300 3310,8300 Z"/>
 <path fill="rgb(220,53,69)" stroke="none" d="M 3310,9103 L 3310,9263 7024,9263 7024,9103 3310,9103 Z"/>
 <path fill="rgb(255,158,2)" stroke="none" d="M 3310,440 L 3310,601 7257,601 7257,440 3310,440 Z"/>
 <path fill="rgb(255,158,2)" stroke="none" d="M 3310,1242 L 3310,1403 7040,1403 7040,1242 3310,1242 Z"/>
 <path fill="rgb(255,158,2)" stroke="none" d="M 3310,2044 L 3310,2205 7034,2205 7034,2044 3310,2044 Z"/>
 <path fill="rgb(255,158,2)" stroke="none" d="M 3310,2847 L 3310,3007 7094,3007 7094,2847 3310,2847 Z"/>
 <path fill="rgb(255,158,2)" stroke="none" d="M 3310,3649 L 3310,3809 7427,3809 7427,3649 3310,3649 Z"/>
 <path fill="rgb(255,158,2)" stroke="none" d="M 3310,4451 L 3310,4611 7028,4611 7028,4451 3310,4451 Z"/>
 <path fill="rgb(255,158,2)" stroke="none" d="M 3310,5253 L 3310,5413 7084,5413 7084,5253 3310,5253 Z"/>
 <path fill="rgb(255,158,2)" stroke="none" d="M 3310,6054 L 3310,6215 7108,6215 7108,6054 3310,6054 Z"/>
 <path fill="rgb(255,158,2)" stroke="none" d="M 3310,6856 L 3310,7017 7225,7017 7225,6856 3310,6856 Z"/>
 <path fill="rgb(255,158,2)" stroke="none" d="M 3310,7659 L 3310,7819 7102,7819 7102,7659 3310,7659 Z"/>
 <path fill="rgb(255,158,2)" stroke="none" d="M 3310,8461 L 3310,8621 7056,8621 7056,8461 3310,8461 Z"/>
 <path fill="rgb(255,158,2)" stroke="none" d="M 3310,9263 L 3310,9423 7101,9423 7101,9263 3310,9263 Z"/>
 <path fill="rgb(12,50,44)" stroke="none" d="M 3310,601 L 3310,761 9930,761 9930,601 3310,601 Z"/>
 <path fill="rgb(12,50,44)" stroke="none" d="M 3310,1403 L 3310,1563 7197,1563 7197,1403 3310,1403 Z"/>
 <path fill="rgb(12,50,44)" stroke="none" d="M 3310,2205 L 3310,2365 6929,2365 6929,2205 3310,2205 Z"/>
 <path fill="rgb(12,50,44)" stroke="none" d="M 3310,3007 L 3310,3168 8198,3168 8198,3007 3310,3007 Z"/>
 <path fill="rgb(12,50,44)" stroke="none" d="M 3310,3809 L 3310,3970 7218,3970 7218,3809 3310,3809 Z"/>
 <path fill="rgb(12,50,44)" stroke="none" d="M 3310,4611 L 3310,4772 7576,4772 7576,4611 3310,4611 Z"/>
 <path fill="rgb(12,50,44)" stroke="none" d="M 3310,5413 L 3310,5573 7723,5573 7723,5413 3310,5413 Z"/>
 <path fill="rgb(12,50,44)" stroke="none" d="M 3310,6215 L 3310,6375 6968,6375 6968,6215 3310,6215 Z"/>
 <path fill="rgb(12,50,44)" stroke="none" d="M 3310,7017 L 3310,7177 6110,7177 6110,7017 3310,7017 Z"/>
 <path fill="rgb(12,50,44)" stroke="none" d="M 3310,7819 L 3310,7980 6792,7980 6792,7819 3310,7819 Z"/>
 <path fill="rgb(12,50,44)" stroke="none" d="M 3310,8621 L 3310,8782 10055,8782 10055,8621 3310,8621 Z"/>
 <path fill="rgb(12,50,44)" stroke="none" d="M 3310,9423 L 3310,9584 11322,9584 11322,9423 3310,9423 Z"/>
 <path fill="rgb(19,148,72)" stroke="none" d="M 3310,761 L 3310,921 10093,921 10093,761 3310,761 Z"/>
 <path fill="rgb(19,148,72)" stroke="none" d="M 3310,1563 L 3310,1724 7164,1724 7164,1563 3310,1563 Z"/>
 <path fill="rgb(19,148,72)" stroke="none" d="M 3310,2365 L 3310,2526 6929,2526 6929,2365 3310,2365 Z"/>
 <path fill="rgb(19,148,72)" stroke="none" d="M 3310,3168 L 3310,3328 8391,3328 8391,3168 3310,3168 Z"/>
 <path fill="rgb(19,148,72)" stroke="none" d="M 3310,3970 L 3310,4130 7693,4130 7693,3970 3310,3970 Z"/>
 <path fill="rgb(19,148,72)" stroke="none" d="M 3310,4772 L 3310,4932 7572,4932 7572,4772 3310,4772 Z"/>
 <path fill="rgb(19,148,72)" stroke="none" d="M 3310,5573 L 3310,5733 7791,5733 7791,5573 3310,5573 Z"/>
 <path fill="rgb(19,148,72)" stroke="none" d="M 3310,6375 L 3310,6536 7024,6536 7024,6375 3310,6375 Z"/>
 <path fill="rgb(19,148,72)" stroke="none" d="M 3310,7177 L 3310,7338 6248,7338 6248,7177 3310,7177 Z"/>
 <path fill="rgb(19,148,72)" stroke="none" d="M 3310,7980 L 3310,8140 6822,8140 6822,7980 3310,7980 Z"/>
 <path fill="rgb(19,148,72)" stroke="none" d="M 3310,8782 L 3310,8942 9757,8942 9757,8782 3310,8782 Z"/>
 <path fill="rgb(19,148,72)" stroke="none" d="M 3310,9584 L 3310,9744 11414,9744 11414,9584 3310,9584 Z"/>
 <text class="SVGTextShape"><tspan class="TextParagraph" font-family="Liberation Sans, sans-serif" font-size="353px" font-weight="400"><tspan class="TextPosition" x="943" y="721"><tspan fill="rgb(0,0,0)" stroke="none" style="white-space: pre">503.bwaves_r</tspan></tspan></tspan></text>
 <text class="SVGTextShape"><tspan class="TextParagraph" font-family="Liberation Sans, sans-serif" font-size="353px" font-weight="400"><tspan class="TextPosition" x="308" y="1523"><tspan fill="rgb(0,0,0)" stroke="none" style="white-space: pre">507.cactuBSSN_r</tspan></tspan></tspan></text>
 <text class="SVGTextShape"><tspan class="TextParagraph" font-family="Liberation Sans, sans-serif" font-size="353px" font-weight="400"><tspan class="TextPosition" x="1261" y="2325"><tspan fill="rgb(0,0,0)" stroke="none" style="white-space: pre">508.namd_r</tspan></tspan></tspan></text>
 <text class="SVGTextShape"><tspan class="TextParagraph" font-family="Liberation Sans, sans-serif" font-size="353px" font-weight="400"><tspan class="TextPosition" x="1155" y="3127"><tspan fill="rgb(0,0,0)" stroke="none" style="white-space: pre">510.parest_r</tspan></tspan></tspan></text>
 <text class="SVGTextShape"><tspan class="TextParagraph" font-family="Liberation Sans, sans-serif" font-size="353px" font-weight="400"><tspan class="TextPosition" x="1076" y="3929"><tspan fill="rgb(0,0,0)" stroke="none" style="white-space: pre">511.povray_r</tspan></tspan></tspan></text>
 <text class="SVGTextShape"><tspan class="TextParagraph" font-family="Liberation Sans, sans-serif" font-size="353px" font-weight="400"><tspan class="TextPosition" x="1552" y="4731"><tspan fill="rgb(0,0,0)" stroke="none" style="white-space: pre">519.lbm_r</tspan></tspan></tspan></text>
 <text class="SVGTextShape"><tspan class="TextParagraph" font-family="Liberation Sans, sans-serif" font-size="353px" font-weight="400"><tspan class="TextPosition" x="1658" y="5533"><tspan fill="rgb(0,0,0)" stroke="none" style="white-space: pre">521.wrf_r</tspan></tspan></tspan></text>
 <text class="SVGTextShape"><tspan class="TextParagraph" font-family="Liberation Sans, sans-serif" font-size="353px" font-weight="400"><tspan class="TextPosition" x="996" y="6335"><tspan fill="rgb(0,0,0)" stroke="none" style="white-space: pre">526.blender_r</tspan></tspan></tspan></text>
 <text class="SVGTextShape"><tspan class="TextParagraph" font-family="Liberation Sans, sans-serif" font-size="353px" font-weight="400"><tspan class="TextPosition" x="917" y="7137"><tspan fill="rgb(0,0,0)" stroke="none" style="white-space: pre">538.imagick_r</tspan></tspan></tspan></text>
 <text class="SVGTextShape"><tspan class="TextParagraph" font-family="Liberation Sans, sans-serif" font-size="353px" font-weight="400"><tspan class="TextPosition" x="1552" y="7939"><tspan fill="rgb(0,0,0)" stroke="none" style="white-space: pre">544.nab_r</tspan></tspan></tspan></text>
 <text class="SVGTextShape"><tspan class="TextParagraph" font-family="Liberation Sans, sans-serif" font-size="353px" font-weight="400"><tspan class="TextPosition" x="705" y="8741"><tspan fill="rgb(0,0,0)" stroke="none" style="white-space: pre">549.fotonik3d_r</tspan></tspan></tspan></text>
 <text class="SVGTextShape"><tspan class="TextParagraph" font-family="Liberation Sans, sans-serif" font-size="353px" font-weight="400"><tspan class="TextPosition" x="1340" y="9543"><tspan fill="rgb(0,0,0)" stroke="none" style="white-space: pre">554.roms_r</tspan></tspan></tspan></text>
 <text class="SVGTextShape"><tspan class="TextParagraph" font-family="Liberation Sans, sans-serif" font-size="353px" font-weight="400"><tspan class="TextPosition" x="3058" y="10393"><tspan fill="rgb(0,0,0)" stroke="none" style="white-space: pre">0%</tspan></tspan></tspan></text>
 <text class="SVGTextShape"><tspan class="TextParagraph" font-family="Liberation Sans, sans-serif" font-size="353px" font-weight="400"><tspan class="TextPosition" x="4823" y="10393"><tspan fill="rgb(0,0,0)" stroke="none" style="white-space: pre">50%</tspan></tspan></tspan></text>
 <text class="SVGTextShape"><tspan class="TextParagraph" font-family="Liberation Sans, sans-serif" font-size="353px" font-weight="400"><tspan class="TextPosition" x="6587" y="10393"><tspan fill="rgb(0,0,0)" stroke="none" style="white-space: pre">100%</tspan></tspan></tspan></text>
 <text class="SVGTextShape"><tspan class="TextParagraph" font-family="Liberation Sans, sans-serif" font-size="353px" font-weight="400"><tspan class="TextPosition" x="8443" y="10393"><tspan fill="rgb(0,0,0)" stroke="none" style="white-space: pre">150%</tspan></tspan></tspan></text>
 <text class="SVGTextShape"><tspan class="TextParagraph" font-family="Liberation Sans, sans-serif" font-size="353px" font-weight="400"><tspan class="TextPosition" x="10300" y="10393"><tspan fill="rgb(0,0,0)" stroke="none" style="white-space: pre">200%</tspan></tspan></tspan></text>
 <text class="SVGTextShape"><tspan class="TextParagraph" font-family="Liberation Sans, sans-serif" font-size="353px" font-weight="400"><tspan class="TextPosition" x="12158" y="10393"><tspan fill="rgb(0,0,0)" stroke="none" style="white-space: pre">250%</tspan></tspan></tspan></text>
 <path fill="rgb(220,53,69)" stroke="none" d="M 13575,6188 L 13469,6188 13469,5977 13680,5977 13680,6188 13575,6188 Z"/>
 <path fill="rgb(255,158,2)" stroke="none" d="M 13575,5690 L 13469,5690 13469,5479 13680,5479 13680,5690 13575,5690 Z"/>
 <path fill="rgb(12,50,44)" stroke="none" d="M 13575,5193 L 13469,5193 13469,4982 13680,4982 13680,5193 13575,5193 Z"/>
 <path fill="rgb(19,148,72)" stroke="none" d="M 13575,4695 L 13469,4695 13469,4484 13680,4484 13680,4695 13575,4695 Z"/>
 <text class="SVGTextShape"><tspan class="TextParagraph" font-family="Liberation Sans, sans-serif" font-size="353px" font-weight="400"><tspan class="TextPosition" x="13780" y="4709"><tspan fill="rgb(0,0,0)" stroke="none" style="white-space: pre">GCC (LTO)</tspan></tspan></tspan></text>
 <text class="SVGTextShape"><tspan class="TextParagraph" font-family="Liberation Sans, sans-serif" font-size="353px" font-weight="400"><tspan class="TextPosition" x="13780" y="5207"><tspan fill="rgb(0,0,0)" stroke="none" style="white-space: pre">GCC</tspan></tspan></tspan></text>
 <text class="SVGTextShape"><tspan class="TextParagraph" font-family="Liberation Sans, sans-serif" font-size="353px" font-weight="400"><tspan class="TextPosition" x="13780" y="5704"><tspan fill="rgb(0,0,0)" stroke="none" style="white-space: pre">LLVM (LTO)</tspan></tspan></tspan></text>
 <text class="SVGTextShape"><tspan class="TextParagraph" font-family="Liberation Sans, sans-serif" font-size="353px" font-weight="400"><tspan class="TextPosition" x="13780" y="6202"><tspan fill="rgb(0,0,0)" stroke="none" style="white-space: pre">LLVM 13</tspan></tspan></tspan></text>
</svg>