<?xml version="1.0" encoding="UTF-8"?>
<!DOCTYPE svg PUBLIC "-//W3C//DTD SVG 1.1//EN" "http://www.w3.org/Graphics/SVG/1.1/DTD/svg11.dtd">
<svg width="160mm" height="19mm" viewBox="0 0 16000 1900" version="1.1" xmlns="http://www.w3.org/2000/svg" xmlns:xlink="http://www.w3.org/1999/xlink" stroke-width="28.222" stroke-linejoin="round" xml:space="preserve">
 <path fill="rgb(255,255,255)" stroke="none" d="M 8000,1900 L 0,1900 0,107 16000,107 16000,1900 8000,1900 Z"/>
 <path fill="none" stroke="rgb(179,179,179)" stroke-linejoin="round" d="M 7204,1254 L 2926,1254 2926,143 11481,143 11481,1254 7204,1254 Z"/>
 <path fill="none" stroke="rgb(179,179,179)" stroke-linejoin="round" d="M 2926,142 L 2926,1253"/>
 <path fill="none" stroke="rgb(179,179,179)" stroke-linejoin="round" d="M 4637,142 L 4637,1253"/>
 <path fill="none" stroke="rgb(179,179,179)" stroke-linejoin="round" d="M 6348,142 L 6348,1253"/>
 <path fill="none" stroke="rgb(179,179,179)" stroke-linejoin="round" d="M 8058,142 L 8058,1253"/>
 <path fill="none" stroke="rgb(179,179,179)" stroke-linejoin="round" d="M 9769,142 L 9769,1253"/>
 <path fill="none" stroke="rgb(179,179,179)" stroke-linejoin="round" d="M 11481,142 L 11481,1253"/>
 <path fill="none" stroke="rgb(179,179,179)" stroke-linejoin="round" d="M 2776,142 L 2926,142"/>
 <path fill="none" stroke="rgb(179,179,179)" stroke-linejoin="round" d="M 2776,142 L 2926,142"/>
 <path fill="none" stroke="rgb(179,179,179)" stroke-linejoin="round" d="M 2776,1253 L 2926,1253"/>
 <path fill="none" stroke="rgb(179,179,179)" stroke-linejoin="round" d="M 2776,1253 L 2926,1253"/>
 <path fill="none" stroke="rgb(179,179,179)" stroke-linejoin="round" d="M 2926,1253 L 2926,142"/>
 <path fill="none" stroke="rgb(179,179,179)" stroke-linejoin="round" d="M 2926,1394 L 2926,1253"/>
 <path fill="none" stroke="rgb(179,179,179)" stroke-linejoin="round" d="M 2926,0 L 2926,142"/>
 <path fill="none" stroke="rgb(179,179,179)" stroke-linejoin="round" d="M 4637,1394 L 4637,1253"/>
 <path fill="none" stroke="rgb(179,179,179)" stroke-linejoin="round" d="M 4637,0 L 4637,142"/>
 <path fill="none" stroke="rgb(179,179,179)" stroke-linejoin="round" d="M 6348,1394 L 6348,1253"/>
 <path fill="none" stroke="rgb(179,179,179)" stroke-linejoin="round" d="M 6348,0 L 6348,142"/>
 <path fill="none" stroke="rgb(179,179,179)" stroke-linejoin="round" d="M 8058,1394 L 8058,1253"/>
 <path fill="none" stroke="rgb(179,179,179)" stroke-linejoin="round" d="M 8058,0 L 8058,142"/>
 <path fill="none" stroke="rgb(179,179,179)" stroke-linejoin="round" d="M 9769,1394 L 9769,1253"/>
 <path fill="none" stroke="rgb(179,179,179)" stroke-linejoin="round" d="M 9769,0 L 9769,142"/>
 <path fill="none" stroke="rgb(179,179,179)" stroke-linejoin="round" d="M 11481,1394 L 11481,1253"/>
 <path fill="none" stroke="rgb(179,179,179)" stroke-linejoin="round" d="M 11481,0 L 11481,142"/>
 <path fill="none" stroke="rgb(179,179,179)" stroke-linejoin="round" d="M 2926,142 L 11481,142"/>
 <path fill="rgb(222,0,128)" stroke="none" d="M 2926,252 L 2926,475 6348,475 6348,252 2926,252 Z"/>
 <path fill="rgb(112,23,108)" stroke="none" d="M 2926,475 L 2926,697 6177,697 6177,475 2926,475 Z"/>
 <path fill="rgb(19,148,72)" stroke="none" d="M 2926,697 L 2926,919 10477,919 10477,697 2926,697 Z"/>
 <path fill="rgb(12,50,44)" stroke="none" d="M 2926,919 L 2926,1142 10507,1142 10507,919 2926,919 Z"/>
 <text class="SVGTextShape"><tspan class="TextParagraph" font-family="Liberation Sans, sans-serif" font-size="333px" font-weight="400"><tspan class="TextPosition" x="321" y="811"><tspan fill="rgb(0,0,0)" stroke="none">549.fotonik3d_r</tspan></tspan></tspan></text>
 <text class="SVGTextShape"><tspan class="TextParagraph" font-family="Liberation Sans, sans-serif" font-size="333px" font-weight="400"><tspan class="TextPosition" x="2674" y="1789"><tspan fill="rgb(0,0,0)" stroke="none">0%</tspan></tspan></tspan></text>
 <text class="SVGTextShape"><tspan class="TextParagraph" font-family="Liberation Sans, sans-serif" font-size="333px" font-weight="400"><tspan class="TextPosition" x="4293" y="1789"><tspan fill="rgb(0,0,0)" stroke="none">50%</tspan></tspan></tspan></text>
 <text class="SVGTextShape"><tspan class="TextParagraph" font-family="Liberation Sans, sans-serif" font-size="333px" font-weight="400"><tspan class="TextPosition" x="5911" y="1789"><tspan fill="rgb(0,0,0)" stroke="none">100%</tspan></tspan></tspan></text>
 <text class="SVGTextShape"><tspan class="TextParagraph" font-family="Liberation Sans, sans-serif" font-size="333px" font-weight="400"><tspan class="TextPosition" x="7622" y="1789"><tspan fill="rgb(0,0,0)" stroke="none">150%</tspan></tspan></tspan></text>
 <text class="SVGTextShape"><tspan class="TextParagraph" font-family="Liberation Sans, sans-serif" font-size="333px" font-weight="400"><tspan class="TextPosition" x="9333" y="1789"><tspan fill="rgb(0,0,0)" stroke="none">200%</tspan></tspan></tspan></text>
 <text class="SVGTextShape"><tspan class="TextParagraph" font-family="Liberation Sans, sans-serif" font-size="333px" font-weight="400"><tspan class="TextPosition" x="11045" y="1789"><tspan fill="rgb(0,0,0)" stroke="none">250%</tspan></tspan></tspan></text>
 <path fill="rgb(222,0,128)" stroke="none" d="M 14726,1337 L 14620,1337 14620,1138 14831,1138 14831,1337 14726,1337 Z"/>
 <path fill="rgb(112,23,108)" stroke="none" d="M 12461,1337 L 12355,1337 12355,1138 12566,1138 12566,1337 12461,1337 Z"/>
 <path fill="rgb(19,148,72)" stroke="none" d="M 14726,867 L 14620,867 14620,668 14831,668 14831,867 14726,867 Z"/>
 <path fill="rgb(12,50,44)" stroke="none" d="M 12461,867 L 12355,867 12355,668 12566,668 12566,867 12461,867 Z"/>
 <text class="SVGTextShape"><tspan class="TextParagraph" font-family="Liberation Sans, sans-serif" font-size="333px" font-weight="400"><tspan class="TextPosition" x="12666" y="880"><tspan fill="rgb(0,0,0)" stroke="none">GCC (LTO)</tspan></tspan></tspan></text>
 <text class="SVGTextShape"><tspan class="TextParagraph" font-family="Liberation Sans, sans-serif" font-size="333px" font-weight="400"><tspan class="TextPosition" x="14931" y="880"><tspan fill="rgb(0,0,0)" stroke="none">GCC</tspan></tspan></tspan></text>
 <text class="SVGTextShape"><tspan class="TextParagraph" font-family="Liberation Sans, sans-serif" font-size="333px" font-weight="400"><tspan class="TextPosition" x="12666" y="1350"><tspan fill="rgb(0,0,0)" stroke="none">ICC (LTO)</tspan></tspan></tspan></text>
 <text class="SVGTextShape"><tspan class="TextParagraph" font-family="Liberation Sans, sans-serif" font-size="333px" font-weight="400"><tspan class="TextPosition" x="14931" y="1350"><tspan fill="rgb(0,0,0)" stroke="none">ICC</tspan></tspan></tspan></text>
</svg>