<?xml version="1.0" encoding="UTF-8"?>
<!DOCTYPE svg PUBLIC "-//W3C//DTD SVG 1.1//EN" "http://www.w3.org/Graphics/SVG/1.1/DTD/svg11.dtd">
<svg width="160mm" height="70mm" viewBox="0 0 16000 7000" version="1.1" xmlns="http://www.w3.org/2000/svg" xmlns:xlink="http://www.w3.org/1999/xlink" stroke-width="28.222" stroke-linejoin="round" xml:space="preserve">
 <path fill="rgb(255,255,255)" stroke="none" d="M 8000,7000 L 0,7000 0,0 16000,0 16000,7000 8000,7000 Z"/>
 <path fill="none" stroke="rgb(179,179,179)" stroke-linejoin="round" d="M 7325,6661 L 1444,6661 1444,339 13205,339 13205,6661 7325,6661 Z"/>
 <path fill="none" stroke="rgb(179,179,179)" stroke-linejoin="round" d="M 13205,6659 L 1444,6659"/>
 <path fill="none" stroke="rgb(179,179,179)" stroke-linejoin="round" d="M 13205,5395 L 1444,5395"/>
 <path fill="none" stroke="rgb(179,179,179)" stroke-linejoin="round" d="M 13205,4130 L 1444,4130"/>
 <path fill="none" stroke="rgb(179,179,179)" stroke-linejoin="round" d="M 13205,2867 L 1444,2867"/>
 <path fill="none" stroke="rgb(179,179,179)" stroke-linejoin="round" d="M 13205,1602 L 1444,1602"/>
 <path fill="none" stroke="rgb(179,179,179)" stroke-linejoin="round" d="M 13205,338 L 1444,338"/>
 <path fill="none" stroke="rgb(179,179,179)" stroke-linejoin="round" d="M 1444,6809 L 1444,6659"/>
 <path fill="none" stroke="rgb(179,179,179)" stroke-linejoin="round" d="M 1444,6809 L 1444,6659"/>
 <path fill="none" stroke="rgb(179,179,179)" stroke-linejoin="round" d="M 13205,6809 L 13205,6659"/>
 <path fill="none" stroke="rgb(179,179,179)" stroke-linejoin="round" d="M 13205,6809 L 13205,6659"/>
 <path fill="none" stroke="rgb(179,179,179)" stroke-linejoin="round" d="M 1444,6659 L 13205,6659"/>
 <path fill="none" stroke="rgb(179,179,179)" stroke-linejoin="round" d="M 1294,6659 L 1444,6659"/>
 <path fill="none" stroke="rgb(179,179,179)" stroke-linejoin="round" d="M 1294,6659 L 1444,6659"/>
 <path fill="none" stroke="rgb(179,179,179)" stroke-linejoin="round" d="M 1294,5395 L 1444,5395"/>
 <path fill="none" stroke="rgb(179,179,179)" stroke-linejoin="round" d="M 1294,5395 L 1444,5395"/>
 <path fill="none" stroke="rgb(179,179,179)" stroke-linejoin="round" d="M 1294,4130 L 1444,4130"/>
 <path fill="none" stroke="rgb(179,179,179)" stroke-linejoin="round" d="M 1294,4130 L 1444,4130"/>
 <path fill="none" stroke="rgb(179,179,179)" stroke-linejoin="round" d="M 1294,2867 L 1444,2867"/>
 <path fill="none" stroke="rgb(179,179,179)" stroke-linejoin="round" d="M 1294,2867 L 1444,2867"/>
 <path fill="none" stroke="rgb(179,179,179)" stroke-linejoin="round" d="M 1294,1602 L 1444,1602"/>
 <path fill="none" stroke="rgb(179,179,179)" stroke-linejoin="round" d="M 1294,1602 L 1444,1602"/>
 <path fill="none" stroke="rgb(179,179,179)" stroke-linejoin="round" d="M 1294,338 L 1444,338"/>
 <path fill="none" stroke="rgb(179,179,179)" stroke-linejoin="round" d="M 1294,338 L 1444,338"/>
 <path fill="none" stroke="rgb(179,179,179)" stroke-linejoin="round" d="M 1444,6659 L 1444,338"/>
 <path fill="rgb(222,0,128)" stroke="none" d="M 2620,6659 L 4972,6659 4972,4130 2620,4130 2620,6659 Z"/>
 <path fill="rgb(112,23,108)" stroke="none" d="M 4972,6659 L 7325,6659 7325,2871 4972,2871 4972,6659 Z"/>
 <path fill="rgb(19,148,72)" stroke="none" d="M 7325,6659 L 9676,6659 9676,3335 7325,3335 7325,6659 Z"/>
 <path fill="rgb(12,50,44)" stroke="none" d="M 9676,6659 L 12028,6659 12028,2429 9676,2429 9676,6659 Z"/>
 <text class="SVGTextShape"><tspan class="TextParagraph" font-family="Liberation Sans, sans-serif" font-size="353px" font-weight="400"><tspan class="TextPosition" x="506" y="6780"><tspan fill="rgb(0,0,0)" stroke="none">80%</tspan></tspan></tspan></text>
 <text class="SVGTextShape"><tspan class="TextParagraph" font-family="Liberation Sans, sans-serif" font-size="353px" font-weight="400"><tspan class="TextPosition" x="506" y="5516"><tspan fill="rgb(0,0,0)" stroke="none">90%</tspan></tspan></tspan></text>
 <text class="SVGTextShape"><tspan class="TextParagraph" font-family="Liberation Sans, sans-serif" font-size="353px" font-weight="400"><tspan class="TextPosition" x="321" y="4251"><tspan fill="rgb(0,0,0)" stroke="none">100%</tspan></tspan></tspan></text>
 <text class="SVGTextShape"><tspan class="TextParagraph" font-family="Liberation Sans, sans-serif" font-size="353px" font-weight="400"><tspan class="TextPosition" x="321" y="2987"><tspan fill="rgb(0,0,0)" stroke="none">110%</tspan></tspan></tspan></text>
 <text class="SVGTextShape"><tspan class="TextParagraph" font-family="Liberation Sans, sans-serif" font-size="353px" font-weight="400"><tspan class="TextPosition" x="321" y="1722"><tspan fill="rgb(0,0,0)" stroke="none">120%</tspan></tspan></tspan></text>
 <text class="SVGTextShape"><tspan class="TextParagraph" font-family="Liberation Sans, sans-serif" font-size="353px" font-weight="400"><tspan class="TextPosition" x="321" y="458"><tspan fill="rgb(0,0,0)" stroke="none">130%</tspan></tspan></tspan></text>
 <path fill="rgb(222,0,128)" stroke="none" d="M 13747,2858 L 13641,2858 13641,2647 13852,2647 13852,2858 13747,2858 Z"/>
 <path fill="rgb(112,23,108)" stroke="none" d="M 13747,3356 L 13641,3356 13641,3145 13852,3145 13852,3356 13747,3356 Z"/>
 <path fill="rgb(19,148,72)" stroke="none" d="M 13747,3853 L 13641,3853 13641,3642 13852,3642 13852,3853 13747,3853 Z"/>
 <path fill="rgb(12,50,44)" stroke="none" d="M 13747,4351 L 13641,4351 13641,4140 13852,4140 13852,4351 13747,4351 Z"/>
 <text class="SVGTextShape"><tspan class="TextParagraph" font-family="Liberation Sans, sans-serif" font-size="353px" font-weight="400"><tspan class="TextPosition" x="13952" y="2872"><tspan fill="rgb(0,0,0)" stroke="none">ICC</tspan></tspan></tspan></text>
 <text class="SVGTextShape"><tspan class="TextParagraph" font-family="Liberation Sans, sans-serif" font-size="353px" font-weight="400"><tspan class="TextPosition" x="13952" y="3370"><tspan fill="rgb(0,0,0)" stroke="none">ICC (LTO)</tspan></tspan></tspan></text>
 <text class="SVGTextShape"><tspan class="TextParagraph" font-family="Liberation Sans, sans-serif" font-size="353px" font-weight="400"><tspan class="TextPosition" x="13952" y="3867"><tspan fill="rgb(0,0,0)" stroke="none">GCC</tspan></tspan></tspan></text>
 <text class="SVGTextShape"><tspan class="TextParagraph" font-family="Liberation Sans, sans-serif" font-size="353px" font-weight="400"><tspan class="TextPosition" x="13952" y="4365"><tspan fill="rgb(0,0,0)" stroke="none">GCC (LTO)</tspan></tspan></tspan></text>
</svg>