<?xml version="1.0" encoding="UTF-8"?>
<!DOCTYPE svg PUBLIC "-//W3C//DTD SVG 1.1//EN" "http://www.w3.org/Graphics/SVG/1.1/DTD/svg11.dtd">
<svg width="160mm" height="107mm" viewBox="0 0 16000 10700" version="1.1" xmlns="http://www.w3.org/2000/svg" xmlns:xlink="http://www.w3.org/1999/xlink" stroke-width="28.222" stroke-linejoin="round" xml:space="preserve">
 <path fill="rgb(255,255,255)" stroke="none" d="M 7987,10687 L -13,10687 -13,-13 15986,-13 15986,10687 7987,10687 Z"/>
 <path fill="none" stroke="rgb(179,179,179)" stroke-linejoin="round" d="M 7963,9826 L 3215,9826 3215,201 12710,201 12710,9826 7963,9826 Z"/>
 <path fill="none" stroke="rgb(179,179,179)" stroke-linejoin="round" d="M 3215,199 L 3215,9825"/>
 <path fill="none" stroke="rgb(179,179,179)" stroke-linejoin="round" d="M 4571,199 L 4571,9825"/>
 <path fill="none" stroke="rgb(179,179,179)" stroke-linejoin="round" d="M 5928,199 L 5928,9825"/>
 <path fill="none" stroke="rgb(179,179,179)" stroke-linejoin="round" d="M 7284,199 L 7284,9825"/>
 <path fill="none" stroke="rgb(179,179,179)" stroke-linejoin="round" d="M 8640,199 L 8640,9825"/>
 <path fill="none" stroke="rgb(179,179,179)" stroke-linejoin="round" d="M 9996,199 L 9996,9825"/>
 <path fill="none" stroke="rgb(179,179,179)" stroke-linejoin="round" d="M 11353,199 L 11353,9825"/>
 <path fill="none" stroke="rgb(179,179,179)" stroke-linejoin="round" d="M 12710,199 L 12710,9825"/>
 <path fill="none" stroke="rgb(179,179,179)" stroke-linejoin="round" d="M 3065,200 L 3215,200"/>
 <path fill="none" stroke="rgb(179,179,179)" stroke-linejoin="round" d="M 3065,200 L 3215,200"/>
 <path fill="none" stroke="rgb(179,179,179)" stroke-linejoin="round" d="M 3065,1162 L 3215,1162"/>
 <path fill="none" stroke="rgb(179,179,179)" stroke-linejoin="round" d="M 3065,1162 L 3215,1162"/>
 <path fill="none" stroke="rgb(179,179,179)" stroke-linejoin="round" d="M 3065,2125 L 3215,2125"/>
 <path fill="none" stroke="rgb(179,179,179)" stroke-linejoin="round" d="M 3065,2125 L 3215,2125"/>
 <path fill="none" stroke="rgb(179,179,179)" stroke-linejoin="round" d="M 3065,3087 L 3215,3087"/>
 <path fill="none" stroke="rgb(179,179,179)" stroke-linejoin="round" d="M 3065,3087 L 3215,3087"/>
 <path fill="none" stroke="rgb(179,179,179)" stroke-linejoin="round" d="M 3065,4050 L 3215,4050"/>
 <path fill="none" stroke="rgb(179,179,179)" stroke-linejoin="round" d="M 3065,4050 L 3215,4050"/>
 <path fill="none" stroke="rgb(179,179,179)" stroke-linejoin="round" d="M 3065,5013 L 3215,5013"/>
 <path fill="none" stroke="rgb(179,179,179)" stroke-linejoin="round" d="M 3065,5013 L 3215,5013"/>
 <path fill="none" stroke="rgb(179,179,179)" stroke-linejoin="round" d="M 3065,5974 L 3215,5974"/>
 <path fill="none" stroke="rgb(179,179,179)" stroke-linejoin="round" d="M 3065,5974 L 3215,5974"/>
 <path fill="none" stroke="rgb(179,179,179)" stroke-linejoin="round" d="M 3065,6937 L 3215,6937"/>
 <path fill="none" stroke="rgb(179,179,179)" stroke-linejoin="round" d="M 3065,6937 L 3215,6937"/>
 <path fill="none" stroke="rgb(179,179,179)" stroke-linejoin="round" d="M 3065,7899 L 3215,7899"/>
 <path fill="none" stroke="rgb(179,179,179)" stroke-linejoin="round" d="M 3065,7899 L 3215,7899"/>
 <path fill="none" stroke="rgb(179,179,179)" stroke-linejoin="round" d="M 3065,8862 L 3215,8862"/>
 <path fill="none" stroke="rgb(179,179,179)" stroke-linejoin="round" d="M 3065,8862 L 3215,8862"/>
 <path fill="none" stroke="rgb(179,179,179)" stroke-linejoin="round" d="M 3065,9825 L 3215,9825"/>
 <path fill="none" stroke="rgb(179,179,179)" stroke-linejoin="round" d="M 3065,9825 L 3215,9825"/>
 <path fill="none" stroke="rgb(179,179,179)" stroke-linejoin="round" d="M 3215,9825 L 3215,199"/>
 <path fill="none" stroke="rgb(179,179,179)" stroke-linejoin="round" d="M 3215,9975 L 3215,9825"/>
 <path fill="none" stroke="rgb(179,179,179)" stroke-linejoin="round" d="M 3215,49 L 3215,199"/>
 <path fill="none" stroke="rgb(179,179,179)" stroke-linejoin="round" d="M 4571,9975 L 4571,9825"/>
 <path fill="none" stroke="rgb(179,179,179)" stroke-linejoin="round" d="M 4571,49 L 4571,199"/>
 <path fill="none" stroke="rgb(179,179,179)" stroke-linejoin="round" d="M 5928,9975 L 5928,9825"/>
 <path fill="none" stroke="rgb(179,179,179)" stroke-linejoin="round" d="M 5928,49 L 5928,199"/>
 <path fill="none" stroke="rgb(179,179,179)" stroke-linejoin="round" d="M 7284,9975 L 7284,9825"/>
 <path fill="none" stroke="rgb(179,179,179)" stroke-linejoin="round" d="M 7284,49 L 7284,199"/>
 <path fill="none" stroke="rgb(179,179,179)" stroke-linejoin="round" d="M 8640,9975 L 8640,9825"/>
 <path fill="none" stroke="rgb(179,179,179)" stroke-linejoin="round" d="M 8640,49 L 8640,199"/>
 <path fill="none" stroke="rgb(179,179,179)" stroke-linejoin="round" d="M 9996,9975 L 9996,9825"/>
 <path fill="none" stroke="rgb(179,179,179)" stroke-linejoin="round" d="M 9996,49 L 9996,199"/>
 <path fill="none" stroke="rgb(179,179,179)" stroke-linejoin="round" d="M 11353,9975 L 11353,9825"/>
 <path fill="none" stroke="rgb(179,179,179)" stroke-linejoin="round" d="M 11353,49 L 11353,199"/>
 <path fill="none" stroke="rgb(179,179,179)" stroke-linejoin="round" d="M 12710,9975 L 12710,9825"/>
 <path fill="none" stroke="rgb(179,179,179)" stroke-linejoin="round" d="M 12710,49 L 12710,199"/>
 <path fill="none" stroke="rgb(179,179,179)" stroke-linejoin="round" d="M 3215,199 L 12710,199"/>
 <path fill="rgb(222,0,128)" stroke="none" d="M 3215,296 L 3215,488 9996,488 9996,296 3215,296 Z"/>
 <path fill="rgb(222,0,128)" stroke="none" d="M 3215,1258 L 3215,1451 9996,1451 9996,1258 3215,1258 Z"/>
 <path fill="rgb(222,0,128)" stroke="none" d="M 3215,2221 L 3215,2413 9996,2413 9996,2221 3215,2221 Z"/>
 <path fill="rgb(222,0,128)" stroke="none" d="M 3215,3184 L 3215,3376 9996,3376 9996,3184 3215,3184 Z"/>
 <path fill="rgb(222,0,128)" stroke="none" d="M 3215,4146 L 3215,4339 9996,4339 9996,4146 3215,4146 Z"/>
 <path fill="rgb(222,0,128)" stroke="none" d="M 3215,5109 L 3215,5301 9996,5301 9996,5109 3215,5109 Z"/>
 <path fill="rgb(222,0,128)" stroke="none" d="M 3215,6070 L 3215,6263 9996,6263 9996,6070 3215,6070 Z"/>
 <path fill="rgb(222,0,128)" stroke="none" d="M 3215,7033 L 3215,7225 9996,7225 9996,7033 3215,7033 Z"/>
 <path fill="rgb(222,0,128)" stroke="none" d="M 3215,7996 L 3215,8188 9996,8188 9996,7996 3215,7996 Z"/>
 <path fill="rgb(222,0,128)" stroke="none" d="M 3215,8958 L 3215,9151 9996,9151 9996,8958 3215,8958 Z"/>
 <path fill="rgb(112,23,108)" stroke="none" d="M 3215,488 L 3215,681 10125,681 10125,488 3215,488 Z"/>
 <path fill="rgb(112,23,108)" stroke="none" d="M 3215,1451 L 3215,1643 10306,1643 10306,1451 3215,1451 Z"/>
 <path fill="rgb(112,23,108)" stroke="none" d="M 3215,2413 L 3215,2606 11430,2606 11430,2413 3215,2413 Z"/>
 <path fill="rgb(112,23,108)" stroke="none" d="M 3215,3376 L 3215,3569 10913,3569 10913,3376 3215,3376 Z"/>
 <path fill="rgb(112,23,108)" stroke="none" d="M 3215,4339 L 3215,4531 10326,4531 10326,4339 3215,4339 Z"/>
 <path fill="rgb(112,23,108)" stroke="none" d="M 3215,5301 L 3215,5493 11280,5493 11280,5301 3215,5301 Z"/>
 <path fill="rgb(112,23,108)" stroke="none" d="M 3215,6263 L 3215,6455 11419,6455 11419,6263 3215,6263 Z"/>
 <path fill="rgb(112,23,108)" stroke="none" d="M 3215,7225 L 3215,7418 11008,7418 11008,7225 3215,7225 Z"/>
 <path fill="rgb(112,23,108)" stroke="none" d="M 3215,8188 L 3215,8381 10337,8381 10337,8188 3215,8188 Z"/>
 <path fill="rgb(112,23,108)" stroke="none" d="M 3215,9151 L 3215,9343 10080,9343 10080,9151 3215,9151 Z"/>
 <path fill="rgb(12,50,44)" stroke="none" d="M 3215,681 L 3215,873 10218,873 10218,681 3215,681 Z"/>
 <path fill="rgb(12,50,44)" stroke="none" d="M 3215,1643 L 3215,1836 10241,1836 10241,1643 3215,1643 Z"/>
 <path fill="rgb(12,50,44)" stroke="none" d="M 3215,2606 L 3215,2799 10166,2799 10166,2606 3215,2606 Z"/>
 <path fill="rgb(12,50,44)" stroke="none" d="M 3215,3569 L 3215,3761 10611,3761 10611,3569 3215,3569 Z"/>
 <path fill="rgb(12,50,44)" stroke="none" d="M 3215,4531 L 3215,4724 9275,4724 9275,4531 3215,4531 Z"/>
 <path fill="rgb(12,50,44)" stroke="none" d="M 3215,5493 L 3215,5685 8293,5685 8293,5493 3215,5493 Z"/>
 <path fill="rgb(12,50,44)" stroke="none" d="M 3215,6455 L 3215,6648 10352,6648 10352,6455 3215,6455 Z"/>
 <path fill="rgb(12,50,44)" stroke="none" d="M 3215,7418 L 3215,7611 10021,7611 10021,7418 3215,7418 Z"/>
 <path fill="rgb(12,50,44)" stroke="none" d="M 3215,8381 L 3215,8573 11045,8573 11045,8381 3215,8381 Z"/>
 <path fill="rgb(12,50,44)" stroke="none" d="M 3215,9343 L 3215,9536 10038,9536 10038,9343 3215,9343 Z"/>
 <path fill="rgb(19,148,72)" stroke="none" d="M 3215,873 L 3215,1066 10353,1066 10353,873 3215,873 Z"/>
 <path fill="rgb(19,148,72)" stroke="none" d="M 3215,1836 L 3215,2028 10467,2028 10467,1836 3215,1836 Z"/>
 <path fill="rgb(19,148,72)" stroke="none" d="M 3215,2799 L 3215,2991 11525,2991 11525,2799 3215,2799 Z"/>
 <path fill="rgb(19,148,72)" stroke="none" d="M 3215,3761 L 3215,3954 10779,3954 10779,3761 3215,3761 Z"/>
 <path fill="rgb(19,148,72)" stroke="none" d="M 3215,4724 L 3215,4916 9452,4916 9452,4724 3215,4724 Z"/>
 <path fill="rgb(19,148,72)" stroke="none" d="M 3215,5685 L 3215,5878 8340,5878 8340,5685 3215,5685 Z"/>
 <path fill="rgb(19,148,72)" stroke="none" d="M 3215,6648 L 3215,6840 11873,6840 11873,6648 3215,6648 Z"/>
 <path fill="rgb(19,148,72)" stroke="none" d="M 3215,7611 L 3215,7803 10736,7803 10736,7611 3215,7611 Z"/>
 <path fill="rgb(19,148,72)" stroke="none" d="M 3215,8573 L 3215,8766 10914,8766 10914,8573 3215,8573 Z"/>
 <path fill="rgb(19,148,72)" stroke="none" d="M 3215,9536 L 3215,9728 10052,9728 10052,9536 3215,9536 Z"/>
 <text class="SVGTextShape"><tspan class="TextParagraph"><tspan class="TextPosition" x="479" y="802"><tspan font-family="Liberation Sans, sans-serif" font-size="353px" font-weight="400" fill="rgb(0,0,0)" stroke="none" style="white-space: pre">500.perlbench_r</tspan></tspan></tspan></text>
 <text class="SVGTextShape"><tspan class="TextParagraph"><tspan class="TextPosition" x="1454" y="1764"><tspan font-family="Liberation Sans, sans-serif" font-size="353px" font-weight="400" fill="rgb(0,0,0)" stroke="none" style="white-space: pre">502.gcc_r</tspan></tspan></tspan></text>
 <text class="SVGTextShape"><tspan class="TextParagraph"><tspan class="TextPosition" x="1436" y="2727"><tspan font-family="Liberation Sans, sans-serif" font-size="353px" font-weight="400" fill="rgb(0,0,0)" stroke="none" style="white-space: pre">505.mcf_r</tspan></tspan></tspan></text>
 <text class="SVGTextShape"><tspan class="TextParagraph"><tspan class="TextPosition" x="651" y="3690"><tspan font-family="Liberation Sans, sans-serif" font-size="353px" font-weight="400" fill="rgb(0,0,0)" stroke="none" style="white-space: pre">520.omnetpp_r</tspan></tspan></tspan></text>
 <text class="SVGTextShape"><tspan class="TextParagraph"><tspan class="TextPosition" x="346" y="4652"><tspan font-family="Liberation Sans, sans-serif" font-size="353px" font-weight="400" fill="rgb(0,0,0)" stroke="none" style="white-space: pre">523.xalancbmk_r</tspan></tspan></tspan></text>
 <text class="SVGTextShape"><tspan class="TextParagraph"><tspan class="TextPosition" x="1244" y="5614"><tspan font-family="Liberation Sans, sans-serif" font-size="353px" font-weight="400" fill="rgb(0,0,0)" stroke="none" style="white-space: pre">525.x264_r</tspan></tspan></tspan></text>
 <text class="SVGTextShape"><tspan class="TextParagraph"><tspan class="TextPosition" x="402" y="6576"><tspan font-family="Liberation Sans, sans-serif" font-size="353px" font-weight="400" fill="rgb(0,0,0)" stroke="none" style="white-space: pre">531.deepsjeng_r</tspan></tspan></tspan></text>
 <text class="SVGTextShape"><tspan class="TextParagraph"><tspan class="TextPosition" x="1263" y="7539"><tspan font-family="Liberation Sans, sans-serif" font-size="353px" font-weight="400" fill="rgb(0,0,0)" stroke="none" style="white-space: pre">541.leela_r</tspan></tspan></tspan></text>
 <text class="SVGTextShape"><tspan class="TextParagraph"><tspan class="TextPosition" x="307" y="8502"><tspan font-family="Liberation Sans, sans-serif" font-size="353px" font-weight="400" fill="rgb(0,0,0)" stroke="none" style="white-space: pre">548.exchange2_r</tspan></tspan></tspan></text>
 <text class="SVGTextShape"><tspan class="TextParagraph"><tspan class="TextPosition" x="1646" y="9464"><tspan font-family="Liberation Sans, sans-serif" font-size="353px" font-weight="400" fill="rgb(0,0,0)" stroke="none" style="white-space: pre">557.xz_r</tspan></tspan></tspan></text>
 <text class="SVGTextShape"><tspan class="TextParagraph"><tspan class="TextPosition" x="2967" y="10393"><tspan font-family="Liberation Sans, sans-serif" font-size="353px" font-weight="400" fill="rgb(0,0,0)" stroke="none" style="white-space: pre">0%</tspan></tspan></tspan></text>
 <text class="SVGTextShape"><tspan class="TextParagraph"><tspan class="TextPosition" x="4228" y="10393"><tspan font-family="Liberation Sans, sans-serif" font-size="353px" font-weight="400" fill="rgb(0,0,0)" stroke="none" style="white-space: pre">20%</tspan></tspan></tspan></text>
 <text class="SVGTextShape"><tspan class="TextParagraph"><tspan class="TextPosition" x="5585" y="10393"><tspan font-family="Liberation Sans, sans-serif" font-size="353px" font-weight="400" fill="rgb(0,0,0)" stroke="none" style="white-space: pre">40%</tspan></tspan></tspan></text>
 <text class="SVGTextShape"><tspan class="TextParagraph"><tspan class="TextPosition" x="6941" y="10393"><tspan font-family="Liberation Sans, sans-serif" font-size="353px" font-weight="400" fill="rgb(0,0,0)" stroke="none" style="white-space: pre">60%</tspan></tspan></tspan></text>
 <text class="SVGTextShape"><tspan class="TextParagraph"><tspan class="TextPosition" x="8297" y="10393"><tspan font-family="Liberation Sans, sans-serif" font-size="353px" font-weight="400" fill="rgb(0,0,0)" stroke="none" style="white-space: pre">80%</tspan></tspan></tspan></text>
 <text class="SVGTextShape"><tspan class="TextParagraph"><tspan class="TextPosition" x="9557" y="10393"><tspan font-family="Liberation Sans, sans-serif" font-size="353px" font-weight="400" fill="rgb(0,0,0)" stroke="none" style="white-space: pre">100%</tspan></tspan></tspan></text>
 <text class="SVGTextShape"><tspan class="TextParagraph"><tspan class="TextPosition" x="10914" y="10393"><tspan font-family="Liberation Sans, sans-serif" font-size="353px" font-weight="400" fill="rgb(0,0,0)" stroke="none" style="white-space: pre">120%</tspan></tspan></tspan></text>
 <text class="SVGTextShape"><tspan class="TextParagraph"><tspan class="TextPosition" x="12271" y="10393"><tspan font-family="Liberation Sans, sans-serif" font-size="353px" font-weight="400" fill="rgb(0,0,0)" stroke="none" style="white-space: pre">140%</tspan></tspan></tspan></text>
 <path fill="rgb(222,0,128)" stroke="none" d="M 13695,6188 L 13589,6188 13589,5977 13800,5977 13800,6188 13695,6188 Z"/>
 <path fill="rgb(112,23,108)" stroke="none" d="M 13695,5690 L 13589,5690 13589,5479 13800,5479 13800,5690 13695,5690 Z"/>
 <path fill="rgb(12,50,44)" stroke="none" d="M 13695,5193 L 13589,5193 13589,4982 13800,4982 13800,5193 13695,5193 Z"/>
 <path fill="rgb(19,148,72)" stroke="none" d="M 13695,4695 L 13589,4695 13589,4484 13800,4484 13800,4695 13695,4695 Z"/>
 <text class="SVGTextShape"><tspan class="TextParagraph"><tspan class="TextPosition" x="13900" y="4709"><tspan font-family="Liberation Sans, sans-serif" font-size="353px" font-weight="400" fill="rgb(0,0,0)" stroke="none" style="white-space: pre">GCC (LTO)</tspan></tspan></tspan></text>
 <text class="SVGTextShape"><tspan class="TextParagraph"><tspan class="TextPosition" x="13900" y="5207"><tspan font-family="Liberation Sans, sans-serif" font-size="353px" font-weight="400" fill="rgb(0,0,0)" stroke="none" style="white-space: pre">GCC</tspan></tspan></tspan></text>
 <text class="SVGTextShape"><tspan class="TextParagraph"><tspan class="TextPosition" x="13900" y="5704"><tspan font-family="Liberation Sans, sans-serif" font-size="353px" font-weight="400" fill="rgb(0,0,0)" stroke="none" style="white-space: pre">ICX (LTO)</tspan></tspan></tspan></text>
 <text class="SVGTextShape"><tspan class="TextParagraph"><tspan class="TextPosition" x="13900" y="6202"><tspan font-family="Liberation Sans, sans-serif" font-size="353px" font-weight="400" fill="rgb(0,0,0)" stroke="none" style="white-space: pre">ICX</tspan></tspan></tspan></text>
</svg>