<?xml version="1.0" encoding="UTF-8"?>
<!DOCTYPE svg PUBLIC "-//W3C//DTD SVG 1.1//EN" "http://www.w3.org/Graphics/SVG/1.1/DTD/svg11.dtd">
<svg width="160mm" height="75mm" viewBox="0 0 16000 7500" version="1.1" xmlns="http://www.w3.org/2000/svg" xmlns:xlink="http://www.w3.org/1999/xlink" stroke-width="28.222" stroke-linejoin="round" xml:space="preserve">
 <path fill="rgb(255,255,255)" stroke="none" d="M 8000,7500 L 0,7500 0,1 16000,1 16000,7500 8000,7500 Z"/>
 <path fill="none" stroke="rgb(179,179,179)" stroke-linejoin="round" d="M 7780,6704 L 3005,6704 3005,151 12555,151 12555,6704 7780,6704 Z"/>
 <path fill="none" stroke="rgb(179,179,179)" stroke-linejoin="round" d="M 3005,149 L 3005,6702"/>
 <path fill="none" stroke="rgb(179,179,179)" stroke-linejoin="round" d="M 4369,149 L 4369,6702"/>
 <path fill="none" stroke="rgb(179,179,179)" stroke-linejoin="round" d="M 5733,149 L 5733,6702"/>
 <path fill="none" stroke="rgb(179,179,179)" stroke-linejoin="round" d="M 7098,149 L 7098,6702"/>
 <path fill="none" stroke="rgb(179,179,179)" stroke-linejoin="round" d="M 8461,149 L 8461,6702"/>
 <path fill="none" stroke="rgb(179,179,179)" stroke-linejoin="round" d="M 9826,149 L 9826,6702"/>
 <path fill="none" stroke="rgb(179,179,179)" stroke-linejoin="round" d="M 11190,149 L 11190,6702"/>
 <path fill="none" stroke="rgb(179,179,179)" stroke-linejoin="round" d="M 12555,149 L 12555,6702"/>
 <path fill="none" stroke="rgb(179,179,179)" stroke-linejoin="round" d="M 2855,149 L 3005,149"/>
 <path fill="none" stroke="rgb(179,179,179)" stroke-linejoin="round" d="M 2855,149 L 3005,149"/>
 <path fill="none" stroke="rgb(179,179,179)" stroke-linejoin="round" d="M 2855,1242 L 3005,1242"/>
 <path fill="none" stroke="rgb(179,179,179)" stroke-linejoin="round" d="M 2855,1242 L 3005,1242"/>
 <path fill="none" stroke="rgb(179,179,179)" stroke-linejoin="round" d="M 2855,2334 L 3005,2334"/>
 <path fill="none" stroke="rgb(179,179,179)" stroke-linejoin="round" d="M 2855,2334 L 3005,2334"/>
 <path fill="none" stroke="rgb(179,179,179)" stroke-linejoin="round" d="M 2855,3426 L 3005,3426"/>
 <path fill="none" stroke="rgb(179,179,179)" stroke-linejoin="round" d="M 2855,3426 L 3005,3426"/>
 <path fill="none" stroke="rgb(179,179,179)" stroke-linejoin="round" d="M 2855,4518 L 3005,4518"/>
 <path fill="none" stroke="rgb(179,179,179)" stroke-linejoin="round" d="M 2855,4518 L 3005,4518"/>
 <path fill="none" stroke="rgb(179,179,179)" stroke-linejoin="round" d="M 2855,5611 L 3005,5611"/>
 <path fill="none" stroke="rgb(179,179,179)" stroke-linejoin="round" d="M 2855,5611 L 3005,5611"/>
 <path fill="none" stroke="rgb(179,179,179)" stroke-linejoin="round" d="M 2855,6702 L 3005,6702"/>
 <path fill="none" stroke="rgb(179,179,179)" stroke-linejoin="round" d="M 2855,6702 L 3005,6702"/>
 <path fill="none" stroke="rgb(179,179,179)" stroke-linejoin="round" d="M 3005,6702 L 3005,149"/>
 <path fill="none" stroke="rgb(179,179,179)" stroke-linejoin="round" d="M 3005,6852 L 3005,6702"/>
 <path fill="none" stroke="rgb(179,179,179)" stroke-linejoin="round" d="M 3005,0 L 3005,149"/>
 <path fill="none" stroke="rgb(179,179,179)" stroke-linejoin="round" d="M 4369,6852 L 4369,6702"/>
 <path fill="none" stroke="rgb(179,179,179)" stroke-linejoin="round" d="M 4369,0 L 4369,149"/>
 <path fill="none" stroke="rgb(179,179,179)" stroke-linejoin="round" d="M 5733,6852 L 5733,6702"/>
 <path fill="none" stroke="rgb(179,179,179)" stroke-linejoin="round" d="M 5733,0 L 5733,149"/>
 <path fill="none" stroke="rgb(179,179,179)" stroke-linejoin="round" d="M 7098,6852 L 7098,6702"/>
 <path fill="none" stroke="rgb(179,179,179)" stroke-linejoin="round" d="M 7098,0 L 7098,149"/>
 <path fill="none" stroke="rgb(179,179,179)" stroke-linejoin="round" d="M 8461,6852 L 8461,6702"/>
 <path fill="none" stroke="rgb(179,179,179)" stroke-linejoin="round" d="M 8461,0 L 8461,149"/>
 <path fill="none" stroke="rgb(179,179,179)" stroke-linejoin="round" d="M 9826,6852 L 9826,6702"/>
 <path fill="none" stroke="rgb(179,179,179)" stroke-linejoin="round" d="M 9826,0 L 9826,149"/>
 <path fill="none" stroke="rgb(179,179,179)" stroke-linejoin="round" d="M 11190,6852 L 11190,6702"/>
 <path fill="none" stroke="rgb(179,179,179)" stroke-linejoin="round" d="M 11190,0 L 11190,149"/>
 <path fill="none" stroke="rgb(179,179,179)" stroke-linejoin="round" d="M 12555,6852 L 12555,6702"/>
 <path fill="none" stroke="rgb(179,179,179)" stroke-linejoin="round" d="M 12555,0 L 12555,149"/>
 <path fill="none" stroke="rgb(179,179,179)" stroke-linejoin="round" d="M 3005,149 L 12555,149"/>
 <path fill="rgb(220,53,69)" stroke="none" d="M 3005,5720 L 3005,5939 9826,5939 9826,5720 3005,5720 Z"/>
 <path fill="rgb(220,53,69)" stroke="none" d="M 3005,4628 L 3005,4846 9826,4846 9826,4628 3005,4628 Z"/>
 <path fill="rgb(220,53,69)" stroke="none" d="M 3005,3535 L 3005,3754 9826,3754 9826,3535 3005,3535 Z"/>
 <path fill="rgb(220,53,69)" stroke="none" d="M 3005,2444 L 3005,2662 9826,2662 9826,2444 3005,2444 Z"/>
 <path fill="rgb(220,53,69)" stroke="none" d="M 3005,1351 L 3005,1570 9826,1570 9826,1351 3005,1351 Z"/>
 <path fill="rgb(220,53,69)" stroke="none" d="M 3005,259 L 3005,477 9826,477 9826,259 3005,259 Z"/>
 <path fill="rgb(255,158,2)" stroke="none" d="M 3005,5939 L 3005,6156 9826,6156 9826,5939 3005,5939 Z"/>
 <path fill="rgb(255,158,2)" stroke="none" d="M 3005,4846 L 3005,5065 11766,5065 11766,4846 3005,4846 Z"/>
 <path fill="rgb(255,158,2)" stroke="none" d="M 3005,3754 L 3005,3972 10280,3972 10280,3754 3005,3754 Z"/>
 <path fill="rgb(255,158,2)" stroke="none" d="M 3005,2662 L 3005,2881 10253,2881 10253,2662 3005,2662 Z"/>
 <path fill="rgb(255,158,2)" stroke="none" d="M 3005,1570 L 3005,1788 10143,1788 10143,1570 3005,1570 Z"/>
 <path fill="rgb(255,158,2)" stroke="none" d="M 3005,477 L 3005,696 9826,696 9826,477 3005,477 Z"/>
 <path fill="rgb(19,148,72)" stroke="none" d="M 3005,6156 L 3005,6375 9659,6375 9659,6156 3005,6156 Z"/>
 <path fill="rgb(19,148,72)" stroke="none" d="M 3005,5065 L 3005,5283 9806,5283 9806,5065 3005,5065 Z"/>
 <path fill="rgb(19,148,72)" stroke="none" d="M 3005,3972 L 3005,4191 11845,4191 11845,3972 3005,3972 Z"/>
 <path fill="rgb(19,148,72)" stroke="none" d="M 3005,2881 L 3005,3098 10131,3098 10131,2881 3005,2881 Z"/>
 <path fill="rgb(19,148,72)" stroke="none" d="M 3005,1788 L 3005,2007 10032,2007 10032,1788 3005,1788 Z"/>
 <path fill="rgb(19,148,72)" stroke="none" d="M 3005,696 L 3005,914 10969,914 10969,696 3005,696 Z"/>
 <path fill="rgb(12,50,44)" stroke="none" d="M 3005,6375 L 3005,6593 9635,6593 9635,6375 3005,6375 Z"/>
 <path fill="rgb(12,50,44)" stroke="none" d="M 3005,5283 L 3005,5502 11106,5502 11106,5283 3005,5283 Z"/>
 <path fill="rgb(12,50,44)" stroke="none" d="M 3005,4191 L 3005,4409 11884,4409 11884,4191 3005,4191 Z"/>
 <path fill="rgb(12,50,44)" stroke="none" d="M 3005,3098 L 3005,3317 11367,3317 11367,3098 3005,3098 Z"/>
 <path fill="rgb(12,50,44)" stroke="none" d="M 3005,2007 L 3005,2225 10267,2225 10267,2007 3005,2007 Z"/>
 <path fill="rgb(12,50,44)" stroke="none" d="M 3005,914 L 3005,1133 11132,1133 11132,914 3005,914 Z"/>
 <text class="TextShape"><tspan class="TextParagraph" font-family="Liberation Sans, sans-serif" font-size="353px" font-weight="400"><tspan class="TextPosition" x="321" y="817"><tspan fill="rgb(0,0,0)" stroke="none">500.perlbench_r</tspan></tspan></tspan></text>
 <text class="TextShape"><tspan class="TextParagraph" font-family="Liberation Sans, sans-serif" font-size="353px" font-weight="400"><tspan class="TextPosition" x="1247" y="1908"><tspan fill="rgb(0,0,0)" stroke="none">502.gcc_r</tspan></tspan></tspan></text>
 <text class="TextShape"><tspan class="TextParagraph" font-family="Liberation Sans, sans-serif" font-size="353px" font-weight="400"><tspan class="TextPosition" x="1220" y="3001"><tspan fill="rgb(0,0,0)" stroke="none">505.mcf_r</tspan></tspan></tspan></text>
 <text class="TextShape"><tspan class="TextParagraph" font-family="Liberation Sans, sans-serif" font-size="353px" font-weight="400"><tspan class="TextPosition" x="1062" y="4093"><tspan fill="rgb(0,0,0)" stroke="none">525.x264_r</tspan></tspan></tspan></text>
 <text class="TextShape"><tspan class="TextParagraph" font-family="Liberation Sans, sans-serif" font-size="353px" font-weight="400"><tspan class="TextPosition" x="241" y="5185"><tspan fill="rgb(0,0,0)" stroke="none">531.deepsjeng_r</tspan></tspan></tspan></text>
 <text class="TextShape"><tspan class="TextParagraph" font-family="Liberation Sans, sans-serif" font-size="353px" font-weight="400"><tspan class="TextPosition" x="1432" y="6277"><tspan fill="rgb(0,0,0)" stroke="none">557.xz_r</tspan></tspan></tspan></text>
 <text class="TextShape"><tspan class="TextParagraph" font-family="Liberation Sans, sans-serif" font-size="353px" font-weight="400"><tspan class="TextPosition" x="2753" y="7270"><tspan fill="rgb(0,0,0)" stroke="none">0%</tspan></tspan></tspan></text>
 <text class="TextShape"><tspan class="TextParagraph" font-family="Liberation Sans, sans-serif" font-size="353px" font-weight="400"><tspan class="TextPosition" x="4025" y="7270"><tspan fill="rgb(0,0,0)" stroke="none">20%</tspan></tspan></tspan></text>
 <text class="TextShape"><tspan class="TextParagraph" font-family="Liberation Sans, sans-serif" font-size="353px" font-weight="400"><tspan class="TextPosition" x="5389" y="7270"><tspan fill="rgb(0,0,0)" stroke="none">40%</tspan></tspan></tspan></text>
 <text class="TextShape"><tspan class="TextParagraph" font-family="Liberation Sans, sans-serif" font-size="353px" font-weight="400"><tspan class="TextPosition" x="6754" y="7270"><tspan fill="rgb(0,0,0)" stroke="none">60%</tspan></tspan></tspan></text>
 <text class="TextShape"><tspan class="TextParagraph" font-family="Liberation Sans, sans-serif" font-size="353px" font-weight="400"><tspan class="TextPosition" x="8118" y="7270"><tspan fill="rgb(0,0,0)" stroke="none">80%</tspan></tspan></tspan></text>
 <text class="TextShape"><tspan class="TextParagraph" font-family="Liberation Sans, sans-serif" font-size="353px" font-weight="400"><tspan class="TextPosition" x="9390" y="7270"><tspan fill="rgb(0,0,0)" stroke="none">100%</tspan></tspan></tspan></text>
 <text class="TextShape"><tspan class="TextParagraph" font-family="Liberation Sans, sans-serif" font-size="353px" font-weight="400"><tspan class="TextPosition" x="10754" y="7270"><tspan fill="rgb(0,0,0)" stroke="none">120%</tspan></tspan></tspan></text>
 <text class="TextShape"><tspan class="TextParagraph" font-family="Liberation Sans, sans-serif" font-size="353px" font-weight="400"><tspan class="TextPosition" x="12119" y="7270"><tspan fill="rgb(0,0,0)" stroke="none">140%</tspan></tspan></tspan></text>
 <path fill="rgb(220,53,69)" stroke="none" d="M 13615,4602 L 13509,4602 13509,4391 13720,4391 13720,4602 13615,4602 Z"/>
 <path fill="rgb(255,158,2)" stroke="none" d="M 13615,4104 L 13509,4104 13509,3893 13720,3893 13720,4104 13615,4104 Z"/>
 <path fill="rgb(19,148,72)" stroke="none" d="M 13615,3606 L 13509,3606 13509,3395 13720,3395 13720,3606 13615,3606 Z"/>
 <path fill="rgb(12,50,44)" stroke="none" d="M 13615,3108 L 13509,3108 13509,2898 13720,2898 13720,3108 13615,3108 Z"/>
 <text class="TextShape"><tspan class="TextParagraph" font-family="Liberation Sans, sans-serif" font-size="353px" font-weight="400"><tspan class="TextPosition" x="13820" y="3122"><tspan fill="rgb(0,0,0)" stroke="none">GCC (LTO)</tspan></tspan></tspan></text>
 <text class="TextShape"><tspan class="TextParagraph" font-family="Liberation Sans, sans-serif" font-size="353px" font-weight="400"><tspan class="TextPosition" x="13820" y="3620"><tspan fill="rgb(0,0,0)" stroke="none">GCC</tspan></tspan></tspan></text>
 <text class="TextShape"><tspan class="TextParagraph" font-family="Liberation Sans, sans-serif" font-size="353px" font-weight="400"><tspan class="TextPosition" x="13820" y="4118"><tspan fill="rgb(0,0,0)" stroke="none">Clang (LTO)</tspan></tspan></tspan></text>
 <text class="TextShape"><tspan class="TextParagraph" font-family="Liberation Sans, sans-serif" font-size="353px" font-weight="400"><tspan class="TextPosition" x="13820" y="4616"><tspan fill="rgb(0,0,0)" stroke="none">Clang</tspan></tspan></tspan></text>
</svg>