<?xml version="1.0" encoding="UTF-8"?>
<!DOCTYPE svg PUBLIC "-//W3C//DTD SVG 1.1//EN" "http://www.w3.org/Graphics/SVG/1.1/DTD/svg11.dtd">
<svg width="160mm" height="19mm" viewBox="0 0 16000 1900" version="1.1" xmlns="http://www.w3.org/2000/svg" xmlns:xlink="http://www.w3.org/1999/xlink" stroke-width="28.222" stroke-linejoin="round" xml:space="preserve">
 <path fill="rgb(255,255,255)" stroke="none" d="M 8000,1900 L 0,1900 0,107 16000,107 16000,1900 8000,1900 Z"/>
 <path fill="none" stroke="rgb(179,179,179)" stroke-linejoin="round" d="M 7336,1254 L 3190,1254 3190,143 11481,143 11481,1254 7336,1254 Z"/>
 <path fill="none" stroke="rgb(179,179,179)" stroke-linejoin="round" d="M 3190,142 L 3190,1253"/>
 <path fill="none" stroke="rgb(179,179,179)" stroke-linejoin="round" d="M 4848,142 L 4848,1253"/>
 <path fill="none" stroke="rgb(179,179,179)" stroke-linejoin="round" d="M 6506,142 L 6506,1253"/>
 <path fill="none" stroke="rgb(179,179,179)" stroke-linejoin="round" d="M 8164,142 L 8164,1253"/>
 <path fill="none" stroke="rgb(179,179,179)" stroke-linejoin="round" d="M 9822,142 L 9822,1253"/>
 <path fill="none" stroke="rgb(179,179,179)" stroke-linejoin="round" d="M 11481,142 L 11481,1253"/>
 <path fill="none" stroke="rgb(179,179,179)" stroke-linejoin="round" d="M 3040,142 L 3190,142"/>
 <path fill="none" stroke="rgb(179,179,179)" stroke-linejoin="round" d="M 3040,142 L 3190,142"/>
 <path fill="none" stroke="rgb(179,179,179)" stroke-linejoin="round" d="M 3040,1253 L 3190,1253"/>
 <path fill="none" stroke="rgb(179,179,179)" stroke-linejoin="round" d="M 3040,1253 L 3190,1253"/>
 <path fill="none" stroke="rgb(179,179,179)" stroke-linejoin="round" d="M 3190,1253 L 3190,142"/>
 <path fill="none" stroke="rgb(179,179,179)" stroke-linejoin="round" d="M 3190,1394 L 3190,1253"/>
 <path fill="none" stroke="rgb(179,179,179)" stroke-linejoin="round" d="M 3190,0 L 3190,142"/>
 <path fill="none" stroke="rgb(179,179,179)" stroke-linejoin="round" d="M 4848,1394 L 4848,1253"/>
 <path fill="none" stroke="rgb(179,179,179)" stroke-linejoin="round" d="M 4848,0 L 4848,142"/>
 <path fill="none" stroke="rgb(179,179,179)" stroke-linejoin="round" d="M 6506,1394 L 6506,1253"/>
 <path fill="none" stroke="rgb(179,179,179)" stroke-linejoin="round" d="M 6506,0 L 6506,142"/>
 <path fill="none" stroke="rgb(179,179,179)" stroke-linejoin="round" d="M 8164,1394 L 8164,1253"/>
 <path fill="none" stroke="rgb(179,179,179)" stroke-linejoin="round" d="M 8164,0 L 8164,142"/>
 <path fill="none" stroke="rgb(179,179,179)" stroke-linejoin="round" d="M 9822,1394 L 9822,1253"/>
 <path fill="none" stroke="rgb(179,179,179)" stroke-linejoin="round" d="M 9822,0 L 9822,142"/>
 <path fill="none" stroke="rgb(179,179,179)" stroke-linejoin="round" d="M 11481,1394 L 11481,1253"/>
 <path fill="none" stroke="rgb(179,179,179)" stroke-linejoin="round" d="M 11481,0 L 11481,142"/>
 <path fill="none" stroke="rgb(179,179,179)" stroke-linejoin="round" d="M 3190,142 L 11481,142"/>
 <path fill="rgb(222,0,128)" stroke="none" d="M 3190,252 L 3190,475 7336,475 7336,252 3190,252 Z"/>
 <path fill="rgb(112,23,108)" stroke="none" d="M 3190,475 L 3190,697 10412,697 10412,475 3190,475 Z"/>
 <path fill="rgb(19,148,72)" stroke="none" d="M 3190,697 L 3190,919 7657,919 7657,697 3190,697 Z"/>
 <path fill="rgb(12,50,44)" stroke="none" d="M 3190,919 L 3190,1142 7554,1142 7554,919 3190,919 Z"/>
 <text class="TextShape"><tspan class="TextParagraph" font-family="Liberation Sans, sans-serif" font-size="333px" font-weight="400"><tspan class="TextPosition" x="321" y="811"><tspan fill="rgb(0,0,0)" stroke="none">548.exchange2_r</tspan></tspan></tspan></text>
 <text class="TextShape"><tspan class="TextParagraph" font-family="Liberation Sans, sans-serif" font-size="333px" font-weight="400"><tspan class="TextPosition" x="2938" y="1789"><tspan fill="rgb(0,0,0)" stroke="none">0%</tspan></tspan></tspan></text>
 <text class="TextShape"><tspan class="TextParagraph" font-family="Liberation Sans, sans-serif" font-size="333px" font-weight="400"><tspan class="TextPosition" x="4504" y="1789"><tspan fill="rgb(0,0,0)" stroke="none">40%</tspan></tspan></tspan></text>
 <text class="TextShape"><tspan class="TextParagraph" font-family="Liberation Sans, sans-serif" font-size="333px" font-weight="400"><tspan class="TextPosition" x="6162" y="1789"><tspan fill="rgb(0,0,0)" stroke="none">80%</tspan></tspan></tspan></text>
 <text class="TextShape"><tspan class="TextParagraph" font-family="Liberation Sans, sans-serif" font-size="333px" font-weight="400"><tspan class="TextPosition" x="7728" y="1789"><tspan fill="rgb(0,0,0)" stroke="none">120%</tspan></tspan></tspan></text>
 <text class="TextShape"><tspan class="TextParagraph" font-family="Liberation Sans, sans-serif" font-size="333px" font-weight="400"><tspan class="TextPosition" x="9386" y="1789"><tspan fill="rgb(0,0,0)" stroke="none">160%</tspan></tspan></tspan></text>
 <text class="TextShape"><tspan class="TextParagraph" font-family="Liberation Sans, sans-serif" font-size="333px" font-weight="400"><tspan class="TextPosition" x="11045" y="1789"><tspan fill="rgb(0,0,0)" stroke="none">200%</tspan></tspan></tspan></text>
 <path fill="rgb(222,0,128)" stroke="none" d="M 14726,1337 L 14620,1337 14620,1138 14831,1138 14831,1337 14726,1337 Z"/>
 <path fill="rgb(112,23,108)" stroke="none" d="M 12461,1337 L 12355,1337 12355,1138 12566,1138 12566,1337 12461,1337 Z"/>
 <path fill="rgb(19,148,72)" stroke="none" d="M 14726,867 L 14620,867 14620,668 14831,668 14831,867 14726,867 Z"/>
 <path fill="rgb(12,50,44)" stroke="none" d="M 12461,867 L 12355,867 12355,668 12566,668 12566,867 12461,867 Z"/>
 <text class="TextShape"><tspan class="TextParagraph" font-family="Liberation Sans, sans-serif" font-size="333px" font-weight="400"><tspan class="TextPosition" x="12666" y="880"><tspan fill="rgb(0,0,0)" stroke="none">GCC (LTO)</tspan></tspan></tspan></text>
 <text class="TextShape"><tspan class="TextParagraph" font-family="Liberation Sans, sans-serif" font-size="333px" font-weight="400"><tspan class="TextPosition" x="14931" y="880"><tspan fill="rgb(0,0,0)" stroke="none">GCC</tspan></tspan></tspan></text>
 <text class="TextShape"><tspan class="TextParagraph" font-family="Liberation Sans, sans-serif" font-size="333px" font-weight="400"><tspan class="TextPosition" x="12666" y="1350"><tspan fill="rgb(0,0,0)" stroke="none">ICC (LTO)</tspan></tspan></tspan></text>
 <text class="TextShape"><tspan class="TextParagraph" font-family="Liberation Sans, sans-serif" font-size="333px" font-weight="400"><tspan class="TextPosition" x="14931" y="1350"><tspan fill="rgb(0,0,0)" stroke="none">ICC</tspan></tspan></tspan></text>
</svg>