<?xml version="1.0" encoding="UTF-8"?>
<!DOCTYPE svg PUBLIC "-//W3C//DTD SVG 1.1//EN" "http://www.w3.org/Graphics/SVG/1.1/DTD/svg11.dtd">
<svg width="160mm" height="19mm" viewBox="0 0 16000 1900" version="1.1" xmlns="http://www.w3.org/2000/svg" xmlns:xlink="http://www.w3.org/1999/xlink" stroke-width="28.222" stroke-linejoin="round" xml:space="preserve">
 <path fill="rgb(255,255,255)" stroke="none" d="M 7987,1887 L -13,1887 -13,94 15987,94 15987,1887 7987,1887 Z"/>
 <path fill="none" stroke="rgb(179,179,179)" stroke-linejoin="round" d="M 6048,1241 L 2279,1241 2279,130 9816,130 9816,1241 6048,1241 Z"/>
 <path fill="none" stroke="rgb(179,179,179)" stroke-linejoin="round" d="M 2279,129 L 2279,1240"/>
 <path fill="none" stroke="rgb(179,179,179)" stroke-linejoin="round" d="M 3355,129 L 3355,1240"/>
 <path fill="none" stroke="rgb(179,179,179)" stroke-linejoin="round" d="M 4432,129 L 4432,1240"/>
 <path fill="none" stroke="rgb(179,179,179)" stroke-linejoin="round" d="M 5509,129 L 5509,1240"/>
 <path fill="none" stroke="rgb(179,179,179)" stroke-linejoin="round" d="M 6586,129 L 6586,1240"/>
 <path fill="none" stroke="rgb(179,179,179)" stroke-linejoin="round" d="M 7663,129 L 7663,1240"/>
 <path fill="none" stroke="rgb(179,179,179)" stroke-linejoin="round" d="M 8739,129 L 8739,1240"/>
 <path fill="none" stroke="rgb(179,179,179)" stroke-linejoin="round" d="M 9816,129 L 9816,1240"/>
 <path fill="none" stroke="rgb(179,179,179)" stroke-linejoin="round" d="M 2129,129 L 2279,129"/>
 <path fill="none" stroke="rgb(179,179,179)" stroke-linejoin="round" d="M 2129,129 L 2279,129"/>
 <path fill="none" stroke="rgb(179,179,179)" stroke-linejoin="round" d="M 2129,1240 L 2279,1240"/>
 <path fill="none" stroke="rgb(179,179,179)" stroke-linejoin="round" d="M 2129,1240 L 2279,1240"/>
 <path fill="none" stroke="rgb(179,179,179)" stroke-linejoin="round" d="M 2279,1240 L 2279,129"/>
 <path fill="none" stroke="rgb(179,179,179)" stroke-linejoin="round" d="M 2279,1381 L 2279,1240"/>
 <path fill="none" stroke="rgb(179,179,179)" stroke-linejoin="round" d="M 2279,-13 L 2279,129"/>
 <path fill="none" stroke="rgb(179,179,179)" stroke-linejoin="round" d="M 3355,1381 L 3355,1240"/>
 <path fill="none" stroke="rgb(179,179,179)" stroke-linejoin="round" d="M 3355,-13 L 3355,129"/>
 <path fill="none" stroke="rgb(179,179,179)" stroke-linejoin="round" d="M 4432,1381 L 4432,1240"/>
 <path fill="none" stroke="rgb(179,179,179)" stroke-linejoin="round" d="M 4432,-13 L 4432,129"/>
 <path fill="none" stroke="rgb(179,179,179)" stroke-linejoin="round" d="M 5509,1381 L 5509,1240"/>
 <path fill="none" stroke="rgb(179,179,179)" stroke-linejoin="round" d="M 5509,-13 L 5509,129"/>
 <path fill="none" stroke="rgb(179,179,179)" stroke-linejoin="round" d="M 6586,1381 L 6586,1240"/>
 <path fill="none" stroke="rgb(179,179,179)" stroke-linejoin="round" d="M 6586,-13 L 6586,129"/>
 <path fill="none" stroke="rgb(179,179,179)" stroke-linejoin="round" d="M 7663,1381 L 7663,1240"/>
 <path fill="none" stroke="rgb(179,179,179)" stroke-linejoin="round" d="M 7663,-13 L 7663,129"/>
 <path fill="none" stroke="rgb(179,179,179)" stroke-linejoin="round" d="M 8739,1381 L 8739,1240"/>
 <path fill="none" stroke="rgb(179,179,179)" stroke-linejoin="round" d="M 8739,-13 L 8739,129"/>
 <path fill="none" stroke="rgb(179,179,179)" stroke-linejoin="round" d="M 9816,1381 L 9816,1240"/>
 <path fill="none" stroke="rgb(179,179,179)" stroke-linejoin="round" d="M 9816,-13 L 9816,129"/>
 <path fill="none" stroke="rgb(179,179,179)" stroke-linejoin="round" d="M 2279,129 L 9816,129"/>
 <path fill="rgb(222,0,128)" stroke="none" d="M 2279,239 L 2279,462 7663,462 7663,239 2279,239 Z"/>
 <path fill="rgb(112,23,108)" stroke="none" d="M 2279,462 L 2279,684 8681,684 8681,462 2279,462 Z"/>
 <path fill="rgb(12,50,44)" stroke="none" d="M 2279,684 L 2279,906 7209,906 7209,684 2279,684 Z"/>
 <path fill="rgb(19,148,72)" stroke="none" d="M 2279,906 L 2279,1129 7211,1129 7211,906 2279,906 Z"/>
 <text class="SVGTextShape"><tspan class="TextParagraph"><tspan class="TextPosition" x="308" y="799"><tspan font-family="Liberation Sans, sans-serif" font-size="333px" font-weight="400" fill="rgb(0,0,0)" stroke="none" style="white-space: pre">525.x264_r</tspan></tspan></tspan></text>
 <text class="SVGTextShape"><tspan class="TextParagraph"><tspan class="TextPosition" x="2031" y="1776"><tspan font-family="Liberation Sans, sans-serif" font-size="333px" font-weight="400" fill="rgb(0,0,0)" stroke="none" style="white-space: pre">0%</tspan></tspan></tspan></text>
 <text class="SVGTextShape"><tspan class="TextParagraph"><tspan class="TextPosition" x="3012" y="1776"><tspan font-family="Liberation Sans, sans-serif" font-size="333px" font-weight="400" fill="rgb(0,0,0)" stroke="none" style="white-space: pre">20%</tspan></tspan></tspan></text>
 <text class="SVGTextShape"><tspan class="TextParagraph"><tspan class="TextPosition" x="4089" y="1776"><tspan font-family="Liberation Sans, sans-serif" font-size="333px" font-weight="400" fill="rgb(0,0,0)" stroke="none" style="white-space: pre">40%</tspan></tspan></tspan></text>
 <text class="SVGTextShape"><tspan class="TextParagraph"><tspan class="TextPosition" x="5166" y="1776"><tspan font-family="Liberation Sans, sans-serif" font-size="333px" font-weight="400" fill="rgb(0,0,0)" stroke="none" style="white-space: pre">60%</tspan></tspan></tspan></text>
 <text class="SVGTextShape"><tspan class="TextParagraph"><tspan class="TextPosition" x="6243" y="1776"><tspan font-family="Liberation Sans, sans-serif" font-size="333px" font-weight="400" fill="rgb(0,0,0)" stroke="none" style="white-space: pre">80%</tspan></tspan></tspan></text>
 <text class="SVGTextShape"><tspan class="TextParagraph"><tspan class="TextPosition" x="7224" y="1776"><tspan font-family="Liberation Sans, sans-serif" font-size="333px" font-weight="400" fill="rgb(0,0,0)" stroke="none" style="white-space: pre">100%</tspan></tspan></tspan></text>
 <text class="SVGTextShape"><tspan class="TextParagraph"><tspan class="TextPosition" x="8300" y="1776"><tspan font-family="Liberation Sans, sans-serif" font-size="333px" font-weight="400" fill="rgb(0,0,0)" stroke="none" style="white-space: pre">120%</tspan></tspan></tspan></text>
 <text class="SVGTextShape"><tspan class="TextParagraph"><tspan class="TextPosition" x="9377" y="1776"><tspan font-family="Liberation Sans, sans-serif" font-size="333px" font-weight="400" fill="rgb(0,0,0)" stroke="none" style="white-space: pre">140%</tspan></tspan></tspan></text>
 <path fill="rgb(222,0,128)" stroke="none" d="M 13791,1324 L 13685,1324 13685,1125 13896,1125 13896,1324 13791,1324 Z"/>
 <path fill="rgb(112,23,108)" stroke="none" d="M 10800,1324 L 10694,1324 10694,1125 10905,1125 10905,1324 10800,1324 Z"/>
 <path fill="rgb(12,50,44)" stroke="none" d="M 13791,854 L 13685,854 13685,655 13896,655 13896,854 13791,854 Z"/>
 <path fill="rgb(19,148,72)" stroke="none" d="M 10800,854 L 10694,854 10694,655 10905,655 10905,854 10800,854 Z"/>
 <text class="SVGTextShape"><tspan class="TextParagraph"><tspan class="TextPosition" x="11005" y="868"><tspan font-family="Liberation Sans, sans-serif" font-size="333px" font-weight="400" fill="rgb(0,0,0)" stroke="none" style="white-space: pre">GCC (LTO-128)</tspan></tspan></tspan></text>
 <text class="SVGTextShape"><tspan class="TextParagraph"><tspan class="TextPosition" x="13996" y="868"><tspan font-family="Liberation Sans, sans-serif" font-size="333px" font-weight="400" fill="rgb(0,0,0)" stroke="none" style="white-space: pre">GCC (128)</tspan></tspan></tspan></text>
 <text class="SVGTextShape"><tspan class="TextParagraph"><tspan class="TextPosition" x="11005" y="1337"><tspan font-family="Liberation Sans, sans-serif" font-size="333px" font-weight="400" fill="rgb(0,0,0)" stroke="none" style="white-space: pre">ICX (LTO)</tspan></tspan></tspan></text>
 <text class="SVGTextShape"><tspan class="TextParagraph"><tspan class="TextPosition" x="13996" y="1337"><tspan font-family="Liberation Sans, sans-serif" font-size="333px" font-weight="400" fill="rgb(0,0,0)" stroke="none" style="white-space: pre">ICX</tspan></tspan></tspan></text>
</svg>