<?xml version="1.0" encoding="UTF-8"?>
<!DOCTYPE svg PUBLIC "-//W3C//DTD SVG 1.1//EN" "http://www.w3.org/Graphics/SVG/1.1/DTD/svg11.dtd">
<svg width="160mm" height="19mm" viewBox="0 0 16000 1900" version="1.1" xmlns="http://www.w3.org/2000/svg" xmlns:xlink="http://www.w3.org/1999/xlink" stroke-width="28.222" stroke-linejoin="round" xml:space="preserve">
 <path fill="rgb(255,255,255)" stroke="none" d="M 7987,1887 L -13,1887 -13,94 15987,94 15987,1887 7987,1887 Z"/>
 <path fill="none" stroke="rgb(179,179,179)" stroke-linejoin="round" d="M 7080,1241 L 3216,1241 3216,130 10943,130 10943,1241 7080,1241 Z"/>
 <path fill="none" stroke="rgb(179,179,179)" stroke-linejoin="round" d="M 3216,129 L 3216,1240"/>
 <path fill="none" stroke="rgb(179,179,179)" stroke-linejoin="round" d="M 4761,129 L 4761,1240"/>
 <path fill="none" stroke="rgb(179,179,179)" stroke-linejoin="round" d="M 6307,129 L 6307,1240"/>
 <path fill="none" stroke="rgb(179,179,179)" stroke-linejoin="round" d="M 7852,129 L 7852,1240"/>
 <path fill="none" stroke="rgb(179,179,179)" stroke-linejoin="round" d="M 9397,129 L 9397,1240"/>
 <path fill="none" stroke="rgb(179,179,179)" stroke-linejoin="round" d="M 10943,129 L 10943,1240"/>
 <path fill="none" stroke="rgb(179,179,179)" stroke-linejoin="round" d="M 3066,129 L 3216,129"/>
 <path fill="none" stroke="rgb(179,179,179)" stroke-linejoin="round" d="M 3066,129 L 3216,129"/>
 <path fill="none" stroke="rgb(179,179,179)" stroke-linejoin="round" d="M 3066,1240 L 3216,1240"/>
 <path fill="none" stroke="rgb(179,179,179)" stroke-linejoin="round" d="M 3066,1240 L 3216,1240"/>
 <path fill="none" stroke="rgb(179,179,179)" stroke-linejoin="round" d="M 3216,1240 L 3216,129"/>
 <path fill="none" stroke="rgb(179,179,179)" stroke-linejoin="round" d="M 3216,1381 L 3216,1240"/>
 <path fill="none" stroke="rgb(179,179,179)" stroke-linejoin="round" d="M 3216,-13 L 3216,129"/>
 <path fill="none" stroke="rgb(179,179,179)" stroke-linejoin="round" d="M 4761,1381 L 4761,1240"/>
 <path fill="none" stroke="rgb(179,179,179)" stroke-linejoin="round" d="M 4761,-13 L 4761,129"/>
 <path fill="none" stroke="rgb(179,179,179)" stroke-linejoin="round" d="M 6307,1381 L 6307,1240"/>
 <path fill="none" stroke="rgb(179,179,179)" stroke-linejoin="round" d="M 6307,-13 L 6307,129"/>
 <path fill="none" stroke="rgb(179,179,179)" stroke-linejoin="round" d="M 7852,1381 L 7852,1240"/>
 <path fill="none" stroke="rgb(179,179,179)" stroke-linejoin="round" d="M 7852,-13 L 7852,129"/>
 <path fill="none" stroke="rgb(179,179,179)" stroke-linejoin="round" d="M 9397,1381 L 9397,1240"/>
 <path fill="none" stroke="rgb(179,179,179)" stroke-linejoin="round" d="M 9397,-13 L 9397,129"/>
 <path fill="none" stroke="rgb(179,179,179)" stroke-linejoin="round" d="M 10943,1381 L 10943,1240"/>
 <path fill="none" stroke="rgb(179,179,179)" stroke-linejoin="round" d="M 10943,-13 L 10943,129"/>
 <path fill="none" stroke="rgb(179,179,179)" stroke-linejoin="round" d="M 3216,129 L 10943,129"/>
 <path fill="rgb(220,53,69)" stroke="none" d="M 3216,239 L 3216,462 6307,462 6307,239 3216,239 Z"/>
 <path fill="rgb(255,158,2)" stroke="none" d="M 3216,462 L 3216,684 6165,684 6165,462 3216,462 Z"/>
 <path fill="rgb(12,50,44)" stroke="none" d="M 3216,684 L 3216,906 9803,906 9803,684 3216,684 Z"/>
 <path fill="rgb(19,148,72)" stroke="none" d="M 3216,906 L 3216,1129 9692,1129 9692,906 3216,906 Z"/>
 <text class="SVGTextShape"><tspan class="TextParagraph"><tspan class="TextPosition" x="308" y="799"><tspan font-family="Liberation Sans, sans-serif" font-size="333px" font-weight="400" fill="rgb(0,0,0)" stroke="none" style="white-space: pre">548.exchange2_r</tspan></tspan></tspan></text>
 <text class="SVGTextShape"><tspan class="TextParagraph"><tspan class="TextPosition" x="2968" y="1776"><tspan font-family="Liberation Sans, sans-serif" font-size="333px" font-weight="400" fill="rgb(0,0,0)" stroke="none" style="white-space: pre">0%</tspan></tspan></tspan></text>
 <text class="SVGTextShape"><tspan class="TextParagraph"><tspan class="TextPosition" x="4418" y="1776"><tspan font-family="Liberation Sans, sans-serif" font-size="333px" font-weight="400" fill="rgb(0,0,0)" stroke="none" style="white-space: pre">50%</tspan></tspan></tspan></text>
 <text class="SVGTextShape"><tspan class="TextParagraph"><tspan class="TextPosition" x="5868" y="1776"><tspan font-family="Liberation Sans, sans-serif" font-size="333px" font-weight="400" fill="rgb(0,0,0)" stroke="none" style="white-space: pre">100%</tspan></tspan></tspan></text>
 <text class="SVGTextShape"><tspan class="TextParagraph"><tspan class="TextPosition" x="7413" y="1776"><tspan font-family="Liberation Sans, sans-serif" font-size="333px" font-weight="400" fill="rgb(0,0,0)" stroke="none" style="white-space: pre">150%</tspan></tspan></tspan></text>
 <text class="SVGTextShape"><tspan class="TextParagraph"><tspan class="TextPosition" x="8958" y="1776"><tspan font-family="Liberation Sans, sans-serif" font-size="333px" font-weight="400" fill="rgb(0,0,0)" stroke="none" style="white-space: pre">200%</tspan></tspan></tspan></text>
 <text class="SVGTextShape"><tspan class="TextParagraph"><tspan class="TextPosition" x="10504" y="1776"><tspan font-family="Liberation Sans, sans-serif" font-size="333px" font-weight="400" fill="rgb(0,0,0)" stroke="none" style="white-space: pre">250%</tspan></tspan></tspan></text>
 <path fill="rgb(220,53,69)" stroke="none" d="M 14460,1324 L 14354,1324 14354,1125 14565,1125 14565,1324 14460,1324 Z"/>
 <path fill="rgb(255,158,2)" stroke="none" d="M 11927,1324 L 11821,1324 11821,1125 12032,1125 12032,1324 11927,1324 Z"/>
 <path fill="rgb(12,50,44)" stroke="none" d="M 14460,854 L 14354,854 14354,655 14565,655 14565,854 14460,854 Z"/>
 <path fill="rgb(19,148,72)" stroke="none" d="M 11927,854 L 11821,854 11821,655 12032,655 12032,854 11927,854 Z"/>
 <text class="SVGTextShape"><tspan class="TextParagraph"><tspan class="TextPosition" x="12132" y="868"><tspan font-family="Liberation Sans, sans-serif" font-size="333px" font-weight="400" fill="rgb(0,0,0)" stroke="none" style="white-space: pre">GCC (LTO)</tspan></tspan></tspan></text>
 <text class="SVGTextShape"><tspan class="TextParagraph"><tspan class="TextPosition" x="14665" y="868"><tspan font-family="Liberation Sans, sans-serif" font-size="333px" font-weight="400" fill="rgb(0,0,0)" stroke="none" style="white-space: pre">GCC</tspan></tspan></tspan></text>
 <text class="SVGTextShape"><tspan class="TextParagraph"><tspan class="TextPosition" x="12132" y="1337"><tspan font-family="Liberation Sans, sans-serif" font-size="333px" font-weight="400" fill="rgb(0,0,0)" stroke="none" style="white-space: pre">LLVM  (LTO)</tspan></tspan></tspan></text>
 <text class="SVGTextShape"><tspan class="TextParagraph"><tspan class="TextPosition" x="14665" y="1337"><tspan font-family="Liberation Sans, sans-serif" font-size="333px" font-weight="400" fill="rgb(0,0,0)" stroke="none" style="white-space: pre">LLVM </tspan></tspan></tspan></text>
</svg>