<?xml version="1.0" encoding="UTF-8"?>
<!DOCTYPE svg PUBLIC "-//W3C//DTD SVG 1.1//EN" "http://www.w3.org/Graphics/SVG/1.1/DTD/svg11.dtd">
<svg width="160mm" height="74mm" viewBox="0 0 16000 7400" version="1.1" xmlns="http://www.w3.org/2000/svg" xmlns:xlink="http://www.w3.org/1999/xlink" stroke-width="28.222" stroke-linejoin="round" xml:space="preserve">
 <path fill="rgb(255,255,255)" stroke="none" d="M 8000,7400 L 0,7400 0,3 16000,3 16000,7400 8000,7400 Z"/>
 <path fill="none" stroke="rgb(179,179,179)" stroke-linejoin="round" d="M 7741,6606 L 3190,6606 3190,151 12291,151 12291,6606 7741,6606 Z"/>
 <path fill="none" stroke="rgb(179,179,179)" stroke-linejoin="round" d="M 3190,149 L 3190,6604"/>
 <path fill="none" stroke="rgb(179,179,179)" stroke-linejoin="round" d="M 4327,149 L 4327,6604"/>
 <path fill="none" stroke="rgb(179,179,179)" stroke-linejoin="round" d="M 5465,149 L 5465,6604"/>
 <path fill="none" stroke="rgb(179,179,179)" stroke-linejoin="round" d="M 6603,149 L 6603,6604"/>
 <path fill="none" stroke="rgb(179,179,179)" stroke-linejoin="round" d="M 7741,149 L 7741,6604"/>
 <path fill="none" stroke="rgb(179,179,179)" stroke-linejoin="round" d="M 8877,149 L 8877,6604"/>
 <path fill="none" stroke="rgb(179,179,179)" stroke-linejoin="round" d="M 10015,149 L 10015,6604"/>
 <path fill="none" stroke="rgb(179,179,179)" stroke-linejoin="round" d="M 11153,149 L 11153,6604"/>
 <path fill="none" stroke="rgb(179,179,179)" stroke-linejoin="round" d="M 12291,149 L 12291,6604"/>
 <path fill="none" stroke="rgb(179,179,179)" stroke-linejoin="round" d="M 3040,149 L 3190,149"/>
 <path fill="none" stroke="rgb(179,179,179)" stroke-linejoin="round" d="M 3040,149 L 3190,149"/>
 <path fill="none" stroke="rgb(179,179,179)" stroke-linejoin="round" d="M 3040,1226 L 3190,1226"/>
 <path fill="none" stroke="rgb(179,179,179)" stroke-linejoin="round" d="M 3040,1226 L 3190,1226"/>
 <path fill="none" stroke="rgb(179,179,179)" stroke-linejoin="round" d="M 3040,2301 L 3190,2301"/>
 <path fill="none" stroke="rgb(179,179,179)" stroke-linejoin="round" d="M 3040,2301 L 3190,2301"/>
 <path fill="none" stroke="rgb(179,179,179)" stroke-linejoin="round" d="M 3040,3377 L 3190,3377"/>
 <path fill="none" stroke="rgb(179,179,179)" stroke-linejoin="round" d="M 3040,3377 L 3190,3377"/>
 <path fill="none" stroke="rgb(179,179,179)" stroke-linejoin="round" d="M 3040,4453 L 3190,4453"/>
 <path fill="none" stroke="rgb(179,179,179)" stroke-linejoin="round" d="M 3040,4453 L 3190,4453"/>
 <path fill="none" stroke="rgb(179,179,179)" stroke-linejoin="round" d="M 3040,5529 L 3190,5529"/>
 <path fill="none" stroke="rgb(179,179,179)" stroke-linejoin="round" d="M 3040,5529 L 3190,5529"/>
 <path fill="none" stroke="rgb(179,179,179)" stroke-linejoin="round" d="M 3040,6604 L 3190,6604"/>
 <path fill="none" stroke="rgb(179,179,179)" stroke-linejoin="round" d="M 3040,6604 L 3190,6604"/>
 <path fill="none" stroke="rgb(179,179,179)" stroke-linejoin="round" d="M 3190,6604 L 3190,149"/>
 <path fill="none" stroke="rgb(179,179,179)" stroke-linejoin="round" d="M 3190,6754 L 3190,6604"/>
 <path fill="none" stroke="rgb(179,179,179)" stroke-linejoin="round" d="M 3190,0 L 3190,149"/>
 <path fill="none" stroke="rgb(179,179,179)" stroke-linejoin="round" d="M 4327,6754 L 4327,6604"/>
 <path fill="none" stroke="rgb(179,179,179)" stroke-linejoin="round" d="M 4327,0 L 4327,149"/>
 <path fill="none" stroke="rgb(179,179,179)" stroke-linejoin="round" d="M 5465,6754 L 5465,6604"/>
 <path fill="none" stroke="rgb(179,179,179)" stroke-linejoin="round" d="M 5465,0 L 5465,149"/>
 <path fill="none" stroke="rgb(179,179,179)" stroke-linejoin="round" d="M 6603,6754 L 6603,6604"/>
 <path fill="none" stroke="rgb(179,179,179)" stroke-linejoin="round" d="M 6603,0 L 6603,149"/>
 <path fill="none" stroke="rgb(179,179,179)" stroke-linejoin="round" d="M 7741,6754 L 7741,6604"/>
 <path fill="none" stroke="rgb(179,179,179)" stroke-linejoin="round" d="M 7741,0 L 7741,149"/>
 <path fill="none" stroke="rgb(179,179,179)" stroke-linejoin="round" d="M 8877,6754 L 8877,6604"/>
 <path fill="none" stroke="rgb(179,179,179)" stroke-linejoin="round" d="M 8877,0 L 8877,149"/>
 <path fill="none" stroke="rgb(179,179,179)" stroke-linejoin="round" d="M 10015,6754 L 10015,6604"/>
 <path fill="none" stroke="rgb(179,179,179)" stroke-linejoin="round" d="M 10015,0 L 10015,149"/>
 <path fill="none" stroke="rgb(179,179,179)" stroke-linejoin="round" d="M 11153,6754 L 11153,6604"/>
 <path fill="none" stroke="rgb(179,179,179)" stroke-linejoin="round" d="M 11153,0 L 11153,149"/>
 <path fill="none" stroke="rgb(179,179,179)" stroke-linejoin="round" d="M 12291,6754 L 12291,6604"/>
 <path fill="none" stroke="rgb(179,179,179)" stroke-linejoin="round" d="M 12291,0 L 12291,149"/>
 <path fill="none" stroke="rgb(179,179,179)" stroke-linejoin="round" d="M 3190,149 L 12291,149"/>
 <path fill="rgb(220,53,69)" stroke="none" d="M 3190,5637 L 3190,5852 8877,5852 8877,5637 3190,5637 Z"/>
 <path fill="rgb(220,53,69)" stroke="none" d="M 3190,4561 L 3190,4776 8877,4776 8877,4561 3190,4561 Z"/>
 <path fill="rgb(220,53,69)" stroke="none" d="M 3190,3485 L 3190,3700 8877,3700 8877,3485 3190,3485 Z"/>
 <path fill="rgb(220,53,69)" stroke="none" d="M 3190,2409 L 3190,2624 8877,2624 8877,2409 3190,2409 Z"/>
 <path fill="rgb(220,53,69)" stroke="none" d="M 3190,1334 L 3190,1549 8877,1549 8877,1334 3190,1334 Z"/>
 <path fill="rgb(220,53,69)" stroke="none" d="M 3190,257 L 3190,472 8877,472 8877,257 3190,257 Z"/>
 <path fill="rgb(255,158,2)" stroke="none" d="M 3190,5852 L 3190,6067 9058,6067 9058,5852 3190,5852 Z"/>
 <path fill="rgb(255,158,2)" stroke="none" d="M 3190,4776 L 3190,4991 9538,4991 9538,4776 3190,4776 Z"/>
 <path fill="rgb(255,158,2)" stroke="none" d="M 3190,3700 L 3190,3915 9682,3915 9682,3700 3190,3700 Z"/>
 <path fill="rgb(255,158,2)" stroke="none" d="M 3190,2624 L 3190,2840 8877,2840 8877,2624 3190,2624 Z"/>
 <path fill="rgb(255,158,2)" stroke="none" d="M 3190,1549 L 3190,1763 8946,1763 8946,1549 3190,1549 Z"/>
 <path fill="rgb(255,158,2)" stroke="none" d="M 3190,472 L 3190,688 8599,688 8599,472 3190,472 Z"/>
 <path fill="rgb(19,148,72)" stroke="none" d="M 3190,6067 L 3190,6283 10741,6283 10741,6067 3190,6067 Z"/>
 <path fill="rgb(19,148,72)" stroke="none" d="M 3190,4991 L 3190,5206 9292,5206 9292,4991 3190,4991 Z"/>
 <path fill="rgb(19,148,72)" stroke="none" d="M 3190,3915 L 3190,4131 9409,4131 9409,3915 3190,3915 Z"/>
 <path fill="rgb(19,148,72)" stroke="none" d="M 3190,2840 L 3190,3055 11147,3055 11147,2840 3190,2840 Z"/>
 <path fill="rgb(19,148,72)" stroke="none" d="M 3190,1763 L 3190,1979 9407,1979 9407,1763 3190,1763 Z"/>
 <path fill="rgb(19,148,72)" stroke="none" d="M 3190,688 L 3190,903 9169,903 9169,688 3190,688 Z"/>
 <path fill="rgb(12,50,44)" stroke="none" d="M 3190,6283 L 3190,6498 11522,6498 11522,6283 3190,6283 Z"/>
 <path fill="rgb(12,50,44)" stroke="none" d="M 3190,5206 L 3190,5421 10095,5421 10095,5206 3190,5206 Z"/>
 <path fill="rgb(12,50,44)" stroke="none" d="M 3190,4131 L 3190,4346 10050,4346 10050,4131 3190,4131 Z"/>
 <path fill="rgb(12,50,44)" stroke="none" d="M 3190,3055 L 3190,3270 11161,3270 11161,3055 3190,3055 Z"/>
 <path fill="rgb(12,50,44)" stroke="none" d="M 3190,1979 L 3190,2194 9741,2194 9741,1979 3190,1979 Z"/>
 <path fill="rgb(12,50,44)" stroke="none" d="M 3190,903 L 3190,1118 9574,1118 9574,903 3190,903 Z"/>
 <text class="SVGTextShape"><tspan class="TextParagraph" font-family="Liberation Sans, sans-serif" font-size="353px" font-weight="400"><tspan class="TextPosition" x="665" y="809"><tspan fill="rgb(0,0,0)" stroke="none">520.omnetpp_r</tspan></tspan></tspan></text>
 <text class="SVGTextShape"><tspan class="TextParagraph" font-family="Liberation Sans, sans-serif" font-size="353px" font-weight="400"><tspan class="TextPosition" x="321" y="1884"><tspan fill="rgb(0,0,0)" stroke="none">523.xalancbmk_r</tspan></tspan></tspan></text>
 <text class="SVGTextShape"><tspan class="TextParagraph" font-family="Liberation Sans, sans-serif" font-size="353px" font-weight="400"><tspan class="TextPosition" x="1247" y="2960"><tspan fill="rgb(0,0,0)" stroke="none">525.x264_r</tspan></tspan></tspan></text>
 <text class="SVGTextShape"><tspan class="TextParagraph" font-family="Liberation Sans, sans-serif" font-size="353px" font-weight="400"><tspan class="TextPosition" x="426" y="4036"><tspan fill="rgb(0,0,0)" stroke="none">531.deepsjeng_r</tspan></tspan></tspan></text>
 <text class="SVGTextShape"><tspan class="TextParagraph" font-family="Liberation Sans, sans-serif" font-size="353px" font-weight="400"><tspan class="TextPosition" x="1273" y="5112"><tspan fill="rgb(0,0,0)" stroke="none">541.leela_r</tspan></tspan></tspan></text>
 <text class="SVGTextShape"><tspan class="TextParagraph" font-family="Liberation Sans, sans-serif" font-size="353px" font-weight="400"><tspan class="TextPosition" x="321" y="6187"><tspan fill="rgb(0,0,0)" stroke="none">548.exchange2_r</tspan></tspan></tspan></text>
 <text class="SVGTextShape"><tspan class="TextParagraph" font-family="Liberation Sans, sans-serif" font-size="353px" font-weight="400"><tspan class="TextPosition" x="2938" y="7172"><tspan fill="rgb(0,0,0)" stroke="none">0%</tspan></tspan></tspan></text>
 <text class="SVGTextShape"><tspan class="TextParagraph" font-family="Liberation Sans, sans-serif" font-size="353px" font-weight="400"><tspan class="TextPosition" x="3983" y="7172"><tspan fill="rgb(0,0,0)" stroke="none">20%</tspan></tspan></tspan></text>
 <text class="SVGTextShape"><tspan class="TextParagraph" font-family="Liberation Sans, sans-serif" font-size="353px" font-weight="400"><tspan class="TextPosition" x="5121" y="7172"><tspan fill="rgb(0,0,0)" stroke="none">40%</tspan></tspan></tspan></text>
 <text class="SVGTextShape"><tspan class="TextParagraph" font-family="Liberation Sans, sans-serif" font-size="353px" font-weight="400"><tspan class="TextPosition" x="6259" y="7172"><tspan fill="rgb(0,0,0)" stroke="none">60%</tspan></tspan></tspan></text>
 <text class="SVGTextShape"><tspan class="TextParagraph" font-family="Liberation Sans, sans-serif" font-size="353px" font-weight="400"><tspan class="TextPosition" x="7397" y="7172"><tspan fill="rgb(0,0,0)" stroke="none">80%</tspan></tspan></tspan></text>
 <text class="SVGTextShape"><tspan class="TextParagraph" font-family="Liberation Sans, sans-serif" font-size="353px" font-weight="400"><tspan class="TextPosition" x="8441" y="7172"><tspan fill="rgb(0,0,0)" stroke="none">100%</tspan></tspan></tspan></text>
 <text class="SVGTextShape"><tspan class="TextParagraph" font-family="Liberation Sans, sans-serif" font-size="353px" font-weight="400"><tspan class="TextPosition" x="9579" y="7172"><tspan fill="rgb(0,0,0)" stroke="none">120%</tspan></tspan></tspan></text>
 <text class="SVGTextShape"><tspan class="TextParagraph" font-family="Liberation Sans, sans-serif" font-size="353px" font-weight="400"><tspan class="TextPosition" x="10717" y="7172"><tspan fill="rgb(0,0,0)" stroke="none">140%</tspan></tspan></tspan></text>
 <text class="SVGTextShape"><tspan class="TextParagraph" font-family="Liberation Sans, sans-serif" font-size="353px" font-weight="400"><tspan class="TextPosition" x="11855" y="7172"><tspan fill="rgb(0,0,0)" stroke="none">160%</tspan></tspan></tspan></text>
 <path fill="rgb(220,53,69)" stroke="none" d="M 13271,4553 L 13165,4553 13165,4342 13376,4342 13376,4553 13271,4553 Z"/>
 <path fill="rgb(255,158,2)" stroke="none" d="M 13271,4055 L 13165,4055 13165,3844 13376,3844 13376,4055 13271,4055 Z"/>
 <path fill="rgb(19,148,72)" stroke="none" d="M 13271,3557 L 13165,3557 13165,3346 13376,3346 13376,3557 13271,3557 Z"/>
 <path fill="rgb(12,50,44)" stroke="none" d="M 13271,3060 L 13165,3060 13165,2849 13376,2849 13376,3060 13271,3060 Z"/>
 <text class="SVGTextShape"><tspan class="TextParagraph" font-family="Liberation Sans, sans-serif" font-size="353px" font-weight="400"><tspan class="TextPosition" x="13476" y="3074"><tspan fill="rgb(0,0,0)" stroke="none">GCC 11 (LTO)</tspan></tspan></tspan></text>
 <text class="SVGTextShape"><tspan class="TextParagraph" font-family="Liberation Sans, sans-serif" font-size="353px" font-weight="400"><tspan class="TextPosition" x="13476" y="3571"><tspan fill="rgb(0,0,0)" stroke="none">GCC 11</tspan></tspan></tspan></text>
 <text class="SVGTextShape"><tspan class="TextParagraph" font-family="Liberation Sans, sans-serif" font-size="353px" font-weight="400"><tspan class="TextPosition" x="13476" y="4069"><tspan fill="rgb(0,0,0)" stroke="none">GCC 7 (LTO)</tspan></tspan></tspan></text>
 <text class="SVGTextShape"><tspan class="TextParagraph" font-family="Liberation Sans, sans-serif" font-size="353px" font-weight="400"><tspan class="TextPosition" x="13476" y="4567"><tspan fill="rgb(0,0,0)" stroke="none">GCC 7</tspan></tspan></tspan></text>
</svg>