<?xml version="1.0" encoding="UTF-8"?>
<!DOCTYPE svg PUBLIC "-//W3C//DTD SVG 1.1//EN" "http://www.w3.org/Graphics/SVG/1.1/DTD/svg11.dtd">
<svg width="160mm" height="70mm" viewBox="0 0 16000 7000" version="1.1" xmlns="http://www.w3.org/2000/svg" xmlns:xlink="http://www.w3.org/1999/xlink" stroke-width="28.222" stroke-linejoin="round" xml:space="preserve">
 <path fill="rgb(255,255,255)" stroke="none" d="M 7987,6987 L -13,6987 -13,-13 15987,-13 15987,6987 7987,6987 Z"/>
 <path fill="none" stroke="rgb(179,179,179)" stroke-linejoin="round" d="M 7008,6649 L 1431,6649 1431,326 12584,326 12584,6649 7008,6649 Z"/>
 <path fill="none" stroke="rgb(179,179,179)" stroke-linejoin="round" d="M 12584,6648 L 1431,6648"/>
 <path fill="none" stroke="rgb(179,179,179)" stroke-linejoin="round" d="M 12584,5383 L 1431,5383"/>
 <path fill="none" stroke="rgb(179,179,179)" stroke-linejoin="round" d="M 12584,4118 L 1431,4118"/>
 <path fill="none" stroke="rgb(179,179,179)" stroke-linejoin="round" d="M 12584,2854 L 1431,2854"/>
 <path fill="none" stroke="rgb(179,179,179)" stroke-linejoin="round" d="M 12584,1589 L 1431,1589"/>
 <path fill="none" stroke="rgb(179,179,179)" stroke-linejoin="round" d="M 12584,325 L 1431,325"/>
 <path fill="none" stroke="rgb(179,179,179)" stroke-linejoin="round" d="M 1431,6798 L 1431,6648"/>
 <path fill="none" stroke="rgb(179,179,179)" stroke-linejoin="round" d="M 1431,6798 L 1431,6648"/>
 <path fill="none" stroke="rgb(179,179,179)" stroke-linejoin="round" d="M 12584,6798 L 12584,6648"/>
 <path fill="none" stroke="rgb(179,179,179)" stroke-linejoin="round" d="M 12584,6798 L 12584,6648"/>
 <path fill="none" stroke="rgb(179,179,179)" stroke-linejoin="round" d="M 1431,6648 L 12584,6648"/>
 <path fill="none" stroke="rgb(179,179,179)" stroke-linejoin="round" d="M 1281,6648 L 1431,6648"/>
 <path fill="none" stroke="rgb(179,179,179)" stroke-linejoin="round" d="M 1281,6648 L 1431,6648"/>
 <path fill="none" stroke="rgb(179,179,179)" stroke-linejoin="round" d="M 1281,5383 L 1431,5383"/>
 <path fill="none" stroke="rgb(179,179,179)" stroke-linejoin="round" d="M 1281,5383 L 1431,5383"/>
 <path fill="none" stroke="rgb(179,179,179)" stroke-linejoin="round" d="M 1281,4118 L 1431,4118"/>
 <path fill="none" stroke="rgb(179,179,179)" stroke-linejoin="round" d="M 1281,4118 L 1431,4118"/>
 <path fill="none" stroke="rgb(179,179,179)" stroke-linejoin="round" d="M 1281,2854 L 1431,2854"/>
 <path fill="none" stroke="rgb(179,179,179)" stroke-linejoin="round" d="M 1281,2854 L 1431,2854"/>
 <path fill="none" stroke="rgb(179,179,179)" stroke-linejoin="round" d="M 1281,1589 L 1431,1589"/>
 <path fill="none" stroke="rgb(179,179,179)" stroke-linejoin="round" d="M 1281,1589 L 1431,1589"/>
 <path fill="none" stroke="rgb(179,179,179)" stroke-linejoin="round" d="M 1281,325 L 1431,325"/>
 <path fill="none" stroke="rgb(179,179,179)" stroke-linejoin="round" d="M 1281,325 L 1431,325"/>
 <path fill="none" stroke="rgb(179,179,179)" stroke-linejoin="round" d="M 1431,6648 L 1431,325"/>
 <path fill="rgb(220,53,69)" stroke="none" d="M 3290,6648 L 7008,6648 7008,4118 3290,4118 3290,6648 Z"/>
 <path fill="rgb(13,99,48)" stroke="none" d="M 7008,6648 L 10725,6648 10725,2449 7008,2449 7008,6648 Z"/>
 <text class="SVGTextShape"><tspan class="TextParagraph" font-family="Liberation Sans, sans-serif" font-size="353px" font-weight="400"><tspan class="TextPosition" x="493" y="6768"><tspan fill="rgb(0,0,0)" stroke="none" style="white-space: pre">80%</tspan></tspan></tspan></text>
 <text class="SVGTextShape"><tspan class="TextParagraph" font-family="Liberation Sans, sans-serif" font-size="353px" font-weight="400"><tspan class="TextPosition" x="493" y="5503"><tspan fill="rgb(0,0,0)" stroke="none" style="white-space: pre">90%</tspan></tspan></tspan></text>
 <text class="SVGTextShape"><tspan class="TextParagraph" font-family="Liberation Sans, sans-serif" font-size="353px" font-weight="400"><tspan class="TextPosition" x="308" y="4238"><tspan fill="rgb(0,0,0)" stroke="none" style="white-space: pre">100%</tspan></tspan></tspan></text>
 <text class="SVGTextShape"><tspan class="TextParagraph" font-family="Liberation Sans, sans-serif" font-size="353px" font-weight="400"><tspan class="TextPosition" x="308" y="2974"><tspan fill="rgb(0,0,0)" stroke="none" style="white-space: pre">110%</tspan></tspan></tspan></text>
 <text class="SVGTextShape"><tspan class="TextParagraph" font-family="Liberation Sans, sans-serif" font-size="353px" font-weight="400"><tspan class="TextPosition" x="308" y="1709"><tspan fill="rgb(0,0,0)" stroke="none" style="white-space: pre">120%</tspan></tspan></tspan></text>
 <text class="SVGTextShape"><tspan class="TextParagraph" font-family="Liberation Sans, sans-serif" font-size="353px" font-weight="400"><tspan class="TextPosition" x="308" y="445"><tspan fill="rgb(0,0,0)" stroke="none" style="white-space: pre">130%</tspan></tspan></tspan></text>
 <path fill="rgb(220,53,69)" stroke="none" d="M 13126,3343 L 13020,3343 13020,3132 13231,3132 13231,3343 13126,3343 Z"/>
 <path fill="rgb(13,99,48)" stroke="none" d="M 13126,3840 L 13020,3840 13020,3629 13231,3629 13231,3840 13126,3840 Z"/>
 <text class="SVGTextShape"><tspan class="TextParagraph" font-family="Liberation Sans, sans-serif" font-size="353px" font-weight="400"><tspan class="TextPosition" x="13331" y="3357"><tspan fill="rgb(0,0,0)" stroke="none" style="white-space: pre">Plain -O3</tspan></tspan></tspan></text>
 <text class="SVGTextShape"><tspan class="TextParagraph" font-family="Liberation Sans, sans-serif" font-size="353px" font-weight="400"><tspan class="TextPosition" x="13331" y="3854"><tspan fill="rgb(0,0,0)" stroke="none" style="white-space: pre">-O3 -ffast-math</tspan></tspan></tspan></text>
</svg>