<?xml version="1.0" encoding="UTF-8"?>
<!DOCTYPE svg PUBLIC "-//W3C//DTD SVG 1.1//EN" "http://www.w3.org/Graphics/SVG/1.1/DTD/svg11.dtd">
<svg width="160mm" height="99mm" viewBox="0 0 16000 9900" version="1.1" xmlns="http://www.w3.org/2000/svg" xmlns:xlink="http://www.w3.org/1999/xlink" stroke-width="28.222" stroke-linejoin="round" xml:space="preserve">
 <path fill="rgb(255,255,255)" stroke="none" d="M 8000,9900 L 0,9900 0,0 16000,0 16000,9900 8000,9900 Z"/>
 <path fill="none" stroke="rgb(179,179,179)" stroke-linejoin="round" d="M 7476,9103 L 3005,9103 3005,198 11947,198 11947,9103 7476,9103 Z"/>
 <path fill="none" stroke="rgb(179,179,179)" stroke-linejoin="round" d="M 3005,196 L 3005,9103"/>
 <path fill="none" stroke="rgb(179,179,179)" stroke-linejoin="round" d="M 4282,196 L 4282,9103"/>
 <path fill="none" stroke="rgb(179,179,179)" stroke-linejoin="round" d="M 5560,196 L 5560,9103"/>
 <path fill="none" stroke="rgb(179,179,179)" stroke-linejoin="round" d="M 6837,196 L 6837,9103"/>
 <path fill="none" stroke="rgb(179,179,179)" stroke-linejoin="round" d="M 8114,196 L 8114,9103"/>
 <path fill="none" stroke="rgb(179,179,179)" stroke-linejoin="round" d="M 9391,196 L 9391,9103"/>
 <path fill="none" stroke="rgb(179,179,179)" stroke-linejoin="round" d="M 10669,196 L 10669,9103"/>
 <path fill="none" stroke="rgb(179,179,179)" stroke-linejoin="round" d="M 11947,196 L 11947,9103"/>
 <path fill="none" stroke="rgb(179,179,179)" stroke-linejoin="round" d="M 2855,197 L 3005,197"/>
 <path fill="none" stroke="rgb(179,179,179)" stroke-linejoin="round" d="M 2855,197 L 3005,197"/>
 <path fill="none" stroke="rgb(179,179,179)" stroke-linejoin="round" d="M 2855,1186 L 3005,1186"/>
 <path fill="none" stroke="rgb(179,179,179)" stroke-linejoin="round" d="M 2855,1186 L 3005,1186"/>
 <path fill="none" stroke="rgb(179,179,179)" stroke-linejoin="round" d="M 2855,2176 L 3005,2176"/>
 <path fill="none" stroke="rgb(179,179,179)" stroke-linejoin="round" d="M 2855,2176 L 3005,2176"/>
 <path fill="none" stroke="rgb(179,179,179)" stroke-linejoin="round" d="M 2855,3165 L 3005,3165"/>
 <path fill="none" stroke="rgb(179,179,179)" stroke-linejoin="round" d="M 2855,3165 L 3005,3165"/>
 <path fill="none" stroke="rgb(179,179,179)" stroke-linejoin="round" d="M 2855,4155 L 3005,4155"/>
 <path fill="none" stroke="rgb(179,179,179)" stroke-linejoin="round" d="M 2855,4155 L 3005,4155"/>
 <path fill="none" stroke="rgb(179,179,179)" stroke-linejoin="round" d="M 2855,5144 L 3005,5144"/>
 <path fill="none" stroke="rgb(179,179,179)" stroke-linejoin="round" d="M 2855,5144 L 3005,5144"/>
 <path fill="none" stroke="rgb(179,179,179)" stroke-linejoin="round" d="M 2855,6134 L 3005,6134"/>
 <path fill="none" stroke="rgb(179,179,179)" stroke-linejoin="round" d="M 2855,6134 L 3005,6134"/>
 <path fill="none" stroke="rgb(179,179,179)" stroke-linejoin="round" d="M 2855,7123 L 3005,7123"/>
 <path fill="none" stroke="rgb(179,179,179)" stroke-linejoin="round" d="M 2855,7123 L 3005,7123"/>
 <path fill="none" stroke="rgb(179,179,179)" stroke-linejoin="round" d="M 2855,8113 L 3005,8113"/>
 <path fill="none" stroke="rgb(179,179,179)" stroke-linejoin="round" d="M 2855,8113 L 3005,8113"/>
 <path fill="none" stroke="rgb(179,179,179)" stroke-linejoin="round" d="M 2855,9103 L 3005,9103"/>
 <path fill="none" stroke="rgb(179,179,179)" stroke-linejoin="round" d="M 2855,9103 L 3005,9103"/>
 <path fill="none" stroke="rgb(179,179,179)" stroke-linejoin="round" d="M 3005,9103 L 3005,196"/>
 <path fill="none" stroke="rgb(179,179,179)" stroke-linejoin="round" d="M 3005,9241 L 3005,9103"/>
 <path fill="none" stroke="rgb(179,179,179)" stroke-linejoin="round" d="M 3005,57 L 3005,196"/>
 <path fill="none" stroke="rgb(179,179,179)" stroke-linejoin="round" d="M 4282,9241 L 4282,9103"/>
 <path fill="none" stroke="rgb(179,179,179)" stroke-linejoin="round" d="M 4282,57 L 4282,196"/>
 <path fill="none" stroke="rgb(179,179,179)" stroke-linejoin="round" d="M 5560,9241 L 5560,9103"/>
 <path fill="none" stroke="rgb(179,179,179)" stroke-linejoin="round" d="M 5560,57 L 5560,196"/>
 <path fill="none" stroke="rgb(179,179,179)" stroke-linejoin="round" d="M 6837,9241 L 6837,9103"/>
 <path fill="none" stroke="rgb(179,179,179)" stroke-linejoin="round" d="M 6837,57 L 6837,196"/>
 <path fill="none" stroke="rgb(179,179,179)" stroke-linejoin="round" d="M 8114,9241 L 8114,9103"/>
 <path fill="none" stroke="rgb(179,179,179)" stroke-linejoin="round" d="M 8114,57 L 8114,196"/>
 <path fill="none" stroke="rgb(179,179,179)" stroke-linejoin="round" d="M 9391,9241 L 9391,9103"/>
 <path fill="none" stroke="rgb(179,179,179)" stroke-linejoin="round" d="M 9391,57 L 9391,196"/>
 <path fill="none" stroke="rgb(179,179,179)" stroke-linejoin="round" d="M 10669,9241 L 10669,9103"/>
 <path fill="none" stroke="rgb(179,179,179)" stroke-linejoin="round" d="M 10669,57 L 10669,196"/>
 <path fill="none" stroke="rgb(179,179,179)" stroke-linejoin="round" d="M 11947,9241 L 11947,9103"/>
 <path fill="none" stroke="rgb(179,179,179)" stroke-linejoin="round" d="M 11947,57 L 11947,196"/>
 <path fill="none" stroke="rgb(179,179,179)" stroke-linejoin="round" d="M 3005,196 L 11947,196"/>
 <path fill="rgb(220,53,69)" stroke="none" d="M 3005,8212 L 3005,8410 9391,8410 9391,8212 3005,8212 Z"/>
 <path fill="rgb(220,53,69)" stroke="none" d="M 3005,7222 L 3005,7420 9391,7420 9391,7222 3005,7222 Z"/>
 <path fill="rgb(220,53,69)" stroke="none" d="M 3005,6233 L 3005,6431 9391,6431 9391,6233 3005,6233 Z"/>
 <path fill="rgb(220,53,69)" stroke="none" d="M 3005,5243 L 3005,5441 9391,5441 9391,5243 3005,5243 Z"/>
 <path fill="rgb(220,53,69)" stroke="none" d="M 3005,4254 L 3005,4452 9391,4452 9391,4254 3005,4254 Z"/>
 <path fill="rgb(220,53,69)" stroke="none" d="M 3005,3264 L 3005,3462 9391,3462 9391,3264 3005,3264 Z"/>
 <path fill="rgb(220,53,69)" stroke="none" d="M 3005,2275 L 3005,2472 9391,2472 9391,2275 3005,2275 Z"/>
 <path fill="rgb(220,53,69)" stroke="none" d="M 3005,1285 L 3005,1483 9391,1483 9391,1285 3005,1285 Z"/>
 <path fill="rgb(220,53,69)" stroke="none" d="M 3005,295 L 3005,493 9391,493 9391,295 3005,295 Z"/>
 <path fill="rgb(255,158,2)" stroke="none" d="M 3005,8410 L 3005,8608 9324,8608 9324,8410 3005,8410 Z"/>
 <path fill="rgb(255,158,2)" stroke="none" d="M 3005,7420 L 3005,7618 10050,7618 10050,7420 3005,7420 Z"/>
 <path fill="rgb(255,158,2)" stroke="none" d="M 3005,6431 L 3005,6629 10504,6629 10504,6431 3005,6431 Z"/>
 <path fill="rgb(255,158,2)" stroke="none" d="M 3005,5441 L 3005,5639 9536,5639 9536,5441 3005,5441 Z"/>
 <path fill="rgb(255,158,2)" stroke="none" d="M 3005,4452 L 3005,4649 9925,4649 9925,4452 3005,4452 Z"/>
 <path fill="rgb(255,158,2)" stroke="none" d="M 3005,3462 L 3005,3660 9708,3660 9708,3462 3005,3462 Z"/>
 <path fill="rgb(255,158,2)" stroke="none" d="M 3005,2472 L 3005,2670 9876,2670 9876,2472 3005,2472 Z"/>
 <path fill="rgb(255,158,2)" stroke="none" d="M 3005,1483 L 3005,1681 9639,1681 9639,1483 3005,1483 Z"/>
 <path fill="rgb(255,158,2)" stroke="none" d="M 3005,493 L 3005,691 9608,691 9608,493 3005,493 Z"/>
 <path fill="rgb(19,148,72)" stroke="none" d="M 3005,8608 L 3005,8806 9290,8806 9290,8608 3005,8608 Z"/>
 <path fill="rgb(19,148,72)" stroke="none" d="M 3005,7618 L 3005,7816 9601,7816 9601,7618 3005,7618 Z"/>
 <path fill="rgb(19,148,72)" stroke="none" d="M 3005,6629 L 3005,6827 9505,6827 9505,6629 3005,6629 Z"/>
 <path fill="rgb(19,148,72)" stroke="none" d="M 3005,5639 L 3005,5837 10900,5837 10900,5639 3005,5639 Z"/>
 <path fill="rgb(19,148,72)" stroke="none" d="M 3005,4650 L 3005,4847 9549,4847 9549,4650 3005,4650 Z"/>
 <path fill="rgb(19,148,72)" stroke="none" d="M 3005,3660 L 3005,3858 9501,3858 9501,3660 3005,3660 Z"/>
 <path fill="rgb(19,148,72)" stroke="none" d="M 3005,2670 L 3005,2868 9954,2868 9954,2670 3005,2670 Z"/>
 <path fill="rgb(19,148,72)" stroke="none" d="M 3005,1681 L 3005,1879 9500,1879 9500,1681 3005,1681 Z"/>
 <path fill="rgb(19,148,72)" stroke="none" d="M 3005,691 L 3005,889 10020,889 10020,691 3005,691 Z"/>
 <path fill="rgb(12,50,44)" stroke="none" d="M 3005,8806 L 3005,9004 9290,9004 9290,8806 3005,8806 Z"/>
 <path fill="rgb(12,50,44)" stroke="none" d="M 3005,7816 L 3005,8014 10470,8014 10470,7816 3005,7816 Z"/>
 <path fill="rgb(12,50,44)" stroke="none" d="M 3005,6827 L 3005,7024 10176,7024 10176,6827 3005,6827 Z"/>
 <path fill="rgb(12,50,44)" stroke="none" d="M 3005,5837 L 3005,6035 10914,6035 10914,5837 3005,5837 Z"/>
 <path fill="rgb(12,50,44)" stroke="none" d="M 3005,4847 L 3005,5045 9900,5045 9900,4847 3005,4847 Z"/>
 <path fill="rgb(12,50,44)" stroke="none" d="M 3005,3858 L 3005,4056 9942,4056 9942,3858 3005,3858 Z"/>
 <path fill="rgb(12,50,44)" stroke="none" d="M 3005,2868 L 3005,3066 11119,3066 11119,2868 3005,2868 Z"/>
 <path fill="rgb(12,50,44)" stroke="none" d="M 3005,1879 L 3005,2077 9729,2077 9729,1879 3005,1879 Z"/>
 <path fill="rgb(12,50,44)" stroke="none" d="M 3005,889 L 3005,1087 10226,1087 10226,889 3005,889 Z"/>
 <text class="SVGTextShape"><tspan class="TextParagraph" font-family="Liberation Sans, sans-serif" font-size="327px" font-weight="400"><tspan class="TextPosition" x="321" y="803"><tspan fill="rgb(0,0,0)" stroke="none">500.perlbench_r</tspan></tspan></tspan></text>
 <text class="SVGTextShape"><tspan class="TextParagraph" font-family="Liberation Sans, sans-serif" font-size="327px" font-weight="400"><tspan class="TextPosition" x="1247" y="1792"><tspan fill="rgb(0,0,0)" stroke="none">502.gcc_r</tspan></tspan></tspan></text>
 <text class="SVGTextShape"><tspan class="TextParagraph" font-family="Liberation Sans, sans-serif" font-size="327px" font-weight="400"><tspan class="TextPosition" x="1220" y="2781"><tspan fill="rgb(0,0,0)" stroke="none">505.mcf_r</tspan></tspan></tspan></text>
 <text class="SVGTextShape"><tspan class="TextParagraph" font-family="Liberation Sans, sans-serif" font-size="327px" font-weight="400"><tspan class="TextPosition" x="480" y="3771"><tspan fill="rgb(0,0,0)" stroke="none">520.omnetpp_r</tspan></tspan></tspan></text>
 <text class="SVGTextShape"><tspan class="TextParagraph" font-family="Liberation Sans, sans-serif" font-size="327px" font-weight="400"><tspan class="TextPosition" x="136" y="4761"><tspan fill="rgb(0,0,0)" stroke="none">523.xalancbmk_r</tspan></tspan></tspan></text>
 <text class="SVGTextShape"><tspan class="TextParagraph" font-family="Liberation Sans, sans-serif" font-size="327px" font-weight="400"><tspan class="TextPosition" x="1062" y="5750"><tspan fill="rgb(0,0,0)" stroke="none">525.x264_r</tspan></tspan></tspan></text>
 <text class="SVGTextShape"><tspan class="TextParagraph" font-family="Liberation Sans, sans-serif" font-size="327px" font-weight="400"><tspan class="TextPosition" x="241" y="6740"><tspan fill="rgb(0,0,0)" stroke="none">531.deepsjeng_r</tspan></tspan></tspan></text>
 <text class="SVGTextShape"><tspan class="TextParagraph" font-family="Liberation Sans, sans-serif" font-size="327px" font-weight="400"><tspan class="TextPosition" x="1088" y="7729"><tspan fill="rgb(0,0,0)" stroke="none">541.leela_r</tspan></tspan></tspan></text>
 <text class="SVGTextShape"><tspan class="TextParagraph" font-family="Liberation Sans, sans-serif" font-size="327px" font-weight="400"><tspan class="TextPosition" x="1432" y="8719"><tspan fill="rgb(0,0,0)" stroke="none">557.xz_r</tspan></tspan></tspan></text>
 <text class="SVGTextShape"><tspan class="TextParagraph" font-family="Liberation Sans, sans-serif" font-size="327px" font-weight="400"><tspan class="TextPosition" x="2753" y="9628"><tspan fill="rgb(0,0,0)" stroke="none">0%</tspan></tspan></tspan></text>
 <text class="SVGTextShape"><tspan class="TextParagraph" font-family="Liberation Sans, sans-serif" font-size="327px" font-weight="400"><tspan class="TextPosition" x="3938" y="9628"><tspan fill="rgb(0,0,0)" stroke="none">20%</tspan></tspan></tspan></text>
 <text class="SVGTextShape"><tspan class="TextParagraph" font-family="Liberation Sans, sans-serif" font-size="327px" font-weight="400"><tspan class="TextPosition" x="5216" y="9628"><tspan fill="rgb(0,0,0)" stroke="none">40%</tspan></tspan></tspan></text>
 <text class="SVGTextShape"><tspan class="TextParagraph" font-family="Liberation Sans, sans-serif" font-size="327px" font-weight="400"><tspan class="TextPosition" x="6493" y="9628"><tspan fill="rgb(0,0,0)" stroke="none">60%</tspan></tspan></tspan></text>
 <text class="SVGTextShape"><tspan class="TextParagraph" font-family="Liberation Sans, sans-serif" font-size="327px" font-weight="400"><tspan class="TextPosition" x="7771" y="9628"><tspan fill="rgb(0,0,0)" stroke="none">80%</tspan></tspan></tspan></text>
 <text class="SVGTextShape"><tspan class="TextParagraph" font-family="Liberation Sans, sans-serif" font-size="327px" font-weight="400"><tspan class="TextPosition" x="8955" y="9628"><tspan fill="rgb(0,0,0)" stroke="none">100%</tspan></tspan></tspan></text>
 <text class="SVGTextShape"><tspan class="TextParagraph" font-family="Liberation Sans, sans-serif" font-size="327px" font-weight="400"><tspan class="TextPosition" x="10233" y="9628"><tspan fill="rgb(0,0,0)" stroke="none">120%</tspan></tspan></tspan></text>
 <text class="SVGTextShape"><tspan class="TextParagraph" font-family="Liberation Sans, sans-serif" font-size="327px" font-weight="400"><tspan class="TextPosition" x="11511" y="9628"><tspan fill="rgb(0,0,0)" stroke="none">140%</tspan></tspan></tspan></text>
 <path fill="rgb(220,53,69)" stroke="none" d="M 13112,5738 L 13006,5738 13006,5543 13217,5543 13217,5738 13112,5738 Z"/>
 <path fill="rgb(255,158,2)" stroke="none" d="M 13112,5277 L 13006,5277 13006,5082 13217,5082 13217,5277 13112,5277 Z"/>
 <path fill="rgb(19,148,72)" stroke="none" d="M 13112,4816 L 13006,4816 13006,4621 13217,4621 13217,4816 13112,4816 Z"/>
 <path fill="rgb(12,50,44)" stroke="none" d="M 13112,4356 L 13006,4356 13006,4160 13217,4160 13217,4356 13112,4356 Z"/>
 <text class="SVGTextShape"><tspan class="TextParagraph" font-family="Liberation Sans, sans-serif" font-size="327px" font-weight="400"><tspan class="TextPosition" x="13317" y="4369"><tspan fill="rgb(0,0,0)" stroke="none">GCC (LTO)</tspan></tspan></tspan></text>
 <text class="SVGTextShape"><tspan class="TextParagraph" font-family="Liberation Sans, sans-serif" font-size="327px" font-weight="400"><tspan class="TextPosition" x="13317" y="4829"><tspan fill="rgb(0,0,0)" stroke="none">GCC</tspan></tspan></tspan></text>
 <text class="SVGTextShape"><tspan class="TextParagraph" font-family="Liberation Sans, sans-serif" font-size="327px" font-weight="400"><tspan class="TextPosition" x="13317" y="5290"><tspan fill="rgb(0,0,0)" stroke="none">LLVM 13 (LTO)</tspan></tspan></tspan></text>
 <text class="SVGTextShape"><tspan class="TextParagraph" font-family="Liberation Sans, sans-serif" font-size="327px" font-weight="400"><tspan class="TextPosition" x="13317" y="5751"><tspan fill="rgb(0,0,0)" stroke="none">LLVM 13</tspan></tspan></tspan></text>
</svg>