<?xml version="1.0" encoding="UTF-8"?>
<!DOCTYPE svg PUBLIC "-//W3C//DTD SVG 1.1//EN" "http://www.w3.org/Graphics/SVG/1.1/DTD/svg11.dtd">
<svg width="160mm" height="107mm" viewBox="0 0 16000 10700" version="1.1" xmlns="http://www.w3.org/2000/svg" xmlns:xlink="http://www.w3.org/1999/xlink" stroke-width="28.222" stroke-linejoin="round" xml:space="preserve">
 <path fill="rgb(255,255,255)" stroke="none" d="M 7987,10687 L -13,10687 -13,-13 15987,-13 15987,10687 7987,10687 Z"/>
 <path fill="none" stroke="rgb(179,179,179)" stroke-linejoin="round" d="M 7967,9826 L 3137,9826 3137,201 12796,201 12796,9826 7967,9826 Z"/>
 <path fill="none" stroke="rgb(179,179,179)" stroke-linejoin="round" d="M 12796,199 L 12796,9825"/>
 <path fill="none" stroke="rgb(179,179,179)" stroke-linejoin="round" d="M 11186,199 L 11186,9825"/>
 <path fill="none" stroke="rgb(179,179,179)" stroke-linejoin="round" d="M 9576,199 L 9576,9825"/>
 <path fill="none" stroke="rgb(179,179,179)" stroke-linejoin="round" d="M 7966,199 L 7966,9825"/>
 <path fill="none" stroke="rgb(179,179,179)" stroke-linejoin="round" d="M 6357,199 L 6357,9825"/>
 <path fill="none" stroke="rgb(179,179,179)" stroke-linejoin="round" d="M 4747,199 L 4747,9825"/>
 <path fill="none" stroke="rgb(179,179,179)" stroke-linejoin="round" d="M 3136,199 L 3136,9825"/>
 <path fill="none" stroke="rgb(179,179,179)" stroke-linejoin="round" d="M 12946,200 L 12796,200"/>
 <path fill="none" stroke="rgb(179,179,179)" stroke-linejoin="round" d="M 12946,200 L 12796,200"/>
 <path fill="none" stroke="rgb(179,179,179)" stroke-linejoin="round" d="M 12946,1269 L 12796,1269"/>
 <path fill="none" stroke="rgb(179,179,179)" stroke-linejoin="round" d="M 12946,1269 L 12796,1269"/>
 <path fill="none" stroke="rgb(179,179,179)" stroke-linejoin="round" d="M 12946,2339 L 12796,2339"/>
 <path fill="none" stroke="rgb(179,179,179)" stroke-linejoin="round" d="M 12946,2339 L 12796,2339"/>
 <path fill="none" stroke="rgb(179,179,179)" stroke-linejoin="round" d="M 12946,3408 L 12796,3408"/>
 <path fill="none" stroke="rgb(179,179,179)" stroke-linejoin="round" d="M 12946,3408 L 12796,3408"/>
 <path fill="none" stroke="rgb(179,179,179)" stroke-linejoin="round" d="M 12946,4478 L 12796,4478"/>
 <path fill="none" stroke="rgb(179,179,179)" stroke-linejoin="round" d="M 12946,4478 L 12796,4478"/>
 <path fill="none" stroke="rgb(179,179,179)" stroke-linejoin="round" d="M 12946,5546 L 12796,5546"/>
 <path fill="none" stroke="rgb(179,179,179)" stroke-linejoin="round" d="M 12946,5546 L 12796,5546"/>
 <path fill="none" stroke="rgb(179,179,179)" stroke-linejoin="round" d="M 12946,6616 L 12796,6616"/>
 <path fill="none" stroke="rgb(179,179,179)" stroke-linejoin="round" d="M 12946,6616 L 12796,6616"/>
 <path fill="none" stroke="rgb(179,179,179)" stroke-linejoin="round" d="M 12946,7685 L 12796,7685"/>
 <path fill="none" stroke="rgb(179,179,179)" stroke-linejoin="round" d="M 12946,7685 L 12796,7685"/>
 <path fill="none" stroke="rgb(179,179,179)" stroke-linejoin="round" d="M 12946,8755 L 12796,8755"/>
 <path fill="none" stroke="rgb(179,179,179)" stroke-linejoin="round" d="M 12946,8755 L 12796,8755"/>
 <path fill="none" stroke="rgb(179,179,179)" stroke-linejoin="round" d="M 12946,9825 L 12796,9825"/>
 <path fill="none" stroke="rgb(179,179,179)" stroke-linejoin="round" d="M 12946,9825 L 12796,9825"/>
 <path fill="none" stroke="rgb(179,179,179)" stroke-linejoin="round" d="M 12796,9825 L 12796,199"/>
 <path fill="none" stroke="rgb(179,179,179)" stroke-linejoin="round" d="M 12796,9975 L 12796,9825"/>
 <path fill="none" stroke="rgb(179,179,179)" stroke-linejoin="round" d="M 12796,49 L 12796,199"/>
 <path fill="none" stroke="rgb(179,179,179)" stroke-linejoin="round" d="M 11186,9975 L 11186,9825"/>
 <path fill="none" stroke="rgb(179,179,179)" stroke-linejoin="round" d="M 11186,49 L 11186,199"/>
 <path fill="none" stroke="rgb(179,179,179)" stroke-linejoin="round" d="M 9576,9975 L 9576,9825"/>
 <path fill="none" stroke="rgb(179,179,179)" stroke-linejoin="round" d="M 9576,49 L 9576,199"/>
 <path fill="none" stroke="rgb(179,179,179)" stroke-linejoin="round" d="M 7966,9975 L 7966,9825"/>
 <path fill="none" stroke="rgb(179,179,179)" stroke-linejoin="round" d="M 7966,49 L 7966,199"/>
 <path fill="none" stroke="rgb(179,179,179)" stroke-linejoin="round" d="M 6356,9975 L 6356,9825"/>
 <path fill="none" stroke="rgb(179,179,179)" stroke-linejoin="round" d="M 6356,49 L 6356,199"/>
 <path fill="none" stroke="rgb(179,179,179)" stroke-linejoin="round" d="M 4747,9975 L 4747,9825"/>
 <path fill="none" stroke="rgb(179,179,179)" stroke-linejoin="round" d="M 4747,49 L 4747,199"/>
 <path fill="none" stroke="rgb(179,179,179)" stroke-linejoin="round" d="M 3136,9975 L 3136,9825"/>
 <path fill="none" stroke="rgb(179,179,179)" stroke-linejoin="round" d="M 3136,49 L 3136,199"/>
 <path fill="none" stroke="rgb(179,179,179)" stroke-linejoin="round" d="M 3137,199 L 12796,199"/>
 <path fill="rgb(12,50,44)" stroke="none" d="M 12796,306 L 12796,520 4747,520 4747,306 12796,306 Z"/>
 <path fill="rgb(12,50,44)" stroke="none" d="M 12796,1376 L 12796,1590 4747,1590 4747,1376 12796,1376 Z"/>
 <path fill="rgb(12,50,44)" stroke="none" d="M 12796,2446 L 12796,2659 4747,2659 4747,2446 12796,2446 Z"/>
 <path fill="rgb(12,50,44)" stroke="none" d="M 12796,3515 L 12796,3729 4747,3729 4747,3515 12796,3515 Z"/>
 <path fill="rgb(12,50,44)" stroke="none" d="M 12796,4585 L 12796,4799 4747,4799 4747,4585 12796,4585 Z"/>
 <path fill="rgb(12,50,44)" stroke="none" d="M 12796,5653 L 12796,5867 4747,5867 4747,5653 12796,5653 Z"/>
 <path fill="rgb(12,50,44)" stroke="none" d="M 12796,6723 L 12796,6937 4747,6937 4747,6723 12796,6723 Z"/>
 <path fill="rgb(12,50,44)" stroke="none" d="M 12796,7792 L 12796,8006 4747,8006 4747,7792 12796,7792 Z"/>
 <path fill="rgb(12,50,44)" stroke="none" d="M 12796,8862 L 12796,9076 4747,9076 4747,8862 12796,8862 Z"/>
 <path fill="rgb(19,148,72)" stroke="none" d="M 12796,520 L 12796,734 4596,734 4596,520 12796,520 Z"/>
 <path fill="rgb(19,148,72)" stroke="none" d="M 12796,1590 L 12796,1804 4774,1804 4774,1590 12796,1590 Z"/>
 <path fill="rgb(19,148,72)" stroke="none" d="M 12796,2659 L 12796,2873 6535,2873 6535,2659 12796,2659 Z"/>
 <path fill="rgb(19,148,72)" stroke="none" d="M 12796,3729 L 12796,3943 6038,3943 6038,3729 12796,3729 Z"/>
 <path fill="rgb(19,148,72)" stroke="none" d="M 12796,4799 L 12796,5012 6261,5012 6261,4799 12796,4799 Z"/>
 <path fill="rgb(19,148,72)" stroke="none" d="M 12796,5867 L 12796,6081 4859,6081 4859,5867 12796,5867 Z"/>
 <path fill="rgb(19,148,72)" stroke="none" d="M 12796,6937 L 12796,7151 4819,7151 4819,6937 12796,6937 Z"/>
 <path fill="rgb(19,148,72)" stroke="none" d="M 12796,8006 L 12796,8220 8105,8220 8105,8006 12796,8006 Z"/>
 <path fill="rgb(19,148,72)" stroke="none" d="M 12796,9076 L 12796,9290 7321,9290 7321,9076 12796,9076 Z"/>
 <path fill="rgb(255,211,32)" stroke="none" d="M 12796,734 L 12796,948 5555,948 5555,734 12796,734 Z"/>
 <path fill="rgb(255,211,32)" stroke="none" d="M 12796,1804 L 12796,2018 5332,2018 5332,1804 12796,1804 Z"/>
 <path fill="rgb(255,211,32)" stroke="none" d="M 12796,2873 L 12796,3087 4856,3087 4856,2873 12796,2873 Z"/>
 <path fill="rgb(255,211,32)" stroke="none" d="M 12796,3943 L 12796,4157 6645,4157 6645,3943 12796,3943 Z"/>
 <path fill="rgb(255,211,32)" stroke="none" d="M 12796,5013 L 12796,5226 6603,5226 6603,5013 12796,5013 Z"/>
 <path fill="rgb(255,211,32)" stroke="none" d="M 12796,6081 L 12796,6295 4174,6295 4174,6081 12796,6081 Z"/>
 <path fill="rgb(255,211,32)" stroke="none" d="M 12796,7151 L 12796,7365 4739,7365 4739,7151 12796,7151 Z"/>
 <path fill="rgb(255,211,32)" stroke="none" d="M 12796,8220 L 12796,8434 6366,8434 6366,8220 12796,8220 Z"/>
 <path fill="rgb(255,211,32)" stroke="none" d="M 12796,9290 L 12796,9504 5317,9504 5317,9290 12796,9290 Z"/>
 <path fill="rgb(0,138,207)" stroke="none" d="M 12796,948 L 12796,1162 5921,1162 5921,948 12796,948 Z"/>
 <path fill="rgb(0,138,207)" stroke="none" d="M 12796,2018 L 12796,2232 5660,2232 5660,2018 12796,2018 Z"/>
 <path fill="rgb(0,138,207)" stroke="none" d="M 12796,3087 L 12796,3301 6803,3301 6803,3087 12796,3087 Z"/>
 <path fill="rgb(0,138,207)" stroke="none" d="M 12796,4157 L 12796,4371 7705,4371 7705,4157 12796,4157 Z"/>
 <path fill="rgb(0,138,207)" stroke="none" d="M 12796,5226 L 12796,5439 7939,5439 7939,5226 12796,5226 Z"/>
 <path fill="rgb(0,138,207)" stroke="none" d="M 12796,6295 L 12796,6509 4604,6509 4604,6295 12796,6295 Z"/>
 <path fill="rgb(0,138,207)" stroke="none" d="M 12796,7365 L 12796,7578 4813,7578 4813,7365 12796,7365 Z"/>
 <path fill="rgb(0,138,207)" stroke="none" d="M 12796,8434 L 12796,8648 8872,8648 8872,8434 12796,8434 Z"/>
 <path fill="rgb(0,138,207)" stroke="none" d="M 12796,9504 L 12796,9718 8179,9718 8179,9504 12796,9504 Z"/>
 <text class="SVGTextShape"><tspan class="TextParagraph"><tspan class="TextPosition" x="13046" y="855"><tspan font-family="Liberation Sans, sans-serif" font-size="353px" font-weight="400" fill="rgb(0,0,0)" stroke="none" style="white-space: pre">500.perlbench_r</tspan></tspan></tspan></text>
 <text class="SVGTextShape"><tspan class="TextParagraph"><tspan class="TextPosition" x="13046" y="1925"><tspan font-family="Liberation Sans, sans-serif" font-size="353px" font-weight="400" fill="rgb(0,0,0)" stroke="none" style="white-space: pre">502.gcc_r</tspan></tspan></tspan></text>
 <text class="SVGTextShape"><tspan class="TextParagraph"><tspan class="TextPosition" x="13046" y="2994"><tspan font-family="Liberation Sans, sans-serif" font-size="353px" font-weight="400" fill="rgb(0,0,0)" stroke="none" style="white-space: pre">505.mcf_r</tspan></tspan></tspan></text>
 <text class="SVGTextShape"><tspan class="TextParagraph"><tspan class="TextPosition" x="13046" y="4064"><tspan font-family="Liberation Sans, sans-serif" font-size="353px" font-weight="400" fill="rgb(0,0,0)" stroke="none" style="white-space: pre">520.omnetpp_r</tspan></tspan></tspan></text>
 <text class="SVGTextShape"><tspan class="TextParagraph"><tspan class="TextPosition" x="13046" y="5134"><tspan font-family="Liberation Sans, sans-serif" font-size="353px" font-weight="400" fill="rgb(0,0,0)" stroke="none" style="white-space: pre">523.xalancbmk_r</tspan></tspan></tspan></text>
 <text class="SVGTextShape"><tspan class="TextParagraph"><tspan class="TextPosition" x="13046" y="6202"><tspan font-family="Liberation Sans, sans-serif" font-size="353px" font-weight="400" fill="rgb(0,0,0)" stroke="none" style="white-space: pre">525.x264_r</tspan></tspan></tspan></text>
 <text class="SVGTextShape"><tspan class="TextParagraph"><tspan class="TextPosition" x="13046" y="7272"><tspan font-family="Liberation Sans, sans-serif" font-size="353px" font-weight="400" fill="rgb(0,0,0)" stroke="none" style="white-space: pre">531.deepsjeng_r</tspan></tspan></tspan></text>
 <text class="SVGTextShape"><tspan class="TextParagraph"><tspan class="TextPosition" x="13046" y="8341"><tspan font-family="Liberation Sans, sans-serif" font-size="353px" font-weight="400" fill="rgb(0,0,0)" stroke="none" style="white-space: pre">541.leela_r</tspan></tspan></tspan></text>
 <text class="SVGTextShape"><tspan class="TextParagraph"><tspan class="TextPosition" x="13046" y="9411"><tspan font-family="Liberation Sans, sans-serif" font-size="353px" font-weight="400" fill="rgb(0,0,0)" stroke="none" style="white-space: pre">557.xz_r</tspan></tspan></tspan></text>
 <text class="SVGTextShape"><tspan class="TextParagraph"><tspan class="TextPosition" x="12548" y="10393"><tspan font-family="Liberation Sans, sans-serif" font-size="353px" font-weight="400" fill="rgb(0,0,0)" stroke="none" style="white-space: pre">0%</tspan></tspan></tspan></text>
 <text class="SVGTextShape"><tspan class="TextParagraph"><tspan class="TextPosition" x="10843" y="10393"><tspan font-family="Liberation Sans, sans-serif" font-size="353px" font-weight="400" fill="rgb(0,0,0)" stroke="none" style="white-space: pre">20%</tspan></tspan></tspan></text>
 <text class="SVGTextShape"><tspan class="TextParagraph"><tspan class="TextPosition" x="9233" y="10393"><tspan font-family="Liberation Sans, sans-serif" font-size="353px" font-weight="400" fill="rgb(0,0,0)" stroke="none" style="white-space: pre">40%</tspan></tspan></tspan></text>
 <text class="SVGTextShape"><tspan class="TextParagraph"><tspan class="TextPosition" x="7623" y="10393"><tspan font-family="Liberation Sans, sans-serif" font-size="353px" font-weight="400" fill="rgb(0,0,0)" stroke="none" style="white-space: pre">60%</tspan></tspan></tspan></text>
 <text class="SVGTextShape"><tspan class="TextParagraph"><tspan class="TextPosition" x="6013" y="10393"><tspan font-family="Liberation Sans, sans-serif" font-size="353px" font-weight="400" fill="rgb(0,0,0)" stroke="none" style="white-space: pre">80%</tspan></tspan></tspan></text>
 <text class="SVGTextShape"><tspan class="TextParagraph"><tspan class="TextPosition" x="4308" y="10393"><tspan font-family="Liberation Sans, sans-serif" font-size="353px" font-weight="400" fill="rgb(0,0,0)" stroke="none" style="white-space: pre">100%</tspan></tspan></tspan></text>
 <text class="SVGTextShape"><tspan class="TextParagraph"><tspan class="TextPosition" x="2697" y="10393"><tspan font-family="Liberation Sans, sans-serif" font-size="353px" font-weight="400" fill="rgb(0,0,0)" stroke="none" style="white-space: pre">120%</tspan></tspan></tspan></text>
 <path fill="rgb(12,50,44)" stroke="none" d="M 418,6188 L 313,6188 313,5977 524,5977 524,6188 418,6188 Z"/>
 <path fill="rgb(19,148,72)" stroke="none" d="M 418,5690 L 313,5690 313,5479 524,5479 524,5690 418,5690 Z"/>
 <path fill="rgb(255,211,32)" stroke="none" d="M 418,5193 L 313,5193 313,4982 524,4982 524,5193 418,5193 Z"/>
 <path fill="rgb(0,138,207)" stroke="none" d="M 418,4695 L 313,4695 313,4484 524,4484 524,4695 418,4695 Z"/>
 <text class="SVGTextShape"><tspan class="TextParagraph"><tspan class="TextPosition" x="624" y="4709"><tspan font-family="Liberation Sans, sans-serif" font-size="353px" font-weight="400" fill="rgb(0,0,0)" stroke="none" style="white-space: pre">LTO+PGO</tspan></tspan></tspan></text>
 <text class="SVGTextShape"><tspan class="TextParagraph"><tspan class="TextPosition" x="624" y="5207"><tspan font-family="Liberation Sans, sans-serif" font-size="353px" font-weight="400" fill="rgb(0,0,0)" stroke="none" style="white-space: pre">PGO</tspan></tspan></tspan></text>
 <text class="SVGTextShape"><tspan class="TextParagraph"><tspan class="TextPosition" x="624" y="5704"><tspan font-family="Liberation Sans, sans-serif" font-size="353px" font-weight="400" fill="rgb(0,0,0)" stroke="none" style="white-space: pre">LTO</tspan></tspan></tspan></text>
 <text class="SVGTextShape"><tspan class="TextParagraph"><tspan class="TextPosition" x="624" y="6202"><tspan font-family="Liberation Sans, sans-serif" font-size="353px" font-weight="400" fill="rgb(0,0,0)" stroke="none" style="white-space: pre">Normal</tspan></tspan></tspan></text>
</svg>