<?xml version="1.0" encoding="UTF-8" standalone="no"?>
<!DOCTYPE svg PUBLIC "-//W3C//DTD SVG 1.1//EN" "http://www.w3.org/Graphics/SVG/1.1/DTD/svg11.dtd">
<!-- Generated by graphviz version 2.48.0 (0)
 -->
<!-- Title: g Pages: 1 -->
<svg width="394pt" height="332pt"
 viewBox="0.00 0.00 393.69 332.00" xmlns="http://www.w3.org/2000/svg" xmlns:xlink="http://www.w3.org/1999/xlink">
<g id="graph0" class="graph" transform="scale(1 1) rotate(0) translate(4 328)">
<title>g</title>
<polygon fill="white" stroke="transparent" points="-4,4 -4,-328 389.69,-328 389.69,4 -4,4"/>
<!-- SAP_EIC -->
<g id="node1" class="node">
<title>SAP_EIC</title>
<ellipse fill="none" stroke="black" cx="298.14" cy="-306" rx="45.49" ry="18"/>
<text text-anchor="middle" x="298.14" y="-302.3" font-family="Times,serif" font-size="14.00">SAP_EIC</text>
</g>
<!-- RKE2_downstream -->
<g id="node2" class="node">
<title>RKE2_downstream</title>
<ellipse fill="none" stroke="black" cx="298.14" cy="-234" rx="80.69" ry="18"/>
<text text-anchor="middle" x="298.14" y="-230.3" font-family="Times,serif" font-size="14.00">RKE2_downstream</text>
</g>
<!-- SAP_EIC&#45;&gt;RKE2_downstream -->
<g id="edge1" class="edge">
<title>SAP_EIC&#45;&gt;RKE2_downstream</title>
<path fill="none" stroke="black" d="M298.14,-287.7C298.14,-279.98 298.14,-270.71 298.14,-262.11"/>
<polygon fill="black" stroke="black" points="301.64,-262.1 298.14,-252.1 294.64,-262.1 301.64,-262.1"/>
</g>
<!-- Rancher_version -->
<g id="node3" class="node">
<title>Rancher_version</title>
<ellipse fill="none" stroke="black" cx="242.14" cy="-162" rx="70.39" ry="18"/>
<text text-anchor="middle" x="242.14" y="-158.3" font-family="Times,serif" font-size="14.00">Rancher_version</text>
</g>
<!-- RKE2_downstream&#45;&gt;Rancher_version -->
<g id="edge2" class="edge">
<title>RKE2_downstream&#45;&gt;Rancher_version</title>
<path fill="none" stroke="black" d="M279.03,-216.41C271.38,-207.99 262.83,-197.58 255.8,-188.2"/>
<polygon fill="black" stroke="black" points="258.53,-186.01 249.83,-179.96 252.86,-190.11 258.53,-186.01"/>
</g>
<!-- OS_downstream -->
<g id="node4" class="node">
<title>OS_downstream</title>
<ellipse fill="none" stroke="black" cx="316.14" cy="-18" rx="69.59" ry="18"/>
<text text-anchor="middle" x="316.14" y="-14.3" font-family="Times,serif" font-size="14.00">OS_downstream</text>
</g>
<!-- RKE2_downstream&#45;&gt;OS_downstream -->
<g id="edge3" class="edge">
<title>RKE2_downstream&#45;&gt;OS_downstream</title>
<path fill="none" stroke="black" d="M307.69,-215.93C312.78,-205.82 318.53,-192.57 321.14,-180 330.75,-133.75 325.5,-78.44 320.82,-46.17"/>
<polygon fill="black" stroke="black" points="324.26,-45.5 319.28,-36.15 317.34,-46.56 324.26,-45.5"/>
</g>
<!-- Rancher_version&#45;&gt;RKE2_downstream -->
<g id="edge8" class="edge">
<title>Rancher_version&#45;&gt;RKE2_downstream</title>
<path fill="none" stroke="black" d="M261.44,-179.79C269.06,-188.19 277.55,-198.53 284.54,-207.86"/>
<polygon fill="black" stroke="black" points="281.77,-210 290.47,-216.05 287.44,-205.9 281.77,-210"/>
</g>
<!-- Rancher_version&#45;&gt;OS_downstream -->
<g id="edge5" class="edge">
<title>Rancher_version&#45;&gt;OS_downstream</title>
<path fill="none" stroke="black" d="M264.56,-144.72C276.01,-135.26 289.16,-122.37 297.14,-108 307.73,-88.95 312.42,-64.59 314.5,-46.18"/>
<polygon fill="black" stroke="black" points="318,-46.39 315.45,-36.1 311.03,-45.73 318,-46.39"/>
</g>
<!-- Longhorn -->
<g id="node5" class="node">
<title>Longhorn</title>
<ellipse fill="none" stroke="black" cx="242.14" cy="-90" rx="46.29" ry="18"/>
<text text-anchor="middle" x="242.14" y="-86.3" font-family="Times,serif" font-size="14.00">Longhorn</text>
</g>
<!-- Rancher_version&#45;&gt;Longhorn -->
<g id="edge4" class="edge">
<title>Rancher_version&#45;&gt;Longhorn</title>
<path fill="none" stroke="black" d="M242.14,-143.7C242.14,-135.98 242.14,-126.71 242.14,-118.11"/>
<polygon fill="black" stroke="black" points="245.64,-118.1 242.14,-108.1 238.64,-118.1 245.64,-118.1"/>
</g>
<!-- OS_upstream -->
<g id="node6" class="node">
<title>OS_upstream</title>
<ellipse fill="none" stroke="black" cx="59.14" cy="-18" rx="59.29" ry="18"/>
<text text-anchor="middle" x="59.14" y="-14.3" font-family="Times,serif" font-size="14.00">OS_upstream</text>
</g>
<!-- Rancher_version&#45;&gt;OS_upstream -->
<g id="edge6" class="edge">
<title>Rancher_version&#45;&gt;OS_upstream</title>
<path fill="none" stroke="black" d="M179.22,-153.89C123.26,-146.12 47.54,-131.53 29.14,-108 14.52,-89.28 26.25,-63.05 39.08,-43.91"/>
<polygon fill="black" stroke="black" points="42.01,-45.84 44.97,-35.67 36.31,-41.77 42.01,-45.84"/>
</g>
<!-- RKE2_upstream -->
<g id="node7" class="node">
<title>RKE2_upstream</title>
<ellipse fill="none" stroke="black" cx="108.14" cy="-90" rx="69.59" ry="18"/>
<text text-anchor="middle" x="108.14" y="-86.3" font-family="Times,serif" font-size="14.00">RKE2_upstream</text>
</g>
<!-- Rancher_version&#45;&gt;RKE2_upstream -->
<g id="edge7" class="edge">
<title>Rancher_version&#45;&gt;RKE2_upstream</title>
<path fill="none" stroke="black" d="M212.74,-145.64C193.28,-135.47 167.56,-122.04 146.49,-111.03"/>
<polygon fill="black" stroke="black" points="147.97,-107.85 137.48,-106.33 144.73,-114.06 147.97,-107.85"/>
</g>
<!-- Longhorn&#45;&gt;OS_downstream -->
<g id="edge10" class="edge">
<title>Longhorn&#45;&gt;OS_downstream</title>
<path fill="none" stroke="black" d="M258.94,-73.12C268.48,-64.09 280.6,-52.62 291.23,-42.57"/>
<polygon fill="black" stroke="black" points="293.79,-44.97 298.65,-35.55 288.98,-39.88 293.79,-44.97"/>
</g>
<!-- RKE2_upstream&#45;&gt;OS_upstream -->
<g id="edge9" class="edge">
<title>RKE2_upstream&#45;&gt;OS_upstream</title>
<path fill="none" stroke="black" d="M96.28,-72.05C90.45,-63.71 83.29,-53.49 76.82,-44.25"/>
<polygon fill="black" stroke="black" points="79.5,-41.97 70.9,-35.79 73.76,-45.99 79.5,-41.97"/>
</g>
<!-- Harvester -->
<g id="node8" class="node">
<title>Harvester</title>
<ellipse fill="none" stroke="black" cx="154.14" cy="-234" rx="45.49" ry="18"/>
<text text-anchor="middle" x="154.14" y="-230.3" font-family="Times,serif" font-size="14.00">Harvester</text>
</g>
<!-- Harvester&#45;&gt;Rancher_version -->
<g id="edge11" class="edge">
<title>Harvester&#45;&gt;Rancher_version</title>
<path fill="none" stroke="black" d="M173.67,-217.46C185.31,-208.21 200.28,-196.3 213.26,-185.98"/>
<polygon fill="black" stroke="black" points="215.8,-188.43 221.44,-179.47 211.44,-182.95 215.8,-188.43"/>
</g>
</g>
</svg>
