<?xml version="1.0" encoding="UTF-8" standalone="no"?>
<svg
   version="1.1"
   x="0"
   y="0"
   width="210.59975"
   height="38.090038"
   viewBox="0 0 210.59975 38.090038"
   id="svg9"
   sodipodi:docname="suse.svg"
   xmlns:inkscape="http://www.inkscape.org/namespaces/inkscape"
   xmlns:sodipodi="http://sodipodi.sourceforge.net/DTD/sodipodi-0.dtd"
   xmlns="http://www.w3.org/2000/svg"
   xmlns:svg="http://www.w3.org/2000/svg">
  <defs
     id="defs13" />
  <sodipodi:namedview
     id="namedview11"
     pagecolor="#ffffff"
     bordercolor="#666666"
     borderopacity="1.0"
     inkscape:showpageshadow="2"
     inkscape:pageopacity="0.0"
     inkscape:pagecheckerboard="0"
     inkscape:deskcolor="#d1d1d1"
     showgrid="false" />
  <g
     id="Layer_1"
     transform="translate(-30.000256,-28.698704)">
    <g
       id="g6">
      <path
         d="m 238.462,55.726 h -13.555 c -1.045,0 -1.896,-0.85 -1.896,-1.896 v -6.848 h 13.084 c 1.124,0 2.036,-0.911 2.036,-2.036 0,-1.125 -0.912,-2.037 -2.036,-2.037 H 223.011 V 36.17 c 0,-1.046 0.851,-1.897 1.896,-1.897 h 13.555 c 1.18,0 2.138,-0.955 2.138,-2.136 0,-1.18 -0.958,-2.137 -2.138,-2.137 h -13.555 c -3.4,0 -6.169,2.767 -6.169,6.17 v 17.66 c 0,3.402 2.769,6.169 6.169,6.169 h 13.555 c 1.18,0 2.138,-0.955 2.138,-2.135 0,-1.181 -0.958,-2.138 -2.138,-2.138 m -39.86,-12.761 c -2.866,-0.515 -4.859,-1.123 -5.974,-1.833 -1.117,-0.709 -1.675,-1.666 -1.675,-2.873 0,-1.296 0.573,-2.361 1.719,-3.191 1.147,-0.828 2.761,-1.244 4.844,-1.244 2.112,0 3.801,0.406 5.069,1.222 0.682,0.439 1.303,1.022 1.863,1.752 0.826,1.068 2.385,1.21 3.389,0.306 0.947,-0.854 1.03,-2.318 0.178,-3.268 -1.028,-1.148 -2.197,-2.057 -3.507,-2.727 -1.947,-0.996 -4.293,-1.493 -7.037,-1.493 -2.354,0 -4.413,0.406 -6.177,1.221 -1.765,0.814 -3.117,1.916 -4.051,3.303 -0.936,1.389 -1.403,2.927 -1.403,4.617 0,1.599 0.368,2.956 1.109,4.072 0.738,1.118 1.924,2.052 3.553,2.806 1.628,0.755 3.815,1.388 6.561,1.901 2.746,0.514 4.669,1.101 5.77,1.765 1.102,0.664 1.652,1.538 1.652,2.623 0,1.359 -0.61,2.408 -1.834,3.147 -1.22,0.739 -2.903,1.109 -5.045,1.109 -2.263,0 -4.156,-0.422 -5.68,-1.268 -0.87,-0.483 -1.649,-1.123 -2.339,-1.92 -0.868,-1.007 -2.426,-1.031 -3.365,-0.091 l -0.008,0.01 c -0.86,0.858 -0.926,2.251 -0.115,3.155 2.582,2.882 6.434,4.322 11.552,4.322 2.353,0 4.428,-0.355 6.224,-1.064 1.795,-0.708 3.188,-1.726 4.184,-3.053 0.997,-1.328 1.495,-2.867 1.495,-4.618 0,-1.628 -0.362,-2.993 -1.086,-4.094 -0.725,-1.101 -1.878,-2.022 -3.463,-2.76 -1.583,-0.74 -3.718,-1.351 -6.403,-1.834 m -66.832,0.009 c -2.866,-0.515 -4.857,-1.124 -5.973,-1.833 -1.117,-0.709 -1.674,-1.667 -1.674,-2.875 0,-1.296 0.573,-2.36 1.719,-3.189 1.147,-0.829 2.761,-1.245 4.843,-1.245 2.11,0 3.801,0.408 5.068,1.222 0.684,0.439 1.305,1.023 1.865,1.752 0.824,1.07 2.384,1.211 3.388,0.307 0.948,-0.855 1.03,-2.319 0.178,-3.268 -1.028,-1.149 -2.198,-2.058 -3.507,-2.728 -1.946,-0.995 -4.293,-1.493 -7.038,-1.493 -2.353,0 -4.412,0.407 -6.176,1.221 -1.766,0.814 -3.116,1.917 -4.051,3.305 -0.935,1.387 -1.403,2.925 -1.403,4.615 0,1.599 0.368,2.958 1.109,4.072 0.739,1.117 1.924,2.054 3.552,2.807 1.629,0.755 3.817,1.388 6.562,1.901 2.745,0.513 4.668,1.102 5.77,1.765 1.101,0.663 1.652,1.538 1.652,2.624 0,1.358 -0.611,2.406 -1.832,3.145 -1.223,0.74 -2.905,1.109 -5.046,1.109 -2.264,0 -4.158,-0.422 -5.681,-1.268 -0.869,-0.482 -1.649,-1.122 -2.337,-1.919 -0.868,-1.008 -2.427,-1.031 -3.368,-0.09 l -0.007,0.008 c -0.86,0.858 -0.926,2.251 -0.115,3.155 2.582,2.883 6.433,4.322 11.553,4.322 2.353,0 4.427,-0.354 6.222,-1.063 1.795,-0.708 3.19,-1.728 4.186,-3.055 0.996,-1.326 1.493,-2.867 1.493,-4.616 0,-1.629 -0.362,-2.993 -1.086,-4.095 -0.725,-1.102 -1.877,-2.021 -3.463,-2.76 -1.583,-0.74 -3.717,-1.35 -6.403,-1.833 m 44.573,-10.915 v 16.428 c 0,3.921 -1.041,6.885 -3.122,8.892 -2.082,2.007 -5.114,3.009 -9.095,3.009 -3.984,0 -7.016,-1.002 -9.098,-3.009 -2.081,-2.007 -3.121,-4.971 -3.121,-8.892 V 32.059 c 0,-1.35 1.092,-2.443 2.442,-2.443 1.349,0 2.445,1.093 2.445,2.443 v 15.839 c 0,2.837 0.595,4.926 1.787,6.268 1.192,1.342 3.039,2.014 5.545,2.014 2.504,0 4.35,-0.672 5.542,-2.014 1.192,-1.342 1.788,-3.431 1.788,-6.268 V 32.059 c 0,-1.35 1.095,-2.443 2.443,-2.443 1.35,0 2.444,1.093 2.444,2.443"
         fill="#0c322c"
         id="path2" />
      <path
         d="m 101.408,42.16 c -0.405,0.269 -0.947,0.269 -1.353,0 -0.664,-0.441 -0.728,-1.363 -0.192,-1.896 0.476,-0.493 1.261,-0.493 1.737,-0.001 0.535,0.534 0.47,1.456 -0.192,1.897 m 1.936,-2.687 c 0.772,3.284 -2.18,6.237 -5.464,5.465 -1.672,-0.392 -2.999,-1.719 -3.392,-3.39 -0.77,-3.282 2.181,-6.233 5.464,-5.464 1.671,0.391 2.999,1.717 3.392,3.389 M 81.232,57.135 c 0.375,0.539 0.687,1.06 0.862,1.581 0.124,0.37 0.283,0.858 0.648,1.054 0.02,0.011 0.038,0.021 0.06,0.027 0.67,0.244 2.393,0.203 2.393,0.203 h 3.169 c 0.271,0.004 2.652,-0.003 2.592,-0.269 -0.287,-1.273 -1.759,-1.501 -2.88,-2.167 -1.033,-0.616 -2.013,-1.314 -2.457,-2.515 -0.232,-0.62 -0.095,-2.05 0.304,-2.571 0.291,-0.377 0.72,-0.627 1.181,-0.728 0.511,-0.109 1.041,-0.015 1.552,0.037 0.63,0.064 1.252,0.178 1.88,0.256 1.212,0.158 2.436,0.221 3.658,0.188 2.017,-0.056 4.039,-0.377 5.951,-1.029 1.335,-0.448 2.65,-1.054 3.785,-1.897 1.29,-0.959 0.951,-0.869 -0.357,-0.735 -1.566,0.16 -3.146,0.184 -4.717,0.091 -1.466,-0.085 -2.912,-0.258 -4.238,-0.939 -1.044,-0.539 -1.941,-1.079 -2.769,-1.914 -0.124,-0.126 -0.201,-0.494 0.026,-0.729 0.22,-0.228 0.686,-0.096 0.829,0.026 1.444,1.207 3.598,2.201 5.828,2.309 1.206,0.06 2.379,0.082 3.586,0.03 0.603,-0.028 1.513,-0.024 2.118,-0.03 0.312,-0.004 1.163,0.086 1.322,-0.245 0.048,-0.096 0.044,-0.207 0.04,-0.315 -0.177,-4.826 -0.534,-10.269 -5.584,-12.576 -3.768,-1.723 -9.417,-4.392 -11.803,-5.499 -0.553,-0.263 -1.2,0.153 -1.2,0.769 0,1.612 0.082,3.928 0.083,6.036 -1.143,-1.164 -3.068,-1.899 -4.535,-2.573 -1.666,-0.764 -3.386,-1.412 -5.136,-1.957 -3.523,-1.091 -7.169,-1.763 -10.836,-2.127 -4.159,-0.415 -8.388,-0.216 -12.483,0.63 -6.744,1.398 -13.373,4.641 -18.405,9.384 -3.089,2.91 -5.513,7.047 -5.677,11.246 -0.234,5.943 1.431,9.134 4.491,12.423 4.88,5.242 15.383,5.976 19.637,-0.24 1.914,-2.798 2.329,-6.593 0.94,-9.686 -1.389,-3.091 -4.582,-5.325 -7.967,-5.439 -2.627,-0.087 -5.426,1.249 -6.433,3.678 -0.768,1.855 -0.331,4.147 1.068,5.587 0.545,0.562 1.283,1.022 2.089,0.842 0.475,-0.106 0.872,-0.463 0.944,-0.945 0.106,-0.711 -0.516,-1.172 -0.899,-1.718 -0.691,-0.985 -0.551,-2.464 0.314,-3.301 0.73,-0.707 1.811,-0.916 2.827,-0.913 0.946,0.002 1.913,0.171 2.729,0.648 1.147,0.675 1.909,1.911 2.173,3.217 0.787,3.903 -2.386,7.074 -6.688,7.323 -2.201,0.13 -4.441,-0.448 -6.159,-1.831 -4.351,-3.5 -5.417,-10.654 -0.444,-14.473 4.721,-3.625 10.681,-2.691 14.195,-0.807 2.812,1.507 4.908,3.973 6.496,6.699 0.797,1.371 1.476,2.804 2.106,4.259 0.606,1.399 1.173,2.809 2.386,3.834 0.803,0.68 1.794,0.656 2.846,0.656 h 6.005 c 0.816,0 0.617,-0.544 0.265,-0.904 -0.796,-0.814 -1.94,-0.998 -2.999,-1.289 -2.421,-0.666 -2.174,-3.871 -1.504,-3.871 2.164,0 2.232,0.065 4.128,0.041 2.736,-0.038 3.564,-0.197 5.704,0.594 1.144,0.424 2.243,1.542 2.96,2.564"
         fill="#30ba78"
         id="path4" />
    </g>
  </g>
</svg>
