<?xml version="1.0" encoding="UTF-8"?>
<!DOCTYPE svg PUBLIC "-//W3C//DTD SVG 1.1//EN" "http://www.w3.org/Graphics/SVG/1.1/DTD/svg11.dtd">
<svg version="1.1" xmlns="http://www.w3.org/2000/svg" xmlns:xlink="http://www.w3.org/1999/xlink" x="0" y="0" width="270" height="90" viewBox="0, 0, 270, 90">
  <g id="Layer_1">
    <g>
      <path d="M224.908,59.781 C221.623,59.781 218.95,57.109 218.95,53.824 L218.95,36.165 C218.95,32.88 221.623,30.206 224.908,30.206 L238.463,30.206 C239.525,30.206 240.389,31.07 240.389,32.131 C240.389,33.192 239.525,34.055 238.463,34.055 L224.908,34.055 C223.746,34.055 222.801,35.002 222.801,36.165 L222.801,43.115 L236.095,43.115 C237.101,43.115 237.919,43.934 237.919,44.94 C237.919,45.946 237.101,46.764 236.095,46.764 L222.801,46.764 L222.801,53.824 C222.801,54.987 223.746,55.931 224.908,55.931 L238.463,55.931 C239.525,55.931 240.389,56.796 240.389,57.857 C240.389,58.919 239.525,59.781 238.463,59.781 z M164.126,60.17 C160.217,60.17 157.206,59.178 155.176,57.22 C153.148,55.266 152.12,52.326 152.12,48.481 L152.12,32.053 C152.12,30.822 153.12,29.821 154.35,29.821 C155.581,29.821 156.582,30.822 156.582,32.053 L156.582,47.892 C156.582,50.769 157.202,52.926 158.425,54.3 C159.654,55.684 161.571,56.385 164.126,56.385 C166.679,56.385 168.598,55.684 169.827,54.3 C171.049,52.925 171.668,50.769 171.668,47.892 L171.668,32.053 C171.668,30.822 172.67,29.821 173.901,29.821 C175.132,29.821 176.133,30.822 176.133,32.053 L176.133,48.481 C176.133,52.324 175.103,55.264 173.074,57.22 C171.044,59.178 168.035,60.17 164.126,60.17 M197.652,60.17 C192.619,60.17 188.784,58.74 186.258,55.92 C185.527,55.104 185.573,53.845 186.364,53.055 L186.372,53.046 L186.38,53.038 C186.781,52.64 187.313,52.422 187.879,52.422 C188.478,52.422 189.042,52.677 189.429,53.125 C190.133,53.938 190.938,54.6 191.825,55.091 C193.372,55.95 195.318,56.385 197.608,56.385 C199.781,56.385 201.515,56.002 202.762,55.245 C204.046,54.469 204.698,53.35 204.698,51.918 C204.698,50.76 204.108,49.815 202.944,49.113 C201.812,48.432 199.902,47.847 197.104,47.322 C194.386,46.815 192.195,46.181 190.591,45.437 C189.005,44.703 187.84,43.786 187.127,42.706 C186.414,41.634 186.053,40.303 186.053,38.75 C186.053,37.111 186.513,35.597 187.42,34.252 C188.329,32.904 189.662,31.817 191.383,31.023 C193.113,30.225 195.161,29.821 197.471,29.821 C200.171,29.821 202.506,30.315 204.412,31.291 C205.692,31.945 206.851,32.847 207.86,33.971 C208.63,34.832 208.558,36.165 207.697,36.942 C207.309,37.291 206.808,37.483 206.288,37.483 C205.629,37.483 205.019,37.183 204.617,36.662 C204.045,35.918 203.401,35.312 202.7,34.862 C201.404,34.029 199.661,33.607 197.517,33.607 C195.401,33.607 193.73,34.039 192.551,34.891 C191.352,35.758 190.743,36.89 190.743,38.253 C190.743,39.532 191.339,40.559 192.516,41.305 C193.659,42.032 195.638,42.642 198.565,43.168 C201.221,43.645 203.357,44.257 204.915,44.984 C206.455,45.701 207.592,46.605 208.292,47.67 C208.989,48.731 209.342,50.069 209.342,51.647 C209.342,53.343 208.854,54.854 207.892,56.138 C206.922,57.429 205.544,58.433 203.799,59.122 C202.037,59.817 199.97,60.17 197.652,60.17 M130.822,60.178 C125.787,60.178 121.954,58.747 119.427,55.927 C118.696,55.112 118.743,53.853 119.533,53.062 L119.545,53.05 C119.947,52.65 120.481,52.43 121.049,52.43 C121.649,52.43 122.214,52.686 122.598,53.133 C123.3,53.945 124.105,54.607 124.993,55.099 C126.541,55.959 128.487,56.394 130.777,56.394 C132.949,56.394 134.683,56.011 135.932,55.254 C137.216,54.478 137.867,53.359 137.867,51.928 C137.867,50.768 137.276,49.825 136.113,49.123 C134.98,48.44 133.069,47.854 130.272,47.329 C127.555,46.823 125.364,46.188 123.759,45.446 C122.174,44.711 121.007,43.792 120.295,42.715 C119.583,41.642 119.222,40.311 119.222,38.759 C119.222,37.119 119.682,35.607 120.588,34.262 C121.497,32.912 122.831,31.826 124.552,31.032 C126.28,30.235 128.328,29.83 130.64,29.83 C133.34,29.83 135.676,30.325 137.58,31.3 C138.862,31.955 140.021,32.857 141.027,33.98 C141.799,34.841 141.725,36.172 140.866,36.95 C140.478,37.299 139.977,37.491 139.456,37.491 C138.797,37.491 138.188,37.192 137.786,36.671 C137.217,35.928 136.57,35.321 135.869,34.87 C134.572,34.036 132.829,33.614 130.686,33.614 C128.569,33.614 126.899,34.047 125.718,34.899 C124.52,35.769 123.912,36.9 123.912,38.261 C123.912,39.54 124.508,40.567 125.684,41.314 C126.828,42.041 128.806,42.65 131.735,43.177 C134.388,43.652 136.525,44.263 138.086,44.992 C139.626,45.712 140.76,46.616 141.46,47.677 C142.158,48.737 142.512,50.075 142.512,51.656 C142.512,53.353 142.024,54.863 141.06,56.145 C140.09,57.437 138.713,58.442 136.966,59.131 C135.205,59.826 133.138,60.178 130.822,60.178" fill="#FFFFFF"/>
      <path d="M101.541,40.263 C101.064,39.771 100.279,39.771 99.803,40.263 C99.267,40.797 99.331,41.719 99.995,42.16 C100.401,42.429 100.943,42.429 101.348,42.16 C102.01,41.719 102.075,40.797 101.541,40.263 M99.952,36.084 C96.668,35.315 93.718,38.266 94.489,41.548 C94.88,43.219 96.208,44.546 97.881,44.938 C101.165,45.71 104.117,42.757 103.344,39.473 C102.95,37.801 101.623,36.475 99.952,36.084 M78.271,54.571 C76.131,53.78 75.304,53.939 72.568,53.977 C70.672,54.001 70.603,53.936 68.439,53.936 C67.77,53.936 67.524,57.141 69.943,57.807 C71.002,58.098 72.146,58.282 72.943,59.096 C73.296,59.456 73.494,60 72.679,60 L66.673,60 C65.622,60 64.63,60.024 63.827,59.344 C62.614,58.319 62.048,56.909 61.441,55.51 C60.811,54.055 60.132,52.622 59.334,51.251 C57.748,48.525 55.651,46.059 52.838,44.552 C49.326,42.668 43.365,41.734 38.645,45.359 C33.671,49.178 34.736,56.332 39.087,59.832 C40.805,61.215 43.045,61.793 45.247,61.663 C49.55,61.414 52.723,58.243 51.935,54.34 C51.672,53.034 50.91,51.797 49.762,51.123 C48.946,50.646 47.978,50.477 47.033,50.475 C46.017,50.472 44.936,50.681 44.205,51.388 C43.341,52.225 43.201,53.704 43.892,54.689 C44.274,55.235 44.896,55.696 44.791,56.407 C44.719,56.888 44.322,57.246 43.848,57.352 C43.041,57.532 42.302,57.072 41.757,56.51 C40.359,55.07 39.921,52.778 40.691,50.923 C41.697,48.494 44.495,47.158 47.122,47.245 C50.509,47.359 53.702,49.593 55.09,52.684 C56.479,55.777 56.063,59.572 54.149,62.37 C49.896,68.586 39.393,67.852 34.513,62.61 C31.452,59.321 29.789,56.13 30.022,50.187 C30.186,45.988 32.609,41.851 35.698,38.941 C40.731,34.198 47.359,30.955 54.104,29.557 C58.2,28.71 62.429,28.512 66.587,28.927 C70.254,29.291 73.899,29.963 77.423,31.054 C79.173,31.599 80.894,32.247 82.558,33.011 C84.026,33.685 85.95,34.42 87.093,35.584 C87.093,33.476 87.011,31.16 87.011,29.547 C87.011,28.932 87.658,28.516 88.212,28.779 C90.597,29.886 96.247,32.555 100.014,34.278 C105.064,36.585 105.421,42.028 105.597,46.854 C105.601,46.962 105.606,47.073 105.558,47.169 C105.399,47.5 104.548,47.41 104.236,47.414 C103.632,47.42 102.721,47.416 102.117,47.444 C100.912,47.496 99.738,47.474 98.532,47.414 C96.303,47.306 94.148,46.312 92.705,45.105 C92.561,44.983 92.095,44.851 91.876,45.079 C91.648,45.314 91.726,45.682 91.849,45.808 C92.677,46.643 93.574,47.183 94.618,47.722 C95.944,48.403 97.39,48.576 98.856,48.661 C100.426,48.754 102.007,48.73 103.574,48.57 C104.882,48.436 105.22,48.346 103.929,49.305 C102.795,50.148 101.48,50.754 100.146,51.202 C98.232,51.854 96.212,52.175 94.195,52.231 C92.972,52.264 91.749,52.201 90.536,52.043 C89.908,51.965 89.285,51.851 88.655,51.787 C88.144,51.735 87.614,51.64 87.105,51.75 C86.642,51.851 86.215,52.101 85.924,52.478 C85.525,52.999 85.387,54.429 85.618,55.049 C86.063,56.25 87.042,56.948 88.076,57.564 C89.196,58.23 90.669,58.458 90.956,59.731 C91.015,59.997 88.634,60.004 88.364,60 L85.195,60 C85.195,60 83.473,60.041 82.802,59.797 C82.781,59.791 82.763,59.781 82.741,59.77 C82.377,59.574 82.219,59.086 82.095,58.716 C81.918,58.195 81.608,57.674 81.231,57.135 C80.515,56.113 79.415,54.995 78.271,54.571 M102.268,40.509 C102.268,42.367 100.764,43.871 98.907,43.871 C97.051,43.871 95.547,42.367 95.547,40.509 C95.547,38.654 97.051,37.15 98.907,37.15 C100.764,37.15 102.268,38.654 102.268,40.509" fill="#30BA78"/>
    </g>
  </g>
</svg>
