<?xml version="1.0" encoding="UTF-8"?>
<!DOCTYPE svg PUBLIC "-//W3C//DTD SVG 1.1//EN" "http://www.w3.org/Graphics/SVG/1.1/DTD/svg11.dtd">
<svg xmlns="http://www.w3.org/2000/svg" xmlns:xlink="http://www.w3.org/1999/xlink" version="1.1" width="338px" height="851px" viewBox="-0.5 -0.5 338 851" style="background-color: rgb(255, 255, 255);"><defs/><g><rect x="36.68" y="310" width="300" height="540" fill="#ffffff" stroke="#000000" pointer-events="all"/><path d="M 186.7 458 L 186.7 470 L 186.7 523.63" fill="none" stroke="#000000" stroke-miterlimit="10" pointer-events="stroke"/><path d="M 186.7 528.88 L 183.2 521.88 L 186.7 523.63 L 190.2 521.88 Z" fill="#000000" stroke="#000000" stroke-miterlimit="10" pointer-events="all"/><image x="122.18" y="329.5" width="128" height="128" xlink:href="https://cdn1.iconfinder.com/data/icons/simple-icons/128/php-128-black.png" preserveAspectRatio="none"/><image x="-0.5" y="279.5" width="90" height="90" xlink:href="https://cdn4.iconfinder.com/data/icons/logos-and-brands/512/330_Suse_logo-128.png" preserveAspectRatio="none"/><path d="M 186.7 640 L 186.68 713.63" fill="none" stroke="#000000" stroke-miterlimit="10" pointer-events="stroke"/><path d="M 186.68 718.88 L 183.18 711.88 L 186.68 713.63 L 190.18 711.88 Z" fill="#000000" stroke="#000000" stroke-miterlimit="10" pointer-events="all"/><image x="122.18" y="719.5" width="133.33" height="100" xlink:href="http://www.aliencoders.org/wp-content/uploads/1/apache-http-server-logo.jpg" preserveAspectRatio="none"/><image x="108.98" y="544.5" width="159.73" height="90" xlink:href="https://i.ytimg.com/vi/kZzbuoah13Q/maxresdefault.jpg" preserveAspectRatio="none"/><rect x="36.68" y="30" width="300" height="240" fill="#ffffff" stroke="#000000" pointer-events="all"/><image x="-0.5" y="-0.5" width="90" height="90" xlink:href="https://cdn4.iconfinder.com/data/icons/logos-and-brands/512/330_Suse_logo-128.png" preserveAspectRatio="none"/><path d="M 186.7 190 L 186.7 275 L 186.98 353.63" fill="none" stroke="#000000" stroke-miterlimit="10" pointer-events="stroke"/><path d="M 187 358.88 L 183.47 351.89 L 186.98 353.63 L 190.47 351.87 Z" fill="#000000" stroke="#000000" stroke-miterlimit="10" pointer-events="all"/><image x="116.18" y="49.5" width="140" height="140" xlink:href="https://developer.fedoraproject.org/static/logo/mariadb.png" preserveAspectRatio="none"/></g></svg>